<svg width="20" height="20" viewBox="0 0 20 20" fill="currentcolor" xmlns="http://www.w3.org/2000/svg">
<path id="Vector" d="M9.41319 16.2882C9.50059 16.2011 9.56994 16.0977 9.61726 15.9837C9.66457 15.8697 9.68893 15.7476 9.68893 15.6242C9.68893 15.5008 9.66457 15.3786 9.61726 15.2647C9.56994 15.1507 9.50059 15.0472 9.41319 14.9601L5.39053 10.9375L16.8749 10.9375C17.1235 10.9375 17.362 10.8387 17.5378 10.6629C17.7136 10.4871 17.8124 10.2486 17.8124 9.99996C17.8124 9.75132 17.7136 9.51287 17.5378 9.33705C17.362 9.16124 17.1235 9.06247 16.8749 9.06247L5.39053 9.06247L9.41319 5.03825C9.58931 4.86213 9.68825 4.62326 9.68825 4.37418C9.68825 4.12511 9.58931 3.88624 9.41319 3.71012C9.23707 3.534 8.9982 3.43506 8.74913 3.43506C8.50006 3.43506 8.26119 3.534 8.08507 3.71012L2.46007 9.33512C2.37267 9.42222 2.30332 9.52571 2.256 9.63967C2.20868 9.75362 2.18433 9.8758 2.18433 9.99918C2.18433 10.1226 2.20868 10.2447 2.256 10.3587C2.30332 10.4727 2.37267 10.5761 2.46007 10.6632L8.08507 16.2882C8.17216 16.3756 8.27566 16.445 8.38961 16.4923C8.50357 16.5396 8.62574 16.564 8.74913 16.564C8.87252 16.564 8.99469 16.5396 9.10865 16.4923C9.2226 16.445 9.32609 16.3756 9.41319 16.2882Z" fill="currentcolor"/>
</svg>
