<svg  viewBox="0 0 50 50" fill="none" xmlns="http://www.w3.org/2000/svg">
<g clip-path="url(#clip0_32_48)">
<path d="M20.0625 36.5229C21.3375 37.7958 20.502 39.977 18.7041 40.077C17.5336 40.1429 16.3624 39.9605 15.2673 39.5419C14.1722 39.1232 13.1781 38.4778 12.35 37.6479C11.5207 36.8198 10.8758 35.8259 10.4576 34.7312C10.0393 33.6365 9.85708 32.4658 9.92288 31.2958C10.0187 29.575 12.0166 28.7375 13.3062 29.7833L13.477 29.9375L20.0625 36.5229ZM41.8145 8.18538C43.8145 10.1854 44.177 13.2062 42.8979 15.575L42.7104 15.8937L42.6604 15.9687C43.3683 18.5089 43.4643 21.1806 42.9407 23.7651C42.4171 26.3495 41.2887 28.7732 39.6479 30.8375L39.2666 31.302L38.8687 31.7562L34.55 36.0729L34.3833 36.3062C33.4993 37.5923 33.1285 39.1626 33.3437 40.7083L33.4166 41.127L33.5104 41.5125C34.0604 43.4958 31.7333 44.9395 30.2083 43.702L30.0291 43.5395L6.46038 19.9708C4.9458 18.4562 6.42497 15.9187 8.48747 16.4895C9.36656 16.7333 10.2884 16.7816 11.1881 16.6312C12.0879 16.4808 12.9438 16.1352 13.6958 15.6187L13.9375 15.4395L18.3145 11.0645C20.3287 9.2311 22.7615 7.91921 25.4001 7.24368C28.0386 6.56815 30.8026 6.54956 33.45 7.18955L34.0291 7.33746L34.1062 7.28955C35.1957 6.61641 36.4655 6.29383 37.7441 6.36536C39.0227 6.43689 40.2486 6.8991 41.2562 7.68955L41.5479 7.9333L41.8145 8.18538Z" fill="#F4F4F4"/>
</g>
<clipPath id="clip0_32_48">
<rect  fill="white"/>
</clipPath>
</svg>
