<svg viewBox="0 0 20 20" fill="none" xmlns="http://www.w3.org/2000/svg">

<path id="Vector" d="M7.83321 8.74998L11.8082 1.86665C10.5791 1.59215 9.30362 1.60028 8.07807 1.89043C6.85251 2.18058 5.70882 2.74517 4.73321 3.54165L7.78321 8.83331L7.83321 8.74998ZM17.9499 7.49998C17.1832 5.06665 15.3249 3.11665 12.9499 2.21665L9.89988 7.49998H17.9499ZM18.1665 8.33331H11.9249L12.1665 8.74998L16.1332 15.625C17.5505 14.095 18.3364 12.0855 18.3332 9.99998C18.3332 9.42498 18.2749 8.87498 18.1665 8.33331ZM7.11655 9.99998L3.86655 4.37498C2.97363 5.34202 2.32356 6.5076 1.97001 7.77545C1.61646 9.04331 1.56957 10.3771 1.83321 11.6666H8.07488L7.11655 9.99998ZM2.04988 12.5C2.81655 14.9333 4.67488 16.8833 7.04988 17.7833L10.0999 12.5H2.04988ZM11.4415 12.5L8.19155 18.1333C9.4207 18.4078 10.6961 18.3997 11.9217 18.1095C13.1473 17.8194 14.2909 17.2548 15.2665 16.4583L12.2165 11.1666L11.4415 12.5Z" fill="#4B9FEC"/>

</svg>
