<svg viewBox="0 0 20 20" fill="none" xmlns="http://www.w3.org/2000/svg">
<path d="M10.0001 2.5C8.6989 2.49956 7.41998 2.83766 6.289 3.48106C5.15802 4.12446 4.21388 5.05104 3.54937 6.16975C2.88485 7.28846 2.52281 8.5608 2.49883 9.86177C2.47485 11.1627 2.78975 12.4476 3.41258 13.59L2.52508 16.7025C2.49386 16.8118 2.49302 16.9275 2.52268 17.0373C2.55233 17.147 2.61135 17.2466 2.69338 17.3252C2.77541 17.4039 2.87734 17.4588 2.98821 17.4838C3.09908 17.5089 3.21468 17.5032 3.32258 17.4675L6.24508 16.4937C7.24116 17.0693 8.3563 17.4081 9.50423 17.4838C10.6522 17.5594 11.8021 17.37 12.8651 16.9302C13.9281 16.4903 14.8757 15.8118 15.6346 14.9472C16.3934 14.0825 16.9432 13.0549 17.2413 11.9437C17.5395 10.8326 17.578 9.66782 17.354 8.53942C17.1299 7.41102 16.6493 6.34929 15.9493 5.43635C15.2493 4.52342 14.3486 3.78375 13.317 3.27458C12.2854 2.76541 11.1505 2.50038 10.0001 2.5ZM7.50008 8.75C7.50008 8.58424 7.56593 8.42527 7.68314 8.30806C7.80035 8.19085 7.95932 8.125 8.12508 8.125H11.8751C12.0408 8.125 12.1998 8.19085 12.317 8.30806C12.4342 8.42527 12.5001 8.58424 12.5001 8.75C12.5001 8.91576 12.4342 9.07473 12.317 9.19194C12.1998 9.30915 12.0408 9.375 11.8751 9.375H8.12508C7.95932 9.375 7.80035 9.30915 7.68314 9.19194C7.56593 9.07473 7.50008 8.91576 7.50008 8.75ZM8.12508 10.625H10.6251C10.7908 10.625 10.9498 10.6908 11.067 10.8081C11.1842 10.9253 11.2501 11.0842 11.2501 11.25C11.2501 11.4158 11.1842 11.5747 11.067 11.6919C10.9498 11.8092 10.7908 11.875 10.6251 11.875H8.12508C7.95932 11.875 7.80035 11.8092 7.68314 11.6919C7.56593 11.5747 7.50008 11.4158 7.50008 11.25C7.50008 11.0842 7.56593 10.9253 7.68314 10.8081C7.80035 10.6908 7.95932 10.625 8.12508 10.625Z" fill="#4B9FEC"/>
</svg>
