<svg viewBox="0 0 30 30" fill="none" xmlns="http://www.w3.org/2000/svg">
<path d="M3.11044 25.5002C3.21077 25.2463 3.39539 24.7788 3.58703 24.3142C3.70643 24.0242 3.85592 23.7453 3.96228 23.4503C4.19506 22.8092 4.38168 22.151 4.63653 21.5189C4.97867 20.6701 5.38703 19.8473 5.73017 18.9985C6.07332 18.1497 6.36629 17.2487 6.70743 16.3828C6.94823 15.7727 7.25024 15.1858 7.49305 14.5767C7.59338 14.3199 7.68368 14.0811 7.39271 13.7811C7.18101 13.5614 6.83184 13.1791 7.09171 12.7777C7.35158 12.3764 7.64756 11.9209 8.23552 12.1015C8.52736 12.1986 8.79232 12.3629 9.0091 12.5811C11.866 15.4159 14.7134 18.2587 17.5516 21.1095C18.1787 21.7396 18.2991 22.3647 17.4211 22.9466C16.8974 23.2948 16.6556 22.8082 16.2844 22.7139C16.0837 22.6627 15.8519 22.4992 15.6904 22.5533C15.1104 22.746 14.5556 23.0109 13.9917 23.2476L12.1696 24.0102C11.5104 24.2851 10.8553 24.5691 10.193 24.8359C9.85492 24.9724 9.49773 25.0657 9.1596 25.2032C8.49138 25.4751 7.83318 25.7691 7.16796 26.047C6.87499 26.1694 6.57398 26.2717 6.279 26.3871C5.77733 26.5878 5.29171 26.8105 4.78301 26.9751C3.98937 27.2279 3.04723 26.5617 3.11044 25.5002Z" fill="white"/>
<path d="M26.978 3.99854V6.07747H24.0141C24.0141 6.80389 23.987 7.48215 24.0201 8.1574C24.0613 8.98516 23.066 10.0698 22.2522 10.0066C21.87 9.97747 21.3272 9.93532 21.1315 10.149C20.9228 10.3788 21.0573 10.9056 21.0061 11.2969C20.8987 12.1076 20.3228 12.9143 19.5512 12.9454C18.4586 12.9895 17.7452 13.5223 17.1011 14.3089C16.7118 14.7865 16.2543 15.2119 15.7967 15.6825C15.3783 15.3313 14.9619 15.0153 14.5927 14.651C14.4974 14.5567 14.4683 14.2377 14.5496 14.1494C15.1797 13.432 15.8339 12.7357 16.5001 12.0504C17.0128 11.5236 17.6379 11.1755 18.3854 11.1694C18.8609 11.1694 18.9412 10.9387 18.9944 10.5333C19.0616 10.0256 19.1569 9.49385 19.3787 9.03934C19.7078 8.36609 20.3359 8.13633 21.0844 8.14235C21.9402 8.15138 21.9061 8.11726 21.9522 7.25338C21.9738 6.56521 22.0711 5.88149 22.2422 5.21459C22.3666 4.77412 22.7519 4.4691 23.2315 4.27646C24.4506 3.78884 25.6917 4.14402 26.978 3.99854Z" fill="white"/>
<path d="M13.0135 12.6222V10.6406C13.0135 9.82383 13.0225 9.00711 13.0135 8.19139C13.0025 7.42884 12.5811 7.02851 11.8095 7.01747C11.36 7.01145 10.9065 7.01747 10.46 7.00744C9.78774 6.98737 9.24995 6.55995 9.11149 5.95393C8.97403 5.39306 9.25296 4.5653 9.73256 4.33754C10.1022 4.17611 10.4944 4.07223 10.8954 4.02951C11.7179 3.92329 12.5539 4.02684 13.3255 4.33052C13.647 4.45533 13.9397 4.64422 14.1858 4.8857C14.4319 5.12718 14.6264 5.41621 14.7573 5.7352C15.1817 6.7255 15.0653 7.69774 14.8376 8.72717C14.5685 9.92016 14.1388 11.0711 13.5603 12.1486C13.444 12.3356 13.3135 12.5133 13.17 12.6803L13.0135 12.6222Z" fill="white"/>
<path d="M17.4011 16.9054C17.7212 16.6967 18.0172 16.4228 18.3663 16.2924C19.4911 15.873 20.6148 15.4195 21.7777 15.1435C22.9155 14.8746 24.0954 14.9549 25.0396 15.7666C25.4339 16.1068 25.7028 16.5753 25.8643 17.1412C26.0459 17.7803 26.065 18.4004 26.0801 19.0405C26.0931 19.79 25.8944 20.4623 25.1881 20.8104C24.867 20.97 24.4005 21.0633 24.0844 20.9509C23.661 20.8004 23.1553 20.5616 23.1172 19.9756C23.0841 19.4619 23.1172 18.9432 23.075 18.4305C23.055 18.1656 22.9366 17.9088 22.8673 17.6479C22.7449 17.1934 22.4048 17.086 21.9914 17.087C20.661 17.087 19.3302 17.087 17.9991 17.087H17.4714L17.4011 16.9054Z" fill="white"/>
<path d="M22.9034 23.5236C22.8292 23.6682 22.7422 23.8059 22.6435 23.935C22.4428 24.1517 22.2311 24.3503 22.0184 24.552C21.5167 25.0266 21.4906 25.0286 21.0391 24.546C20.8074 24.2982 20.6318 23.9721 20.3579 23.7965C20.0037 23.5717 20.1492 23.4192 20.3318 23.2286C20.6177 22.9276 20.9097 22.6396 21.2027 22.3487C21.4495 22.1039 21.6723 22.1239 21.905 22.3848C22.1378 22.6457 22.4167 22.8774 22.6615 23.1353C22.7547 23.2564 22.8357 23.3865 22.9034 23.5236Z" fill="white"/>
<path d="M5.55143 5.13232C5.7521 5.29888 5.93069 5.42028 6.07818 5.56978C6.32902 5.82363 6.52467 6.14871 6.81062 6.34336C7.09658 6.53801 6.97116 6.65941 6.83571 6.80791C6.624 7.03968 6.39424 7.2554 6.1725 7.47814C5.58454 8.06811 5.45209 8.0651 4.91631 7.45507C4.85711 7.38684 4.78989 7.32564 4.72668 7.26142C4.11564 6.64336 4.08755 6.53701 4.67551 5.94202C4.94741 5.66811 5.2424 5.41828 5.55143 5.13232Z" fill="white"/>
<path d="M5.04185 12.6022C4.72278 12.9333 4.50305 13.1701 4.27429 13.3979C3.59703 14.0761 3.54988 14.046 2.96994 13.456C2.92379 13.4099 2.87563 13.3647 2.82947 13.3176C1.89737 12.3473 1.98466 12.7547 2.88867 11.7815C3.56693 11.051 3.61911 11.0922 4.36258 11.8366C4.59235 12.0674 4.79603 12.3233 5.04185 12.6022Z" fill="white"/>
<path d="M23.8987 12.6062C24.4345 12.0925 24.8338 11.7253 25.2131 11.34C25.4268 11.1223 25.5963 11.1082 25.805 11.34C26.1713 11.7554 26.5545 12.1547 27.0241 12.6614C26.6529 12.9905 26.2525 13.3848 25.804 13.7149C25.6716 13.8152 25.3455 13.8052 25.208 13.7069C24.7676 13.3958 24.3743 13.0156 23.8987 12.6062Z" fill="white"/>
<path d="M18.5619 6.26499C18.0492 5.69609 17.694 5.2777 17.3097 4.8874C17.092 4.66666 17.0659 4.51215 17.3097 4.29743C17.7191 3.94225 18.1063 3.55997 18.5438 3.15161C18.912 3.50178 19.3605 3.88706 19.7478 4.32653C19.8341 4.42686 19.7739 4.75596 19.6706 4.90044C19.3585 5.34392 18.9893 5.74927 18.5619 6.26499Z" fill="white"/>
</svg>
