<svg viewBox="0 0 30 30" fill="none" xmlns="http://www.w3.org/2000/svg">
<path id="Vector" d="M28.5749 8.92851C28.3634 8.74411 28.1019 8.62673 27.8236 8.59125C27.5452 8.55578 27.2626 8.60383 27.0117 8.72929L21.1277 11.659L16.2152 3.49921C16.0889 3.28983 15.9106 3.11663 15.6977 2.9964C15.4848 2.87617 15.2445 2.81299 14.9999 2.81299C14.7554 2.81299 14.515 2.87617 14.3021 2.9964C14.0892 3.11663 13.911 3.28983 13.7847 3.49921L8.8722 11.6625L2.99056 8.73281C2.74018 8.60846 2.45865 8.56083 2.1813 8.5959C1.90395 8.63097 1.64313 8.74718 1.43158 8.92994C1.22003 9.11269 1.06718 9.35386 0.99219 9.62318C0.917204 9.89249 0.923431 10.178 1.01009 10.4437L5.34603 23.7281C5.38962 23.8616 5.46264 23.9835 5.55968 24.085C5.65672 24.1865 5.77531 24.2648 5.90669 24.3143C6.03808 24.3638 6.1789 24.3832 6.31876 24.371C6.45863 24.3587 6.59396 24.3153 6.71478 24.2437C6.74407 24.2262 9.74056 22.5 14.9999 22.5C20.2593 22.5 23.2558 24.2262 23.2827 24.2426C23.4036 24.3148 23.5392 24.3588 23.6794 24.3715C23.8196 24.3841 23.9609 24.365 24.0927 24.3156C24.2245 24.2662 24.3435 24.1877 24.4409 24.086C24.5382 23.9843 24.6114 23.862 24.655 23.7281L28.9909 10.4473C29.0801 10.1814 29.0881 9.89502 29.0141 9.62458C28.94 9.35413 28.7871 9.11183 28.5749 8.92851ZM20.6062 18.375C20.5679 18.5919 20.4545 18.7884 20.2859 18.93C20.1173 19.0716 19.9041 19.1494 19.6839 19.1496C19.6289 19.1495 19.5741 19.1448 19.5199 19.1355C16.5254 18.6215 13.4651 18.6215 10.4706 19.1355C10.3494 19.1569 10.2251 19.1542 10.1049 19.1276C9.98463 19.1009 9.87083 19.0509 9.76996 18.9803C9.56623 18.8376 9.42751 18.6199 9.38431 18.375C9.34111 18.1301 9.39697 17.878 9.5396 17.6743C9.68223 17.4706 9.89995 17.3319 10.1449 17.2887C13.3549 16.7371 16.6356 16.7371 19.8456 17.2887C19.9673 17.3095 20.0837 17.3541 20.1881 17.4201C20.2925 17.486 20.3829 17.5719 20.454 17.6728C20.5251 17.7738 20.5755 17.8878 20.6024 18.0083C20.6294 18.1288 20.6322 18.2534 20.6109 18.375H20.6062Z" fill="white"/>
</svg>
