<svg  viewBox="0 0 24 24" fill="currentcolor" xmlns="http://www.w3.org/2000/svg">

<path id="Vector" d="M19 5L15 9M15 9V6M15 9H18" stroke="currentcolor" stroke-width="1.5" stroke-linecap="round" stroke-linejoin="round"/>
<path id="Vector_2" d="M15.5561 14.548L15.1011 15.028C15.1011 15.028 14.0181 16.167 11.0631 13.056C8.1081 9.94499 9.1911 8.80599 9.1911 8.80599L9.4781 8.50299C10.1841 7.75899 10.2511 6.56499 9.6341 5.69299L8.3741 3.90999C7.6101 2.82999 6.1351 2.68799 5.2601 3.60899L3.6911 5.25999C3.2581 5.71699 2.9681 6.30799 3.0031 6.96499C3.0931 8.64499 3.8111 12.258 7.8151 16.475C12.0621 20.945 16.0471 21.123 17.6761 20.962C18.1921 20.912 18.6401 20.633 19.0011 20.253L20.4211 18.757C21.3811 17.747 21.1111 16.017 19.8831 15.311L17.9731 14.211C17.1671 13.748 16.1861 13.884 15.5561 14.547V14.548Z" fill="currentcolor"/>

</svg>
