<svg viewBox="0 0 30 30" fill="none" xmlns="http://www.w3.org/2000/svg">
<path d="M12.1985 9.98602C12.7535 9.94114 13.1234 10.3836 13.5545 10.6762C13.7182 10.7927 13.8554 10.9427 13.9571 11.1164C14.0528 11.2757 14.1807 11.5104 14.1284 11.6481C13.9016 12.2454 13.6109 12.8184 13.3515 13.404C13.3053 13.51 13.2809 13.6244 13.2799 13.7401C13.2732 14.6237 13.2137 15.5131 13.2992 16.3876C13.3461 16.8678 13.6802 17.312 13.818 17.7917C13.9928 18.3988 14.3462 18.8736 14.7379 19.3466C15.4889 20.253 16.3757 20.9369 17.4836 21.3753C18.4599 21.7612 19.4451 22.0255 20.4827 21.8918C21.1536 21.8061 21.8088 21.5965 22.4578 21.3982C23.8062 20.9835 24.8174 20.1031 25.5884 18.949C25.9154 18.459 26.2119 17.9259 26.3988 17.3704C26.6274 16.6923 26.838 15.9726 26.8506 15.2667C26.8644 14.5079 26.6895 13.732 26.5008 12.9885C26.3727 12.4849 26.1522 12.0096 25.8505 11.5871C25.3612 10.91 24.8339 10.2409 24.2203 9.67953C23.494 9.01675 22.5848 8.68155 21.6201 8.40917C20.841 8.18974 20.0923 8.22205 19.3248 8.20365C19.196 8.20051 19.0359 8.20096 18.9429 8.27051C18.5323 8.57834 18.285 8.37282 18.0037 8.05961C17.6428 7.66113 17.2273 7.31247 16.8409 6.93778C16.7156 6.81572 16.6101 6.67347 16.4911 6.53392C18.9201 5.06611 23.6188 5.68133 26.143 8.01473C30.2576 11.8142 30.0474 17.098 27.5295 20.5891C26.511 22.0055 25.1041 23.0943 23.4802 23.7231C21.3334 24.5671 19.1276 24.6308 16.9952 23.8976C14.2567 22.9553 12.2625 21.0338 11.2861 18.2938C10.2736 15.4529 10.5361 12.6385 12.1985 9.98602Z" fill="white"/>
<path d="M13.61 23.6374C9.01778 25.4965 4.63124 23.6952 2.33332 20.2149C-0.245467 16.3087 0.513947 11.9519 2.91831 9.09843C6.26233 5.12984 10.7683 5.35511 13.2075 6.25257C14.4849 6.72187 15.6482 7.45855 16.62 8.41367C17.6397 9.40537 18.3946 10.5698 18.8437 11.8519C19.325 13.2127 19.4849 14.6671 19.3106 16.1005C19.1357 17.5584 18.6111 18.8274 17.9304 20.1099C17.3602 20.1821 17.0091 19.7172 16.5735 19.4588C16.3946 19.3529 16.2461 19.1653 16.1374 18.9827C16.0421 18.8229 15.9303 18.5837 15.9844 18.4388C16.2192 17.8065 16.5542 17.2102 16.7671 16.5716C16.8838 16.2216 16.8418 15.8146 16.8494 15.4327C16.8588 14.9665 16.9125 14.4859 16.8235 14.0358C16.7072 13.4489 16.446 12.8925 16.2908 12.3109C16.1276 11.6993 15.7693 11.2254 15.3735 10.7556C14.619 9.85814 13.7545 9.15273 12.6382 8.72419C11.6587 8.34815 10.6802 8.10539 9.63631 8.19514C8.67922 8.2777 7.79949 8.58419 6.92335 9.0051C5.85713 9.518 5.05702 10.3064 4.4188 11.2295C3.88212 12.0067 3.53819 12.9064 3.36063 13.8869C3.19471 14.8023 3.27521 15.6746 3.44069 16.5402C3.56413 17.1828 3.84321 17.8146 4.14867 18.3984C4.68268 19.4139 5.4573 20.2503 6.45106 20.8216C7.0535 21.1666 7.74806 21.3479 8.38225 21.641C9.07279 21.9591 9.79553 21.934 10.5187 21.8999C10.805 21.8864 11.0858 21.7424 11.3712 21.7343C11.5836 21.728 11.8546 21.7827 12.0044 21.9174C12.5358 22.393 13.0277 22.9131 13.53 23.4215C13.572 23.4615 13.5761 23.5391 13.61 23.6374Z" fill="white"/>
</svg>
