<svg  viewBox="0 0 50 50" fill="currentcolor" xmlns="http://www.w3.org/2000/svg">
<path id="Vector" d="M18.4733 12.1566L10.3533 9.99998L11.83 4.56665C11.9492 4.13891 12.2326 3.7756 12.6184 3.55584C13.0042 3.33607 13.4613 3.27766 13.89 3.39331L18.7567 4.69998C18.9687 4.7561 19.1676 4.85353 19.342 4.98669C19.5163 5.11985 19.6627 5.28611 19.7726 5.47595C19.8825 5.66579 19.9539 5.87546 19.9826 6.09294C20.0114 6.31043 19.9969 6.53144 19.94 6.74331L18.4733 12.1566ZM3.40666 36.6766C3.31416 36.3777 3.30838 36.0587 3.38999 35.7566L9.45333 13.3366L17.57 15.4933L11.5067 37.9133C11.4254 38.2163 11.2602 38.4902 11.03 38.7033L6.17333 43.1933C6.11058 43.2504 6.03452 43.2908 5.9521 43.3108C5.86969 43.3308 5.78357 43.3299 5.70163 43.308C5.61969 43.2861 5.54456 43.244 5.48312 43.1855C5.42169 43.127 5.37591 43.0541 5.34999 42.9733L3.40666 36.6766ZM33.3333 16.6666C25.8333 16.6666 23.3333 14.1666 23.3333 6.66665C30.8333 6.66665 33.3333 9.16665 33.3333 16.6666ZM28.6667 43.28C24.1 43.98 18.2467 37.5933 16.9333 30.6133L19.8967 19.6666C21.2267 18.5 22.9067 17.89 24.6267 17.89C26.491 17.8823 28.3121 18.4517 29.84 19.52C30.3779 19.881 31.0124 20.071 31.6602 20.065C32.3079 20.0591 32.9388 19.8575 33.47 19.4866C34.8777 18.4438 36.5847 17.8837 38.3367 17.89C40.9033 17.89 43.8133 19.52 45.17 21.8933C50.29 30.88 41.19 44.2566 34.69 43.2833C34.3921 43.2252 34.1053 43.1206 33.84 42.9733C33.1685 42.629 32.4246 42.4495 31.67 42.4495C30.9154 42.4495 30.1715 42.629 29.5 42.9733C29.2397 43.1179 28.9586 43.2213 28.6667 43.28Z" fill="currentcolor"/>
</svg>
