<svg viewBox="0 0 40 40" fill="none" xmlns="http://www.w3.org/2000/svg">
<circle cx="19.9999" cy="20" r="16.6667" fill="white"/>
<path d="M19.9999 3.33331C10.7999 3.33331 3.33325 10.8 3.33325 20C3.33325 29.2 10.7999 36.6666 19.9999 36.6666C29.1999 36.6666 36.6666 29.2 36.6666 20C36.6666 10.8 29.1999 3.33331 19.9999 3.33331ZM27.7332 14.6666C27.4832 17.3 26.3999 23.7 25.8499 26.65C25.6166 27.9 25.1499 28.3166 24.7166 28.3666C23.7499 28.45 23.0166 27.7333 22.0832 27.1166C20.6166 26.15 19.7833 25.55 18.3666 24.6166C16.7166 23.5333 17.7832 22.9333 18.7332 21.9666C18.9832 21.7166 23.2499 17.8333 23.3332 17.4833C23.3448 17.4303 23.3433 17.3753 23.3288 17.323C23.3142 17.2707 23.2872 17.2228 23.2499 17.1833C23.1499 17.1 23.0166 17.1333 22.8999 17.15C22.7499 17.1833 20.4166 18.7333 15.8666 21.8C15.1999 22.25 14.5999 22.4833 14.0666 22.4666C13.4666 22.45 12.3333 22.1333 11.4833 21.85C10.4333 21.5166 9.61658 21.3333 9.68325 20.75C9.71658 20.45 10.1333 20.15 10.9166 19.8333C15.7832 17.7166 19.0166 16.3166 20.6332 15.65C25.2666 13.7166 26.2166 13.3833 26.8499 13.3833C26.9832 13.3833 27.2999 13.4166 27.4999 13.5833C27.6666 13.7166 27.7166 13.9 27.7332 14.0333C27.7166 14.1333 27.7499 14.4333 27.7332 14.6666Z" fill="#31B0E6"/>
</svg>
