<svg width="100" height="100" viewBox="0 0 100 100" fill="none" xmlns="http://www.w3.org/2000/svg">
<path id="Vector" d="M70.8333 70.8333L60.4167 60.4167M41.6667 20.8333L50 12.5L58.3333 20.8333M79.1667 41.6667L87.5 50L79.1667 58.3333M20.8333 41.6667L12.5 50L20.8333 58.3333M41.6667 79.1667L50 87.5L58.3333 79.1667M37.5 50C37.5 53.3152 38.817 56.4946 41.1612 58.8388C43.5054 61.183 46.6848 62.5 50 62.5C53.3152 62.5 56.4946 61.183 58.8388 58.8388C61.183 56.4946 62.5 53.3152 62.5 50C62.5 46.6848 61.183 43.5054 58.8388 41.1612C56.4946 38.817 53.3152 37.5 50 37.5C46.6848 37.5 43.5054 38.817 41.1612 41.1612C38.817 43.5054 37.5 46.6848 37.5 50Z" stroke="#F4F4F4" stroke-width="5" stroke-linecap="round" stroke-linejoin="round"/>
</svg>
