<svg viewBox="0 0 1180 580" fill="currentcolor" xmlns="http://www.w3.org/2000/svg">
<path d="M392.723 213.541L389.211 231.152H392.248L395.76 213.541H392.723ZM399.367 213.541L394.811 221.405L394.431 223.288L396.377 231.152H399.462L397.374 221.787L402.309 213.541H399.367ZM402.975 213.541L403.615 227.458L406.249 220.809L406.225 213.541H402.975ZM409.69 213.541L403.829 228.459H401.504L400.958 231.152H403.449C404.003 231.152 404.588 230.882 405.205 230.342C405.838 229.802 406.281 229.238 406.534 228.65L412.941 213.541H409.69ZM414.013 213.541L410.501 231.152H413.538L417.05 213.541H414.013ZM417.667 213.541L417.121 216.21H420.799L421.345 213.541H417.667ZM425.296 213.541C424.726 213.541 424.102 213.811 423.422 214.351C422.757 214.875 422.369 215.423 422.259 215.995L419.743 228.697C419.617 229.269 419.783 229.826 420.242 230.366C420.701 230.89 421.215 231.152 421.784 231.152H422.283L425.794 213.541H425.296ZM426.412 213.541L425.866 216.21H428.642L426.222 228.459H423.445L422.899 231.152H426.198C426.768 231.152 427.384 230.89 428.049 230.366C428.713 229.826 429.109 229.269 429.235 228.697L431.751 215.995C431.861 215.423 431.687 214.875 431.229 214.351C430.786 213.811 430.279 213.541 429.71 213.541H426.412ZM433.689 213.541L433.143 216.21H441.425L441.971 213.541H433.689ZM445.937 213.541C445.367 213.541 444.743 213.811 444.063 214.351C443.398 214.875 443.01 215.423 442.9 215.995L440.384 228.697C440.258 229.269 440.424 229.826 440.883 230.366C441.342 230.89 441.855 231.152 442.425 231.152H442.923L446.435 213.541H445.937ZM447.052 213.541L446.506 216.21H449.283L446.862 228.459H444.086L443.54 231.152H446.839C447.408 231.152 448.025 230.89 448.69 230.366C449.354 229.826 449.749 229.269 449.876 228.697L452.391 215.995C452.502 215.423 452.328 214.875 451.869 214.351C451.426 213.811 450.92 213.541 450.351 213.541H447.052ZM454.924 213.541L451.411 231.152H454.449L457.961 213.541H454.924ZM458.578 213.541L458.032 216.21H460.547L459.598 220.976H457.083L456.561 223.669H459.076L458.127 228.459H455.611L455.065 231.152H458.103C458.672 231.152 459.29 230.89 459.954 230.366C460.618 229.826 461.013 229.269 461.14 228.697L462.018 224.265C462.24 223.153 461.765 222.493 460.594 222.286L460.642 222.12C461.876 221.914 462.604 221.254 462.825 220.142L463.68 215.924C463.79 215.384 463.608 214.851 463.134 214.327C462.659 213.803 462.153 213.541 461.615 213.541H458.578ZM470.075 213.541L471.522 220.928L472.899 227.744H473.706L476.743 222.668L478.238 215.162L474.678 220.785L472.994 213.541H470.075ZM479.163 213.541L475.652 231.152H478.712L482.224 213.541H479.163ZM486.327 213.541L479.92 231.152H483.1L484.239 227.744H487.181L487.347 225.051H485.117L487.917 216.615L488.13 213.541H486.327ZM488.747 213.541L487.561 231.152H490.741L491.381 213.541H488.747ZM495.417 213.541L491.905 231.152H494.942L498.455 213.541H495.417ZM499.071 213.541L498.525 216.21H501.064L499.854 222.311H497.315L496.793 225.004H499.83C500.4 225.004 501.017 224.741 501.682 224.217C502.346 223.677 502.733 223.121 502.844 222.549L504.15 215.995C504.26 215.423 504.086 214.875 503.628 214.351C503.185 213.811 502.678 213.541 502.109 213.541H499.071ZM507.709 213.541L501.302 231.152H504.482L505.621 227.744H508.563L508.73 225.051H506.499L509.299 216.615L509.512 213.541H507.709ZM510.13 213.541L508.943 231.152H512.123L512.764 213.541H510.13ZM515.14 213.541L514.594 216.21H522.876L523.422 213.541H515.14ZM469.671 214.899L466.444 231.152H469.482L471.19 222.573L469.671 214.899ZM435.635 216.829L432.787 231.152H435.849L438.696 216.829H435.635ZM517.086 216.829L514.238 231.152H517.299L520.147 216.829H517.086ZM468.709 241.998C466.867 241.998 464.924 242.848 462.882 244.549C460.84 246.199 459.595 247.95 459.147 249.8L449.883 289.038H446.447L444.729 297.516H449.735C451.528 297.516 453.445 296.69 455.487 295.04C457.578 293.389 458.848 291.639 459.296 289.788L468.56 250.476H474.984L476.702 241.998H468.709ZM478.57 241.998L467.514 297.516H477.076L488.132 241.998H478.57ZM819.318 241.998C817.475 241.998 815.533 242.848 813.492 244.549C811.45 246.199 810.205 247.95 809.756 249.8L800.493 289.038H797.056L795.339 297.516H800.343C802.136 297.516 804.054 296.69 806.095 295.04C808.187 293.389 809.458 291.639 809.906 289.788L819.168 250.476H825.593L827.311 241.998H819.318ZM829.179 241.998L818.123 297.516H827.685L838.741 241.998H829.179ZM388.056 242.073L377 297.516H386.562L397.618 242.073H388.056ZM399.56 242.073L397.843 250.476H413.231L414.949 242.073H399.56ZM430.483 242.073C428.69 242.073 426.723 242.923 424.582 244.623C422.49 246.274 421.27 248 420.921 249.8L413.003 289.788C412.604 291.589 413.127 293.339 414.571 295.04C416.015 296.69 417.634 297.516 419.427 297.516H420.996L432.052 242.073H430.483ZM433.994 242.073L432.276 250.476H441.016L433.396 289.038H424.656L422.938 297.516H433.322C435.115 297.516 437.057 296.69 439.149 295.04C441.241 293.339 442.485 291.589 442.884 289.788L450.803 249.8C451.151 248 450.603 246.274 449.159 244.623C447.765 242.923 446.171 242.073 444.378 242.073H433.994ZM493.4 242.073L482.343 297.516H491.906L502.962 242.073H493.4ZM526.958 242.073L517.993 287.162H527.555L536.52 242.073H526.958ZM544.139 242.073L535.175 287.162H544.812L553.776 242.073H544.139ZM561.396 242.073L552.432 287.162H561.993L570.958 242.073H561.396ZM576.127 242.073L565.072 297.516H574.633L585.69 242.073H576.127ZM587.632 242.073L585.913 250.476H598.24L599.958 242.073H587.632ZM615.376 242.073L604.32 297.516H613.882L624.938 242.073H615.376ZM635.621 242.073L630.914 265.48H622.174L620.531 273.958H629.271L624.564 297.516H634.201L645.257 242.073H635.621ZM650.539 242.073L639.483 297.516H649.045L660.101 242.073H650.539ZM662.044 242.073L660.325 250.476H672.651L674.369 242.073H662.044ZM689.787 242.073L680.823 287.162H690.385L699.349 242.073H689.787ZM706.969 242.073L698.005 287.162H707.641L716.606 242.073H706.969ZM724.226 242.073L715.261 287.162H724.823L733.788 242.073H724.226ZM738.957 242.073L727.901 297.516H737.463L748.519 242.073H738.957ZM759.874 242.073L745.531 266.83L744.336 272.757L750.462 297.516H760.173L753.599 268.031L769.137 242.073H759.874ZM781.092 242.073C779.299 242.073 777.332 242.923 775.191 244.623C773.099 246.274 771.879 248 771.53 249.8L763.611 289.788C763.213 291.589 763.736 293.339 765.18 295.04C766.625 296.69 768.243 297.516 770.036 297.516H771.605L782.661 242.073H781.092ZM784.603 242.073L782.885 250.476H791.626L784.006 289.038H775.266L773.547 297.516H783.931C785.724 297.516 787.666 296.69 789.758 295.04C791.849 293.339 793.095 291.589 793.493 289.788L801.411 249.8C801.76 248 801.212 246.274 799.768 244.623C798.373 242.923 796.78 242.073 794.987 242.073H784.603ZM844.008 242.073L832.953 297.516H842.514L853.571 242.073H844.008ZM877.567 242.073L866.511 297.516H876.073L887.129 242.073H877.567ZM897.811 242.073L893.105 265.48H884.365L882.721 273.958H891.462L886.755 297.516H896.392L907.448 242.073H897.811ZM912.73 242.073L901.673 297.516H911.236L922.292 242.073H912.73ZM932.825 242.073L921.769 297.516H931.331L942.387 242.073H932.825ZM947.601 242.073L936.545 297.516H946.107L957.163 242.073H947.601ZM968.518 242.073L954.174 266.83L952.979 272.757L959.106 297.516H968.817L962.243 268.031L977.781 242.073H968.518ZM929.389 250.025L919.229 267.056L914.747 289.488L924.906 272.458L929.389 250.025ZM500.571 263.905L498.853 272.382H506.771L503.484 289.038H495.566L493.848 297.516H503.484C505.277 297.516 507.22 296.69 509.311 295.04C511.403 293.339 512.648 291.589 513.047 289.788L516.633 271.633C516.981 269.832 516.433 268.106 514.989 266.455C513.595 264.755 512 263.905 510.208 263.905H500.571ZM583.299 263.905L581.581 272.382H591.89L593.608 263.905H583.299ZM657.71 263.905L655.993 272.382H666.302L668.019 263.905H657.71ZM851.18 263.905L849.462 272.382H857.381L854.094 289.038H846.175L844.457 297.516H854.094C855.887 297.516 857.828 296.69 859.92 295.04C862.012 293.339 863.257 291.589 863.655 289.788L867.241 271.633C867.59 269.832 867.042 268.106 865.598 266.455C864.203 264.755 862.61 263.905 860.817 263.905H851.18ZM394.855 265.48L393.211 273.958H401.951L398.963 289.038H390.223L388.505 297.516H398.888C400.681 297.516 402.624 296.69 404.715 295.04C406.807 293.339 408.052 291.589 408.451 289.788L411.737 273.208C412.086 271.407 411.538 269.682 410.094 268.031C408.65 266.331 407.031 265.48 405.238 265.48H394.855ZM517.62 289.038L515.902 297.516H559.902L561.62 289.038H517.62ZM578.294 289.038L576.576 297.516H588.902L590.62 289.038H578.294ZM652.706 289.038L650.987 297.516H663.313L665.031 289.038H652.706ZM680.449 289.038L678.731 297.516H722.731L724.45 289.038H680.449ZM635.523 308.257L633.366 309.887L633.024 311.624H634.861L632.362 324.129H635.096L638.257 308.257H635.523ZM645.723 308.257L643.566 309.887L643.224 311.624H645.061L642.562 324.129H645.296L648.457 308.257H645.723ZM679.188 308.257C678.661 308.257 678.106 308.5 677.522 308.987C676.938 309.459 676.582 309.959 676.454 310.488L673.806 321.705H672.823L672.332 324.129H673.763C674.276 324.129 674.823 323.893 675.407 323.421C676.005 322.949 676.368 322.449 676.497 321.92L679.145 310.681H680.981L681.473 308.257H679.188ZM682.007 308.257L678.846 324.129H681.579L684.74 308.257H682.007ZM862.925 308.257C862.597 308.257 862.249 308.414 861.878 308.729C861.522 309.029 861.316 309.344 861.259 309.673L860.277 314.541C860.22 314.87 860.312 315.178 860.554 315.464C860.796 315.75 861.081 315.893 861.408 315.893H861.707L863.224 308.257H862.925ZM863.779 308.257L863.502 309.695H865.124L864.164 314.477H862.54L862.263 315.893H864.185C864.498 315.893 864.832 315.75 865.188 315.464C865.558 315.163 865.772 314.856 865.829 314.541L866.812 309.673C866.869 309.344 866.776 309.029 866.534 308.729C866.292 308.414 866.015 308.257 865.701 308.257H863.779ZM871.218 308.257C870.692 308.257 870.129 308.5 869.531 308.987C868.947 309.459 868.599 309.959 868.485 310.488L868.015 312.847H870.557L870.983 310.681H873.461L873.952 308.257H871.218ZM874.486 308.257L873.461 313.426L866.648 318.724L866.178 321.148H868.912L869.125 320.011L875.98 314.499L876.771 310.488C876.871 309.973 876.714 309.473 876.301 308.987C875.902 308.5 875.447 308.257 874.934 308.257H874.486ZM882.807 308.257L880.649 309.887L880.307 311.624H882.144L879.646 324.129H882.379L885.54 308.257H882.807ZM891.405 308.257C890.892 308.257 890.33 308.5 889.718 308.987C889.12 309.473 888.771 309.973 888.671 310.488L886.407 321.92C886.293 322.434 886.443 322.935 886.855 323.421C887.268 323.893 887.731 324.129 888.244 324.129H888.692L891.853 308.257H891.405ZM892.409 308.257L891.917 310.681H894.373L892.194 321.705H889.739L889.248 324.129H892.152C892.665 324.129 893.22 323.893 893.818 323.421C894.416 322.935 894.772 322.434 894.886 321.92L897.149 310.488C897.249 309.973 897.093 309.473 896.68 308.987C896.281 308.5 895.825 308.257 895.312 308.257H892.409ZM652.143 308.279L648.982 324.129H651.716L654.876 308.279H652.143ZM655.432 308.279L654.941 310.681H659.34L659.831 308.279H655.432ZM665.91 308.279L662.75 324.129H665.483L668.644 308.279H665.91ZM671.89 308.279L667.79 315.357L667.448 317.051L669.199 324.129H671.976L670.096 315.7L674.538 308.279H671.89ZM688.46 308.279L682.694 324.129H685.556L686.581 321.062H689.229L689.379 318.638H687.371L689.891 311.046L690.083 308.279H688.46ZM690.638 308.279L689.57 324.129H692.433L693.009 308.279H690.638ZM698.962 308.279C698.449 308.279 697.887 308.522 697.275 309.008C696.677 309.48 696.328 309.973 696.228 310.488L693.965 321.92C693.851 322.435 694 322.935 694.413 323.421C694.826 323.893 695.289 324.129 695.801 324.129H696.25L699.41 308.279H698.962ZM699.966 308.279L699.475 310.681H701.973L701.332 313.898H704.087L704.771 310.488C704.871 309.973 704.714 309.48 704.301 309.008C703.902 308.522 703.447 308.279 702.934 308.279H699.966ZM709.37 308.279C708.858 308.279 708.295 308.522 707.683 309.008C707.085 309.48 706.736 309.973 706.637 310.488L704.373 321.92C704.259 322.435 704.409 322.935 704.822 323.421C705.234 323.893 705.697 324.129 706.21 324.129H706.658L709.819 308.279H709.37ZM710.374 308.279L709.883 310.681H712.382L711.741 313.898H714.496L715.179 310.488C715.279 309.973 715.122 309.48 714.709 309.008C714.311 308.522 713.855 308.279 713.343 308.279H710.374ZM725.463 308.279L722.303 324.129H725.036L728.197 308.279H725.463ZM728.752 308.279L728.261 310.681H731.571L732.063 308.279H728.752ZM733.369 308.279L730.209 324.129H732.942L736.103 308.279H733.369ZM736.658 308.279L736.167 310.681H740.566L741.057 308.279H736.658ZM745.854 308.279C745.341 308.279 744.779 308.522 744.167 309.008C743.569 309.48 743.22 309.973 743.121 310.488L740.857 321.92C740.743 322.435 740.892 322.935 741.305 323.421C741.718 323.893 742.181 324.129 742.694 324.129H743.142L746.302 308.279H745.854ZM746.858 308.279L746.367 310.681H748.866L746.687 321.705H744.188L743.698 324.129H746.666C747.179 324.129 747.734 323.893 748.332 323.421C748.93 322.935 749.286 322.435 749.4 321.92L751.663 310.488C751.763 309.973 751.606 309.48 751.193 309.008C750.794 308.522 750.339 308.279 749.826 308.279H746.858ZM753.123 308.279L753.7 320.805L756.071 314.821L756.049 308.279H753.123ZM759.167 308.279L753.892 321.705H751.799L751.308 324.129H753.551C754.049 324.129 754.575 323.886 755.131 323.4C755.7 322.914 756.099 322.406 756.326 321.877L762.093 308.279H759.167ZM766.661 308.279L763.5 324.129H766.234L769.394 308.279H766.661ZM769.949 308.279L769.459 310.681H772.768L773.26 308.279H769.949ZM774.566 308.279L771.406 324.129H774.139L777.3 308.279H774.566ZM780.311 308.279L777.15 324.129H779.884L783.045 308.279H780.311ZM784.998 308.279L786.301 314.928L787.54 321.062H788.266L790.999 316.494L792.345 309.737L789.142 314.799L787.625 308.279H784.998ZM793.178 308.279L790.017 324.129H792.772L795.932 308.279H793.178ZM797.802 308.279L794.642 324.129H797.376L800.536 308.279H797.802ZM803.59 308.279L802.245 314.971H799.746L799.276 317.394H801.775L800.43 324.129H803.185L806.345 308.279H803.59ZM810.069 308.279L804.303 324.129H807.165L808.19 321.062H810.838L810.987 318.638H808.98L811.5 311.046L811.692 308.279H810.069ZM812.247 308.279L811.179 324.129H814.041L814.618 308.279H812.247ZM820.464 308.279C820.009 308.279 819.503 308.486 818.948 308.901C818.393 309.316 818.072 309.752 817.987 310.209L817.496 312.697H819.93L820.315 310.681H822.835L823.326 308.279H820.464ZM823.86 308.279L820.699 324.129H821.169C821.681 324.129 822.236 323.893 822.834 323.421C823.432 322.935 823.788 322.435 823.902 321.92L824.692 317.909C824.891 316.936 824.479 316.344 823.454 316.129L823.475 316.022C824.372 315.793 824.899 315.264 825.055 314.435L825.909 310.209C825.995 309.752 825.845 309.316 825.461 308.901C825.076 308.486 824.657 308.279 824.201 308.279H823.86ZM828.235 308.279L825.075 324.129H827.808L830.969 308.279H828.235ZM833.98 308.279L830.819 324.129H833.553L836.714 308.279H833.98ZM840.739 308.279C840.226 308.279 839.664 308.522 839.052 309.008C838.454 309.48 838.104 309.973 838.005 310.488L837.237 314.413C837.052 315.342 837.407 315.921 838.304 316.15L838.283 316.279C837.272 316.551 836.681 317.122 836.51 317.995L835.293 324.129H838.026L839.372 317.394H841.657L842.127 314.971H839.841L840.696 310.681H842.981L843.472 308.279H840.739ZM844.006 308.279L840.845 324.129H843.6L846.761 308.279H844.006ZM852.161 308.279L854.959 324.129H857.479L854.681 308.279H852.161ZM858.141 308.279L856.603 315.936L857.778 322.584L860.64 308.279H858.141ZM910.987 308.279L912.29 314.928L913.529 321.062H914.254L916.988 316.494L918.334 309.737L915.13 314.799L913.613 308.279H910.987ZM919.167 308.279L916.006 324.129H918.761L921.921 308.279H919.167ZM926.076 308.279C925.564 308.279 925.001 308.522 924.389 309.008C923.791 309.48 923.442 309.973 923.343 310.488L921.079 321.92C920.965 322.435 921.115 322.935 921.527 323.421C921.94 323.893 922.403 324.129 922.916 324.129H923.364L926.525 308.279H926.076ZM927.08 308.279L926.589 310.681H929.088L926.909 321.705H924.41L923.92 324.129H926.888C927.401 324.129 927.956 323.893 928.554 323.421C929.152 322.935 929.508 322.435 929.622 321.92L931.885 310.488C931.985 309.973 931.828 309.48 931.415 309.008C931.017 308.522 930.561 308.279 930.048 308.279H927.08ZM936.485 308.279C935.972 308.279 935.41 308.522 934.797 309.008C934.199 309.48 933.851 309.973 933.751 310.488L931.488 321.92C931.374 322.435 931.523 322.935 931.936 323.421C932.349 323.893 932.812 324.129 933.324 324.129H933.773L936.933 308.279H936.485ZM937.488 308.279L936.998 310.681H939.496L938.855 313.898H941.61L942.294 310.488C942.393 309.973 942.237 309.48 941.824 309.008C941.425 308.522 940.97 308.279 940.457 308.279H937.488ZM944.608 308.279L941.448 324.129H944.181L947.341 308.279H944.608ZM950.588 308.279L946.488 315.357L946.146 317.051L947.897 324.129H950.673L948.794 315.7L953.236 308.279H950.588ZM954.724 308.279L951.564 324.129H954.298L957.458 308.279H954.724ZM958.013 308.279L957.523 310.681H959.786L958.932 314.971H956.668L956.198 317.394H958.462L957.607 321.705H955.344L954.853 324.129H957.587C958.099 324.129 958.654 323.893 959.252 323.421C959.85 322.935 960.206 322.435 960.32 321.92L961.11 317.93C961.31 316.929 960.882 316.336 959.829 316.15L959.872 316C960.982 315.814 961.637 315.221 961.836 314.22L962.605 310.424C962.705 309.937 962.541 309.459 962.114 308.987C961.687 308.515 961.231 308.279 960.747 308.279H958.013ZM966.616 308.279L960.85 324.129H963.711L964.737 321.062H967.385L967.534 318.638H965.526L968.046 311.046L968.239 308.279H966.616ZM968.794 308.279L967.726 324.129H970.588L971.164 308.279H968.794ZM784.635 309.501L781.731 324.129H784.464L786.002 316.408L784.635 309.501ZM910.624 309.501L907.72 324.129H910.453L911.991 316.408L910.624 309.501ZM851.841 309.845L849.001 324.129H851.499L853.015 316.494L851.841 309.845ZM779.329 310.552L776.424 315.421L775.143 321.834L778.048 316.966L779.329 310.552ZM832.998 310.552L830.094 315.421L828.812 321.834L831.717 316.966L832.998 310.552ZM654.086 314.971L653.616 317.394H656.115L655.261 321.705H652.762L652.271 324.129H655.24C655.752 324.129 656.307 323.893 656.905 323.421C657.503 322.935 657.859 322.435 657.973 321.92L658.913 317.18C659.013 316.665 658.856 316.172 658.443 315.7C658.03 315.214 657.567 314.971 657.055 314.971H654.086ZM735.313 314.971L734.843 317.394H737.341L736.487 321.705H733.988L733.498 324.129H736.466C736.979 324.129 737.534 323.893 738.132 323.421C738.73 322.935 739.086 322.435 739.2 321.92L740.139 317.18C740.239 316.665 740.082 316.172 739.67 315.7C739.257 315.214 738.794 314.971 738.281 314.971H735.313ZM819.759 314.971L819.289 317.394H821.511L821.981 314.971H819.759ZM859.849 316.73L859.572 318.102H865.124L865.402 316.73H859.849ZM700.564 317.759L699.795 321.705H697.296L696.805 324.129H699.774C700.272 324.157 700.827 323.921 701.439 323.421C702.052 322.92 702.408 322.42 702.507 321.92L703.319 317.759H700.564ZM710.972 317.759L710.203 321.705H707.705L707.214 324.129H710.182C710.681 324.157 711.236 323.921 711.848 323.421C712.46 322.92 712.816 322.42 712.916 321.92L713.727 317.759H710.972ZM938.086 317.759L937.317 321.705H934.819L934.328 324.129H937.297C937.795 324.157 938.35 323.921 938.962 323.421C939.575 322.92 939.93 322.42 940.03 321.92L940.841 317.759H938.086ZM815.829 319.517L815.36 321.92C815.246 322.435 815.396 322.935 815.809 323.421C816.222 323.893 816.684 324.129 817.197 324.129H820.165L820.656 321.705H818.136L818.564 319.517H815.829ZM866.071 321.705L865.58 324.129H874.059L874.55 321.705H866.071ZM714.888 321.856L714.184 325.459H715.166L716.789 324.129L717.238 321.856H714.888ZM896.737 321.856L896.033 325.459H897.015L898.638 324.129L899.087 321.856H896.737Z" fill="currentcolor"/>

</svg>
