<svg viewBox="0 0 1180 580" fill="currentcolor" xmlns="http://www.w3.org/2000/svg">
<path d="M485.795 207.681C485.795 207.681 485.989 216.005 484.36 217.729C483.14 219.02 477.336 219.159 477.336 219.159C477.336 219.159 483.041 219.275 484.36 220.59C485.69 221.916 485.795 230.842 485.795 230.842C485.795 230.842 485.805 222.059 487.103 220.666C488.399 219.276 494.126 219.236 494.126 219.236C494.126 219.236 488.545 219.141 487.23 217.729C485.997 216.405 485.795 207.681 485.795 207.681ZM661.613 207.681C661.613 207.681 661.807 216.005 660.177 217.729C658.958 219.02 653.154 219.159 653.154 219.159C653.154 219.159 658.858 219.275 660.177 220.59C661.508 221.916 661.613 230.842 661.613 230.842C661.613 230.842 661.622 222.059 662.921 220.666C664.216 219.276 669.944 219.236 669.944 219.236C669.944 219.236 664.363 219.141 663.048 217.729C661.815 216.405 661.613 207.681 661.613 207.681ZM559.166 210.955C558.018 210.955 557.153 211.316 556.572 212.038C555.998 212.752 555.711 213.734 555.711 214.984V223.253C555.711 224.502 555.998 225.484 556.572 226.199C557.153 226.913 558.018 227.27 559.166 227.27C560.322 227.27 561.19 226.913 561.771 226.199C562.36 225.484 562.654 224.502 562.654 223.253V221.267H561.018V223.342C561.018 224.882 560.415 225.652 559.209 225.652C558.607 225.652 558.154 225.451 557.853 225.049C557.552 224.648 557.401 224.078 557.401 223.342V214.884C557.401 214.147 557.552 213.578 557.853 213.176C558.154 212.774 558.607 212.573 559.209 212.573C560.415 212.573 561.018 213.344 561.018 214.884V216.423H562.654V214.984C562.654 213.734 562.36 212.752 561.771 212.038C561.19 211.316 560.322 210.955 559.166 210.955ZM567.483 210.955C566.327 210.955 565.452 211.313 564.856 212.027C564.261 212.741 563.962 213.727 563.962 214.984V223.253C563.962 224.495 564.261 225.477 564.856 226.199C565.459 226.913 566.335 227.27 567.483 227.27C568.645 227.27 569.528 226.913 570.131 226.199C570.734 225.477 571.035 224.495 571.035 223.253V214.984C571.035 213.727 570.734 212.741 570.131 212.027C569.528 211.313 568.645 210.955 567.483 210.955ZM512.136 211.112L509.187 227.114H510.77L511.372 223.888H515.269L515.872 227.114H517.584L514.634 211.112H512.136ZM520.464 211.112L520.044 223.23C520.023 224.064 519.897 224.655 519.667 225.004C519.445 225.347 518.996 225.518 518.322 225.518V227.136H518.612C519.732 227.129 520.517 226.801 520.97 226.154C521.422 225.5 521.67 224.495 521.713 223.141L522.068 212.741H525.028V227.114H526.74V211.112H520.464ZM528.414 211.112V227.114H531.784C532.954 227.114 533.822 226.775 534.389 226.098C534.963 225.421 535.25 224.458 535.25 223.208V221.289C535.25 218.715 534.052 217.428 531.655 217.428H530.137V211.112H528.414ZM536.645 211.112V227.114H538.142V214.359L540.703 227.091H542.35L544.805 214.247V227.114H546.43V211.112H544.03L541.586 223.888L539.045 211.112H536.645ZM548.062 211.112V227.114H554.413V225.495H549.784V219.804H553.552V218.197H549.784V212.741H554.413V211.112H548.062ZM572.516 211.112V227.114H576.069C577.253 227.114 578.135 226.794 578.717 226.154C579.298 225.514 579.588 224.584 579.588 223.364V222.014C579.588 220.132 578.899 218.99 577.521 218.588C578.175 218.38 578.638 218.019 578.91 217.506C579.19 216.985 579.33 216.286 579.33 215.408V214.661C579.33 213.463 579.065 212.573 578.534 211.993C578.003 211.405 577.149 211.112 575.972 211.112H572.516ZM584.284 211.112V227.114H586.006V221.746L586.91 220.162L590.215 227.114H591.98L587.944 218.409L591.84 211.112H590.107L586.006 218.845V211.112H584.284ZM593.138 211.112V227.114H594.925L597.197 219.726L598.865 214.381V227.114H600.416V211.112H598.499L596.023 218.633L594.656 223.041V211.112H593.138ZM601.993 211.112V227.114H603.716V220.809H605.233C607.63 220.809 608.829 219.522 608.829 216.948V215.028C608.829 213.779 608.546 212.815 607.979 212.138C607.412 211.454 606.54 211.112 605.363 211.112H601.993ZM610.029 211.112V227.114H611.817L614.088 219.726L615.756 214.381V227.114H617.307V211.112H615.391L612.914 218.633L611.548 223.041V211.112H610.029ZM620.564 211.112L620.144 223.23C620.122 224.064 619.997 224.655 619.767 225.004C619.545 225.347 619.096 225.518 618.422 225.518V227.136H618.712C619.832 227.129 620.618 226.801 621.07 226.154C621.522 225.5 621.769 224.495 621.812 223.141L622.167 212.741H625.128V227.114H626.84V211.112H620.564ZM630.194 211.112L629.774 223.23C629.752 224.064 629.627 224.655 629.397 225.004C629.174 225.347 628.726 225.518 628.052 225.518V227.136H628.342C629.462 227.129 630.247 226.801 630.7 226.154C631.152 225.5 631.399 224.495 631.442 223.141L631.797 212.741H634.758V227.114H636.47V211.112H630.194ZM567.483 212.573C568.1 212.573 568.559 212.774 568.861 213.176C569.162 213.578 569.313 214.147 569.313 214.884V223.342C569.313 224.882 568.703 225.652 567.483 225.652C566.873 225.652 566.414 225.455 566.105 225.06C565.804 224.659 565.653 224.086 565.653 223.342V214.884C565.653 214.147 565.804 213.578 566.105 213.176C566.414 212.774 566.873 212.573 567.483 212.573ZM574.239 212.741H575.929C576.539 212.741 576.973 212.912 577.231 213.254C577.496 213.589 577.629 214.117 577.629 214.839V215.776C577.629 216.579 577.464 217.137 577.134 217.45C576.804 217.755 576.28 217.907 575.562 217.907H574.239V212.741ZM603.716 212.741H605.363C605.98 212.741 606.428 212.919 606.708 213.277C606.988 213.634 607.128 214.184 607.128 214.928V217.059C607.128 217.811 606.973 218.357 606.665 218.7C606.363 219.034 605.886 219.202 605.233 219.202H603.716V212.741ZM513.288 213.131L515.033 222.36H511.588L513.288 213.131ZM530.137 219.023H531.655C532.308 219.023 532.785 219.19 533.086 219.525C533.395 219.86 533.549 220.411 533.549 221.177V223.298C533.549 224.041 533.409 224.595 533.129 224.96C532.849 225.317 532.401 225.495 531.784 225.495H530.137V219.023ZM574.239 219.525H575.735C576.495 219.525 577.044 219.704 577.382 220.061C577.726 220.418 577.898 221.032 577.898 221.903V223.32C577.898 224.064 577.751 224.614 577.457 224.971C577.163 225.321 576.7 225.495 576.069 225.495H574.239V219.525ZM794.797 227.227C789.373 227.227 785.314 229.005 782.618 232.562C779.923 236.082 778.575 240.926 778.575 247.095V253.41H786.105V246.497C786.105 242.904 786.796 240.092 788.177 238.059C789.592 236.027 791.731 235.011 794.595 235.011C797.526 235.011 799.666 236.046 801.013 238.114C802.395 240.146 803.085 243.213 803.085 247.314C803.085 250.253 802.63 253.065 801.721 255.751C800.845 258.4 799.682 260.777 798.234 262.882C796.785 264.95 795.185 267.001 793.433 269.033C791.681 271.065 789.929 273.134 788.177 275.239C786.459 277.343 784.876 279.539 783.427 281.825C781.978 284.075 780.799 286.706 779.889 289.718C779.013 292.73 778.575 295.942 778.575 299.354V306.049H810.362V298.156H786.56V296.904C786.56 294.472 787.015 292.096 787.925 289.773C788.868 287.414 790.064 285.236 791.513 283.24C792.961 281.244 794.545 279.23 796.263 277.198C798.015 275.13 799.767 273.007 801.519 270.83C803.27 268.616 804.854 266.366 806.269 264.079C807.718 261.757 808.896 259.126 809.806 256.186C810.716 253.247 811.171 250.18 811.171 246.987C811.171 240.817 809.806 235.991 807.077 232.507C804.348 228.987 800.255 227.227 794.797 227.227ZM834.17 227.227C828.746 227.227 824.635 228.969 821.839 232.453C819.043 235.937 817.644 240.745 817.644 246.878V287.106C817.644 293.239 819.043 298.065 821.839 301.585C824.669 305.069 828.779 306.811 834.17 306.811C839.628 306.811 843.771 305.069 846.601 301.585C849.431 298.065 850.846 293.239 850.846 287.106V246.878C850.846 240.745 849.431 235.937 846.601 232.453C843.771 228.969 839.628 227.227 834.17 227.227ZM874.351 227.227C868.926 227.227 864.867 229.005 862.171 232.562C859.476 236.082 858.129 240.926 858.129 247.095V253.41H865.659V246.497C865.659 242.904 866.35 240.092 867.731 238.059C869.146 236.027 871.285 235.011 874.149 235.011C877.08 235.011 879.219 236.046 880.566 238.114C881.948 240.146 882.639 243.213 882.639 247.314C882.639 250.253 882.184 253.065 881.274 255.751C880.398 258.4 879.236 260.777 877.787 262.882C876.338 264.95 874.739 267.001 872.987 269.033C871.235 271.065 869.483 273.134 867.731 275.239C866.013 277.343 864.429 279.539 862.98 281.825C861.531 284.075 860.352 286.706 859.443 289.718C858.567 292.73 858.129 295.942 858.129 299.354V306.049H889.916V298.156H866.113V296.904C866.113 294.472 866.568 292.096 867.478 289.773C868.421 287.414 869.617 285.236 871.066 283.24C872.514 281.244 874.098 279.23 875.816 277.198C877.568 275.13 879.32 273.007 881.072 270.83C882.824 268.616 884.407 266.366 885.822 264.079C887.271 261.757 888.45 259.126 889.36 256.186C890.269 253.247 890.725 250.18 890.725 246.987C890.725 240.817 889.36 235.991 886.631 232.507C883.902 228.987 879.808 227.227 874.351 227.227ZM918.372 227.989L895.935 282.424V290.317H919.332V306.049H927.216V290.317H932.977V282.424H927.216V227.989H918.372ZM568.691 231.128C563.203 231.128 559.07 232.889 556.292 236.409C553.548 239.893 552.176 244.683 552.176 250.78V291.116C552.176 297.213 553.548 302.003 556.292 305.487C559.07 308.97 563.203 310.713 568.691 310.713C574.213 310.713 578.363 308.97 581.141 305.487C583.954 302.003 585.36 297.213 585.36 291.116V281.426H577.54V291.551C577.54 299.063 574.659 302.82 568.897 302.82C566.016 302.82 563.855 301.84 562.414 299.88C560.974 297.92 560.254 295.144 560.254 291.551V250.289C560.254 246.697 560.974 243.921 562.414 241.961C563.855 240.002 566.016 239.021 568.897 239.021C574.659 239.021 577.54 242.777 577.54 250.289V257.802H585.36V250.78C585.36 244.683 583.954 239.893 581.141 236.409C578.363 232.889 574.213 231.128 568.691 231.128ZM367 231.89V309.95H383.978C389.637 309.95 393.856 308.39 396.634 305.269C399.412 302.148 400.801 297.612 400.801 291.661V285.074C400.801 275.893 397.508 270.322 390.923 268.362C394.044 267.346 396.257 265.586 397.56 263.082C398.898 260.542 399.566 257.13 399.566 252.848V249.201C399.566 243.358 398.298 239.022 395.759 236.191C393.221 233.324 389.14 231.89 383.515 231.89H367ZM408.715 231.89V309.95H424.819C430.409 309.95 434.559 308.299 437.269 304.997C440.013 301.695 441.384 296.995 441.384 290.898V281.536C441.384 268.979 435.657 262.701 424.201 262.701H416.947V231.89H408.715ZM448.227 231.89V309.95H456.355V231.89H448.227ZM465.042 231.89V309.95H473.274V239.838H491.383V309.95H499.615V231.89H465.042ZM506.088 231.89L523.066 289.428L521.368 294.546C520.682 297.521 519.533 299.589 517.921 300.751C516.343 301.912 513.977 302.421 510.821 302.275V310.06C514.114 310.205 516.892 309.969 519.156 309.352C521.419 308.699 523.288 307.592 524.763 306.031C526.238 304.434 527.387 302.62 528.211 300.588C529.068 298.556 529.84 295.961 530.526 292.804L546.32 231.89H537.78L531.143 258.999L526.822 278.65L521.779 258.999L514.32 231.89H506.088ZM593.275 231.89V309.95H601.506V283.768L605.828 276.037L621.622 309.95H630.059L610.766 267.491L629.391 231.89H621.107L601.506 269.614V231.89H593.275ZM636.636 231.89V309.95H644.867V274.84H662.977V309.95H671.209V231.89H662.977V267.056H644.867V231.89H636.636ZM679.997 231.89V309.95H688.538L699.496 273.697L707.367 247.84V309.95H714.776V231.89H705.618L694.865 265.477L687.252 290.082V231.89H679.997ZM723.359 231.89V309.95H731.59V283.768L735.912 276.037L751.707 309.95H760.144L740.851 267.491L759.475 231.89H751.192L731.59 269.614V231.89H723.359ZM834.17 235.011C839.897 235.011 842.761 238.804 842.761 246.388V287.65C842.761 291.243 842.054 294.018 840.639 295.978C839.224 297.938 837.067 298.918 834.17 298.918C831.306 298.918 829.15 297.938 827.701 295.978C826.286 294.018 825.579 291.243 825.579 287.65V246.388C825.579 242.759 826.286 239.964 827.701 238.005C829.15 236.009 831.306 235.011 834.17 235.011ZM375.232 239.838H383.309C386.225 239.838 388.299 240.673 389.534 242.342C390.803 243.975 391.437 246.552 391.437 250.072V254.644C391.437 258.564 390.649 261.285 389.071 262.81C387.493 264.298 384.989 265.041 381.559 265.041H375.232V239.838ZM919.332 244.265V282.424H903.414L919.332 244.265ZM416.947 270.485H424.201C427.322 270.485 429.603 271.302 431.043 272.935C432.518 274.568 433.255 277.253 433.255 280.991V291.334C433.255 294.963 432.587 297.666 431.249 299.444C429.912 301.186 427.768 302.057 424.819 302.057H416.947V270.485ZM375.232 272.935H382.383C386.019 272.935 388.642 273.805 390.254 275.547C391.901 277.289 392.724 280.284 392.724 284.529V291.442C392.724 295.071 392.021 297.757 390.614 299.499C389.208 301.205 386.996 302.057 383.978 302.057H375.232V272.935ZM497.952 312.005C496.803 312.005 495.939 312.365 495.358 313.087C494.784 313.801 494.497 314.783 494.497 316.033V324.302C494.497 325.552 494.784 326.534 495.358 327.248C495.939 327.962 496.803 328.319 497.952 328.319C499.107 328.319 499.976 327.962 500.557 327.248C501.146 326.534 501.44 325.552 501.44 324.302V322.315H499.804V324.391C499.804 325.931 499.2 326.701 497.995 326.701C497.392 326.701 496.94 326.501 496.638 326.099C496.337 325.697 496.187 325.128 496.187 324.391V315.932C496.187 315.196 496.337 314.627 496.638 314.226C496.94 313.824 497.392 313.623 497.995 313.623C499.2 313.623 499.804 314.392 499.804 315.932V317.473H501.44V316.033C501.44 314.783 501.146 313.801 500.557 313.087C499.976 312.365 499.107 312.005 497.952 312.005ZM506.204 312.005C505.055 312.005 504.191 312.365 503.61 313.087C503.036 313.801 502.748 314.783 502.748 316.033V324.302C502.748 325.552 503.036 326.534 503.61 327.248C504.191 327.962 505.055 328.319 506.204 328.319C507.359 328.319 508.228 327.962 508.809 327.248C509.398 326.534 509.691 325.552 509.691 324.302V322.315H508.056V324.391C508.056 325.931 507.452 326.701 506.247 326.701C505.644 326.701 505.192 326.501 504.89 326.099C504.589 325.697 504.439 325.128 504.439 324.391V315.932C504.439 315.196 504.589 314.627 504.89 314.226C505.192 313.824 505.644 313.623 506.247 313.623C507.452 313.623 508.056 314.392 508.056 315.932V317.473H509.691V316.033C509.691 314.783 509.398 313.801 508.809 313.087C508.228 312.365 507.359 312.005 506.204 312.005ZM550.699 312.005C549.544 312.005 548.668 312.361 548.072 313.076C547.477 313.79 547.179 314.775 547.179 316.033V324.302C547.179 325.544 547.477 326.526 548.072 327.248C548.675 327.962 549.551 328.319 550.699 328.319C551.862 328.319 552.745 327.962 553.347 327.248C553.95 326.526 554.252 325.544 554.252 324.302V316.033C554.252 314.775 553.95 313.79 553.347 313.076C552.745 312.361 551.862 312.005 550.699 312.005ZM604.631 312.005C603.475 312.005 602.6 312.361 602.004 313.076C601.408 313.79 601.111 314.775 601.111 316.033V324.28C601.111 325.537 601.408 326.526 602.004 327.248C602.607 327.962 603.482 328.319 604.631 328.319C605.793 328.319 606.676 327.962 607.279 327.248C607.881 326.526 608.183 325.537 608.183 324.28V316.033C608.183 314.775 607.881 313.79 607.279 313.076C606.676 312.361 605.793 312.005 604.631 312.005ZM653.337 312.005C652.181 312.005 651.305 312.361 650.709 313.076C650.114 313.79 649.816 314.775 649.816 316.033V324.302C649.816 325.544 650.114 326.526 650.709 327.248C651.312 327.962 652.188 328.319 653.337 328.319C654.499 328.319 655.382 327.962 655.985 327.248C656.587 326.526 656.889 325.544 656.889 324.302V316.033C656.889 314.775 656.587 313.79 655.985 313.076C655.382 312.361 654.499 312.005 653.337 312.005ZM661.696 312.005C660.548 312.005 659.683 312.365 659.102 313.087C658.528 313.801 658.24 314.783 658.24 316.033V324.302C658.24 325.552 658.528 326.534 659.102 327.248C659.683 327.962 660.548 328.319 661.696 328.319C662.852 328.319 663.72 327.962 664.301 327.248C664.89 326.534 665.184 325.552 665.184 324.302V322.315H663.548V324.391C663.548 325.931 662.945 326.701 661.739 326.701C661.137 326.701 660.684 326.501 660.382 326.099C660.081 325.697 659.93 325.128 659.93 324.391V315.932C659.93 315.196 660.081 314.627 660.382 314.226C660.684 313.824 661.137 313.623 661.739 313.623C662.945 313.623 663.548 314.392 663.548 315.932V317.473H665.184V316.033C665.184 314.783 664.89 313.801 664.301 313.087C663.72 312.365 662.852 312.005 661.696 312.005ZM443.622 312.161C443.507 312.473 443.389 312.741 443.267 312.964C443.145 313.187 442.983 313.404 442.782 313.612C442.581 313.82 442.33 313.983 442.029 314.102C441.727 314.214 441.376 314.277 440.974 314.292V315.754C441.756 315.71 442.47 315.479 443.116 315.062V328.163H444.806V312.161H443.622ZM450.927 312.161C450.812 312.473 450.693 312.741 450.571 312.964C450.449 313.187 450.288 313.404 450.087 313.612C449.887 313.82 449.635 313.983 449.334 314.102C449.033 314.214 448.681 314.277 448.279 314.292V315.754C449.061 315.71 449.775 315.479 450.421 315.062V328.163H452.111V312.161H450.927ZM457.08 312.161L454.13 328.163H455.712L456.316 324.938H460.212L460.815 328.163H462.527L459.577 312.161H457.08ZM466.985 312.161V328.163H468.707V322.795L469.611 321.211L472.916 328.163H474.681L470.645 319.459L474.542 312.161H472.809L468.707 319.894V312.161H466.985ZM477.519 312.161L477.099 324.28C477.078 325.113 476.952 325.704 476.723 326.054C476.5 326.396 476.051 326.567 475.377 326.567V328.185H475.667C476.787 328.178 477.572 327.85 478.025 327.203C478.477 326.548 478.725 325.544 478.768 324.19L479.123 313.79H482.083V328.163H483.795V312.161H477.519ZM487.978 312.161L485.028 328.163H486.61L487.214 324.938H491.11L491.713 328.163H493.425L490.475 312.161H487.978ZM519.941 312.161L513.859 328.163H515.355L521.437 312.161H519.941ZM525.809 312.161V328.163H536.854V312.161H535.154V326.545H532.204V312.161H530.481V326.545H527.532V312.161H525.809ZM538.454 312.161V328.163H540.176V322.795L541.08 321.211L544.385 328.163H546.15L542.114 319.459L546.01 312.161H544.277L540.176 319.894V312.161H538.454ZM557.412 312.161L556.992 324.28C556.97 325.113 556.845 325.704 556.615 326.054C556.392 326.396 555.944 326.567 555.27 326.567V328.185H555.56C556.68 328.178 557.466 327.85 557.918 327.203C558.37 326.548 558.618 325.544 558.661 324.19L559.015 313.79H561.976V328.163H563.688V312.161H557.412ZM567.871 312.161L564.921 328.163H566.503L567.106 324.938H571.003L571.606 328.163H573.318L570.368 312.161H567.871ZM577.754 312.161V328.163H579.294V315.23L583.244 328.163H585.031V312.161H583.502V323.733L579.939 312.161H577.754ZM590.29 312.161C590.175 312.473 590.058 312.741 589.936 312.964C589.814 313.187 589.652 313.404 589.451 313.612C589.25 313.82 588.999 313.983 588.697 314.102C588.396 314.214 588.044 314.277 587.642 314.292V315.754C588.424 315.71 589.139 315.479 589.785 315.062V328.163H591.475V312.161H590.29ZM597.595 312.161C597.48 312.473 597.362 312.741 597.24 312.964C597.118 313.187 596.956 313.404 596.755 313.612C596.554 313.82 596.303 313.983 596.002 314.102C595.7 314.214 595.349 314.277 594.947 314.292V315.754C595.729 315.71 596.443 315.479 597.089 315.062V328.163H598.779V312.161H597.595ZM618.475 312.161L612.394 328.163H613.89L619.972 312.161H618.475ZM624.366 312.161V328.163H626.066V313.79H630.512V312.161H624.366ZM638.529 312.161V328.163H640.025V315.408L642.587 328.141H644.234L646.688 315.296V328.163H648.314V312.161H645.913L643.47 324.938L640.929 312.161H638.529ZM666.622 312.161V328.163H668.344V322.795L669.248 321.211L672.553 328.163H674.318L670.282 319.459L674.178 312.161H672.445L668.344 319.894V312.161H666.622ZM675.476 312.161V328.163H679.029C680.213 328.163 681.096 327.843 681.677 327.203C682.258 326.563 682.549 325.634 682.549 324.414V323.063C682.549 321.181 681.86 320.039 680.482 319.637C681.135 319.429 681.598 319.068 681.871 318.555C682.151 318.034 682.291 317.335 682.291 316.457V315.709C682.291 314.511 682.025 313.623 681.494 313.042C680.963 312.455 680.109 312.161 678.932 312.161H675.476ZM686.495 312.161L683.546 328.163H685.128L685.731 324.938H689.628L690.23 328.163H691.942L688.992 312.161H686.495ZM604.631 313.6C605.851 313.6 606.46 314.377 606.46 315.932V324.391C606.46 325.128 606.31 325.697 606.008 326.099C605.707 326.501 605.248 326.701 604.631 326.701C604.021 326.701 603.561 326.501 603.253 326.099C602.951 325.697 602.801 325.128 602.801 324.391V315.932C602.801 315.188 602.951 314.616 603.253 314.214C603.561 313.805 604.021 313.6 604.631 313.6ZM550.699 313.623C551.317 313.623 551.776 313.824 552.077 314.225C552.379 314.627 552.529 315.196 552.529 315.932V324.391C552.529 325.931 551.919 326.701 550.699 326.701C550.089 326.701 549.63 326.504 549.322 326.11C549.02 325.708 548.869 325.135 548.869 324.391V315.932C548.869 315.196 549.02 314.627 549.322 314.225C549.63 313.824 550.089 313.623 550.699 313.623ZM653.337 313.623C653.954 313.623 654.413 313.824 654.714 314.225C655.016 314.627 655.166 315.196 655.166 315.932V324.391C655.166 325.931 654.557 326.701 653.337 326.701C652.727 326.701 652.267 326.504 651.959 326.11C651.657 325.708 651.506 325.135 651.506 324.391V315.932C651.506 315.196 651.657 314.627 651.959 314.225C652.267 313.824 652.727 313.623 653.337 313.623ZM677.198 313.79H678.889C679.499 313.79 679.933 313.961 680.191 314.303C680.457 314.638 680.59 315.166 680.59 315.888V316.825C680.59 317.628 680.425 318.187 680.095 318.499C679.764 318.804 679.24 318.956 678.523 318.956H677.198V313.79ZM458.232 314.18L459.975 323.409H456.531L458.232 314.18ZM489.13 314.18L490.873 323.409H487.428L489.13 314.18ZM569.022 314.18L570.766 323.409H567.322L569.022 314.18ZM687.646 314.18L689.391 323.409H685.946L687.646 314.18ZM677.198 320.575H678.695C679.456 320.575 680.005 320.753 680.342 321.11C680.687 321.467 680.859 322.081 680.859 322.952V324.369C680.859 325.113 680.711 325.663 680.417 326.02C680.123 326.37 679.66 326.545 679.029 326.545H677.198V320.575ZM632.036 325.942V328.163H633.694V325.942H632.036Z" fill="currentcolor"/>
</svg>
