<svg  viewBox="0 0 1180 580" fill="currentcolor" xmlns="http://www.w3.org/2000/svg">

<path d="M513.652 210.013C513.312 210.009 512.971 210.009 512.631 210.013C501.736 210.086 491.329 214.58 482.195 220.14C476.323 214.474 467.936 212.353 460.048 211.738C442.757 210.966 425.292 215.822 410.829 225.431C397.917 224.993 385.758 230.858 374.988 237.499C362.045 245.573 351.765 257.554 344.507 270.97C339.27 281.072 336.113 293.142 339.244 304.404C341.423 312.304 348.997 317.794 356.952 318.308C364.626 318.801 372.358 317.483 379.632 315.034C384.222 322.925 393.031 327.408 401.873 328.147C410.297 329.053 419.309 327.811 426.495 323.054C427.63 322.243 429.975 320.061 428.004 318.95C425.593 319.127 424.014 321.604 421.745 322.328C413.94 325.902 404.86 326.077 396.692 323.858C391.188 322.272 386.192 318.666 382.991 313.813C388.69 311.615 394.143 308.787 399.299 305.497C416.124 308.334 434.172 308.681 450.095 301.668C455.748 299.222 461.079 294.923 464.045 289.706C464.264 292.954 467.886 294.19 470.644 293.822C475.952 293.788 481.355 292.439 485.553 289.024C489.776 285.832 493.777 281.998 496.272 277.266C497.404 274.514 499.094 270.556 496.6 268.053C493.687 265.905 489.742 267.264 486.678 268.374C487.192 267.588 489.855 265.438 491.188 264.135C495.734 260.003 500.28 255.87 504.826 251.737C500.537 251.17 496.035 251.977 492.558 254.692C484.172 260.559 476.979 268.015 470.262 275.723C469.112 277.032 467.772 279.179 466.989 280.137C467.634 273.277 464.518 266.193 458.754 262.407C467.711 260.573 476.702 256.589 482.815 249.521C489.108 242.246 490.03 230.594 484.372 222.683C493.903 216.521 505.394 212.95 516.681 213.886C521.621 214.418 526.301 216.728 529.782 220.294C531.17 221.277 532.274 219.206 531.62 218.004C530.034 213.527 525.014 211.581 520.764 210.676C518.423 210.208 516.036 210.03 513.652 210.011V210.013ZM456.833 215.623C464.614 215.732 473.279 216.414 479.525 221.705C464.52 231.602 452 244.763 439.678 257.776C425.5 273.111 411.328 288.703 394.634 301.312C390.529 300.691 386.508 299.662 382.504 298.618C396.552 293.09 408.648 283.293 418.596 271.989C425.809 263.501 431.156 252.353 429.783 240.922C428.903 234.56 424.203 229.114 418.277 226.952C429.797 219.569 443.29 215.54 456.833 215.623ZM594.233 224.34C593.069 224.34 592.086 224.739 591.285 225.537C590.529 225.45 589.981 225.407 589.641 225.407C588.681 225.407 587.672 225.57 586.614 225.895C585.556 226.215 584.737 226.71 584.155 227.382C583.573 228.047 583.281 228.701 583.281 229.346C583.281 229.951 583.557 230.493 584.109 230.972C584.668 231.444 585.352 231.68 586.161 231.68C585.647 232.052 584.623 233.043 583.089 234.652C581.079 236.753 579.627 238.139 578.735 238.81C577.836 239.482 576.941 239.818 576.049 239.818C575.792 239.818 575.607 239.785 575.493 239.719C575.38 239.659 575.233 239.522 575.051 239.309C574.741 238.937 574.439 238.751 574.145 238.751C573.971 238.751 573.82 238.808 573.691 238.921C573.555 239.04 573.487 239.186 573.487 239.359C573.487 239.665 573.702 239.924 574.133 240.137C574.556 240.35 575.115 240.456 575.811 240.456C576.506 240.456 577.243 240.32 578.022 240.048C578.793 239.782 579.726 239.27 580.822 238.512C581.917 237.754 582.847 236.992 583.61 236.227C584.381 235.463 585.33 234.446 586.456 233.176C587.189 232.358 587.624 231.876 587.76 231.73C587.979 231.717 588.187 231.7 588.383 231.68L587.533 234.801C587.366 235.406 587.132 235.915 586.83 236.327C586.528 236.733 585.893 236.989 584.925 237.095L584.789 237.624C585.56 237.471 586.312 237.395 587.045 237.395C587.423 237.395 587.914 237.428 588.519 237.494C589.275 237.568 589.849 237.604 590.242 237.604C590.665 237.604 591.168 237.534 591.75 237.395L591.886 236.836C591.274 237.022 590.676 237.116 590.094 237.116C589.633 237.116 589.12 237.052 588.553 236.926C588.803 236.274 589.146 235.151 589.585 233.555C590.477 230.33 591.244 228.107 591.886 226.883C592.536 225.66 593.178 225.048 593.813 225.048C594.078 225.048 594.38 225.214 594.72 225.546C595.06 225.879 595.362 226.045 595.627 226.045C596.08 226.045 596.307 225.852 596.307 225.467C596.307 225.161 596.122 224.898 595.752 224.679C595.381 224.453 594.875 224.34 594.233 224.34ZM481.907 224.486C485.33 231.75 482.367 240.239 477.79 246.249C472.566 253.688 464.297 259.215 455.132 259.962C453.751 259.149 452.385 258 450.716 257.965C460.389 246.19 469.808 233.686 481.907 224.486ZM660.017 225.576C657.424 225.576 655.603 225.949 654.553 226.693C653.51 227.431 652.988 228.262 652.988 229.186C652.988 229.525 653.079 229.798 653.261 230.004C653.45 230.211 653.661 230.313 653.895 230.313C654.099 230.313 654.277 230.247 654.428 230.114C654.579 229.974 654.655 229.815 654.655 229.635C654.655 229.489 654.568 229.296 654.394 229.057C654.205 228.791 654.111 228.572 654.111 228.399C654.111 227.913 654.447 227.474 655.12 227.082C655.989 226.563 657.171 226.264 658.668 226.184L657.285 230.802C656.643 232.963 656.121 234.582 655.72 235.659C655.546 236.137 655.312 236.49 655.018 236.717C654.723 236.936 654.212 237.108 653.487 237.235L653.419 237.713C654.779 237.501 655.773 237.395 656.401 237.395C656.71 237.395 657.107 237.417 657.591 237.464C658.052 237.51 658.407 237.534 658.657 237.534C658.695 237.534 658.789 237.53 658.94 237.524L659.087 237.025C658.906 237.039 658.766 237.045 658.668 237.045C658.26 237.045 657.799 236.949 657.285 236.756C657.345 236.404 657.496 235.819 657.738 235.001L658.94 230.962C659.439 231.52 659.828 232.052 660.108 232.557C660.387 233.056 660.784 233.984 661.298 235.34C661.85 236.776 662.39 237.837 662.919 238.521C663.448 239.206 664.03 239.708 664.665 240.027C665.307 240.346 665.983 240.506 666.694 240.506C667.518 240.506 668.198 240.32 668.735 239.948C669.271 239.575 669.539 239.19 669.539 238.791C669.539 238.638 669.476 238.505 669.347 238.392C669.219 238.286 669.063 238.232 668.882 238.232C668.716 238.232 668.565 238.286 668.429 238.392C668.33 238.472 668.213 238.684 668.077 239.03C667.851 239.615 667.423 239.907 666.796 239.907C666.146 239.907 665.508 239.615 664.88 239.03C664.253 238.445 663.637 237.318 663.032 235.649C662.36 233.781 661.888 232.587 661.616 232.068C661.343 231.55 661.015 231.081 660.629 230.662C661.967 229.918 663.539 228.851 665.345 227.461C666.025 226.936 666.565 226.573 666.966 226.374C667.366 226.174 667.873 226.008 668.485 225.875L668.553 225.626C667.722 225.706 666.989 225.746 666.354 225.746C665.735 225.746 664.94 225.706 663.973 225.626L663.826 226.185C664.544 226.198 664.979 226.228 665.13 226.275C665.288 226.315 665.368 226.362 665.368 226.415C665.368 226.461 665.342 226.517 665.289 226.584C665.115 226.783 664.397 227.349 663.134 228.279C662.447 228.785 661.729 229.263 660.98 229.715C660.24 230.161 659.59 230.477 659.031 230.663L659.938 227.641C660.066 227.216 660.338 226.527 660.754 225.577L660.017 225.576ZM589.755 226.075C590.11 226.075 590.438 226.098 590.741 226.145C590.083 226.982 589.361 228.615 588.575 231.042C588.145 231.109 587.718 231.141 587.295 231.141C586.682 231.141 586.173 230.995 585.764 230.703C585.356 230.41 585.152 230.001 585.152 229.476C585.152 228.605 585.594 227.82 586.478 227.122C587.362 226.424 588.455 226.075 589.755 226.075ZM602.519 228.598C601.968 228.598 601.397 228.771 600.807 229.117C600.226 229.456 599.394 230.214 598.313 231.39C597.739 232.009 597.259 232.445 596.874 232.698L597.554 229.975C597.652 229.596 597.702 229.37 597.702 229.296C597.702 229.09 597.55 228.988 597.248 228.988C596.923 228.988 596.394 229.15 595.661 229.476C594.927 229.795 594.183 230.317 593.427 231.042L593.779 231.39C594.656 230.579 595.253 230.174 595.57 230.174C595.737 230.174 595.82 230.25 595.82 230.403C595.82 230.736 595.449 232.172 594.709 234.712L593.915 237.395H595.627L596.772 233.086C597.286 233.332 597.66 233.612 597.894 233.924C598.136 234.237 598.389 234.732 598.653 235.41C599.59 237.77 600.516 239.333 601.431 240.097C602.353 240.869 603.381 241.254 604.515 241.254C605.293 241.254 605.935 241.071 606.442 240.706C606.956 240.347 607.212 239.918 607.212 239.419C607.212 239.173 607.137 238.974 606.986 238.821C606.842 238.675 606.661 238.601 606.442 238.601C606.253 238.601 606.09 238.661 605.954 238.781C605.826 238.907 605.761 239.044 605.761 239.19C605.761 239.283 605.799 239.419 605.875 239.599C605.958 239.798 606 239.938 606 240.018C606 240.177 605.867 240.323 605.602 240.456C605.345 240.589 605.063 240.656 604.753 240.656C604.027 240.656 603.408 240.406 602.894 239.908C602.38 239.416 601.839 238.562 601.272 237.345C600.486 235.643 599.9 234.575 599.515 234.143C599.137 233.711 598.434 233.282 597.407 232.857C597.716 232.657 598.208 232.225 598.88 231.56C599.583 230.875 600.154 230.423 600.592 230.204C601.031 229.978 601.472 229.865 601.918 229.865C602.001 229.865 602.126 229.872 602.292 229.885L602.61 229.895C603.192 229.895 603.483 229.682 603.483 229.256C603.483 228.818 603.162 228.598 602.519 228.598ZM719.057 228.698L718.308 228.838L718.036 229.227C717.787 229.2 717.541 229.187 717.3 229.187C716.34 229.187 715.553 229.313 714.941 229.566C714.148 229.898 713.392 230.417 712.674 231.122C711.956 231.826 711.382 232.611 710.951 233.475C710.528 234.34 710.316 235.124 710.316 235.829C710.316 236.421 710.475 236.899 710.792 237.265C711.026 237.538 711.363 237.674 711.801 237.674C712.262 237.674 712.769 237.521 713.32 237.215C714.22 236.723 714.994 236.134 715.644 235.45L715.191 236.807C715.13 236.979 715.1 237.116 715.1 237.215C715.1 237.368 715.149 237.485 715.247 237.564C715.346 237.644 715.493 237.684 715.69 237.684C715.962 237.684 716.241 237.637 716.528 237.544C716.967 237.405 717.427 237.189 717.911 236.896C718.153 236.75 718.705 236.331 719.567 235.639L719.204 235.25C718.773 235.616 718.324 235.922 717.855 236.168C717.59 236.308 717.398 236.377 717.277 236.377C717.088 236.377 716.993 236.274 716.993 236.068C716.993 235.862 717.076 235.403 717.243 234.692C717.545 233.382 717.866 232.225 718.206 231.221L719.057 228.698ZM699.841 228.977C699.456 228.977 698.927 229.134 698.254 229.446C697.582 229.759 696.871 230.244 696.123 230.902L696.463 231.301C697.37 230.543 697.971 230.164 698.265 230.164C698.401 230.164 698.47 230.241 698.47 230.394C698.47 230.513 698.281 231.261 697.903 232.637L696.622 237.395H698.243L699.116 234.023C699.35 233.119 699.63 232.448 699.954 232.009C700.287 231.564 700.827 231.105 701.575 230.633C702.006 230.353 702.324 230.214 702.528 230.214C702.641 230.214 702.729 230.244 702.789 230.304C702.849 230.357 702.879 230.437 702.879 230.543C702.879 230.61 702.819 230.862 702.698 231.301L701.009 237.395H702.619C702.868 236.357 703.246 235.018 703.753 233.376C703.979 232.624 704.244 232.076 704.546 231.73C704.984 231.231 705.528 230.809 706.178 230.463C706.496 230.297 706.749 230.214 706.938 230.214C707.164 230.214 707.278 230.327 707.278 230.553C707.278 230.792 707.086 231.474 706.7 232.598C706.186 234.094 705.876 235.058 705.77 235.49C705.664 235.915 705.612 236.288 705.612 236.607C705.612 236.953 705.698 237.222 705.872 237.415C706.046 237.614 706.246 237.714 706.473 237.714C706.776 237.714 707.146 237.601 707.584 237.375C707.811 237.255 708.226 236.956 708.831 236.477C709.269 236.124 709.568 235.892 709.726 235.779L709.353 235.42C708.884 235.832 708.427 236.178 707.981 236.457C707.845 236.537 707.705 236.577 707.561 236.577C707.349 236.577 707.244 236.464 707.244 236.238C707.244 235.905 707.542 234.878 708.139 233.156C708.615 231.767 708.891 230.935 708.967 230.662C709.042 230.39 709.081 230.154 709.081 229.955C709.081 229.622 708.993 229.376 708.82 229.217C708.646 229.057 708.4 228.977 708.083 228.977C707.728 228.977 707.233 229.143 706.598 229.476C705.963 229.802 705.215 230.36 704.353 231.151C704.58 230.48 704.693 230.005 704.693 229.725C704.693 229.466 704.629 229.276 704.501 229.157C704.372 229.037 704.183 228.977 703.934 228.977C702.974 228.977 701.587 229.788 699.773 231.411C699.841 231.085 699.963 230.643 700.136 230.084C700.257 229.705 700.318 229.45 700.318 229.317C700.318 229.21 700.276 229.127 700.193 229.067C700.117 229.007 700 228.977 699.841 228.977ZM734.712 228.977C734.326 228.977 733.798 229.134 733.125 229.446C732.452 229.759 731.742 230.244 730.994 230.902L731.334 231.301C732.241 230.543 732.841 230.164 733.136 230.164C733.272 230.164 733.34 230.241 733.34 230.394C733.34 230.513 733.152 231.261 732.774 232.637L731.492 237.395H733.113L733.987 234.023C734.221 233.119 734.5 232.448 734.825 232.009C735.158 231.564 735.698 231.105 736.446 230.633C736.877 230.353 737.195 230.214 737.399 230.214C737.512 230.214 737.599 230.244 737.66 230.304C737.72 230.357 737.75 230.437 737.75 230.543C737.75 230.61 737.69 230.862 737.569 231.301L735.88 237.395H737.49C737.739 236.357 738.117 235.018 738.623 233.376C738.85 232.624 739.114 232.076 739.417 231.73C739.855 231.231 740.399 230.809 741.049 230.463C741.366 230.297 741.619 230.214 741.808 230.214C742.035 230.214 742.148 230.327 742.148 230.553C742.148 230.792 741.956 231.474 741.57 232.598C741.056 234.094 740.746 235.058 740.641 235.49C740.535 235.915 740.482 236.288 740.482 236.607C740.482 236.953 740.569 237.222 740.743 237.415C740.916 237.614 741.117 237.714 741.344 237.714C741.646 237.714 742.016 237.601 742.455 237.375C742.681 237.255 743.097 236.956 743.701 236.477C744.14 236.124 744.438 235.892 744.597 235.779L744.223 235.42C743.754 235.832 743.297 236.178 742.851 236.457C742.715 236.537 742.575 236.577 742.432 236.577C742.22 236.577 742.114 236.464 742.114 236.238C742.114 235.905 742.413 234.878 743.01 233.156C743.486 231.767 743.762 230.935 743.837 230.662C743.913 230.39 743.951 230.154 743.951 229.955C743.951 229.622 743.864 229.376 743.69 229.217C743.517 229.057 743.27 228.977 742.953 228.977C742.598 228.977 742.103 229.143 741.468 229.476C740.833 229.802 740.085 230.36 739.224 231.151C739.45 230.48 739.564 230.005 739.564 229.725C739.564 229.466 739.499 229.276 739.371 229.157C739.242 229.037 739.054 228.977 738.804 228.977C737.845 228.977 736.458 229.788 734.644 231.411C734.712 231.085 734.832 230.643 735.006 230.084C735.127 229.705 735.188 229.45 735.188 229.317C735.188 229.21 735.146 229.127 735.063 229.067C734.988 229.007 734.871 228.977 734.712 228.977ZM618.322 228.987C616.871 228.987 615.601 229.718 614.513 231.181C613.432 232.644 612.892 234.153 612.892 235.709C612.892 237.019 613.591 237.674 614.989 237.674C616.115 237.674 617.268 237.281 618.447 236.497C619.626 235.706 620.215 234.861 620.215 233.964C620.215 233.086 619.709 232.648 618.696 232.648L618.13 232.657C619.361 231.959 619.977 231.178 619.977 230.314C619.977 229.43 619.425 228.987 618.322 228.987ZM636.732 228.987C635.198 228.987 633.879 229.788 632.776 231.39C631.835 232.739 631.351 234.095 631.31 235.456L631.166 235.28C630.993 235.393 630.667 235.639 630.191 236.018C629.722 236.39 629.386 236.576 629.182 236.576C628.782 236.576 628.536 236.124 628.445 235.22L627.992 230.423C627.931 229.838 627.848 229.459 627.742 229.286C627.644 229.106 627.433 229.017 627.108 229.017C626.246 229.017 625.018 229.665 623.423 230.962L623.911 231.311C624.818 230.519 625.502 230.124 625.963 230.124C626.174 230.124 626.28 230.227 626.28 230.433C626.28 230.593 625.914 231.42 625.181 232.916C624.455 234.412 623.911 235.32 623.548 235.639C623.185 235.958 622.815 236.118 622.437 236.118C622.279 236.118 622.063 236.071 621.791 235.978C621.511 235.878 621.299 235.829 621.156 235.829C620.884 235.829 620.65 235.915 620.453 236.088C620.264 236.254 620.17 236.47 620.17 236.736C620.17 237.016 620.283 237.238 620.51 237.404C620.744 237.577 621.043 237.664 621.406 237.664C622.252 237.664 623.034 237.312 623.752 236.607C624.47 235.902 625.373 234.266 626.462 231.7L626.926 235.868C627.017 236.68 627.168 237.182 627.379 237.374C627.599 237.567 627.825 237.664 628.06 237.664C628.875 237.664 629.961 237.031 631.309 235.778C631.328 236.408 631.462 236.878 631.722 237.175C632.009 237.494 632.421 237.654 632.957 237.654C634.28 237.654 635.867 236.879 637.718 235.33L637.344 234.891C636.384 235.523 635.656 235.942 635.157 236.148C634.786 236.301 634.446 236.377 634.136 236.377C633.811 236.377 633.562 236.284 633.388 236.098C633.222 235.912 633.139 235.583 633.139 235.111C633.139 234.785 633.173 234.442 633.241 234.083C634.677 233.512 635.614 233.116 636.052 232.897C636.929 232.445 637.537 232.009 637.877 231.59C638.217 231.171 638.387 230.745 638.387 230.313C638.387 229.901 638.244 229.579 637.957 229.346C637.677 229.107 637.269 228.987 636.732 228.987ZM644.622 228.987C643.171 228.987 641.902 229.718 640.813 231.181C639.733 232.644 639.192 234.153 639.192 235.709C639.192 237.019 639.891 237.674 641.29 237.674C642.416 237.674 643.568 237.281 644.747 236.497C645.926 235.706 646.516 234.861 646.516 233.964C646.516 233.086 646.009 232.648 644.997 232.648L644.429 232.657C645.661 231.959 646.277 231.178 646.277 230.314C646.277 229.43 645.726 228.987 644.622 228.987ZM609.321 229.007C607.62 229.007 606.2 229.741 605.059 231.211C604.152 232.394 603.698 233.685 603.698 235.081C603.698 235.885 603.944 236.52 604.435 236.986C604.934 237.451 605.587 237.684 606.396 237.684C607.711 237.684 608.958 237.098 610.137 235.928C611.316 234.751 611.906 233.425 611.906 231.949C611.906 231.025 611.66 230.303 611.169 229.785C610.677 229.266 610.061 229.007 609.321 229.007ZM673.893 229.007C672.192 229.007 670.771 229.741 669.63 231.211C668.723 232.394 668.27 233.685 668.27 235.081C668.27 235.885 668.516 236.52 669.007 236.986C669.506 237.451 670.159 237.684 670.968 237.684C672.283 237.684 673.53 237.098 674.708 235.928C675.887 234.751 676.477 233.425 676.477 231.949C676.477 231.025 676.231 230.303 675.74 229.785C675.249 229.266 674.633 229.007 673.893 229.007ZM693.958 229.007C693.066 229.007 692.265 229.236 691.554 229.695C690.647 230.287 689.877 231.138 689.242 232.248C688.607 233.359 688.29 234.439 688.29 235.49C688.29 236.121 688.437 236.643 688.732 237.055C689.034 237.467 689.514 237.674 690.172 237.674C691.411 237.674 692.93 237.052 694.728 235.809L694.49 235.23C693.266 236.141 692.212 236.596 691.328 236.596C690.958 236.596 690.671 236.463 690.467 236.197C690.187 235.852 690.047 235.363 690.047 234.732C690.047 233.874 690.213 233.019 690.546 232.168C690.878 231.317 691.226 230.746 691.588 230.453C691.959 230.154 692.329 230.004 692.699 230.004C692.986 230.004 693.346 230.118 693.777 230.344C694.192 230.556 694.532 230.662 694.796 230.662C695.069 230.662 695.281 230.599 695.432 230.473C695.583 230.34 695.658 230.171 695.658 229.965C695.658 229.699 695.515 229.472 695.228 229.286C694.94 229.1 694.517 229.007 693.958 229.007ZM681.091 229.017C680.282 229.017 679.084 229.668 677.497 230.972L677.996 231.31C678.828 230.592 679.41 230.233 679.742 230.233C679.901 230.233 679.98 230.333 679.98 230.532C679.98 230.639 679.954 230.785 679.901 230.972L678.892 234.532C678.597 235.569 678.397 236.254 678.291 236.587C678.148 237.045 678.068 237.314 678.053 237.394H679.742L680.785 233.514H683.937L683.404 235.489C683.252 236.028 683.177 236.467 683.177 236.806C683.177 237.099 683.267 237.328 683.449 237.494C683.638 237.66 683.838 237.743 684.05 237.743C684.775 237.743 685.894 237.049 687.406 235.659L687.032 235.29C686.057 236.161 685.433 236.596 685.161 236.596C684.942 236.596 684.832 236.467 684.832 236.208C684.832 235.928 685.146 234.778 685.773 232.757L686.839 229.276H685.229L684.129 232.906H680.966C681.465 231.264 681.715 230.21 681.715 229.745C681.715 229.26 681.507 229.017 681.091 229.017ZM723.852 229.017C723.043 229.017 721.845 229.668 720.258 230.972L720.757 231.31C721.588 230.592 722.17 230.233 722.503 230.233C722.661 230.233 722.741 230.333 722.741 230.532C722.741 230.639 722.714 230.785 722.661 230.972L721.652 234.532C721.358 235.569 721.158 236.254 721.052 236.587C720.908 237.045 720.829 237.314 720.814 237.394H722.503L723.545 233.514H726.697L726.164 235.489C726.013 236.028 725.938 236.467 725.938 236.806C725.938 237.099 726.028 237.328 726.21 237.494C726.399 237.66 726.599 237.743 726.81 237.743C727.536 237.743 728.655 237.049 730.166 235.659L729.792 235.29C728.817 236.161 728.193 236.596 727.921 236.596C727.702 236.596 727.593 236.467 727.593 236.208C727.593 235.928 727.906 234.778 728.533 232.757L729.599 229.276H727.989L726.889 232.906H723.727C724.226 231.264 724.475 230.21 724.475 229.745C724.475 229.26 724.267 229.017 723.852 229.017ZM748.984 229.017C748.659 229.017 748.228 229.143 747.692 229.396C747.163 229.642 746.392 230.163 745.379 230.961L745.878 231.31C746.445 230.838 746.845 230.543 747.079 230.423C747.314 230.297 747.5 230.233 747.636 230.233C747.787 230.233 747.862 230.326 747.862 230.512C747.862 230.831 747.609 231.792 747.102 233.395C746.702 234.658 746.452 235.499 746.354 235.918C746.286 236.217 746.252 236.497 746.252 236.756C746.252 237.089 746.328 237.331 746.479 237.484C746.63 237.637 746.838 237.714 747.102 237.714C747.586 237.714 748.157 237.544 748.814 237.204C749.804 236.692 750.635 236.098 751.308 235.419C751.142 235.998 751.059 236.46 751.059 236.806C751.059 237.105 751.142 237.334 751.308 237.494C751.482 237.66 751.69 237.743 751.931 237.743C752.649 237.743 753.768 237.049 755.287 235.659L754.913 235.29C754.218 235.908 753.746 236.294 753.496 236.447C753.322 236.546 753.171 236.596 753.043 236.596C752.96 236.596 752.884 236.563 752.816 236.496C752.748 236.43 752.714 236.334 752.714 236.208C752.714 235.928 753.028 234.778 753.655 232.757L754.72 229.276H753.111L751.875 233.365C751.633 234.149 751.123 234.851 750.344 235.469C749.566 236.081 748.965 236.387 748.542 236.387C748.421 236.387 748.308 236.337 748.202 236.237C748.104 236.138 748.055 236.018 748.055 235.878C748.055 235.652 748.297 234.731 748.78 233.115C749.324 231.32 749.597 230.193 749.597 229.734C749.597 229.488 749.54 229.309 749.427 229.196C749.313 229.077 749.166 229.017 748.984 229.017ZM759.675 229.017C758.866 229.017 757.668 229.668 756.081 230.972L756.58 231.31C757.411 230.592 757.993 230.233 758.325 230.233C758.484 230.233 758.563 230.333 758.563 230.532C758.563 230.639 758.537 230.785 758.484 230.972L757.475 234.532C757.181 235.569 756.98 236.254 756.874 236.587C756.731 237.045 756.651 237.314 756.636 237.394H758.325L759.369 233.514H762.52L761.987 235.489C761.836 236.028 761.76 236.467 761.76 236.806C761.76 237.099 761.851 237.328 762.032 237.494C762.221 237.66 762.422 237.743 762.634 237.743C763.359 237.743 764.477 237.049 765.989 235.659L765.614 235.29C764.639 236.161 764.016 236.596 763.744 236.596C763.525 236.596 763.415 236.467 763.415 236.208C763.415 235.928 763.729 234.778 764.356 232.757L765.422 229.276H763.812L762.713 232.906H759.55C760.048 231.264 760.298 230.21 760.298 229.745C760.298 229.26 760.09 229.017 759.675 229.017ZM405.776 229.074L405.479 229.304L405.211 229.511C390.735 240.992 380.365 257.616 375.964 275.64C374.322 282.709 373.656 290.036 374.267 297.28C368.897 296.663 362.699 296.591 358.27 300.185C357.18 301.176 355.983 303.952 357.864 304.679C362.016 304.841 365.907 302.816 369.961 302.143C371.498 301.812 373.159 301.324 374.634 301.15C375.258 304.619 376.19 308.047 377.608 311.275C370.325 314.266 362.133 316.297 354.301 314.41C347.832 312.819 342.94 306.822 342.472 300.133C341.221 288.297 347.528 277.367 354.026 268.04C364.957 252.884 378.734 239.048 396.049 231.673C399.174 230.424 402.434 229.484 405.776 229.074ZM414.723 229.336C421.741 230.804 427.369 237.718 426.46 245.053C425.761 258.265 416.703 269.134 407.233 277.537C398.403 285.445 388.885 293.076 377.657 297.151C375.876 280.024 382.955 263.121 393.289 249.772C399.321 241.844 406.93 235.414 414.723 229.336ZM617.449 229.715C618.046 229.715 618.345 230.03 618.345 230.662C618.345 231.666 617.219 232.593 614.967 233.444C615.45 230.958 616.278 229.715 617.449 229.715ZM643.749 229.715C644.346 229.715 644.645 230.03 644.645 230.662C644.645 231.666 643.519 232.593 641.267 233.444C641.75 230.958 642.578 229.715 643.749 229.715ZM608.357 229.755C608.818 229.755 609.2 229.968 609.503 230.393C609.812 230.819 609.967 231.53 609.967 232.527C609.967 233.857 609.635 234.971 608.969 235.868C608.448 236.56 607.87 236.905 607.235 236.905C606.782 236.905 606.419 236.723 606.147 236.357C605.776 235.859 605.591 235.177 605.591 234.312C605.591 232.89 605.89 231.776 606.487 230.972C607.092 230.16 607.715 229.755 608.357 229.755ZM672.929 229.755C673.39 229.755 673.772 229.968 674.074 230.393C674.384 230.819 674.538 231.53 674.538 232.527C674.538 233.857 674.206 234.971 673.541 235.868C673.019 236.56 672.442 236.905 671.807 236.905C671.353 236.905 670.99 236.723 670.718 236.357C670.348 235.859 670.163 235.177 670.163 234.312C670.163 232.89 670.461 231.776 671.058 230.972C671.663 230.16 672.287 229.755 672.929 229.755ZM635.825 229.815C636.097 229.815 636.316 229.901 636.483 230.074C636.657 230.24 636.744 230.466 636.744 230.752C636.744 231.131 636.536 231.513 636.12 231.899C635.508 232.451 634.594 232.966 633.377 233.444C633.52 232.687 633.766 231.942 634.113 231.211C634.355 230.712 634.654 230.34 635.009 230.094C635.273 229.908 635.546 229.815 635.825 229.815ZM715.871 230.253C716.15 230.253 716.494 230.29 716.902 230.363L715.962 233.475C715.682 234.406 715.243 235.12 714.646 235.619C714.049 236.111 713.49 236.357 712.969 236.357C712.689 236.357 712.462 236.257 712.289 236.058C712.115 235.859 712.028 235.533 712.028 235.081C712.028 234.23 712.243 233.378 712.674 232.527C713.112 231.67 713.585 231.078 714.091 230.752C714.597 230.42 715.191 230.253 715.871 230.253ZM914.701 231.783C906.414 231.783 897.845 237.876 888.994 250.062C881.544 260.256 876.49 270.304 873.831 280.205C872.887 283.72 872.59 286.943 872.941 289.872C873.649 295.906 876.549 298.923 881.641 298.923C888.465 298.923 896.356 292.128 905.314 278.535C912.862 267.17 917.808 257.122 920.152 248.393C923.126 237.32 921.309 231.783 914.701 231.783ZM874.308 232.398C868.566 232.398 862.576 236.148 856.338 243.647C852.581 248.158 849.663 253.577 847.585 259.904L849.639 259.817C851.733 253.431 854.674 248.129 858.461 243.91C863.943 237.817 868.498 234.771 872.127 234.771C875.052 234.771 876.019 236.617 875.028 240.308C873.879 244.584 871.552 249.213 868.049 254.193C864.015 259.934 858.436 265.383 851.31 270.538C837.726 280.381 829.966 288.906 828.031 296.112C827.622 297.635 827.959 298.396 829.042 298.396C830.234 298.396 831.019 297.693 831.397 296.287C831.475 295.994 831.546 295.525 831.611 294.881C831.756 293.533 831.865 292.625 831.937 292.156C832.55 289.872 833.94 288.73 836.107 288.73C837.732 288.73 839.192 290.048 840.488 292.684C842.505 296.668 845.112 298.66 848.308 298.66C852.153 298.66 856.258 296.082 860.622 290.926C863.951 287.001 866.736 282.578 868.978 277.656L867.414 277.129C863.847 284.16 859.68 287.675 854.914 287.675C853.56 287.675 852.16 287.44 850.715 286.972L847.204 285.829C845.759 285.361 844.116 285.126 842.274 285.126C840.595 285.126 838.485 285.625 835.942 286.62C839.217 282.695 842.966 279.121 847.189 275.899C849.363 274.259 853.6 271.387 859.901 267.286C866.466 263.009 871.237 259.465 874.213 256.653C878.579 252.493 881.345 248.246 882.509 243.91C883.422 240.512 883.051 237.759 881.396 235.65C879.812 233.482 877.449 232.398 874.308 232.398ZM950.377 232.398C944.635 232.398 938.645 236.148 932.407 243.647C928.65 248.158 925.732 253.577 923.653 259.904L925.708 259.817C927.802 253.431 930.743 248.129 934.53 243.91C940.012 237.817 944.567 234.771 948.195 234.771C951.12 234.771 952.087 236.617 951.096 240.308C949.947 244.584 947.621 249.213 944.118 254.193C940.084 259.934 934.504 265.383 927.379 270.538C913.795 280.381 906.035 288.906 904.1 296.112C903.691 297.635 904.028 298.396 905.112 298.396C906.303 298.396 907.087 297.693 907.465 296.287C907.544 295.994 907.615 295.525 907.68 294.881C907.825 293.533 907.934 292.625 908.006 292.156C908.619 289.872 910.009 288.73 912.176 288.73C913.801 288.73 915.261 290.048 916.557 292.684C918.575 296.668 921.181 298.66 924.377 298.66C928.222 298.66 932.327 296.082 936.69 290.926C940.019 287.001 942.805 282.578 945.047 277.656L943.482 277.129C939.915 284.16 935.749 287.675 930.982 287.675C929.628 287.675 928.229 287.44 926.784 286.972L923.272 285.829C921.827 285.361 920.184 285.126 918.343 285.126C916.664 285.126 914.553 285.625 912.011 286.62C915.285 282.695 919.035 279.121 923.258 275.899C925.432 274.259 929.669 271.387 935.97 267.286C942.535 263.009 947.306 259.465 950.282 256.653C954.648 252.493 957.414 248.246 958.578 243.91C959.491 240.512 959.12 237.759 957.465 235.65C955.881 233.482 953.518 232.398 950.377 232.398ZM995.849 232.838C990.626 238.169 985.31 243.237 979.904 248.041C972.525 254.544 966.11 259.875 960.66 264.035L953.405 269.571C951.969 270.685 950.944 271.476 950.33 271.945L950.87 273.263C955.425 272.032 959.707 271.417 963.715 271.417C965.502 271.417 967.018 271.622 968.262 272.032L966.17 275.284C960.849 283.603 956.467 291.043 953.026 297.605C955.016 297.254 956.959 297.078 958.855 297.078C960.371 297.078 961.759 297.254 963.019 297.605C964.714 293.914 965.847 291.512 966.417 290.399L974.261 275.108L975.443 272.823C976.897 273.057 978.516 273.175 980.304 273.175C981.983 273.175 983.315 273.057 984.298 272.823L984.865 270.714C982.604 271.065 981.175 271.242 980.579 271.242C979.55 271.242 978.626 271.153 977.807 270.978L976.578 270.714C977.765 268.312 979.754 264.533 982.547 259.377C986.704 251.761 988.842 247.836 988.959 247.602L997.088 233.365L995.849 232.838ZM617.438 233.265C618.042 233.265 618.345 233.614 618.345 234.312C618.345 234.991 618.058 235.589 617.483 236.108C616.909 236.62 616.35 236.875 615.805 236.875C615.428 236.875 615.159 236.756 615.001 236.517C614.85 236.277 614.774 235.858 614.774 235.26C614.774 234.901 614.808 234.535 614.876 234.163C616.1 233.564 616.954 233.265 617.438 233.265ZM643.738 233.265C644.343 233.265 644.645 233.614 644.645 234.312C644.645 234.991 644.357 235.589 643.783 236.108C643.209 236.62 642.65 236.875 642.106 236.875C641.728 236.875 641.459 236.756 641.301 236.517C641.149 236.277 641.074 235.858 641.074 235.26C641.074 234.901 641.108 234.535 641.176 234.163C642.401 233.564 643.254 233.265 643.738 233.265ZM914.344 233.716C919.002 233.716 920.427 237.085 918.618 243.822C916.1 253.196 910.264 265.148 901.108 279.678C893.939 291.044 887.674 296.727 882.312 296.727C878.358 296.727 877.057 294.207 878.41 289.169C880.975 279.619 887.128 266.994 896.869 251.292C904.132 239.575 909.957 233.716 914.344 233.716ZM986.092 244.965L978.032 256.829C974.823 261.516 973.059 264.152 972.739 264.738L970.938 267.814C970.409 268.576 969.914 269.308 969.454 270.011C967.669 269.601 965.666 269.396 963.445 269.396C961.604 269.396 959.022 269.63 955.701 270.099L958.589 267.814C962.316 264.826 964.828 262.834 966.124 261.838C969.401 259.319 972.033 257.18 974.022 255.423L981.56 248.832C982.834 247.719 984.345 246.43 986.092 244.965ZM689.522 250.773C682.114 251.341 675.694 255.729 669.542 259.558C665.142 262.456 661.008 265.74 656.794 268.901C662.545 262.625 668.472 256.379 675.558 251.62C669.723 251.433 663.326 252.181 658.937 256.489C653.545 260.827 648.934 266.42 644.458 271.422C642.455 270.387 641.131 273.227 639.665 274.045C632.466 280.006 625.352 286.797 616.43 289.905C614.807 290.272 611.594 291.325 611.074 288.963C611.186 284.273 614.778 280.564 617.494 277.133C624.278 269.732 631.676 262.723 639.777 256.763C641.439 255.847 643.317 254.013 645.301 254.567C646.063 257.496 642.965 259.561 640.939 261.055C638.663 262.699 635.065 264.263 634.964 267.538C635.12 270.174 638.542 270.059 640.137 268.823C644.695 265.825 648.482 260.78 648.743 255.145C648.893 252.462 646.185 250.757 643.758 251.104C637.054 251.684 631.215 255.611 625.617 259.063C617.802 264.516 610.106 271.064 606.03 279.937C604.325 283.892 603.397 289.608 607.329 292.565C611.685 295.316 617.123 293.356 621.43 291.485C627.643 288.618 633.332 283.864 638.356 279.78C636.45 282.976 633.974 286.174 633.505 289.969C633.264 291.912 634.095 294.855 636.545 294.54C640.864 287.84 645.766 281.275 652.067 276.428C654.829 274.107 657.657 271.866 660.56 269.728C657.613 275.625 655.156 282.075 654.996 288.751C654.861 291.482 657.042 294.214 659.896 293.887C665.438 293.13 669.946 289.303 674.395 286.172C675.719 285.166 677.026 284.138 678.319 283.093C676.679 285.892 673.981 288.874 675.129 292.383C675.206 294.158 677.793 295.611 678.545 293.354C683.143 287.662 687.814 281.662 693.028 276.716C696.772 278.662 701.189 277.248 705.087 276.556C706.329 276.205 704.315 277.88 704 278.574C701.689 281.913 699.051 285.89 699.824 290.159C700.361 293.42 704.087 294.384 706.863 293.733C712.857 292.065 717.588 287.609 722.445 283.916C721.343 286.7 720.282 291.017 723.334 292.95C727.57 295.087 732.128 292.185 735.7 289.976C738.381 288.311 741.363 285.853 743.552 284.255C742.314 287.12 742.015 291.623 745.418 293.077C749.668 295.003 753.903 291.899 757.357 289.684C759.984 287.942 762.828 285.564 765.042 283.895C763.386 286.728 761.558 290.528 763.545 293.67C764.371 294.781 766.233 294.908 766.549 293.263C770.791 286.934 775.507 280.779 781.563 276.184C784.23 273.947 786.964 271.793 789.764 269.728C786.816 275.625 784.359 282.075 784.199 288.751C784.065 291.482 786.245 294.214 789.099 293.887C794.641 293.13 799.148 289.302 803.597 286.172C808.625 282.244 813.663 278.238 818.16 273.708C819.478 272.103 816.916 269.96 815.595 271.552C808.503 277.162 802.336 284.256 794.023 288.078C792.35 288.926 791.484 286.866 791.927 285.489C792.995 278.208 795.646 271 799.39 264.676C801.713 260.647 806.321 258.616 810.463 257.127C813.595 256.208 817.562 255.732 819.909 258.57C820.91 259.905 822.693 259.706 823.591 258.395C825.395 256.122 824.86 251.933 821.723 251.195C816.241 249.715 810.806 252.741 806.035 255.135C798.887 258.991 792.444 263.987 785.994 268.902C791.755 262.619 797.665 256.387 804.761 251.62C798.925 251.433 792.529 252.181 788.141 256.489C782.204 261.297 777.373 267.292 772.362 273.005C765.361 278.6 759.204 285.556 751.095 289.57C750.468 290.025 747.698 290.564 748.729 288.943C752.858 281.736 758.802 275.756 764.325 269.635C770.249 263.367 776.456 257.38 782.762 251.508C778.853 250.881 774.654 251.419 771.492 253.993C756.782 263.92 747.061 279.993 731.685 288.931C730.492 289.419 728.57 290.744 727.448 289.697C728.354 286.338 731.138 283.776 733.08 281C741.86 270.274 752.432 261.161 763.072 252.322C758.68 251.664 754.039 252.389 750.418 255.112C742.132 260.188 735.136 267.073 728.529 274.143C721.855 279.48 715.966 286.165 708.135 289.821C707.424 290.255 705.084 290.548 706.062 289.068C710.423 281.552 716.621 275.316 722.437 268.949C728.121 262.976 734.062 257.258 740.092 251.644C736.18 251.018 731.974 251.554 728.814 254.139C721.661 259.091 715.565 265.403 709.553 271.667C705.404 272.722 701.018 274.539 696.701 273.403C694.805 272.555 697.253 271.091 697.853 270.135C703.836 263.299 710.08 256.674 717.624 251.62C712.671 251.452 707.241 251.905 703.403 255.456C697.492 259.956 692.485 265.643 687.473 271.007C685.049 272.006 683.407 274.452 681.255 275.943C675.934 280.384 670.923 285.613 664.389 288.2C662.135 288.563 662.673 285.433 662.897 284.062C664.525 276.451 667.102 268.633 671.868 262.327C676.297 258.774 682.061 255.591 687.944 256.699C689.88 257.048 690.928 259.889 692.98 259.437C696.313 258.031 696.292 252.052 692.52 251.195C691.556 250.879 690.534 250.756 689.522 250.773ZM568.528 251.102C568.296 251.094 568.067 251.096 567.843 251.106C561.732 251.894 556.47 255.604 551.259 258.647C548.534 260.393 545.855 262.213 543.237 264.119C547.701 259.496 552.522 255.2 557.853 251.62C552.897 251.452 547.464 251.903 543.623 255.456C537.472 260.141 532.322 266.066 527.104 271.675C524.154 273.463 521.883 276.263 519.087 278.305C513.502 282.603 508.181 287.71 501.48 290.086C500.597 290.472 498.796 290.481 499.508 289.006C502.124 282.997 507.103 278.452 511.352 273.612C518.556 265.99 526.236 258.796 534.004 251.739C529.717 251.171 525.217 251.98 521.742 254.694C513.355 260.56 506.162 268.016 499.446 275.724C496.288 279.845 492.572 284.726 493.326 290.259C494.132 293.935 498.725 294.336 501.697 293.485C508.046 291.658 513.242 287.263 518.404 283.303C516.787 286.03 514.222 288.964 515.348 292.381C515.423 294.156 518.011 295.612 518.765 293.356C527.675 282.064 537.464 271.164 549.773 263.578C555.123 260.356 560.303 256.432 566.369 254.724C568.02 254.419 566.008 256.283 565.602 256.858C557.718 264.887 548.225 271.403 541.644 280.693C539.43 283.955 537.68 288.921 540.374 292.403C543.284 295.299 547.87 293.679 551.068 292.164C555.847 289.825 560.056 286.494 564.194 283.174C562.949 286.088 561.748 290.506 564.723 292.777C568.69 295.124 573.284 292.539 576.714 290.352C578.087 289.465 579.415 288.512 580.715 287.519C566.76 302.145 551.609 316.552 532.836 324.482C524.931 327.675 515.82 329.709 507.49 327.097C503.405 325.918 500.716 321.705 501.015 317.519C500.905 311.317 504.874 306.14 509.001 301.98C510.199 300.975 509.164 299.197 507.735 299.556C504.448 300.617 502.213 303.696 500.366 306.492C497.106 312.094 495.373 319.9 499.55 325.498C504.323 331.509 512.688 332.378 519.784 331.865C535.517 330.481 550.039 322.886 562.678 313.696C580.072 300.806 593.214 283.261 608.308 267.912C613.48 262.683 618.445 257.107 624.429 252.822C625.29 251.224 622.898 251.069 621.891 251.252C616.285 251.078 612.053 255.371 608.109 258.796C597.686 268.7 587.345 278.822 575.657 287.196C573.642 288.348 571.33 290.242 568.891 289.872C569.055 287.154 571.466 285.098 572.894 282.926C582.125 271.398 593.31 261.712 604.683 252.416C600.054 251.834 595.234 252.759 591.461 255.634C583.914 260.351 577.414 266.55 571.176 272.848C564.576 277.919 558.583 284.025 551.492 288.252C549.573 289.217 547.311 290.741 545.064 290.255C544.934 287.918 547.27 286.214 548.515 284.458C554.857 277.101 562.781 271.236 569.073 263.8C571.292 260.925 574.428 257.067 572.694 253.219C571.892 251.688 570.153 251.159 568.528 251.102ZM448.011 261.304C449.046 263.141 451.38 262.876 453.101 263.011C458.489 265.177 460.541 271.499 459.947 276.931C459.118 287.717 450.387 296.072 440.921 299.93C429.19 305.247 415.905 304.333 403.505 302.738C420.291 291.318 434.802 276.639 448.011 261.304ZM490.775 271.178C493.241 271.207 492.031 274.302 491.364 275.605C488.859 280.545 484.387 284.2 479.912 287.256C477.016 288.842 473.686 290.245 470.378 290.162C469.989 287.675 472.088 285.462 473.365 283.467C475.811 280.481 478.136 277.17 481.248 274.916C484.322 273.454 487.341 271.533 490.775 271.178ZM683.741 298.303C671.208 311.189 645.257 307.585 630.651 306.213C618.673 305.095 607.014 303.713 599.382 304.71C594.67 305.197 589.763 306.551 585.957 308.673C584.276 309.758 583.074 311.156 582.482 312.463C581.513 314.609 581.958 316.511 583.269 317.525C583.397 319.873 585.014 322.299 588.117 322.894C588.999 323.048 589.209 322.197 588.357 322.048C585.399 321.339 583.625 319.784 583.512 317.696C584.435 318.293 585.708 318.485 587.191 318.096C589.556 317.464 592.678 314.007 589.843 310.589C591.329 310.109 592.925 309.874 594.485 309.814C597.663 309.716 601.179 310.338 604.488 311.802C607.207 312.997 609.824 314.711 611.499 317.164C612.408 318.492 612.854 319.927 612.673 321.386C612.541 322.414 612.157 323.489 611.156 324.425C607.978 327.404 603.102 326.893 599.62 324.841C597.932 323.848 596.876 322.426 597.131 320.793C597.27 319.882 597.941 319.204 598.607 319.021C598.743 318.963 598.653 318.904 598.607 318.904C595.877 318.809 593.361 322.739 597.674 325.382C599.117 326.268 601.026 326.95 603.316 327.165C610.269 327.812 614.723 323.394 613.371 318.298C612.352 314.441 608.785 310.884 602.985 309.181C600.858 308.552 592.112 306.929 586.605 311.418C584.553 313.09 583.551 314.846 583.313 316.465C582.404 315.192 582.776 313.03 584.205 311.471C586.211 309.264 589.925 308.371 592.784 307.781C603.754 305.498 615.323 306.48 626.29 307.709C649.792 310.329 661.409 309.674 668.348 307.866C674.313 306.305 679.723 303.489 683.741 298.303ZM378.164 301.026C378.537 301.104 378.909 301.183 379.281 301.262C383.026 302.147 387.433 303.026 390.831 304.014C387.613 306.117 384.224 308.054 380.731 309.705C379.511 306.939 378.665 304.01 378.164 301.026ZM610.165 307.55C610.33 307.573 610.526 307.595 610.699 307.618C610.52 307.589 610.341 307.566 610.165 307.55ZM610.699 307.618C615.72 308.427 621.755 314.118 626.19 309.928C623.876 309.012 615.814 308.289 610.699 307.618ZM604.891 308.017C604.178 308.033 603.49 308.084 602.846 308.166C607.949 308.68 613.634 315.432 617.517 313.354C616.149 309.428 609.884 307.9 604.891 308.017ZM978.002 309.025C977.769 309.253 977.574 309.368 977.419 309.368C977.211 309.368 976.674 309.29 975.805 309.135C975.572 309.092 975.384 309.07 975.242 309.07C974.74 309.07 974.177 309.292 973.55 309.736C972.924 310.18 972.462 311.074 972.164 312.419L971.4 315.839C971.283 316.369 971.225 316.781 971.225 317.074C971.225 317.423 971.339 317.718 971.568 317.96C971.797 318.201 972.119 318.322 972.533 318.322C973.333 318.322 974.06 317.889 974.717 317.022C975.373 316.152 975.702 315.205 975.702 314.184C975.702 313.753 975.618 313.404 975.449 313.136C975.285 312.865 975.034 312.729 974.697 312.729C974.093 312.729 973.451 313.1 972.773 313.842L973.305 311.572C973.473 310.835 973.616 310.363 973.732 310.156C973.853 309.95 974.019 309.846 974.231 309.846C974.347 309.846 974.555 309.872 974.853 309.924C975.79 310.092 976.43 310.176 976.771 310.176C977.039 310.176 977.278 310.12 977.49 310.008C977.702 309.891 977.937 309.611 978.196 309.167L978.002 309.025ZM951.252 309.413C951.144 309.413 951.051 309.451 950.974 309.529C950.896 309.602 950.857 309.697 950.857 309.814C950.857 309.844 950.864 309.899 950.876 309.981C950.889 310.072 950.896 310.133 950.896 310.163C950.896 310.495 950.652 310.66 950.163 310.66C948.881 310.66 947.591 310.595 946.295 310.466C945.647 310.406 945.146 310.376 944.792 310.376C943.73 310.376 942.846 310.686 942.142 311.307C941.438 311.923 941.086 312.643 941.086 313.466C941.086 313.785 941.144 314.07 941.261 314.319C941.382 314.569 941.552 314.694 941.772 314.694C941.889 314.694 941.991 314.654 942.077 314.572C942.168 314.49 942.213 314.391 942.213 314.274C942.213 314.141 942.14 313.994 941.993 313.835C941.842 313.667 941.745 313.537 941.702 313.447C941.658 313.356 941.636 313.235 941.636 313.084C941.636 312.541 941.866 312.068 942.324 311.662C942.786 311.257 943.499 311.052 944.462 311.048L943.859 313.305C943.332 315.296 942.919 316.602 942.621 317.223C942.323 317.839 941.986 318.147 941.611 318.147C941.455 318.147 941.293 318.035 941.125 317.811C940.948 317.574 940.773 317.455 940.6 317.455C940.505 317.455 940.419 317.492 940.341 317.565C940.267 317.638 940.231 317.731 940.231 317.843C940.231 318.05 940.356 318.22 940.606 318.354C940.861 318.487 941.136 318.554 941.429 318.554C941.961 318.554 942.502 318.296 943.055 317.779C943.613 317.257 944.121 316.093 944.578 314.287C944.993 312.645 945.308 311.565 945.524 311.048C946.198 311.108 946.837 311.139 947.442 311.139C947.649 311.139 947.954 311.132 948.356 311.119C947.941 311.899 947.481 313.286 946.975 315.277C946.578 316.859 946.302 317.854 946.146 318.264C946.332 318.203 946.524 318.173 946.723 318.173C946.956 318.173 947.237 318.188 947.565 318.218C947.872 318.248 948.118 318.264 948.304 318.264C948.425 318.264 948.593 318.251 948.809 318.225L948.894 317.856C948.678 317.9 948.477 317.921 948.291 317.921C948.14 317.921 947.941 317.9 947.695 317.856C947.535 317.831 947.431 317.815 947.384 317.811C947.954 315.113 948.587 312.891 949.282 311.145C949.326 311.141 949.457 311.137 949.677 311.133C950.395 311.12 950.911 310.992 951.226 310.751C951.542 310.505 951.699 310.232 951.699 309.93C951.699 309.775 951.656 309.649 951.57 309.555C951.488 309.46 951.382 309.413 951.252 309.413ZM831.066 309.684C830.384 309.684 829.64 310.133 828.837 311.029C828.038 311.926 827.115 313.292 826.07 315.128C825.746 315.697 825.564 316.014 825.526 316.078L825.144 311.204C825.135 311.07 825.13 310.986 825.13 310.952C825.13 310.926 825.135 310.719 825.144 310.331C824.945 310.452 824.664 310.512 824.302 310.512C823.049 310.512 822.083 310.874 821.405 311.598C821.005 312.025 820.727 312.482 820.565 312.968C820.514 312.564 820.407 312.197 820.237 311.869C819.995 311.4 819.654 311.04 819.213 310.79C818.777 310.535 818.286 310.409 817.742 310.409C816.908 310.409 816.174 310.609 815.539 311.01C814.904 311.411 814.368 312.014 813.932 312.82C813.496 313.622 813.278 314.454 813.278 315.316C813.278 316.216 813.55 316.942 814.095 317.494C814.643 318.046 815.36 318.322 816.245 318.322C817.014 318.322 817.714 318.119 818.345 317.714C818.975 317.309 819.509 316.707 819.945 315.91C820.183 315.476 820.353 315.041 820.461 314.604C820.485 314.701 820.513 314.795 820.549 314.882C820.657 315.128 820.811 315.25 821.01 315.25C821.126 315.25 821.225 315.216 821.307 315.147C821.39 315.074 821.431 314.988 821.431 314.889C821.431 314.798 821.39 314.676 821.307 314.52C821.104 314.128 821.003 313.773 821.003 313.454C821.003 312.79 821.292 312.197 821.871 311.676C822.45 311.15 823.154 310.887 823.984 310.887H824.159L824.651 317.552C824.098 318.806 823.513 319.434 822.895 319.434C822.593 319.434 822.254 319.24 821.878 318.852C821.71 318.675 821.552 318.586 821.405 318.586C821.305 318.586 821.217 318.628 821.139 318.71C821.062 318.796 821.023 318.89 821.023 318.994C821.023 319.244 821.163 319.462 821.443 319.647C821.724 319.832 822.066 319.925 822.468 319.925C822.848 319.925 823.241 319.819 823.647 319.608C824.057 319.397 824.513 318.83 825.014 317.908C825.921 316.257 826.664 314.96 827.243 314.016C827.826 313.072 828.372 312.324 828.882 311.773C829.392 311.221 829.766 310.885 830.003 310.764C830.245 310.643 830.565 310.564 830.962 310.525C831.23 310.499 831.416 310.456 831.519 310.395C831.623 310.335 831.675 310.236 831.675 310.098C831.675 309.822 831.472 309.684 831.066 309.684ZM872.542 310.13C872.076 310.13 871.672 310.275 871.331 310.564C870.99 310.853 870.698 311.339 870.456 312.025C870.219 312.706 869.948 313.677 869.646 314.94C869.413 315.927 869.283 316.453 869.257 316.518C869.192 316.35 868.979 315.484 868.616 313.919C868.253 312.355 867.968 311.169 867.76 310.363C867.493 310.428 867.184 310.484 866.834 310.531C865.945 310.652 865.3 310.796 864.903 310.964C864.506 311.128 864.16 311.412 863.867 311.818C863.573 312.223 863.426 312.717 863.426 313.299C863.426 313.63 863.48 313.886 863.588 314.067C863.701 314.244 863.845 314.333 864.022 314.333C864.134 314.333 864.227 314.296 864.3 314.223C864.378 314.149 864.417 314.061 864.417 313.958C864.417 313.876 864.368 313.755 864.269 313.596C864.117 313.35 864.042 313.093 864.042 312.826C864.042 312.443 864.171 312.104 864.43 311.811C864.689 311.518 865.085 311.298 865.616 311.152C866.152 311.001 866.571 310.925 866.873 310.925C866.502 312.981 866.089 314.727 865.635 316.162C865.186 317.593 864.634 318.309 863.977 318.309C863.748 318.309 863.495 318.181 863.219 317.927C863.068 317.785 862.922 317.714 862.784 317.714C862.672 317.714 862.581 317.752 862.512 317.83C862.443 317.903 862.409 317.981 862.409 318.063C862.409 318.274 862.525 318.458 862.759 318.613C862.992 318.768 863.307 318.845 863.705 318.845C864.258 318.845 864.741 318.628 865.156 318.192C865.575 317.761 865.987 316.744 866.394 315.141C866.804 313.538 867.057 312.452 867.152 311.883L867.676 314.132C867.996 315.52 868.214 316.403 868.331 316.783C868.452 317.158 868.624 317.558 868.849 317.985C869.048 318.373 869.171 318.619 869.218 318.722L869.439 317.759C869.707 316.561 869.973 315.449 870.236 314.423C870.504 313.398 870.752 312.609 870.981 312.057C871.21 311.501 871.406 311.16 871.57 311.035C871.735 310.911 871.907 310.848 872.089 310.848C872.231 310.848 872.447 310.906 872.737 311.022C872.84 311.065 872.929 311.087 873.003 311.087C873.11 311.087 873.203 311.046 873.281 310.964C873.363 310.882 873.404 310.788 873.404 310.68C873.404 310.534 873.329 310.406 873.177 310.299C873.031 310.186 872.819 310.13 872.542 310.13ZM771.564 310.331C771.292 310.572 771.031 310.781 770.78 310.958C770.53 311.13 769.843 311.484 768.72 312.018L768.85 312.341C769.623 311.996 770.057 311.824 770.152 311.824C770.277 311.824 770.339 311.899 770.339 312.05C770.339 312.184 770.225 312.759 769.996 313.776L769.297 316.447C769.141 317.02 768.992 317.382 768.85 317.533C768.746 317.649 768.551 317.735 768.266 317.791C767.977 317.852 767.72 317.912 767.495 317.973L767.385 318.296C768.011 318.196 768.592 318.147 769.128 318.147C769.495 318.147 770.143 318.196 771.072 318.296L771.202 317.973C771.016 317.938 770.825 317.912 770.631 317.895C770.372 317.869 770.206 317.834 770.132 317.791C770.059 317.744 770.022 317.684 770.022 317.61C770.022 317.516 770.059 317.333 770.132 317.061L770.877 313.822L771.771 310.331H771.564ZM776.964 310.331C776.691 310.572 776.43 310.781 776.179 310.958C775.928 311.13 775.242 311.484 774.119 312.018L774.248 312.341C775.022 311.996 775.456 311.824 775.551 311.824C775.676 311.824 775.739 311.899 775.739 312.05C775.739 312.184 775.624 312.759 775.395 313.776L774.695 316.447C774.54 317.02 774.391 317.382 774.248 317.533C774.145 317.649 773.95 317.735 773.665 317.791C773.376 317.852 773.119 317.912 772.894 317.973L772.784 318.296C773.411 318.196 773.991 318.147 774.527 318.147C774.894 318.147 775.542 318.196 776.471 318.296L776.6 317.973C776.415 317.938 776.225 317.912 776.031 317.895C775.771 317.869 775.605 317.834 775.531 317.791C775.458 317.744 775.421 317.684 775.421 317.61C775.421 317.516 775.458 317.333 775.531 317.061L776.276 313.822L777.17 310.331H776.964ZM891.237 310.382C890.783 310.382 890.372 310.514 890.005 310.777C889.642 311.036 889.291 311.503 888.949 312.18L889.28 312.341C889.543 311.863 889.798 311.531 890.044 311.346C890.295 311.16 890.55 311.068 890.809 311.068C891.12 311.068 891.381 311.184 891.593 311.417C891.805 311.65 891.91 311.96 891.91 312.348C891.91 312.607 891.855 312.874 891.742 313.15C891.595 313.52 891.359 313.915 891.036 314.333C890.811 314.621 890.312 315.128 889.539 315.852C888.757 316.584 888.17 317.242 887.777 317.824L887.647 318.231C888.511 318.175 889.165 318.147 889.61 318.147C889.986 318.147 890.344 318.16 890.686 318.186C891.027 318.216 891.351 318.259 891.658 318.315C891.917 317.612 892.221 317.02 892.571 316.538H892.124C891.856 316.956 891.664 317.201 891.548 317.275C891.431 317.348 891.215 317.377 890.899 317.365C890.757 317.36 890.588 317.358 890.394 317.358C889.794 317.358 889.211 317.371 888.645 317.397C889.068 316.841 889.803 316.111 890.848 315.206C891.626 314.542 892.101 314.104 892.273 313.893C892.541 313.574 892.734 313.268 892.85 312.975C892.967 312.682 893.025 312.393 893.025 312.109C893.025 311.647 892.863 311.245 892.539 310.9C892.215 310.555 891.781 310.382 891.237 310.382ZM912.228 310.382C911.52 310.382 910.794 310.637 910.051 311.146C909.308 311.654 908.689 312.376 908.192 313.311C907.699 314.246 907.453 315.186 907.453 316.13C907.453 316.807 907.574 317.391 907.815 317.882C908.057 318.373 908.397 318.75 908.833 319.013C909.27 319.28 909.743 319.414 910.252 319.414C910.676 319.414 911.105 319.3 911.541 319.071C911.978 318.847 912.339 318.565 912.624 318.225C912.913 317.884 913.058 317.655 913.058 317.539C913.058 317.492 913.038 317.451 912.999 317.417C912.96 317.378 912.913 317.358 912.857 317.358C912.788 317.358 912.72 317.404 912.656 317.494C912.025 318.399 911.332 318.852 910.576 318.852C910.019 318.852 909.555 318.613 909.183 318.134C908.816 317.651 908.632 316.96 908.632 316.059C908.632 315.128 908.831 314.223 909.228 313.343C909.626 312.46 910.101 311.812 910.653 311.398C911.206 310.98 911.74 310.77 912.254 310.77C912.639 310.77 912.956 310.891 913.207 311.132C913.462 311.369 913.589 311.792 913.589 312.399C913.589 312.602 913.578 312.872 913.557 313.208H913.907C913.937 312.419 914.075 311.654 914.321 310.913C913.539 310.641 913.094 310.493 912.986 310.467C912.736 310.411 912.483 310.382 912.228 310.382ZM807.08 310.389C806.614 310.514 806.097 310.576 805.531 310.576H803.348C802.117 310.576 801.205 310.936 800.613 311.656C800.026 312.376 799.733 313.173 799.733 314.048C799.733 314.466 799.788 314.787 799.9 315.011C800.013 315.235 800.16 315.347 800.341 315.347C800.626 315.347 800.769 315.227 800.769 314.986C800.769 314.9 800.709 314.755 800.588 314.552C800.415 314.255 800.328 313.906 800.328 313.505C800.328 312.914 800.545 312.363 800.977 311.85C801.413 311.333 802.048 311.048 802.882 310.997L802 314.468C801.672 315.735 801.441 316.55 801.307 316.912C801.173 317.274 801.037 317.509 800.899 317.617C800.765 317.724 800.499 317.821 800.102 317.907L800.017 318.264C800.479 318.186 800.926 318.147 801.358 318.147C801.57 318.147 801.823 318.157 802.116 318.179C802.618 318.209 802.916 318.224 803.011 318.224C803.127 318.224 803.247 318.215 803.367 318.198L803.477 317.83C803.313 317.86 803.136 317.875 802.946 317.875C802.657 317.875 802.348 317.847 802.019 317.791C802.192 317.377 802.493 316.373 802.92 314.778C803.348 313.179 803.669 311.919 803.885 310.996H805.181C805.747 310.996 806.099 311.022 806.237 311.074C806.376 311.126 806.445 311.24 806.445 311.417C806.445 311.533 806.411 311.768 806.342 312.121H806.408C805.97 312.742 805.747 313.388 805.747 314.061C805.747 314.44 805.803 314.752 805.915 314.998C806.032 315.239 806.19 315.36 806.389 315.36C806.652 315.36 806.784 315.246 806.784 315.017C806.784 314.931 806.721 314.774 806.596 314.546C806.431 314.235 806.35 313.921 806.35 313.602C806.35 312.955 806.63 312.363 807.192 311.824C807.758 311.281 808.458 311.007 809.291 311.003L807.931 316.298C807.792 316.841 807.635 317.238 807.458 317.488C807.281 317.733 806.937 317.869 806.428 317.895L806.323 318.25C806.639 318.181 807.03 318.147 807.497 318.147C807.786 318.147 808.065 318.153 808.333 318.166C808.881 318.201 809.241 318.218 809.414 318.218C810.243 318.218 811 317.951 811.682 317.416C812.365 316.877 812.706 316.222 812.706 315.451C812.706 314.908 812.514 314.501 812.129 314.229C811.749 313.958 811.281 313.822 810.723 313.822C810.46 313.822 810.06 313.845 809.524 313.892C809.628 313.427 809.76 312.914 809.919 312.354C810.135 311.608 810.261 311.158 810.296 311.003H811.591C812.148 311.003 812.498 311.028 812.641 311.08C812.783 311.128 812.855 311.244 812.855 311.429C812.855 311.537 812.82 311.768 812.751 312.121H813.095C813.125 311.893 813.257 311.317 813.49 310.395C813.006 310.52 812.488 310.583 811.935 310.583H809.447C808.324 310.583 807.436 310.943 806.78 311.659C806.846 311.356 806.938 310.964 807.08 310.389ZM792.057 310.395C791.573 310.52 791.055 310.583 790.502 310.583H788.014C786.865 310.583 785.96 310.958 785.299 311.708C784.642 312.453 784.314 313.238 784.314 314.061C784.314 314.44 784.37 314.752 784.483 314.998C784.599 315.239 784.757 315.36 784.955 315.36C785.219 315.36 785.351 315.246 785.351 315.017C785.351 314.931 785.288 314.774 785.163 314.546C784.999 314.235 784.917 313.921 784.917 313.602C784.917 312.955 785.198 312.363 785.759 311.824C786.325 311.281 787.025 311.007 787.859 311.003L786.498 316.298C786.36 316.841 786.202 317.238 786.024 317.488C785.847 317.733 785.504 317.869 784.994 317.895L784.891 318.25C785.206 318.181 785.597 318.147 786.063 318.147C786.353 318.147 786.631 318.153 786.899 318.166C787.448 318.201 787.809 318.218 787.981 318.218C788.811 318.218 789.567 317.951 790.249 317.416C790.932 316.877 791.273 316.222 791.273 315.451C791.273 314.908 791.081 314.501 790.697 314.229C790.316 313.958 789.847 313.822 789.29 313.822C789.027 313.822 788.628 313.845 788.092 313.892C788.196 313.427 788.327 312.914 788.487 312.354C788.703 311.608 788.828 311.158 788.862 311.003H790.159C790.716 311.003 791.066 311.028 791.208 311.08C791.351 311.128 791.422 311.244 791.422 311.429C791.422 311.537 791.388 311.768 791.319 312.121H791.662C791.692 311.893 791.824 311.318 792.057 310.395ZM782.384 310.401C782.25 310.401 782.135 310.457 782.04 310.57C781.95 310.677 781.867 310.904 781.794 311.248L781.295 313.731C781.274 313.843 781.321 313.899 781.438 313.899C781.524 313.899 781.594 313.822 781.645 313.666L782.526 311.138C782.613 310.884 782.656 310.729 782.656 310.673C782.656 310.587 782.632 310.52 782.585 310.473C782.537 310.425 782.47 310.401 782.384 310.401ZM784.062 310.401C783.932 310.401 783.82 310.457 783.725 310.57C783.63 310.677 783.548 310.904 783.479 311.248L782.973 313.731C782.952 313.843 782.999 313.899 783.116 313.899C783.202 313.899 783.271 313.822 783.323 313.666L784.204 311.138C784.291 310.884 784.334 310.729 784.334 310.673C784.334 310.587 784.31 310.52 784.263 310.473C784.215 310.425 784.148 310.401 784.062 310.401ZM793.824 310.401C793.69 310.401 793.575 310.457 793.48 310.57C793.39 310.677 793.307 310.904 793.234 311.248L792.735 313.731C792.714 313.843 792.761 313.899 792.878 313.899C792.964 313.899 793.034 313.822 793.085 313.666L793.966 311.138C794.053 310.884 794.096 310.729 794.096 310.673C794.096 310.587 794.072 310.52 794.025 310.473C793.977 310.425 793.91 310.401 793.824 310.401ZM795.502 310.401C795.372 310.401 795.26 310.457 795.165 310.57C795.07 310.677 794.988 310.904 794.919 311.248L794.413 313.731C794.392 313.843 794.439 313.899 794.556 313.899C794.642 313.899 794.711 313.822 794.763 313.666L795.644 311.138C795.731 310.884 795.774 310.729 795.774 310.673C795.774 310.587 795.75 310.52 795.703 310.473C795.655 310.425 795.588 310.401 795.502 310.401ZM880.483 310.414C880.095 310.414 879.712 310.535 879.337 310.777C879.129 310.91 878.805 311.227 878.365 311.727L878.631 311.914C879.075 311.367 879.544 311.093 880.036 311.093C880.27 311.093 880.454 311.169 880.588 311.32C880.726 311.471 880.794 311.679 880.794 311.947C880.794 312.3 880.639 312.649 880.328 312.994C879.887 313.485 879.391 313.828 878.838 314.022L878.792 314.423C879.073 314.324 879.324 314.274 879.544 314.274C879.847 314.274 880.093 314.379 880.283 314.591C880.477 314.798 880.574 315.076 880.574 315.425C880.574 316.123 880.268 316.761 879.655 317.339C879.24 317.735 878.864 317.934 878.527 317.934C878.41 317.934 878.276 317.896 878.125 317.823C878.017 317.772 877.853 317.64 877.633 317.429C877.464 317.27 877.315 317.19 877.186 317.19C877.091 317.19 877.007 317.226 876.933 317.3C876.864 317.369 876.829 317.451 876.829 317.546C876.829 317.774 876.965 317.965 877.237 318.121C877.514 318.276 877.823 318.353 878.164 318.353C878.924 318.353 879.665 318.048 880.386 317.436C881.229 316.72 881.65 315.946 881.65 315.114C881.65 314.808 881.591 314.546 881.475 314.326C881.362 314.102 881.216 313.936 881.035 313.828C880.853 313.72 880.588 313.657 880.238 313.64C881.257 312.886 881.766 312.173 881.766 311.501C881.766 311.182 881.652 310.921 881.423 310.719C881.194 310.516 880.881 310.414 880.483 310.414ZM885.883 310.414C885.494 310.414 885.112 310.535 884.736 310.777C884.529 310.91 884.205 311.227 883.764 311.727L884.029 311.914C884.474 311.367 884.944 311.093 885.436 311.093C885.669 311.093 885.853 311.169 885.986 311.32C886.125 311.471 886.194 311.679 886.194 311.947C886.194 312.3 886.039 312.649 885.728 312.994C885.287 313.485 884.79 313.828 884.237 314.022L884.192 314.423C884.473 314.324 884.723 314.274 884.943 314.274C885.245 314.274 885.492 314.379 885.682 314.591C885.876 314.798 885.973 315.076 885.973 315.425C885.973 316.123 885.667 316.761 885.053 317.339C884.639 317.735 884.263 317.934 883.926 317.934C883.809 317.934 883.675 317.896 883.524 317.823C883.416 317.772 883.252 317.64 883.032 317.429C882.863 317.27 882.714 317.19 882.585 317.19C882.49 317.19 882.406 317.226 882.332 317.3C882.263 317.369 882.229 317.451 882.229 317.546C882.229 317.774 882.365 317.965 882.637 318.121C882.913 318.276 883.222 318.353 883.563 318.353C884.323 318.353 885.064 318.048 885.786 317.436C886.628 316.72 887.049 315.946 887.049 315.114C887.049 314.808 886.991 314.546 886.874 314.326C886.762 314.102 886.615 313.936 886.434 313.828C886.252 313.72 885.986 313.657 885.637 313.64C886.656 312.886 887.166 312.173 887.166 311.501C887.166 311.182 887.051 310.921 886.822 310.719C886.593 310.516 886.28 310.414 885.883 310.414ZM817.269 310.874C817.87 310.874 818.375 311.121 818.785 311.617C819.2 312.108 819.407 312.796 819.407 313.679C819.407 314.532 819.271 315.289 818.999 315.948C818.731 316.603 818.388 317.084 817.969 317.39C817.554 317.696 817.114 317.849 816.647 317.849C816.021 317.849 815.498 317.593 815.079 317.08C814.66 316.563 814.451 315.83 814.451 314.882C814.451 314.054 814.585 313.328 814.853 312.703C815.12 312.074 815.464 311.613 815.883 311.32C816.306 311.022 816.768 310.874 817.269 310.874ZM587.787 311.469C590.042 312.699 590.015 314.648 589.079 315.952C588.515 316.739 587.509 317.291 586.817 317.424C585.257 317.725 584.178 317.395 583.536 316.738C583.656 315.828 584.073 314.9 584.756 314.003C585.583 312.923 586.63 312.098 587.787 311.469ZM844.982 312.445C844.667 312.445 844.341 312.557 844.004 312.781C843.672 313 843.197 313.492 842.579 314.255C842.251 314.656 841.976 314.938 841.756 315.102L842.144 313.337C842.201 313.091 842.229 312.944 842.229 312.897C842.229 312.763 842.142 312.697 841.97 312.697C841.784 312.697 841.482 312.802 841.063 313.013C840.644 313.22 840.218 313.558 839.786 314.028L839.987 314.255C840.488 313.729 840.829 313.466 841.011 313.466C841.106 313.466 841.153 313.516 841.153 313.615C841.153 313.83 840.942 314.761 840.519 316.408L840.065 318.147H841.043L841.697 315.354C841.991 315.513 842.205 315.695 842.339 315.897C842.477 316.1 842.622 316.42 842.773 316.86C843.309 318.39 843.838 319.403 844.36 319.899C844.887 320.399 845.475 320.649 846.123 320.649C846.568 320.649 846.935 320.53 847.225 320.293C847.518 320.06 847.665 319.782 847.665 319.459C847.665 319.299 847.622 319.17 847.536 319.071C847.454 318.976 847.35 318.929 847.225 318.929C847.117 318.929 847.023 318.968 846.946 319.045C846.872 319.127 846.836 319.216 846.836 319.311C846.836 319.371 846.857 319.459 846.901 319.575C846.948 319.705 846.972 319.795 846.972 319.847C846.972 319.95 846.896 320.045 846.745 320.131C846.598 320.218 846.436 320.261 846.259 320.261C845.844 320.261 845.49 320.099 845.196 319.776C844.903 319.457 844.594 318.903 844.27 318.114C843.821 317.011 843.486 316.319 843.266 316.039C843.05 315.759 842.648 315.481 842.06 315.205C842.238 315.076 842.518 314.796 842.903 314.365C843.304 313.921 843.631 313.627 843.881 313.485C844.132 313.339 844.385 313.266 844.639 313.266C844.687 313.266 844.758 313.27 844.853 313.279L845.034 313.285C845.367 313.285 845.534 313.147 845.534 312.871C845.534 312.587 845.35 312.445 844.982 312.445ZM929.754 312.445C929.439 312.445 929.113 312.557 928.776 312.781C928.443 313 927.968 313.492 927.35 314.255C927.022 314.656 926.748 314.938 926.528 315.102L926.916 313.337C926.972 313.091 927 312.944 927 312.897C927 312.763 926.914 312.697 926.741 312.697C926.556 312.697 926.253 312.802 925.834 313.013C925.415 313.22 924.99 313.558 924.558 314.028L924.759 314.255C925.26 313.729 925.601 313.466 925.783 313.466C925.878 313.466 925.925 313.516 925.925 313.615C925.925 313.83 925.713 314.761 925.29 316.408L924.836 318.147H925.815L926.469 315.354C926.763 315.513 926.977 315.695 927.111 315.897C927.249 316.1 927.393 316.42 927.545 316.86C928.08 318.39 928.61 319.403 929.132 319.899C929.659 320.399 930.247 320.649 930.895 320.649C931.34 320.649 931.706 320.53 931.996 320.293C932.29 320.06 932.437 319.782 932.437 319.459C932.437 319.299 932.393 319.17 932.307 319.071C932.225 318.976 932.121 318.929 931.996 318.929C931.888 318.929 931.795 318.968 931.717 319.045C931.644 319.127 931.607 319.216 931.607 319.311C931.607 319.371 931.629 319.459 931.672 319.575C931.72 319.705 931.743 319.795 931.743 319.847C931.743 319.95 931.668 320.045 931.517 320.131C931.37 320.218 931.208 320.261 931.031 320.261C930.616 320.261 930.262 320.099 929.968 319.776C929.674 319.457 929.365 318.903 929.041 318.114C928.592 317.011 928.258 316.319 928.037 316.039C927.821 315.759 927.42 315.481 926.832 315.205C927.009 315.076 927.29 314.796 927.674 314.365C928.076 313.921 928.402 313.627 928.653 313.485C928.903 313.339 929.156 313.266 929.411 313.266C929.458 313.266 929.529 313.27 929.624 313.279L929.806 313.285C930.139 313.285 930.305 313.147 930.305 312.871C930.305 312.587 930.121 312.445 929.754 312.445ZM860.17 312.509L859.742 312.6L859.587 312.851C859.444 312.834 859.304 312.826 859.165 312.826C858.617 312.826 858.168 312.908 857.818 313.072C857.364 313.287 856.932 313.623 856.522 314.08C856.111 314.537 855.783 315.046 855.537 315.606C855.295 316.166 855.174 316.674 855.174 317.131C855.174 317.14 855.174 317.148 855.174 317.157C855.126 317.2 855.116 317.205 855.06 317.255C854.793 317.496 854.601 317.616 854.484 317.616C854.255 317.616 854.115 317.323 854.063 316.737L853.804 313.628C853.769 313.249 853.721 313.003 853.661 312.891C853.605 312.774 853.484 312.716 853.298 312.716C852.806 312.716 852.104 313.136 851.192 313.977L851.471 314.203C851.99 313.69 852.38 313.434 852.644 313.434C852.765 313.434 852.825 313.5 852.825 313.634C852.825 313.737 852.616 314.274 852.197 315.244C851.782 316.214 851.471 316.802 851.264 317.009C851.056 317.216 850.844 317.319 850.628 317.319C850.538 317.319 850.415 317.289 850.259 317.228C850.099 317.164 849.978 317.131 849.896 317.131C849.741 317.131 849.607 317.188 849.495 317.3C849.387 317.408 849.332 317.548 849.332 317.72C849.332 317.901 849.398 318.045 849.527 318.153C849.661 318.265 849.832 318.321 850.039 318.321C850.523 318.321 850.97 318.093 851.38 317.636C851.791 317.179 852.307 316.119 852.929 314.455L853.194 317.158C853.246 317.684 853.333 318.009 853.454 318.134C853.579 318.259 853.709 318.321 853.843 318.321C854.209 318.321 854.669 318.07 855.224 317.569C855.268 317.757 855.339 317.924 855.445 318.062C855.579 318.239 855.771 318.328 856.021 318.328C856.285 318.328 856.574 318.229 856.89 318.031C857.404 317.712 857.846 317.33 858.218 316.886L857.959 317.765C857.924 317.877 857.907 317.966 857.907 318.031C857.907 318.13 857.935 318.205 857.991 318.256C858.048 318.308 858.132 318.334 858.244 318.334C858.4 318.334 858.559 318.304 858.723 318.244C858.974 318.153 859.237 318.013 859.514 317.823C859.652 317.729 859.968 317.457 860.46 317.009L860.252 316.757C860.006 316.994 859.749 317.192 859.481 317.352C859.33 317.442 859.22 317.487 859.151 317.487C859.043 317.487 858.989 317.42 858.989 317.287C858.989 317.153 859.036 316.856 859.131 316.394C859.304 315.545 859.488 314.795 859.683 314.145L860.17 312.509ZM918.619 312.509L918.191 312.6L918.036 312.851C917.893 312.834 917.753 312.826 917.614 312.826C917.066 312.826 916.617 312.908 916.267 313.072C915.813 313.287 915.381 313.623 914.971 314.08C914.56 314.537 914.233 315.046 913.986 315.606C913.745 316.166 913.623 316.674 913.623 317.131C913.623 317.515 913.714 317.825 913.895 318.062C914.029 318.239 914.222 318.328 914.472 318.328C914.736 318.328 915.025 318.229 915.34 318.03C915.854 317.711 916.297 317.33 916.669 316.886L916.409 317.765C916.375 317.877 916.358 317.966 916.358 318.03C916.358 318.13 916.386 318.205 916.442 318.256C916.498 318.308 916.582 318.334 916.695 318.334C916.85 318.334 917.01 318.304 917.174 318.244C917.425 318.153 917.688 318.013 917.964 317.823C918.103 317.728 918.418 317.457 918.911 317.009L918.703 316.757C918.457 316.994 918.2 317.192 917.932 317.352C917.781 317.442 917.671 317.487 917.602 317.487C917.494 317.487 917.439 317.42 917.439 317.286C917.439 317.153 917.487 316.855 917.582 316.394C917.755 315.545 917.939 314.795 918.133 314.144L918.619 312.509ZM967.659 312.677C967.374 312.677 967.037 312.789 966.648 313.013C966.26 313.238 965.868 313.585 965.475 314.055L965.728 314.313C966.264 313.757 966.626 313.479 966.817 313.479C966.924 313.479 966.979 313.535 966.979 313.647C966.979 313.751 966.869 314.259 966.648 315.172L965.475 320.08C965.385 320.454 965.264 320.716 965.113 320.862C964.966 321.009 964.728 321.099 964.4 321.134L964.316 321.457C964.968 321.401 965.5 321.373 965.91 321.373C966.307 321.373 966.853 321.4 967.549 321.457L967.633 321.134C967.037 321.065 966.646 320.976 966.46 320.868C966.339 320.8 966.279 320.685 966.279 320.526C966.279 320.444 966.296 320.338 966.331 320.209L966.882 318.076C967.193 318.244 967.504 318.328 967.815 318.328C968.605 318.328 969.326 317.858 969.979 316.918C970.631 315.978 970.957 314.987 970.957 313.944C970.957 313.526 970.882 313.214 970.73 313.007C970.579 312.8 970.393 312.697 970.173 312.697C969.836 312.697 969.465 312.828 969.059 313.091C968.817 313.246 968.365 313.653 967.704 314.313C967.851 313.822 967.937 313.511 967.963 313.382C967.994 313.248 968.009 313.119 968.009 312.994C968.009 312.891 967.977 312.813 967.912 312.761C967.852 312.705 967.767 312.677 967.659 312.677ZM982.872 312.677C982.587 312.677 982.25 312.789 981.861 313.013C981.526 313.206 981.191 313.496 980.853 313.87C980.874 313.689 980.887 313.515 980.887 313.356C980.887 313.141 980.84 312.975 980.745 312.858C980.654 312.742 980.533 312.684 980.382 312.684C980.261 312.684 980.16 312.724 980.078 312.806C980 312.888 979.961 312.992 979.961 313.117C979.961 313.246 980 313.462 980.078 313.764C980.151 314.035 980.187 314.252 980.187 314.416C980.187 315.205 979.822 316.27 979.092 317.61C979.101 317.408 979.106 317.257 979.106 317.158C979.106 316.395 978.976 315.608 978.717 314.798C978.458 313.983 978.138 313.337 977.758 312.858C977.675 312.755 977.589 312.703 977.499 312.703C977.408 312.703 977.309 312.729 977.201 312.781C977.011 312.871 976.682 313.076 976.216 313.395L975.736 313.718L975.944 314.022C976.337 313.737 976.639 313.595 976.851 313.595C977.032 313.595 977.203 313.71 977.363 313.938C977.682 314.382 977.928 315.024 978.101 315.865C978.278 316.705 978.367 317.425 978.367 318.024C978.367 318.45 978.248 318.873 978.01 319.291C977.777 319.709 977.46 320.069 977.058 320.37C976.764 320.59 976.485 320.7 976.222 320.7C976.123 320.7 975.937 320.67 975.665 320.61C975.41 320.554 975.209 320.526 975.063 320.526C974.873 320.526 974.721 320.571 974.609 320.661C974.496 320.756 974.441 320.869 974.441 320.998C974.441 321.145 974.514 321.269 974.661 321.373C974.803 321.48 975.017 321.534 975.302 321.534C975.678 321.534 976.075 321.433 976.494 321.231C976.917 321.033 977.354 320.7 977.803 320.235C978.257 319.773 978.756 319.067 979.3 318.114C979.849 317.158 980.25 316.265 980.505 315.438C980.648 314.973 980.746 314.556 980.809 314.177L980.941 314.313C981.477 313.757 981.84 313.479 982.03 313.479C982.138 313.479 982.192 313.535 982.192 313.647C982.192 313.751 982.081 314.259 981.861 315.172L980.689 320.08C980.598 320.454 980.477 320.716 980.325 320.862C980.179 321.009 979.941 321.099 979.613 321.134L979.529 321.457C980.181 321.401 980.712 321.373 981.122 321.373C981.52 321.373 982.066 321.4 982.762 321.457L982.846 321.134C982.25 321.065 981.859 320.976 981.673 320.868C981.552 320.8 981.492 320.685 981.492 320.526C981.492 320.444 981.509 320.338 981.544 320.209L982.094 318.076C982.405 318.244 982.716 318.328 983.027 318.328C983.818 318.328 984.539 317.858 985.191 316.918C985.844 315.978 986.17 314.987 986.17 313.944C986.17 313.526 986.094 313.214 985.943 313.007C985.792 312.8 985.606 312.697 985.386 312.697C985.049 312.697 984.677 312.828 984.271 313.091C984.029 313.246 983.578 313.653 982.917 314.313C983.064 313.822 983.151 313.511 983.177 313.382C983.207 313.248 983.222 313.119 983.222 312.994C983.222 312.891 983.19 312.813 983.125 312.761C983.064 312.705 982.98 312.677 982.872 312.677ZM932.101 312.69C931.881 312.69 931.579 312.791 931.195 312.994C930.81 313.197 930.404 313.512 929.976 313.938L930.171 314.197C930.689 313.705 931.032 313.46 931.201 313.46C931.279 313.46 931.318 313.509 931.318 313.608C931.318 313.686 931.209 314.171 930.993 315.063L930.262 318.147H931.188L931.687 315.962C931.821 315.375 931.981 314.94 932.167 314.656C932.357 314.367 932.665 314.07 933.093 313.764C933.339 313.583 933.52 313.492 933.637 313.492C933.702 313.492 933.752 313.511 933.786 313.55C933.821 313.585 933.838 313.636 933.838 313.705C933.838 313.749 933.803 313.912 933.734 314.197L932.769 318.147H933.689C933.832 317.475 934.047 316.606 934.337 315.541C934.466 315.054 934.618 314.698 934.791 314.474C935.041 314.151 935.352 313.878 935.724 313.653C935.905 313.546 936.05 313.492 936.158 313.492C936.287 313.492 936.352 313.565 936.352 313.712C936.352 313.867 936.242 314.308 936.022 315.037C935.728 316.007 935.551 316.632 935.491 316.912C935.43 317.188 935.4 317.429 935.4 317.636C935.4 317.86 935.45 318.034 935.549 318.159C935.648 318.289 935.762 318.353 935.892 318.353C936.065 318.353 936.276 318.28 936.527 318.134C936.657 318.056 936.894 317.862 937.24 317.552C937.491 317.323 937.661 317.173 937.752 317.1L937.538 316.867C937.27 317.134 937.009 317.358 936.754 317.539C936.676 317.59 936.596 317.616 936.514 317.616C936.393 317.616 936.333 317.543 936.333 317.397C936.333 317.181 936.503 316.515 936.844 315.399C937.116 314.498 937.275 313.96 937.318 313.783C937.361 313.606 937.382 313.453 937.382 313.324C937.382 313.108 937.332 312.949 937.233 312.845C937.134 312.742 936.994 312.69 936.812 312.69C936.609 312.69 936.326 312.798 935.963 313.013C935.6 313.225 935.173 313.587 934.68 314.1C934.81 313.664 934.875 313.356 934.875 313.175C934.875 313.007 934.838 312.884 934.764 312.806C934.691 312.729 934.583 312.69 934.441 312.69C933.892 312.69 933.099 313.216 932.063 314.268C932.101 314.057 932.171 313.77 932.27 313.408C932.339 313.162 932.374 312.996 932.374 312.91C932.374 312.841 932.35 312.787 932.303 312.748C932.259 312.709 932.192 312.69 932.101 312.69ZM955.85 312.69C955.63 312.69 955.327 312.791 954.943 312.994C954.558 313.197 954.152 313.512 953.724 313.938L953.919 314.197C954.437 313.705 954.78 313.46 954.949 313.46C955.027 313.46 955.065 313.509 955.065 313.608C955.065 313.686 954.958 314.171 954.742 315.063L954.01 318.147H954.936L955.435 315.962C955.569 315.375 955.729 314.94 955.914 314.656C956.105 314.367 956.414 314.07 956.841 313.764C957.087 313.583 957.269 313.492 957.386 313.492C957.45 313.492 957.5 313.511 957.534 313.55C957.569 313.585 957.586 313.636 957.586 313.705C957.586 313.749 957.552 313.912 957.483 314.197L956.517 318.147H957.437C957.579 317.475 957.796 316.606 958.085 315.541C958.215 315.054 958.366 314.698 958.539 314.474C958.789 314.151 959.1 313.878 959.472 313.653C959.653 313.546 959.798 313.492 959.906 313.492C960.035 313.492 960.1 313.565 960.1 313.712C960.1 313.867 959.99 314.308 959.769 315.037C959.476 316.007 959.299 316.632 959.238 316.912C959.178 317.188 959.147 317.429 959.147 317.636C959.147 317.86 959.197 318.034 959.297 318.159C959.396 318.289 959.511 318.353 959.64 318.353C959.813 318.353 960.024 318.28 960.275 318.134C960.404 318.056 960.642 317.862 960.988 317.552C961.238 317.323 961.409 317.173 961.499 317.1L961.286 316.867C961.018 317.134 960.757 317.358 960.502 317.539C960.424 317.59 960.344 317.616 960.262 317.616C960.141 317.616 960.081 317.543 960.081 317.397C960.081 317.181 960.252 316.515 960.593 315.399C960.865 314.498 961.022 313.96 961.066 313.783C961.109 313.606 961.13 313.453 961.13 313.324C961.13 313.108 961.081 312.949 960.982 312.845C960.882 312.742 960.742 312.69 960.56 312.69C960.357 312.69 960.074 312.798 959.711 313.013C959.348 313.225 958.921 313.587 958.428 314.1C958.558 313.664 958.623 313.356 958.623 313.175C958.623 313.007 958.586 312.884 958.513 312.806C958.44 312.729 958.331 312.69 958.189 312.69C957.64 312.69 956.848 313.216 955.811 314.268C955.85 314.057 955.919 313.77 956.018 313.408C956.087 313.162 956.122 312.996 956.122 312.91C956.122 312.841 956.098 312.787 956.051 312.748C956.007 312.709 955.941 312.69 955.85 312.69ZM961.499 317.1C961.51 317.508 961.586 317.812 961.735 318.004C961.899 318.211 962.135 318.315 962.442 318.315C963.197 318.315 964.105 317.813 965.163 316.809L964.948 316.524C964.4 316.933 963.983 317.205 963.698 317.339C963.486 317.438 963.292 317.488 963.115 317.488C962.929 317.488 962.787 317.427 962.687 317.306C962.592 317.185 962.545 316.972 962.545 316.666C962.545 316.455 962.564 316.233 962.603 316C963.424 315.63 963.96 315.373 964.21 315.231C964.711 314.938 965.059 314.656 965.253 314.384C965.448 314.113 965.545 313.837 965.545 313.557C965.545 313.289 965.463 313.08 965.299 312.93C965.139 312.775 964.906 312.697 964.599 312.697C963.722 312.697 962.968 313.216 962.337 314.255C961.776 315.168 961.495 316.086 961.495 317.009C961.495 317.041 961.499 317.068 961.499 317.1ZM901 312.697C900.573 312.697 900.199 312.794 899.879 312.988C899.56 313.177 899.4 313.375 899.4 313.582C899.4 313.785 899.519 313.886 899.756 313.886C899.925 313.886 900.134 313.787 900.385 313.589C900.769 313.274 901.052 313.117 901.234 313.117C901.467 313.117 901.584 313.238 901.584 313.479C901.584 313.699 901.473 313.919 901.253 314.138C901.033 314.354 900.577 314.684 899.886 315.128C899.169 315.589 898.681 315.966 898.421 316.259C898.162 316.552 898.033 316.881 898.033 317.248C898.033 317.963 898.519 318.321 899.49 318.321C900.017 318.321 900.488 318.179 900.903 317.895C901.322 317.61 901.531 317.328 901.531 317.048C901.531 316.802 901.413 316.679 901.175 316.679C901.011 316.679 900.877 316.724 900.773 316.815C900.67 316.901 900.556 317.069 900.43 317.319C900.314 317.548 900.191 317.711 900.061 317.81C899.931 317.905 899.754 317.953 899.529 317.953C899.033 317.953 898.784 317.767 898.784 317.397C898.784 317.19 898.877 317 899.063 316.828C899.253 316.656 899.722 316.341 900.469 315.884C901.26 315.401 901.75 314.989 901.94 314.649C902.134 314.304 902.231 313.979 902.231 313.673C902.231 313.375 902.124 313.138 901.908 312.962C901.692 312.785 901.389 312.697 901 312.697ZM952.712 312.697C951.835 312.697 951.081 313.216 950.45 314.255C949.889 315.168 949.608 316.086 949.608 317.009C949.608 317.466 949.688 317.797 949.848 318.004C950.012 318.211 950.248 318.315 950.554 318.315C951.31 318.315 952.217 317.813 953.276 316.809L953.062 316.524C952.513 316.933 952.096 317.205 951.811 317.339C951.599 317.438 951.405 317.488 951.228 317.488C951.042 317.488 950.9 317.427 950.8 317.306C950.705 317.185 950.658 316.972 950.658 316.666C950.658 316.455 950.677 316.233 950.716 316C951.537 315.63 952.073 315.373 952.323 315.231C952.824 314.938 953.172 314.656 953.366 314.384C953.56 314.113 953.658 313.837 953.658 313.557C953.658 313.289 953.576 313.08 953.412 312.93C953.252 312.775 953.019 312.697 952.712 312.697ZM989.055 312.697C988.627 312.697 988.254 312.794 987.934 312.988C987.614 313.177 987.455 313.375 987.455 313.582C987.455 313.785 987.573 313.886 987.811 313.886C987.98 313.886 988.189 313.787 988.439 313.589C988.824 313.274 989.107 313.117 989.288 313.117C989.522 313.117 989.638 313.238 989.638 313.479C989.638 313.699 989.528 313.919 989.308 314.138C989.088 314.354 988.632 314.684 987.941 315.128C987.224 315.589 986.735 315.966 986.476 316.259C986.217 316.552 986.087 316.881 986.087 317.248C986.087 317.963 986.573 318.321 987.545 318.321C988.072 318.321 988.543 318.179 988.958 317.895C989.377 317.61 989.586 317.328 989.586 317.048C989.586 316.802 989.468 316.679 989.23 316.679C989.066 316.679 988.932 316.724 988.828 316.815C988.724 316.901 988.61 317.069 988.485 317.319C988.369 317.548 988.245 317.711 988.116 317.81C987.986 317.905 987.809 317.953 987.584 317.953C987.087 317.953 986.839 317.767 986.839 317.397C986.839 317.19 986.932 317 987.118 316.828C987.308 316.656 987.777 316.341 988.524 315.884C989.315 315.401 989.804 314.989 989.994 314.649C990.189 314.304 990.286 313.979 990.286 313.673C990.286 313.375 990.178 313.138 989.962 312.962C989.746 312.785 989.444 312.697 989.055 312.697ZM848.438 312.709C847.466 312.709 846.654 313.186 846.002 314.138C845.483 314.906 845.224 315.742 845.224 316.647C845.224 317.168 845.365 317.58 845.645 317.882C845.93 318.183 846.304 318.334 846.767 318.334C847.518 318.334 848.231 317.955 848.905 317.197C849.579 316.434 849.916 315.574 849.916 314.617C849.916 314.018 849.775 313.55 849.494 313.214C849.213 312.878 848.862 312.709 848.438 312.709ZM833.901 312.716C833.439 312.716 832.754 313.136 831.847 313.977L832.132 314.203C832.608 313.737 832.942 313.504 833.136 313.504C833.223 313.504 833.266 313.565 833.266 313.686C833.266 313.893 833.122 314.515 832.832 315.554C832.508 316.709 832.346 317.435 832.346 317.733C832.346 318.146 832.512 318.353 832.845 318.353C833.095 318.353 833.454 318.185 833.921 317.849C834.392 317.513 834.741 317.186 834.97 316.867C834.875 317.237 834.827 317.537 834.827 317.765C834.827 317.955 834.882 318.103 834.99 318.211C835.098 318.319 835.208 318.373 835.32 318.373C835.48 318.373 835.763 318.252 836.169 318.011C836.579 317.765 837.018 317.384 837.484 316.867C837.393 317.237 837.348 317.537 837.348 317.765C837.348 317.959 837.4 318.108 837.504 318.211C837.612 318.319 837.726 318.373 837.847 318.373C838.258 318.373 838.895 317.923 839.758 317.022L839.545 316.782C838.992 317.347 838.637 317.629 838.482 317.629C838.356 317.629 838.294 317.545 838.294 317.377C838.294 317.196 838.471 316.451 838.825 315.141L839.434 312.884H838.514L837.808 315.535C837.7 315.936 837.575 316.235 837.432 316.433C837.29 316.627 837.053 316.86 836.72 317.131C836.392 317.403 836.149 317.539 835.994 317.539C835.86 317.539 835.793 317.466 835.793 317.319C835.793 317.129 835.966 316.403 836.312 315.141L836.92 312.884H836.001L835.294 315.535C835.177 315.97 835.041 316.293 834.886 316.504C834.73 316.716 834.51 316.934 834.225 317.158C833.944 317.382 833.752 317.494 833.649 317.494C833.584 317.494 833.521 317.461 833.46 317.397C833.404 317.332 833.376 317.254 833.376 317.164C833.376 317.017 833.514 316.421 833.791 315.373C834.102 314.21 834.257 313.481 834.257 313.188C834.257 312.873 834.139 312.716 833.901 312.716ZM920.927 312.716C920.465 312.716 919.781 313.138 918.874 313.983L919.158 314.203C919.633 313.737 919.967 313.504 920.157 313.504C920.247 313.504 920.293 313.569 920.293 313.698C920.293 313.767 920.277 313.862 920.247 313.983L919.671 316.291C919.502 316.964 919.387 317.408 919.327 317.623C919.245 317.921 919.2 318.095 919.191 318.147H920.157L920.752 315.632H922.554L922.249 316.912C922.163 317.261 922.12 317.545 922.12 317.765C922.12 317.955 922.172 318.103 922.275 318.211C922.383 318.319 922.497 318.373 922.618 318.373C923.033 318.373 923.673 317.923 924.536 317.022L924.323 316.782C923.765 317.347 923.409 317.629 923.254 317.629C923.128 317.629 923.065 317.545 923.065 317.377C923.065 317.196 923.245 316.451 923.603 315.141L924.212 312.884H923.292L922.664 315.238H920.856C921.141 314.173 921.284 313.49 921.284 313.188C921.284 312.873 921.165 312.716 920.927 312.716ZM872.957 313.097C872.4 313.097 871.942 313.375 871.584 313.931C871.229 314.487 871.052 315.074 871.052 315.69C871.052 316.043 871.152 316.347 871.35 316.601C871.553 316.851 871.834 316.976 872.192 316.976C872.728 316.976 873.18 316.709 873.547 316.175C873.914 315.64 874.097 315.058 874.097 314.429C874.097 313.985 873.987 313.654 873.767 313.434C873.551 313.21 873.281 313.097 872.957 313.097ZM847.887 313.194C848.151 313.194 848.369 313.333 848.542 313.608C848.719 313.884 848.808 314.345 848.808 314.992C848.808 315.854 848.617 316.576 848.237 317.158C847.939 317.606 847.608 317.83 847.246 317.83C846.986 317.83 846.779 317.711 846.624 317.474C846.412 317.151 846.306 316.709 846.306 316.149C846.306 315.227 846.477 314.505 846.818 313.983C847.163 313.457 847.52 313.194 847.887 313.194ZM952.193 313.233C952.349 313.233 952.474 313.289 952.569 313.401C952.668 313.509 952.718 313.656 952.718 313.841C952.718 314.087 952.6 314.334 952.362 314.584C952.012 314.942 951.489 315.276 950.794 315.587C950.876 315.095 951.017 314.612 951.215 314.138C951.354 313.815 951.524 313.574 951.727 313.414C951.878 313.294 952.034 313.233 952.193 313.233ZM964.081 313.233C964.236 313.233 964.361 313.289 964.456 313.401C964.555 313.509 964.605 313.656 964.605 313.841C964.605 314.087 964.486 314.334 964.249 314.584C963.899 314.942 963.376 315.276 962.681 315.587C962.763 315.095 962.903 314.612 963.102 314.138C963.24 313.815 963.411 313.574 963.614 313.414C963.765 313.294 963.921 313.233 964.081 313.233ZM872.873 313.356C873.175 313.356 873.327 313.657 873.327 314.261C873.327 314.864 873.22 315.425 873.009 315.942C872.797 316.459 872.562 316.718 872.303 316.718C871.987 316.718 871.83 316.409 871.83 315.793C871.83 315.254 871.934 314.714 872.141 314.171C872.348 313.628 872.592 313.356 872.873 313.356ZM974.05 313.446C974.257 313.446 974.412 313.556 974.516 313.776C974.62 313.992 974.672 314.233 974.672 314.501C974.672 315.199 974.488 315.94 974.121 316.724C973.758 317.504 973.324 317.895 972.819 317.895C972.633 317.895 972.462 317.817 972.306 317.662C972.155 317.507 972.08 317.317 972.08 317.093C972.08 316.554 972.197 315.955 972.43 315.296C972.663 314.636 972.935 314.164 973.246 313.88C973.562 313.591 973.829 313.446 974.05 313.446ZM858.349 313.518C858.509 313.518 858.705 313.541 858.938 313.589L858.401 315.606C858.241 316.209 857.99 316.672 857.649 316.996C857.308 317.315 856.988 317.474 856.69 317.474C856.531 317.474 856.401 317.41 856.302 317.28C856.202 317.151 856.152 316.94 856.152 316.646C856.152 316.095 856.276 315.543 856.522 314.992C856.772 314.436 857.042 314.052 857.332 313.841C857.621 313.626 857.96 313.518 858.349 313.518ZM916.798 313.518C916.958 313.518 917.155 313.541 917.388 313.589L916.85 315.606C916.69 316.209 916.439 316.672 916.098 316.996C915.757 317.315 915.438 317.474 915.14 317.474C914.98 317.474 914.85 317.41 914.751 317.28C914.651 317.151 914.602 316.94 914.602 316.646C914.602 316.095 914.725 315.543 914.971 314.992C915.221 314.436 915.492 314.052 915.781 313.841C916.07 313.626 916.409 313.518 916.798 313.518ZM969.428 313.556C969.614 313.556 969.76 313.621 969.868 313.75C969.981 313.875 970.037 314.061 970.037 314.307C970.037 315.074 969.841 315.86 969.448 316.666C969.059 317.472 968.605 317.875 968.087 317.875C967.728 317.875 967.378 317.705 967.037 317.364L967.38 315.961C967.514 315.41 967.657 315.022 967.808 314.798C968.019 314.487 968.327 314.175 968.728 313.86C968.988 313.658 969.221 313.556 969.428 313.556ZM984.641 313.556C984.826 313.556 984.973 313.621 985.081 313.75C985.194 313.875 985.249 314.061 985.249 314.307C985.249 315.074 985.053 315.86 984.66 316.666C984.271 317.472 983.818 317.875 983.299 317.875C982.941 317.875 982.591 317.705 982.25 317.364L982.593 315.961C982.727 315.41 982.87 315.022 983.021 314.798C983.233 314.487 983.539 314.175 983.941 313.86C984.2 313.658 984.433 313.556 984.641 313.556ZM787.988 314.28C788.597 314.28 789.021 314.312 789.258 314.377C789.496 314.442 789.698 314.578 789.867 314.785C790.035 314.987 790.12 315.248 790.12 315.567C790.12 316.158 789.921 316.681 789.523 317.138C789.126 317.595 788.562 317.823 787.832 317.823C787.526 317.823 787.189 317.776 786.821 317.681C787.089 317.453 787.371 316.752 787.664 315.58L787.988 314.28ZM809.421 314.28C810.03 314.28 810.453 314.312 810.691 314.377C810.928 314.442 811.131 314.578 811.3 314.785C811.468 314.987 811.552 315.248 811.552 315.567C811.552 316.158 811.354 316.681 810.957 317.138C810.559 317.595 809.996 317.823 809.266 317.823C808.959 317.823 808.622 317.776 808.255 317.681C808.523 317.453 808.803 316.752 809.097 315.58L809.421 314.28ZM937.935 315.172L937.767 315.812H940.78L940.935 315.172H937.935ZM902.862 316.75C902.667 316.75 902.512 316.825 902.395 316.976C902.235 317.179 902.156 317.416 902.156 317.688C902.156 317.873 902.212 318.026 902.324 318.147C902.441 318.263 902.583 318.321 902.752 318.321C902.955 318.321 903.123 318.241 903.257 318.082C903.391 317.922 903.458 317.702 903.458 317.422C903.458 317.228 903.4 317.069 903.283 316.944C903.171 316.815 903.03 316.75 902.862 316.75ZM794.882 316.789C794.722 316.789 794.584 316.849 794.467 316.97C794.35 317.091 794.292 317.233 794.292 317.397C794.292 317.526 794.344 317.689 794.447 317.888C794.551 318.082 794.603 318.241 794.603 318.366C794.603 318.491 794.534 318.651 794.396 318.845C794.184 319.138 793.882 319.436 793.489 319.737L793.612 320.157C794.009 319.894 794.387 319.569 794.746 319.181C795.009 318.901 795.206 318.612 795.335 318.314C795.465 318.021 795.53 317.759 795.53 317.526C795.53 317.324 795.465 317.151 795.335 317.009C795.21 316.862 795.059 316.789 794.882 316.789ZM893.701 316.789C893.541 316.789 893.403 316.849 893.286 316.97C893.17 317.091 893.111 317.233 893.111 317.397C893.111 317.526 893.163 317.689 893.267 317.888C893.37 318.082 893.422 318.241 893.422 318.366C893.422 318.491 893.353 318.651 893.215 318.845C893.003 319.138 892.7 319.436 892.307 319.737L892.431 320.157C892.828 319.894 893.206 319.569 893.565 319.181C893.828 318.901 894.024 318.612 894.154 318.314C894.284 318.021 894.348 317.759 894.348 317.526C894.348 317.324 894.284 317.151 894.154 317.009C894.029 316.862 893.878 316.789 893.701 316.789ZM870.644 317.707V318.147H873.469V317.707H870.644Z" fill="currentcolor"/>

</svg>
