<svg  viewBox="0 0 1180 580" fill="currentcolor" xmlns="http://www.w3.org/2000/svg">

<path d="M984.539 208.746C980.591 216.585 977.259 223.383 974.545 229.138C971.912 234.894 969.732 239.806 968.005 243.874C966.36 247.943 965.085 251.267 964.18 253.847C963.357 256.427 962.74 258.461 962.329 259.95C962 261.438 961.794 262.53 961.712 263.224V264.266C961.712 265.06 961.917 265.854 962.329 266.648C962.822 267.342 963.398 267.69 964.056 267.69H981.331L977.506 293.44C978.246 294.929 978.905 296.169 979.48 297.162C980.056 298.055 980.714 298.848 981.455 299.543C982.277 300.138 983.223 300.585 984.293 300.883C985.444 301.28 986.925 301.577 988.735 301.776C991.532 302.173 993.629 302.123 995.028 301.627C996.508 301.131 997.29 300.635 997.373 300.139C997.455 299.841 997.619 298.402 997.865 295.822C998.03 294.036 998.236 291.902 998.483 289.422C998.73 286.941 998.976 284.509 999.223 282.128C999.47 279.746 999.675 277.613 999.84 275.727C1000.09 273.743 1000.25 272.354 1000.33 271.56C1001.57 271.659 1003.09 271.808 1004.9 272.006C1006.71 272.105 1008.48 272.155 1010.21 272.155C1011.93 272.155 1013.41 272.056 1014.65 271.857C1015.96 271.659 1016.74 271.361 1016.99 270.964C1017.57 270.171 1017.94 269.228 1018.1 268.136C1018.27 266.945 1018.31 265.755 1018.23 264.564C1018.14 263.373 1017.98 262.281 1017.73 261.289C1017.49 260.297 1017.24 259.603 1016.99 259.206C1016.74 258.809 1016.21 258.412 1015.39 258.015C1014.65 257.618 1013.74 257.271 1012.67 256.973C1011.69 256.576 1010.66 256.228 1009.59 255.93C1008.6 255.633 1007.78 255.435 1007.12 255.336C1006.22 255.137 1005.23 254.939 1004.16 254.74C1003.17 254.542 1002.35 254.393 1001.69 254.293C1002.1 246.851 1002.43 241.344 1002.68 237.771C1003.01 234.199 1003.13 232.363 1003.05 232.264C1003.05 231.967 1002.88 231.817 1002.55 231.817L994.041 229.733C994.534 228.344 994.987 226.856 995.398 225.268C995.81 223.582 996.139 221.993 996.385 220.505C996.632 219.016 996.797 217.776 996.879 216.784C997.044 215.693 997.126 215.097 997.126 214.998L993.3 209.342L984.539 208.746ZM986.391 210.086L992.93 211.127L995.151 214.402L988.735 213.658C988.077 213.658 987.296 212.467 986.391 210.086ZM988.735 214.998L995.645 216.04C995.563 216.635 995.439 217.479 995.275 218.57C995.11 219.562 994.905 220.703 994.658 221.993C994.411 223.283 994.123 224.624 993.794 226.013C993.547 227.303 993.259 228.493 992.93 229.585L987.748 228.394L983.552 253.698C982.894 253.896 981.907 254.045 980.591 254.145C979.274 254.244 977.794 254.442 976.149 254.74L981.331 241.939C981.331 241.74 981.702 240.5 982.442 238.218C983.265 235.935 984.128 233.306 985.033 230.329C986.02 227.352 986.884 224.425 987.625 221.547C988.365 218.57 988.735 216.387 988.735 214.998ZM597.055 216.859L596.287 217.237C594.781 224.579 593.777 228.25 593.275 228.25C592.261 224.629 591.753 222.477 591.753 221.791C591.753 219.37 591 217.979 589.494 217.616H586.843C586.08 217.616 585.698 219.39 585.698 222.94C584.282 228.729 582.52 232.904 580.411 235.465C580.411 236.887 581.923 237.775 584.945 238.128H586.09C587.847 236.555 588.726 234.275 588.726 231.29H589.494C591.09 235.344 592.351 237.371 593.275 237.371C594.37 237.371 595.755 235.093 597.432 230.534H597.808C597.808 231.674 597.934 232.43 598.185 232.803H597.808C597.808 233.287 598.06 234.049 598.562 235.088H598.185C599.129 237.306 599.887 238.445 600.46 238.506H600.836C603.858 237.79 605.37 236.525 605.37 234.709V234.331C602.598 230.478 601.213 225.542 601.213 219.522C601.464 219.028 601.59 218.644 601.59 218.372L599.315 216.859H597.055ZM505.069 216.904C503.643 220.071 502.382 222.219 501.288 223.348L500.911 221.458L501.288 219.93C501.037 219.93 500.911 219.804 500.911 219.552C501.162 219.552 501.288 219.425 501.288 219.173V218.796C501.288 218.372 501.037 218.119 500.535 218.039H500.158C499.555 218.039 498.426 218.417 496.769 219.173C496.006 225.023 494.746 230.585 492.988 235.859V237.75C496.212 238.254 498.1 238.506 498.652 238.506C499.586 238.506 500.213 236.358 500.535 232.062V231.684H500.911C503.864 235.98 505.626 238.128 506.198 238.128L510.717 235.859C510.717 233.509 508.458 230.6 503.939 227.131C508.147 223.248 510.662 220.092 511.485 217.661C511.485 217.238 511.229 216.985 510.717 216.904H505.069ZM815.374 217.602C813.996 217.602 812.691 217.677 811.457 217.826C809.4 218.024 807.385 218.769 805.411 220.059C803.437 221.249 801.709 222.738 800.228 224.524C798.747 226.211 797.596 228.096 796.773 230.18C796.033 232.264 795.786 234.298 796.033 236.283C796.526 239.061 797.76 240.748 799.734 241.343C800.228 241.443 800.968 241.542 801.956 241.641C803.025 241.741 804.095 241.84 805.164 241.939C806.316 242.038 807.344 242.088 808.248 242.088C809.153 242.088 809.729 242.038 809.976 241.939C810.552 241.74 811.415 241.195 812.567 240.302C813.801 239.309 814.665 238.516 815.159 237.92C816.064 237.126 817.132 236.729 818.366 236.729C819.6 236.729 820.382 236.977 820.711 237.473C821.123 238.267 821.534 239.26 821.945 240.45C822.357 241.641 822.562 243.08 822.562 244.767C822.562 247.347 822.027 249.828 820.958 252.21C819.971 254.492 818.695 256.675 817.132 258.759C815.569 260.843 813.925 262.828 812.197 264.713C810.47 266.598 808.947 268.334 807.631 269.922C804.999 273.197 802.984 276.869 801.585 280.937C800.269 285.006 799.528 288.628 799.364 291.803C799.446 293.292 799.528 294.432 799.611 295.226C799.775 295.921 799.899 296.417 799.981 296.715C800.146 297.013 800.31 297.211 800.475 297.31C800.722 297.31 800.968 297.36 801.215 297.459L815.529 301.329L844.402 299.096C844.731 299.096 844.896 298.898 844.896 298.501C845.142 298.104 845.431 297.459 845.76 296.566C846.089 295.673 846.336 294.73 846.5 293.738C846.665 292.745 846.706 291.753 846.623 290.761C846.623 289.768 846.336 288.975 845.76 288.379C845.266 287.784 844.32 287.238 842.922 286.742C841.606 286.246 840.166 285.8 838.603 285.403C837.122 284.907 835.724 284.559 834.408 284.36C833.092 284.063 832.228 283.914 831.816 283.914C830.5 283.815 829.307 283.815 828.238 283.914H823.92C824.166 283.418 824.454 282.277 824.783 280.49C825.194 278.704 825.852 277.216 826.757 276.025C827.086 275.429 827.416 274.834 827.745 274.239C828.156 273.643 828.69 272.8 829.348 271.709C830.089 270.518 830.994 269.079 832.063 267.392C833.215 265.606 834.696 263.274 836.505 260.396C838.233 257.816 839.508 255.187 840.33 252.507C841.235 249.729 841.811 247.099 842.058 244.619C842.387 242.138 842.469 239.905 842.305 237.92C842.14 235.836 841.893 234.199 841.564 233.008C840.577 229.635 838.891 226.906 836.505 224.822C834.202 222.638 831.611 221.001 828.732 219.91C825.853 218.719 822.85 218.024 819.724 217.826C818.202 217.677 816.752 217.602 815.374 217.602ZM925.994 217.602C924.616 217.602 923.31 217.677 922.076 217.826C920.02 218.024 918.004 218.769 916.03 220.059C914.056 221.249 912.328 222.738 910.847 224.524C909.367 226.211 908.215 228.096 907.392 230.18C906.652 232.264 906.405 234.298 906.652 236.283C907.145 239.061 908.379 240.748 910.354 241.343C910.847 241.443 911.588 241.542 912.575 241.641C913.644 241.741 914.714 241.84 915.783 241.939C916.935 242.038 917.963 242.088 918.868 242.088C919.773 242.088 920.349 242.038 920.595 241.939C921.171 241.74 922.035 241.195 923.186 240.302C924.42 239.309 925.285 238.516 925.778 237.92C926.683 237.126 927.752 236.729 928.986 236.729C930.22 236.729 931.001 236.977 931.331 237.473C931.742 238.267 932.153 239.26 932.565 240.45C932.976 241.641 933.181 243.08 933.181 244.767C933.181 247.347 932.647 249.828 931.577 252.21C930.59 254.492 929.315 256.675 927.752 258.759C926.189 260.843 924.544 262.828 922.816 264.713C921.089 266.598 919.567 268.334 918.25 269.922C915.618 273.197 913.603 276.869 912.204 280.937C910.888 285.006 910.148 288.628 909.983 291.803C910.065 293.292 910.148 294.432 910.23 295.226C910.395 295.921 910.518 296.417 910.601 296.715C910.765 297.013 910.93 297.211 911.094 297.31C911.341 297.31 911.588 297.36 911.835 297.459L926.148 301.329L955.022 299.096C955.351 299.096 955.515 298.898 955.515 298.501C955.762 298.104 956.05 297.459 956.379 296.566C956.708 295.673 956.955 294.73 957.119 293.738C957.284 292.745 957.325 291.753 957.243 290.761C957.243 289.768 956.955 288.975 956.379 288.379C955.885 287.784 954.94 287.238 953.541 286.742C952.225 286.246 950.785 285.8 949.222 285.403C947.741 284.907 946.343 284.559 945.027 284.36C943.711 284.063 942.847 283.914 942.436 283.914C941.119 283.815 939.927 283.815 938.857 283.914H934.539C934.786 283.418 935.073 282.277 935.402 280.49C935.814 278.704 936.472 277.216 937.377 276.025C937.706 275.429 938.035 274.834 938.364 274.239C938.775 273.643 939.31 272.8 939.968 271.709C940.708 270.518 941.613 269.079 942.682 267.392C943.834 265.606 945.315 263.274 947.125 260.396C948.852 257.816 950.127 255.187 950.95 252.507C951.855 249.729 952.43 247.099 952.677 244.619C953.006 242.138 953.088 239.905 952.924 237.92C952.759 235.836 952.513 234.199 952.184 233.008C951.196 229.635 949.51 226.906 947.125 224.822C944.821 222.638 942.23 221.001 939.351 219.91C936.472 218.719 933.469 218.024 930.343 217.826C928.822 217.677 927.371 217.602 925.994 217.602ZM589.871 219.143L590.623 219.522V220.278H590.247C590.247 220.006 590.122 219.627 589.871 219.143ZM600.083 219.143H600.46V219.899H600.083V219.143ZM822.562 219.612C824.536 219.81 826.469 220.306 828.361 221.1C830.253 221.795 831.981 222.738 833.544 223.929C835.189 225.119 836.588 226.558 837.739 228.245C838.891 229.832 839.714 231.569 840.207 233.455C840.536 234.645 840.742 236.183 840.824 238.069C840.988 239.855 840.948 241.889 840.701 244.172C840.454 246.454 839.919 248.886 839.096 251.466C838.274 254.046 837.081 256.675 835.518 259.354C833.791 262.232 832.351 264.564 831.2 266.35C830.13 268.136 829.225 269.575 828.485 270.666C827.827 271.758 827.292 272.602 826.88 273.197C826.469 273.793 826.099 274.388 825.77 274.983C825.277 275.777 824.865 276.67 824.536 277.662C824.207 278.654 823.92 279.597 823.673 280.49C823.426 281.383 823.261 282.177 823.179 282.872C823.097 283.467 823.055 283.815 823.055 283.914C821.657 284.014 820.464 284.113 819.477 284.212C818.572 284.311 817.75 284.36 817.009 284.36C816.269 284.36 815.652 284.311 815.159 284.212C814.665 284.113 814.336 284.014 814.172 283.914C813.925 282.922 814.13 281.582 814.788 279.895C815.529 278.109 816.474 276.174 817.626 274.09C818.778 272.006 820.053 269.923 821.452 267.839C822.932 265.656 824.289 263.72 825.523 262.033C826.757 260.247 827.785 258.809 828.608 257.717L829.966 255.93C831.364 253.35 832.516 250.225 833.421 246.553C834.408 242.782 834.655 239.161 834.161 235.687C832.269 227.153 828.402 221.795 822.562 219.612ZM933.181 219.612C935.155 219.81 937.088 220.306 938.981 221.1C940.873 221.795 942.6 222.738 944.163 223.929C945.808 225.119 947.207 226.558 948.359 228.245C949.51 229.832 950.333 231.569 950.827 233.455C951.156 234.645 951.361 236.183 951.443 238.069C951.608 239.855 951.567 241.889 951.32 244.172C951.073 246.454 950.538 248.886 949.716 251.466C948.893 254.046 947.7 256.675 946.138 259.354C944.41 262.232 942.971 264.564 941.819 266.35C940.75 268.136 939.845 269.575 939.104 270.666C938.446 271.758 937.911 272.602 937.5 273.197C937.088 273.793 936.719 274.388 936.39 274.983C935.896 275.777 935.485 276.67 935.155 277.662C934.826 278.654 934.539 279.597 934.292 280.49C934.045 281.383 933.881 282.177 933.798 282.872C933.716 283.467 933.675 283.815 933.675 283.914C932.276 284.014 931.084 284.113 930.097 284.212C929.192 284.311 928.369 284.36 927.629 284.36C926.888 284.36 926.272 284.311 925.778 284.212C925.285 284.113 924.955 284.014 924.791 283.914C924.544 282.922 924.749 281.582 925.408 279.895C926.148 278.109 927.094 276.174 928.245 274.09C929.397 272.006 930.672 269.923 932.071 267.839C933.552 265.656 934.909 263.72 936.143 262.033C937.377 260.247 938.405 258.809 939.227 257.717L940.585 255.93C941.983 253.35 943.135 250.225 944.04 246.553C945.027 242.782 945.274 239.161 944.78 235.687C942.888 227.153 939.022 221.795 933.181 219.612ZM878.027 221.822C877.726 221.825 877.427 221.832 877.128 221.845C874.743 221.845 872.645 221.994 870.835 222.292C869.026 222.589 867.998 222.787 867.751 222.886C864.131 224.375 861.129 226.608 858.743 229.585C855.124 234.149 852.82 239.409 851.833 245.363C850.928 251.317 850.804 257.667 851.462 264.415C851.791 267.69 852.45 270.915 853.437 274.09C854.424 277.266 855.74 280.143 857.386 282.723C859.031 285.303 860.964 287.487 863.185 289.273C865.488 291.059 868.121 292.151 871.082 292.548C873.221 292.845 875.401 293.044 877.622 293.143C879.843 293.242 881.982 292.994 884.039 292.399C886.177 291.803 888.151 290.811 889.961 289.422C891.771 288.033 893.375 286.048 894.774 283.468C897.077 279.201 898.804 274.537 899.956 269.476C901.107 264.316 901.519 258.908 901.19 253.252C901.025 249.779 900.573 246.504 899.833 243.428C899.092 240.351 898.228 237.622 897.241 235.241C896.254 232.76 895.185 230.676 894.033 228.989C892.964 227.203 891.935 225.913 890.948 225.119C889.221 223.73 887.082 222.837 884.532 222.44C882.301 222.006 880.132 221.8 878.027 221.822ZM517.224 223.062C516.501 223.062 516.14 223.243 516.14 223.606C514.473 223.606 513.127 224.962 512.103 227.675C512.103 228.754 512.64 229.293 513.714 229.293L514.256 229.021V229.293C515 229.213 515.899 228.583 516.953 227.403C517.305 227.403 517.666 227.942 518.038 229.021C517.857 229.021 517.766 229.112 517.766 229.293V230.655C517.606 230.655 516.887 230.473 515.612 230.11H514.256C513.061 230.705 512.073 231.608 511.289 232.819C511.289 235.884 512.64 237.689 515.341 238.234L517.495 237.145H517.766C517.766 238.052 517.947 238.506 518.309 238.506H518.58C519.423 238.506 520.503 237.876 521.818 236.615C521.818 236.071 521.547 234.715 521.005 232.546V231.457L521.276 229.566C521.095 229.566 521.005 229.475 521.005 229.293C521.185 228.981 521.276 228.618 521.276 228.204V227.932C521.276 224.685 519.925 223.062 517.224 223.062ZM564.219 223.062C562.824 223.636 562.125 224.075 562.125 224.378V227.251C562.125 228.582 561.433 231.462 560.047 235.889V236.146C561.955 237.538 562.909 238.324 562.909 238.506C563.783 238.506 564.219 238.067 564.219 237.19C566.961 237.896 568.522 238.249 568.904 238.249C568.904 238.067 569.516 237.805 570.741 237.462C571.956 236.625 572.564 235.052 572.564 232.742C571.379 231.179 570.681 230.398 570.47 230.398H570.214C571.078 228.815 571.509 227.852 571.509 227.509V226.994C571.509 225.381 570.379 224.246 568.12 223.591C568.03 223.591 567.076 223.762 565.259 224.105C565.259 223.409 565.082 223.062 564.731 223.062H564.219ZM611.214 223.062C610.491 223.062 610.13 223.243 610.13 223.606C608.463 223.606 607.117 224.962 606.093 227.675C606.093 228.754 606.63 229.293 607.704 229.293L608.247 229.021V229.293C608.99 229.213 609.889 228.583 610.943 227.403C611.295 227.403 611.656 227.942 612.028 229.021C611.847 229.021 611.757 229.112 611.757 229.293V230.655C611.596 230.655 610.878 230.473 609.602 230.11H608.247C607.052 230.705 606.063 231.608 605.28 232.819C605.28 235.884 606.63 237.689 609.331 238.234L611.486 237.145H611.757C611.757 238.052 611.937 238.506 612.299 238.506H612.57C613.414 238.506 614.493 237.876 615.808 236.615C615.808 236.57 615.804 236.51 615.8 236.453C616.091 236.919 616.974 237.602 618.459 238.506H620.116C620.478 235.682 620.844 233.66 621.215 232.44C625.784 232.44 628.069 230.691 628.069 227.191C627.527 224.801 626.432 223.606 624.785 223.606H623.415L621.487 223.893V223.062C620.563 223.062 619.463 223.243 618.188 223.606V225.814C618.188 228.407 617.38 231.856 615.769 236.155C615.679 235.455 615.423 234.258 614.995 232.546V231.457L615.266 229.566C615.085 229.566 614.995 229.475 614.995 229.293C615.176 228.981 615.266 228.618 615.266 228.204V227.932C615.266 224.685 613.916 223.062 611.214 223.062ZM633.868 223.062C633.145 223.062 632.784 223.243 632.784 223.606C631.117 223.606 629.772 224.962 628.747 227.675C628.747 228.754 629.284 229.293 630.359 229.293L630.901 229.021V229.293C631.644 229.213 632.543 228.583 633.597 227.403C633.948 227.403 634.31 227.942 634.681 229.021C634.501 229.021 634.41 229.112 634.41 229.293V230.655C634.25 230.655 633.532 230.473 632.257 230.11H630.901C629.706 230.705 628.717 231.608 627.934 232.819C627.934 235.884 629.284 237.689 631.985 238.234L634.139 237.145H634.41C634.41 238.052 634.591 238.506 634.953 238.506H635.224C636.067 238.506 637.147 237.876 638.463 236.615C638.463 236.071 638.191 234.715 637.649 232.546V231.457L637.92 229.566C637.74 229.566 637.649 229.475 637.649 229.293C637.83 228.981 637.92 228.618 637.92 228.204V227.932C637.92 224.685 636.569 223.062 633.868 223.062ZM553.766 223.137C553.234 223.137 552.164 223.404 550.557 223.938C548.047 225.169 546.792 227.418 546.792 230.686C546.792 235.042 548.76 237.649 552.696 238.506C556.723 238.506 559.138 236.887 559.941 233.65V233.378C559.931 233.136 559.484 232.778 558.601 232.304H557.532C557.532 233.282 556.728 234.003 555.121 234.467C553.987 234.215 553.088 233.494 552.425 232.304V232.032H554.579C556.818 232.032 558.249 230.595 558.872 227.72V227.176C558.872 224.856 557.17 223.51 553.766 223.137ZM546.099 223.167C545.657 223.167 544.869 223.344 543.734 223.697C542.539 223.697 541.485 224.841 540.571 227.131L538.206 230.58H537.679C537.85 230.317 538.025 229.344 538.206 227.66L537.935 227.131C538.116 226.828 538.206 226.475 538.206 226.071L537.935 225.542H538.206L537.935 224.498H537.679C536.795 224.498 535.826 224.846 534.772 225.542C534.772 227.156 534.159 231.124 532.934 237.448L535.299 237.977H536.097C537.614 236.736 539.19 234.795 540.827 232.153H541.098C541.409 236.388 541.936 238.506 542.679 238.506H543.207C544.201 238.506 545.341 238.154 546.626 237.448C545.923 235.763 545.396 233.736 545.044 231.366C545.446 227.595 545.973 225.305 546.626 224.498V223.969L546.099 223.167ZM526.909 223.198C524.218 224.045 522.873 224.912 522.873 225.799V226.375C523.576 227.343 524.058 227.827 524.319 227.827H525.177C525.177 227.383 525.564 226.994 526.337 226.662H527.195C527.768 226.964 528.054 227.252 528.054 227.524V228.114L527.768 228.689C526.04 228.689 525.177 229.359 525.177 230.701V231.004C525.177 231.145 525.85 231.624 527.195 232.44V233.303C527.195 233.595 526.809 233.888 526.036 234.18V233.877C525.373 233.877 524.705 233.494 524.032 232.728C522.988 232.728 522.22 233.212 521.728 234.18V234.467C523.455 237.16 525.277 238.506 527.195 238.506H529.199C531.358 238.506 532.608 236.963 532.95 233.877C532.95 232.98 532.181 231.825 530.645 230.414C531.077 229.788 531.553 228.825 532.076 227.524V226.949C532.076 224.872 530.831 223.621 528.34 223.198L526.909 223.198ZM647.816 223.334C644.945 224.413 642.158 225.225 639.457 225.769C639.516 225.974 639.563 226.085 639.601 226.121L638.915 226.178L638.643 226.586V229.294H639.186L642.951 228.477H643.222V229.021C643.222 231.159 642.414 233.782 640.797 236.888C640.797 237.533 641.876 238.073 644.035 238.506H645.12C646.014 236.076 646.461 233.999 646.461 232.274C646.461 231.387 646.285 229.672 645.933 227.131C647.239 226.778 648.313 225.966 649.157 224.695C648.815 223.868 648.459 223.415 648.088 223.334H647.816ZM875.154 223.482C877.786 223.482 880.501 223.631 883.298 223.929C886.177 224.127 888.439 224.921 890.085 226.31C890.99 227.104 891.977 228.345 893.046 230.032C894.116 231.719 895.103 233.753 896.008 236.134C896.995 238.516 897.817 241.146 898.475 244.023C899.215 246.901 899.668 249.977 899.833 253.252C900.491 264.763 898.475 274.636 893.787 282.872C891.73 286.444 889.262 288.926 886.383 290.315C883.586 291.704 880.46 292.2 877.005 291.803C879.144 290.811 880.995 289.372 882.558 287.486C884.121 285.601 885.396 283.517 886.383 281.235C887.452 278.853 888.275 276.372 888.851 273.792C889.509 271.113 890.002 268.484 890.331 265.904C890.496 264.316 890.619 262.778 890.701 261.289C890.784 259.702 890.825 258.213 890.825 256.824C890.743 253.351 890.454 249.927 889.961 246.553C889.55 243.18 888.768 240.054 887.617 237.176C886.465 234.001 884.861 231.222 882.805 228.841C880.83 226.459 878.28 224.673 875.154 223.482ZM563.692 223.848H564.219V224.106H563.692V223.848ZM647.274 223.879H648.088V224.151H647.274V223.879ZM545.044 223.969H545.571V224.499C545.28 224.499 545.105 224.322 545.044 223.969ZM555.648 224.211H556.191C556.191 224.403 556.281 224.675 556.462 225.028V225.3H556.191C556.191 224.937 556.01 224.756 555.648 224.756V224.211ZM568.904 224.635H569.431V225.149C569.139 225.149 568.964 224.978 568.904 224.635ZM519.378 224.68L519.92 224.953V225.225L519.378 224.953V224.68ZM613.368 224.68L613.91 224.953V225.225L613.368 224.953V224.68ZM636.022 224.68L636.565 224.953V225.225L636.022 224.953V224.68ZM625.599 224.71H625.885V225.27H625.599V224.71ZM554.037 226.103C554.579 226.385 554.85 226.657 554.85 226.919V228.522C554.308 228.522 554.037 228.704 554.037 229.067C552.942 229.067 552.229 228.618 551.898 227.721C551.898 226.642 552.611 226.103 554.037 226.103ZM513.985 226.314L513.714 227.403H513.172V227.131C513.453 226.586 513.724 226.314 513.985 226.314ZM607.976 226.314L607.704 227.403H607.162V227.131C607.443 226.586 607.714 226.314 607.976 226.314ZM630.63 226.314L630.359 227.403H629.817V227.131C630.098 226.586 630.369 226.314 630.63 226.314ZM622.586 226.375H623.957C623.957 226.738 624.138 226.919 624.5 226.919V227.192C624.5 228.119 624.138 228.674 623.415 228.855C622.491 228.724 622.029 228.447 622.029 228.023V226.919C622.4 226.919 622.586 226.738 622.586 226.375ZM567.352 226.466C567.864 226.607 568.12 227.131 568.12 228.039C567.849 228.563 567.593 228.825 567.352 228.825H566.825C566.463 228.745 566.117 228.306 565.786 227.509C565.956 226.813 566.478 226.466 567.352 226.466ZM550.813 227.993H551.355V228.522C551.054 228.522 550.873 228.346 550.813 227.993ZM357.473 228.243C357.113 228.243 356.751 228.252 356.388 228.27C354.932 228.27 353.332 228.343 351.585 228.489C351.221 228.489 351.039 228.599 351.039 228.818L345.472 285.165C345.472 285.384 345.509 285.603 345.581 285.823C345.654 286.042 345.873 286.225 346.236 286.371C349.293 287.686 352.022 288.527 354.423 288.893C356.824 289.258 358.498 289.477 359.444 289.55C361.045 289.696 362.9 289.806 365.011 289.879C367.121 290.025 369.304 289.952 371.56 289.66C373.816 289.441 376.036 289.002 378.219 288.344C380.475 287.613 382.512 286.517 384.332 285.055C387.097 282.936 389.061 280.488 390.225 277.711C391.39 274.86 391.791 271.353 391.427 267.187C391.354 266.091 391.136 264.995 390.772 263.898C390.481 262.729 389.971 261.596 389.243 260.5C388.588 259.403 387.679 258.38 386.514 257.43C385.35 256.48 383.894 255.676 382.148 255.018C382.948 254.507 383.604 253.74 384.113 252.716C384.623 251.62 385.023 250.415 385.314 249.099C385.678 247.491 385.86 245.847 385.86 244.166C385.86 242.485 385.678 240.95 385.314 239.562C384.077 234.665 381.093 231.376 376.363 229.695C375.053 229.184 373.489 228.855 371.669 228.709C369.923 228.489 368.25 228.38 366.649 228.38C365.048 228.307 363.665 228.307 362.5 228.38C361.336 228.453 360.718 228.489 360.645 228.489C359.608 228.325 358.551 228.243 357.473 228.243ZM365.229 229.257C367.048 229.257 368.941 229.403 370.905 229.695C372.943 229.915 374.617 230.243 375.927 230.682C378.11 231.486 379.929 232.692 381.384 234.3C382.839 235.835 383.822 237.662 384.332 239.781C384.987 242.631 385.096 245.299 384.659 247.784C384.295 249.538 383.786 251.036 383.131 252.278C382.476 253.447 381.748 254.215 380.947 254.58L380.838 254.69L372.979 254.251C374.434 252.716 375.526 251.036 376.254 249.209C377.055 247.455 377.527 245.554 377.673 243.508C377.746 242.412 377.673 241.316 377.455 240.22C377.309 239.05 376.945 237.99 376.363 237.04C375.49 235.14 374.143 233.533 372.324 232.217C370.505 230.829 368.14 229.842 365.229 229.257ZM995.151 231.222L1002.18 232.86L1000.33 254.145C998.688 253.947 997.208 253.848 995.892 253.848C994.658 253.748 993.794 253.698 993.3 253.698L995.151 231.222ZM567.081 231.957C568.125 231.957 568.648 232.395 568.648 233.273C568.648 234.14 568.301 234.664 567.608 234.846C566.634 234.846 566.027 234.407 565.786 233.53C565.786 232.894 566.217 232.37 567.081 231.957ZM515.883 232.547C516.596 232.728 516.953 233.268 516.953 234.165C516.672 234.71 516.401 234.982 516.14 234.982H515.883C514.799 234.982 514.256 234.443 514.256 233.364C514.256 233.001 514.799 232.728 515.883 232.547ZM609.873 232.547C610.586 232.728 610.943 233.268 610.943 234.165C610.662 234.71 610.391 234.982 610.13 234.982H609.873C608.789 234.982 608.247 234.443 608.247 233.364C608.247 233.001 608.789 232.728 609.873 232.547ZM632.528 232.547C633.241 232.728 633.597 233.268 633.597 234.165C633.316 234.71 633.045 234.982 632.784 234.982H632.528C631.443 234.982 630.901 234.443 630.901 233.364C630.901 233.001 631.443 232.728 632.528 232.547ZM814.665 233.455C815.57 233.753 816.392 234.05 817.132 234.348C817.873 234.646 818.613 234.943 819.354 235.241C818.449 235.241 817.585 235.44 816.763 235.837C816.022 236.134 815.323 236.432 814.665 236.73C814.007 237.126 813.143 237.921 812.073 239.112C811.086 240.203 810.264 240.749 809.606 240.749H807.138C805.739 240.65 804.217 240.501 802.572 240.302C803.313 240.004 804.135 239.31 805.04 238.218C805.945 237.126 806.726 236.333 807.384 235.837C808.289 235.142 809.318 234.596 810.47 234.199C811.704 233.703 813.102 233.455 814.665 233.455ZM925.284 233.455C926.189 233.753 927.011 234.05 927.752 234.348C928.492 234.646 929.233 234.943 929.973 235.241C929.068 235.241 928.204 235.44 927.382 235.837C926.641 236.134 925.943 236.432 925.284 236.73C924.626 237.126 923.762 237.921 922.693 239.112C921.706 240.203 920.883 240.749 920.225 240.749H917.757C916.358 240.65 914.837 240.501 913.192 240.302C913.932 240.004 914.755 239.31 915.66 238.218C916.564 237.126 917.346 236.333 918.004 235.837C918.909 235.142 919.937 234.596 921.089 234.199C922.323 233.703 923.721 233.455 925.284 233.455ZM557.803 233.651H558.601V233.923H557.803V233.651ZM507.704 233.954H508.081C508.583 233.954 508.834 234.205 508.834 234.71H508.458C508.036 234.71 507.785 234.458 507.704 233.954ZM603.472 234.331H604.24L603.863 235.844H603.472V234.331ZM359.008 235.286C360.536 235.506 361.7 235.761 362.5 236.054C363.374 236.346 363.883 236.565 364.028 236.711C363.737 241.023 363.483 244.239 363.264 246.358C363.119 248.404 362.901 249.611 362.61 249.976C362.246 250.122 361.736 250.232 361.082 250.305H358.025L359.008 235.286ZM641.61 236.343H641.882C641.882 236.747 641.972 237.105 642.153 237.417L641.61 237.145V236.343ZM365.12 237.588C365.775 238.173 366.248 238.977 366.539 240C366.831 241.024 366.903 242.12 366.758 243.289C366.685 244.385 366.43 245.445 365.993 246.468C365.556 247.491 364.974 248.259 364.247 248.77L365.12 237.588ZM874.136 239.511C874.815 239.492 875.401 239.558 875.894 239.707C876.552 239.905 877.005 240.203 877.252 240.6C877.499 240.996 877.375 241.443 876.882 241.939C876.388 242.435 875.812 243.13 875.154 244.023C874.496 244.817 873.838 245.76 873.18 246.852C872.604 247.943 872.028 249.134 871.452 250.424C870.959 251.714 870.671 253.004 870.589 254.294C870.342 256.973 870.383 259.404 870.712 261.588C871.123 263.771 871.658 265.705 872.316 267.392C873.057 269.079 873.838 270.518 874.66 271.709C875.483 272.9 876.265 273.842 877.005 274.537C873.057 275.728 869.89 274.686 867.504 271.411C865.201 268.037 864.049 263.076 864.049 256.526C864.049 255.038 864.172 253.5 864.419 251.912C864.748 250.324 865.159 248.786 865.653 247.298C866.229 245.809 866.928 244.47 867.751 243.279C868.573 241.989 869.519 240.997 870.589 240.302C871.576 239.905 872.522 239.657 873.426 239.558C873.673 239.533 873.91 239.517 874.136 239.511ZM878.979 241.939C879.637 242.832 880.295 244.172 880.953 245.958C881.694 247.744 882.27 250.324 882.681 253.698C883.092 256.774 883.134 259.503 882.805 261.885C882.558 264.167 882.147 266.152 881.571 267.839C880.995 269.526 880.337 270.865 879.596 271.858C878.938 272.85 878.403 273.545 877.992 273.942C877.416 273.346 876.717 272.503 875.894 271.411C875.154 270.319 874.455 268.98 873.797 267.392C873.139 265.805 872.604 263.969 872.192 261.885C871.863 259.801 871.781 257.469 871.946 254.889C872.11 252.905 872.522 251.168 873.18 249.679C873.92 248.092 874.702 246.752 875.525 245.661C876.347 244.569 877.087 243.726 877.745 243.13C878.485 242.436 878.897 242.039 878.979 241.939ZM399.846 246.139L397.444 290.098L397.553 290.208C397.626 290.281 397.808 290.391 398.099 290.537C398.39 290.683 398.827 290.939 399.409 291.304C400.064 291.67 400.937 292.145 402.028 292.729C402.101 292.802 402.211 292.839 402.357 292.839L407.377 292.62C407.596 292.62 407.777 292.474 407.923 292.181L408.578 289.55C409.742 289.843 411.052 290.098 412.508 290.318C414.036 290.537 415.6 290.574 417.201 290.427C418.802 290.281 420.403 289.952 422.004 289.441C423.605 288.856 425.097 287.942 426.479 286.7C428.153 285.238 429.427 283.338 430.3 281C430.737 282.242 431.355 283.265 432.155 284.069C432.956 284.8 433.793 285.384 434.666 285.823C435.612 286.261 436.522 286.59 437.395 286.809C438.341 287.029 439.141 287.175 439.796 287.248C440.16 287.321 440.742 287.394 441.543 287.467C442.416 287.54 443.29 287.577 444.163 287.577C445.109 287.577 445.982 287.54 446.782 287.467C447.656 287.321 448.238 287.102 448.529 286.809C448.965 286.371 449.438 285.823 449.947 285.165C450.457 284.507 450.748 284.142 450.821 284.069C450.966 283.923 450.966 283.777 450.821 283.631C450.748 283.411 450.639 283.229 450.493 283.082L449.293 282.315C448.492 281.877 447.91 281.548 447.546 281.329C447.182 281.036 446.71 280.597 446.127 280.013C445.036 279.062 444.454 276.907 444.381 273.545V268.831C444.454 266.858 444.527 264.921 444.599 263.021C444.745 261.048 444.854 259.367 444.927 257.979L445.145 255.786C445.145 255.567 445.036 255.384 444.818 255.238L439.578 251.84L432.592 251.291C432.155 252.753 431.792 254.361 431.5 256.115C431.137 257.577 430.809 259.257 430.518 261.157C430.227 263.058 429.972 265.031 429.754 267.077C429.099 266.127 428.263 265.251 427.244 264.447C426.298 263.57 425.279 262.838 424.187 262.254C423.168 261.669 422.113 261.194 421.022 260.829C420.003 260.463 419.129 260.244 418.402 260.171L417.31 259.842C417.019 259.842 416.692 259.805 416.328 259.733C415.964 259.659 415.564 259.623 415.127 259.623H413.708L414.582 252.278C414.582 252.132 414.509 251.986 414.363 251.84C413.053 250.67 412.035 249.757 411.307 249.099C410.652 248.441 410.142 247.967 409.778 247.674C409.487 247.309 409.306 247.089 409.233 247.016L409.014 246.797C408.068 246.797 407.123 246.76 406.177 246.687C405.303 246.614 404.321 246.541 403.23 246.468C402.211 246.395 401.083 246.285 399.846 246.139ZM613.645 246.577C613.572 246.577 613.172 246.65 612.444 246.797C611.789 246.943 611.025 247.126 610.152 247.345C609.352 247.492 608.514 247.674 607.641 247.893C606.841 248.04 606.222 248.186 605.786 248.332L602.293 253.155C602.293 252.716 602.22 252.205 602.075 251.62C601.929 251.036 601.856 250.524 601.856 250.086C601.638 249.209 601.347 248.551 600.983 248.113C600.619 247.674 600.328 247.455 600.11 247.455C600.037 247.309 599.527 247.309 598.581 247.455C597.708 247.528 596.762 247.638 595.744 247.784C593.779 247.93 592.105 248.259 590.722 248.77C590.213 248.917 589.594 249.136 588.867 249.428L586.902 250.086C586.247 250.305 585.665 250.524 585.156 250.743C584.646 250.89 584.319 250.963 584.173 250.963C584.537 253.74 585.01 256.736 585.592 259.952C586.175 263.094 586.757 266.31 587.339 269.599C587.921 272.887 588.503 276.139 589.085 279.355C589.667 282.571 590.14 285.53 590.504 288.234C590.65 288.6 591.123 288.966 591.924 289.331C592.724 289.697 593.561 289.77 594.434 289.55C594.579 289.477 594.761 289.404 594.98 289.331C595.271 289.185 595.707 289.002 596.289 288.783C596.872 288.564 597.672 288.271 598.691 287.906C599.709 287.467 601.092 286.846 602.839 286.042L602.73 279.574C603.166 279.793 603.785 280.232 604.585 280.89C605.386 281.475 606.259 282.132 607.205 282.863C608.223 283.594 609.243 284.288 610.261 284.946C611.28 285.604 612.19 286.042 612.99 286.261L623.687 282.973C623.76 282.973 623.978 282.863 624.342 282.644C624.778 282.352 625.216 282.023 625.652 281.658C626.162 281.292 626.635 280.963 627.071 280.671C627.508 280.306 627.835 280.013 628.053 279.793C628.636 279.428 628.89 278.843 628.817 278.04C628.817 277.163 628.563 276.615 628.053 276.395C627.981 276.322 627.581 276.03 626.853 275.518C626.125 275.007 625.215 274.422 624.124 273.765C623.032 273.034 621.832 272.266 620.522 271.462C619.285 270.585 618.048 269.781 616.811 269.05C615.646 268.247 614.554 267.516 613.536 266.858C612.59 266.2 611.899 265.725 611.462 265.433L619.539 251.291C619.831 250.78 619.758 250.378 619.321 250.086C618.157 249.209 617.211 248.551 616.483 248.113C615.828 247.601 615.282 247.235 614.845 247.016C614.482 246.797 614.191 246.687 613.972 246.687C613.827 246.614 613.718 246.577 613.645 246.577ZM756.062 246.577C755.989 246.577 755.589 246.65 754.861 246.797C754.206 246.943 753.442 247.126 752.568 247.345C751.768 247.492 750.931 247.674 750.058 247.893C749.258 248.04 748.639 248.186 748.203 248.332L744.709 253.155C744.709 252.716 744.636 252.205 744.491 251.62C744.345 251.036 744.273 250.524 744.273 250.086C744.054 249.209 743.763 248.551 743.399 248.113C743.036 247.674 742.745 247.455 742.526 247.455C742.453 247.309 741.944 247.309 740.998 247.455C740.125 247.528 739.179 247.638 738.16 247.784C736.196 247.93 734.522 248.259 733.139 248.77C732.63 248.917 732.011 249.136 731.284 249.428L729.319 250.086C728.664 250.305 728.081 250.524 727.572 250.743C727.063 250.89 726.735 250.963 726.59 250.963C726.953 253.74 727.426 256.736 728.009 259.952C728.591 263.094 729.173 266.31 729.755 269.599C730.338 272.887 730.92 276.139 731.502 279.355C732.084 282.571 732.557 285.53 732.921 288.234C733.066 288.6 733.539 288.966 734.34 289.331C735.14 289.697 735.977 289.77 736.85 289.55C736.996 289.477 737.178 289.404 737.396 289.331C737.687 289.185 738.124 289.002 738.706 288.783C739.288 288.564 740.089 288.271 741.107 287.906C742.126 287.467 743.509 286.846 745.256 286.042L745.146 279.574C745.582 279.793 746.201 280.232 747.002 280.89C747.802 281.475 748.675 282.132 749.621 282.863C750.64 283.594 751.659 284.288 752.677 284.946C753.696 285.604 754.606 286.042 755.407 286.261L766.104 282.973C766.176 282.973 766.395 282.863 766.759 282.644C767.195 282.352 767.632 282.023 768.068 281.658C768.578 281.292 769.051 280.963 769.487 280.671C769.924 280.306 770.252 280.013 770.47 279.793C771.052 279.428 771.307 278.843 771.234 278.04C771.234 277.163 770.98 276.615 770.47 276.395C770.397 276.322 769.997 276.03 769.269 275.518C768.541 275.007 767.632 274.422 766.54 273.765C765.449 273.034 764.248 272.266 762.939 271.462C761.701 270.585 760.464 269.781 759.227 269.05C758.063 268.247 756.971 267.516 755.953 266.858C755.007 266.2 754.315 265.725 753.879 265.433L761.956 251.291C762.247 250.78 762.174 250.378 761.738 250.086C760.574 249.209 759.627 248.551 758.899 248.113C758.245 247.601 757.699 247.235 757.262 247.016C756.898 246.797 756.607 246.687 756.389 246.687C756.244 246.614 756.134 246.577 756.062 246.577ZM613.645 247.893C613.863 247.893 614.409 248.149 615.282 248.661C616.228 249.172 617.138 249.647 618.011 250.086L611.025 252.278L607.095 249.209C608.405 248.99 609.752 248.734 611.135 248.441C612.59 248.076 613.427 247.893 613.645 247.893ZM756.062 247.893C756.28 247.893 756.826 248.149 757.699 248.661C758.645 249.172 759.554 249.647 760.428 250.086L753.442 252.278L749.512 249.209C750.822 248.99 752.169 248.734 753.551 248.441C755.007 248.076 755.843 247.893 756.062 247.893ZM408.905 248.222L413.381 252.388L412.508 259.623C411.853 259.696 411.125 259.806 410.324 259.952C409.597 260.025 408.76 260.171 407.814 260.39L408.905 248.222ZM599.673 248.332L600.11 248.77C600.256 248.917 600.365 249.099 600.438 249.318C600.51 249.465 600.547 249.72 600.547 250.086C600.765 250.743 600.911 251.511 600.983 252.388C601.056 253.265 601.202 253.813 601.42 254.032L596.18 260.609C596.18 259.732 596.144 258.71 596.071 257.54C595.998 256.371 595.889 255.238 595.744 254.141C595.598 253.045 595.453 252.095 595.307 251.291C595.161 250.414 595.016 249.867 594.87 249.647C594.652 249.282 594.361 248.99 593.997 248.77C595.525 248.551 596.799 248.441 597.817 248.441C598.836 248.368 599.455 248.332 599.673 248.332ZM742.09 248.332L742.526 248.77C742.672 248.917 742.781 249.099 742.854 249.318C742.926 249.465 742.963 249.72 742.963 250.086C743.181 250.743 743.327 251.511 743.399 252.388C743.472 253.265 743.618 253.813 743.836 254.032L738.597 260.609C738.597 259.732 738.561 258.71 738.488 257.54C738.415 256.371 738.306 255.238 738.16 254.141C738.015 253.045 737.869 252.095 737.724 251.291C737.578 250.414 737.433 249.867 737.287 249.647C737.069 249.282 736.777 248.99 736.413 248.77C737.942 248.551 739.215 248.441 740.234 248.441C741.253 248.368 741.871 248.332 742.09 248.332ZM469.728 251.271C469.632 251.267 469.521 251.275 469.393 251.291L462.517 251.62L453.348 255.238C453.129 255.238 452.984 255.384 452.911 255.677L456.949 289.112C456.949 289.404 457.059 289.55 457.277 289.55L462.953 289.989L469.83 287.138C469.976 286.919 470.121 286.188 470.267 284.946C470.412 283.704 470.521 282.315 470.594 280.781C470.74 279.246 470.849 277.747 470.921 276.286C470.994 274.751 471.067 273.618 471.14 272.888C471.213 271.718 471.504 270.622 472.013 269.599C472.522 268.502 473.104 267.991 473.759 268.064C474.996 269.087 476.125 271.097 477.144 274.093C477.944 276.651 478.853 280.451 479.872 285.494L489.041 285.165L495.045 282.315C495.336 282.096 495.481 281.877 495.481 281.658C495.481 279.757 495.445 277.638 495.372 275.299C495.299 272.961 495.19 270.731 495.045 268.612C494.826 265.689 494.354 263.313 493.626 261.486C492.898 259.659 491.988 258.198 490.897 257.102C489.878 256.005 488.75 255.238 487.513 254.799C486.276 254.361 485.038 254.105 483.801 254.032C480.527 253.886 477.725 254.068 475.396 254.58C473.141 255.091 471.795 255.457 471.358 255.677L470.157 251.62C470.157 251.401 470.014 251.285 469.728 251.271ZM618.011 251.401L610.37 265.433L603.494 266.639L611.899 253.155L618.011 251.401ZM760.428 251.401L752.787 265.433L745.91 266.639L754.315 253.155L760.428 251.401ZM512.879 252.258C511.214 252.217 509.427 252.442 507.517 252.936C507.371 252.863 506.97 252.863 506.315 252.936C505.66 253.009 504.933 253.155 504.132 253.374C503.332 253.52 502.604 253.74 501.949 254.032C501.367 254.324 501.076 254.616 501.076 254.909C501.149 257.467 501.222 259.623 501.295 261.377C501.367 263.131 501.44 264.666 501.513 265.981C501.586 267.224 501.622 268.283 501.622 269.16C501.695 269.964 501.767 270.731 501.84 271.462C502.204 275.774 503.477 278.99 505.66 281.109C507.916 283.156 511.482 284.252 516.358 284.398C514.539 287.467 512.792 290.025 511.118 292.072C509.517 294.191 507.771 295.726 505.879 296.676C504.059 297.626 502.022 298.028 499.767 297.882C497.583 297.736 495.073 297.004 492.235 295.689C491.871 295.543 491.616 295.652 491.471 296.018C491.18 296.968 490.961 297.882 490.816 298.759C490.67 299.636 490.598 300.878 490.598 302.486C490.598 304.386 491.18 306.067 492.344 307.529C493.435 309.063 494.927 310.232 496.819 311.036C498.711 311.913 500.931 312.315 503.477 312.242C503.784 312.242 504.093 312.234 504.404 312.218C504.755 314.203 504.935 315.862 504.935 317.179C504.935 319.995 504.637 322.377 504.043 324.324C504.166 324.921 504.958 325.22 506.418 325.22H508.492L508.782 323.731V320.46C508.782 318.645 508.388 316.462 507.6 313.909C511.037 313.506 513.111 312.908 513.822 312.117C513.544 311.205 513.287 310.471 513.048 309.909C518.691 307.022 523.687 301.078 528.037 292.072C529.42 289.148 530.803 285.787 532.185 281.986C533.568 278.186 534.805 274.605 535.896 271.243C536.988 267.881 537.861 265.031 538.516 262.692C539.244 260.28 539.607 259.038 539.607 258.965L535.678 256.554H526.837L521.924 268.612C521.561 268.1 521.27 267.552 521.051 266.968L520.615 265.214C520.469 264.556 520.396 263.934 520.396 263.35C520.396 261.23 520.469 259.44 520.615 257.979C520.76 256.444 520.869 255.347 520.942 254.69C520.942 254.324 520.906 254.105 520.833 254.032C520.76 253.959 520.615 253.849 520.396 253.703C518.577 253.118 516.612 252.68 514.502 252.388C513.974 252.315 513.433 252.271 512.879 252.258ZM469.393 252.497L470.157 256.115C468.484 256.919 466.628 258.125 464.59 259.733L463.39 252.826L469.393 252.497ZM439.36 253.155L443.944 256.115C443.944 256.627 443.872 257.613 443.726 259.075C443.653 260.536 443.581 262.181 443.508 264.008L443.29 269.27V273.545C443.29 275.519 443.435 277.053 443.726 278.149C444.017 279.245 444.563 280.159 445.363 280.89C445.873 281.402 446.309 281.804 446.673 282.096C447.11 282.315 447.619 282.607 448.201 282.973H443.399C442.744 282.827 441.906 282.425 440.888 281.767C439.942 281.036 439.251 280.049 438.814 278.807C438.45 277.711 438.232 275.957 438.159 273.545C438.159 271.134 438.232 268.612 438.377 265.981C438.523 263.35 438.668 260.865 438.814 258.527C439.032 256.115 439.214 254.324 439.36 253.155ZM511.882 253.265C512.974 253.265 514.029 253.338 515.048 253.484C516.066 253.63 517.086 253.813 518.104 254.032H514.065C513.701 253.886 513.338 253.776 512.974 253.703C512.61 253.63 512.246 253.484 511.882 253.265ZM561.19 253.998C560.153 253.984 559.198 254.032 558.325 254.141C556.069 254.434 554.687 254.616 554.177 254.69C552.649 254.982 551.121 255.567 549.592 256.444C548.137 257.248 546.828 258.271 545.663 259.513C544.572 260.756 543.662 262.218 542.934 263.899C542.206 265.506 541.806 267.223 541.733 269.05C541.588 272.997 542.17 276.212 543.48 278.697C544.863 281.182 546.827 283.265 549.374 284.946C549.956 285.311 550.721 285.64 551.667 285.932C552.686 286.152 553.704 286.334 554.723 286.481C555.815 286.627 556.833 286.736 557.779 286.809H560.181C564.402 286.809 568.549 285.604 572.624 283.192C575.098 281.73 576.845 280.268 577.864 278.807C578.883 277.272 579.574 276.176 579.938 275.518C580.229 275.153 580.229 274.788 579.938 274.422C579.792 274.203 579.501 273.838 579.065 273.326L577.1 271.023L568.368 271.462L567.166 272.011C566.584 272.376 566.111 272.705 565.747 272.997C565.384 273.216 565.02 273.509 564.656 273.874C564.147 273.801 563.455 273.691 562.582 273.545C561.782 273.326 560.945 272.997 560.072 272.559C559.271 272.047 558.543 271.389 557.888 270.585C557.306 269.781 557.015 268.722 557.015 267.406C557.015 266.602 557.197 265.872 557.561 265.214C557.925 264.483 558.288 263.934 558.652 263.569C559.234 263.569 559.817 263.716 560.399 264.008C561.054 264.3 561.673 264.629 562.255 264.995L570.987 264.666C571.133 264.666 571.314 264.629 571.533 264.556C571.751 264.483 571.86 264.374 571.86 264.227L574.261 258.198C574.48 257.759 574.443 257.467 574.152 257.321C574.079 257.248 573.279 256.846 571.751 256.115C570.296 255.384 568.731 254.872 567.057 254.58C564.874 254.215 562.919 254.02 561.19 253.998ZM702.63 254.032L694.443 254.799C694.079 254.872 693.861 255.018 693.788 255.238C693.788 255.457 693.825 255.64 693.897 255.786C694.116 256.517 694.334 257.431 694.552 258.527C694.843 259.55 695.098 260.646 695.316 261.815C695.607 262.912 695.826 264.081 695.971 265.324C696.189 266.493 696.299 267.625 696.299 268.722C696.299 269.233 696.262 269.599 696.189 269.818C695.898 269.599 695.28 269.051 694.334 268.174C693.388 267.297 692.66 266.091 692.151 264.556C692.006 263.972 691.86 263.24 691.714 262.363C691.642 261.413 691.568 260.5 691.496 259.623C691.423 258.746 691.386 258.015 691.386 257.431V256.444C691.386 256.298 691.35 256.152 691.277 256.006C691.204 255.786 691.023 255.677 690.731 255.677L673.703 255.238C673.194 255.238 672.939 255.494 672.939 256.006C672.867 259.66 672.939 262.766 673.158 265.324C673.449 267.808 673.813 269.891 674.249 271.572C674.686 273.253 675.123 274.568 675.56 275.518C675.996 276.395 676.324 277.017 676.542 277.382C678.07 279.721 679.925 281.694 682.108 283.302C684.364 284.837 686.729 285.969 689.203 286.7C691.678 287.431 694.152 287.686 696.626 287.467C699.1 287.175 701.393 286.408 703.503 285.165C705.031 286.335 706.96 287.065 709.288 287.358C711.69 287.65 714.055 287.54 716.383 287.029C718.785 286.517 720.931 285.677 722.823 284.508C724.788 283.338 726.098 281.914 726.753 280.233C726.899 279.867 726.899 279.611 726.753 279.465C723.478 277.418 720.968 275.153 719.221 272.669C717.475 270.111 716.237 267.918 715.51 266.091C715.291 265.433 715 264.629 714.636 263.679C714.345 262.729 714.054 261.742 713.763 260.719C713.545 259.696 713.327 258.71 713.108 257.76C712.89 256.81 712.781 256.005 712.781 255.347C712.708 254.763 712.344 254.47 711.69 254.47C709.579 254.397 707.905 254.324 706.668 254.251C705.504 254.178 704.631 254.142 704.049 254.142C703.466 254.068 703.103 254.032 702.957 254.032H702.63ZM654.913 254.251C654.04 254.251 653.167 254.361 652.294 254.58C651.493 254.726 650.801 255.018 650.219 255.457L649.237 265.652L644.98 265.543L645.307 260.171C645.307 259.952 645.235 259.769 645.089 259.623L639.522 256.115C639.231 255.896 638.467 255.603 637.23 255.238C635.993 254.872 633.773 254.617 630.571 254.47L632.536 289.989C632.609 290.428 632.754 290.647 632.973 290.647L638.649 291.743H638.867L643.015 291.085C643.307 291.085 643.452 290.902 643.452 290.537L644.325 274.532L649.346 274.313C649.491 276.432 649.782 278.442 650.219 280.342C650.656 282.169 651.275 283.74 652.075 285.056C652.876 286.517 653.858 287.651 655.022 288.454C656.186 289.258 657.205 289.77 658.078 289.989C658.733 290.135 659.607 290.427 660.698 290.866C661.79 291.304 663.063 291.487 664.518 291.414C666.119 291.268 667.43 290.939 668.448 290.427C669.54 289.916 670.158 289.624 670.304 289.551C670.595 289.331 670.668 289.039 670.522 288.674C670.522 288.601 670.34 288.308 669.976 287.796C669.613 287.284 669.212 286.7 668.776 286.042C668.339 285.384 667.903 284.763 667.466 284.179C667.102 283.521 666.847 283.046 666.701 282.754C665.901 281.292 665.137 279.574 664.409 277.601C663.754 275.555 663.391 273.655 663.318 271.901C663.318 271.024 663.354 269.891 663.427 268.502C663.5 267.041 663.573 265.616 663.645 264.228C663.791 262.839 663.9 261.633 663.973 260.61L664.082 258.965C664.082 258.746 664.009 258.563 663.864 258.417C662.772 257.613 661.935 256.992 661.353 256.554C660.844 256.042 660.444 255.676 660.153 255.457L659.607 255.018C658.952 254.799 658.224 254.617 657.423 254.47C656.623 254.324 655.786 254.251 654.913 254.251ZM519.96 254.799C519.887 255.603 519.778 256.882 519.632 258.636C519.56 260.317 519.523 261.888 519.523 263.35C519.523 264.081 519.596 264.849 519.742 265.652C519.887 266.31 520.069 267.041 520.287 267.845C520.578 268.576 521.015 269.233 521.597 269.818C521.16 270.695 520.724 271.352 520.287 271.791C519.851 272.156 519.45 272.413 519.087 272.559C518.723 272.705 518.395 272.778 518.104 272.778C517.813 272.705 517.631 272.669 517.559 272.669C516.322 272.669 515.375 271.353 514.72 268.722C514.065 266.091 513.92 261.486 514.284 254.909L519.96 254.799ZM481.783 254.847C482.419 254.852 483.092 254.872 483.801 254.909C484.893 254.982 486.021 255.238 487.186 255.677C488.35 256.042 489.405 256.736 490.351 257.76C491.37 258.783 492.207 260.171 492.862 261.925C493.59 263.679 494.062 265.908 494.281 268.612V270.366C494.354 271.535 494.39 272.888 494.39 274.422V278.807C494.39 280.196 494.353 281.11 494.281 281.548L486.749 281.986C486.531 278.04 486.312 274.678 486.094 271.901C485.876 269.123 485.548 266.785 485.112 264.885C484.457 261.962 483.51 259.842 482.273 258.527C481.109 257.211 479.363 256.115 477.034 255.238C478.29 254.964 479.872 254.834 481.783 254.847ZM560.415 254.894C562.014 254.886 563.864 255.073 565.966 255.457C568.367 255.895 570.478 256.663 572.297 257.76L564.983 257.321C564.183 256.736 563.31 256.262 562.364 255.896C561.418 255.458 560.544 255.128 559.744 254.909C559.962 254.9 560.186 254.895 560.415 254.894ZM373.088 255.128L380.947 255.567L381.493 255.786C386.951 257.687 389.898 261.487 390.335 267.187C390.698 271.134 390.335 274.459 389.243 277.163C388.152 279.794 386.333 282.132 383.786 284.179C381.821 285.713 379.456 286.809 376.691 287.467C373.998 288.125 371.451 288.527 369.05 288.674C370.942 288.089 372.688 287.212 374.289 286.042C375.89 284.873 377.273 283.558 378.437 282.096C379.674 280.561 380.656 278.953 381.384 277.272C382.112 275.591 382.549 273.984 382.694 272.449C382.767 270.403 382.512 268.466 381.93 266.639C381.348 264.739 380.584 263.021 379.638 261.486C378.692 259.952 377.637 258.637 376.472 257.54C375.308 256.444 374.18 255.64 373.088 255.128ZM703.503 255.238L711.908 255.677C712.272 258.016 712.708 260.244 713.218 262.363C713.8 264.41 714.564 266.42 715.51 268.393C716.528 270.366 717.802 272.266 719.33 274.094C720.859 275.921 722.787 277.711 725.116 279.465L715.51 280.233C714.054 278.698 712.745 277.163 711.58 275.628C710.489 274.02 709.47 272.266 708.524 270.366C707.578 268.466 706.668 266.31 705.795 263.899C704.995 261.414 704.231 258.526 703.503 255.238ZM659.389 256.444L662.881 259.185C662.881 259.623 662.809 260.39 662.663 261.486C662.59 262.51 662.518 263.679 662.445 264.995C662.372 266.237 662.299 267.516 662.226 268.831V271.901C662.299 273.874 662.699 275.92 663.427 278.04C664.155 280.159 664.919 281.913 665.719 283.302L667.029 285.494C667.684 286.517 668.266 287.394 668.776 288.125L664.082 287.138C663.791 286.846 663.318 286.298 662.663 285.494C662.081 284.617 661.462 283.558 660.808 282.315C660.225 281 659.679 279.501 659.17 277.82C658.66 276.066 658.369 274.093 658.296 271.901C658.224 270.585 658.224 269.197 658.296 267.735C658.369 266.2 658.442 264.738 658.515 263.35C658.66 261.888 658.806 260.573 658.951 259.404C659.097 258.161 659.243 257.175 659.389 256.444ZM684.51 256.773L690.186 256.883V258.417C690.259 259.075 690.331 259.806 690.404 260.61L690.841 263.021C690.986 263.752 691.132 264.374 691.277 264.885C691.714 266.347 692.406 267.625 693.352 268.722C694.37 269.818 695.243 270.549 695.971 270.914C695.68 272.156 695.062 273.034 694.116 273.545C693.17 273.984 691.859 273.947 690.186 273.436C688.949 273.07 687.93 272.376 687.13 271.352C686.402 270.256 685.82 268.978 685.383 267.516C685.02 265.981 684.765 264.3 684.619 262.473C684.547 260.646 684.51 258.746 684.51 256.773ZM529.565 257.321H535.242L536.442 258.088L531.202 258.198L529.565 257.321ZM1008.23 257.568C1010.12 257.866 1011.85 258.263 1013.41 258.759C1014.98 259.156 1015.88 259.503 1016.13 259.801C1016.29 260.198 1016.46 260.843 1016.62 261.736C1016.79 262.53 1016.91 263.423 1016.99 264.415C1017.16 265.308 1017.2 266.202 1017.11 267.095C1017.11 267.988 1016.95 268.732 1016.62 269.328L1008.23 267.095C1008.48 265.904 1008.72 264.465 1008.97 262.778C1009.3 260.992 1009.05 259.255 1008.23 257.568ZM639.85 257.76L644.216 260.39L643.889 265.543L639.85 265.433C639.922 261.341 639.922 258.783 639.85 257.76ZM564.983 258.527H573.061L571.096 263.789L562.582 264.228L564.983 258.527ZM538.407 259.075L537.97 260.719C537.679 261.742 537.243 263.168 536.66 264.995C536.151 266.822 535.533 268.904 534.805 271.243C534.15 273.581 533.386 275.957 532.513 278.368C531.712 280.78 530.839 283.155 529.893 285.494C529.02 287.833 528.11 289.879 527.164 291.633C524.835 296.53 522.325 300.403 519.632 303.253C517.434 305.706 515.082 307.616 512.576 308.989C512.384 308.699 512.208 308.545 512.049 308.545H511.747C509.847 309.538 507.773 310.035 505.525 310.035C505.139 309.833 504.842 309.731 504.634 309.731C504.634 310.135 504.437 310.337 504.043 310.337C504.103 310.626 504.147 310.883 504.201 311.16C503.701 311.174 503.204 311.173 502.713 311.146C501.476 311.073 500.385 310.89 499.439 310.598C498.566 310.379 497.91 310.087 497.474 309.721C498.565 309.502 499.875 309.137 501.404 308.625C502.932 308.113 504.569 307.346 506.315 306.323C508.062 305.373 509.808 304.13 511.555 302.596C513.301 301.061 514.903 299.161 516.358 296.896C520.142 291.049 523.126 285.019 525.309 278.807C527.492 272.522 529.456 266.018 531.202 259.294L538.407 259.075ZM357.479 260.281C358.789 260.427 359.808 260.573 360.536 260.719C361.336 260.792 362.136 260.902 362.937 261.048L362.173 274.313L356.06 275.847L357.479 260.281ZM364.028 261.267C365.993 261.706 367.667 262.62 369.05 264.008C370.287 265.324 371.014 266.895 371.233 268.722C371.524 270.476 371.087 272.193 369.923 273.874C369.05 274.24 368.104 274.532 367.085 274.751C366.066 274.97 364.793 274.824 363.264 274.313L364.028 261.267ZM423.641 263.24C424.878 263.971 426.043 264.812 427.135 265.762C428.226 266.712 429.063 267.772 429.645 268.941C429.5 270.768 429.39 272.559 429.318 274.313C429.318 275.994 429.463 277.565 429.754 279.026C429.39 280.488 428.881 281.804 428.226 282.973C427.571 284.069 426.77 285.019 425.824 285.823C424.66 286.846 423.387 287.613 422.004 288.125C420.694 288.636 419.348 289.002 417.965 289.222C416.582 289.368 415.237 289.404 413.927 289.331C412.617 289.185 411.416 289.002 410.324 288.783C411.561 288.71 412.69 288.563 413.708 288.344C414.8 288.052 415.746 287.76 416.546 287.467C417.419 287.175 418.22 286.81 418.948 286.371C421.786 284.69 423.823 282.498 425.06 279.793C426.297 277.089 426.916 274.203 426.916 271.133C426.844 269.306 426.479 267.772 425.824 266.529C425.242 265.214 424.515 264.117 423.641 263.24ZM557.162 263.34C557.364 263.336 557.57 263.34 557.779 263.35C557.197 263.935 556.76 264.63 556.469 265.433C556.178 266.237 555.996 267.078 555.924 267.955C555.924 268.758 556.033 269.562 556.251 270.366C556.542 271.17 556.979 271.828 557.561 272.34C558.361 273.144 559.271 273.728 560.29 274.094C561.382 274.386 562.437 274.605 563.455 274.751C561.927 275.409 560.727 275.921 559.854 276.286C558.98 276.578 558.216 276.724 557.561 276.724C556.979 276.724 556.433 276.615 555.924 276.396C555.414 276.176 554.832 275.884 554.177 275.519C552.867 274.495 551.848 273.18 551.12 271.572C550.466 269.964 550.429 268.32 551.011 266.639C551.375 265.616 552.176 264.812 553.413 264.228C554.496 263.652 555.745 263.356 557.162 263.34ZM610.37 266.31C610.953 266.749 612.117 267.552 613.863 268.722C615.61 269.818 617.429 270.951 619.321 272.12C621.286 273.29 623.033 274.349 624.561 275.299C626.089 276.249 626.962 276.761 627.18 276.834L619.321 279.026L603.494 267.516L610.37 266.31ZM752.787 266.31C753.369 266.749 754.533 267.552 756.28 268.722C758.026 269.818 759.846 270.951 761.738 272.12C763.703 273.29 765.449 274.349 766.977 275.299C768.505 276.249 769.378 276.761 769.596 276.834L761.738 279.026L745.91 267.516L752.787 266.31ZM471.358 267.406C471.867 267.479 472.013 267.626 471.795 267.845C471.649 268.064 471.504 268.32 471.358 268.612C470.776 269.416 470.376 270.622 470.157 272.23C470.012 273.838 469.866 275.555 469.721 277.382C469.648 279.136 469.575 280.854 469.503 282.535C469.43 284.215 469.248 285.494 468.957 286.371L463.39 288.674V283.74C463.463 281.84 463.535 280.049 463.608 278.368C463.754 276.688 463.863 275.226 463.935 273.984C464.008 272.668 464.081 271.827 464.154 271.462C464.299 271.024 464.627 270.585 465.136 270.147C465.645 269.635 466.227 269.197 466.882 268.831C467.61 268.393 468.375 268.064 469.175 267.845C469.976 267.552 470.703 267.406 471.358 267.406ZM993.794 267.69H995.275C995.768 267.69 996.468 267.74 997.373 267.839C998.36 267.839 999.593 267.889 1001.07 267.988C1002.64 268.087 1004.69 268.186 1007.24 268.285L1014.77 270.518C1014.36 270.617 1013.91 270.667 1013.41 270.667H1011.93C1010.29 270.667 1008.4 270.617 1006.26 270.518C1004.12 270.32 1001.98 270.121 999.84 269.923L993.794 267.69ZM410.98 268.502L409.014 281.438H407.05C406.395 281.365 405.667 281.219 404.867 281L406.613 269.051C407.559 268.758 408.396 268.612 409.124 268.612C409.924 268.539 410.543 268.502 410.98 268.502ZM412.071 268.612C412.726 268.758 413.49 269.087 414.363 269.599C415.309 270.037 415.964 270.658 416.328 271.462C416.91 272.631 417.092 273.765 416.874 274.861C416.728 275.884 416.364 276.834 415.782 277.711C415.273 278.588 414.618 279.318 413.818 279.903C413.09 280.415 412.399 280.781 411.744 281C411.598 281 411.453 281.037 411.307 281.11C411.016 281.256 410.652 281.329 410.215 281.329L412.071 268.612ZM991.943 268.732L998.976 270.965L996.139 299.097L989.228 296.864C989.311 295.177 989.393 293.739 989.475 292.548C989.64 291.258 989.763 290.067 989.845 288.975C990.01 287.785 990.133 286.644 990.216 285.552C990.298 284.461 990.421 283.269 990.585 281.979C990.832 279.3 991.079 276.72 991.326 274.239C991.655 271.659 991.861 269.824 991.943 268.732ZM649.237 271.572V273.107L643.889 273.436L641.05 272.23L649.237 271.572ZM576.663 271.901L578.628 274.313L571.096 274.751L568.586 272.23L576.663 271.901ZM639.413 272.669L643.234 274.422L642.469 289.551L638.649 288.564L639.413 272.669ZM362.828 275.08C363.847 275.445 364.792 275.665 365.666 275.738C366.612 275.811 367.631 275.665 368.722 275.299C368.286 275.665 367.777 276.03 367.194 276.395C366.612 276.761 365.92 277.017 365.12 277.163C364.392 277.236 363.592 277.272 362.719 277.272H359.881C358.862 277.199 357.697 277.053 356.388 276.834L362.828 275.08ZM579.065 275.08C578.701 275.665 577.973 276.724 576.882 278.259C575.79 279.72 574.262 281.073 572.297 282.315C570.259 283.558 568.185 284.508 566.075 285.165C563.964 285.75 561.599 286.042 558.98 286.042C559.635 285.75 560.436 285.458 561.382 285.165C562.328 284.8 563.346 284.252 564.438 283.521C565.529 282.79 566.657 281.804 567.821 280.561C569.058 279.319 570.259 277.638 571.424 275.518L579.065 275.08ZM598.363 275.957C599.382 276.615 600.11 277.126 600.547 277.492C600.983 277.784 601.42 278.149 601.856 278.588V285.165L597.927 286.919L598.363 275.957ZM740.78 275.957C741.799 276.615 742.526 277.126 742.963 277.492C743.399 277.784 743.836 278.149 744.273 278.588V285.165L740.343 286.919L740.78 275.957ZM699.027 277.82C699.828 279.501 700.52 280.817 701.102 281.767C701.684 282.717 702.23 283.484 702.739 284.069C701.575 284.873 700.301 285.458 698.918 285.823C697.535 286.115 696.117 286.261 694.661 286.261C693.279 286.261 691.859 286.115 690.404 285.823C689.021 285.458 687.748 285.056 686.584 284.617H688.112C689.058 284.544 690.149 284.325 691.386 283.96C692.623 283.594 693.934 282.937 695.316 281.986C696.699 281.036 697.936 279.647 699.027 277.82ZM627.317 278.395C627.472 278.395 627.535 278.423 627.508 278.478C627.508 278.624 627.399 278.807 627.18 279.026C626.744 279.465 626.016 280.05 624.997 280.781C624.051 281.438 623.469 281.877 623.25 282.096L614.955 284.727L620.194 279.903C624.274 278.894 626.648 278.391 627.317 278.395ZM769.733 278.395C769.888 278.395 769.952 278.423 769.925 278.478C769.925 278.624 769.815 278.807 769.596 279.026C769.16 279.465 768.432 280.05 767.414 280.781C766.467 281.438 765.885 281.877 765.667 282.096L757.371 284.727L762.611 279.903C766.691 278.894 769.065 278.391 769.733 278.395ZM725.552 280.671C724.752 281.914 723.624 282.936 722.168 283.74C720.713 284.544 719.112 285.165 717.366 285.604C715.692 285.969 714.018 286.188 712.344 286.261C710.671 286.334 709.179 286.225 707.869 285.933C710.125 285.348 711.762 284.727 712.781 284.069C713.873 283.411 714.927 282.535 715.946 281.438L725.552 280.671ZM492.316 282.754L489.041 283.96L483.037 284.288L486.203 283.083L492.316 282.754ZM443.835 284.179H449.293L447.765 285.933C447.546 286.152 446.892 286.298 445.8 286.371C444.708 286.444 443.544 286.444 442.307 286.371C442.67 286.006 442.961 285.64 443.18 285.275C443.471 284.91 443.69 284.544 443.835 284.179ZM834.654 285.552C836.793 286.147 838.932 286.842 841.071 287.635C843.209 288.33 844.608 288.975 845.266 289.571C845.76 290.067 845.842 291.158 845.513 292.845C845.184 294.532 844.813 296.07 844.402 297.46L834.161 294.632C834.655 293.243 834.901 291.705 834.901 290.018C834.983 288.231 834.901 286.743 834.654 285.552ZM945.274 285.552C947.413 286.147 949.551 286.842 951.69 287.635C953.829 288.33 955.227 288.975 955.885 289.571C956.379 290.067 956.461 291.158 956.132 292.845C955.803 294.532 955.433 296.07 955.022 297.46L944.78 294.632C945.274 293.243 945.52 291.705 945.52 290.018C945.602 288.231 945.52 286.743 945.274 285.552ZM403.885 288.015C404.467 288.161 404.903 288.308 405.194 288.454C405.558 288.601 406.322 288.856 407.486 289.222L407.05 291.304L403.339 289.551L403.885 288.015ZM663.754 288.234L668.339 289.222C667.83 289.441 667.247 289.66 666.592 289.879C665.937 290.099 665.21 290.245 664.409 290.318C663.318 290.318 662.227 290.135 661.135 289.77C662.227 289.404 663.1 288.892 663.754 288.234ZM638.322 289.66L640.832 290.318L638.758 290.647L635.702 289.989L638.322 289.66ZM399.627 290.099H402.466C402.538 290.245 402.684 290.391 402.902 290.537C403.121 290.683 403.848 291.049 405.085 291.633H402.466L399.627 290.099ZM833.297 295.674L841.564 297.906L815.529 300.139L806.274 297.46C807.673 297.46 809.318 297.361 811.21 297.162C813.102 296.964 815.323 296.864 817.873 296.864C818.531 296.864 820.136 296.765 822.686 296.567C825.318 296.269 828.855 295.971 833.297 295.674ZM943.916 295.674L952.184 297.906L926.148 300.139L916.893 297.46C918.292 297.46 919.937 297.361 921.829 297.162C923.721 296.964 925.942 296.864 928.492 296.864C929.15 296.864 930.755 296.765 933.305 296.567C935.937 296.269 939.474 295.971 943.916 295.674ZM988.735 298.502L995.151 300.139C994.493 300.139 993.671 300.189 992.684 300.288C991.779 300.387 990.503 300.437 988.858 300.437C988.364 300.437 987.789 300.338 987.131 300.139C986.473 300.04 985.897 299.841 985.403 299.544C986.144 299.544 986.76 299.445 987.254 299.246C987.748 299.048 988.241 298.8 988.735 298.502ZM371.933 307.585C371.632 307.585 371.4 307.663 371.238 307.818C371.083 307.974 371.006 308.195 371.006 308.482C371.006 308.559 371.022 308.687 371.053 308.866L371.771 313.043H372.118L372.837 308.866C372.867 308.664 372.883 308.532 372.883 308.47C372.883 308.183 372.798 307.966 372.628 307.818C372.466 307.663 372.234 307.585 371.933 307.585ZM375.548 307.585C375.247 307.585 375.015 307.663 374.853 307.818C374.698 307.974 374.621 308.195 374.621 308.482C374.621 308.559 374.637 308.687 374.668 308.866L375.386 313.043H375.733L376.452 308.866C376.482 308.664 376.498 308.532 376.498 308.47C376.498 308.183 376.413 307.966 376.243 307.818C376.081 307.663 375.849 307.585 375.548 307.585ZM393.298 307.585C392.997 307.585 392.765 307.663 392.603 307.818C392.448 307.974 392.371 308.195 392.371 308.482C392.371 308.559 392.386 308.687 392.417 308.866L393.136 313.043H393.483L394.202 308.866C394.233 308.664 394.248 308.532 394.248 308.47C394.248 308.183 394.163 307.966 393.993 307.818C393.831 307.663 393.599 307.585 393.298 307.585ZM396.913 307.585C396.612 307.585 396.38 307.663 396.218 307.818C396.064 307.974 395.986 308.195 395.986 308.482C395.986 308.559 396.001 308.687 396.032 308.866L396.751 313.043H397.098L397.817 308.866C397.848 308.664 397.863 308.532 397.863 308.47C397.863 308.183 397.778 307.966 397.608 307.818C397.446 307.663 397.214 307.585 396.913 307.585ZM623.118 307.847V321.996C623.118 322.826 622.55 323.241 621.414 323.241V325.22C622.851 325.22 623.871 324.932 624.473 324.358C625.083 323.777 625.389 322.989 625.389 321.996V310.686L633.059 325.22H636.211V311.07C636.211 310.24 636.779 309.825 637.914 309.825V307.847C636.477 307.847 635.454 308.138 634.843 308.72C634.241 309.294 633.94 310.077 633.94 311.07V322.38L626.27 307.847H623.118ZM532.279 308.545C529.244 308.545 527.108 311.081 525.872 316.155C525.872 317.877 526.262 319.631 527.042 321.415C528.679 323.952 530.618 325.22 532.858 325.22C536.473 325.22 538.999 322.683 540.436 317.61V316.155C540.436 312.71 538.883 310.174 535.778 308.545H532.279ZM733.793 308.568L733.202 308.859C732.043 314.507 731.271 317.33 730.885 317.33C730.104 314.545 729.714 312.889 729.714 312.361C729.714 310.5 729.135 309.429 727.977 309.15H725.937C725.35 309.15 725.057 310.515 725.057 313.246C723.968 317.699 722.612 320.911 720.99 322.881C720.99 323.975 722.152 324.657 724.477 324.929H725.358C726.709 323.719 727.386 321.966 727.386 319.669H727.977C729.205 322.788 730.174 324.347 730.885 324.347C731.726 324.347 732.792 322.594 734.082 319.087H734.372C734.372 319.964 734.468 320.546 734.662 320.833H734.372C734.372 321.206 734.565 321.791 734.951 322.59H734.662C735.388 324.297 735.971 325.173 736.411 325.22H736.701C739.026 324.669 740.188 323.696 740.188 322.299V322.008C738.056 319.045 736.99 315.247 736.99 310.616C737.183 310.236 737.28 309.941 737.28 309.731L735.531 308.568H733.793ZM544.654 308.603C544.237 308.603 542.858 309.79 540.517 312.164C540.517 312.893 541.011 313.684 542 314.538C546.125 317.106 548.192 318.49 548.199 318.692V318.983C547.944 318.983 546.666 319.875 544.364 321.659C545.02 324.033 545.808 325.22 546.728 325.22C547.84 324.623 548.922 323.731 549.972 322.544C553.124 318.332 554.699 314.278 554.699 310.384C554.02 309.592 553.035 309.197 551.745 309.197C551.621 309.197 551.13 311.074 550.273 314.828H549.972C547.191 312.742 545.419 310.667 544.654 308.603ZM684.666 308.603C684.666 308.696 684.206 308.859 683.287 309.092C682.329 309.542 681.352 310.395 680.356 311.652C679.213 313.521 678.459 315.915 678.096 318.832V320.6C678.096 320.841 678.065 321.136 678.003 321.485C678.065 322.098 678.197 322.656 678.397 323.16C679.456 324.541 680.599 325.231 681.827 325.231H682.708L682.904 325.325C683.7 325.131 684.418 324.836 685.059 324.44C686.512 323.672 687.489 322.524 687.991 320.996C687.991 320.926 687.96 320.829 687.899 320.705L688.281 319.914L688.188 319.425C688.205 319.379 688.218 319.324 688.234 319.276C689.21 320.518 690.034 321.148 690.702 321.148V321.508H690.343V321.694H690.702V322.415C690.702 323.067 690.278 323.858 689.428 324.789C689.428 325.037 689.551 325.161 689.799 325.161H690.158L691.432 324.068C693.958 321.617 695.353 319.301 695.615 317.121L695.43 316.388C695.43 315.162 694.522 314.251 692.707 313.653C691.37 313.653 690.702 313.898 690.702 314.386C689.863 314.842 689.22 315.335 688.769 315.863C688.774 315.804 688.779 315.745 688.779 315.69L688.385 313.025C687.906 311.186 687.153 309.976 686.126 309.394C686.126 309.294 685.802 309.03 685.153 308.603H685.06L684.863 308.696C684.863 308.634 684.828 308.603 684.759 308.603H684.666ZM662.072 308.65C661.23 308.65 660.249 308.677 659.129 308.731C657.908 309.127 657.291 309.41 657.275 309.581C657.09 309.581 656.835 310.256 656.511 311.605C656.093 312.777 655.842 313.37 655.757 313.386C655.757 313.44 655.784 313.468 655.838 313.468C655.838 313.607 655.448 314.902 654.668 317.354C654.985 317.85 655.236 318.188 655.421 318.366L657.275 319.553C657.391 319.553 657.615 319.809 657.947 320.321L657.866 320.484V320.565L658.028 320.484L658.202 320.565C657.816 321.077 657.422 321.333 657.02 321.333H656.267C655.279 321.333 654.463 321.077 653.822 320.565H653.567C653.173 320.813 652.976 321.407 652.976 322.346V322.508L653.069 322.683H652.976C652.976 323.188 653.2 323.75 653.648 324.37C653.911 324.766 654.475 325.049 655.34 325.22C655.788 325.166 656.124 325.08 656.348 324.964L656.511 325.045C656.511 324.991 656.904 324.852 657.692 324.627L657.866 324.708V324.627C658.646 324.541 659.036 324.428 659.036 324.289C660.164 323.932 661.118 323.397 661.898 322.683C663.644 320.992 664.516 319.499 664.516 318.203C664.393 317.396 664.084 316.776 663.59 316.341C663.003 315.759 662.048 315.364 660.728 315.154C660.728 315.216 660.697 315.247 660.635 315.247H660.554L660.392 315.154V315.247L659.801 315.154H658.619V314.992H658.538V315.154H658.364V315.073L658.457 314.91H658.364C658.48 314.514 658.592 314.204 658.7 313.979H658.619C658.619 313.886 658.677 313.658 658.793 313.293C658.793 313.014 659.492 312.874 660.89 312.874H661.4C661.577 312.874 661.941 312.959 662.489 313.13C662.489 313.052 662.771 312.994 663.335 312.955L664.088 311.687C664.297 311.237 664.439 311.012 664.516 311.012C664.879 310.616 665.104 310.419 665.189 310.419C665.32 310.419 665.544 310.027 665.861 309.244C665.822 308.902 665.571 308.731 665.107 308.731H664.262L663.845 308.65C663.845 308.704 663.813 308.731 663.752 308.731C663.752 308.677 663.725 308.65 663.671 308.65H662.072ZM521.214 308.708C516.51 309.104 514.158 309.597 514.158 310.186C514.158 312.149 514.745 313.13 515.919 313.13V314.898C515.919 316.721 515.235 318.983 513.868 321.682C513.868 323.017 515.139 324.196 517.68 325.22C517.68 325.026 517.877 324.929 518.271 324.929V324.627L517.981 324.044L518.56 323.742H518.862C518.862 324.138 519.352 324.533 520.333 324.929H522.095C524.636 324.316 525.906 322.842 525.906 320.507C525.906 318.203 524.439 316.826 521.504 316.376L519.441 316.667V312.838C520.09 312.838 521.658 313.033 524.146 313.421C525.003 313.421 525.59 312.145 525.906 309.593C525.906 309.003 524.342 308.708 521.214 308.708ZM672.384 308.754C672.06 308.754 671.712 308.805 671.341 308.906L671.19 308.836C669.923 309.162 668.931 309.709 668.213 310.477C667.371 310.95 666.95 311.822 666.95 313.095V313.549L667.39 314.224C668.526 315.17 669.395 315.643 669.997 315.643C670.283 315.24 670.483 315.038 670.599 315.038L670.519 314.898C670.611 314.898 670.936 314.596 671.492 313.99C671.84 314.045 672.013 314.146 672.013 314.293L671.793 314.444C671.793 314.491 671.816 314.514 671.863 314.514L671.793 314.666L671.04 315.341C670.978 315.341 670.21 316.14 668.734 317.738C668.116 318.42 667.521 319.169 666.95 319.984C666.502 321.015 666.177 322.012 665.976 322.974C665.976 323.323 666.969 323.649 668.955 323.951L672.314 324.394C673.156 324.898 673.975 325.15 674.77 325.15C675.203 325.096 675.574 325.069 675.883 325.069C675.983 325.069 676.034 325.045 676.034 324.999C676.482 324.999 676.953 324.223 677.447 322.672L677.378 322.532C677.378 322.478 677.401 322.4 677.447 322.3C677.447 322.075 677.273 321.775 676.926 321.403C676.926 321.116 675.609 320.841 672.975 320.577C672.975 320.631 672.952 320.658 672.905 320.658C672.813 320.619 672.442 320.569 671.793 320.507C671.947 320.275 672.442 319.898 673.276 319.378L673.206 319.239C673.345 319.239 673.917 318.715 674.921 317.668C675.254 317.311 675.652 316.783 676.115 316.085C677.05 314.735 677.594 313.564 677.749 312.571C677.702 312.571 677.679 312.548 677.679 312.501C677.726 312.501 677.749 312.475 677.749 312.42V312.35L677.679 312.199H677.749C677.702 312.09 677.652 311.865 677.598 311.524C677.026 310.531 676.628 310.035 676.404 310.035C676.404 309.67 675.485 309.243 673.647 308.754C673.647 308.808 673.624 308.836 673.578 308.836H673.496L673.056 308.754L672.905 308.836C672.82 308.781 672.72 308.754 672.604 308.754H672.384ZM385.107 309.401C384.342 309.401 383.871 309.509 383.693 309.727C382.079 309.897 380.723 311.433 379.627 314.335C379.627 315.498 380.202 316.08 381.353 316.08L381.41 316.208L381.723 316.348C382.666 316.084 383.697 315.316 384.817 314.044C385.195 314.044 385.582 314.625 385.976 315.789C385.783 315.789 385.686 315.886 385.686 316.08V317.523C385.508 317.523 384.74 317.329 383.381 316.941H381.932C380.65 317.585 379.592 318.555 378.758 319.85C378.758 323.132 380.202 325.063 383.091 325.645L385.397 324.481H385.686C385.686 325.451 385.879 325.936 386.266 325.936H386.555C387.459 325.936 388.614 325.261 390.02 323.912C390.02 323.33 389.73 321.879 389.151 319.559V318.396L389.44 316.371C389.447 316.27 389.475 316.158 389.521 316.033C389.467 315.723 389.44 315.351 389.44 314.916V314.626C389.44 311.143 387.996 309.401 385.107 309.401ZM347.532 309.459C344.836 309.576 343.489 309.676 343.489 309.762C342.778 309.762 342.191 310.223 341.727 311.146L341.426 310.914C341.426 310.968 341.399 311.045 341.345 311.146L341.426 311.53C341.04 312.67 340.607 313.563 340.128 314.207C340.128 314.277 339.901 314.661 339.445 315.359L339.294 315.289C339.24 315.289 338.881 315.669 338.217 316.429C337.405 316.856 337 317.317 337 317.814C337 318.783 337.205 319.602 337.615 320.269C337.653 320.34 337.691 320.404 337.729 320.469C337.744 320.457 337.762 320.447 337.788 320.444V320.537H337.768C338.185 321.226 338.589 321.573 338.981 321.573H339.063C340.044 320.805 341.187 319.397 342.492 317.349H342.573L342.11 319.955H342.191C342.037 320.692 341.96 321.359 341.96 321.957V322.329L341.878 322.492C341.932 322.492 341.96 322.515 341.96 322.561C341.96 322.678 341.932 322.782 341.878 322.876C341.932 322.961 341.96 323.062 341.96 323.179V324.331C341.96 324.656 341.986 324.986 342.04 325.319C342.04 325.412 342.141 325.591 342.342 325.855C342.396 325.855 342.423 325.831 342.423 325.785L342.956 325.936C344.161 325.867 345.049 325.739 345.62 325.552L346.003 325.633C346.057 325.633 346.084 325.607 346.084 325.552C346.64 325.552 346.918 325.145 346.918 324.331L346.467 322.713C346.467 322.053 346.312 321.134 346.003 319.955L346.084 319.804L346.003 319.35V318.733L346.084 318.349C346.03 318.349 346.003 318.322 346.003 318.268L346.154 318.198C346.053 318.027 346.003 317.872 346.003 317.733V317.197C346.003 316.763 346.053 316.433 346.154 316.208L346.003 316.127C346.065 315.646 346.115 315.339 346.154 315.207C346.107 315.114 346.084 315.014 346.084 314.905V314.591L346.154 314.439H346.084C346.3 313.159 346.428 312.519 346.467 312.519C346.467 311.557 346.872 310.638 347.683 309.762V309.692L347.532 309.459ZM337.768 320.537C337.755 320.515 337.742 320.491 337.729 320.469C337.709 320.485 337.695 320.506 337.695 320.537H337.768ZM360.44 309.459C357.744 309.576 356.396 309.676 356.396 309.762C355.685 309.762 355.098 310.223 354.635 311.146L354.333 310.914C354.333 310.968 354.307 311.045 354.253 311.146L354.333 311.53C353.947 312.67 353.515 313.563 353.036 314.207C353.036 314.277 352.808 314.661 352.352 315.359L352.202 315.289C352.148 315.289 351.789 315.669 351.124 316.429C350.313 316.856 349.908 317.317 349.908 317.814C349.908 318.783 350.112 319.602 350.521 320.269C350.56 320.34 350.598 320.404 350.636 320.469C350.651 320.457 350.669 320.447 350.695 320.444V320.537H350.675C351.092 321.226 351.497 321.573 351.889 321.573H351.97C352.951 320.805 354.094 319.397 355.4 317.349H355.48L355.017 319.955H355.098C354.943 320.692 354.866 321.359 354.866 321.957V322.329L354.785 322.492C354.839 322.492 354.866 322.515 354.866 322.561C354.866 322.678 354.839 322.782 354.785 322.876C354.839 322.961 354.866 323.062 354.866 323.179V324.331C354.866 324.656 354.894 324.986 354.948 325.319C354.948 325.412 355.048 325.591 355.249 325.855C355.303 325.855 355.33 325.831 355.33 325.785L355.863 325.936C357.068 325.867 357.956 325.739 358.528 325.552L358.91 325.633C358.965 325.633 358.991 325.607 358.991 325.552C359.547 325.552 359.825 325.145 359.825 324.331L359.373 322.713C359.373 322.053 359.219 321.134 358.91 319.955L358.991 319.804L358.91 319.35V318.733L358.991 318.349C358.937 318.349 358.91 318.322 358.91 318.268L359.061 318.198C358.96 318.027 358.91 317.872 358.91 317.733V317.197C358.91 316.763 358.96 316.433 359.061 316.208L358.91 316.127C358.972 315.646 359.022 315.339 359.061 315.207C359.014 315.114 358.991 315.014 358.991 314.905V314.591L359.061 314.439H358.991C359.207 313.159 359.335 312.519 359.373 312.519C359.373 311.557 359.779 310.638 360.59 309.762V309.692L360.44 309.459ZM350.675 320.537C350.662 320.515 350.649 320.491 350.636 320.469C350.616 320.485 350.603 320.506 350.603 320.537H350.675ZM674.84 309.581H674.991V309.801C674.906 309.801 674.855 309.751 674.84 309.651V309.581ZM524.146 309.593H524.736V310.186C524.404 310.186 524.207 309.988 524.146 309.593ZM658.7 309.662H658.793V309.837C658.6 309.837 658.26 310.061 657.773 310.511C657.773 310.077 658.082 309.793 658.7 309.662ZM536.357 309.72C536.744 309.72 536.937 309.914 536.937 310.302V310.593C536.613 310.593 536.419 310.399 536.357 310.011V309.72ZM665.687 309.743V309.837H665.861V309.743H665.687ZM342.492 309.843V309.924H342.643V309.843H342.492ZM355.4 309.843V309.924H355.55V309.843H355.4ZM543.773 310.08C544.167 310.08 544.364 310.278 544.364 310.674H543.472L543.773 310.08ZM515.34 310.186H515.919C515.919 310.574 515.726 310.767 515.34 310.767V310.186ZM674.168 310.325C674.995 310.325 675.566 310.775 675.883 311.675C675.782 311.877 675.71 311.977 675.663 311.977H675.594C674.875 311.326 674.276 310.876 673.797 310.628C673.82 310.527 673.944 310.426 674.168 310.325ZM728.266 310.325L728.845 310.616V311.197H728.556C728.556 310.988 728.459 310.697 728.266 310.325ZM736.121 310.325H736.411V310.907H736.121V310.325ZM505.224 310.337H505.827C505.827 310.732 505.626 310.93 505.224 310.93V310.337ZM665.515 310.402C665.495 310.402 665.471 310.409 665.444 310.418C665.444 310.535 665.498 310.593 665.606 310.593V310.511C665.606 310.435 665.575 310.399 665.515 310.402ZM346.003 310.459C346.057 310.459 346.107 310.533 346.154 310.681C346.154 311.154 345.976 311.643 345.62 312.147H345.551C345.551 311.937 345.397 311.449 345.088 310.681V310.611C345.25 310.611 345.555 310.56 346.003 310.459ZM358.91 310.459C358.965 310.459 359.014 310.533 359.061 310.681C359.061 311.154 358.883 311.643 358.528 312.147H358.459C358.459 311.937 358.304 311.449 357.995 310.681V310.611C358.157 310.611 358.462 310.56 358.91 310.459ZM552.927 310.674H553.228C553.622 310.674 553.819 310.872 553.819 311.267H553.518C553.185 311.267 552.988 311.069 552.927 310.674ZM667.17 311V311.151H667.321C667.321 311.066 667.27 311.015 667.17 311ZM677.528 311V311.151H677.598V311H677.528ZM387.424 311.146L388.004 311.437V311.728L387.424 311.437V311.146ZM675.512 311.605V311.757H675.663C675.663 311.671 675.613 311.621 675.512 311.605ZM532.858 312.059H533.449C535.141 312.059 536.304 313.032 536.937 314.979C536.62 317.322 535.555 318.493 533.739 318.493C531.994 318.493 530.924 317.419 530.53 315.271C530.53 313.967 531.306 312.897 532.858 312.059ZM341.044 312.065V312.217H341.125V312.065H341.044ZM353.951 312.065V312.217H354.032V312.065H353.951ZM685.94 312.14H686.033C686.295 312.746 686.427 313.335 686.427 313.909L686.323 314.107H686.427C686.296 314.324 686.23 314.491 686.23 314.607H686.126V314.502C686.126 314.433 686.16 314.335 686.23 314.211C686.23 314.103 686.164 314.037 686.033 314.014V314.211H685.94V314.107C686.002 313.998 686.033 313.87 686.033 313.723L685.94 313.223C686.002 313.223 686.033 313.191 686.033 313.129C685.955 313.129 685.89 312.997 685.836 312.733L685.94 312.14ZM381.643 312.88L381.353 314.043H380.774V313.753C381.075 313.171 381.364 312.88 381.643 312.88ZM589.946 313.234C587.76 313.234 586.222 315.057 585.334 318.703C585.334 319.945 585.612 321.205 586.168 322.485C587.35 324.308 588.748 325.22 590.363 325.22C592.958 325.22 594.773 323.396 595.808 319.75V318.703C595.808 316.229 594.688 314.405 592.448 313.234H589.946ZM744.835 313.234C742.649 313.234 741.111 315.057 740.223 318.703C740.223 319.945 740.501 321.205 741.057 322.485C742.239 324.308 743.638 325.22 745.252 325.22C747.847 325.22 749.662 323.396 750.698 319.75V318.703C750.698 316.229 749.578 314.405 747.338 313.234H744.835ZM707.132 313.292C705.772 314.006 704.289 314.363 702.683 314.363C702.404 314.215 702.193 314.141 702.046 314.141C701.837 314.359 701.694 314.502 701.617 314.572C702.042 316.612 702.254 318.245 702.254 319.471C702.254 321.48 702.042 323.183 701.617 324.579C701.702 325.006 702.265 325.22 703.308 325.22H704.803L705.011 324.149V321.81C705.011 320.515 704.73 318.951 704.166 317.121C706.622 316.841 708.106 316.418 708.615 315.852C708.09 314.145 707.665 313.292 707.34 313.292H707.132ZM611.438 313.339C610.882 313.339 610.604 313.478 610.604 313.757C609.322 313.757 608.287 314.801 607.499 316.887C607.499 317.717 607.912 318.133 608.739 318.133L609.156 317.924V318.133C609.728 318.071 610.419 317.586 611.23 316.678C611.5 316.678 611.778 317.093 612.064 317.924C611.925 317.924 611.855 317.993 611.855 318.133V319.18C611.732 319.18 611.18 319.041 610.199 318.761H609.156C608.237 319.219 607.476 319.913 606.874 320.844C606.874 323.202 607.912 324.591 609.99 325.01L611.647 324.172H611.855C611.855 324.87 611.995 325.22 612.273 325.22H612.481C613.13 325.22 613.961 324.734 614.973 323.765C614.973 323.346 614.764 322.302 614.347 320.635V319.797L614.556 318.342C614.417 318.342 614.347 318.273 614.347 318.133C614.486 317.892 614.556 317.613 614.556 317.295V317.086C614.556 314.588 613.516 313.339 611.438 313.339ZM774.948 313.339C773.874 313.781 773.338 314.118 773.338 314.351V316.562C773.338 317.586 772.805 319.801 771.739 323.207V323.404C773.207 324.475 773.94 325.08 773.94 325.22C774.612 325.22 774.948 324.882 774.948 324.207C777.057 324.75 778.258 325.021 778.552 325.021C778.552 324.882 779.023 324.68 779.965 324.417C780.9 323.773 781.367 322.563 781.367 320.786C780.456 319.584 779.919 318.983 779.757 318.983H779.56C780.224 317.765 780.556 317.023 780.556 316.76V316.364C780.556 315.123 779.687 314.251 777.949 313.746C777.88 313.746 777.146 313.878 775.747 314.141C775.747 313.606 775.612 313.339 775.342 313.339H774.948ZM785.979 313.339C785.423 313.339 785.144 313.478 785.144 313.757C783.862 313.757 782.827 314.801 782.039 316.887C782.039 317.717 782.453 318.133 783.279 318.133L783.696 317.924V318.133C784.268 318.071 784.959 317.586 785.77 316.678C786.04 316.678 786.319 317.093 786.604 317.924C786.465 317.924 786.396 317.993 786.396 318.133V319.18C786.272 319.18 785.72 319.041 784.739 318.761H783.696C782.777 319.219 782.016 319.913 781.413 320.844C781.413 323.202 782.453 324.591 784.531 325.01L786.187 324.172H786.396C786.396 324.87 786.535 325.22 786.813 325.22H787.021C787.67 325.22 788.5 324.734 789.512 323.765C789.512 323.346 789.304 322.302 788.887 320.635V319.797L789.095 318.342C788.956 318.342 788.887 318.273 788.887 318.133C789.026 317.892 789.095 317.613 789.095 317.295V317.086C789.095 314.588 788.057 313.339 785.979 313.339ZM682.8 313.42C683.063 313.42 683.26 313.882 683.391 314.805H683.287C683.287 314.867 683.321 314.898 683.391 314.898C683.391 317.38 682.607 319.087 681.039 320.018H680.842C680.842 319.871 680.811 319.739 680.749 319.622C680.826 319.622 680.888 319.161 680.935 318.238V318.144L680.749 318.238V317.551C680.958 317.365 681.186 317.004 681.433 316.469V316.376L681.236 316.469C681.236 316.213 681.495 315.755 682.012 315.096C682.012 314.987 681.95 314.921 681.827 314.898H681.722V315.096H681.433C681.433 314.964 681.529 314.898 681.722 314.898C681.722 314.836 681.692 314.805 681.63 314.805L682.012 314.107H682.117L681.92 314.502H682.012C682.12 314.502 682.252 314.274 682.407 313.816C682.669 313.645 682.8 313.513 682.8 313.42ZM581.812 313.443C581.039 315.165 580.356 316.336 579.761 316.957L579.553 315.922L579.761 315.096C579.622 315.096 579.553 315.026 579.553 314.886C579.692 314.886 579.761 314.821 579.761 314.689V314.479C579.761 314.247 579.622 314.107 579.344 314.06H579.135C578.811 314.06 578.197 314.27 577.293 314.689C576.876 317.877 576.188 320.906 575.231 323.776V323.783C574.815 321.752 574.605 320.044 574.605 318.668V318.447C574.605 317.765 574.821 316.527 575.253 314.735C575.253 314.293 574.674 314.002 573.516 313.862H573.296C572.23 313.862 571.577 315.682 571.337 319.32V319.971L571.558 321.507H571.117L570.028 321.287V319.099C570.028 318.773 570.101 318.482 570.248 318.226C570.101 317.97 570.028 317.679 570.028 317.353V314.072C570.028 313.831 569.885 313.687 569.599 313.641H567.201C566.962 313.641 566.746 314.15 566.552 315.166C566.846 316.578 566.992 318.544 566.992 321.065H565.683L565.243 321.287L565.034 320.844V318.447C564.802 315.243 564.366 313.641 563.725 313.641H561.118C560.871 313.641 560.724 313.785 560.678 314.072C561.69 317.656 562.196 320.716 562.196 323.253C562.196 324.129 563.358 324.567 565.683 324.567H568.939L569.379 324.777V324.567C570.677 324.854 572.199 325.072 573.944 325.22C574.703 324.99 575.131 324.629 575.231 324.135V324.801C576.984 325.08 578.011 325.22 578.312 325.22C578.822 325.22 579.166 324.048 579.344 321.706V321.496H579.553C581.159 323.839 582.117 325.01 582.426 325.01L584.894 323.776C584.894 322.496 583.661 320.91 581.197 319.017C583.492 316.899 584.863 315.181 585.311 313.862C585.311 313.63 585.172 313.49 584.894 313.443L581.812 313.443ZM768.216 313.443C767.444 315.165 766.76 316.336 766.166 316.957L765.957 315.922L766.166 315.096C766.027 315.096 765.957 315.026 765.957 314.886C766.096 314.886 766.166 314.821 766.166 314.689V314.479C766.166 314.247 766.027 314.107 765.749 314.06H765.54C765.216 314.06 764.601 314.27 763.698 314.689C763.281 317.877 762.593 320.906 761.635 323.776V324.8C763.388 325.08 764.416 325.219 764.718 325.219C765.227 325.219 765.571 324.048 765.749 321.705V321.496H765.957C767.564 323.839 768.521 325.01 768.83 325.01L771.298 323.776C771.298 322.496 770.067 320.91 767.603 319.017C769.897 316.899 771.267 315.181 771.715 313.862C771.715 313.629 771.576 313.49 771.298 313.443H768.216ZM756.028 313.455L754.382 313.862C752.049 314.762 750.883 316.62 750.883 319.436C750.883 320.313 751.157 321.414 751.706 322.741C753.011 324.393 754.382 325.219 755.819 325.219H757.047C758.769 325.219 760.21 324.323 761.369 322.531V322.124C761.361 321.93 761.018 321.654 760.338 321.298H759.932L758.287 322.531H757.464C756.259 322.531 755.367 321.57 754.787 319.646C755.065 317.303 755.819 316.131 757.047 316.131C757.734 316.131 758.078 316.476 758.078 317.166C758.078 317.508 758.009 318.059 757.87 318.819C757.877 319.005 758.221 319.281 758.901 319.646H759.932C760.38 319.646 760.724 318.819 760.964 317.166V316.957L760.755 315.515C759.836 314.142 758.26 313.455 756.028 313.455ZM600.906 313.501C600.767 313.765 600.698 313.971 600.698 314.118C600.103 317.857 599.08 320.324 597.628 321.519C596.538 322.388 595.994 322.935 595.994 323.16C597.276 324.533 598.025 325.219 598.241 325.219C598.798 325.219 600.026 324.056 601.926 321.728C602.953 323.404 603.841 324.568 604.591 325.219C606.228 324.389 607.047 323.703 607.047 323.16C604.591 321.073 603.363 318.47 603.363 315.351C603.363 314.389 602.544 313.773 600.906 313.501ZM694.166 313.839C694.166 314.079 694.286 314.2 694.526 314.2V313.839H694.166ZM774.543 313.944H774.948V314.141H774.543V313.944ZM434.963 314.055C434.406 314.055 434.128 314.194 434.128 314.474C432.846 314.474 431.811 315.517 431.023 317.604C431.023 318.434 431.436 318.849 432.262 318.849L432.68 318.64V318.849C433.251 318.787 433.943 318.302 434.754 317.394C435.024 317.394 435.302 317.81 435.588 318.64C435.449 318.64 435.38 318.709 435.38 318.849V319.896C435.256 319.896 434.703 319.757 433.722 319.478H432.68C431.76 319.935 431 320.629 430.397 321.56C430.397 323.918 431.436 325.307 433.514 325.726L435.171 324.888H435.38C435.38 325.587 435.519 325.936 435.797 325.936H436.005C436.654 325.936 437.484 325.45 438.496 324.481C438.496 324.062 438.288 323.019 437.871 321.351V320.513L438.079 319.059C437.94 319.059 437.871 318.989 437.871 318.849C438.01 318.609 438.079 318.329 438.079 318.011V317.802C438.079 315.304 437.04 314.055 434.963 314.055ZM592.877 314.071C593.155 314.071 593.294 314.211 593.294 314.49V314.7C593.054 314.7 592.915 314.56 592.877 314.281V314.071ZM747.766 314.071C748.044 314.071 748.183 314.211 748.183 314.49V314.7C747.944 314.7 747.805 314.56 747.766 314.281V314.071ZM686.821 314.107H687.018V314.607H686.717L686.821 314.107ZM640.926 314.153C640.131 314.153 639.455 314.526 638.899 315.27C638.342 316.007 638.064 316.911 638.064 317.981C638.064 319.052 638.342 319.96 638.899 320.704C639.455 321.441 640.131 321.81 640.926 321.81C641.722 321.81 642.398 321.441 642.954 320.704C643.51 319.96 643.788 319.052 643.788 317.981C643.788 316.911 643.51 316.007 642.954 315.27C642.398 314.526 641.722 314.153 640.926 314.153ZM413.724 314.16C412.952 315.882 412.268 317.053 411.674 317.674L411.465 316.638L411.674 315.812C411.535 315.812 411.465 315.743 411.465 315.603C411.604 315.603 411.674 315.537 411.674 315.405V315.195C411.674 314.962 411.535 314.823 411.256 314.776H411.048C410.724 314.776 410.109 314.986 409.206 315.405C408.789 318.593 408.102 321.623 407.144 324.493V325.517C408.897 325.796 409.924 325.936 410.225 325.936C410.735 325.936 411.079 324.764 411.256 322.421V322.212H411.465C413.072 324.555 414.03 325.727 414.339 325.727L416.807 324.493C416.807 323.213 415.575 321.626 413.111 319.733C415.405 317.616 416.776 315.897 417.224 314.579C417.224 314.346 417.085 314.206 416.807 314.16H413.724ZM444.706 314.172L443.061 314.579C440.728 315.479 439.562 317.336 439.562 320.152C439.562 321.029 439.836 322.131 440.384 323.457C441.69 325.11 443.061 325.936 444.498 325.936H445.726C447.448 325.936 448.889 325.04 450.048 323.248V322.84C450.04 322.646 449.696 322.371 449.017 322.014H448.611L446.966 323.248H446.143C444.938 323.248 444.046 322.286 443.466 320.362C443.744 318.019 444.497 316.848 445.726 316.848C446.413 316.848 446.757 317.193 446.757 317.883C446.757 318.224 446.688 318.776 446.549 319.536C446.556 319.722 446.9 319.997 447.58 320.362H448.611C449.059 320.362 449.403 319.536 449.642 317.883V317.674L449.434 316.231C448.515 314.858 446.939 314.172 444.706 314.172ZM456.594 314.172L454.949 314.579C452.616 315.479 451.449 317.336 451.449 320.152C451.449 321.029 451.724 322.131 452.272 323.457C453.578 325.11 454.948 325.936 456.385 325.936H457.613C459.336 325.936 460.777 325.04 461.935 323.248V322.84C461.928 322.646 461.584 322.371 460.904 322.014H460.498L458.853 323.248H458.031C456.825 323.248 455.933 322.286 455.354 320.362C455.632 318.019 456.385 316.848 457.613 316.848C458.301 316.848 458.644 317.193 458.644 317.883C458.644 318.224 458.575 318.776 458.436 319.536C458.443 319.722 458.788 319.997 459.467 320.362H460.498C460.946 320.362 461.29 319.536 461.529 317.883V317.674L461.321 316.231C460.402 314.858 458.826 314.172 456.594 314.172ZM423.295 314.218C423.156 314.481 423.087 314.687 423.087 314.835C422.492 318.574 421.468 321.041 420.016 322.236C418.927 323.104 418.382 323.651 418.382 323.876C419.664 325.249 420.413 325.936 420.63 325.936C421.186 325.936 422.414 324.772 424.314 322.445C425.342 324.121 426.23 325.284 426.98 325.936C428.617 325.106 429.436 324.419 429.436 323.876C426.979 321.79 425.751 319.186 425.751 316.068C425.751 315.106 424.933 314.489 423.295 314.218ZM671.19 314.444C671.105 314.444 671.056 314.495 671.04 314.595H671.121C671.221 314.595 671.272 314.545 671.272 314.444H671.19ZM685.639 314.503H685.836C685.836 314.634 685.77 314.7 685.639 314.7V314.503ZM778.552 314.549H778.957V314.944C778.733 314.944 778.598 314.813 778.552 314.549ZM702.463 314.572H702.891C702.891 314.852 702.749 314.991 702.463 314.991V314.572ZM613.096 314.583L613.513 314.793V315.003L613.096 314.793V314.583ZM787.635 314.583L788.052 314.793V315.003L787.635 314.793V314.583ZM655.34 314.653V314.816H655.421V314.653H655.34ZM758.692 314.689H759.318V315.096H759.109C758.878 315.096 758.739 314.96 758.692 314.689ZM659.036 314.816V314.909H659.21V314.816H659.036ZM669.476 314.816C669.638 314.917 669.789 314.967 669.928 314.967L669.846 315.119L669.476 315.037V314.816ZM436.619 315.299L437.036 315.509V315.718L436.619 315.509V315.299ZM447.371 315.404H447.997V315.812H447.788C447.556 315.812 447.417 315.676 447.371 315.404ZM459.259 315.404H459.885V315.812H459.676C459.444 315.812 459.305 315.676 459.259 315.404ZM669.035 315.561V315.642H669.186V315.561H669.035ZM670.368 315.642V315.712H670.519V315.642H670.368ZM338.529 315.742V315.893H338.599V315.742H338.529ZM351.437 315.742V315.893H351.507V315.742H351.437ZM590.363 315.759H590.78C591.993 315.759 592.83 316.461 593.294 317.865C593.062 319.541 592.294 320.379 590.988 320.379C589.729 320.379 588.961 319.61 588.683 318.074C588.683 317.135 589.243 316.364 590.363 315.759ZM745.252 315.759H745.669C746.882 315.759 747.72 316.461 748.183 317.865C747.951 319.541 747.183 320.379 745.878 320.379C744.619 320.379 743.85 319.61 743.572 318.074C743.572 317.135 744.132 316.364 745.252 315.759ZM608.947 315.84L608.739 316.678H608.322V316.469C608.538 316.05 608.747 315.84 608.947 315.84ZM783.488 315.84L783.279 316.678H782.862V316.469C783.078 316.05 783.287 315.84 783.488 315.84ZM640.926 315.875C641.313 315.875 641.614 316.077 641.83 316.48C642.054 316.876 642.166 317.376 642.166 317.981C642.166 318.586 642.054 319.091 641.83 319.494C641.614 319.89 641.313 320.088 640.926 320.088C640.54 320.088 640.235 319.89 640.011 319.494C639.794 319.091 639.687 318.586 639.687 317.981C639.687 317.376 639.794 316.876 640.011 316.48C640.235 316.077 640.54 315.875 640.926 315.875ZM777.358 315.956C777.752 316.065 777.949 316.468 777.949 317.166C777.741 317.57 777.544 317.772 777.358 317.772H776.953C776.675 317.71 776.408 317.372 776.153 316.759C776.285 316.224 776.686 315.956 777.358 315.956ZM695.615 316.026V316.213C695.615 316.577 695.734 316.759 695.974 316.759L695.8 316.026H695.615ZM692.622 316.149C693.196 316.176 693.464 316.693 693.425 317.702V318.272L691.687 318.529C690.815 317.024 690.671 316.391 691.258 316.631C691.823 316.294 692.278 316.133 692.622 316.149ZM342.469 316.533C342.5 316.533 342.531 316.58 342.562 316.673C342.562 316.96 342.454 317.255 342.238 317.557H342.191C342.191 317.433 342.098 317.138 341.913 316.673V316.626C342.013 316.626 342.199 316.595 342.469 316.533ZM355.376 316.533C355.407 316.533 355.438 316.58 355.469 316.673C355.469 316.96 355.361 317.255 355.145 317.557H355.098C355.098 317.433 355.005 317.138 354.82 316.673V316.626C354.92 316.626 355.106 316.595 355.376 316.533ZM432.471 316.556L432.262 317.394H431.845V317.184C432.062 316.765 432.27 316.556 432.471 316.556ZM675.813 316.619V316.759H675.883V316.619H675.813ZM681.039 316.666H681.132V316.864H681.039V316.666ZM340.059 317.184H340.105C340.075 317.239 340.059 317.301 340.059 317.371H339.966V317.278C339.966 317.223 339.997 317.192 340.059 317.184ZM352.967 317.184H353.012C352.982 317.239 352.967 317.301 352.967 317.371H352.873V317.278C352.873 317.223 352.905 317.192 352.967 317.184ZM338.529 317.196C338.529 317.305 338.48 317.661 338.379 318.266C338.426 318.631 338.449 318.837 338.449 318.884L338.298 318.965C338.082 318.608 337.954 318.43 337.916 318.43C338.225 317.607 338.429 317.196 338.529 317.196ZM351.437 317.196C351.437 317.305 351.387 317.661 351.286 318.266C351.333 318.631 351.356 318.837 351.356 318.884L351.205 318.965C350.989 318.608 350.861 318.43 350.823 318.43C351.131 317.607 351.337 317.196 351.437 317.196ZM678.027 317.434V317.632H678.119V317.434H678.027ZM677.806 317.457V317.656H677.899V317.457H677.806ZM753.756 317.574H754.382C754.104 317.915 753.965 318.19 753.965 318.4H753.756V317.574ZM530.819 318.202H531.12V318.784H530.819V318.202ZM442.435 318.29H443.061C442.783 318.632 442.644 318.907 442.644 319.116H442.435V318.29ZM454.323 318.29H454.949C454.671 318.632 454.532 318.907 454.532 319.116H454.323V318.29ZM689.069 318.4H689.254C689.586 319.129 689.949 319.494 690.343 319.494V319.68H690.158C689.918 319.68 689.555 319.435 689.069 318.947V318.4ZM383.67 319.558C384.434 319.752 384.817 320.331 384.817 321.293C384.516 321.874 384.23 322.165 383.96 322.165H383.67C382.511 322.165 381.932 321.583 381.932 320.42C381.932 320.04 382.511 319.752 383.67 319.558ZM520.913 319.622H521.504C521.906 319.707 522.295 320.196 522.674 321.088C522.295 321.988 521.906 322.481 521.504 322.566H520.913C520.133 322.085 519.742 321.693 519.742 321.39V320.203C520.043 320.203 520.434 320.01 520.913 319.622ZM672.905 319.68C672.82 319.68 672.77 319.73 672.754 319.831H672.975V319.68H672.905ZM712.265 319.715C711.724 319.94 711.315 320.052 711.037 320.052C709.453 320.052 708.661 320.847 708.661 322.437C708.816 323.64 709.739 324.567 711.431 325.219H713.412C714.053 324.691 714.578 324.427 714.988 324.427V321.646C714.872 321.096 714.211 320.564 713.006 320.052L712.265 319.715ZM340.662 320.105V320.268H340.743V320.105H340.662ZM353.569 320.105V320.268H353.65V320.105H353.569ZM588.891 320.169H589.1V320.587H588.891V320.169ZM743.78 320.169H743.989V320.587H743.78V320.169ZM777.15 320.18C777.953 320.18 778.354 320.518 778.354 321.192C778.354 321.86 778.088 322.263 777.555 322.403C776.806 322.403 776.339 322.065 776.153 321.39C776.153 320.901 776.485 320.498 777.15 320.18ZM337.881 320.35H337.927V320.443H337.881V320.35ZM350.788 320.35H350.834V320.443H350.788V320.35ZM672.013 320.355V320.506H672.083V320.355H672.013ZM695.615 320.587V320.96H695.8V320.587H695.615ZM610.407 320.634C610.956 320.774 611.23 321.189 611.23 321.88C611.013 322.298 610.805 322.507 610.604 322.507H610.407C609.573 322.507 609.156 322.092 609.156 321.262C609.156 320.983 609.573 320.774 610.407 320.634ZM784.948 320.634C785.496 320.774 785.77 321.189 785.77 321.88C785.554 322.298 785.345 322.507 785.144 322.507H784.948C784.113 322.507 783.696 322.092 783.696 321.262C783.696 320.983 784.113 320.774 784.948 320.634ZM346.304 320.652V320.874H346.385V320.652H346.304ZM359.211 320.652V320.874H359.293V320.652H359.211ZM337.278 320.815L337.232 320.909V321.141H337.278C337.278 320.963 337.294 320.854 337.325 320.815H337.278ZM350.186 320.815L350.139 320.909V321.141H350.186C350.186 320.963 350.201 320.854 350.232 320.815H350.186ZM340.523 320.955V321.141C340.584 321.11 340.631 321.094 340.662 321.094C340.662 321.048 340.615 321.001 340.523 320.955ZM353.43 320.955V321.141C353.491 321.11 353.538 321.094 353.569 321.094C353.569 321.048 353.522 321.001 353.43 320.955ZM433.931 321.351C434.479 321.49 434.754 321.905 434.754 322.595C434.538 323.014 434.329 323.224 434.128 323.224H433.931C433.097 323.224 432.68 322.809 432.68 321.979C432.68 321.7 433.097 321.49 433.931 321.351ZM338.912 321.642V321.792H339.213C339.213 321.707 339.163 321.657 339.063 321.642H338.912ZM351.819 321.642V321.792H352.12C352.12 321.707 352.07 321.657 351.97 321.642H351.819ZM679.278 321.786V321.88C679.927 322.446 680.251 322.775 680.251 322.868C680.182 322.868 680.085 322.9 679.962 322.962V322.868L679.567 323.067C679.243 323.067 679.081 322.869 679.081 322.473V321.984C679.081 321.867 679.147 321.802 679.278 321.786ZM760.338 321.914H760.546L760.338 322.333H759.723V322.123C759.87 322.123 760.075 322.054 760.338 321.914ZM677.598 321.926V322.077H677.679V321.926H677.598ZM738.728 322.007H739.319L739.03 323.171H738.728V322.007ZM679.278 322.368V322.473H679.475V322.368H679.278ZM339.225 322.398V322.491H339.271V322.398H339.225ZM352.132 322.398V322.491H352.178V322.398H352.132ZM662.246 322.426V322.601H662.327V322.426H662.246ZM678.594 322.473H678.792V322.566H678.594V322.473ZM449.017 322.63H449.225L449.017 323.049H448.402V322.84C448.549 322.84 448.754 322.77 449.017 322.63ZM460.904 322.63H461.112L460.904 323.049H460.29V322.84C460.437 322.84 460.641 322.77 460.904 322.63ZM583.248 322.741H583.457C583.735 322.741 583.874 322.876 583.874 323.148H583.665C583.434 323.148 583.295 323.012 583.248 322.741ZM769.653 322.741H769.862C770.14 322.741 770.279 322.876 770.279 323.148H770.071C769.839 323.148 769.7 323.012 769.653 322.741ZM679.475 322.763V322.868H679.672V322.763H679.475ZM507.901 322.833H508.191V323.427H507.901V322.833ZM675.813 323.276L675.883 323.427V323.497C675.759 323.846 675.562 324.02 675.292 324.02C675.192 324.02 674.941 323.97 674.539 323.869V323.8C674.755 323.8 675.18 323.625 675.813 323.276ZM338.159 323.328V323.422H338.344C338.344 323.367 338.313 323.336 338.251 323.328H338.159ZM351.066 323.328V323.422H351.251C351.251 323.367 351.221 323.336 351.159 323.328H351.066ZM415.161 323.457H415.37C415.648 323.457 415.787 323.592 415.787 323.864H415.578C415.347 323.864 415.208 323.728 415.161 323.457ZM704.375 323.52H704.583V323.939H704.375V323.52ZM712.219 323.625H714.2C714.2 324.16 713.937 324.427 713.412 324.427H712.219V323.625ZM680.448 323.648H680.552V323.846H680.448V323.648ZM686.519 323.648C686.396 323.718 686.3 323.753 686.23 323.753V323.846H686.519V323.648ZM638.064 323.788V325.219H643.788V323.788H638.064ZM677.076 323.799V323.95H677.158V323.799H677.076ZM346.918 324.015V324.178H347V324.015H346.918ZM359.825 324.015V324.178H359.907V324.015H359.825ZM507.6 324.032H508.191V324.625H507.6V324.032ZM678.49 324.043V324.148H678.687V324.043H678.49ZM685.836 324.043V324.148H686.033V324.043H685.836ZM704.166 324.369H704.583V324.788H704.166V324.369ZM656.684 325.044V325.137H656.858V325.044H656.684ZM673.578 325.149V325.219H673.728V325.149H673.578ZM346.849 325.318V325.399H347V325.318H346.849ZM359.756 325.318V325.399H359.907V325.318H359.756ZM691.432 326.068V326.254H691.792V326.068H691.432Z" fill="currentcolor"/>
</svg>
