<svg viewBox="0 0 1180 580" fill="currentColor" xmlns="http://www.w3.org/2000/svg">
<path d="M192.834 312.021C189.649 311.741 190.671 315.167 189.354 315.766C188.646 316.049 188.003 315.247 188.003 315.247C188.003 315.246 188.004 315.246 188.004 315.245C187.463 314.592 186.659 314.214 185.811 314.213C184.235 314.213 182.957 315.489 182.957 317.064C182.959 318.364 183.841 319.498 185.102 319.821C185.102 319.82 185.103 319.819 185.103 319.818C185.103 319.818 185.651 319.912 185.668 320.394C185.685 320.875 185.105 321.147 185.105 321.147C184.045 321.59 183.354 322.624 183.352 323.772C183.352 325.346 184.63 326.622 186.206 326.622C187.632 326.605 188.665 325.653 189.668 325.936C191.037 326.322 191.251 328.422 192.923 328.464C194.499 328.464 195.776 327.188 195.776 325.614C195.802 325.009 194.922 324.001 195.381 323.389C195.79 322.842 196.825 323.373 197.4 323.378C198.976 323.378 200.254 322.102 200.254 320.527C200.254 318.953 198.976 317.677 197.4 317.677C197.157 317.678 196.915 317.71 196.68 317.772C196.677 317.765 196.673 317.759 196.67 317.753C196.668 317.76 196.667 317.769 196.665 317.776C196.665 317.776 195.648 318.082 195.26 317.272C195.063 316.549 195.681 315.627 195.688 314.871C195.688 313.297 194.404 312.159 192.834 312.021ZM191.1 317.327C191.11 317.329 191.12 317.328 191.13 317.328C191.342 317.331 191.554 317.353 191.762 317.397C191.764 317.398 191.766 317.399 191.769 317.399C191.87 317.421 191.969 317.447 192.067 317.478C192.074 317.481 192.081 317.483 192.088 317.486C192.182 317.516 192.275 317.551 192.366 317.59C192.371 317.592 192.375 317.595 192.38 317.597C192.472 317.637 192.562 317.681 192.649 317.73C192.662 317.738 192.676 317.746 192.689 317.754C192.765 317.797 192.84 317.844 192.913 317.894C193.771 318.488 194.283 319.288 194.283 320.33C194.282 321.275 193.86 321.996 193.131 322.599C193.053 322.663 192.972 322.724 192.888 322.781C192.883 322.785 192.878 322.788 192.873 322.792C192.795 322.844 192.715 322.892 192.633 322.937C192.62 322.944 192.608 322.951 192.596 322.958C192.518 322.999 192.439 323.037 192.358 323.071C192.34 323.079 192.323 323.087 192.305 323.095C192.23 323.125 192.154 323.152 192.077 323.176C192.051 323.185 192.025 323.194 191.999 323.202C191.929 323.222 191.857 323.24 191.785 323.255C191.752 323.263 191.719 323.271 191.686 323.277C191.621 323.289 191.555 323.299 191.488 323.306C191.447 323.312 191.406 323.317 191.365 323.321C191.277 323.329 191.189 323.333 191.1 323.334C190.194 323.332 189.331 323.12 188.728 322.444C188.614 322.229 188.473 322.03 188.309 321.851C188.053 321.385 187.919 320.862 187.918 320.33C187.918 318.574 189.855 317.334 191.1 317.327ZM191.1 318.16C189.9 318.16 188.752 319.131 188.752 320.33C188.752 321.529 189.725 322.501 190.925 322.501C192.125 322.501 193.273 321.529 193.273 320.33C193.273 319.131 192.301 318.16 191.1 318.16Z" fill="currentColor"/>
<path d="M258.408 245.387C255.68 244.955 256.355 247.967 255.184 248.405C254.558 248.606 254.052 247.876 254.052 247.876C254.052 247.876 254.053 247.875 254.053 247.874C253.626 247.28 252.956 246.906 252.225 246.854C250.867 246.76 249.69 247.782 249.595 249.138C249.518 250.259 250.211 251.289 251.277 251.642C251.277 251.642 251.278 251.641 251.278 251.64C251.278 251.64 251.745 251.754 251.73 252.17C251.716 252.586 251.2 252.785 251.2 252.785C250.26 253.103 249.603 253.953 249.533 254.942C249.438 256.298 250.462 257.474 251.819 257.568C253.049 257.639 253.997 256.881 254.844 257.185C256 257.6 256.058 259.422 257.495 259.558C258.853 259.652 260.03 258.63 260.125 257.274C260.183 256.754 259.486 255.833 259.918 255.333C260.304 254.887 261.164 255.406 261.659 255.445C263.016 255.539 264.194 254.517 264.289 253.16C264.383 251.804 263.359 250.628 262.002 250.534C261.792 250.52 261.582 250.533 261.375 250.572C261.373 250.566 261.37 250.56 261.368 250.555C261.366 250.561 261.364 250.568 261.362 250.575C261.362 250.575 260.468 250.777 260.182 250.056C260.056 249.421 260.643 248.664 260.695 248.013C260.79 246.657 259.752 245.6 258.408 245.387ZM256.595 249.854C256.603 249.857 256.612 249.856 256.62 249.857C256.803 249.872 256.984 249.904 257.161 249.954C257.163 249.955 257.164 249.956 257.166 249.956C257.252 249.981 257.336 250.01 257.419 250.042C257.425 250.045 257.43 250.047 257.436 250.05C257.516 250.082 257.593 250.117 257.669 250.157C257.673 250.159 257.677 250.161 257.681 250.163C257.758 250.203 257.833 250.247 257.905 250.294C257.916 250.302 257.927 250.309 257.938 250.317C258.001 250.359 258.063 250.404 258.123 250.451C258.826 251.014 259.219 251.734 259.156 252.632C259.099 253.446 258.692 254.042 258.028 254.518C257.957 254.569 257.883 254.616 257.807 254.66C257.803 254.663 257.798 254.666 257.794 254.668C257.723 254.708 257.651 254.745 257.578 254.779C257.567 254.785 257.556 254.79 257.545 254.795C257.475 254.826 257.404 254.853 257.333 254.878C257.317 254.884 257.302 254.89 257.286 254.895C257.22 254.917 257.152 254.936 257.085 254.952C257.062 254.958 257.039 254.964 257.016 254.969C256.954 254.983 256.891 254.994 256.828 255.002C256.799 255.007 256.771 255.012 256.742 255.016C256.685 255.022 256.627 255.026 256.57 255.028C256.534 255.031 256.498 255.033 256.462 255.034C256.386 255.035 256.31 255.034 256.234 255.029C255.453 254.973 254.722 254.739 254.243 254.12C254.158 253.928 254.049 253.748 253.918 253.584C253.726 253.167 253.641 252.708 253.672 252.25C253.778 250.738 255.522 249.785 256.595 249.854ZM256.545 250.571C255.511 250.499 254.463 251.268 254.391 252.3C254.319 253.333 255.099 254.229 256.132 254.301C257.166 254.373 258.214 253.604 258.286 252.572C258.359 251.539 257.579 250.643 256.545 250.571Z" fill="currentColor"/>
<path d="M267.408 232.299C264.941 232.817 266.498 235.166 265.642 235.92C265.174 236.296 264.505 235.838 264.505 235.838C264.505 235.837 264.506 235.837 264.505 235.836C263.947 235.468 263.253 235.367 262.613 235.561C261.425 235.922 260.754 237.177 261.116 238.364C261.415 239.344 262.342 239.998 263.367 239.952C263.367 239.951 263.367 239.951 263.367 239.95C263.367 239.95 263.801 239.896 263.925 240.255C264.048 240.614 263.673 240.951 263.673 240.951C262.975 241.528 262.692 242.467 262.954 243.333C263.316 244.52 264.572 245.19 265.761 244.829C266.832 244.489 267.393 243.534 268.215 243.518C269.336 243.496 269.979 245.031 271.249 244.679C272.438 244.318 273.108 243.063 272.747 241.876C272.627 241.414 271.733 240.856 271.938 240.288C272.121 239.782 273.024 239.945 273.459 239.817C274.647 239.456 275.318 238.201 274.956 237.014C274.595 235.827 273.338 235.157 272.15 235.518C271.967 235.575 271.791 235.654 271.628 235.755C271.624 235.751 271.62 235.746 271.616 235.742C271.617 235.749 271.618 235.755 271.618 235.761C271.618 235.761 270.921 236.225 270.443 235.703C270.128 235.202 270.382 234.366 270.214 233.794C269.853 232.607 268.623 232.043 267.408 232.299ZM267.318 236.697C267.326 236.697 267.333 236.694 267.341 236.691C267.501 236.645 267.666 236.613 267.833 236.599C267.835 236.599 267.837 236.599 267.839 236.599C267.92 236.592 268.001 236.589 268.082 236.59C268.088 236.59 268.093 236.591 268.099 236.591C268.177 236.592 268.255 236.597 268.333 236.606C268.337 236.607 268.341 236.607 268.345 236.608C268.423 236.617 268.501 236.63 268.579 236.646C268.59 236.649 268.602 236.652 268.614 236.656C268.682 236.671 268.749 236.689 268.815 236.71C269.598 236.961 270.168 237.447 270.408 238.233C270.624 238.946 270.471 239.586 270.06 240.208C270.016 240.275 269.969 240.339 269.919 240.401C269.916 240.405 269.913 240.409 269.91 240.413C269.863 240.47 269.813 240.525 269.762 240.578C269.754 240.586 269.747 240.594 269.739 240.602C269.69 240.65 269.638 240.697 269.585 240.742C269.574 240.752 269.562 240.762 269.551 240.771C269.501 240.811 269.45 240.849 269.398 240.885C269.38 240.898 269.363 240.91 269.345 240.922C269.296 240.954 269.246 240.984 269.195 241.012C269.172 241.025 269.149 241.038 269.126 241.051C269.079 241.075 269.032 241.097 268.983 241.118C268.954 241.132 268.924 241.145 268.893 241.157C268.829 241.184 268.763 241.207 268.697 241.228C268.013 241.434 267.314 241.472 266.704 241.1C266.568 240.964 266.416 240.846 266.251 240.749C265.951 240.456 265.73 240.092 265.607 239.691C265.204 238.367 266.38 236.988 267.318 236.697ZM267.509 237.325C266.604 237.6 265.961 238.596 266.236 239.5C266.511 240.404 267.468 240.914 268.373 240.64C269.279 240.365 269.922 239.369 269.646 238.465C269.371 237.561 268.414 237.051 267.509 237.325Z" fill="currentColor"/>
<path d="M272.374 245.153C269.94 245.889 271.71 248.114 270.916 248.946C270.478 249.364 269.766 248.962 269.766 248.962C269.765 248.961 269.766 248.961 269.766 248.96C269.173 248.639 268.467 248.598 267.841 248.848C266.678 249.314 266.114 250.633 266.58 251.795C266.967 252.754 267.954 253.329 268.98 253.195C268.98 253.194 268.98 253.193 268.98 253.193C268.98 253.193 269.412 253.1 269.568 253.45C269.723 253.8 269.376 254.172 269.376 254.172C268.724 254.813 268.521 255.78 268.861 256.627C269.327 257.789 270.648 258.353 271.811 257.887C272.858 257.452 273.338 256.444 274.162 256.357C275.287 256.237 276.067 257.723 277.313 257.26C278.476 256.794 279.04 255.474 278.573 254.313C278.413 253.859 277.465 253.376 277.622 252.788C277.762 252.263 278.683 252.349 279.109 252.183C280.272 251.717 280.836 250.397 280.37 249.236C279.903 248.074 278.583 247.511 277.42 247.977C277.241 248.049 277.071 248.144 276.916 248.259C276.912 248.256 276.907 248.252 276.903 248.248C276.904 248.254 276.906 248.261 276.906 248.267C276.906 248.267 276.247 248.793 275.72 248.31C275.361 247.835 275.543 246.972 275.325 246.412C274.858 245.251 273.573 244.791 272.374 245.153ZM272.667 249.581C272.675 249.58 272.682 249.576 272.689 249.573C272.847 249.512 273.01 249.466 273.176 249.437C273.178 249.437 273.18 249.437 273.182 249.437C273.262 249.423 273.344 249.413 273.425 249.407C273.431 249.406 273.437 249.407 273.443 249.406C273.521 249.401 273.6 249.399 273.679 249.401C273.683 249.402 273.687 249.402 273.691 249.402C273.771 249.404 273.85 249.411 273.929 249.42C273.941 249.422 273.954 249.424 273.966 249.427C274.035 249.436 274.104 249.448 274.173 249.463C274.982 249.648 275.596 250.087 275.906 250.856C276.185 251.554 276.087 252.21 275.728 252.87C275.69 252.941 275.648 253.01 275.603 253.077C275.6 253.081 275.598 253.085 275.595 253.089C275.553 253.151 275.508 253.21 275.46 253.268C275.453 253.276 275.447 253.285 275.44 253.294C275.394 253.347 275.347 253.398 275.297 253.448C275.287 253.459 275.276 253.47 275.266 253.481C275.219 253.525 275.171 253.568 275.121 253.608C275.105 253.622 275.089 253.636 275.072 253.65C275.025 253.686 274.978 253.72 274.929 253.753C274.907 253.768 274.885 253.784 274.863 253.798C274.818 253.826 274.772 253.853 274.725 253.878C274.697 253.895 274.668 253.91 274.639 253.926C274.576 253.958 274.512 253.987 274.447 254.013C273.778 254.28 273.078 254.379 272.433 254.058C272.286 253.933 272.123 253.828 271.948 253.744C271.621 253.476 271.367 253.13 271.209 252.738C270.688 251.443 271.75 249.954 272.667 249.581ZM272.914 250.196C272.028 250.55 271.469 251.607 271.824 252.491C272.18 253.376 273.185 253.805 274.071 253.45C274.956 253.096 275.516 252.039 275.161 251.155C274.805 250.27 273.799 249.841 272.914 250.196Z" fill="currentColor"/>
<path d="M261.098 217.251C258.687 219.207 261.718 220.905 261.205 222.213C260.903 222.888 259.912 222.762 259.912 222.762C259.912 222.761 259.913 222.76 259.911 222.76C259.092 222.671 258.275 222.95 257.683 223.522C256.583 224.586 256.556 226.339 257.621 227.437C258.503 228.343 259.886 228.538 260.984 227.911C260.984 227.91 260.983 227.91 260.982 227.909C260.982 227.909 261.428 227.605 261.766 227.929C262.103 228.253 261.883 228.834 261.883 228.834V228.833C261.443 229.858 261.662 231.047 262.438 231.848C263.503 232.946 265.258 232.973 266.357 231.909C267.34 230.934 267.416 229.573 268.307 229.093C269.524 228.438 271.094 229.758 272.288 228.659C273.387 227.595 273.414 225.842 272.349 224.744C271.958 224.305 270.662 224.196 270.567 223.459C270.483 222.802 271.564 222.473 271.968 222.088C273.067 221.024 273.095 219.271 272.03 218.174C270.964 217.076 269.21 217.048 268.111 218.112C267.941 218.277 267.794 218.463 267.672 218.665C267.665 218.662 267.659 218.66 267.652 218.658C267.656 218.665 267.661 218.671 267.664 218.678C267.664 218.678 267.162 219.578 266.343 219.275C265.716 218.903 265.523 217.844 265.017 217.311C263.952 216.214 262.286 216.287 261.098 217.251ZM263.479 222.122C263.488 222.117 263.494 222.109 263.501 222.103C263.651 221.961 263.814 221.834 263.988 221.724C263.991 221.723 263.993 221.723 263.994 221.721C264.079 221.668 264.166 221.619 264.256 221.574C264.262 221.571 264.269 221.569 264.275 221.565C264.362 221.523 264.45 221.485 264.54 221.451C264.545 221.45 264.55 221.448 264.554 221.446C264.645 221.412 264.738 221.382 264.832 221.357C264.847 221.353 264.861 221.35 264.876 221.347C264.959 221.325 265.043 221.307 265.127 221.293C266.127 221.128 267.026 221.34 267.731 222.067C268.37 222.727 268.563 223.514 268.464 224.427C268.453 224.524 268.438 224.622 268.418 224.718C268.416 224.724 268.415 224.73 268.414 224.736C268.395 224.825 268.372 224.913 268.345 225C268.341 225.013 268.337 225.026 268.333 225.039C268.307 225.12 268.277 225.2 268.244 225.279C268.237 225.296 268.23 225.313 268.223 225.331C268.191 225.402 268.156 225.472 268.119 225.541C268.107 225.565 268.095 225.588 268.082 225.612C268.047 225.674 268.009 225.734 267.969 225.794C267.951 225.821 267.933 225.849 267.915 225.876C267.877 225.928 267.837 225.979 267.796 226.029C267.772 226.061 267.746 226.093 267.72 226.123C267.664 226.188 267.606 226.251 267.544 226.311C266.911 226.922 266.166 227.356 265.288 227.292C265.063 227.219 264.83 227.175 264.594 227.161C264.1 227.009 263.652 226.735 263.292 226.365C262.104 225.14 262.616 222.967 263.479 222.122ZM264.043 222.703C263.206 223.513 263.063 224.966 263.874 225.802C264.685 226.638 266.022 226.659 266.859 225.849C267.696 225.039 267.839 223.585 267.028 222.749C266.216 221.913 264.88 221.892 264.043 222.703Z" fill="currentColor"/>
<path d="M290.245 215.277C288.204 216.933 290.771 218.371 290.336 219.478C290.081 220.05 289.241 219.943 289.241 219.943C289.241 219.943 289.242 219.942 289.24 219.942C288.547 219.866 287.855 220.102 287.354 220.587C286.423 221.488 286.4 222.972 287.302 223.901C288.048 224.668 289.219 224.833 290.149 224.303C290.149 224.302 290.148 224.302 290.148 224.301C290.148 224.301 290.525 224.044 290.811 224.318C291.097 224.593 290.91 225.084 290.91 225.084C290.538 225.952 290.723 226.958 291.38 227.636C292.282 228.566 293.768 228.589 294.698 227.688C295.53 226.862 295.595 225.71 296.35 225.303C297.379 224.749 298.709 225.867 299.72 224.936C300.651 224.035 300.674 222.551 299.772 221.621C299.44 221.25 298.344 221.158 298.263 220.533C298.192 219.977 299.107 219.698 299.45 219.372C300.38 218.471 300.403 216.987 299.501 216.058C298.599 215.128 297.114 215.105 296.183 216.006C296.04 216.146 295.915 216.303 295.812 216.474C295.806 216.472 295.8 216.47 295.795 216.468C295.798 216.474 295.802 216.479 295.805 216.485C295.805 216.485 295.38 217.247 294.687 216.99C294.156 216.676 293.992 215.779 293.564 215.328C292.662 214.398 291.251 214.46 290.245 215.277ZM292.262 219.401C292.269 219.397 292.274 219.391 292.28 219.385C292.407 219.265 292.545 219.157 292.693 219.065C292.695 219.064 292.696 219.063 292.698 219.061C292.77 219.017 292.844 218.975 292.919 218.938C292.925 218.934 292.931 218.933 292.936 218.93C293.009 218.894 293.084 218.861 293.16 218.833C293.164 218.832 293.168 218.83 293.172 218.828C293.249 218.8 293.328 218.775 293.407 218.753C293.419 218.75 293.432 218.747 293.444 218.745C293.514 218.727 293.586 218.711 293.657 218.699C294.504 218.559 295.265 218.739 295.862 219.354C296.403 219.913 296.567 220.58 296.482 221.353C296.473 221.435 296.46 221.518 296.443 221.599C296.442 221.604 296.441 221.609 296.44 221.614C296.424 221.69 296.404 221.764 296.381 221.838C296.378 221.849 296.375 221.86 296.372 221.871C296.349 221.94 296.324 222.007 296.296 222.074C296.29 222.089 296.284 222.103 296.278 222.118C296.251 222.178 296.222 222.238 296.19 222.296C296.18 222.316 296.17 222.336 296.159 222.356C296.129 222.408 296.097 222.46 296.063 222.51C296.048 222.533 296.033 222.557 296.017 222.579C295.985 222.624 295.952 222.667 295.917 222.71C295.896 222.737 295.875 222.763 295.853 222.789C295.805 222.844 295.756 222.897 295.704 222.948C295.168 223.465 294.536 223.833 293.793 223.778C293.603 223.717 293.405 223.68 293.206 223.668C292.787 223.539 292.408 223.307 292.103 222.994C291.097 221.957 291.53 220.117 292.262 219.401ZM292.739 219.893C292.03 220.579 291.909 221.809 292.596 222.517C293.283 223.225 294.414 223.243 295.123 222.557C295.832 221.871 295.953 220.64 295.266 219.932C294.579 219.224 293.448 219.207 292.739 219.893Z" fill="currentColor"/>
<path d="M294.588 230.108C291.993 231.382 294.391 233.552 293.653 234.633C293.239 235.183 292.366 234.863 292.366 234.863C292.366 234.862 292.367 234.861 292.365 234.861C291.64 234.61 290.841 234.694 290.184 235.09C288.966 235.827 288.576 237.412 289.315 238.629C289.926 239.634 291.141 240.098 292.267 239.757C292.267 239.756 292.266 239.756 292.266 239.755C292.266 239.755 292.734 239.572 292.973 239.936C293.212 240.3 292.891 240.781 292.891 240.781C292.278 241.62 292.23 242.743 292.767 243.631C293.506 244.849 295.092 245.238 296.311 244.5C297.405 243.819 297.758 242.599 298.666 242.349C299.906 242.007 301.056 243.531 302.368 242.781C303.587 242.043 303.976 240.459 303.238 239.242C302.974 238.762 301.821 238.395 301.889 237.706C301.949 237.092 302.998 237.018 303.445 236.752C304.664 236.015 305.053 234.43 304.315 233.213C303.576 231.996 301.99 231.607 300.771 232.345C300.584 232.459 300.411 232.597 300.259 232.755C300.253 232.751 300.247 232.748 300.241 232.745C300.244 232.751 300.247 232.759 300.249 232.765C300.249 232.765 299.606 233.478 298.926 233.033C298.434 232.566 298.479 231.564 298.131 230.976C297.393 229.759 295.867 229.48 294.588 230.108ZM295.736 235.022C295.745 235.019 295.752 235.014 295.759 235.009C295.925 234.911 296.099 234.83 296.28 234.767C296.283 234.766 296.285 234.766 296.287 234.765C296.375 234.734 296.464 234.708 296.554 234.686C296.561 234.684 296.568 234.684 296.574 234.682C296.661 234.662 296.749 234.645 296.838 234.633C296.843 234.633 296.847 234.632 296.852 234.631C296.942 234.619 297.032 234.612 297.122 234.608C297.136 234.608 297.15 234.608 297.164 234.608C297.244 234.606 297.324 234.607 297.404 234.611C298.345 234.669 299.116 235.048 299.606 235.854C300.048 236.585 300.06 237.34 299.779 238.147C299.749 238.234 299.715 238.319 299.677 238.402C299.675 238.407 299.672 238.412 299.67 238.417C299.634 238.494 299.595 238.569 299.552 238.642C299.546 238.654 299.54 238.665 299.534 238.676C299.493 238.744 299.449 238.81 299.402 238.875C299.393 238.889 299.383 238.903 299.373 238.918C299.329 238.976 299.283 239.032 299.235 239.087C299.219 239.106 299.203 239.125 299.187 239.143C299.141 239.192 299.094 239.24 299.046 239.285C299.024 239.307 299.002 239.328 298.98 239.348C298.935 239.388 298.888 239.426 298.84 239.463C298.811 239.487 298.782 239.51 298.752 239.533C298.687 239.58 298.621 239.624 298.553 239.666C297.852 240.089 297.085 240.329 296.301 240.088C296.113 239.975 295.91 239.887 295.699 239.826C295.283 239.585 294.934 239.243 294.683 238.833C293.86 237.475 294.776 235.61 295.736 235.022ZM296.127 235.666C295.199 236.228 294.766 237.516 295.329 238.443C295.891 239.37 297.099 239.666 298.027 239.105C298.955 238.543 299.387 237.254 298.825 236.327C298.263 235.4 297.055 235.104 296.127 235.666Z" fill="currentColor"/>
<path d="M280.787 226.82C279.008 228.234 281.214 229.5 280.828 230.453C280.602 230.945 279.877 230.846 279.877 230.846C279.877 230.845 279.878 230.844 279.876 230.844C279.277 230.773 278.677 230.971 278.24 231.385C277.427 232.155 277.394 233.438 278.165 234.25C278.803 234.919 279.814 235.073 280.622 234.622C280.622 234.622 280.621 234.621 280.621 234.621C280.621 234.621 280.949 234.402 281.194 234.642C281.439 234.881 281.273 235.305 281.273 235.305C280.943 236.052 281.094 236.922 281.656 237.515C282.428 238.327 283.712 238.36 284.524 237.59C285.251 236.883 285.317 235.887 285.973 235.543C286.868 235.073 288.008 236.051 288.89 235.255C289.703 234.485 289.736 233.202 288.965 232.391C288.681 232.066 287.734 231.977 287.67 231.437C287.614 230.955 288.407 230.722 288.706 230.444C289.519 229.673 289.552 228.391 288.781 227.579C288.009 226.767 286.725 226.734 285.913 227.505C285.788 227.624 285.679 227.758 285.588 227.905C285.583 227.904 285.578 227.902 285.573 227.901C285.576 227.905 285.579 227.91 285.582 227.915C285.582 227.915 285.208 228.57 284.611 228.342C284.154 228.065 284.021 227.288 283.655 226.895C282.883 226.083 281.664 226.124 280.787 226.82ZM282.493 230.404C282.5 230.4 282.504 230.395 282.509 230.39C282.62 230.287 282.74 230.196 282.869 230.117C282.87 230.116 282.872 230.115 282.873 230.114C282.936 230.076 283 230.041 283.066 230.009C283.07 230.006 283.076 230.005 283.08 230.003C283.144 229.972 283.209 229.945 283.275 229.921C283.278 229.92 283.282 229.918 283.285 229.917C283.352 229.893 283.42 229.872 283.489 229.854C283.5 229.852 283.511 229.849 283.521 229.847C283.582 229.832 283.644 229.819 283.706 229.809C284.439 229.696 285.095 229.859 285.606 230.396C286.069 230.884 286.204 231.461 286.124 232.129C286.115 232.2 286.103 232.271 286.088 232.341C286.087 232.346 286.086 232.35 286.085 232.354C286.071 232.419 286.053 232.484 286.033 232.547C286.03 232.557 286.027 232.566 286.024 232.576C286.004 232.635 285.981 232.693 285.956 232.75C285.951 232.763 285.946 232.776 285.941 232.788C285.917 232.84 285.891 232.892 285.863 232.942C285.854 232.959 285.845 232.976 285.836 232.993C285.809 233.038 285.781 233.082 285.751 233.125C285.738 233.145 285.725 233.165 285.711 233.185C285.683 233.223 285.654 233.26 285.623 233.297C285.605 233.32 285.586 233.342 285.567 233.365C285.525 233.412 285.482 233.457 285.437 233.5C284.969 233.943 284.42 234.255 283.777 234.201C283.614 234.146 283.443 234.112 283.271 234.101C282.911 233.985 282.585 233.781 282.324 233.508C281.463 232.603 281.855 231.016 282.493 230.404ZM282.902 230.833C282.283 231.42 282.167 232.483 282.754 233.101C283.342 233.719 284.32 233.744 284.938 233.157C285.557 232.571 285.673 231.508 285.086 230.89C284.498 230.272 283.52 230.247 282.902 230.833Z" fill="currentColor"/>
<path d="M150.724 328.119C150.039 327.167 149.257 325.834 148.987 325.156C148.543 324.04 148.562 323.876 149.187 323.419C149.568 323.141 150.492 322.749 151.242 322.547C154.181 321.576 156.782 319.957 159.383 318.637C160.987 317.827 163.859 316.124 165.765 314.853C170.737 311.535 172.28 310.156 177.226 304.605C179.155 302.44 181.161 300.022 181.685 299.232C182.208 298.442 182.779 297.796 182.953 297.796C183.127 297.796 183.269 299.194 183.269 300.903C183.269 304.3 183.69 304.959 185.232 303.974C186.605 303.096 191.815 300.003 192.661 299.562C193.803 298.968 194.104 299.444 193.37 300.686C192.583 302.017 192.569 303.577 193.342 303.873C193.667 303.998 194.693 303.828 195.621 303.496C198.569 302.441 199.486 302.88 197.602 304.446C197.062 304.895 196.272 305.591 195.848 305.991C194.717 307.059 192.388 308.59 190.927 309.224C188.023 310.487 183.17 312.056 180.661 312.544C179.187 312.83 176.586 313.478 174.882 313.982C173.177 314.487 171.491 314.903 171.136 314.908C164.818 320.329 154.163 326.242 153.303 328.665C152.859 330.293 152.186 330.151 150.724 328.119ZM182.893 309.982C188.15 309.197 191.409 307.171 190.751 305.098C190.418 304.05 189.427 304.152 186.019 305.585C184.406 306.263 181.911 307.255 180.474 307.79C178.021 308.703 177.159 309.44 177.637 310.213C177.915 310.662 178.52 310.635 182.893 309.982ZM218.825 323.621C214.856 323.078 210.126 320.854 207.175 318.144L205.332 316.451L206.691 313.771C209.183 308.858 209.738 306.229 209.197 301.914C208.742 298.293 207.15 294.845 204.419 291.567C203.358 290.294 202.264 288.757 201.986 288.152C201.709 287.546 201.076 286.395 200.579 285.594C197.3 280.307 194.765 272.938 194.351 267.489C194.089 264.041 195.095 258.239 196.472 255.247C197.59 252.821 202.211 248.388 205.343 246.737C211.348 243.572 220.74 241.757 225.754 242.792C228.589 243.377 230.027 244.129 232.844 246.501C234.867 248.203 236.303 249.818 241.362 256.076C246.69 262.666 249.276 265.134 254.198 268.328C256.266 269.67 261.627 271.934 262.741 271.936C263.257 271.938 264.262 272.1 264.974 272.298C265.686 272.495 268.476 272.699 271.174 272.751L276.079 272.845L276.583 274.666C276.875 275.721 277.159 279.076 277.259 282.639C277.427 288.662 277.41 288.843 276.443 291.305C275.9 292.687 274.775 294.607 273.944 295.572C271.859 297.989 265.643 303.396 262.178 305.805C260.597 306.905 258.923 308.149 258.457 308.571C257.991 308.993 256.969 309.733 256.186 310.214C255.403 310.696 252.913 312.29 250.651 313.756C248.39 315.221 246.211 316.555 245.808 316.718C245.405 316.882 244.202 317.53 243.135 318.158C242.068 318.787 240.182 319.715 238.944 320.22C237.707 320.726 236.366 321.282 235.965 321.456C232.142 323.113 223.288 324.231 218.825 323.621ZM221.925 318.998C225.046 315.678 227.556 312.956 229.526 310.755C230.408 309.769 232.054 308.269 233.183 307.421C234.312 306.572 235.824 305.321 236.545 304.641C237.999 303.266 243.452 299.231 245.993 297.649C246.896 297.087 248.783 295.896 250.187 295.001C255.772 291.443 263.562 288.21 271.52 286.148C272.423 285.914 273.736 285.445 274.438 285.105L275.714 284.487L275.68 281.288C275.641 277.673 275.147 276.617 272.953 275.469C271.053 274.474 262.558 274.737 258.757 275.909C253.803 277.436 247.697 280.668 236.332 287.779C234.376 289.003 227.839 293.701 227.095 294.418C226.83 294.673 226.477 294.882 226.311 294.882C226.145 294.882 224.923 295.865 223.595 297.067C221.314 299.132 220.524 299.608 220.421 298.98C220.397 298.829 220.336 297.947 220.286 297.019C220.188 295.177 219.265 291.793 218.314 289.782C217.51 288.084 215.157 284.462 214.658 284.154C214.44 284.018 213.318 282.664 212.167 281.144C211.015 279.624 209.662 277.858 209.161 277.219C208.66 276.58 206.99 274.351 205.451 272.266C201.349 266.706 201.144 266.471 200.42 266.471C198.772 266.471 199 271.088 200.849 275.201C201.252 276.096 201.725 277.207 201.901 277.668C202.077 278.13 202.833 279.446 203.583 280.594C206.864 285.619 210.493 292.194 211.671 295.246C213.296 299.458 213.567 308.301 212.106 309.452C211.679 309.787 209.231 313.359 208.626 314.528L208.027 315.686L209.779 317.324C213.394 320.703 215.704 321.91 218.095 321.667C219.348 321.54 219.889 321.162 221.925 318.998ZM216.819 310.117C216.819 309.832 218.462 308.05 220.47 306.156C222.478 304.262 225.227 301.671 226.578 300.397C227.93 299.123 229.528 297.741 230.13 297.326C230.731 296.911 231.47 296.355 231.771 296.09C233.441 294.619 236.991 291.963 238.273 291.225C245.742 286.928 247.433 285.99 252.01 283.604C254.216 282.454 256.969 280.997 258.127 280.366C259.285 279.735 260.482 279.219 260.787 279.219C261.403 279.219 263.124 282.591 263.129 283.809C263.133 284.562 262.636 284.861 256.933 287.536C256.231 287.865 253.852 289.126 251.646 290.337C249.439 291.548 246.937 292.845 246.084 293.22C245.232 293.594 244.534 294.039 244.534 294.209C244.534 294.379 244.387 294.518 244.206 294.518C243.142 294.518 232.583 302.46 228.667 306.205L225.017 309.696L222.017 309.946C220.367 310.084 218.523 310.295 217.918 310.416C217.108 310.578 216.819 310.499 216.819 310.117ZM252.652 309.432C257.892 306.772 262.776 303.113 268.147 297.821C270.907 295.101 270.666 294.12 266.857 292.574C265.614 292.07 264.09 291.296 263.471 290.856C262.555 290.205 262.187 290.128 261.494 290.443C260.278 290.997 260.019 292.149 260.867 293.227C261.855 294.481 262.535 297.164 262.25 298.681C261.697 301.622 258.209 303.753 254.093 303.664C251.413 303.606 249.902 303.053 247.389 301.21C245.774 300.026 245.483 299.931 244.645 300.312C243.709 300.738 243.707 300.745 243.913 304.277C244.239 309.854 244.696 310.476 248.501 310.521C249.996 310.539 250.981 310.28 252.652 309.432ZM257.305 300.342C258.684 299.639 259.851 298.072 259.851 296.92C259.851 294.986 257.5 293.112 255.654 293.575C255.09 293.716 254.06 294.4 253.365 295.095C252.27 296.188 252.128 296.529 252.306 297.627C252.521 298.947 252.857 299.406 254.371 300.451C255.501 301.232 255.563 301.23 257.305 300.342ZM226.332 263.369C229.995 261.633 230.113 261.558 230.244 260.895C230.307 260.576 229.476 259.247 228.397 257.94C227.318 256.634 226.21 255.145 225.935 254.631C225.485 253.792 225.512 253.619 226.198 252.934C226.813 252.32 227.219 252.22 228.279 252.418C229.721 252.688 232.24 254.752 233.081 256.352C234.103 258.297 236.143 258.371 236.742 256.485C237.205 255.026 229.759 249.001 225.164 247.117C223.699 246.516 222.415 246.305 220.101 246.284C217.168 246.257 216.825 246.34 213.719 247.83C211.914 248.696 210.15 249.664 209.799 249.981C208.818 250.867 209.014 251.779 210.281 252.22C213.177 253.228 218.009 258.227 221.328 263.648C222.143 264.979 223.037 264.929 226.332 263.369ZM168.682 300.008C168.682 292.704 169.44 288.64 171.979 282.315C174.052 277.155 178.456 269.468 182.309 264.285C184.696 261.074 190.851 253.858 193.234 251.475C195.272 249.438 195.629 250.755 193.683 253.127C192.992 253.969 191.891 255.718 191.237 257.013C190.149 259.166 190.035 259.717 189.902 263.439C189.698 269.125 191.361 276.768 193.691 280.858C194.703 282.635 197.491 289.589 197.491 290.336C197.491 291.122 196.871 291.019 192.88 289.573C187.284 287.546 187.053 287.484 186.033 287.739C184.971 288.005 180.214 292.687 174.089 299.494C170.632 303.336 169.533 304.352 168.835 304.352C168.751 304.352 168.682 302.397 168.682 300.008ZM166.312 269.857C165.911 269.758 164.894 269.248 164.052 268.722C162.751 267.91 162.362 267.357 161.45 265.024C160.86 263.516 160.261 261.155 160.12 259.777C159.978 258.399 159.129 255.071 158.234 252.38L156.605 247.488L157.278 246.338C158.882 243.595 161.204 243.239 178.538 243.084L190.399 242.977L192.138 244.4C193.094 245.182 193.828 246.034 193.769 246.291C193.71 246.549 192.432 248.05 190.927 249.627C189.423 251.204 186.961 253.93 185.457 255.686C176.975 265.585 169.986 270.758 166.312 269.857ZM174.152 250.86C175.456 250.478 176.933 250 177.434 249.797C177.936 249.594 179.084 249.226 179.987 248.98C183.916 247.909 183.998 247.869 183.998 247.006C183.998 246.258 183.787 246.155 181.902 245.987C180.748 245.884 176.789 245.786 173.103 245.769L166.401 245.738L164.807 246.834C163.468 247.754 163.212 248.122 163.212 249.13C163.212 250.467 164.004 251.378 165.4 251.645C167.112 251.973 171.778 251.555 174.152 250.86ZM280.256 268.154C280.164 268.063 277.297 267.895 273.885 267.781C270.373 267.665 266.891 267.356 265.862 267.069C264.862 266.791 263.091 266.365 261.927 266.122C259.285 265.572 259.178 264.685 261.678 264.054C262.579 263.827 264.218 263.291 265.321 262.862C269.651 261.18 289.827 256.585 301.606 254.599C303.411 254.294 305.32 253.957 305.848 253.849C307.426 253.526 307.382 254.326 305.723 256.104C304.154 257.786 298.432 262.537 296.634 263.651C295.283 264.489 289.56 266.79 287.384 267.371C285.431 267.893 280.533 268.431 280.256 268.154ZM287.713 265.341C288.493 264.728 288.602 264.472 288.257 264.058C287.688 263.373 275.495 263.481 275.265 264.173C275.008 264.946 279.892 266.01 283.961 266.068C286.268 266.1 286.903 265.977 287.713 265.341ZM298.742 259.638C301.451 258.218 302.198 256.909 300.537 256.493C300.05 256.371 299.212 256.437 298.676 256.641C298.14 256.845 296.036 257.261 294.001 257.566C289.982 258.168 287.029 258.937 286.247 259.586C285.135 260.508 286.289 260.716 291.714 260.574C296.499 260.449 297.43 260.325 298.742 259.638ZM197.205 245.872L196.372 244.588L198.203 244.83C199.38 244.986 200.431 244.909 201.145 244.613C201.756 244.361 202.344 244.242 202.451 244.349C202.742 244.64 199.304 247.167 198.624 247.161C198.302 247.159 197.663 246.579 197.205 245.872ZM241.07 246.442C239.021 246.232 237.716 245.611 234.412 243.275C233.156 242.387 231.027 241.146 229.679 240.516C227.441 239.47 226.819 239.354 222.49 239.171C217.89 238.976 217.736 238.944 217.29 238.06C216.194 235.89 216.513 235.398 220.922 232.479C224.961 229.804 228.942 227.635 231.662 226.628C232.424 226.346 235.057 225.289 237.515 224.278C243.169 221.953 247.785 220.541 248.834 220.815C249.999 221.119 250.155 222.309 249.447 225.487C249.028 227.369 248.898 229.006 249.046 230.526C249.911 239.41 249.864 239.846 247.69 243.169C245.831 246.009 244.289 246.771 241.07 246.442ZM229.946 234.683C232.1 233.616 232.804 232.386 232.154 230.82C231.258 228.659 228.758 228.956 225.266 231.64C224.077 232.554 222.675 233.497 222.15 233.736C221.153 234.189 220.865 235.299 221.651 235.658C222.72 236.146 228.322 235.487 229.946 234.683ZM281.566 244.021C278.563 243.37 276.626 242.613 276.626 242.092C276.626 241.678 277.353 241.487 280.09 241.181C281.093 241.069 282.98 240.818 284.284 240.622C285.588 240.427 286.96 240.221 287.333 240.165C287.707 240.109 288.197 240.349 288.424 240.698C288.768 241.228 288.594 241.572 287.38 242.772C285.585 244.545 284.779 244.718 281.566 244.021ZM194.953 242.63C194.204 241.729 194.868 240.771 196.858 239.884C197.908 239.416 200.163 238.255 201.867 237.304C203.572 236.354 205.892 235.309 207.023 234.983C208.937 234.431 209.167 234.432 210.376 235.008C211.821 235.696 214.018 238.475 213.836 239.386C213.758 239.781 212.826 240.205 210.992 240.681C209.491 241.07 208.097 241.513 207.892 241.666C207.687 241.819 205.17 241.931 202.298 241.914C197.761 241.887 197 241.966 196.498 242.521C195.795 243.297 195.523 243.316 194.953 242.63ZM191.193 234.508C185.652 229.359 185.212 228.836 184.95 227.087C184.412 223.505 186.93 220.645 192.257 218.787C194.761 217.914 196.907 218.114 198.272 219.348C199.128 220.121 204.42 230.671 204.42 231.603C204.42 232.028 203.735 232.544 202.369 233.147C201.241 233.645 200.093 234.053 199.817 234.053C199.542 234.053 198.215 234.627 196.868 235.328C195.522 236.029 194.201 236.603 193.933 236.603C193.665 236.603 192.432 235.66 191.193 234.508ZM202.292 231.701C202.651 230.912 202.511 230.52 201.121 228.422C199.518 226.005 198.561 225.481 197.564 226.477C196.832 227.208 197.061 228.006 198.591 230.053C200.711 232.892 201.573 233.276 202.292 231.701ZM196.251 225.53C197.828 223.955 197.926 222.427 196.52 221.323C195.012 220.138 194.05 220.05 192.443 220.952C190.692 221.935 190.014 223.182 190.606 224.33C192.044 227.118 194.203 227.576 196.251 225.53ZM216.29 231.532C216.176 231.348 216.781 230.612 217.636 229.897C219.524 228.317 226.428 223.184 227.942 222.235C228.543 221.858 229.874 220.839 230.898 219.97C231.923 219.101 233.072 218.395 233.451 218.4C234.488 218.415 236.673 220.359 236.413 221.036C236.294 221.347 233.721 222.835 230.695 224.344C227.67 225.853 224.232 227.671 223.056 228.385C221.88 229.098 220.822 229.682 220.704 229.682C220.587 229.682 219.715 230.174 218.766 230.775C216.903 231.955 216.608 232.046 216.29 231.532ZM274.629 229.697C274.352 229.248 275.066 223.336 275.599 221.669C276.056 220.24 276.841 219.107 280.201 215.021C282.486 212.244 283.555 211.556 283.555 212.862C283.555 214.295 282.109 220.171 281.207 222.405C280.532 224.075 279.537 225.538 277.802 227.41C275.306 230.102 275.011 230.315 274.629 229.697ZM297.868 228.894C296.739 228.322 296.839 227.955 298.233 227.557C298.885 227.371 300.285 226.871 301.346 226.447C304.913 225.02 306.061 225.649 304.03 227.919C303.118 228.94 302.728 229.095 300.84 229.195C299.656 229.258 298.319 229.122 297.868 228.894Z" fill="currentColor"/>

</svg>
