<svg  viewBox="0 0 1180 580" fill="currentcolor" xmlns="http://www.w3.org/2000/svg">
<path d="M208.504 332.225C207.068 332.157 206.827 332.127 205.704 331.876C205.231 331.77 203.789 331.609 202.501 331.518C199.425 331.301 195.256 330.317 194.789 329.698C194.698 329.578 194.308 329.509 193.922 329.545C193.213 329.61 192.939 329.297 193.467 329.025C193.654 328.929 193.621 328.883 193.373 328.894C192.592 328.928 192.154 327.267 192.713 326.39C192.81 326.237 192.802 326.021 192.693 325.911C192.585 325.801 192.598 325.779 192.722 325.862C193.049 326.08 193.844 325.492 193.621 325.197C193.503 325.041 193.55 325.007 193.749 325.105C193.933 325.197 194.329 325.025 194.701 324.694C195.05 324.381 195.448 324.115 195.585 324.102C195.722 324.09 195.825 323.995 195.816 323.892C195.806 323.79 196.466 323.383 197.281 322.989C198.097 322.594 198.711 322.201 198.645 322.115C198.58 322.029 198.87 321.872 199.289 321.767C199.709 321.662 201.309 321.122 202.845 320.567C205.64 319.556 206.867 319.316 213.243 318.529L215.86 318.207L216.359 316.14C216.894 313.924 218.495 307.985 219.119 305.896L219.5 304.624L218.792 305.063C217.736 305.717 215.399 305.745 215.546 305.101C215.582 304.944 215.948 304.75 216.361 304.67C216.773 304.59 217.102 304.426 217.09 304.304C217.079 304.182 216.444 303.803 215.679 303.461C213.435 302.457 210.914 300.104 210.493 298.621C210.256 297.782 210.526 297.785 211.958 298.636C213.37 299.476 215.709 300.419 216.029 300.278C216.156 300.222 216.002 299.905 215.685 299.573C215.369 299.241 215.002 299.051 214.869 299.151C214.731 299.255 214.686 299.215 214.764 299.059C214.839 298.909 214.581 298.402 214.192 297.934C212.373 295.744 211.041 292.819 210.539 289.914C210.204 287.973 210.404 287.615 211.219 288.7C212.89 290.925 213.958 292.032 216.474 294.15C218.035 295.464 219.347 296.412 219.389 296.255C219.433 296.1 219.155 295.043 218.775 293.909C218.396 292.775 218.009 291.611 217.916 291.322C217.823 291.033 217.84 290.788 217.953 290.778C218.305 290.745 218.926 291.47 219.737 292.857C220.164 293.59 220.555 294.14 220.605 294.081C220.654 294.021 220.477 292.81 220.211 291.391C219.683 288.578 218.673 285.156 217.738 283.007C217.129 281.608 217.128 281.035 217.738 281.721C217.926 281.933 218.144 282.048 218.224 281.976C218.303 281.905 218.322 281.922 218.265 282.015C218.208 282.108 218.491 282.542 218.894 282.978C219.297 283.415 220.008 284.349 220.473 285.053L221.319 286.333L220.88 282.341C220.638 280.145 220.491 278.168 220.553 277.948C220.76 277.222 221.257 277.476 221.601 278.482L221.939 279.472L221.869 278.415C221.76 276.757 222.116 273.418 222.674 270.871C223.594 266.668 225.858 261.208 226.395 261.894C226.532 262.068 226.607 262.525 226.563 262.909C226.507 263.387 226.563 263.548 226.731 263.42C226.868 263.317 226.969 263.116 226.956 262.975C226.943 262.833 227.459 261.737 228.104 260.539C230.256 256.537 234.979 251.502 238.858 249.072C239.527 248.654 240.123 248.351 240.181 248.399C240.24 248.448 239.837 249.222 239.286 250.121C237.16 253.589 235.686 257.216 235.144 260.312C234.971 261.306 234.873 262.064 234.929 261.998C234.984 261.932 235.533 260.594 236.15 259.026C238.369 253.38 241.781 248.065 244.912 245.377C246.205 244.267 248.873 242.495 250.818 241.454C254.421 239.525 258.252 238.152 267.117 235.612C274.737 233.429 278.193 232.002 282.294 229.345C283.604 228.495 285.561 227.416 286.642 226.946C288.761 226.025 293.753 223.134 294.594 222.341C295.007 221.952 295.203 221.902 295.577 222.089C295.96 222.281 296.113 222.225 296.431 221.777C296.643 221.477 297.605 220.821 298.568 220.32C301.791 218.64 304.154 215.354 305.832 210.214L306.631 207.766L306.902 209.921C307.448 214.282 305.676 221.574 302.688 227.259C301.432 229.649 298.868 233.422 297.365 235.093C295.405 237.273 292.115 240.313 290.85 241.114C289.492 241.975 287.897 242.263 285.053 242.162L283.604 242.11L284.777 242.609C285.422 242.884 286.031 243.215 286.13 243.346C286.412 243.72 285.861 244.329 284.608 245.032C282.041 246.47 274.221 252.226 271.86 254.415C269.276 256.811 266.669 260.421 265.788 262.823C265.385 263.924 264.477 264.531 261.441 265.732C260.259 266.199 259.324 266.608 259.364 266.641C259.403 266.673 260.493 266.449 261.785 266.141C264.446 265.509 265.44 265.371 265.461 265.631C265.471 265.729 264.195 266.619 262.63 267.608C261.064 268.598 259.837 269.452 259.903 269.506C259.968 269.56 260.611 269.414 261.332 269.181C263.371 268.521 263.417 268.733 262.012 272.306C259.829 277.856 257.471 281.71 254.541 284.515C252.826 286.158 249.354 288.458 248.011 288.841C247.562 288.969 247.203 289.16 247.213 289.266C247.223 289.372 247.602 289.318 248.055 289.147C248.509 288.975 249.211 288.838 249.616 288.841C250.298 288.846 250.155 289.006 247.7 290.985C244.714 293.393 240.533 296.001 237.472 297.363C236.343 297.866 235.663 298.257 235.961 298.232C236.826 298.159 240.766 296.86 242.583 296.048C244.494 295.194 244.399 295.222 244.425 295.501C244.436 295.618 243.19 296.478 241.656 297.413C239.15 298.94 237.394 299.773 233.763 301.157L232.601 301.6L233.571 301.682C234.105 301.727 234.818 301.849 235.156 301.952C236.273 302.294 235.168 302.719 233.149 302.724C230.352 302.731 230.308 303.189 232.97 304.606C236.657 306.569 235.752 307.14 231.64 305.445C230.747 305.077 229.995 304.869 229.969 304.983C229.945 305.098 230.196 305.799 230.532 306.543C230.869 307.288 231.098 307.952 231.042 308.019C230.891 308.201 229.697 307.224 229.052 306.39C228.743 305.989 228.39 305.67 228.27 305.681C228.149 305.693 228.152 306.783 228.275 308.104C228.442 309.893 228.422 310.489 228.198 310.437C228.032 310.398 227.719 309.905 227.502 309.34C227.285 308.775 226.851 307.643 226.538 306.823C226.225 306.004 225.838 305.303 225.677 305.266C225.343 305.188 224.023 308.611 223.273 311.502C222.997 312.561 222.775 314.25 222.778 315.256L222.782 317.084L237.893 315.525C253.503 313.914 259.987 313.09 267.716 311.735C281.286 309.356 286.822 307.857 293.587 304.731C296.048 303.594 296.852 303.096 297.739 302.162C298.702 301.149 298.829 300.89 298.754 300.089C298.678 299.275 298.503 299.051 297.183 298.076C293.78 295.562 287.303 294.139 279.436 294.176C272.704 294.207 258.019 296.33 253.752 297.889C251.983 298.535 248.203 300.692 247.274 301.585C246.424 302.402 246.174 303.649 246.702 304.445C247.156 305.131 248.643 305.58 251.655 305.941C253.908 306.211 254.887 306.184 259.936 305.715C265.742 305.175 267.833 304.757 271.013 303.498C272.487 302.915 274.031 301.798 274.446 301.016C274.749 300.444 274.739 300.351 274.321 299.826C273.845 299.229 273.253 298.992 271.431 298.668L270.33 298.472L271.209 298.21C273.153 297.63 275.639 298.324 276.1 299.575C276.392 300.367 275.995 301.957 275.36 302.535C274.223 303.569 269.196 305.83 266.046 306.724C264.095 307.277 257.822 307.81 254.347 307.718C251.489 307.642 247.993 306.997 246.418 306.255C245.143 305.654 244.628 304.109 245.218 302.653C245.899 300.973 249.419 298.419 252.764 297.179C254.375 296.582 258.168 295.673 264.65 294.333C270.299 293.164 279.02 292.637 285.228 293.089C292.659 293.629 299.532 296.337 300.573 299.133C301.333 301.176 300.225 303.114 297.247 304.949C291.248 308.647 280.49 311.383 262.375 313.819C251.799 315.241 243.011 316.215 236.058 316.734C232.443 317.004 227.941 317.431 226.052 317.682L222.617 318.14L221.373 319.798C220.689 320.71 220.19 321.581 220.266 321.734C220.341 321.886 220.271 321.978 220.108 321.939C219.796 321.864 217.723 325.721 217.863 326.118C217.908 326.245 217.783 326.365 217.587 326.383C217.39 326.401 217.248 326.619 217.271 326.867C217.294 327.115 217.172 327.387 217.002 327.472C216.831 327.557 216.668 328.15 216.64 328.791C216.599 329.746 216.428 330.134 215.695 330.94L214.801 331.923L212.258 332.103C210.859 332.202 209.171 332.257 208.506 332.225L208.504 332.225ZM213.502 329.175C213.687 328.991 213.77 328.75 213.687 328.641C213.604 328.531 213.638 328.432 213.763 328.421C213.887 328.409 214.025 327.991 214.069 327.491C214.135 326.738 215.311 320.591 215.558 319.706C215.608 319.529 214.952 319.534 213.543 319.721C207.451 320.532 201.939 321.801 201.333 322.531C201.159 322.74 201.007 322.798 200.995 322.661C200.946 322.134 198.277 323.733 198.138 324.372C198.081 324.631 197.943 324.797 197.831 324.741C197.505 324.58 196.426 325.731 196.592 326.065C196.674 326.231 196.617 326.424 196.461 326.493C196.067 326.675 197.231 327.922 197.713 327.835C197.921 327.797 198.034 327.882 197.964 328.023C197.894 328.164 197.982 328.216 198.153 328.14C198.327 328.064 198.704 328.182 198.991 328.403C199.317 328.655 199.703 328.738 200.022 328.626C200.331 328.517 200.703 328.589 200.968 328.808C201.661 329.382 204.595 329.828 207.673 329.828C208.666 329.828 209.537 329.876 209.608 329.936C209.865 330.15 213.167 329.503 213.496 329.174L213.502 329.175ZM201.51 328.675C201.676 328.59 201.883 328.579 201.969 328.651C202.056 328.723 201.92 328.792 201.668 328.805C201.389 328.82 201.327 328.769 201.51 328.675ZM219.385 317.168C220.035 316.386 220.375 315.465 222.64 308.368C226.187 297.251 230.623 287.901 236.597 278.949C239.005 275.342 245.186 266.866 248.125 263.14C250.285 260.403 250.997 259.222 249.449 260.943C240.667 270.71 234.471 279.196 228.652 289.422C226.167 293.79 222.827 301.495 220.726 307.704C220.449 308.523 219.995 309.863 219.718 310.682C218.828 313.31 217.976 316.347 217.901 317.159C217.837 317.843 217.894 317.942 218.32 317.902C218.591 317.877 219.07 317.547 219.385 317.168ZM226.956 288.588C228.917 284.976 232.082 279.778 233.913 277.158C238.007 271.305 242.257 265.843 245.587 262.157C246.336 261.327 246.944 260.588 246.938 260.515C246.922 260.342 245.407 261.996 242.461 265.409C239.535 268.798 235.131 274.494 233.437 277.08C232.745 278.136 232.126 279.059 232.061 279.131C231.921 279.286 230.233 282.148 228.912 284.471C227.483 286.981 224.841 292.06 224.969 292.048C225.031 292.043 225.925 290.485 226.956 288.588ZM253.908 253.979C261.458 247.294 272.508 240.163 286.252 233.108C288.084 232.168 289.68 231.287 289.799 231.15C289.944 230.983 289.941 230.938 289.786 231.012C281.8 234.881 268.795 242.357 263.179 246.309C259.531 248.875 254.412 252.963 252.429 254.894C250.172 257.091 247.149 260.205 247.16 260.321C247.165 260.379 248.235 259.374 249.538 258.089C250.841 256.803 252.808 254.954 253.908 253.979ZM194.366 322.533C194.272 322.41 194.31 322.298 194.449 322.285C194.588 322.273 194.712 322.369 194.724 322.5C194.737 322.631 194.699 322.743 194.641 322.748C194.582 322.754 194.459 322.657 194.366 322.533ZM187.174 297.005C187.243 296.866 187.346 296.748 187.404 296.743C187.462 296.737 187.519 296.84 187.532 296.971C187.544 297.102 187.44 297.22 187.301 297.233C187.162 297.246 187.105 297.143 187.174 297.005Z" fill="currentcolor"/>

</svg>
