<svg  viewBox="0 0 1180 580" fill="currentcolor" xmlns="http://www.w3.org/2000/svg">
<path d="M214.632 305.371C214.08 304.984 214.023 304.125 214.514 303.583C214.847 303.216 213.707 303.204 178.4 303.204H141.941L141.394 302.774C140.925 302.406 140.847 302.185 140.847 301.241C140.847 300.099 141.483 298.722 145.499 291.171C146.136 289.972 147.15 288.012 147.751 286.814C148.352 285.616 148.893 284.589 148.953 284.532C149.013 284.475 149.293 283.961 149.576 283.39C149.859 282.82 150.137 282.306 150.194 282.249C150.251 282.192 150.731 281.305 151.262 280.278C151.792 279.251 152.817 277.291 153.54 275.922C155.622 271.979 157.38 268.598 158.341 266.689C158.83 265.719 159.286 264.879 159.356 264.822C159.425 264.765 159.924 263.831 160.465 262.747C161.005 261.663 161.634 260.473 161.862 260.102C162.089 259.731 162.215 259.428 162.14 259.428C162.066 259.428 162.187 259.171 162.409 258.857C162.631 258.543 163.014 257.866 163.261 257.353C163.508 256.839 163.968 255.953 164.282 255.382C164.596 254.811 165.645 252.804 166.611 250.921C167.578 249.039 168.428 247.451 168.5 247.394C168.572 247.337 168.807 246.917 169.021 246.461L169.411 245.631L171.071 245.569C172.718 245.508 173.565 245.168 174.667 244.127C174.818 243.984 175.022 243.867 175.12 243.867C175.218 243.867 175.421 243.751 175.572 243.608C176.558 242.676 177.572 242.208 178.602 242.208C179.922 242.208 186.124 241.506 189.764 240.945C193.811 240.321 196.178 239.779 201.188 238.331C202.559 237.935 203.821 237.58 203.992 237.543C204.164 237.505 205.285 237.215 206.485 236.898C208.48 236.371 208.993 236.32 212.509 236.308C215.975 236.296 216.524 236.344 218.117 236.798C219.664 237.238 220.027 237.438 221.052 238.414C221.696 239.026 222.524 240.092 222.892 240.782L223.562 242.038L225.616 239.996C226.877 238.743 228.012 237.809 228.554 237.578C229.709 237.085 231.805 236.652 233.862 236.481C236.671 236.247 242.077 237.194 245.746 238.563C247.061 239.054 248.463 239.526 248.862 239.611C249.26 239.697 251.315 240.211 253.429 240.754C256.343 241.503 257.974 241.802 260.179 241.989C266.488 242.526 270.553 243.046 270.716 243.337C270.804 243.494 271.67 244.051 272.64 244.575C274.338 245.491 274.47 245.527 276.152 245.527H277.899L280.388 250.247C281.757 252.843 283.156 255.481 283.496 256.108C284.161 257.335 287.308 263.263 289.003 266.482C289.574 267.566 290.25 268.826 290.507 269.283C290.922 270.023 291.88 271.824 295.965 279.552C296.598 280.75 298.022 283.411 299.129 285.465C305.17 296.678 306.884 300.129 306.979 301.264C307.037 301.971 306.975 302.486 306.812 302.685C306.583 302.96 302.21 302.996 269.593 302.996H232.634L232.957 303.458C233.432 304.135 233.352 304.777 232.733 305.264C232.199 305.683 231.971 305.694 223.64 305.694C216.241 305.694 215.032 305.65 214.632 305.371ZM229.645 299.677C229.809 298.29 230.048 297.505 230.767 296.001C231.656 294.142 231.733 294.051 233.571 292.698L235.461 291.307L238.265 290.72C241.854 289.969 244.626 289.949 249.794 290.638C252.584 291.01 254.481 291.408 257.271 292.205C259.328 292.793 264.282 293.97 268.28 294.82C275.437 296.343 275.651 296.375 281.99 296.877C287.129 297.284 298.296 297.678 298.295 297.453C298.295 297.428 296.963 296.618 295.335 295.654C291.956 293.653 291.269 293.453 286.352 293.036C282.748 292.73 274.345 291.012 264.541 288.576C260.657 287.61 255.516 286.438 253.117 285.97C248.906 285.15 248.612 285.12 244.601 285.118C240.969 285.114 240.094 285.184 237.642 285.658C232.538 286.646 229.059 288.636 226.724 291.904C226.217 292.614 225.677 293.298 225.525 293.425C225.372 293.551 224.984 294.309 224.661 295.11C223.89 297.022 223.542 297.034 222.796 295.173C222.212 293.716 221.926 293.335 219.435 290.691C218.091 289.264 217.653 288.949 215.779 288.066C213.175 286.838 211.257 286.162 208.177 285.387C203.525 284.216 199.617 284.608 188.725 287.337C174.295 290.953 175.968 290.651 159.957 292.528L155.491 293.052L153.774 294.238C152.83 294.89 151.335 295.925 150.451 296.539L148.844 297.654L154.348 297.507C157.376 297.426 162.189 297.189 165.046 296.98C170.363 296.592 173.711 296.066 190.595 292.962C195.188 292.118 197.13 291.842 201.576 291.405C204.014 291.165 207.578 291.736 210.911 292.898C213.296 293.73 213.716 293.953 214.962 295.05C216.37 296.289 217.667 298.347 218.336 300.403C218.484 300.86 218.643 301.304 218.687 301.392C218.732 301.48 221.169 301.526 224.103 301.496L229.437 301.44L229.645 299.677ZM297.74 293.92C296.164 290.637 295.076 288.363 293.152 284.324C292.581 283.126 291.345 280.558 290.405 278.619C289.465 276.679 287.874 273.364 286.869 271.253C285.865 269.142 284.39 266.062 283.592 264.407C279.927 256.805 278.653 254.156 277.459 251.648C274.855 246.177 275.123 246.567 273.293 245.568C272.395 245.078 271.636 244.704 271.608 244.739C271.579 244.773 272.374 246.668 273.374 248.95C274.374 251.233 276.711 256.648 278.567 260.984C282.218 269.512 283.41 272.296 284.788 275.507C285.278 276.648 286.513 279.542 287.533 281.938C288.553 284.334 290.06 287.847 290.881 289.744L292.375 293.192L295.699 295.185C297.527 296.281 299.087 297.18 299.166 297.182C299.245 297.186 298.603 295.717 297.74 293.92ZM153.714 293.518L155.26 292.429L157.069 288.325C158.064 286.067 160.395 280.719 162.25 276.44C164.105 272.161 167.282 264.832 169.309 260.154C171.337 255.475 173.575 250.34 174.283 248.743C174.99 247.145 175.748 245.393 175.966 244.848L176.364 243.858L174.472 245.129C172.643 246.357 172.557 246.451 171.849 247.986C171.446 248.859 169.856 252.234 168.317 255.486C166.777 258.738 164.349 263.873 162.923 266.897C161.496 269.92 159.065 275.055 157.52 278.307C155.976 281.56 154.429 284.827 154.083 285.569C153.736 286.311 152.393 289.154 151.097 291.887C149.8 294.62 148.74 296.89 148.74 296.932C148.74 297.003 149.716 296.333 153.714 293.518ZM226.204 290.574C228.308 287.951 229.682 286.843 232.242 285.706C235.285 284.354 238.561 283.741 243.666 283.566L247.509 283.434L251.975 284.308C254.431 284.788 259.852 286.022 264.022 287.05C273.556 289.4 281.737 291.052 285.976 291.483C287.782 291.667 289.62 291.911 290.059 292.026C290.499 292.141 290.886 292.206 290.919 292.17C290.952 292.134 290.765 291.637 290.504 291.067C290.243 290.496 288.935 287.462 287.597 284.324C286.26 281.186 283.784 275.398 282.097 271.461C280.41 267.524 277.934 261.736 276.595 258.598C275.256 255.46 274.034 252.612 273.878 252.27C273.723 251.928 272.84 249.878 271.917 247.715C270.993 245.552 270.209 243.754 270.175 243.719C270.071 243.616 265.426 243.071 261.01 242.644C257.342 242.29 256.284 242.095 251.975 240.981C249.29 240.286 246.205 239.381 245.12 238.969C241.165 237.466 234.827 236.666 231.819 237.291C229.138 237.847 228.121 238.342 226.567 239.845C225.788 240.598 224.876 241.592 224.541 242.053L223.933 242.892L223.948 268.536C223.962 294.106 223.963 294.176 224.366 293.271C224.588 292.771 225.415 291.558 226.204 290.574ZM222.636 241.464C222.264 240.793 221.434 239.713 220.791 239.065C219.086 237.345 217.888 237.003 213.132 236.876L209.497 236.779L205.55 237.846C197.151 240.117 196.133 240.38 193.918 240.856C191.902 241.29 189.134 241.713 183.844 242.395C182.987 242.505 181.27 242.662 180.028 242.743L177.77 242.89L177.295 243.949C176.605 245.491 173.062 253.628 169.246 262.436C167.417 266.658 165.617 270.813 165.246 271.668C164.875 272.524 163.076 276.679 161.248 280.901C159.42 285.123 157.667 289.163 157.353 289.879C157.039 290.595 156.819 291.217 156.863 291.261C156.908 291.305 161.011 290.877 165.98 290.311C175.873 289.183 176.521 289.055 190.283 285.476C195.986 283.993 200.332 283.287 203.756 283.287C206.381 283.287 209.57 283.987 213.233 285.366C217.132 286.835 218.12 287.466 220.537 290.028C221.748 291.313 222.801 292.627 222.947 293.037C223.157 293.626 223.216 288.921 223.259 268.224L223.311 242.685L222.636 241.464Z" fill="currentcolor"/>

</svg>
