<svg  viewBox="0 0 1180 580" fill="currentcolor" xmlns="http://www.w3.org/2000/svg">
<path d="M239.861 338.561C230.135 338.087 220.027 335.103 211.617 330.223C195.782 321.035 184.827 306.108 180.996 288.501C179.921 283.561 179.609 280.484 179.615 274.89C179.621 269.735 179.901 266.778 180.806 262.297C183.685 248.041 191.368 235.233 202.648 225.883C211.071 218.901 221.457 214.098 232.237 212.197C236.096 211.517 238.632 211.31 243.187 211.304C249.626 211.296 254.258 211.894 260.207 213.502C267.488 215.47 275.065 219.137 281.149 223.639C294.241 233.326 303.226 247.675 306.067 263.435C306.759 267.276 306.902 268.927 306.98 274.021C307.065 279.508 306.894 281.982 306.123 286.476C302.702 306.404 290.212 323.181 272.226 332.008C264.17 335.961 255.892 338.077 246.536 338.573C243.423 338.739 243.522 338.738 239.861 338.561ZM249.119 336.539C260.711 335.452 271.001 331.649 280.162 325.066C286.54 320.483 292.457 314.057 296.372 307.46C301.248 299.245 303.878 291.269 304.947 281.453C305.222 278.931 305.222 271.013 304.947 268.652C303.26 254.15 297.48 241.874 287.56 231.728C277.268 221.201 263.931 214.813 249.27 213.389C244.616 212.937 237.699 213.155 233.291 213.894C213.778 217.162 197.099 229.36 188.12 246.931C183.643 255.694 181.471 264.82 181.462 274.908C181.453 285.229 183.65 294.275 188.4 303.469C197.241 320.583 214.097 332.828 233.129 335.963C238.111 336.783 244.178 337.002 249.119 336.539ZM240.105 335.881C236.349 335.649 232.172 335.026 228.723 334.183C214.246 330.646 201.326 321.696 192.92 309.379C188.033 302.219 184.845 294.497 183.263 285.99C182.509 281.934 182.369 280.21 182.366 274.971C182.362 269.55 182.578 267.205 183.489 262.715C187.965 240.664 204.58 222.655 226.226 216.391C229.109 215.557 232.335 214.878 235.571 214.425C237.8 214.112 238.865 214.062 243.268 214.059C247.667 214.056 248.744 214.107 251.008 214.418C260.806 215.763 269.035 218.825 277.012 224.093C282.161 227.494 286.34 231.223 290.234 235.894C302.282 250.345 306.927 269.283 303.042 288.118C299.005 307.693 285.514 323.902 267.066 331.345C259.746 334.298 252.631 335.736 244.647 335.878C242.684 335.913 240.64 335.914 240.105 335.881ZM248.541 334.836C267.793 333.184 284.433 323.198 294.422 307.3C295.806 305.099 298.383 299.991 299.288 297.657C303.613 286.504 304.626 273.937 302.143 262.251C299.709 250.8 293.664 239.969 285.089 231.696C270.837 217.945 250.82 212.133 231.263 216.068C221.55 218.022 212.412 222.435 204.658 228.915C202.266 230.913 198.459 234.772 196.618 237.063C187.795 248.04 183.218 260.877 183.189 274.728C183.171 282.749 184.556 290.043 187.491 297.393C189.007 301.188 191.805 306.299 194.202 309.653C197.127 313.744 201.492 318.434 205.077 321.337C214.583 329.034 225.323 333.511 237.266 334.756C239.767 335.017 245.923 335.06 248.541 334.836ZM242.623 328.755C241.956 328.633 240.923 328.386 240.327 328.205C238.928 327.781 238.696 327.798 239.287 328.28C239.551 328.496 239.734 328.705 239.693 328.745C239.652 328.784 238.815 328.653 237.834 328.452C236.852 328.252 235.136 327.921 234.021 327.718C229.968 326.98 225.618 326.071 223.476 325.515C221.05 324.884 218.621 324.069 218.368 323.801C218.253 323.679 218.301 323.656 218.528 323.722C221.661 324.64 229.779 325.543 231.96 325.216C232.802 325.09 232.84 324.885 232.054 324.712C231.567 324.606 231.555 324.581 231.657 323.93C231.78 323.152 232.394 321.903 233.085 321.027C234.04 319.817 236.945 318.068 237.689 318.254C237.943 318.318 238.31 318.137 238.992 317.612C239.964 316.865 240.574 316.518 246.351 313.42C251.835 310.479 253.436 309.465 255.978 307.324C257.459 306.076 257.698 306.021 257.704 306.927C257.704 307.123 257.791 307.853 257.895 308.547C258.104 309.941 258.158 309.881 258.52 307.865C258.912 305.675 259.795 303.85 261.24 302.241C262.118 301.264 265.111 298.739 266.492 297.81C267.147 297.369 268.852 296.301 270.279 295.437L272.875 293.865L273.319 294.343C273.563 294.606 273.825 294.821 273.9 294.821C273.976 294.821 274.27 294.532 274.554 294.179C275.793 292.639 278.354 291.319 280.987 290.865C284.279 290.296 292.759 289.731 292.742 290.081C292.738 290.148 292.392 290.416 291.972 290.676C290.758 291.426 286.655 294.282 284.88 295.611C280.261 299.072 276.872 302.245 276.04 303.891C275.451 305.058 274.561 305.992 273.49 306.57L272.713 306.988L273.421 306.895C274.129 306.802 274.129 306.802 274.019 307.252C273.753 308.333 272.737 310.519 271.681 312.28C269.621 315.715 266.546 319.259 263.141 322.124C258.575 325.965 255 327.841 250.649 328.679C248.608 329.073 244.577 329.111 242.623 328.755ZM238.015 324.877C240.199 324.506 243.993 323.532 245.368 322.99C250.087 321.13 257.46 315.639 264.849 308.482C267.547 305.869 271.077 302.131 271.695 301.234L272.038 300.735L271.564 301.151C271.304 301.379 270.689 301.933 270.198 302.382C269.707 302.83 268.43 303.984 267.359 304.946C266.288 305.908 263.952 308.096 262.168 309.808C253.691 317.938 250.958 319.867 245.053 321.886C243.937 322.267 242.499 322.784 241.857 323.035C241.103 323.33 239.864 323.61 238.369 323.824C234.637 324.359 233.21 324.676 233.21 324.972C233.21 325.21 236.433 325.146 238.015 324.877ZM225.747 316.799C225.747 316.754 226.355 316.351 227.097 315.904C230.814 313.661 234.95 310.569 241.646 305.026C249.722 298.342 253.119 296.09 257.747 294.357C258.706 293.997 260.276 293.515 261.235 293.286C262.194 293.056 263.149 292.796 263.357 292.708L263.735 292.548L262.813 290.808C261.672 288.654 260.906 287.596 260.244 287.262C259.113 286.69 258.993 286.36 259.351 284.81C259.709 283.264 259.034 281.858 257.935 281.858C257.297 281.858 257.257 281.737 257.707 281.166C258.076 280.697 258.132 279.686 257.867 278.275C257.681 277.28 257.347 276.755 256.556 276.212C255.902 275.763 255.054 275.801 253.382 276.357C248.254 278.062 240.765 283.826 230.117 294.264C226.739 297.576 224.517 299.622 223.621 300.244C221.951 301.405 218.035 305.313 215.047 308.8C213.029 311.156 212.823 311.349 212.316 311.349C212.015 311.349 211.797 311.294 211.831 311.227C212.413 310.098 212.451 309.896 212.198 309.291C211.956 308.712 211.961 308.679 212.344 308.296C212.793 307.848 213.256 307.915 213.256 308.427C213.256 308.608 213.347 308.757 213.458 308.757C213.721 308.761 221.747 300.646 222.282 299.839C222.539 299.452 222.67 299.054 222.637 298.764C222.549 297.996 221.791 297.753 218.996 297.596C217.304 297.501 216.387 297.376 215.932 297.178C214.728 296.653 214.48 296.625 213.645 296.923C212.276 297.41 208.187 299.94 208.006 300.411C207.805 300.933 207.915 300.978 209.373 300.978C210.823 300.978 210.843 300.983 210.733 301.343C210.455 302.251 210.09 302.918 208.719 305.02C206.68 308.148 205.885 309.89 206.498 309.89C206.868 309.89 207.232 309.348 207.348 308.627C207.476 307.829 207.608 307.702 208.061 307.944C208.276 308.059 208.389 308.284 208.389 308.598V309.077L209.326 308.552C210.65 307.81 210.901 307.605 211.162 307.055C211.474 306.397 212.224 306.28 212.372 306.867C212.476 307.285 212.221 307.946 211.954 307.946C211.574 307.946 210.932 309.276 210.838 310.26C210.743 311.25 210.733 311.268 210.254 311.268C209.725 311.268 209.738 311.33 209.945 309.85C210.005 309.419 209.988 309.08 209.906 309.08C209.825 309.08 209.37 309.372 208.895 309.729C207.883 310.488 206.153 311.068 205.122 310.994C204.493 310.949 204.409 310.896 204.365 310.515C204.325 310.172 204.555 309.828 205.504 308.813C206.301 307.961 206.793 307.273 206.994 306.731C207.159 306.285 207.754 305.228 208.317 304.381C209.174 303.093 209.687 302.153 209.687 301.871C209.687 301.838 209.267 301.762 208.754 301.702C208.241 301.641 207.505 301.455 207.119 301.289C206.509 301.025 206.433 300.938 206.532 300.617C206.729 299.985 207.238 299.388 208.196 298.667C210.21 297.149 211.952 296.226 213.458 295.879C214.698 295.593 215.353 295.716 216.533 296.458C217.443 297.031 217.673 297.06 220.15 296.91C220.915 296.864 221.292 296.931 221.907 297.223C223.034 297.758 223.207 297.675 223.363 296.52C223.544 295.182 223.409 293.917 222.983 292.957C222.785 292.512 222.606 292.127 222.586 292.103C222.565 292.078 221.52 292.138 220.262 292.237C216.978 292.495 215.61 292.149 213.874 290.62C212.764 289.642 212.488 289.098 212.288 287.496C212.068 285.722 211.84 285.079 210.062 281.22C209.101 279.132 208.844 278.195 208.967 277.216C209.114 276.039 208.861 275.474 208.007 275.072C207.637 274.898 207.017 274.706 206.628 274.644C206.208 274.577 205.721 274.353 205.425 274.088C204.376 273.152 204.961 271.539 207.652 267.94C210.986 263.48 214.179 258.77 215.093 256.963C215.569 256.02 215.848 254.566 215.85 253.014C215.854 251.628 216.012 251.122 216.985 249.438C218.092 247.523 218.262 246.966 218.518 244.43C218.666 242.96 218.877 241.844 219.161 241.037C219.889 238.959 219.742 238.462 217.777 236.36C216.466 234.957 215.85 233.848 215.869 232.923C215.906 231.064 216.462 230.809 216.752 232.517C217.01 234.037 217.484 234.983 218.488 235.981C218.948 236.438 219.374 236.811 219.434 236.811C219.494 236.811 219.634 236.702 219.745 236.568C219.856 236.435 220.111 236.325 220.312 236.325C220.591 236.325 220.702 236.206 220.778 235.823C220.834 235.546 220.844 235.264 220.802 235.195C220.76 235.127 220.615 234.647 220.479 234.128L220.234 233.186L220.834 231.971C221.398 230.832 221.442 230.631 221.549 228.72C221.677 226.437 221.776 226.077 222.509 225.243C223.306 224.337 224.239 224.136 227.371 224.193C229.775 224.238 229.987 224.218 230.411 223.904C231.163 223.349 232.07 222.941 233.697 222.427C238.214 221 247.189 220.244 250.65 221C252.572 221.419 253.795 221.86 254.72 222.466C255.907 223.244 257.46 224.726 258.064 225.658C258.482 226.302 258.651 226.442 258.917 226.364C259.099 226.31 260.527 226.222 262.09 226.168C266.109 226.03 267.933 226.413 268.68 227.552C268.925 227.926 268.924 227.968 268.652 228.166C268.332 228.4 267.899 228.333 266.842 227.884C266.034 227.541 264.102 227.251 262.623 227.251C261.652 227.251 261.58 227.274 261.783 227.52C262.387 228.25 264.728 228.932 267.442 229.17C269.27 229.331 269.789 229.552 271.117 230.735C271.809 231.352 272.252 231.626 272.557 231.626C272.978 231.626 272.995 231.596 272.913 230.986C272.784 230.023 272.272 229.429 271.243 229.044C270.751 228.86 270.214 228.709 270.05 228.709C269.716 228.709 269.332 228.333 269.497 228.168C269.674 227.991 270.588 228.048 271.377 228.285C272.824 228.72 273.598 229.602 273.823 231.073C273.911 231.643 273.868 231.789 273.519 232.117C273.287 232.335 273.07 232.764 273.014 233.116C272.903 233.803 272.799 233.85 272.222 233.472C271.687 233.122 271.352 233.268 271.455 233.807C271.539 234.247 271.602 234.312 274.031 236.473C275.563 237.837 275.707 238.09 275.712 239.437C275.712 239.677 275.791 240.233 275.886 240.673L276.057 241.471L276.83 241.574C277.957 241.723 278.992 242.44 279.459 243.396C279.966 244.434 279.973 246.209 279.475 247.489C279.251 248.062 279.183 248.452 279.277 248.623C279.473 248.982 280.342 249.768 281.311 250.463C283.539 252.061 284.477 254.003 284.472 257.008C284.468 258.702 284.216 259.888 283.317 262.413C282.533 264.617 282.152 265.296 281.625 265.428C281.411 265.482 280.699 265.407 280.043 265.261C279.11 265.053 278.412 264.73 276.836 263.777C273.131 261.534 272.849 260.984 273.359 256.985L273.627 254.879L274.678 253.869C276.24 252.37 276.808 250.743 276.373 249.016C276.146 248.116 276.01 247.998 275.2 247.994C273.828 247.989 273.595 248.446 273.426 251.476C273.293 253.858 273.071 255.047 272.31 257.464C272.055 258.27 271.796 259.329 271.733 259.817C271.641 260.527 271.507 260.814 271.063 261.258C270.61 261.711 270.526 261.896 270.607 262.264C270.743 262.882 270.836 262.94 272.956 263.71C276.775 265.097 279.177 266.607 279.94 268.099C280.138 268.487 280.282 269.154 280.319 269.852C280.36 270.638 280.483 271.147 280.723 271.536C281.005 271.991 281.068 272.348 281.068 273.495C281.068 274.715 281.015 274.981 280.658 275.545C280.402 275.949 280.158 276.709 280.009 277.56C279.693 279.37 279.27 280.453 278.457 281.533C278.089 282.023 277.583 282.825 277.334 283.316C276.599 284.76 275.926 285.56 274.871 286.241C273.66 287.023 272.85 287.075 270.908 286.494C270.196 286.281 269.202 286.022 268.699 285.917C267.616 285.693 267.062 285.297 266.62 284.433C266.333 283.871 266.246 283.81 265.854 283.901C264.546 284.204 264.196 284.913 264.196 287.261C264.196 288.327 264.109 289.194 263.958 289.62C263.685 290.392 263.762 290.686 264.501 291.696C264.884 292.219 265.181 292.431 265.774 292.604C266.2 292.728 266.548 292.923 266.548 293.038C266.548 293.152 266.275 293.466 265.942 293.736C265.401 294.173 265.174 294.239 263.833 294.343C261.46 294.527 260.394 294.874 256.166 296.834C253.902 297.884 250.829 300.14 245.215 304.877C236.803 311.974 231.991 315.175 228.181 316.205C227.155 316.483 226.188 316.748 226.031 316.795C225.875 316.842 225.747 316.843 225.747 316.799ZM226.529 296.239C239.039 285.067 245.174 279.775 246.648 278.889C248.582 277.726 248.753 277.576 249.146 276.698C249.747 275.357 251.053 274.242 252.023 274.242C252.57 274.242 252.395 274.706 251.747 274.977C250.735 275.399 250.123 276.174 250.502 276.552C250.609 276.659 251.973 275.894 252.834 275.244C253.266 274.919 253.633 274.805 254.414 274.755C255.418 274.692 255.431 274.685 255.338 274.264C255.055 272.981 253.239 271.209 251.811 270.823C250.99 270.602 249.494 270.716 248.849 271.049C248.399 271.281 242.299 276.499 238.807 279.638C234.855 283.19 232.143 285.08 228.401 286.89C225.568 288.26 224.723 288.87 224.265 289.877C223.889 290.705 223.868 292.664 224.215 294.492C224.458 295.773 224.414 296.565 224.022 297.94C223.857 298.517 224.36 298.176 226.529 296.239ZM221.394 290.637C221.81 290.434 222.728 289.743 223.435 289.101C224.141 288.459 225.122 287.593 225.615 287.176C226.497 286.429 227.144 285.428 226.995 285.041C226.954 284.932 226.345 284.67 225.644 284.458C223.388 283.778 222.326 282.908 222.569 281.94C222.694 281.443 223.232 281.381 225.807 281.568C227 281.655 227.958 281.659 228.039 281.578C228.12 281.497 227.839 281.013 227.385 280.451C226.948 279.908 226.503 279.302 226.396 279.102C226.122 278.591 226.155 277.709 226.465 277.236C226.77 276.771 227.232 276.726 228.075 277.078C228.744 277.357 231.263 277.419 231.263 277.156C231.263 276.862 230.267 276.378 229.09 276.1C227 275.607 226.204 275.036 226.047 273.918C225.991 273.517 226.007 273.512 227.532 273.395C228.38 273.331 229.824 273.167 230.741 273.031C231.658 272.895 232.461 272.783 232.525 272.781C232.59 272.781 232.74 272.717 232.86 272.641C233.041 272.527 233.034 272.418 232.824 272.012L232.57 271.52L229.848 271.463C227.304 271.409 227.079 271.379 226.403 271.001C225.558 270.529 224.936 269.692 224.936 269.026V268.557L226.194 268.686C229.248 268.997 233.778 268.638 233.778 268.085C233.778 267.938 233.119 267.517 232.11 267.021C230.333 266.146 230.064 265.946 229.891 265.37C229.809 265.099 229.857 264.979 230.076 264.905C230.238 264.85 230.687 264.659 231.072 264.48C231.875 264.109 232.679 263.013 233.154 261.644C233.316 261.176 233.541 260.793 233.654 260.793C233.965 260.793 233.902 261.279 233.445 262.404C232.969 263.573 233.012 264.066 233.647 264.751C234.33 265.486 235.385 265.867 236.941 265.94C237.972 265.989 238.399 265.946 238.632 265.771C238.978 265.511 239.076 265.645 237.686 264.482C236.746 263.695 237.42 263.539 239.902 263.97C240.791 264.124 241.907 264.201 242.638 264.16C243.759 264.096 243.992 264.02 245.146 263.334C245.967 262.846 246.694 262.541 247.195 262.475C247.623 262.418 247.973 262.311 247.973 262.236C247.973 261.98 247.027 261.024 246.243 260.488C245.026 259.656 244.808 259.276 244.822 258.015C244.837 256.66 245.206 255.662 246.192 254.312C246.616 253.732 247.011 253.03 247.07 252.751C247.169 252.294 247.135 252.233 246.724 252.131C245.352 251.789 243.705 250.605 243.789 250.022C243.861 249.522 244.611 249.656 245.77 250.373C246.496 250.824 246.935 250.986 247.435 250.987C248.073 250.991 248.204 250.901 249.644 249.491C250.485 248.667 251.251 247.992 251.345 247.992C251.439 247.992 251.639 247.945 251.791 247.886C252.038 247.792 252.055 247.879 251.954 248.748C251.829 249.826 251.943 250.025 252.789 250.194C253.225 250.281 253.297 250.235 253.489 249.749C253.722 249.16 254.268 248.478 254.505 248.478C254.592 248.478 254.607 249.034 254.542 249.819C254.297 252.754 255.132 253.595 258.477 253.781C259.566 253.841 259.978 253.922 259.978 254.077C259.978 254.194 259.832 254.336 259.654 254.393C259.475 254.449 259.329 254.558 259.329 254.635C259.329 254.816 260.25 255.292 260.87 255.431C261.25 255.516 261.357 255.628 261.357 255.939C261.357 256.311 261.309 256.333 260.627 256.281C259.679 256.209 258.161 255.702 257.139 255.115C256.693 254.859 255.488 253.986 254.462 253.174C252.413 251.553 250.783 250.423 250.495 250.423C250.394 250.423 250.022 250.722 249.669 251.087L249.028 251.751L250.238 252.829C252.367 254.724 253.651 256.064 253.651 256.39C253.651 256.639 253.5 256.728 252.933 256.813C252.109 256.936 251.339 257.464 251.414 257.854C251.458 258.079 251.716 258.119 253.113 258.119C254.018 258.119 254.816 258.176 254.885 258.245C255.179 258.539 254.446 258.886 253.25 259.02C251.649 259.2 251.38 259.29 251.38 259.653C251.38 260.015 252.372 260.913 252.925 261.052C253.949 261.308 255.05 260.731 255.603 259.649C255.88 259.107 256.333 258.687 256.642 258.687C256.795 258.687 256.744 259.417 256.552 259.967C256.453 260.252 256.41 260.524 256.457 260.571C256.663 260.776 257.266 260.228 257.541 259.585C258.005 258.506 259.125 257.869 258.908 258.808C258.769 259.413 257.105 262.564 256.674 263.038C256.242 263.515 255.867 263.66 254.524 263.875C253.316 264.068 252.156 263.914 251.031 263.412C249.856 262.887 249.778 262.884 248.241 263.294C247.425 263.512 246.575 263.713 246.353 263.741C245.82 263.807 245.772 264.174 246.179 265.066C246.578 265.94 246.604 266.587 246.26 267.077C246.121 267.275 245.3 267.848 244.435 268.351C242.671 269.378 242.206 269.748 241.868 270.397C241.66 270.796 241.664 270.856 241.897 270.946C242.498 271.176 244.707 270.856 246.573 270.269C248.649 269.616 248.702 269.613 252.637 269.967C253.667 270.06 253.814 270.039 253.814 269.804C253.814 269.384 254.688 267.599 255.323 266.725C256.164 265.566 257.693 264.047 258.351 263.715C258.666 263.557 259.49 263.313 260.182 263.174C260.874 263.034 261.641 262.78 261.886 262.61C262.13 262.439 263.15 261.846 264.151 261.292C266.522 259.979 267.39 259.188 268.231 257.575C268.597 256.871 269.215 255.941 269.604 255.506C270.475 254.534 270.685 254.147 270.685 253.522C270.685 252.953 270.488 252.786 269.968 252.917C269.313 253.081 268.631 253.968 268.013 255.457C267.416 256.896 266.878 257.552 266.296 257.552C265.789 257.552 265.025 256.761 264.836 256.042C264.224 253.71 264.193 253.645 263.572 253.397C262.352 252.91 261.88 252.592 261.403 251.933C260.642 250.881 260.023 250.723 258.727 251.25C258.441 251.366 258.16 251.415 258.104 251.359C257.874 251.13 258.256 250.559 258.839 250.262C259.633 249.858 260.051 249.321 260.395 248.266C260.545 247.804 260.769 247.31 260.891 247.169C261.014 247.028 261.114 246.751 261.114 246.554C261.114 246.203 261.095 246.207 260.383 246.696C258.828 247.765 257.222 248.142 256.493 247.609C256.203 247.397 256.207 247.378 256.584 247.132C256.8 246.992 257.561 246.718 258.275 246.524C260.187 246.006 260.164 246.025 260.108 244.944L260.059 244.022L259.329 244.037C258.928 244.046 258.056 244.177 257.391 244.33C256.065 244.634 255.313 244.577 254.237 244.089C253.398 243.708 252.154 243.69 251.604 244.05C251.376 244.198 250.767 244.873 250.25 245.548C249.227 246.884 248.514 247.613 248.37 247.47C248.178 247.278 248.83 246.097 249.514 245.399C250.422 244.474 250.739 243.707 250.761 242.382C250.783 241.108 250.463 240.573 249.467 240.222C248.538 239.894 247.552 240.163 245.256 241.372C244.252 241.901 243.431 242.254 243.431 242.157C243.431 241.854 243.87 241.121 244.267 240.76C244.948 240.141 245.339 239.994 248.987 238.99C249.917 238.733 249.92 238.731 249.92 238.107C249.92 237.209 249.699 236.744 248.887 235.933C248.083 235.13 247.782 235.043 246.525 235.25C245.44 235.429 243.378 235.164 242.364 234.716C241.71 234.427 241.646 234.348 241.646 233.824C241.646 233.389 241.765 233.143 242.133 232.816C242.401 232.578 242.62 232.322 242.62 232.247C242.62 232.173 242.288 232.112 241.882 232.112C240.718 232.112 239.762 231.466 240.231 230.998C240.331 230.898 240.8 230.816 241.273 230.816C242.237 230.816 242.35 230.62 241.891 229.741C241.529 229.048 241.577 228.949 242.407 228.697C242.825 228.57 243.193 228.384 243.225 228.283C243.257 228.182 243.034 227.836 242.729 227.513C242.238 226.993 242.085 226.927 241.374 226.927C240.219 226.927 239.873 227.438 239.599 229.551C239.363 231.373 239.148 231.92 238.529 232.266C237.745 232.705 237.718 232.322 238.41 230.611C239.353 228.281 239.246 226.881 238.049 225.875C237.589 225.489 237.424 225.443 236.763 225.521C236.346 225.571 235.741 225.721 235.419 225.856C234.857 226.09 234.833 226.133 234.833 226.908C234.833 227.352 234.754 227.921 234.658 228.172L234.483 228.628L234.09 228.174C233.874 227.924 233.697 227.586 233.697 227.424C233.697 227.039 233.398 226.802 232.828 226.737C232.372 226.684 232.365 226.697 231.938 228.385C231.613 229.667 231.437 230.099 231.223 230.139C230.987 230.183 230.939 230.069 230.939 229.46C230.939 228.887 230.861 228.673 230.579 228.476C230.38 228.337 230.125 228.223 230.011 228.223C229.691 228.223 229.765 229.498 230.128 230.249C230.527 231.073 230.535 231.961 230.151 232.726C229.566 233.892 229.571 234.181 230.187 234.796C230.63 235.239 230.873 235.353 231.373 235.353C232.566 235.353 233.259 234.42 232.396 233.974C231.839 233.686 231.644 233.174 231.939 232.773C233.146 231.135 234.583 229.537 235.119 229.236C235.863 228.819 237.038 228.75 237.511 229.096C237.795 229.303 237.727 229.366 236.61 229.916C235.944 230.244 235.194 230.708 234.942 230.948C234.45 231.415 233.21 233.19 233.21 233.427C233.21 233.722 233.651 233.555 234.096 233.091C234.463 232.709 234.616 232.645 234.856 232.773C235.287 233.003 235.232 233.38 234.589 234.612C233.919 235.896 233.888 236.231 234.408 236.571C234.711 236.769 235.029 236.8 235.868 236.714C236.908 236.608 236.942 236.616 236.942 236.972C236.942 237.302 237 237.33 237.511 237.247C237.824 237.197 238.286 237.009 238.538 236.83C239.1 236.43 240.571 235.839 241.003 235.839C241.395 235.839 241.424 236.306 241.074 236.981C240.938 237.244 240.81 237.46 240.79 237.46C240.537 237.465 238.611 238.393 237.306 239.137L235.644 240.086V240.801C235.644 241.499 235.655 241.514 236.09 241.413C236.335 241.356 236.986 241.063 237.536 240.762C238.832 240.051 238.943 240.058 238.811 240.84C238.677 241.63 238.919 241.894 240.018 242.157C240.467 242.265 240.834 242.4 240.833 242.458C240.823 242.911 240.558 243.344 240.166 243.546C239.9 243.684 239.533 244.118 239.307 244.563C238.53 246.094 237.165 246.924 235.437 246.918C233.952 246.912 233.075 245.756 232.928 243.61L232.839 242.319L232.092 242.092C231.681 241.967 230.704 241.566 229.922 241.201C229.14 240.836 228.373 240.541 228.219 240.544C228.064 240.548 227.791 240.785 227.611 241.071C227.189 241.742 226.719 241.797 225.831 241.277C225.175 240.893 223.968 239.527 223.496 238.634C223.151 237.982 221.412 238.221 220.525 239.043C219.907 239.615 219.723 240.662 219.851 242.891C219.945 244.541 219.997 244.778 220.332 245.093L220.708 245.446L220.308 245.921C219.775 246.554 219.802 246.696 220.457 246.696C221.075 246.696 221.648 247.099 221.723 247.587C221.77 247.891 221.693 247.908 220.446 247.868C219.193 247.828 219.113 247.846 219.004 248.192C218.94 248.394 218.716 248.813 218.506 249.123C218.086 249.741 218.006 250.26 218.329 250.26C218.443 250.26 219.264 250.072 220.155 249.842C221.523 249.488 222.011 249.436 223.314 249.504C224.998 249.591 225.423 249.696 225.423 250.025C225.423 250.374 225.235 250.419 222.715 250.664C219.93 250.935 218.955 251.162 217.895 251.782C216.803 252.421 216.568 252.898 216.448 254.718C216.281 257.267 215.833 258.359 213.363 262.251C210.374 266.958 208.642 269.411 207.165 271.026C206.389 271.874 206.118 272.46 206.118 273.29C206.118 273.52 206.237 273.594 206.611 273.594C206.995 273.594 207.354 273.36 208.227 272.541C209.464 271.38 209.901 271.255 211.041 271.73C211.361 271.864 211.814 271.973 212.046 271.973C212.462 271.973 212.469 271.957 212.417 270.966C212.356 269.802 212.524 269.663 213.369 270.181C213.857 270.481 213.877 270.53 213.714 271.034C213.361 272.129 213.363 272.629 213.723 273.116C213.912 273.372 214.067 273.617 214.067 273.661C214.067 273.955 212.777 273.893 211.097 273.516C210.052 273.282 209.124 273.135 209.036 273.19C208.812 273.328 209.02 274.066 209.447 274.647C209.951 275.332 210.023 275.774 209.84 277.062C209.747 277.719 209.74 278.249 209.824 278.333C209.904 278.412 210.508 278.516 211.166 278.563C212.204 278.638 212.57 278.584 213.905 278.153C214.753 277.88 215.702 277.635 216.014 277.61C216.533 277.568 216.578 277.599 216.541 277.969C216.433 279.036 215.798 279.467 213.773 279.85C211.895 280.206 211.302 280.393 211.198 280.663C211.146 280.797 211.561 281.856 212.119 283.015C213.101 285.053 213.139 285.178 213.257 286.81C213.388 288.615 213.534 288.985 214.457 289.84C215.538 290.843 216.462 291.091 218.934 291.04C220.33 291.012 220.774 290.939 221.394 290.637ZM220.161 273.541C219.926 273.369 219.901 273.259 220.04 273.001C220.36 272.404 220.654 272.256 220.944 272.547C221.278 272.88 221.281 273.53 220.948 273.658C220.585 273.797 220.493 273.783 220.161 273.541ZM221.151 260.329C221.3 258.399 221.162 257.94 220.144 256.988C219.196 256.103 218.825 255.284 219.37 255.284C219.541 255.284 220.661 255.205 221.86 255.109C224.497 254.898 225.155 254.981 226.174 255.656C226.605 255.941 227.434 256.329 228.015 256.518C228.657 256.725 229.093 256.961 229.124 257.117C229.194 257.47 228.165 257.968 226.874 258.204C226.299 258.31 225.656 258.429 225.445 258.468C225.234 258.507 224.499 259.075 223.812 259.729C222.778 260.713 221.506 261.603 221.135 261.603C221.09 261.603 221.097 261.03 221.151 260.329ZM224.092 258.356C224.205 258.174 224.255 257.955 224.202 257.87C224.053 257.628 223.377 257.687 223.148 257.961C222.924 258.231 222.925 258.233 223.395 258.496C223.832 258.74 223.854 258.735 224.092 258.356ZM225.18 256.917L225.666 256.806L225.098 256.45C224.786 256.255 224.275 256.052 223.963 255.999C223.651 255.947 223.267 255.868 223.11 255.825C222.749 255.726 222.586 256.129 222.814 256.556C223.058 257.01 224.085 257.167 225.18 256.917ZM236.242 261.012C236.18 260.951 236.13 260.692 236.13 260.437C236.13 260.104 236.233 259.934 236.495 259.835C236.938 259.669 237 259.792 236.821 260.483C236.683 261.013 236.453 261.223 236.242 261.012ZM228.343 249.959C227.873 249.873 227.775 249.786 227.775 249.45C227.775 249.06 227.81 249.046 228.734 249.079C229.812 249.117 230.136 249.305 229.864 249.738C229.671 250.047 229.201 250.115 228.343 249.959ZM227.045 246.282C226.287 246.073 225.44 245.899 225.163 245.894C224.014 245.874 223.314 245.383 223.314 244.597C223.314 244.259 223.318 244.259 223.922 244.566C224.594 244.905 226.284 245.308 227.756 245.479C228.685 245.587 229.479 246.07 229.479 246.526C229.479 246.789 228.556 246.697 227.045 246.282ZM241.435 240.922C241.228 240.715 241.667 240.214 242.057 240.214C242.376 240.214 242.457 240.297 242.457 240.619C242.457 240.956 242.379 241.024 241.997 241.024C241.745 241.024 241.492 240.978 241.435 240.922ZM263.307 288.483C263.467 287.534 263.245 285.421 262.974 285.317C262.636 285.188 261.882 285.618 261.615 286.093C261.311 286.636 261.54 287.498 262.249 288.475C262.874 289.337 263.162 289.34 263.307 288.483ZM275.378 284.996C275.718 284.564 275.832 283.964 275.574 283.964C275.287 283.964 274.578 284.646 274.578 284.921C274.578 285.541 274.923 285.573 275.378 284.996ZM268.576 284.86C268.576 284.818 268.385 284.38 268.151 283.888C267.584 282.691 266.954 282.679 266.954 283.866C266.954 284.395 267.532 284.937 268.096 284.937C268.36 284.937 268.576 284.902 268.576 284.86ZM261.176 284.375C261.514 283.86 261.519 283.875 260.963 283.645C260.702 283.537 260.448 283.346 260.4 283.22C260.352 283.095 260.228 282.992 260.125 282.992C259.884 282.992 260.052 283.887 260.389 284.402C260.701 284.876 260.851 284.871 261.176 284.375ZM273.93 283.804C273.999 283.32 274.162 283.14 275.065 282.553C276.325 281.734 276.85 281.169 276.85 280.634C276.85 280.245 276.347 279.589 276.05 279.589C275.737 279.589 275.386 280.122 275.285 280.751L275.181 281.403L274.351 281.3C273.553 281.2 273.509 281.215 273.23 281.687C273.071 281.957 272.688 282.508 272.38 282.911C271.843 283.614 271.691 284.105 271.936 284.35C271.999 284.413 272.455 284.443 272.95 284.417C273.841 284.37 273.849 284.365 273.93 283.804ZM265.488 282.431C265.8 282.056 265.879 280.953 265.652 280.142C265.412 279.286 265.129 279.104 264.676 279.514C264.335 279.822 264.271 280.533 264.461 281.916C264.549 282.556 264.618 282.668 264.928 282.668C265.128 282.668 265.38 282.562 265.488 282.431ZM271.896 282.165C272.756 281.411 272.617 280.651 271.689 281.035C271.187 281.243 270.441 282.244 270.598 282.497C270.791 282.809 271.315 282.675 271.896 282.165ZM268.622 281.549C268.775 281.29 268.9 280.959 268.9 280.812C268.9 280.504 267.794 279.982 267.585 280.191C267.407 280.368 267.933 282.02 268.166 282.02C268.264 282.02 268.469 281.808 268.622 281.549ZM262.8 281.169C263.136 280.647 263.192 279.61 262.895 279.422C262.763 279.338 262.381 279.269 262.046 279.268L261.438 279.264V279.971C261.438 280.441 261.551 280.822 261.774 281.105C262.186 281.628 262.492 281.647 262.8 281.168V281.169ZM259.937 279.451C260.093 279.286 260.58 278.656 261.018 278.052C261.763 277.024 261.816 276.887 261.829 275.936C261.837 275.377 261.798 274.874 261.744 274.818C261.689 274.763 261.285 274.676 260.845 274.624C260.145 274.541 259.984 274.581 259.542 274.954C259.264 275.187 258.809 275.423 258.53 275.479C258.252 275.535 257.99 275.636 257.948 275.703C257.889 275.8 258.556 278.419 258.928 279.549C259.027 279.85 259.613 279.794 259.937 279.451ZM271.658 279.167C271.658 279.132 271.549 279.103 271.415 279.103C271.281 279.103 271.172 279.174 271.172 279.26C271.172 279.346 271.281 279.375 271.415 279.324C271.549 279.273 271.658 279.202 271.658 279.167ZM268.251 278.681C268.251 278.646 268.142 278.617 268.008 278.617C267.874 278.617 267.765 278.688 267.765 278.774C267.765 278.86 267.874 278.889 268.008 278.838C268.142 278.786 268.251 278.716 268.251 278.681ZM267.348 278.525C267.809 278.064 267.532 276.658 266.916 276.328C266.462 276.086 266.31 276.375 266.307 277.491C266.303 278.684 266.747 279.124 267.348 278.525ZM275.685 278.242C275.785 277.376 274.795 276.511 273.706 276.511C273.37 276.511 273.292 276.609 273.201 277.153C273.141 277.506 273.142 277.877 273.204 277.976C273.469 278.405 274.354 278.785 274.984 278.742C275.563 278.703 275.639 278.648 275.685 278.242ZM270.969 278.191C271.507 278.047 271.481 277.321 270.938 277.321C270.581 277.321 270.036 277.832 270.036 278.167C270.036 278.316 270.459 278.327 270.969 278.191ZM265.133 277.44C265.611 276.932 265.965 276.024 266.236 274.608C266.54 273.025 266.534 272.963 266.071 272.787C265.347 272.512 265.287 272.116 265.801 270.977C266.899 268.543 266.762 266.71 265.436 266.081C264.734 265.748 264.242 265.747 263.445 266.074C262.15 266.605 261.3 267.757 260.882 269.544C260.64 270.582 260.72 271.192 261.192 271.912C261.519 272.41 261.831 272.23 262.682 271.05C263.358 270.111 263.759 270.003 263.843 270.738C263.888 271.125 263.743 271.343 262.968 272.058C262.059 272.896 262.042 272.927 262.148 273.589C262.357 274.893 264.097 277.807 264.667 277.807C264.733 277.807 264.943 277.642 265.133 277.44ZM279.283 277.645C279.283 277.556 279.214 277.483 279.13 277.483C279.046 277.483 278.933 277.556 278.878 277.645C278.822 277.734 278.891 277.807 279.03 277.807C279.169 277.807 279.283 277.734 279.283 277.645ZM270.482 276.362C270.972 276.047 271.334 275.694 271.334 275.533C271.334 274.69 269.236 272.538 268.183 272.3C267.47 272.14 267.278 272.392 267.278 273.484C267.278 274.181 267.298 274.21 267.847 274.313C268.554 274.445 268.835 274.869 268.985 276.024C269.12 277.07 269.181 277.206 269.438 277.037C269.544 276.968 270.014 276.664 270.482 276.362ZM272.58 275.579C272.635 275.423 272.828 275.131 273.009 274.931L273.337 274.566H271.983V275.214C271.983 275.688 272.049 275.862 272.231 275.862C272.368 275.862 272.525 275.735 272.58 275.579ZM275.714 275.574C275.714 275.098 275.239 274.566 274.813 274.566C274.501 274.566 274.416 274.65 274.416 274.959C274.416 275.463 274.816 275.862 275.32 275.862C275.589 275.862 275.714 275.771 275.714 275.574ZM278.472 274.907C278.472 274.717 277.998 274.539 277.806 274.658C277.723 274.709 277.698 274.818 277.749 274.901C277.868 275.094 278.472 275.099 278.472 274.907ZM280.062 274.119C280.122 273.082 279.874 273.008 279.627 273.99C279.383 274.955 279.396 275.085 279.729 275.022C279.949 274.98 280.024 274.775 280.062 274.119ZM257.512 273.972C257.566 273.604 257.16 273.187 256.902 273.346C256.673 273.488 256.689 273.97 256.93 274.211C257.194 274.476 257.453 274.369 257.512 273.972ZM259.653 273.516C259.653 273.235 259.107 272.865 258.477 272.719C258.104 272.632 258.031 272.669 258.031 272.942C258.031 273.155 258.214 273.349 258.558 273.499C259.256 273.804 259.653 273.81 259.653 273.516ZM278.494 273.168C278.896 272.805 278.946 270.677 278.553 270.677C278.419 270.677 278.31 270.782 278.31 270.911C278.31 271.04 278.026 271.693 277.68 272.362C277.333 273.03 277.083 273.611 277.124 273.652C277.253 273.78 278.179 273.454 278.494 273.168ZM274.828 273.184C275.36 273.048 275.978 272.806 276.201 272.646C277.077 272.018 277.486 270.351 276.89 269.831C276.734 269.695 276.338 269.498 276.011 269.393C275.412 269.201 274.94 268.803 275.11 268.633C275.161 268.583 275.646 268.502 276.188 268.453C276.73 268.404 277.174 268.333 277.174 268.297C277.174 268.039 276.609 267.239 276.13 266.819C275.518 266.282 274.217 265.816 273.332 265.816C272.865 265.816 272.794 265.87 272.794 266.223C272.794 266.447 273.013 267.018 273.281 267.492C273.971 268.713 273.896 269.205 273.054 268.994C272.706 268.907 272.327 268.266 272.062 267.315C271.853 266.561 271.431 267.116 271.257 268.374C271.147 269.18 271.119 269.219 270.651 269.219H270.162L270.26 268.125C270.315 267.523 270.403 266.685 270.457 266.261C270.56 265.457 270.173 264.025 269.762 263.684C269.477 263.448 268.599 264.017 267.864 264.914C267.196 265.727 267.176 265.868 267.551 267.056C267.822 267.915 267.821 267.926 267.389 268.978C266.951 270.042 266.851 270.75 267.086 271.12C267.156 271.23 267.63 271.464 268.14 271.639C268.65 271.814 269.731 272.289 270.542 272.695C272.212 273.53 273.087 273.63 274.828 273.184ZM258.377 270.734C258.905 270.133 259.978 267.923 259.978 267.435C259.978 266.882 259.373 266.152 258.89 266.122C257.822 266.056 257.102 266.377 256.474 267.2C255.654 268.273 255.784 269.752 256.802 270.958C257.22 271.453 257.269 271.47 257.679 271.258C257.918 271.135 258.232 270.899 258.377 270.734ZM260.112 271.113C260.142 270.952 260.126 270.712 260.075 270.579C259.925 270.189 259.329 270.605 259.329 271.099C259.329 271.432 259.398 271.5 259.692 271.458C259.892 271.429 260.081 271.274 260.112 271.113ZM279.034 269.016C278.975 268.815 278.805 268.557 278.658 268.441C278.436 268.265 278.382 268.271 278.34 268.473C278.266 268.826 278.605 269.381 278.894 269.381C279.076 269.381 279.114 269.283 279.034 269.016ZM261.924 265.981C262.292 265.351 262.442 265.238 263.069 265.121C263.466 265.047 264.369 264.803 265.075 264.58C268.268 263.569 269.9 262.162 269.938 260.387C269.952 259.717 269.612 258.686 269.376 258.686C269.302 258.686 268.818 259.037 268.3 259.465C266.538 260.925 264.494 262.175 262.492 263.018C258.786 264.578 258.842 264.549 258.842 264.924C258.842 265.149 259.151 265.573 259.657 266.047C260.328 266.674 260.563 266.799 260.986 266.757C261.401 266.717 261.582 266.567 261.924 265.981ZM281.281 263.683C281.726 263.446 281.941 263.167 282.382 262.251C283.726 259.46 283.833 255.491 282.619 253.424C282.218 252.739 280.397 250.908 280.118 250.908C279.773 250.908 279.486 251.406 279.383 252.181C279.186 253.658 279.014 253.925 277.592 254.95C275.646 256.354 275.065 257.3 275.065 259.07C275.065 260.281 275.594 261.484 276.461 262.244C277.143 262.842 277.335 262.854 277.956 262.332C278.221 262.109 278.633 261.927 278.872 261.927C279.294 261.927 279.305 261.951 279.254 262.767C279.206 263.545 279.232 263.616 279.608 263.723C280.242 263.904 280.894 263.889 281.281 263.683ZM280.083 261.301C279.316 260.66 278.97 259.607 279.378 259.157C279.727 258.772 279.932 258.763 279.933 259.132C279.937 260.248 280.55 261.007 281.168 260.662C281.539 260.455 282.041 260.612 282.038 260.933C282.034 261.386 281.793 261.611 281.217 261.7C280.766 261.769 280.554 261.695 280.083 261.301ZM249.92 258.2C249.92 258.111 249.847 258.038 249.757 258.038C249.668 258.038 249.595 258.111 249.595 258.2C249.595 258.289 249.668 258.362 249.757 258.362C249.847 258.362 249.92 258.289 249.92 258.2ZM272.219 256.272C272.425 255.815 272.473 255.457 272.391 254.976C272.329 254.61 272.226 254.311 272.161 254.311C271.883 254.311 271.188 255.254 271.025 255.85C270.761 256.823 270.789 256.904 271.39 256.904C271.865 256.904 271.97 256.824 272.219 256.272ZM251.516 256.498C251.551 256.462 251.534 256.247 251.477 256.02C251.335 255.454 250.674 255.457 250.301 256.026C250.067 256.383 250.061 256.467 250.257 256.588C250.467 256.718 251.359 256.654 251.516 256.498ZM266.858 255.567C266.988 255.366 267.143 255.002 267.203 254.758C267.326 254.261 267.263 254.22 266.183 254.097L265.494 254.018V254.661C265.494 255.015 265.569 255.446 265.662 255.618C265.892 256.049 266.564 256.02 266.858 255.567ZM249.828 255.064C250.146 254.676 250.406 254.324 250.406 254.282C250.406 254.239 250.035 254.031 249.581 253.818L248.756 253.432L248.445 253.831C247.927 254.495 247.888 254.929 248.306 255.373C248.835 255.936 249.168 255.869 249.828 255.064ZM275.714 254.797C275.714 254.708 275.605 254.635 275.471 254.635C275.337 254.635 275.227 254.708 275.227 254.797C275.227 254.886 275.337 254.959 275.471 254.959C275.605 254.959 275.714 254.886 275.714 254.797ZM278.16 253.351C278.56 252.951 278.634 252.749 278.634 252.05C278.634 251.155 278.451 250.959 277.773 251.129C277.48 251.203 277.321 251.462 277.041 252.321C276.578 253.741 276.586 253.825 277.187 253.825C277.522 253.825 277.841 253.67 278.16 253.351ZM267.446 252.854C268.662 252.517 269.917 250.603 270.134 248.756C270.273 247.57 270.073 247.614 268.944 249.014C267.949 250.248 267.765 250.591 267.765 251.212C267.765 251.94 267.453 252.006 266.947 251.386L266.503 250.843L265.954 251.321C265.652 251.584 265.224 251.925 265.003 252.079L264.601 252.358L264.984 252.686C265.412 253.053 266.47 253.125 267.446 252.854ZM265.002 251.125C266.434 250.162 268.685 247.892 269.135 246.957C269.582 246.031 270.548 242.923 270.863 241.396C271.107 240.218 270.948 239.89 270.133 239.89C269.526 239.89 269.129 240.139 267.898 241.294C267.198 241.951 266.858 242.158 266.479 242.158C266.205 242.158 265.98 242.076 265.98 241.975C265.98 241.582 266.649 240.74 267.193 240.448C267.851 240.094 267.858 240.051 267.488 238.663C267.22 237.657 267.221 237.603 267.54 236.849C267.929 235.929 267.893 235.752 267.252 235.42C266.661 235.115 266.085 235.218 264.81 235.858L263.883 236.324L263.79 239.603L263.422 239.301C263.163 239.088 263.002 238.699 262.878 237.986C262.683 236.872 262.508 236.758 261.93 237.373C261.382 237.955 261.323 239.06 261.771 240.376C262.065 241.243 262.142 241.908 262.205 244.139C262.274 246.586 262.248 246.947 261.941 247.857C261.753 248.411 261.6 249.275 261.6 249.777C261.6 250.528 261.668 250.754 261.984 251.05C262.851 251.864 263.866 251.889 265.002 251.125ZM271.582 249.929C271.712 249.718 271.37 249.288 271.071 249.288C270.843 249.288 270.759 249.794 270.955 249.99C271.119 250.153 271.464 250.12 271.582 249.929ZM272.014 247.744C272.184 247.372 272.142 247.273 271.566 246.684C270.982 246.087 270.919 246.059 270.791 246.347C270.689 246.575 270.771 246.865 271.089 247.407C271.59 248.261 271.752 248.32 272.014 247.744ZM278.561 247.592C278.888 246.811 278.855 245.724 278.477 244.844C278.143 244.066 276.784 242.482 276.449 242.482C276.343 242.482 276.033 242.792 275.761 243.171C275.284 243.835 275.273 243.892 275.433 244.774C275.633 245.873 275.532 246.209 274.999 246.209C274.477 246.209 274.309 246.496 274.639 246.826C274.899 247.085 275.462 247.019 276.403 246.619C276.616 246.529 276.687 246.575 276.687 246.804C276.687 247.418 277.425 248.11 278.115 248.143C278.231 248.149 278.432 247.901 278.561 247.592ZM273.281 246.361C273.281 245.508 273.123 245.079 272.61 244.528C272.443 244.35 272.307 244.108 272.307 243.991C272.307 243.726 272.108 243.718 271.853 243.973C271.608 244.218 271.6 245.307 271.84 245.774C272.061 246.206 272.97 247.182 273.15 247.182C273.222 247.182 273.281 246.812 273.281 246.361ZM235.968 245.793C235.968 245.742 235.689 245.359 235.349 244.942C235.008 244.525 234.645 243.983 234.541 243.738C234.42 243.452 234.23 243.293 234.01 243.293C233.698 243.293 233.678 243.353 233.782 243.981C233.969 245.106 234.229 245.404 235.309 245.731C235.846 245.894 235.968 245.906 235.968 245.793ZM237.221 244.134C237.424 244.005 237.499 243.647 237.454 243.02C237.422 242.59 236.948 242.415 236.197 242.555C235.698 242.649 235.643 242.713 235.643 243.202C235.643 243.676 235.72 243.776 236.252 243.996C236.974 244.295 236.968 244.294 237.221 244.134ZM274.827 242.894C274.889 242.319 274.865 241.209 274.773 240.427C274.628 239.177 274.553 238.96 274.154 238.618L273.701 238.228L273.513 239.342C273.39 240.072 273.149 240.733 272.816 241.258C272.203 242.224 272.175 242.576 272.702 242.708C272.919 242.763 273.147 242.971 273.209 243.171C273.39 243.764 273.614 243.941 274.18 243.941H274.715L274.827 242.894ZM256.328 241.753C256.328 240.518 256.356 240.416 256.936 239.588C257.291 239.081 257.544 238.528 257.544 238.26C257.544 237.847 257.448 237.766 256.583 237.45C254.879 236.83 254.542 236.15 255.435 235.134C255.845 234.668 256.117 233.732 255.844 233.732C255.637 233.732 252.954 235.925 252.525 236.445C252.041 237.031 251.542 238.219 251.542 238.783C251.542 238.944 251.797 239.41 252.108 239.818C252.42 240.225 252.789 240.973 252.928 241.48C253.414 243.247 253.295 243.149 254.908 243.096L256.328 243.049V241.753ZM260.048 242.753C260.436 242.47 260.43 241.677 260.039 241.407C259.429 240.986 259.329 240.84 259.329 240.369C259.329 239.918 259.367 239.89 259.978 239.89C260.612 239.89 260.627 239.877 260.627 239.318C260.627 238.607 260.307 238.454 259.565 238.807C258.402 239.361 257.058 240.997 257.058 241.858C257.058 242.066 257.983 242.588 258.842 242.865C259.298 243.011 259.753 242.969 260.048 242.753ZM235.441 241.713C235.48 241.595 235.37 241.51 235.18 241.51C234.825 241.51 234.611 241.722 234.788 241.898C234.951 242.061 235.364 241.944 235.441 241.713ZM234.257 240.659C234.439 239.827 234.421 239.657 234.147 239.601C233.829 239.536 231.912 240.351 231.912 240.552C231.912 240.819 232.503 241.014 233.329 241.019C234.079 241.023 234.186 240.982 234.257 240.659ZM226.64 240.214C226.584 240.125 226.471 240.052 226.387 240.052C226.303 240.052 226.234 240.125 226.234 240.214C226.234 240.303 226.348 240.376 226.487 240.376C226.626 240.376 226.695 240.303 226.64 240.214ZM269.556 238.995C269.926 238.804 270.057 238.601 270.138 238.092C270.202 237.697 270.461 237.176 270.789 236.784C271.089 236.425 271.334 236.026 271.334 235.896C271.334 235.617 270.392 235.191 269.777 235.191C269.306 235.191 269.307 235.172 269.647 237.038L269.762 237.669L269.25 237.367C268.968 237.201 268.738 237.008 268.738 236.938C268.738 236.868 268.665 236.811 268.576 236.811C268.487 236.811 268.414 236.98 268.414 237.187C268.414 237.621 268.873 239.242 268.996 239.242C269.041 239.242 269.294 239.131 269.556 238.995ZM234.681 238.912C234.853 238.82 234.994 238.676 234.994 238.592C234.994 238.368 234.101 237.945 233.63 237.945C233.092 237.945 232.497 238.564 232.746 238.864C232.959 239.12 234.232 239.151 234.681 238.912ZM232.652 237.497C232.87 237.346 233.372 236.617 233.372 236.451C233.372 236.382 233.009 236.325 232.565 236.325C231.883 236.325 231.716 236.388 231.492 236.729C231.127 237.286 231.298 237.622 231.948 237.619C232.24 237.619 232.557 237.563 232.652 237.497ZM261.429 236.491C261.962 236.207 261.742 235.572 260.834 234.773C260.205 234.219 260.13 234.095 260.369 234.003C260.881 233.807 261.159 233.887 262.014 234.474C262.927 235.103 263.944 235.337 264.49 235.045C264.958 234.794 265.12 233.867 264.78 233.382C264.102 232.415 264.753 232.344 266.039 233.244C266.547 233.6 267.176 234.001 267.437 234.136C268.321 234.592 269.982 234.334 269.545 233.808C269.375 233.603 267.287 232.434 265.004 231.265C263.532 230.511 261.113 230.028 261.113 230.488C261.113 230.575 260.723 231.036 260.246 231.513C258.923 232.834 258.463 234.678 259.126 235.999C259.599 236.939 260.308 237.091 261.429 236.491ZM257.353 235.879C257.4 235.547 257.34 235.515 256.663 235.515C256.053 235.515 255.922 235.567 255.922 235.812C255.922 236.247 256.087 236.346 256.727 236.292C257.181 236.254 257.312 236.167 257.353 235.879ZM252.656 234.805C253.337 234.148 254.125 233.493 254.407 233.35C255.01 233.045 255.598 232.35 255.598 231.942C255.598 231.728 255.422 231.628 254.908 231.55C253.574 231.349 253.357 231.281 253.074 230.967C252.916 230.794 252.834 230.605 252.891 230.549C252.947 230.492 253.598 230.565 254.336 230.712C256.182 231.078 256.29 231.065 256.604 230.451C257.15 229.383 257.137 229.218 256.464 228.624C255.979 228.197 255.697 228.074 255.192 228.072C254.281 228.068 253.193 228.343 252.682 228.706C252.443 228.876 251.749 229.202 251.139 229.431C250.146 229.805 249.834 230.045 248.15 231.733C247.029 232.857 246.354 233.648 246.479 233.691C246.836 233.815 247.452 233.586 247.913 233.16C248.537 232.582 248.71 232.726 248.661 233.785L248.62 234.695L249.446 235.348C250.722 236.355 251.12 236.288 252.656 234.805ZM226.8 233.044C226.863 232.219 227.008 231.088 227.123 230.53C227.356 229.394 227.288 229.276 226.493 229.425C225.504 229.61 224.936 230.523 224.936 231.929C224.936 233.092 225.112 233.61 225.688 234.144C226.5 234.895 226.672 234.724 226.8 233.044ZM222.492 234.066C222.685 233.944 222.651 233.808 222.287 233.259C221.834 232.575 221.572 232.459 221.237 232.792C220.998 233.031 220.987 233.488 221.211 233.905C221.39 234.239 222.082 234.326 222.492 234.066ZM228.661 233.368C228.956 232.384 229.079 230.816 228.861 230.816C228.765 230.816 228.496 230.98 228.263 231.18C227.929 231.469 227.809 231.774 227.685 232.652C227.51 233.895 227.556 234.056 228.084 234.056C228.379 234.056 228.496 233.916 228.661 233.368ZM246.384 232.436C247.363 230.563 247.83 229.93 248.508 229.56L249.027 229.276L248.409 229.225C247.893 229.183 247.601 229.303 246.644 229.955C246.013 230.384 245.309 230.98 245.079 231.281C244.848 231.581 244.392 231.996 244.065 232.202C242.786 233.009 243.22 234.098 244.789 234.017L245.58 233.975L246.384 232.436ZM265.494 230.343C265.494 229.695 264.97 229.469 264.688 229.995C264.444 230.451 264.47 230.492 265.007 230.492C265.275 230.492 265.494 230.425 265.494 230.343ZM223.654 229.482C223.773 229.194 224.513 228.099 225.298 227.047C226.289 225.72 226.658 225.11 226.505 225.051C226.151 224.916 224.301 225.268 223.66 225.593C222.77 226.044 222.291 227.068 222.408 228.268C222.551 229.74 222.652 230.005 223.068 230.005C223.331 230.005 223.499 229.855 223.654 229.482ZM261.057 228.784C261.188 228.443 260.693 227.937 260.123 227.827C259.865 227.777 259.434 227.695 259.167 227.643C258.71 227.555 258.68 227.58 258.68 228.056C258.68 228.473 258.774 228.603 259.207 228.792C259.931 229.106 260.935 229.102 261.057 228.784ZM247.892 228.088C249.263 227.549 249.475 227.512 251.392 227.483C252.514 227.466 253.572 227.412 253.744 227.361C253.916 227.311 254.357 227.193 254.725 227.098C255.35 226.937 255.401 226.879 255.5 226.237C255.559 225.859 255.647 225.321 255.698 225.041C255.783 224.565 255.721 224.485 254.704 223.76C253.859 223.158 253.444 222.97 252.824 222.911C252.387 222.869 252.029 222.882 252.029 222.939C252.029 222.996 252.295 223.444 252.621 223.934C252.947 224.424 253.166 224.872 253.108 224.93C252.886 225.152 252.189 224.642 251.875 224.027C251.574 223.438 251 222.876 250.699 222.876C250.632 222.876 250.62 223.094 250.674 223.362C250.767 223.825 250.746 223.848 250.224 223.846C249.923 223.846 249.311 223.733 248.865 223.598C248.419 223.462 247.159 223.246 246.064 223.118C244.97 222.989 243.934 222.809 243.763 222.718C243.332 222.487 241.665 222.515 240.031 222.781C238.655 223.004 238.077 223.347 238.077 223.941C238.077 224.252 238.607 224.496 239.283 224.496C240.031 224.496 240.066 225.084 239.334 225.354C239.178 225.411 239.05 225.606 239.05 225.787C239.05 226.091 239.152 226.117 240.389 226.117C242.615 226.117 243.122 226.379 244.762 228.358C245.162 228.841 245.256 228.878 245.816 228.775C246.155 228.712 247.089 228.403 247.892 228.088ZM228.505 227.656C228.505 227.433 228.432 227.251 228.343 227.251C228.162 227.251 228.121 227.785 228.289 227.953C228.468 228.132 228.505 228.08 228.505 227.656ZM235.383 224.97C235.651 224.726 235.145 223.88 234.567 223.606C233.786 223.235 233.464 223.336 233.403 223.97C233.333 224.685 234.037 225.322 234.751 225.191C235.019 225.142 235.303 225.042 235.383 224.97ZM236.814 222.876C236.875 222.458 236.833 222.39 236.519 222.39C236.107 222.39 235.643 222.781 235.643 223.13C235.643 223.285 235.825 223.362 236.193 223.362C236.679 223.362 236.75 223.306 236.814 222.876ZM249.555 222.352C249.396 221.873 245.753 221.199 245.235 221.553C244.847 221.817 245.205 222.065 245.995 222.078C246.414 222.085 247.304 222.186 247.973 222.304C249.572 222.584 249.633 222.586 249.555 222.352ZM283.095 274.215C282.079 273.653 281.392 272.452 281.356 271.172C281.33 270.262 281.805 268.644 282.219 268.23C282.585 267.865 283.177 267.822 283.177 268.16C283.177 268.291 282.994 268.957 282.771 269.639C282.21 271.356 282.237 271.916 282.921 272.797C283.47 273.503 283.83 274.408 283.559 274.399C283.483 274.395 283.274 274.313 283.095 274.215Z" fill="currentcolor"/>

</svg>
