<svg  viewBox="0 0 1180 580" fill="currentcolor" xmlns="http://www.w3.org/2000/svg">
<path d="M241.923 208C224.664 208 208.111 214.848 195.907 227.038C183.703 239.228 176.847 255.761 176.847 273C176.847 290.239 183.703 306.772 195.907 318.962C208.111 331.152 224.664 338 241.923 338C250.469 338 258.932 336.319 266.827 333.052C274.723 329.786 281.897 324.998 287.94 318.962C293.983 312.926 298.776 305.76 302.047 297.874C305.317 289.988 307.001 281.536 307 273C307 255.761 300.144 239.228 287.94 227.038C275.735 214.848 259.183 208 241.923 208ZM241.803 209.383C248.242 209.375 252.874 209.972 258.823 211.578C266.104 213.543 273.681 217.207 279.765 221.702C292.857 231.377 301.842 245.709 304.683 261.449C305.375 265.286 305.518 266.934 305.596 272.022C305.68 277.502 305.51 279.973 304.739 284.462C301.318 304.365 288.828 321.121 270.842 329.937C262.786 333.885 254.508 335.999 245.152 336.495C242.039 336.66 242.138 336.66 238.477 336.482C228.751 336.009 218.643 333.029 210.233 328.155C194.398 318.977 183.443 304.07 179.612 286.485C178.537 281.55 178.225 278.477 178.231 272.89C178.237 267.742 178.517 264.788 179.422 260.312C182.301 246.074 189.984 233.281 201.265 223.943C209.687 216.97 220.073 212.173 230.853 210.275C234.713 209.595 237.248 209.389 241.803 209.383ZM241.948 211.232C238.397 211.25 234.662 211.508 231.907 211.969C212.394 215.233 195.716 227.417 186.737 244.966C182.259 253.717 180.087 262.832 180.078 272.908C180.069 283.216 182.266 292.251 187.016 301.434C195.857 318.526 212.713 330.756 231.744 333.887C236.726 334.707 242.794 334.925 247.735 334.462C259.327 333.377 269.617 329.578 278.778 323.004C285.156 318.426 291.073 312.008 294.988 305.419C299.864 297.215 302.494 289.249 303.563 279.445C303.838 276.925 303.838 269.018 303.563 266.66C301.877 252.176 296.096 239.916 286.176 229.782C275.883 219.267 262.547 212.888 247.886 211.465C246.141 211.296 244.078 211.221 241.948 211.232ZM241.884 212.135C246.283 212.131 247.36 212.182 249.624 212.492C259.421 213.836 267.651 216.894 275.628 222.156C280.777 225.553 284.955 229.277 288.849 233.942C300.898 248.375 305.543 267.29 301.658 286.101C297.621 305.652 284.13 321.841 265.681 329.274C258.361 332.224 251.247 333.661 243.263 333.803C241.3 333.837 239.256 333.839 238.721 333.807C234.965 333.575 230.787 332.952 227.339 332.111C212.861 328.578 199.943 319.639 191.536 307.337C186.65 300.185 183.462 292.474 181.88 283.977C181.125 279.926 180.984 278.204 180.982 272.972C180.978 267.557 181.194 265.215 182.105 260.731C186.581 238.707 203.196 220.72 224.842 214.464C227.725 213.631 230.95 212.953 234.187 212.5C236.416 212.188 237.481 212.137 241.884 212.135ZM242.715 212.941C238.458 212.888 234.157 213.281 229.879 214.141C220.166 216.093 211.028 220.5 203.274 226.972C200.882 228.968 197.075 232.821 195.233 235.11C186.411 246.074 181.834 258.895 181.805 272.729C181.787 280.74 183.172 288.024 186.107 295.365C187.623 299.156 190.421 304.26 192.819 307.61C195.743 311.696 200.108 316.38 203.693 319.279C213.199 326.967 223.938 331.439 235.881 332.682C238.383 332.942 244.539 332.986 247.157 332.761C266.409 331.112 283.049 321.138 293.038 305.26C294.421 303.061 296.999 297.96 297.904 295.628C302.229 284.49 303.242 271.938 300.758 260.267C298.325 248.83 292.28 238.012 283.705 229.749C272.571 219.019 257.918 213.13 242.715 212.941ZM245.792 218.77C247.191 218.783 248.401 218.878 249.266 219.066C251.188 219.485 252.411 219.925 253.336 220.53C254.523 221.307 256.076 222.788 256.68 223.719C257.098 224.362 257.267 224.502 257.532 224.424C257.714 224.371 259.142 224.283 260.706 224.229C264.725 224.091 266.549 224.473 267.296 225.61C267.542 225.984 267.54 226.026 267.269 226.223C266.948 226.457 266.516 226.39 265.458 225.942C264.651 225.599 262.718 225.31 261.239 225.31C260.268 225.31 260.195 225.333 260.399 225.579C261.003 226.308 263.344 226.989 266.059 227.227C267.886 227.387 268.405 227.608 269.733 228.79C270.425 229.406 270.868 229.68 271.174 229.68C271.594 229.68 271.611 229.649 271.529 229.04C271.399 228.079 270.888 227.485 269.859 227.1C269.367 226.917 268.83 226.767 268.666 226.767C268.332 226.767 267.948 226.39 268.113 226.226C268.29 226.049 269.204 226.106 269.993 226.343C271.439 226.777 272.214 227.658 272.44 229.128C272.527 229.697 272.484 229.842 272.135 230.17C271.903 230.387 271.686 230.816 271.63 231.168C271.52 231.854 271.415 231.9 270.838 231.523C270.302 231.173 269.968 231.319 270.071 231.857C270.155 232.297 270.218 232.362 272.646 234.52C274.179 235.882 274.323 236.135 274.329 237.48C274.329 237.721 274.407 238.277 274.502 238.715L274.673 239.513L275.446 239.615C276.574 239.764 277.608 240.481 278.075 241.435C278.582 242.472 278.589 244.244 278.091 245.523C277.867 246.095 277.799 246.485 277.892 246.655C278.088 247.013 278.958 247.799 279.927 248.493C282.155 250.089 283.093 252.029 283.088 255.031C283.084 256.722 282.832 257.906 281.933 260.428C281.149 262.63 280.768 263.308 280.241 263.44C280.027 263.494 279.315 263.419 278.659 263.273C277.726 263.066 277.028 262.743 275.452 261.791C271.747 259.551 271.465 259.001 271.974 255.007L272.243 252.903L273.294 251.895C274.855 250.398 275.424 248.772 274.989 247.048C274.762 246.149 274.626 246.031 273.816 246.028C272.444 246.022 272.211 246.479 272.042 249.505C271.909 251.884 271.687 253.071 270.925 255.485C270.671 256.29 270.412 257.348 270.349 257.835C270.257 258.545 270.124 258.831 269.679 259.275C269.226 259.727 269.142 259.912 269.222 260.28C269.359 260.897 269.452 260.954 271.572 261.723C275.391 263.109 277.794 264.617 278.556 266.107C278.754 266.494 278.898 267.161 278.935 267.858C278.977 268.643 279.099 269.152 279.339 269.54C279.621 269.995 279.683 270.352 279.683 271.497C279.683 272.715 279.631 272.98 279.274 273.544C279.019 273.948 278.774 274.707 278.625 275.557C278.309 277.364 277.886 278.447 277.073 279.525C276.705 280.015 276.199 280.816 275.95 281.306C275.215 282.748 274.542 283.546 273.487 284.226C272.276 285.008 271.466 285.059 269.524 284.479C268.812 284.267 267.818 284.008 267.315 283.904C266.232 283.68 265.678 283.284 265.236 282.421C264.949 281.859 264.861 281.799 264.47 281.889C263.162 282.192 262.812 282.901 262.812 285.246C262.812 286.311 262.724 287.176 262.574 287.601C262.301 288.372 262.378 288.667 263.117 289.675C263.5 290.198 263.798 290.41 264.391 290.582C264.816 290.706 265.164 290.901 265.164 291.015C265.164 291.13 264.891 291.443 264.558 291.713C264.017 292.149 263.79 292.215 262.449 292.319C260.075 292.503 259.009 292.849 254.781 294.807C252.517 295.855 249.445 298.109 243.831 302.84C235.419 309.928 230.607 313.125 226.797 314.154C225.771 314.431 224.803 314.696 224.647 314.743C224.491 314.79 224.364 314.791 224.364 314.747C224.364 314.702 224.971 314.3 225.713 313.853C229.43 311.613 233.566 308.525 240.262 302.989C248.337 296.313 251.735 294.064 256.363 292.333C257.322 291.974 258.891 291.493 259.851 291.263C260.81 291.034 261.765 290.774 261.973 290.686L262.351 290.526L261.429 288.788C260.288 286.637 259.522 285.581 258.86 285.247C257.729 284.676 257.609 284.346 257.967 282.798C258.325 281.254 257.65 279.849 256.551 279.849C255.913 279.849 255.873 279.729 256.322 279.158C256.692 278.69 256.748 277.68 256.483 276.271C256.297 275.277 255.963 274.753 255.172 274.211C254.517 273.762 253.67 273.801 251.998 274.356C246.87 276.058 239.381 281.816 228.733 292.241C225.355 295.549 223.133 297.592 222.237 298.214C220.567 299.372 216.65 303.276 213.663 306.759C211.645 309.112 211.439 309.304 210.933 309.304C210.631 309.304 210.412 309.249 210.447 309.182C211.029 308.055 211.068 307.853 210.815 307.249C210.572 306.671 210.577 306.638 210.961 306.255C211.409 305.807 211.871 305.874 211.871 306.386C211.871 306.567 211.963 306.715 212.075 306.716C212.337 306.72 220.363 298.615 220.898 297.808C221.155 297.421 221.286 297.024 221.253 296.735C221.165 295.967 220.407 295.724 217.611 295.568C215.92 295.473 215.003 295.348 214.548 295.151C213.343 294.626 213.096 294.598 212.261 294.895C210.892 295.382 206.803 297.909 206.622 298.379C206.421 298.901 206.531 298.946 207.989 298.946C209.439 298.946 209.458 298.952 209.349 299.311C209.071 300.217 208.706 300.883 207.335 302.983C205.296 306.106 204.501 307.847 205.114 307.847C205.484 307.847 205.849 307.306 205.964 306.585C206.092 305.789 206.224 305.662 206.677 305.904C206.892 306.019 207.004 306.242 207.004 306.557V307.035L207.942 306.51C209.266 305.769 209.517 305.565 209.778 305.015C210.09 304.358 210.84 304.242 210.988 304.828C211.093 305.245 210.837 305.906 210.571 305.906C210.19 305.906 209.548 307.234 209.454 308.217C209.359 309.205 209.349 309.223 208.871 309.223C208.341 309.223 208.354 309.285 208.561 307.807C208.622 307.376 208.604 307.038 208.522 307.038C208.441 307.038 207.986 307.33 207.511 307.686C206.499 308.444 204.77 309.024 203.738 308.95C203.109 308.905 203.025 308.852 202.98 308.471C202.941 308.129 203.171 307.786 204.12 306.772C204.917 305.921 205.409 305.234 205.61 304.691C205.775 304.246 206.371 303.191 206.934 302.345C207.79 301.059 208.302 300.12 208.302 299.837C208.302 299.805 207.883 299.729 207.37 299.669C206.857 299.608 206.121 299.423 205.735 299.256C205.125 298.994 205.049 298.906 205.148 298.586C205.345 297.954 205.854 297.358 206.811 296.638C208.826 295.122 210.568 294.2 212.075 293.853C213.315 293.567 213.969 293.69 215.149 294.432C216.058 295.003 216.289 295.033 218.766 294.883C219.531 294.837 219.908 294.904 220.523 295.196C221.65 295.73 221.823 295.647 221.979 294.494C222.16 293.157 222.025 291.894 221.599 290.935C221.401 290.49 221.222 290.106 221.202 290.081C221.181 290.057 220.136 290.117 218.879 290.216C215.594 290.473 214.225 290.127 212.49 288.601C211.38 287.623 211.103 287.081 210.904 285.48C210.683 283.709 210.456 283.067 208.679 279.213C207.717 277.127 207.46 276.191 207.583 275.214C207.73 274.038 207.477 273.474 206.622 273.072C206.253 272.898 205.633 272.706 205.244 272.645C204.823 272.578 204.337 272.354 204.041 272.089C202.992 271.155 203.577 269.543 206.267 265.949C209.602 261.495 212.795 256.79 213.709 254.985C214.185 254.044 214.464 252.591 214.466 251.042C214.47 249.657 214.628 249.152 215.601 247.47C216.708 245.557 216.879 245.001 217.134 242.468C217.282 241 217.493 239.885 217.777 239.079C218.505 237.004 218.358 236.508 216.393 234.408C215.082 233.007 214.467 231.9 214.485 230.975C214.522 229.119 215.078 228.865 215.368 230.57C215.626 232.088 216.1 233.033 217.104 234.029C217.564 234.486 217.99 234.859 218.05 234.859C218.11 234.859 218.25 234.75 218.361 234.616C218.472 234.483 218.727 234.373 218.928 234.373C219.207 234.373 219.318 234.255 219.394 233.872C219.45 233.595 219.46 233.313 219.418 233.245C219.376 233.176 219.23 232.697 219.095 232.179L218.85 231.238L219.45 230.024C220.014 228.886 220.058 228.686 220.165 226.778C220.293 224.497 220.392 224.138 221.125 223.305C221.922 222.4 222.855 222.199 225.987 222.257C228.391 222.301 228.603 222.281 229.027 221.968C229.779 221.414 230.686 221.006 232.312 220.493C235.7 219.424 241.596 218.731 245.792 218.77ZM244.428 219.52C244.155 219.524 243.948 219.552 243.851 219.618C243.463 219.883 243.821 220.13 244.611 220.143C245.029 220.15 245.919 220.252 246.588 220.369C248.188 220.649 248.249 220.65 248.171 220.417C248.041 220.028 245.612 219.511 244.428 219.52ZM235.135 220.455C234.723 220.455 234.259 220.846 234.259 221.194C234.259 221.349 234.441 221.426 234.809 221.426C235.295 221.426 235.367 221.37 235.43 220.94C235.491 220.523 235.449 220.455 235.135 220.455ZM240.964 220.628C240.289 220.64 239.464 220.713 238.647 220.846C237.271 221.069 236.693 221.411 236.693 222.004C236.693 222.315 237.223 222.559 237.899 222.559C238.647 222.559 238.682 223.145 237.95 223.415C237.794 223.472 237.667 223.667 237.667 223.848C237.667 224.152 237.768 224.177 239.005 224.178C241.231 224.178 241.738 224.439 243.378 226.416C243.778 226.898 243.872 226.935 244.433 226.832C244.771 226.769 245.704 226.461 246.508 226.146C247.879 225.607 248.091 225.57 250.008 225.542C251.13 225.525 252.188 225.47 252.36 225.42C252.532 225.37 252.974 225.252 253.341 225.157C253.966 224.996 254.017 224.939 254.116 224.297C254.175 223.92 254.264 223.382 254.314 223.103C254.4 222.627 254.337 222.547 253.32 221.823C252.475 221.222 252.06 221.034 251.44 220.975C251.003 220.933 250.645 220.946 250.645 221.003C250.645 221.06 250.911 221.508 251.237 221.997C251.563 222.487 251.782 222.934 251.724 222.992C251.502 223.214 250.805 222.704 250.491 222.09C250.19 221.502 249.616 220.94 249.315 220.94C249.247 220.94 249.237 221.159 249.29 221.426C249.383 221.889 249.362 221.912 248.84 221.91C248.539 221.91 247.928 221.797 247.481 221.661C247.035 221.526 245.775 221.311 244.68 221.182C243.586 221.054 242.55 220.874 242.379 220.783C242.163 220.668 241.639 220.617 240.964 220.628ZM232.488 221.454C232.197 221.449 232.057 221.637 232.018 222.033C231.949 222.747 232.653 223.384 233.367 223.253C233.635 223.203 233.919 223.104 233.999 223.032C234.267 222.789 233.761 221.942 233.183 221.669C232.89 221.53 232.662 221.458 232.488 221.454ZM224.923 223.084C224.323 223.065 222.837 223.37 222.276 223.654C221.387 224.105 220.907 225.127 221.024 226.326C221.167 227.796 221.267 228.061 221.684 228.061C221.946 228.061 222.116 227.91 222.27 227.538C222.389 227.251 223.129 226.156 223.914 225.106C224.905 223.781 225.274 223.172 225.121 223.113C225.077 223.096 225.009 223.087 224.923 223.084ZM235.794 223.551C235.678 223.551 235.544 223.563 235.379 223.583C234.962 223.632 234.357 223.782 234.035 223.916C233.473 224.151 233.449 224.194 233.449 224.968C233.449 225.411 233.37 225.979 233.274 226.23L233.099 226.686L232.706 226.231C232.49 225.981 232.313 225.644 232.313 225.482C232.313 225.097 232.014 224.861 231.444 224.796C230.988 224.744 230.981 224.757 230.554 226.443C230.229 227.723 230.053 228.155 229.839 228.194C229.603 228.238 229.555 228.124 229.555 227.515C229.555 226.944 229.477 226.73 229.195 226.533C228.997 226.394 228.741 226.281 228.627 226.281C228.307 226.281 228.381 227.554 228.744 228.304C229.143 229.127 229.151 230.014 228.767 230.779C228.182 231.943 228.187 232.231 228.803 232.845C229.246 233.288 229.489 233.402 229.989 233.402C231.182 233.402 231.875 232.469 231.012 232.024C230.455 231.737 230.259 231.225 230.555 230.824C231.762 229.189 233.199 227.593 233.735 227.292C234.479 226.876 235.654 226.807 236.127 227.152C236.412 227.36 236.342 227.422 235.225 227.972C234.56 228.299 233.81 228.763 233.557 229.002C233.065 229.469 231.826 231.241 231.826 231.478C231.826 231.773 232.267 231.606 232.712 231.143C233.079 230.761 233.232 230.697 233.472 230.825C233.903 231.055 233.848 231.432 233.205 232.663C232.535 233.945 232.504 234.278 233.024 234.618C233.327 234.816 233.645 234.847 234.484 234.762C235.524 234.655 235.557 234.663 235.557 235.019C235.557 235.348 235.616 235.377 236.127 235.294C236.44 235.243 236.902 235.055 237.154 234.877C237.716 234.477 239.186 233.888 239.619 233.888C240.011 233.888 240.04 234.353 239.69 235.028C239.554 235.291 239.426 235.506 239.406 235.506C239.153 235.511 237.227 236.438 235.922 237.181L234.259 238.129V238.844C234.259 239.54 234.271 239.555 234.706 239.455C234.951 239.398 235.602 239.105 236.152 238.804C237.448 238.094 237.559 238.101 237.427 238.882C237.293 239.672 237.535 239.934 238.634 240.197C239.083 240.305 239.45 240.44 239.449 240.498C239.44 240.95 239.174 241.382 238.782 241.585C238.516 241.722 238.149 242.156 237.923 242.6C237.147 244.129 235.781 244.959 234.052 244.952C232.567 244.946 231.691 243.792 231.544 241.648L231.455 240.36L230.708 240.132C230.297 240.007 229.32 239.607 228.538 239.243C227.756 238.878 226.989 238.583 226.834 238.587C226.68 238.59 226.407 238.827 226.227 239.112C225.805 239.783 225.335 239.837 224.447 239.318C223.791 238.935 222.584 237.571 222.112 236.679C221.767 236.027 220.028 236.266 219.14 237.087C218.522 237.659 218.339 238.704 218.466 240.931C218.561 242.578 218.612 242.815 218.948 243.13L219.324 243.482L218.924 243.957C218.391 244.588 218.418 244.731 219.073 244.731C219.691 244.731 220.265 245.133 220.339 245.62C220.386 245.924 220.309 245.942 219.062 245.902C217.809 245.862 217.729 245.88 217.62 246.226C217.556 246.427 217.332 246.845 217.122 247.155C216.703 247.772 216.622 248.291 216.945 248.291C217.059 248.291 217.88 248.103 218.77 247.873C220.139 247.52 220.627 247.467 221.93 247.535C223.614 247.622 224.039 247.728 224.039 248.056C224.039 248.405 223.851 248.449 221.33 248.694C218.546 248.965 217.571 249.191 216.511 249.81C215.419 250.449 215.184 250.925 215.064 252.743C214.896 255.289 214.449 256.38 211.979 260.267C208.99 264.968 207.258 267.418 205.781 269.03C205.005 269.877 204.734 270.463 204.734 271.292C204.734 271.522 204.853 271.595 205.227 271.595C205.611 271.595 205.969 271.361 206.843 270.543C208.079 269.384 208.517 269.259 209.657 269.734C209.977 269.868 210.429 269.977 210.662 269.977C211.078 269.977 211.085 269.961 211.033 268.971C210.972 267.809 211.14 267.67 211.984 268.187C212.473 268.486 212.493 268.535 212.33 269.039C211.976 270.133 211.979 270.631 212.339 271.118C212.529 271.373 212.683 271.618 212.683 271.662C212.683 271.957 211.393 271.894 209.713 271.518C208.668 271.284 207.741 271.137 207.652 271.192C207.428 271.33 207.636 272.067 208.063 272.647C208.566 273.331 208.639 273.774 208.456 275.059C208.363 275.716 208.356 276.245 208.441 276.328C208.52 276.408 209.123 276.511 209.782 276.559C210.82 276.634 211.186 276.579 212.521 276.149C213.369 275.876 214.318 275.632 214.631 275.607C215.149 275.564 215.195 275.595 215.157 275.965C215.049 277.03 214.414 277.462 212.389 277.844C210.511 278.199 209.918 278.386 209.814 278.655C209.763 278.79 210.177 279.847 210.735 281.005C211.717 283.04 211.755 283.165 211.873 284.795C212.004 286.598 212.15 286.967 213.073 287.822C214.154 288.823 215.078 289.071 217.551 289.02C218.946 288.992 219.39 288.919 220.01 288.617C220.426 288.414 221.344 287.724 222.051 287.084C222.757 286.442 223.738 285.577 224.231 285.16C225.113 284.415 225.76 283.415 225.612 283.028C225.57 282.919 224.962 282.657 224.26 282.446C222.005 281.766 220.942 280.898 221.185 279.931C221.31 279.435 221.848 279.373 224.423 279.559C225.616 279.646 226.574 279.651 226.655 279.57C226.736 279.49 226.455 279.006 226.002 278.444C225.564 277.902 225.119 277.296 225.012 277.097C224.738 276.587 224.771 275.705 225.081 275.233C225.386 274.769 225.848 274.724 226.691 275.075C227.36 275.354 229.879 275.416 229.879 275.154C229.879 274.859 228.883 274.376 227.706 274.099C225.616 273.607 224.82 273.036 224.664 271.919C224.608 271.519 224.623 271.514 226.148 271.397C226.996 271.333 228.439 271.169 229.357 271.033C230.274 270.897 231.077 270.786 231.141 270.784C231.205 270.784 231.356 270.719 231.476 270.643C231.656 270.529 231.65 270.421 231.44 270.015L231.186 269.525L228.464 269.467C225.92 269.413 225.696 269.384 225.019 269.006C224.174 268.534 223.552 267.698 223.552 267.034V266.565L224.809 266.693C227.864 267.005 232.394 266.646 232.394 266.093C232.394 265.946 231.735 265.526 230.726 265.03C228.949 264.157 228.679 263.957 228.506 263.382C228.425 263.111 228.473 262.991 228.692 262.917C228.854 262.862 229.303 262.672 229.688 262.493C230.491 262.122 231.294 261.028 231.769 259.66C231.931 259.193 232.156 258.811 232.269 258.811C232.581 258.811 232.518 259.296 232.06 260.419C231.585 261.586 231.628 262.08 232.263 262.763C232.946 263.498 234.001 263.879 235.557 263.952C236.588 264 237.015 263.957 237.247 263.783C237.593 263.523 237.692 263.657 236.302 262.495C235.362 261.709 236.035 261.554 238.518 261.984C239.406 262.137 240.523 262.214 241.254 262.173C242.375 262.11 242.608 262.033 243.762 261.348C244.583 260.861 245.309 260.556 245.811 260.49C246.239 260.433 246.589 260.326 246.589 260.252C246.589 259.997 245.643 259.042 244.859 258.506C243.642 257.675 243.423 257.295 243.437 256.036C243.452 254.683 243.822 253.686 244.808 252.337C245.231 251.758 245.626 251.057 245.686 250.779C245.784 250.322 245.751 250.262 245.341 250.159C243.969 249.818 242.321 248.636 242.405 248.053C242.477 247.554 243.227 247.687 244.385 248.404C245.112 248.854 245.551 249.016 246.051 249.017C246.69 249.021 246.82 248.931 248.26 247.522C249.101 246.699 249.867 246.026 249.961 246.026C250.055 246.026 250.256 245.978 250.407 245.92C250.654 245.825 250.671 245.913 250.57 246.78C250.445 247.857 250.559 248.055 251.405 248.224C251.841 248.311 251.913 248.266 252.105 247.78C252.338 247.192 252.884 246.511 253.121 246.511C253.208 246.511 253.223 247.067 253.157 247.85C252.913 250.782 253.749 251.621 257.093 251.807C258.182 251.867 258.594 251.948 258.594 252.103C258.594 252.219 258.448 252.361 258.269 252.418C258.091 252.474 257.945 252.584 257.945 252.66C257.945 252.842 258.866 253.317 259.486 253.455C259.865 253.54 259.973 253.652 259.973 253.962C259.973 254.334 259.925 254.356 259.243 254.304C258.295 254.232 256.777 253.725 255.755 253.14C255.309 252.884 254.104 252.012 253.078 251.201C251.028 249.582 249.398 248.453 249.111 248.453C249.009 248.453 248.637 248.752 248.285 249.117L247.644 249.78L248.854 250.856C250.982 252.749 252.267 254.087 252.267 254.412C252.267 254.661 252.116 254.751 251.548 254.836C250.725 254.959 249.955 255.486 250.03 255.875C250.073 256.1 250.332 256.141 251.729 256.141C252.634 256.141 253.432 256.197 253.501 256.266C253.795 256.559 253.062 256.906 251.865 257.04C250.264 257.219 249.996 257.31 249.996 257.672C249.996 258.034 250.988 258.93 251.541 259.069C252.565 259.325 253.666 258.749 254.219 257.668C254.495 257.126 254.949 256.707 255.257 256.707C255.411 256.707 255.36 257.437 255.168 257.986C255.069 258.271 255.026 258.542 255.074 258.589C255.279 258.794 255.881 258.246 256.157 257.604C256.62 256.526 257.741 255.89 257.524 256.828C257.385 257.432 255.721 260.579 255.29 261.053C254.858 261.529 254.483 261.675 253.14 261.889C251.932 262.081 250.772 261.928 249.647 261.426C248.472 260.902 248.394 260.899 246.857 261.309C246.04 261.527 245.19 261.728 244.968 261.755C244.436 261.821 244.388 262.187 244.794 263.079C245.193 263.952 245.219 264.597 244.876 265.086C244.737 265.284 243.916 265.857 243.051 266.36C241.286 267.385 240.822 267.754 240.484 268.402C240.276 268.801 240.279 268.861 240.513 268.95C241.114 269.18 243.322 268.862 245.189 268.275C247.265 267.622 247.318 267.62 251.253 267.973C252.283 268.066 252.429 268.045 252.429 267.81C252.429 267.391 253.304 265.608 253.939 264.734C254.779 263.578 256.308 262.061 256.967 261.729C257.282 261.571 258.106 261.328 258.798 261.188C259.49 261.049 260.257 260.796 260.501 260.625C260.746 260.455 261.766 259.862 262.767 259.309C265.138 257.997 266.005 257.208 266.846 255.596C267.212 254.894 267.831 253.964 268.22 253.531C269.09 252.56 269.301 252.173 269.301 251.548C269.301 250.98 269.104 250.814 268.583 250.944C267.929 251.108 267.247 251.993 266.628 253.481C266.032 254.918 265.493 255.574 264.911 255.574C264.405 255.574 263.64 254.784 263.451 254.065C262.84 251.737 262.809 251.671 262.188 251.424C260.968 250.937 260.496 250.619 260.019 249.961C259.258 248.911 258.639 248.753 257.343 249.279C257.057 249.395 256.776 249.444 256.72 249.388C256.49 249.159 256.872 248.589 257.455 248.293C258.248 247.889 258.667 247.353 259.01 246.299C259.161 245.837 259.384 245.344 259.507 245.204C259.629 245.063 259.729 244.786 259.729 244.589C259.729 244.239 259.711 244.243 258.999 244.731C257.444 245.799 255.838 246.175 255.109 245.643C254.818 245.431 254.822 245.412 255.199 245.167C255.416 245.026 256.176 244.753 256.89 244.56C258.802 244.042 258.78 244.061 258.723 242.981L258.675 242.061L257.945 242.076C257.543 242.084 256.671 242.216 256.007 242.368C254.68 242.672 253.928 242.614 252.853 242.127C252.014 241.747 250.769 241.728 250.219 242.088C249.992 242.236 249.383 242.91 248.866 243.585C247.843 244.919 247.13 245.647 246.986 245.504C246.794 245.312 247.446 244.132 248.13 243.436C249.038 242.511 249.355 241.746 249.377 240.423C249.399 239.15 249.078 238.616 248.083 238.265C247.153 237.937 246.168 238.206 243.871 239.414C242.867 239.942 242.047 240.294 242.047 240.197C242.047 239.895 242.486 239.162 242.883 238.802C243.564 238.184 243.955 238.038 247.603 237.034C248.533 236.778 248.536 236.776 248.536 236.152C248.536 235.256 248.315 234.791 247.503 233.981C246.699 233.179 246.398 233.092 245.141 233.299C244.056 233.478 241.994 233.213 240.98 232.766C240.325 232.477 240.262 232.398 240.262 231.874C240.262 231.44 240.381 231.195 240.749 230.868C241.016 230.63 241.235 230.374 241.235 230.3C241.235 230.226 240.904 230.165 240.498 230.165C239.334 230.165 238.378 229.52 238.847 229.052C238.947 228.952 239.416 228.871 239.889 228.871C240.853 228.871 240.965 228.675 240.506 227.796C240.144 227.104 240.193 227.006 241.022 226.754C241.44 226.627 241.809 226.441 241.841 226.341C241.873 226.24 241.649 225.894 241.345 225.572C240.854 225.052 240.701 224.986 239.99 224.986C238.835 224.986 238.489 225.497 238.215 227.607C237.979 229.427 237.763 229.973 237.145 230.318C236.361 230.757 236.333 230.375 237.026 228.666C237.969 226.339 237.862 224.94 236.665 223.935C236.32 223.646 236.141 223.549 235.794 223.551ZM226.959 225.31C226.778 225.31 226.737 225.843 226.905 226.011C227.084 226.19 227.121 226.138 227.121 225.715C227.121 225.492 227.048 225.31 226.959 225.31ZM257.514 225.662C257.313 225.654 257.296 225.758 257.296 226.114C257.296 226.53 257.389 226.661 257.823 226.849C258.547 227.163 259.551 227.158 259.673 226.841C259.804 226.501 259.31 225.995 258.739 225.885C258.481 225.836 258.05 225.753 257.783 225.702C257.668 225.68 257.581 225.664 257.514 225.662ZM253.808 226.13C252.897 226.126 251.809 226.4 251.298 226.763C251.059 226.932 250.365 227.259 249.755 227.488C248.762 227.861 248.45 228.101 246.766 229.787C245.645 230.909 244.97 231.699 245.095 231.742C245.452 231.866 246.068 231.637 246.529 231.211C247.153 230.634 247.326 230.778 247.277 231.837L247.235 232.745L248.062 233.397C249.338 234.402 249.736 234.335 251.271 232.855C251.953 232.198 252.741 231.544 253.023 231.401C253.626 231.097 254.214 230.403 254.214 229.996C254.214 229.781 254.037 229.681 253.524 229.604C252.189 229.403 251.974 229.335 251.69 229.022C251.533 228.849 251.45 228.66 251.507 228.603C251.564 228.547 252.214 228.62 252.952 228.766C254.798 229.132 254.906 229.12 255.22 228.506C255.766 227.439 255.753 227.275 255.079 226.682C254.595 226.255 254.313 226.132 253.808 226.13ZM246.84 227.274C246.426 227.278 246.097 227.441 245.26 228.01C244.629 228.439 243.925 229.035 243.695 229.334C243.465 229.635 243.009 230.048 242.682 230.254C241.402 231.06 241.836 232.149 243.405 232.067L244.196 232.026L245 230.489C245.979 228.618 246.446 227.986 247.124 227.616L247.643 227.333L247.025 227.282C246.96 227.276 246.9 227.274 246.84 227.274ZM225.576 227.431C225.461 227.423 225.307 227.444 225.109 227.481C224.12 227.666 223.552 228.578 223.552 229.982C223.552 231.144 223.728 231.661 224.304 232.194C225.116 232.944 225.288 232.773 225.416 231.095C225.479 230.272 225.624 229.142 225.739 228.585C225.914 227.734 225.919 227.455 225.576 227.431ZM263.683 227.759C263.55 227.763 263.41 227.853 263.304 228.05C263.06 228.506 263.086 228.546 263.623 228.546C263.89 228.546 264.109 228.48 264.109 228.398C264.109 227.994 263.905 227.754 263.683 227.759ZM260.13 228.365C259.881 228.372 259.73 228.428 259.73 228.543C259.73 228.63 259.339 229.091 258.862 229.567C257.539 230.886 257.079 232.728 257.742 234.047C258.214 234.987 258.924 235.138 260.045 234.539C260.578 234.254 260.358 233.621 259.451 232.823C258.822 232.27 258.746 232.145 258.985 232.054C259.497 231.858 259.776 231.937 260.63 232.524C261.543 233.152 262.559 233.386 263.105 233.094C263.574 232.844 263.736 231.918 263.396 231.433C262.718 230.468 263.369 230.397 264.655 231.296C265.163 231.651 265.792 232.052 266.053 232.186C266.936 232.642 268.598 232.385 268.161 231.859C267.991 231.655 265.903 230.486 263.62 229.319C262.516 228.754 260.88 228.342 260.13 228.365ZM227.478 228.87C227.381 228.87 227.112 229.034 226.879 229.234C226.545 229.523 226.425 229.827 226.301 230.705C226.126 231.946 226.172 232.107 226.7 232.107C226.995 232.107 227.112 231.967 227.277 231.419C227.572 230.437 227.696 228.87 227.478 228.87ZM220.213 230.665C220.094 230.658 219.978 230.72 219.853 230.845C219.614 231.083 219.603 231.539 219.826 231.956C220.005 232.289 220.698 232.376 221.108 232.117C221.301 231.995 221.266 231.859 220.903 231.311C220.62 230.884 220.411 230.678 220.213 230.665ZM254.459 231.783C254.252 231.783 251.57 233.973 251.141 234.492C250.657 235.078 250.158 236.264 250.158 236.828C250.158 236.989 250.413 237.454 250.724 237.861C251.036 238.268 251.405 239.015 251.544 239.521C252.03 241.286 251.911 241.189 253.523 241.136L254.944 241.089V239.794C254.944 238.561 254.972 238.459 255.552 237.632C255.907 237.125 256.16 236.573 256.16 236.305C256.16 235.893 256.064 235.812 255.199 235.497C253.495 234.877 253.158 234.198 254.051 233.184C254.461 232.718 254.733 231.783 254.459 231.783ZM268.392 233.24C267.922 233.24 267.923 233.221 268.263 235.085L268.377 235.715L267.866 235.413C267.584 235.248 267.354 235.055 267.354 234.985C267.354 234.916 267.281 234.858 267.192 234.858C267.103 234.858 267.029 235.027 267.029 235.233C267.029 235.667 267.489 237.286 267.612 237.286C267.657 237.286 267.91 237.175 268.172 237.039C268.542 236.849 268.673 236.645 268.755 236.137C268.818 235.743 269.077 235.223 269.405 234.831C269.705 234.473 269.949 234.075 269.949 233.945C269.949 233.666 269.008 233.24 268.392 233.24ZM265.171 233.304C264.746 233.317 264.223 233.507 263.426 233.907L262.499 234.371L262.406 237.647L262.038 237.345C261.779 237.133 261.618 236.744 261.493 236.032C261.299 234.919 261.124 234.805 260.545 235.419C259.997 236.001 259.939 237.104 260.387 238.419C260.681 239.285 260.758 239.949 260.821 242.177C260.89 244.621 260.864 244.982 260.557 245.891C260.369 246.444 260.216 247.307 260.216 247.808C260.216 248.558 260.284 248.784 260.6 249.08C261.467 249.892 262.482 249.917 263.618 249.154C265.049 248.192 267.301 245.925 267.751 244.992C268.198 244.067 269.164 240.962 269.479 239.438C269.723 238.261 269.564 237.933 268.749 237.933C268.143 237.933 267.745 238.182 266.514 239.336C265.814 239.992 265.474 240.199 265.095 240.199C264.82 240.199 264.596 240.116 264.596 240.015C264.596 239.623 265.265 238.783 265.809 238.49C266.468 238.137 266.474 238.094 266.104 236.708C265.836 235.703 265.837 235.65 266.156 234.896C266.545 233.978 266.509 233.8 265.867 233.469C265.646 233.355 265.426 233.297 265.171 233.304ZM255.279 233.563C254.668 233.563 254.538 233.616 254.538 233.861C254.538 234.296 254.703 234.394 255.344 234.34C255.797 234.302 255.928 234.215 255.969 233.928C256.016 233.596 255.955 233.563 255.279 233.563ZM231.18 234.373C230.499 234.373 230.332 234.436 230.109 234.776C229.743 235.333 229.914 235.668 230.564 235.665C230.856 235.665 231.173 235.609 231.268 235.544C231.486 235.392 231.988 234.664 231.988 234.499C231.988 234.43 231.624 234.373 231.18 234.373ZM232.246 235.991C231.708 235.991 231.113 236.609 231.362 236.909C231.575 237.164 232.848 237.196 233.296 236.956C233.469 236.864 233.61 236.721 233.61 236.637C233.61 236.414 232.717 235.991 232.246 235.991ZM272.317 236.273L272.129 237.387C272.006 238.116 271.765 238.776 271.432 239.3C270.818 240.265 270.791 240.616 271.318 240.748C271.535 240.802 271.763 241.011 271.825 241.211C272.007 241.803 272.229 241.979 272.796 241.979H273.331L273.443 240.934C273.504 240.359 273.48 239.25 273.39 238.47C273.244 237.222 273.17 237.005 272.771 236.663L272.317 236.273ZM258.843 236.671C258.678 236.659 258.459 236.72 258.181 236.852C257.018 237.405 255.674 239.039 255.674 239.899C255.674 240.107 256.599 240.628 257.459 240.904C257.914 241.05 258.369 241.008 258.664 240.793C259.052 240.51 259.047 239.718 258.655 239.449C258.045 239.029 257.945 238.883 257.945 238.412C257.945 237.961 257.983 237.933 258.594 237.933C259.229 237.933 259.243 237.921 259.243 237.362C259.243 236.918 259.118 236.692 258.843 236.671ZM232.763 237.645C232.445 237.579 230.528 238.394 230.528 238.594C230.528 238.862 231.119 239.056 231.945 239.061C232.695 239.065 232.802 239.023 232.873 238.702C233.054 237.87 233.037 237.701 232.763 237.645ZM225.003 238.095C224.919 238.095 224.85 238.167 224.85 238.256C224.85 238.345 224.964 238.419 225.103 238.419C225.242 238.419 225.311 238.345 225.256 238.256C225.201 238.167 225.087 238.095 225.003 238.095ZM240.673 238.257C240.992 238.257 241.073 238.34 241.073 238.662C241.073 238.998 240.995 239.066 240.613 239.066C240.36 239.066 240.108 239.02 240.051 238.964C239.844 238.757 240.283 238.257 240.673 238.257ZM233.796 239.551C233.441 239.551 233.228 239.763 233.404 239.939C233.567 240.102 233.98 239.985 234.057 239.754C234.096 239.636 233.986 239.551 233.796 239.551ZM275.065 240.523C274.959 240.523 274.649 240.832 274.377 241.21C273.9 241.874 273.889 241.93 274.049 242.811C274.249 243.909 274.147 244.245 273.614 244.245C273.092 244.245 272.925 244.531 273.255 244.86C273.515 245.119 274.078 245.054 275.02 244.654C275.232 244.564 275.304 244.61 275.304 244.839C275.304 245.452 276.041 246.143 276.731 246.177C276.847 246.182 277.048 245.934 277.178 245.625C277.504 244.845 277.471 243.76 277.093 242.881C276.759 242.104 275.4 240.523 275.065 240.523ZM235.322 240.548C235.171 240.545 235.001 240.561 234.813 240.596C234.314 240.689 234.259 240.753 234.259 241.241C234.259 241.714 234.336 241.814 234.867 242.034C235.59 242.333 235.584 242.332 235.837 242.171C236.04 242.043 236.115 241.686 236.07 241.059C236.046 240.737 235.773 240.559 235.322 240.548ZM232.626 241.332C232.314 241.332 232.294 241.391 232.398 242.019C232.585 243.142 232.845 243.44 233.925 243.767C234.462 243.93 234.583 243.942 234.583 243.829C234.583 243.778 234.305 243.396 233.964 242.979C233.624 242.563 233.26 242.022 233.157 241.777C233.036 241.492 232.846 241.332 232.626 241.332ZM270.792 241.826C270.71 241.822 270.597 241.884 270.469 242.011C270.224 242.256 270.216 243.343 270.456 243.81C270.677 244.241 271.586 245.216 271.766 245.216C271.838 245.216 271.896 244.847 271.896 244.396C271.896 243.545 271.74 243.115 271.226 242.565C271.06 242.387 270.923 242.146 270.923 242.029C270.923 241.897 270.873 241.829 270.792 241.826ZM222.007 242.377C222.084 242.373 222.236 242.45 222.538 242.603C223.21 242.942 224.9 243.344 226.372 243.515C227.301 243.623 228.094 244.105 228.094 244.561C228.094 244.824 227.172 244.731 225.661 244.317C224.903 244.109 224.056 243.935 223.779 243.93C222.63 243.91 221.93 243.419 221.93 242.634C221.93 242.465 221.93 242.381 222.007 242.377ZM269.554 244.205C269.494 244.211 269.455 244.275 269.407 244.383C269.305 244.61 269.387 244.9 269.705 245.441C270.205 246.293 270.368 246.353 270.631 245.778C270.8 245.407 270.758 245.307 270.182 244.719C269.817 244.346 269.656 244.196 269.554 244.205ZM268.631 245.949C268.457 245.986 268.124 246.347 267.56 247.046C266.564 248.278 266.38 248.621 266.38 249.242C266.38 249.968 266.069 250.034 265.563 249.415L265.119 248.873L264.57 249.35C264.268 249.613 263.84 249.954 263.619 250.107L263.217 250.386L263.6 250.714C264.027 251.08 265.086 251.152 266.062 250.881C267.278 250.544 268.532 248.633 268.749 246.788C268.819 246.196 268.805 245.911 268.631 245.949ZM226.81 247.101C226.943 247.097 227.119 247.104 227.349 247.111C228.428 247.149 228.751 247.337 228.48 247.77C228.286 248.078 227.817 248.146 226.959 247.99C226.489 247.904 226.391 247.817 226.391 247.482C226.391 247.19 226.411 247.109 226.81 247.101ZM269.687 247.32C269.459 247.32 269.375 247.826 269.571 248.021C269.734 248.184 270.08 248.15 270.198 247.96C270.329 247.748 269.986 247.32 269.687 247.32ZM278.734 248.938C278.389 248.938 278.101 249.435 277.998 250.209C277.802 251.684 277.63 251.951 276.208 252.974C274.262 254.376 273.681 255.322 273.681 257.09C273.681 258.299 274.21 259.5 275.077 260.259C275.759 260.857 275.951 260.869 276.572 260.348C276.837 260.125 277.249 259.943 277.488 259.943C277.91 259.943 277.921 259.967 277.87 260.782C277.822 261.559 277.848 261.63 278.224 261.737C278.858 261.918 279.511 261.902 279.897 261.696C280.343 261.46 280.556 261.182 280.998 260.266C282.342 257.478 282.449 253.515 281.235 251.45C280.834 250.766 279.013 248.938 278.734 248.938ZM276.809 249.105C276.697 249.097 276.558 249.116 276.388 249.159C276.096 249.232 275.936 249.491 275.656 250.349C275.194 251.767 275.202 251.851 275.802 251.851C276.138 251.851 276.458 251.696 276.776 251.378C277.177 250.979 277.25 250.776 277.25 250.078C277.25 249.407 277.147 249.13 276.809 249.105ZM247.372 251.459L247.061 251.857C246.543 252.521 246.504 252.954 246.922 253.398C247.451 253.96 247.784 253.892 248.444 253.089C248.762 252.701 249.022 252.349 249.022 252.307C249.022 252.265 248.651 252.057 248.197 251.845L247.372 251.459ZM264.109 252.044V252.686C264.109 253.04 264.185 253.47 264.278 253.642C264.508 254.072 265.18 254.043 265.474 253.591C265.604 253.39 265.759 253.027 265.819 252.783C265.942 252.287 265.879 252.246 264.799 252.123L264.109 252.044ZM270.777 252.336C270.5 252.336 269.803 253.279 269.641 253.874C269.376 254.845 269.405 254.926 270.006 254.926C270.48 254.926 270.586 254.846 270.834 254.295C271.041 253.839 271.088 253.481 271.007 253.001C270.945 252.636 270.842 252.336 270.777 252.336ZM274.087 252.66C273.953 252.66 273.843 252.733 273.843 252.822C273.843 252.911 273.953 252.984 274.087 252.984C274.22 252.984 274.33 252.911 274.33 252.822C274.33 252.733 274.22 252.66 274.087 252.66ZM222.119 253.035C223.464 253.001 224.026 253.175 224.79 253.68C225.221 253.965 226.049 254.352 226.631 254.54C227.272 254.748 227.709 254.983 227.739 255.139C227.809 255.491 226.781 255.988 225.49 256.225C224.915 256.33 224.272 256.449 224.061 256.489C223.85 256.528 223.115 257.095 222.427 257.748C221.393 258.731 220.122 259.62 219.751 259.62C219.706 259.62 219.713 259.047 219.767 258.347C219.916 256.419 219.778 255.961 218.76 255.011C217.812 254.127 217.44 253.308 217.986 253.308C218.156 253.308 219.277 253.23 220.476 253.134C221.135 253.081 221.671 253.047 222.119 253.035ZM249.591 253.621C249.362 253.621 249.104 253.765 248.917 254.049C248.684 254.405 248.677 254.49 248.873 254.611C249.083 254.741 249.975 254.677 250.132 254.52C250.167 254.485 250.15 254.27 250.093 254.044C250.022 253.761 249.821 253.62 249.591 253.621ZM221.6 253.834C221.33 253.851 221.23 254.206 221.43 254.579C221.673 255.032 222.701 255.189 223.796 254.939L224.282 254.828L223.715 254.473C223.402 254.278 222.891 254.075 222.579 254.023C222.267 253.97 221.883 253.892 221.726 253.849C221.681 253.837 221.639 253.832 221.6 253.834ZM222.479 255.741C222.224 255.723 221.907 255.811 221.764 255.983C221.54 256.252 221.541 256.254 222.011 256.516C222.448 256.759 222.47 256.755 222.707 256.376C222.821 256.195 222.871 255.976 222.818 255.891C222.762 255.801 222.632 255.752 222.479 255.741ZM248.373 256.059C248.284 256.059 248.211 256.132 248.211 256.221C248.211 256.31 248.284 256.383 248.373 256.383C248.462 256.383 248.535 256.31 248.535 256.221C248.535 256.132 248.462 256.059 248.373 256.059ZM267.992 256.707C267.918 256.707 267.434 257.057 266.916 257.485C265.154 258.942 263.11 260.191 261.108 261.032C257.402 262.591 257.458 262.561 257.458 262.936C257.458 263.16 257.766 263.585 258.273 264.058C258.944 264.684 259.178 264.809 259.602 264.767C260.016 264.727 260.198 264.577 260.54 263.993C260.908 263.363 261.058 263.25 261.684 263.133C262.081 263.059 262.985 262.816 263.691 262.593C266.884 261.583 268.516 260.177 268.554 258.405C268.568 257.736 268.228 256.707 267.992 256.707ZM278.402 256.882C278.497 256.877 278.548 256.967 278.549 257.151C278.552 258.266 279.166 259.024 279.784 258.679C280.154 258.472 280.657 258.629 280.654 258.951C280.65 259.403 280.409 259.627 279.833 259.716C279.382 259.785 279.169 259.711 278.699 259.318C277.932 258.678 277.586 257.626 277.994 257.176C278.168 256.984 278.307 256.886 278.402 256.882ZM235.374 257.788C235.57 257.784 235.571 257.983 235.436 258.501C235.299 259.03 235.069 259.241 234.857 259.03C234.796 258.969 234.746 258.71 234.746 258.455C234.746 258.122 234.849 257.952 235.111 257.854C235.222 257.812 235.309 257.789 235.374 257.788ZM268.244 261.646C267.876 261.609 267.123 262.142 266.479 262.926C265.812 263.738 265.792 263.88 266.166 265.066C266.437 265.924 266.437 265.935 266.005 266.985C265.567 268.048 265.467 268.755 265.702 269.125C265.772 269.235 266.246 269.468 266.756 269.643C267.266 269.818 268.347 270.292 269.157 270.697C270.828 271.531 271.703 271.632 273.444 271.187C273.976 271.051 274.593 270.809 274.816 270.649C275.693 270.022 276.102 268.357 275.506 267.838C275.35 267.702 274.954 267.505 274.627 267.4C274.028 267.209 273.556 266.812 273.726 266.642C273.776 266.592 274.261 266.51 274.803 266.461C275.346 266.412 275.79 266.343 275.79 266.306C275.79 266.049 275.225 265.249 274.746 264.83C274.134 264.294 272.833 263.828 271.948 263.828C271.481 263.828 271.41 263.882 271.41 264.235C271.41 264.459 271.629 265.029 271.896 265.502C272.586 266.722 272.512 267.213 271.67 267.002C271.322 266.915 270.943 266.275 270.679 265.325C270.469 264.572 270.047 265.127 269.874 266.383C269.763 267.188 269.735 267.227 269.268 267.227H268.777L268.876 266.134C268.93 265.533 269.019 264.696 269.073 264.273C269.176 263.47 268.789 262.039 268.377 261.699C268.342 261.669 268.297 261.651 268.244 261.646ZM263.092 263.841C262.782 263.841 262.459 263.921 262.061 264.085C260.766 264.615 259.916 265.766 259.499 267.55C259.256 268.587 259.336 269.197 259.808 269.916C260.135 270.414 260.447 270.233 261.297 269.055C261.974 268.117 262.375 268.01 262.459 268.744C262.504 269.13 262.359 269.348 261.584 270.062C260.675 270.899 260.658 270.93 260.764 271.59C260.973 272.893 262.713 275.803 263.283 275.803C263.35 275.803 263.559 275.639 263.749 275.437C264.227 274.929 264.581 274.023 264.852 272.609C265.155 271.028 265.15 270.966 264.687 270.791C263.963 270.516 263.903 270.12 264.417 268.982C265.515 266.552 265.378 264.721 264.051 264.093C263.701 263.927 263.402 263.842 263.092 263.841ZM257.121 264.126C256.259 264.155 255.639 264.49 255.09 265.209C254.27 266.281 254.399 267.758 255.418 268.963C255.836 269.458 255.885 269.474 256.295 269.263C256.534 269.139 256.848 268.904 256.993 268.74C257.521 268.139 258.593 265.932 258.593 265.445C258.593 264.892 257.989 264.162 257.506 264.133C257.372 264.125 257.244 264.122 257.121 264.126ZM281.451 265.94C281.644 265.926 281.793 266 281.793 266.169C281.793 266.3 281.61 266.964 281.387 267.646C280.826 269.361 280.853 269.92 281.537 270.8C282.086 271.505 282.446 272.409 282.175 272.399C282.098 272.395 281.89 272.314 281.711 272.216C280.694 271.655 280.008 270.455 279.972 269.177C279.946 268.268 280.421 266.652 280.835 266.238C281.018 266.056 281.257 265.954 281.451 265.94ZM277.047 266.323C277.001 266.328 276.977 266.38 276.956 266.481C276.882 266.833 277.221 267.387 277.51 267.387C277.692 267.387 277.73 267.29 277.651 267.024C277.591 266.823 277.421 266.565 277.274 266.449C277.163 266.361 277.094 266.319 277.047 266.323ZM258.511 268.432C258.28 268.408 257.945 268.734 257.945 269.104C257.945 269.436 258.014 269.504 258.309 269.462C258.508 269.434 258.697 269.279 258.728 269.118C258.758 268.957 258.742 268.717 258.692 268.585C258.654 268.488 258.588 268.44 258.511 268.432ZM277.169 268.682C277.035 268.682 276.926 268.787 276.926 268.916C276.926 269.045 276.642 269.697 276.295 270.365C275.949 271.033 275.699 271.612 275.74 271.653C275.869 271.782 276.795 271.456 277.11 271.171C277.512 270.808 277.562 268.682 277.169 268.682ZM249.299 268.714C248.603 268.723 247.868 268.845 247.465 269.053C247.015 269.285 240.915 274.496 237.423 277.631C233.471 281.179 230.759 283.068 227.017 284.875C224.184 286.244 223.339 286.853 222.881 287.859C222.505 288.685 222.484 290.642 222.831 292.468C223.074 293.748 223.03 294.538 222.638 295.911C222.473 296.488 222.975 296.148 225.145 294.212C237.654 283.054 243.79 277.769 245.264 276.884C247.198 275.722 247.369 275.572 247.763 274.695C248.363 273.356 249.668 272.243 250.639 272.243C251.186 272.243 251.011 272.706 250.363 272.977C249.351 273.398 248.739 274.172 249.118 274.55C249.225 274.656 250.589 273.893 251.45 273.244C251.882 272.919 252.249 272.805 253.03 272.755C254.034 272.691 254.047 272.684 253.954 272.264C253.671 270.983 251.854 269.214 250.426 268.829C250.119 268.746 249.716 268.709 249.299 268.714ZM266.555 270.264C266.041 270.219 265.894 270.531 265.894 271.486C265.894 272.182 265.914 272.211 266.463 272.313C267.17 272.446 267.451 272.869 267.6 274.023C267.735 275.067 267.797 275.203 268.055 275.034C268.16 274.965 268.629 274.662 269.098 274.36C269.588 274.045 269.949 273.694 269.949 273.532C269.949 272.69 267.851 270.541 266.798 270.304C266.709 270.284 266.628 270.27 266.555 270.264ZM219.23 270.408C219.342 270.393 219.451 270.441 219.56 270.55C219.894 270.883 219.896 271.532 219.564 271.659C219.201 271.798 219.11 271.785 218.777 271.542C218.542 271.371 218.518 271.261 218.656 271.003C218.856 270.63 219.045 270.433 219.23 270.408ZM256.866 270.681C256.688 270.668 256.647 270.739 256.647 270.944C256.647 271.157 256.83 271.351 257.175 271.501C257.872 271.805 258.269 271.811 258.269 271.518C258.269 271.237 257.723 270.867 257.093 270.721C257 270.7 256.925 270.686 256.866 270.681ZM278.576 271.299C278.49 271.274 278.367 271.5 278.243 271.99C278 272.955 278.012 273.085 278.345 273.022C278.565 272.98 278.64 272.775 278.678 272.12C278.708 271.602 278.661 271.325 278.576 271.299ZM255.621 271.314C255.586 271.318 255.55 271.328 255.518 271.348C255.289 271.489 255.305 271.971 255.546 272.212C255.81 272.476 256.068 272.37 256.128 271.973C256.175 271.652 255.871 271.292 255.621 271.314ZM270.598 272.566V273.214C270.598 273.687 270.666 273.861 270.847 273.861C270.984 273.861 271.141 273.733 271.196 273.577C271.251 273.422 271.444 273.131 271.624 272.931L271.953 272.566H270.598ZM273.428 272.566C273.117 272.566 273.032 272.65 273.032 272.959C273.032 273.462 273.432 273.86 273.936 273.86C274.206 273.86 274.33 273.77 274.33 273.573C274.33 273.097 273.854 272.566 273.428 272.566ZM259.024 272.588C258.663 272.581 258.49 272.674 258.158 272.953C257.88 273.186 257.425 273.423 257.147 273.478C256.868 273.534 256.606 273.634 256.564 273.702C256.505 273.798 257.172 276.415 257.544 277.543C257.643 277.844 258.229 277.788 258.553 277.445C258.709 277.28 259.196 276.651 259.634 276.047C260.379 275.021 260.432 274.884 260.445 273.934C260.453 273.375 260.415 272.874 260.36 272.819C260.305 272.763 259.901 272.675 259.461 272.623C259.286 272.603 259.145 272.59 259.024 272.588ZM276.607 272.62C276.535 272.616 276.469 272.628 276.421 272.658C276.339 272.708 276.313 272.818 276.365 272.901C276.484 273.093 277.088 273.098 277.088 272.907C277.088 272.764 276.821 272.629 276.607 272.62ZM265.246 274.248C265.011 274.28 264.925 274.651 264.923 275.487C264.919 276.678 265.363 277.118 265.963 276.52C266.424 276.06 266.148 274.655 265.532 274.326C265.418 274.266 265.324 274.238 265.246 274.248ZM272.321 274.508C271.986 274.508 271.908 274.607 271.816 275.15C271.756 275.502 271.758 275.873 271.82 275.972C272.086 276.4 272.97 276.78 273.601 276.737C274.179 276.698 274.255 276.643 274.302 276.237C274.401 275.373 273.41 274.508 272.321 274.508ZM269.554 275.318C269.197 275.318 268.652 275.828 268.652 276.162C268.652 276.311 269.075 276.323 269.585 276.187C270.122 276.042 270.097 275.318 269.554 275.318ZM277.746 275.479C277.662 275.479 277.548 275.552 277.493 275.641C277.438 275.73 277.507 275.803 277.646 275.803C277.785 275.803 277.899 275.73 277.899 275.641C277.899 275.552 277.83 275.479 277.746 275.479ZM266.624 276.612C266.491 276.612 266.38 276.683 266.38 276.769C266.38 276.855 266.491 276.884 266.624 276.833C266.758 276.781 266.868 276.71 266.868 276.675C266.868 276.64 266.758 276.612 266.624 276.612ZM270.031 277.098C269.897 277.098 269.788 277.168 269.788 277.254C269.788 277.341 269.897 277.369 270.031 277.318C270.165 277.267 270.274 277.196 270.274 277.161C270.274 277.126 270.165 277.098 270.031 277.098ZM260.054 277.258V277.964C260.054 278.434 260.167 278.814 260.39 279.098C260.802 279.62 261.108 279.638 261.416 279.16C261.752 278.638 261.808 277.602 261.511 277.414C261.379 277.331 260.997 277.262 260.662 277.261L260.054 277.258ZM263.737 277.302C263.608 277.284 263.462 277.354 263.292 277.507C262.951 277.816 262.887 278.526 263.077 279.907C263.165 280.547 263.234 280.658 263.544 280.658C263.744 280.658 263.996 280.552 264.104 280.422C264.416 280.047 264.495 278.945 264.267 278.136C264.118 277.601 263.951 277.33 263.737 277.302ZM274.666 277.583C274.353 277.583 274.002 278.115 273.901 278.743L273.797 279.395L272.967 279.291C272.169 279.192 272.125 279.207 271.846 279.679C271.686 279.948 271.304 280.498 270.996 280.901C270.459 281.603 270.307 282.093 270.552 282.337C270.615 282.4 271.071 282.431 271.566 282.405C272.457 282.358 272.465 282.353 272.545 281.793C272.615 281.309 272.778 281.13 273.681 280.543C274.94 279.725 275.465 279.161 275.465 278.626C275.465 278.238 274.963 277.583 274.666 277.583ZM266.317 278.138C266.267 278.143 266.227 278.157 266.201 278.183C266.023 278.36 266.549 280.011 266.783 280.011C266.88 280.011 267.085 279.799 267.238 279.541C267.391 279.282 267.517 278.95 267.517 278.804C267.517 278.535 266.669 278.102 266.317 278.138ZM270.742 278.925C270.625 278.925 270.479 278.955 270.305 279.027C269.803 279.235 269.058 280.234 269.215 280.488C269.407 280.799 269.931 280.665 270.512 280.156C271.211 279.544 271.25 278.928 270.742 278.925ZM265.955 280.973C265.727 280.969 265.57 281.262 265.57 281.855C265.57 282.383 266.148 282.924 266.712 282.924C266.976 282.924 267.192 282.89 267.192 282.847C267.192 282.805 267.001 282.368 266.767 281.876C266.484 281.278 266.184 280.977 265.955 280.973ZM258.741 280.981C258.5 280.981 258.668 281.876 259.006 282.389C259.317 282.863 259.467 282.858 259.792 282.363C260.13 281.848 260.134 281.863 259.579 281.634C259.317 281.526 259.064 281.335 259.016 281.209C258.968 281.084 258.844 280.981 258.741 280.981ZM274.19 281.953C273.903 281.953 273.194 282.633 273.194 282.908C273.194 283.527 273.539 283.559 273.994 282.982C274.334 282.551 274.448 281.953 274.19 281.953ZM261.445 283.281C261.071 283.284 260.464 283.664 260.231 284.079C259.926 284.621 260.155 285.481 260.864 286.458C261.49 287.319 261.778 287.321 261.923 286.466C262.083 285.517 261.861 283.408 261.59 283.304C261.548 283.288 261.499 283.281 261.445 283.281ZM290.562 287.956C291.066 287.963 291.362 287.997 291.358 288.062C291.355 288.129 291.008 288.396 290.588 288.656C289.375 289.405 285.27 292.258 283.496 293.585C278.876 297.041 275.488 300.211 274.656 301.855C274.066 303.02 273.177 303.953 272.106 304.53L271.329 304.948L272.037 304.855C272.745 304.762 272.745 304.762 272.635 305.212C272.369 306.291 271.352 308.475 270.296 310.234C268.237 313.664 265.163 317.204 261.757 320.065C257.191 323.901 253.616 325.775 249.265 326.613C247.224 327.006 243.193 327.043 241.239 326.688C240.572 326.566 239.539 326.319 238.943 326.139C237.544 325.715 237.312 325.732 237.903 326.214C238.168 326.429 238.35 326.638 238.308 326.678C238.267 326.717 237.431 326.586 236.45 326.385C235.468 326.185 233.753 325.855 232.637 325.652C228.584 324.915 224.234 324.008 222.092 323.452C219.665 322.822 217.237 322.008 216.984 321.74C216.869 321.618 216.917 321.595 217.144 321.661C220.277 322.578 228.395 323.48 230.576 323.154C231.417 323.028 231.456 322.823 230.67 322.65C230.183 322.544 230.171 322.519 230.273 321.869C230.396 321.092 231.009 319.844 231.701 318.969C232.655 317.761 235.561 316.014 236.306 316.201C236.559 316.264 236.926 316.083 237.608 315.559C238.58 314.813 239.19 314.466 244.966 311.372C250.45 308.435 252.052 307.422 254.594 305.283C256.075 304.037 256.314 303.983 256.32 304.887C256.32 305.083 256.407 305.811 256.511 306.505C256.72 307.897 256.774 307.837 257.135 305.823C257.527 303.636 258.411 301.814 259.856 300.207C260.734 299.232 263.727 296.709 265.108 295.781C265.764 295.341 267.468 294.274 268.895 293.411L271.491 291.842L271.935 292.318C272.179 292.581 272.44 292.796 272.516 292.796C272.592 292.796 272.886 292.507 273.17 292.155C274.409 290.616 276.97 289.298 279.603 288.844C282.278 288.383 288.378 287.924 290.562 287.956ZM270.654 298.703L270.181 299.118C269.92 299.346 269.305 299.899 268.814 300.347C268.323 300.795 267.046 301.947 265.975 302.908C264.905 303.869 262.568 306.054 260.784 307.764C252.307 315.885 249.574 317.811 243.668 319.827C242.553 320.208 241.115 320.724 240.473 320.975C239.72 321.269 238.48 321.549 236.985 321.763C233.253 322.297 231.826 322.614 231.826 322.91C231.826 323.147 235.05 323.083 236.631 322.815C238.815 322.444 242.608 321.472 243.984 320.93C248.703 319.072 256.076 313.588 263.465 306.44C266.163 303.831 269.693 300.097 270.311 299.201L270.654 298.703Z" fill="currentcolor"/>

</svg>
