<svg  viewBox="0 0 1180 580" fill="currentcolor" xmlns="http://www.w3.org/2000/svg">
<path d="M204.226 338.064C202.836 337.664 201.67 336.905 200.299 335.507C197.949 333.11 196.253 330.215 195.535 327.375C194.6 323.678 194.608 321.86 195.57 319.055C196.221 317.158 196.669 316.311 197.477 315.448C198.484 314.373 199.456 313.804 200.593 313.626C201.125 313.542 201.835 313.38 202.169 313.265C202.886 313.019 206.314 312.286 209.325 311.735C217.543 310.232 227.523 307.463 240.949 302.963C243.771 302.017 246.083 301.19 246.088 301.125C246.091 301.061 245.941 300.948 245.753 300.876C244.208 300.283 242.046 299.081 241.378 298.444C241.239 298.311 240.6 297.737 239.96 297.169C238.71 296.059 236.974 294.06 235.246 291.739C233.852 289.867 233.883 289.89 233.102 290.133C232.452 290.335 229.835 291.399 228.205 292.124C227.703 292.348 226.127 292.962 224.703 293.49C223.28 294.017 221.848 294.562 221.522 294.701C221.196 294.841 220.769 294.914 220.573 294.865C220.317 294.801 220.163 294.861 220.026 295.082C219.782 295.472 219.421 295.472 219.07 295.086C218.918 294.919 218.738 294.782 218.67 294.782C218.601 294.782 217.841 294.348 216.98 293.817C216.12 293.286 214.867 292.525 214.198 292.126C212.086 290.868 209.17 288.871 206.28 286.706C204.367 285.272 203.849 284.851 200.098 281.682C197.009 279.072 192.07 273.973 189.292 270.526C188.686 269.773 187.885 268.828 187.514 268.426C187.011 267.881 186.86 267.61 186.922 267.361C186.968 267.178 187.182 266.001 187.397 264.747C187.843 262.143 189.209 256.19 189.542 255.394C189.665 255.101 190.004 254.045 190.297 253.047C190.589 252.048 191.047 250.757 191.315 250.178C191.9 248.91 191.916 248.931 189.943 248.33C189.215 248.109 187.754 247.59 186.698 247.177C185.642 246.764 183.346 245.94 181.597 245.345C179.848 244.75 177.814 244.028 177.077 243.742C176.339 243.455 175.68 243.255 175.612 243.297C175.543 243.34 175.302 243.752 175.075 244.215C174.614 245.156 174.624 245.312 175.249 247.136C175.621 248.224 175.665 248.958 175.355 248.901C175.266 248.885 175.182 249.14 175.17 249.469C175.109 251.017 174.604 252.245 173.647 253.17C173.135 253.664 172.902 253.774 172.192 253.854L171.347 253.949L170.201 256.294C168.727 259.308 168.727 259.299 170.066 261.861C171.076 263.793 171.643 265.458 171.641 266.485C171.641 266.784 171.756 267.952 171.898 269.081C172.124 270.884 172.133 271.439 171.967 273.643C171.863 275.023 171.714 277.025 171.636 278.092C171.557 279.158 171.323 281.074 171.115 282.35C169.916 289.687 169.589 292.975 169.705 296.531C169.851 301.063 170.6 304.827 172.141 308.773C172.811 310.488 173.069 310.912 174.349 312.388C175.317 313.505 175.34 313.934 174.454 314.357L173.923 314.609L173.393 314.095C173.101 313.813 172.643 313.221 172.376 312.779C171.998 312.157 171.844 312.014 171.689 312.142C171.539 312.267 171.49 312.247 171.49 312.061C171.49 311.885 171.349 311.813 170.995 311.811C170.723 311.811 170.329 311.674 170.119 311.51C169.733 311.208 169.354 311.113 169.363 311.32C169.367 311.383 169.557 311.708 169.788 312.042C170.229 312.68 170.739 312.881 171.117 312.568C171.486 312.262 171.393 313.128 171.017 313.503C170.773 313.747 170.585 313.801 170.228 313.729C169.716 313.627 169.206 313.241 169.206 312.956C169.206 312.598 167.677 309.664 167.085 308.886C166.751 308.447 166.24 307.901 165.949 307.672L165.42 307.255L165.184 307.728C164.968 308.161 164.97 308.239 165.207 308.639C165.35 308.88 165.588 309.077 165.738 309.077C166.027 309.077 166.112 309.452 165.857 309.609C165.774 309.661 165.705 309.821 165.705 309.965C165.705 310.108 165.569 310.342 165.403 310.484C165.119 310.727 165.094 310.725 164.947 310.451C164.861 310.292 164.792 310.087 164.792 309.996C164.792 309.905 164.517 309.252 164.182 308.544C163.847 307.837 163.574 307.199 163.574 307.126C163.574 307.054 163.454 306.761 163.307 306.477C163.087 306.05 163.037 305.513 163.021 303.4C163.002 301.013 162.884 300.285 162.564 300.606C162.466 300.704 162.465 302.381 162.564 306.72C162.637 309.966 163.239 312.461 164.248 313.69C164.547 314.055 164.793 314.497 164.793 314.67C164.793 315.316 163.532 315.899 163.157 315.426C162.985 315.208 162.536 313.815 162.068 312.042C161.652 310.466 161.479 308.88 161.351 305.465C161.293 303.938 161.205 302.69 161.155 302.69C160.912 302.69 160.066 303.663 159.989 304.027C159.941 304.253 159.843 304.541 159.771 304.667C158.083 307.585 156.341 309.749 155.935 309.43C155.649 309.206 155.049 309.079 155.049 309.243C155.049 309.319 154.929 309.383 154.782 309.386C154.635 309.39 154.383 309.491 154.22 309.614C154.058 309.737 153.646 309.836 153.306 309.835C151.701 309.83 151.499 309.337 152.727 308.421C153.197 308.07 153.786 307.562 154.038 307.29C154.29 307.018 154.572 306.796 154.665 306.796C154.848 306.796 155.962 305.712 155.962 305.535C155.962 305.438 155.134 305.999 153.447 307.24C152.534 307.911 150.211 309.077 149.786 309.077C149.117 309.077 149.398 308.706 150.444 308.208C151.008 307.94 151.573 307.653 151.699 307.572C151.825 307.49 152.35 307.173 152.868 306.867C153.442 306.527 154.261 305.813 154.972 305.032C156.271 303.607 156.39 303.353 155.215 304.514C154.792 304.933 154.4 305.275 154.343 305.275C154.286 305.275 154.028 305.434 153.769 305.629C153.51 305.824 152.578 306.385 151.699 306.876C150.82 307.367 149.884 307.929 149.619 308.126C149.04 308.557 148.792 308.334 149.287 307.828C149.622 307.486 150.029 307.228 151.09 306.687C152.883 305.774 153.166 305.327 152.232 304.884C151.939 304.746 151.699 304.614 151.699 304.592C151.699 304.57 152.298 304.261 153.031 303.906C153.764 303.55 154.65 303.062 155 302.822C155.651 302.376 156.016 302.241 155.688 302.568C155.587 302.668 155.507 302.822 155.51 302.91C155.514 302.998 155.583 302.951 155.668 302.807C155.752 302.662 155.821 302.491 155.819 302.427C155.816 302.268 157.671 300.408 157.832 300.408C157.902 300.408 157.911 300.494 157.851 300.598C157.792 300.703 157.991 300.515 158.293 300.18C158.595 299.846 158.845 299.523 158.849 299.463C158.853 299.403 159.043 299.13 159.274 298.855C159.816 298.208 160.114 297.671 159.931 297.671C159.851 297.671 159.679 297.823 159.549 298.009C159.088 298.666 159.32 298.12 159.91 297.156C160.845 295.63 161.138 294.986 161.144 294.445C161.148 294.17 161.248 293.535 161.368 293.033C161.488 292.531 161.63 291.572 161.685 290.903C161.84 288.994 161.215 286.935 159.284 282.996C158.434 281.261 158.188 280.293 157.796 277.143C157.405 273.995 157.404 272.545 157.792 270.934C157.959 270.239 158.096 269.341 158.096 268.938C158.096 268.13 158.648 266.289 159.242 265.119C160.38 262.875 162.404 260.729 164.574 259.465C165.738 258.787 166.144 258.306 166.541 257.128C166.68 256.718 166.966 256.027 167.178 255.594C167.846 254.222 167.796 252.922 167.042 252.096C166.654 251.669 166.554 250.738 166.747 249.353C167.054 247.159 167.946 245.918 170.117 244.667C170.793 244.278 171.424 243.811 171.519 243.631C171.613 243.451 171.923 243.045 172.207 242.727C172.49 242.41 172.685 242.091 172.64 242.017C172.594 241.943 172.335 241.834 172.064 241.775C171.793 241.715 171.366 241.577 171.114 241.467C170.079 241.017 166.961 239.824 163.958 238.728C162.199 238.087 159.869 237.22 158.781 236.801C157.692 236.383 156.151 235.816 155.355 235.543C154.56 235.27 153.326 234.829 152.614 234.564C151.903 234.3 151.124 234.021 150.883 233.946C150.643 233.871 150.285 233.705 150.089 233.576C149.893 233.448 149.637 233.343 149.52 233.343C149.404 233.343 148.357 232.942 147.193 232.452C146.03 231.962 144.427 231.35 143.631 231.092C141.688 230.462 140.774 230.043 140.588 229.697C140.418 229.379 140.405 227.857 140.569 227.26C140.732 226.66 141.536 226.348 142.917 226.348C143.738 226.348 144.255 226.268 144.592 226.09C144.932 225.911 145.475 225.829 146.394 225.819C147.241 225.81 147.795 225.733 147.952 225.604C148.091 225.488 148.727 225.375 149.453 225.337C150.146 225.301 150.919 225.205 151.172 225.125C151.425 225.044 152.331 224.912 153.185 224.83C154.04 224.749 154.895 224.646 155.085 224.601C155.507 224.502 158.533 224.079 160.001 223.914C160.588 223.848 161.341 223.723 161.676 223.636C162.01 223.549 162.695 223.438 163.197 223.389C163.7 223.339 164.59 223.201 165.177 223.082C165.763 222.962 166.825 222.796 167.537 222.712C168.248 222.627 169.139 222.49 169.516 222.407C169.893 222.323 170.718 222.252 171.351 222.248C171.983 222.244 172.565 222.177 172.645 222.097C172.725 222.018 173.406 221.884 174.16 221.799C175.824 221.611 177.488 221.386 179.413 221.09C180.208 220.968 181.142 220.869 181.487 220.87C181.832 220.87 182.382 220.779 182.708 220.664C183.035 220.548 183.746 220.403 184.288 220.341C184.831 220.278 185.439 220.165 185.639 220.089C185.84 220.013 186.523 219.879 187.158 219.791C187.792 219.703 188.433 219.565 188.582 219.486C188.731 219.406 189.423 219.318 190.12 219.29C190.818 219.262 191.554 219.147 191.757 219.035C191.96 218.923 192.705 218.811 193.412 218.787C194.279 218.757 194.875 218.653 195.239 218.468C195.668 218.25 195.922 218.219 196.465 218.32C197.243 218.465 197.933 218.377 198.552 218.055C198.814 217.918 199.418 217.833 200.124 217.832C200.842 217.832 201.382 217.754 201.57 217.624C201.742 217.505 202.468 217.38 203.265 217.332C204.031 217.286 204.811 217.167 204.997 217.068C205.183 216.969 205.891 216.855 206.571 216.815C207.252 216.775 208.067 216.645 208.382 216.526C208.698 216.408 209.437 216.31 210.024 216.31C210.628 216.31 211.329 216.212 211.638 216.082C211.954 215.951 212.652 215.854 213.292 215.854C213.901 215.854 214.937 215.75 215.595 215.624C216.253 215.497 217.305 215.295 217.933 215.176C218.561 215.057 219.692 214.913 220.446 214.858C221.199 214.802 221.987 214.673 222.196 214.571C222.406 214.469 223.16 214.368 223.871 214.345C224.583 214.323 225.377 214.217 225.636 214.109C225.895 214.001 226.58 213.866 227.159 213.809C228.041 213.722 228.324 213.756 228.918 214.019C229.308 214.192 230.164 214.436 230.821 214.561C231.479 214.686 233.079 215.105 234.377 215.491C235.675 215.877 237.876 216.488 239.269 216.848C240.662 217.208 241.93 217.569 242.086 217.652C242.242 217.734 243.09 217.983 243.969 218.206C244.848 218.428 246.116 218.77 246.786 218.964C247.456 219.159 248.586 219.473 249.298 219.662C250.01 219.851 251.586 220.311 252.8 220.684C254.014 221.057 255.453 221.49 255.997 221.646C259.838 222.75 261.472 223.208 261.935 223.309C262.793 223.495 265.367 224.195 265.76 224.348C266.106 224.482 267.24 224.802 269.396 225.371C269.94 225.515 270.865 225.763 271.451 225.923C272.037 226.082 273.134 226.374 273.887 226.572C274.641 226.769 275.806 227.116 276.476 227.343C277.146 227.569 278.07 227.844 278.531 227.955C278.992 228.065 279.814 228.289 280.358 228.452C281.93 228.925 289.646 231.111 292.234 231.817C293.532 232.171 295.416 232.691 296.421 232.972C297.426 233.253 298.625 233.56 299.086 233.655C299.546 233.749 300.677 234.063 301.598 234.352C302.519 234.641 303.745 234.937 304.322 235.011C304.898 235.084 305.468 235.243 305.589 235.363C305.898 235.672 306.026 236.464 305.937 237.52C305.863 238.41 305.851 238.43 305.328 238.557C305.035 238.628 304.418 238.78 303.958 238.894C303.497 239.008 301.819 239.417 300.227 239.802C298.637 240.187 297.026 240.578 296.65 240.669C296.273 240.761 295.502 240.969 294.937 241.132C294.371 241.295 293.824 241.399 293.719 241.363C293.614 241.327 293.232 241.424 292.868 241.579C292.506 241.733 291.99 241.859 291.722 241.859C291.455 241.859 291.091 241.961 290.913 242.086C290.735 242.21 290.257 242.322 289.851 242.335C289.445 242.347 289.033 242.42 288.935 242.497C288.838 242.573 288.289 242.705 287.717 242.789C287.145 242.874 286.445 243.015 286.162 243.104C285.878 243.192 285.262 243.351 284.791 243.456C284.321 243.56 283.251 243.825 282.414 244.044C281.576 244.262 280.583 244.508 280.206 244.59C279.829 244.671 278.938 244.877 278.227 245.047C277.515 245.217 276.419 245.463 275.791 245.594C275.162 245.725 274.443 245.891 274.192 245.965C273.013 246.308 270.438 246.884 269.015 247.121C268.68 247.178 267.241 247.522 265.818 247.888C264.394 248.253 261.962 248.858 260.413 249.232C255.261 250.475 255.308 250.462 255.373 250.693C255.527 251.236 256.328 253.491 256.886 254.953C257.449 256.429 258.668 260.26 259.349 262.694C259.501 263.237 259.739 264.298 259.879 265.051C260.018 265.804 260.23 266.793 260.349 267.25C260.467 267.707 260.565 268.513 260.565 269.042C260.565 269.599 260.692 270.38 260.868 270.902C261.035 271.396 261.13 271.909 261.079 272.041C260.954 272.365 258.679 274.264 256.987 275.458C256.233 275.99 255.304 276.684 254.922 277.001C254.228 277.577 251.62 279.333 248.461 281.351C246.886 282.357 245.759 283.035 241.799 285.358C240.899 285.886 240.163 286.368 240.163 286.429C240.163 287.081 242.712 290.98 243.138 290.98C243.254 290.98 243.582 290.776 243.867 290.526C244.151 290.277 245.267 289.684 246.346 289.208C247.426 288.733 249.644 287.663 251.277 286.831C255.21 284.827 255.241 284.817 256.114 285.203C257.135 285.654 258.79 287.055 259.272 287.878C259.932 289.003 260.403 290.952 260.572 293.261C260.73 295.429 260.804 295.846 261.029 295.846C261.106 295.846 261.735 295.578 262.427 295.25C263.12 294.923 264.408 294.381 265.29 294.047C267.046 293.381 268.395 292.811 273.887 290.407C277.857 288.67 292.144 281.639 296.193 279.429C297.575 278.675 298.83 278.057 298.982 278.056C299.387 278.052 300.955 279.263 303.24 281.345C304.004 282.042 304.427 282.312 304.868 282.387C305.612 282.512 305.701 282.622 306.176 284.003C306.584 285.191 306.994 288.512 307 290.681C307.004 291.837 306.631 295.282 306.476 295.532C306.43 295.607 306.102 295.714 305.746 295.77C305.03 295.883 304.502 296.045 299.009 297.836C296.916 298.519 294.621 299.319 293.909 299.615C293.197 299.91 292.375 300.202 292.082 300.264C291.789 300.327 290.967 300.595 290.255 300.862C287.815 301.775 283.804 303.146 283.566 303.149C283.435 303.149 282.75 303.389 282.045 303.679C281.34 303.969 280.538 304.248 280.263 304.3C279.503 304.443 278.797 305.187 277.691 307.013C277.138 307.928 276.511 308.886 276.298 309.142C275.74 309.816 274.305 310.75 273.828 310.75C273.603 310.75 273.15 310.886 272.822 311.054C272.493 311.221 272.064 311.358 271.868 311.358C271.672 311.358 271.293 311.478 271.025 311.624C270.623 311.844 270.143 311.89 268.288 311.89H266.039L265.277 312.782C264.857 313.273 264.166 314.265 263.739 314.987C262.798 316.581 261.693 318.236 260.741 319.48C260.259 320.109 259.913 320.784 259.664 321.581C259.108 323.356 259.199 323.553 261.799 326.146C263.83 328.173 263.984 328.292 265.477 328.985C268.284 330.289 269.61 330.645 271.73 330.663C272.437 330.669 272.752 330.727 272.713 330.844C272.644 331.052 271.202 331.687 269.313 332.342C268.556 332.605 267.837 332.884 267.715 332.963C267.54 333.076 267.903 333.512 269.434 335.021C270.501 336.075 271.336 336.998 271.29 337.074C271.11 337.365 269.296 337.202 267.645 336.748C263.615 335.639 260.016 333.069 257.962 329.835C257.319 328.824 256.892 327.826 256.784 327.088C256.636 326.068 256.82 321.831 257.028 321.471C257.125 321.304 257.382 320.175 257.598 318.962C257.815 317.749 258.092 316.332 258.213 315.813C258.334 315.294 258.434 314.619 258.434 314.312C258.434 313.806 258.402 313.765 258.091 313.858C257.902 313.915 257.371 314.012 256.911 314.076C256.348 314.153 255.223 314.594 253.485 315.419C248.712 317.683 246.578 318.664 245.919 318.896C245.558 319.022 244.817 319.39 244.272 319.714C243.726 320.037 242.116 320.872 240.693 321.57C237.6 323.088 231.801 326.08 230.419 326.872C229.874 327.184 228.744 327.8 227.906 328.241C227.069 328.683 224.739 330.015 222.729 331.202C220.72 332.39 218.664 333.591 218.162 333.872C217.659 334.153 216.357 334.962 215.269 335.669C214.18 336.377 212.707 337.235 211.995 337.576L210.701 338.195L207.808 338.229C205.804 338.252 204.705 338.201 204.23 338.065L204.226 338.064ZM209.887 336.943C210.988 336.364 211.674 335.797 212.359 334.899C212.659 334.507 212.905 334.156 212.905 334.12C212.905 334.084 212.099 334.456 211.114 334.947C209.059 335.972 207.835 336.223 206.094 335.977C204.747 335.786 203.693 335.16 202.169 333.644C199.563 331.051 198.162 328.455 197.284 324.589C196.862 322.734 196.829 321.683 197.144 320.186C197.955 316.336 200.83 314.458 203.769 315.858C207.121 317.455 210.164 322.601 210.164 326.672C210.164 327.735 209.773 329.705 209.47 330.17C209.181 330.613 209.192 330.67 209.562 330.67C209.914 330.67 210.713 330.296 211.115 329.944C211.88 329.274 210.923 323.952 209.549 321.227C208.793 319.73 208.081 318.684 207.157 317.717C206.288 316.807 205.209 316.071 204.744 316.071C204.598 316.071 204.37 315.979 204.238 315.867C203.808 315.502 202.055 314.948 201.343 314.951C199.407 314.959 197.507 317.081 196.66 320.182C196.223 321.778 196.289 324.717 196.804 326.64C197.382 328.8 198.02 330.369 198.874 331.734C200.133 333.747 202.155 335.615 204.134 336.592C205.716 337.373 206.311 337.512 207.804 337.449C208.802 337.408 209.178 337.316 209.887 336.943ZM269.391 336.304C269.391 336.224 269.214 336.036 268.996 335.886C268.779 335.735 267.945 334.991 267.143 334.231C265.596 332.765 265.414 332.343 266.33 332.343C266.578 332.343 267.293 332.137 267.921 331.887C268.548 331.636 269.127 331.43 269.208 331.43C269.288 331.43 269.442 331.325 269.549 331.196C269.832 330.855 269.572 330.679 268.682 330.604C265.375 330.326 261.146 327.762 259.048 324.763L258.692 324.254L258.182 325.207C257.754 326.008 257.688 326.26 257.77 326.78C257.907 327.655 258.698 329.325 259.632 330.711C260.318 331.73 260.662 332.058 262.125 333.093C264.175 334.543 265.286 335.117 267.488 335.863C269.364 336.499 269.391 336.506 269.391 336.304ZM209.212 334.904C209.484 334.821 209.707 334.695 209.707 334.624C209.707 334.441 208.947 334.299 208.086 334.322C206.811 334.356 205.9 334.164 205.9 333.862C205.9 333.512 206.382 333.394 206.741 333.656C207.109 333.925 207.818 333.919 208.824 333.639C210.426 333.194 210.755 333.041 210.841 332.702C210.886 332.52 210.966 332.262 211.017 332.129C211.169 331.733 210.853 331.851 210.256 332.414C209.79 332.852 209.618 332.926 209.236 332.849C208.871 332.776 208.727 332.827 208.541 333.091C208.356 333.355 208.214 333.404 207.865 333.328C206.31 332.987 203.965 331.123 202.969 329.436C201.541 327.02 200.456 323.603 200.608 322.001C200.643 321.625 200.867 320.718 201.105 319.986C201.44 318.958 201.602 318.656 201.817 318.656C202.258 318.656 202.235 317.999 201.777 317.506C201.513 317.221 201.365 316.527 201.569 316.527C201.747 316.527 202.551 316.997 202.552 317.101C202.556 317.359 203.609 317.919 203.912 317.822C204.583 317.61 203.994 316.926 202.969 316.728C202.697 316.675 202.418 316.535 202.347 316.416C202.2 316.169 201.22 316.274 200.567 316.608C199.981 316.907 198.77 318.27 198.658 318.757C198.604 318.994 198.471 319.462 198.363 319.796C197.852 321.378 197.949 323.251 198.667 325.647C199.389 328.055 200.452 329.925 202.452 332.305C203.296 333.309 203.43 333.407 203.944 333.407C204.346 333.407 204.588 333.506 204.786 333.749C205.187 334.244 206.271 334.946 206.849 335.085C207.401 335.217 208.452 335.137 209.212 334.904ZM199.311 321.065C198.949 320.319 199.259 319.975 200.026 320.269C200.353 320.394 200.331 320.984 199.987 321.294C199.613 321.632 199.579 321.62 199.309 321.065H199.311ZM199.287 318.974C199.148 318.749 199.347 318.404 199.711 318.238C200.031 318.093 200.048 318.114 199.991 318.598C199.947 318.973 199.855 319.112 199.652 319.112C199.499 319.112 199.334 319.05 199.287 318.974ZM200.357 317.646C200.305 317.508 200.291 317.366 200.326 317.329C200.45 317.206 201.037 317.605 200.947 317.751C200.805 317.98 200.461 317.919 200.355 317.646H200.357ZM208.753 332.546C208.83 332.312 208.199 332.117 208.001 332.314C207.916 332.399 207.895 332.547 207.955 332.642C208.088 332.858 208.674 332.787 208.753 332.546ZM213.534 332.32C214.196 331.968 214.456 331.737 214.518 331.446C214.565 331.228 214.698 330.811 214.814 330.518C215.33 329.217 215.481 325.703 215.1 323.858C214.658 321.722 213.649 319.114 213.057 318.579C212.89 318.428 212.753 318.248 212.753 318.179C212.753 317.98 214.208 317.294 215.951 316.671C216.83 316.357 219.023 315.518 220.823 314.808C225.185 313.086 228.59 311.745 232.547 310.191C234.347 309.484 236.642 308.57 237.647 308.159C239.889 307.244 246.449 304.711 248.475 303.978C250.328 303.308 251.297 302.831 251.227 302.623C251.143 302.371 249.796 302.206 248.382 302.276C247.02 302.342 246.763 302.412 242.443 303.893C234.268 306.696 218.681 311.123 213.21 312.197C211.661 312.501 209.263 312.981 207.881 313.264C206.5 313.547 205.027 313.821 204.608 313.873C203.189 314.049 203.165 314.104 204.326 314.55C208.168 316.024 210.697 319.491 211.899 324.935C212.451 327.433 212.508 328.603 212.182 330.79C212.029 331.819 211.935 332.691 211.973 332.729C212.15 332.906 212.709 332.759 213.534 332.32ZM216.549 332.221C217.258 331.87 217.327 331.582 216.704 331.582C216.221 331.582 215.814 331.91 215.803 332.305C215.796 332.55 215.913 332.537 216.549 332.221ZM209.923 332.099C210.056 332.048 210.125 331.946 210.079 331.871C209.973 331.699 209.099 331.69 209.099 331.861C209.099 332.17 209.464 332.275 209.923 332.099ZM207.197 331.429C207.249 331.345 207.165 331.23 207.015 331.174C206.317 330.917 206.347 330.366 207.058 330.366C207.728 330.366 208.366 330.008 208.698 329.447C208.995 328.945 209.018 328.751 208.757 328.959C208.652 329.042 208.313 329.191 208.003 329.291C207.693 329.39 207.19 329.641 206.884 329.848C206.541 330.081 206.218 330.19 206.039 330.133C205.771 330.048 205.75 329.864 205.747 327.58C205.747 326.227 205.695 325.044 205.633 324.953C205.572 324.861 205.317 324.736 205.067 324.675C204.675 324.579 204.649 324.543 204.876 324.415C205.223 324.222 205.212 323.795 204.849 323.349L204.556 322.99L204.392 323.418C204.302 323.654 204.228 324.015 204.228 324.221C204.228 324.428 204.124 324.636 203.998 324.685C203.734 324.786 203.227 324.432 203.441 324.296C203.518 324.247 203.628 323.991 203.685 323.727C203.769 323.34 203.72 323.183 203.438 322.92C203.148 322.65 203.092 322.456 203.119 321.815C203.139 321.388 203.223 320.967 203.31 320.881C203.503 320.689 203.518 320.177 203.329 320.177C203.16 320.177 202.981 320.617 203.083 320.783C203.125 320.85 203.06 320.944 202.936 320.991C202.679 321.089 202.247 320.715 202.247 320.394C202.247 320.274 202.188 320.177 202.115 320.177C201.969 320.177 201.876 321.32 201.879 323.066C201.883 324.364 202.18 325.302 203.328 327.628C204.266 329.53 204.797 330.227 205.859 330.953C206.788 331.588 207.042 331.679 207.197 331.429ZM202.716 323.434C202.724 323.257 202.76 323.22 202.809 323.342C202.852 323.452 202.848 323.583 202.797 323.633C202.746 323.684 202.71 323.594 202.716 323.434ZM218.844 330.483C220.236 329.98 221.883 329.22 222.041 329.007C222.083 328.95 222.391 328.764 222.726 328.593C224.183 327.849 224.381 327.723 224.192 327.66C224.083 327.624 223.918 327.67 223.824 327.763C223.731 327.856 223.514 327.933 223.343 327.933C223.171 327.933 222.174 328.35 221.128 328.859C218.455 330.161 216.762 330.752 216.9 330.334C216.974 330.111 217.239 329.961 218.844 329.238C220.816 328.348 222.178 327.87 223.868 327.472C224.646 327.289 229.806 324.884 229.806 324.704C229.806 324.64 229.703 324.587 229.578 324.587C229.44 324.587 229.349 324.446 229.349 324.232C229.349 323.684 229.508 323.643 230.049 324.055C230.663 324.523 230.811 324.529 230.928 324.092C231.086 323.505 231.038 323.353 230.556 322.903C230.098 322.476 230.07 322.154 230.49 322.154C230.605 322.154 230.741 322.285 230.792 322.445C230.943 322.922 231.484 323.522 231.763 323.522C231.905 323.522 232.176 323.415 232.363 323.283L232.705 323.045L232.388 322.6C232.071 322.156 232.095 321.849 232.447 321.849C232.549 321.849 232.648 322.035 232.667 322.261C232.686 322.487 232.756 322.728 232.824 322.796C232.922 322.894 235.088 322.064 237.647 320.949C239.27 320.241 242.585 318.488 243.049 318.091C243.807 317.443 245.698 316.375 246.087 316.375C246.523 316.375 247.731 315.883 249.845 314.846C250.859 314.349 251.733 313.941 251.787 313.941C251.841 313.941 252.656 313.593 253.597 313.166C255.419 312.341 257.078 311.744 258.011 311.577L258.582 311.474V310.414C258.582 309.831 258.531 309.38 258.468 309.412C257.506 309.906 256.062 310.518 254.776 310.977C253.897 311.29 251.704 312.124 249.904 312.829C248.104 313.535 245.705 314.475 244.575 314.917C240.205 316.627 239.649 316.646 243.243 314.962C246.972 313.215 249.286 312.254 255.005 310.077C258.763 308.647 258.635 308.719 258.514 308.071C258.46 307.784 258.285 306.663 258.126 305.579C257.967 304.495 257.765 303.476 257.678 303.313C257.287 302.582 255.423 302.643 253.414 303.452C252.589 303.785 251.834 304.056 251.737 304.056C251.64 304.056 250.657 304.426 249.552 304.877C248.448 305.328 246.071 306.254 244.27 306.936C238.738 309.029 236.32 309.952 231.024 311.991C224.878 314.358 214.885 318.309 214.615 318.48C214.464 318.575 214.504 318.786 214.797 319.427C215.867 321.777 216.484 325.281 216.359 328.307C216.314 329.397 216.23 330.477 216.173 330.706C216.069 331.118 216.075 331.122 216.733 331.064C217.098 331.031 218.048 330.77 218.844 330.483ZM216.891 329.051C216.946 328.776 217.048 328.713 218.159 328.275C218.866 327.995 219.264 327.85 220.443 327.441C221.361 327.123 222.428 326.65 222.662 326.457C222.794 326.349 223 326.259 223.119 326.259C223.238 326.259 223.599 326.185 223.921 326.096C224.488 325.938 224.504 325.916 224.407 325.401C224.352 325.109 224.269 324.769 224.221 324.646C224.168 324.508 224.213 324.439 224.344 324.467C224.483 324.496 224.57 324.333 224.604 323.979C224.671 323.27 224.837 323.105 225.398 323.187L225.867 323.256L225.383 323.659C224.999 323.98 224.872 324.233 224.769 324.887C224.697 325.34 224.656 325.728 224.677 325.75C224.696 325.771 225.376 325.522 226.185 325.197C228.009 324.464 228.649 324.284 228.895 324.436C229.097 324.561 229.039 324.602 227.675 325.3C227.298 325.492 226.93 325.65 226.857 325.651C226.785 325.651 226.491 325.857 226.205 326.108C225.664 326.582 225.201 326.748 225.533 326.348C225.681 326.169 225.654 326.147 225.379 326.219C225.196 326.267 225.012 326.433 224.972 326.589C224.895 326.882 224.472 327.043 223.944 326.98C223.768 326.959 223.656 327.024 223.678 327.134C223.722 327.356 223.168 327.394 223.035 327.179C222.94 327.025 222.498 327.13 222.521 327.301C222.556 327.577 222.478 327.65 222.302 327.503C222.102 327.338 220.543 327.81 218.996 328.503C217 329.398 216.813 329.447 216.891 329.051ZM220.081 326.813C219.744 326.454 219.715 325.956 220.031 325.956C220.231 325.956 220.555 326.642 220.496 326.937C220.45 327.162 220.391 327.144 220.081 326.813ZM221.08 326.291C220.737 325.913 220.756 325.693 221.143 325.571C221.524 325.45 221.692 325.595 221.761 326.104C221.826 326.579 221.438 326.686 221.08 326.291ZM219.453 325.271C219.453 325.146 219.513 325.043 219.586 325.043C219.66 325.043 219.805 325.146 219.91 325.271C220.068 325.462 220.046 325.499 219.776 325.499C219.59 325.499 219.453 325.402 219.453 325.271ZM221.34 323.915C221.21 323.577 221.379 323.218 221.666 323.218C221.84 323.218 221.895 323.334 221.861 323.625C221.806 324.09 221.477 324.273 221.34 323.915ZM226 323.235C226 323.08 226.464 322.87 226.57 322.976C226.609 323.015 226.593 323.119 226.539 323.208C226.417 323.404 226 323.425 226 323.235ZM225.086 321.987C225.086 321.932 225.194 321.797 225.326 321.688C225.525 321.523 225.59 321.526 225.705 321.707C225.927 322.058 225.872 322.152 225.467 322.119C225.258 322.102 225.086 322.042 225.086 321.987ZM231.177 321.393C231.177 321.226 231.245 321.089 231.329 321.089C231.413 321.089 231.481 321.226 231.481 321.393C231.481 321.561 231.413 321.697 231.329 321.697C231.245 321.697 231.177 321.561 231.177 321.393ZM228.501 320.92C228.444 320.827 228.49 320.691 228.607 320.618C229.043 320.342 229.465 320.539 229.177 320.885C228.971 321.133 228.644 321.15 228.501 320.92ZM229.931 320.282C230.137 320.063 230.437 319.915 230.65 319.927C230.993 319.947 231 319.963 230.753 320.196C230.609 320.332 230.286 320.492 230.034 320.551L229.578 320.658L229.931 320.282ZM233.156 320.409C233.156 320.369 233.369 320.226 233.63 320.092C234.114 319.842 234.516 319.975 234.306 320.316C234.208 320.473 233.156 320.559 233.156 320.409ZM231.411 319.887C231.13 319.777 231.137 319.754 231.524 319.5C231.75 319.352 232.048 319.274 232.186 319.327C232.415 319.414 232.413 319.449 232.162 319.724C231.864 320.053 231.845 320.057 231.41 319.887H231.411ZM232.699 319.283C232.699 319.036 233.15 318.773 233.406 318.871C233.636 318.959 233.632 318.989 233.37 319.188C233.043 319.435 232.699 319.484 232.699 319.283ZM234.718 318.399C234.86 318.258 235.026 318.193 235.089 318.255C235.152 318.317 235.101 318.432 234.978 318.51C234.608 318.744 234.443 318.674 234.718 318.399ZM237.419 317.444L237.038 317.345L237.371 317.164C237.772 316.946 238.13 316.931 238.251 317.128C238.389 317.349 237.846 317.556 237.419 317.444ZM242.663 316.598C242.825 316.475 243.042 316.375 243.145 316.375C243.248 316.375 243.628 316.249 243.991 316.095C244.354 315.941 244.886 315.769 245.174 315.713L245.697 315.611L245.333 315.998C245.055 316.294 244.873 316.364 244.561 316.296C244.29 316.236 243.981 316.311 243.641 316.518C243.359 316.69 242.957 316.828 242.748 316.826C242.38 316.821 242.378 316.814 242.663 316.598ZM207.605 328.523C208.652 327.852 208.948 327.423 208.944 326.581C208.936 324.794 207.84 321.405 206.849 320.101L206.271 319.34L205.249 319.295C204.687 319.271 204.227 319.28 204.227 319.316C204.227 319.352 204.635 320.227 205.134 321.262C206.148 323.364 206.441 324.584 206.599 327.362C206.651 328.262 206.731 328.997 206.779 328.997C206.826 328.997 207.198 328.784 207.605 328.523ZM204.221 322.313C204.411 322.193 204.401 322.126 204.154 321.853C203.898 321.57 203.85 321.562 203.729 321.777C203.585 322.034 203.679 322.459 203.88 322.456C203.945 322.456 204.099 322.39 204.221 322.313ZM259.115 320.689L259.572 320.299L259.117 320.402C258.691 320.498 258.438 320.71 258.433 320.975C258.429 321.179 258.65 321.086 259.115 320.689ZM259.244 319.399C259.831 319.242 259.998 319.079 260.839 317.84C262.653 315.168 264.487 311.666 264.631 310.6C264.71 310.009 264.676 309.945 263.87 309.165C263.406 308.716 262.718 308.137 262.342 307.879C261.966 307.62 261.137 306.843 260.501 306.153L259.344 304.897V305.619C259.344 306.016 259.454 307.008 259.588 307.822C259.98 310.196 259.616 315.821 258.883 318.69C258.61 319.756 258.47 320.764 258.716 319.882C258.781 319.65 258.978 319.47 259.244 319.399ZM205.145 318.36C204.901 317.905 204.684 317.838 204.45 318.146C204.127 318.573 204.178 318.656 204.765 318.656C205.251 318.656 205.288 318.627 205.145 318.36ZM173.928 313.364C173.928 312.971 172.834 311.518 172.533 311.513C172.298 311.509 172.298 311.543 172.537 312.003C173.068 313.026 173.509 313.637 173.716 313.637C173.833 313.637 173.928 313.514 173.928 313.364ZM171.423 310.761C171.297 310.518 171.036 310.193 170.843 310.039C170.278 309.589 167.853 306.652 167.159 305.577C164.979 302.202 164.361 300.85 163.614 297.823C162.962 295.183 163.082 292.191 164.04 287.176C164.432 285.124 164.82 283.747 165.551 281.813C166.115 280.32 166.294 279.898 167.372 277.519C167.996 276.144 169.068 274.045 169.657 273.046C169.913 272.613 170.122 272.211 170.123 272.152C170.123 272.093 170.232 271.839 170.365 271.589C170.775 270.812 171.184 269.34 171.186 268.631C171.19 267.796 171.037 267.947 170.583 269.231C170.051 270.734 168.845 273.269 166.801 277.185C165.594 279.496 163.823 283.985 163.368 285.884C162.609 289.051 162.301 294.395 162.728 296.985C163.481 301.559 165.839 306.036 169.229 309.328C170.178 310.249 171.381 311.204 171.593 311.204C171.625 311.204 171.549 311.005 171.423 310.761ZM268.272 310.444C269.019 310.444 269.165 310.389 269.595 309.95C269.86 309.678 270.248 309.382 270.455 309.293C270.689 309.193 270.834 309.006 270.836 308.801C270.836 308.619 270.88 308.487 270.93 308.507C271.12 308.583 271.524 308.112 271.524 307.814C271.524 307.643 271.638 307.377 271.776 307.224C272.012 306.964 272.01 306.946 271.737 306.946C271.577 306.946 270.967 307.083 270.382 307.25C268.679 307.736 268.62 307.72 266.098 306.096C264.853 305.293 263.276 304.239 262.594 303.752C261.254 302.796 260.646 302.431 260.734 302.635C261.2 303.713 262.413 305.818 263.103 306.747C263.589 307.4 264.149 308.174 264.348 308.467C264.85 309.203 265.728 310.116 266.254 310.447C266.583 310.655 266.786 310.689 267.063 310.584C267.266 310.507 267.811 310.444 268.272 310.444ZM273.999 309.66C274.842 309.24 275.307 308.895 275.626 308.455C276.818 306.812 278.046 303.638 278.181 301.851C278.268 300.699 278.107 300.243 277.386 299.605C276.586 298.896 274.505 298.127 272.362 297.746C271.692 297.627 270.815 297.467 270.413 297.39C269.846 297.281 269.402 297.315 268.433 297.54C267.747 297.7 266.711 297.828 266.132 297.826C264.943 297.821 264.929 297.962 266.091 298.221C267.995 298.645 269.395 299.052 270.441 299.485C271.06 299.741 271.633 299.951 271.715 299.951C271.798 299.951 272.473 300.336 273.217 300.806C274.38 301.543 274.589 301.74 274.719 302.221C275.114 303.686 275.134 303.597 273.938 305.571C273.322 306.588 272.647 307.718 272.438 308.082C272.228 308.447 271.798 309.032 271.482 309.384C271.024 309.892 270.943 310.066 271.084 310.235C271.37 310.58 272.669 310.324 273.999 309.66ZM171.106 308.27C170.56 307.079 170.205 305.714 169.754 303.068C169.539 301.814 169.283 300.322 169.184 299.754C169.085 299.185 168.948 298.685 168.878 298.642C168.714 298.541 168.718 298.798 168.913 300.799C169.093 302.643 170.158 307.44 170.522 308.05C170.737 308.409 171.405 309.213 171.45 309.167C171.478 309.142 171.321 308.738 171.106 308.27ZM154.699 308.429C155.511 307.666 156.637 306.2 156.509 306.073C156.46 306.024 155.957 306.428 155.391 306.971C154.826 307.514 154.175 308.081 153.945 308.23C153.395 308.587 153.401 308.935 153.96 309.063C153.988 309.07 154.322 308.784 154.7 308.429H154.699ZM164.945 308.704C164.945 308.667 164.877 308.595 164.793 308.543C164.709 308.491 164.641 308.521 164.641 308.61C164.641 308.699 164.709 308.771 164.793 308.771C164.877 308.771 164.945 308.741 164.945 308.704ZM156.813 307.87C158.018 306.44 159.611 304.029 159.88 303.228C160.153 302.414 160.517 301.635 160.844 301.167C161.072 300.84 161.364 299.494 161.207 299.494C161.175 299.494 160.716 300.367 160.184 301.433C158.907 303.992 156.701 307.475 156.226 307.682C156.161 307.711 156.005 307.932 155.88 308.174L155.653 308.613L156.045 308.464C156.261 308.382 156.607 308.115 156.813 307.87ZM164.788 307.041C164.895 306.568 164.853 306.408 164.482 305.897C164.057 305.31 163.758 305.04 163.652 305.145C163.554 305.244 163.97 307.167 164.169 307.533C164.409 307.972 164.615 307.808 164.788 307.041ZM169.566 306.912C169.24 306.47 168.732 304.937 168.373 303.311C168.014 301.686 167.99 301.309 167.99 297.304C167.99 291.862 168.314 288.356 169.213 284.059C169.371 283.306 169.546 282.348 169.603 281.93C169.661 281.511 169.8 281.034 169.915 280.869C170.15 280.529 170.199 278.964 169.975 278.964C169.715 278.964 169.506 279.54 168.908 281.9C167.979 285.565 167.705 287.071 167.448 289.914C167.074 294.066 167.022 296.079 167.214 298.997C167.548 304.042 167.85 305.172 169.353 306.977C169.599 307.273 169.789 307.215 169.566 306.912ZM269.931 306.046C270.353 305.886 271.038 305.571 271.454 305.347C271.869 305.122 272.552 304.819 272.971 304.673C273.639 304.44 273.734 304.353 273.752 303.966C273.763 303.723 273.819 303.318 273.878 303.065C274.024 302.437 273.799 302.263 271.516 301.227C269.333 300.237 266.739 299.527 264.831 299.399C263.58 299.315 263.496 299.331 262.617 299.8C262.115 300.068 261.643 300.344 261.569 300.413C261.201 300.757 262.848 302.652 264.518 303.806C265.164 304.252 268.923 306.333 269.088 306.336C269.13 306.336 269.509 306.207 269.931 306.046ZM260.226 304.824C260.124 304.661 260.011 304.556 259.975 304.592C259.91 304.657 260.242 305.121 260.353 305.121C260.385 305.121 260.33 304.987 260.226 304.824ZM154.645 303.996C154.998 303.689 155.166 303.445 155.067 303.384C154.739 303.181 153.566 304.057 153.755 304.363C153.899 304.594 154.013 304.547 154.645 303.996ZM166.258 301.053C165.928 297.652 165.871 296.834 165.865 295.435C165.861 294.574 165.791 293.844 165.706 293.792C165.623 293.74 165.551 293.719 165.548 293.745C165.192 296.259 165.044 297.701 165.034 298.737C165.022 299.927 165.065 300.114 165.547 301.056C165.836 301.619 166.137 302.08 166.215 302.08C166.299 302.08 166.316 301.657 166.258 301.053ZM281.082 301.565C281.812 301.282 282.846 300.894 283.379 300.702L284.347 300.354L284.27 299.786C284.194 299.218 284.359 298.886 284.718 298.886C284.855 298.886 284.837 299.011 284.65 299.336C284.279 299.981 284.543 300.219 285.359 299.975C285.688 299.876 285.989 299.711 286.028 299.607C286.123 299.355 285.938 298.861 285.754 298.875C285.497 298.895 285.597 298.512 285.863 298.461C286.032 298.429 286.134 298.53 286.167 298.763C286.202 299.023 286.316 299.114 286.597 299.114C286.932 299.114 286.984 299.041 287.027 298.506C287.054 298.171 287.141 297.83 287.223 297.747C287.465 297.501 287.637 297.951 287.55 298.601C287.507 298.925 287.506 299.19 287.55 299.19C287.739 299.19 290.032 298.272 291.57 297.581C291.834 297.462 292.13 297.365 292.227 297.365C292.324 297.365 292.744 297.219 293.159 297.041C293.874 296.734 293.93 296.73 294.202 296.977C294.458 297.208 294.53 297.212 294.846 297.018C295.041 296.897 295.646 296.679 296.191 296.532C296.735 296.386 297.386 296.161 297.637 296.031L298.094 295.797L297.562 295.617C297.049 295.444 297.043 295.432 297.362 295.261C297.906 294.97 298.272 295.038 298.258 295.426C298.251 295.706 298.315 295.759 298.622 295.715C299.009 295.661 302.441 294.581 304.336 293.919C306.081 293.309 306.014 293.427 305.996 291.009C305.98 288.691 305.771 286.855 305.297 284.849C305.035 283.745 304.937 283.527 304.734 283.607C304.599 283.661 303.392 284.112 302.053 284.611C300.713 285.109 297.905 286.207 295.813 287.049C293.722 287.892 291.083 288.921 289.951 289.337C288.819 289.753 285.597 291.004 282.792 292.117C278.117 293.973 274.876 295.209 272.763 295.941C272.008 296.203 271.669 296.495 271.878 296.703C271.924 296.75 272.495 296.848 273.146 296.921C274.391 297.06 275.727 297.545 277.178 298.383C278.385 299.081 278.922 299.746 279.142 300.816C279.303 301.6 279.512 302.08 279.693 302.08C279.728 302.08 280.351 301.848 281.082 301.565ZM280.507 300.513C280.507 300.405 280.59 300.234 280.69 300.133C280.992 299.831 281.269 299.926 281.269 300.331C281.269 300.635 281.193 300.711 280.888 300.711C280.677 300.711 280.507 300.623 280.507 300.513ZM288.425 297.84C288.425 297.498 288.805 297.148 289.027 297.285C289.25 297.423 289.225 297.609 288.947 297.887C288.627 298.206 288.425 298.188 288.425 297.84ZM290.127 297.175C290.158 296.955 290.298 296.816 290.518 296.784C290.933 296.726 290.959 296.925 290.583 297.266C290.203 297.608 290.069 297.582 290.127 297.175ZM291.268 296.809C291.102 296.643 291.484 296.301 291.834 296.301C292.014 296.301 293.873 295.542 295.965 294.614C300.405 292.644 301.111 292.351 301.807 292.187C302.246 292.083 302.291 292.096 302.111 292.275C301.917 292.467 298.359 294.08 297.103 294.545C296.81 294.654 296.13 294.956 295.592 295.218C295.054 295.479 294.503 295.693 294.369 295.693C294.235 295.693 293.985 295.791 293.812 295.912C293.639 296.033 293.18 296.212 292.793 296.309C292.405 296.407 292.009 296.582 291.913 296.698C291.725 296.923 291.433 296.973 291.268 296.809ZM301.975 293.563C302.101 293.482 302.307 293.42 302.432 293.424C302.583 293.43 302.557 293.477 302.356 293.563C301.937 293.743 301.697 293.743 301.975 293.563ZM303.345 293.109C303.5 292.82 303.685 292.745 304.588 292.608C304.944 292.554 304.973 292.579 304.825 292.816C304.616 293.15 304.062 293.411 303.562 293.411C303.231 293.411 303.203 293.373 303.345 293.109ZM303.803 291.632C303.803 291.413 304.156 291.03 304.455 290.926C304.756 290.821 305.002 291.212 304.774 291.434C304.569 291.634 303.803 291.79 303.803 291.632ZM257.212 301.375C257.589 301.197 258.029 301.007 258.189 300.952C258.398 300.882 258.434 300.806 258.317 300.69C258.201 300.573 258.005 300.575 257.634 300.697C257.348 300.792 256.708 300.88 256.212 300.894C253.649 300.965 245.042 299.211 244.62 298.532C244.263 297.957 243.749 296.175 243.569 294.888C243.336 293.217 243.226 292.946 242.541 292.345C242.067 291.929 240.518 289.878 240.126 289.145C239.831 288.596 239.361 287.901 239.06 287.568C238.913 287.408 238.265 286.45 237.619 285.439C236.972 284.429 236.395 283.568 236.337 283.526C236.166 283.404 235.441 281.514 234.531 278.812C234.067 277.432 233.619 276.303 233.536 276.303C233.453 276.303 233.265 276.884 233.119 277.595C232.714 279.555 232.708 279.572 232.481 279.572C232.363 279.572 231.756 279.23 231.13 278.812C230.504 278.394 229.95 278.052 229.899 278.052C229.44 278.052 230.318 280.444 232.214 284.363C233.838 287.72 234.419 288.715 234.987 289.112C235.155 289.23 235.25 289.394 235.199 289.477C235.016 289.774 239.557 295.426 241.18 296.922C242.078 297.75 243.573 298.575 247.087 300.183C249.428 301.254 251.919 301.764 254.624 301.725C256.21 301.702 256.641 301.644 257.212 301.375ZM260.769 301.547C260.677 301.306 260.41 301.231 260.41 301.446C260.41 301.607 260.576 301.776 260.735 301.776C260.802 301.776 260.816 301.673 260.769 301.547ZM260.562 300.255C260.562 300.19 260.325 300.092 260.036 300.038C259.706 299.976 259.537 299.869 259.582 299.751C259.622 299.647 259.551 299.427 259.427 299.262C259.21 298.976 259.201 298.982 259.224 299.418C259.247 299.878 259.551 300.296 259.96 300.437C260.221 300.528 260.562 300.425 260.562 300.255ZM257.859 299.517C258.09 299.385 258.278 299.229 258.278 299.171C258.278 298.989 257.027 298.46 255.994 298.205C254.391 297.809 252.78 297.198 251.883 296.646C251.423 296.363 250.669 295.912 250.209 295.646C249.486 295.227 249.334 295.056 249.103 294.4C248.693 293.234 248.859 292.037 249.568 291.059C249.873 290.638 250.191 290.246 250.275 290.188C250.775 289.842 249.141 289.614 247.518 289.802C246.87 289.878 246.063 290.08 245.724 290.252C245.123 290.558 244.615 291.086 244.692 291.325C244.711 291.39 244.627 291.643 244.5 291.888C244.374 292.132 244.27 292.578 244.27 292.878C244.27 293.684 244.713 295.682 244.983 296.093C245.231 296.47 247.036 297.822 247.293 297.822C247.376 297.822 247.658 298.001 247.919 298.221C248.328 298.564 248.495 298.609 249.107 298.54C249.741 298.468 251.495 298.723 251.842 298.936C251.96 299.009 255.184 299.684 256.146 299.837C256.689 299.923 257.373 299.795 257.859 299.517ZM261.761 299.032C262.478 298.384 262.436 298.299 261.575 298.658C261.274 298.783 260.889 298.886 260.719 298.886C260.546 298.886 260.41 298.786 260.41 298.658C260.41 298.533 260.382 298.43 260.346 298.43C260.311 298.43 260.157 298.382 260.003 298.324C259.734 298.221 259.819 298.355 260.722 299.456C260.947 299.73 261.022 299.7 261.761 299.032ZM160.245 298.012C160.434 297.77 160.429 297.765 160.187 297.954C160.041 298.069 159.921 298.189 159.921 298.22C159.921 298.346 160.046 298.265 160.245 298.012ZM259.553 297.58C260.022 297.4 259.518 291.852 258.823 289.547C258.321 287.882 256.518 286.264 255.164 286.264C254.953 286.264 253.935 286.703 252.902 287.24C251.869 287.777 250.628 288.332 250.144 288.472C248.953 288.818 249.213 289.003 251.067 289.13C252.537 289.231 252.588 289.247 253.482 289.904C255.287 291.228 257.574 293.942 258.297 295.616C258.406 295.867 258.613 296.231 258.758 296.425C258.904 296.618 258.984 296.876 258.938 296.997C258.891 297.118 258.938 297.319 259.041 297.443C259.256 297.702 259.242 297.699 259.553 297.58ZM264.247 297.349C264.774 297.067 267.14 296.481 268.183 296.374C268.722 296.318 269.747 296.043 270.459 295.762C271.17 295.48 274.61 294.184 278.102 292.881C281.595 291.577 285.432 290.099 286.629 289.594C291.647 287.482 301.617 283.607 302.775 283.32C303.005 283.263 303.193 283.156 303.193 283.081C303.193 282.904 298.986 279.268 298.78 279.268C298.693 279.268 297.236 279.998 295.541 280.89C289.908 283.855 284.878 286.381 282.139 287.622C280.65 288.297 279.279 288.948 279.094 289.07C278.759 289.288 275.969 290.567 270.382 293.06C268.791 293.77 266.605 294.689 265.524 295.101C263.571 295.846 261.78 296.725 261.78 296.939C261.78 297.387 263.607 297.691 264.247 297.349ZM257.187 296.808C257.461 296.318 256.997 295.301 255.752 293.669C254.881 292.527 254.09 291.813 252.592 290.82L251.702 290.23L250.904 290.832C249.966 291.539 249.735 291.963 249.857 292.755C249.988 293.603 250.263 294.06 251.068 294.768C252.784 296.277 256.745 297.597 257.187 296.808ZM164.638 294.97C164.622 294.441 165.988 288.896 167.043 285.199C168.015 281.792 167.945 281.551 166.721 284.099C165.97 285.663 165.296 287.776 164.769 290.218C164.398 291.937 164.198 295.54 164.474 295.54C164.582 295.54 164.647 295.314 164.638 294.97ZM218.153 292.461C218.117 292.189 218.047 291.224 217.994 290.317C217.942 289.41 217.849 288.725 217.788 288.796C217.581 289.037 217.321 290.541 217.321 291.503C217.321 292.325 217.37 292.496 217.664 292.7C218.158 293.045 218.223 293.013 218.153 292.461ZM221.22 292.563C221.169 292.43 221.128 292.02 221.128 291.65C221.128 291.158 221.067 290.978 220.902 290.978C220.778 290.978 220.634 290.79 220.582 290.56C220.289 289.269 220.242 289.195 220.228 290.005C220.22 290.432 220.277 290.979 220.355 291.222C220.432 291.464 220.538 291.919 220.59 292.233C220.664 292.677 220.754 292.803 220.999 292.803C221.222 292.803 221.286 292.734 221.22 292.563ZM224.142 292.316C224.497 291.962 224.28 288.135 223.918 288.361C223.798 288.435 223.731 289.106 223.715 290.372C223.704 291.416 223.696 292.322 223.704 292.385C223.723 292.556 223.936 292.522 224.142 292.316ZM223.015 290.912C223.136 289.578 223.004 288.545 222.707 288.545C222.541 288.545 222.498 288.924 222.498 290.365C222.498 291.842 222.537 292.17 222.706 292.105C222.842 292.053 222.949 291.638 223.015 290.912ZM226.612 290.766C226.612 290.59 226.678 289.838 226.757 289.095C226.864 288.076 226.975 287.662 227.211 287.412C227.382 287.23 227.523 287 227.523 286.9C227.523 286.588 226.981 286.704 226.614 287.095C226.296 287.433 226.254 287.652 226.185 289.307C226.12 290.89 226.076 291.138 225.864 291.097C225.659 291.058 225.612 290.764 225.576 289.265C225.532 287.408 225.462 287.247 224.885 287.671C224.65 287.843 224.642 288.017 224.792 289.533C224.883 290.453 224.987 291.357 225.023 291.541L225.088 291.875L225.848 291.481C226.393 291.199 226.61 290.996 226.612 290.766ZM216.405 289.648C216.405 288.748 216.333 287.91 216.248 287.785C216.141 287.626 216.107 288.122 216.136 289.419C216.16 290.443 216.231 291.282 216.293 291.282C216.356 291.282 216.407 290.547 216.405 289.648ZM221.708 290.292C221.763 289.447 221.647 288.849 221.429 288.849C221.345 288.849 221.28 289.35 221.28 290.002C221.28 290.857 221.329 291.139 221.47 291.093C221.578 291.057 221.681 290.711 221.708 290.292ZM215.163 288.937C215.116 286.999 215.03 286.525 214.771 286.783C214.635 286.918 214.518 290.443 214.639 290.759C214.685 290.879 214.833 290.978 214.968 290.978C215.184 290.978 215.207 290.732 215.163 288.937ZM228.1 290.206C228.123 290.003 228.244 289.423 228.366 288.915C228.488 288.408 228.588 287.776 228.588 287.51C228.588 287.191 228.692 286.962 228.893 286.837C229.274 286.599 229.306 286.068 228.934 286.14C228.79 286.168 228.594 286.346 228.499 286.537C228.404 286.728 228.186 287.035 228.015 287.22C227.703 287.559 227.593 288.405 227.651 290.04C227.678 290.755 228.018 290.881 228.1 290.206ZM213.819 288.165C213.819 286.298 213.689 285.593 213.454 286.201C213.331 286.522 213.336 290.141 213.458 290.264C213.73 290.535 213.818 290.019 213.818 288.165H213.819ZM229.835 288.279C229.866 287.296 229.876 286.468 229.858 286.44C229.843 286.411 229.72 286.596 229.588 286.85C229.263 287.479 229.243 290.066 229.565 290.066C229.735 290.066 229.791 289.692 229.835 288.279ZM231.42 287.803C231.322 286.408 231.166 285.91 230.912 286.181C230.848 286.249 230.864 286.33 230.948 286.36C231.039 286.393 231.08 286.942 231.05 287.721C230.997 289.123 231.074 289.539 231.348 289.369C231.471 289.293 231.493 288.833 231.42 287.803ZM212.506 288.355C212.671 286.925 212.656 285.498 212.475 285.317C212.379 285.222 212.265 285.179 212.222 285.222C212.046 285.398 211.866 288.774 212.022 288.962C212.305 289.302 212.411 289.168 212.505 288.355H212.506ZM232.669 288.664C232.696 288.534 232.542 288.232 232.331 287.992L231.947 287.556L231.943 287.985C231.935 288.792 232.536 289.354 232.67 288.664H232.669ZM211.086 288.203C211.09 288.098 211.153 287.26 211.225 286.34C211.336 284.912 211.32 284.628 211.117 284.401C210.986 284.255 210.821 284.135 210.751 284.135C210.6 284.135 210.574 288.142 210.723 288.292C210.887 288.455 211.078 288.408 211.086 288.203ZM169.805 286.317C169.895 285.995 169.96 285.218 169.951 284.591L169.936 283.45L169.742 284.667C169.458 286.458 169.454 286.475 169.247 286.693C169.142 286.803 169.057 287.111 169.058 287.377V287.861L169.35 287.381C169.511 287.117 169.716 286.638 169.805 286.317ZM209.693 284.793C209.709 283.562 209.628 283.07 209.411 283.07C209.312 283.07 209.31 287.164 209.407 287.556C209.485 287.865 209.677 285.996 209.692 284.793H209.693ZM219.728 287.366C219.701 287.22 219.616 287.1 219.541 287.1C219.466 287.1 219.388 287.22 219.366 287.366C219.343 287.518 219.425 287.632 219.554 287.632C219.687 287.632 219.758 287.523 219.728 287.366ZM162.204 286.056C162.204 285.633 162.099 285.258 161.913 285.023C161.753 284.819 161.379 284.051 161.082 283.316C160.554 282.007 159.835 280.637 159.676 280.637C159.477 280.637 160.45 283.112 160.865 283.661C161.015 283.86 161.139 284.16 161.139 284.326C161.139 284.727 161.923 286.72 162.08 286.72C162.149 286.72 162.204 286.421 162.204 286.056ZM208.416 284.401C208.356 283.209 208.253 282.176 208.187 282.106C208.045 281.955 207.804 285.994 207.934 286.335C207.984 286.463 208.136 286.568 208.274 286.568C208.5 286.568 208.514 286.354 208.416 284.401ZM219.586 275.314C219.679 274.185 219.895 271.619 220.066 269.612C220.478 264.767 220.574 262.86 220.393 263.148C220.202 263.451 219.457 271.154 219.15 275.996C218.971 278.817 218.947 284.844 219.111 285.732C219.178 286.094 219.262 284.53 219.319 281.854C219.371 279.386 219.491 276.443 219.584 275.314H219.586ZM207.12 284.69C207.12 284.243 207.163 283.367 207.216 282.744C207.297 281.779 207.271 281.57 207.042 281.341C206.825 281.124 206.746 281.111 206.643 281.272C206.466 281.552 206.478 284.638 206.659 285.113C206.904 285.757 207.12 285.559 207.12 284.69ZM239.407 283.869C239.415 282.416 239.55 281.281 239.775 280.751C239.942 280.357 239.624 280.426 239.35 280.844C239.19 281.088 239.08 281.792 239.007 283.037C238.899 284.874 238.948 285.351 239.241 285.351C239.337 285.351 239.402 284.78 239.407 283.869ZM240.683 283.654C240.742 283.135 240.888 282.571 241.008 282.401C241.151 282.196 241.225 281.687 241.225 280.907C241.225 279.807 241.094 279.474 240.828 279.903C240.477 280.471 240.122 284.878 240.444 284.679C240.517 284.634 240.624 284.173 240.683 283.654ZM238.241 282.728C238.185 281.954 238.117 281.296 238.09 281.265C238.062 281.233 237.926 281.252 237.786 281.305C237.565 281.39 237.546 281.562 237.641 282.653C237.762 284.037 237.794 284.135 238.118 284.135C238.308 284.135 238.327 283.913 238.241 282.728ZM241.891 283.659C241.943 283.398 241.986 283.022 241.986 282.823C241.986 282.624 242.026 282.462 242.074 282.462C242.215 282.462 242.596 282.884 242.596 283.041C242.596 283.12 242.698 283.27 242.824 283.374C243.017 283.534 243.067 283.49 243.147 283.089C243.2 282.828 243.297 282.614 243.364 282.614C243.528 282.614 243.928 280.803 244.052 279.496C244.108 278.911 244.25 278.278 244.368 278.09C244.635 277.663 244.38 277.639 243.966 278.052C243.741 278.277 243.661 278.559 243.661 279.136C243.661 279.962 243.087 282.31 242.885 282.31C242.625 282.31 242.557 281.912 242.584 280.558C242.604 279.633 242.553 279.108 242.439 279.038C242.084 278.819 241.934 279.298 241.88 280.82C241.848 281.678 241.758 282.447 241.677 282.528C241.493 282.711 241.481 284.135 241.661 284.135C241.735 284.135 241.838 283.921 241.89 283.66L241.891 283.659ZM205.797 283.64C205.842 283.452 205.926 282.7 205.984 281.968C206.072 280.861 206.047 280.574 205.837 280.253C205.698 280.04 205.525 279.903 205.453 279.947C205.297 280.044 205.067 283.418 205.194 283.75C205.328 284.099 205.705 284.03 205.797 283.64ZM162.357 283.592C162.357 283.33 161.629 282.31 161.441 282.31C161.377 282.31 161.505 282.651 161.726 283.069C162.134 283.839 162.357 284.024 162.357 283.592ZM204.203 282.835C204.3 282.622 204.379 282.057 204.378 281.58V280.713L204.073 281.169C203.695 281.736 203.433 282.653 203.558 282.978C203.697 283.341 204.003 283.274 204.204 282.835H204.203ZM244.879 281.673C244.879 281.249 244.979 280.93 245.179 280.718C245.409 280.473 245.511 280.053 245.616 278.911C245.691 278.092 245.83 277.345 245.925 277.25C246.02 277.156 246.097 277.024 246.097 276.957C246.097 276.731 245.819 276.832 245.348 277.229L244.879 277.622V279.273C244.879 280.209 244.813 280.964 244.727 281.017C244.643 281.069 244.575 281.381 244.575 281.71C244.575 282.04 244.643 282.31 244.727 282.31C244.811 282.31 244.879 282.023 244.879 281.673ZM167.047 281.423C167.659 280.299 168.504 278.871 168.683 278.66C168.872 278.436 170.008 276.211 170.468 275.162C170.912 274.15 171.188 273.128 171.183 272.512C171.179 271.921 171.167 271.906 170.938 272.197C170.806 272.364 170.596 272.74 170.471 273.033C170.346 273.326 169.633 274.81 168.887 276.33C167.599 278.954 166.468 281.62 166.468 282.03C166.468 282.289 166.72 282.025 167.047 281.423ZM202.704 281C202.704 280.635 202.247 280.771 202.09 281.182C201.876 281.746 202.083 281.979 202.424 281.557C202.579 281.367 202.704 281.116 202.704 281ZM246.131 281.435C246.583 280.917 246.747 280.418 246.865 279.203C246.931 278.528 247.097 277.54 247.233 277.007C247.37 276.474 247.446 276.003 247.403 275.959C247.217 275.774 246.859 276.303 246.859 276.762C246.859 277.035 246.728 277.694 246.567 278.226C246.407 278.757 246.227 279.5 246.168 279.877C246.109 280.253 245.967 280.746 245.851 280.972C245.487 281.681 245.662 281.971 246.131 281.435ZM161.483 281.211C161.397 281.104 161.277 280.788 161.217 280.507C161.157 280.226 160.984 279.713 160.833 279.366C160.585 278.796 159.831 275.705 159.214 272.729C159.085 272.102 158.882 271.488 158.764 271.366C158.579 271.174 158.55 271.305 158.55 272.323C158.55 273.612 158.842 275.244 159.32 276.63C159.489 277.119 159.725 277.989 159.845 278.562C160.064 279.607 160.6 280.708 161.167 281.273C161.486 281.592 161.748 281.54 161.483 281.211ZM162.881 280.828C162.995 280.36 163.888 277.933 164.881 275.39C165.241 274.47 165.585 273.586 165.647 273.426C165.869 272.846 165.415 273.352 164.399 274.818C163.026 276.798 162.696 277.498 162.493 278.864C162.241 280.559 162.558 282.163 162.881 280.828ZM203.371 280.466C203.423 280.204 203.466 279.557 203.466 279.026C203.466 278.263 203.41 278.033 203.199 277.922C202.956 277.794 202.929 277.902 202.893 279.171C202.87 279.935 202.885 280.646 202.928 280.751C203.059 281.091 203.275 280.952 203.373 280.466H203.371ZM201.045 280.392C201.01 280.234 200.99 279.206 200.997 278.108L201.009 276.112L200.539 275.675C200.28 275.435 200.121 275.329 200.185 275.441C200.249 275.552 200.29 276.499 200.277 277.544C200.257 279.012 200.312 279.599 200.511 280.122C200.761 280.775 201.169 280.981 201.045 280.392ZM202.117 278.639C202.196 277.901 202.178 277.447 202.06 277.23C201.888 276.915 201.885 276.916 201.777 277.291C201.718 277.5 201.662 278.215 201.654 278.88C201.634 280.417 201.945 280.255 202.117 278.639ZM248.488 279.686C248.735 279.416 248.821 279.056 248.896 277.976C248.948 277.223 249.034 276.213 249.086 275.732C249.152 275.121 249.128 274.858 249.005 274.858C248.737 274.858 248.533 275.549 248.533 276.459C248.533 276.911 248.436 277.574 248.316 277.932C248.019 278.825 247.856 280.029 248.033 280.029C248.111 280.029 248.317 279.875 248.488 279.686ZM159.768 279.805C159.768 279.766 159.634 279.495 159.47 279.203C159.306 278.91 159.114 278.451 159.044 278.182C158.974 277.912 158.838 277.666 158.741 277.634C158.615 277.592 158.605 277.696 158.702 278.003C159.149 279.394 159.37 279.877 159.557 279.877C159.672 279.877 159.767 279.845 159.767 279.805H159.768ZM165.42 277.662C165.703 277.196 166.13 276.563 166.369 276.255C166.608 275.947 167.509 274.282 168.369 272.555C169.588 270.11 170.006 269.106 170.257 268.019C170.622 266.433 170.664 264.809 170.356 264.137C170.147 263.682 170.146 263.684 170.133 264.517C170.101 266.358 169.156 269.152 167.272 272.957C165.993 275.54 165.8 276.009 165.929 276.218C165.984 276.306 165.956 276.379 165.869 276.379C165.782 276.379 165.469 276.858 165.173 277.443C164.533 278.714 164.694 278.856 165.42 277.662ZM199.355 277.082C199.355 275.487 199.241 274.706 199.008 274.706C198.904 274.706 198.891 275.225 198.968 276.265C199.032 277.122 199.084 277.977 199.083 278.166C199.083 278.354 199.144 278.508 199.219 278.508C199.294 278.508 199.355 277.866 199.355 277.082ZM250.666 277.136C250.938 276.292 250.994 275.843 250.934 275.001C250.849 273.814 250.778 273.663 250.44 273.943C250.254 274.097 250.208 274.532 250.208 276.169C250.208 277.288 250.236 278.204 250.265 278.204C250.297 278.204 250.477 277.723 250.666 277.136ZM161.593 273.787C161.812 270.184 162.946 264.791 163.67 263.908C163.774 263.783 163.934 263.481 164.026 263.237C164.119 262.994 164.569 262.16 165.027 261.383C165.484 260.607 165.859 259.939 165.859 259.899C165.859 259.774 164.987 260.253 164.797 260.482C164.359 261.008 163.177 263.535 162.552 265.277C161.394 268.509 161.145 270.079 161.142 274.186C161.142 276.117 161.19 277.749 161.253 277.812C161.316 277.876 161.384 277.562 161.404 277.115C161.424 276.668 161.509 275.171 161.593 273.787ZM251.676 277.671C251.724 277.546 251.859 277.443 251.976 277.443C252.356 277.443 252.819 276.857 252.669 276.565C252.594 276.421 252.488 275.926 252.433 275.466C252.146 273.076 252.029 272.674 251.713 272.99C251.595 273.108 251.597 273.621 251.721 274.805C251.817 275.712 251.924 276.557 251.961 276.683C251.996 276.808 251.965 277.012 251.887 277.135C251.766 277.327 251.732 277.321 251.645 277.097C251.59 276.953 251.491 276.835 251.425 276.835C251.238 276.835 251.105 277.305 251.204 277.617C251.312 277.958 251.554 277.986 251.675 277.672L251.676 277.671ZM197.676 277.205C197.595 276.991 197.528 275.943 197.528 274.877C197.528 273.495 197.469 272.859 197.323 272.66C197.14 272.41 197.108 272.467 197.02 273.201C196.966 273.652 196.921 274.652 196.92 275.422C196.92 276.754 196.94 276.842 197.336 277.209C197.851 277.686 197.859 277.686 197.676 277.205ZM164.105 274.174C165.502 272.341 166.457 270.493 166.282 269.966C166.25 269.87 165.752 270.435 165.176 271.222C164.601 272.009 163.831 272.995 163.467 273.413C162.773 274.21 162.355 275.265 162.358 276.216V276.759L162.767 276.075C162.992 275.698 163.593 274.843 164.103 274.174H164.105ZM251.226 276.35C251.177 276.229 251.141 276.265 251.134 276.442C251.126 276.602 251.161 276.692 251.214 276.642C251.264 276.591 251.27 276.46 251.226 276.35ZM253.514 274.212C253.541 272.244 253.525 272.087 253.33 272.501C253.107 272.973 253.003 276.078 253.203 276.277C253.445 276.519 253.484 276.262 253.514 274.212ZM254.691 275.797C254.778 275.524 255.07 272.135 255.077 271.322C255.081 270.849 254.721 270.746 254.547 271.17C254.366 271.612 254.278 276.075 254.451 276.075C254.534 276.075 254.643 275.95 254.691 275.797ZM196.132 275.113C196.112 275.014 196.152 274.235 196.216 273.381C196.318 272.025 196.298 271.769 196.061 271.366C195.91 271.112 195.743 270.904 195.689 270.904C195.549 270.904 195.399 272.309 195.397 273.646C195.397 274.441 195.469 274.894 195.635 275.131C195.872 275.468 196.197 275.457 196.132 275.113ZM256.368 273.033C256.313 272.087 256.357 271.768 256.604 271.282C256.771 270.955 256.908 270.471 256.908 270.205C256.908 269.836 256.986 269.702 257.244 269.635C257.674 269.523 257.732 269.59 257.529 269.968C257.439 270.136 257.407 270.381 257.457 270.513C257.516 270.666 257.465 270.752 257.316 270.752C257.077 270.752 257.075 271.258 257.304 273.147C257.448 274.337 257.668 273.815 257.668 272.28C257.668 271.236 257.727 270.729 257.858 270.645C257.963 270.579 258.161 270.197 258.298 269.797C258.546 269.073 258.546 269.07 258.222 269.158C257.945 269.233 257.962 269.191 258.33 268.879C258.577 268.67 258.741 268.397 258.711 268.247C258.669 268.038 258.375 268.214 257.326 269.073L255.993 270.165V271.105C255.993 271.622 255.952 272.729 255.903 273.565L255.814 275.086L256.125 274.637C256.39 274.255 256.426 274.018 256.368 273.033ZM163.107 273.223C163.298 272.685 164.782 270.397 165.154 270.068C165.76 269.531 166.187 268.553 166.27 267.509C166.318 266.909 166.324 266.452 166.282 266.494C166.206 266.57 164.626 269.523 164.207 270.372C164.083 270.623 163.729 271.136 163.421 271.512C162.865 272.192 162.508 272.973 162.508 273.512C162.508 274.003 162.897 273.816 163.107 273.223ZM194.32 272.704C194.424 272.356 194.547 271.689 194.593 271.221C194.639 270.754 194.738 270.252 194.813 270.106C194.952 269.836 194.74 269.231 194.507 269.231C194.443 269.231 194.373 269.517 194.352 269.866C194.302 270.723 193.901 272.588 193.721 272.805C193.628 272.918 193.64 273.043 193.757 273.158C194.04 273.442 194.119 273.378 194.321 272.704H194.32ZM259.093 271.703C259.031 271.389 258.972 271.064 258.963 270.98C258.955 270.896 258.892 270.71 258.825 270.566C258.725 270.347 258.671 270.337 258.502 270.506C258.333 270.675 258.334 270.808 258.51 271.301C258.626 271.626 258.724 272.035 258.728 272.209C258.732 272.384 258.782 272.574 258.84 272.632C259.047 272.839 259.204 272.265 259.093 271.703ZM160.529 269.763C160.685 269.094 160.857 268.307 160.912 268.015C161.064 267.211 161.538 265.694 162.217 263.841C162.985 261.745 162.967 261.203 162.17 262.388C161.86 262.848 161.428 263.701 161.21 264.283C160.375 266.509 159.607 270.9 159.85 272.059L159.975 272.653L160.111 271.816C160.185 271.356 160.374 270.433 160.529 269.763ZM193.318 268.371C193.274 268.191 193.081 267.895 192.887 267.714L192.536 267.384L192.513 269.334C192.501 270.407 192.45 271.44 192.403 271.631C192.341 271.878 192.418 272.068 192.676 272.291L193.036 272.603L193.216 270.651C193.315 269.577 193.361 268.551 193.318 268.371ZM163.187 269.944C163.33 269.29 163.41 268.658 163.364 268.539C163.318 268.42 163.484 267.639 163.732 266.804C164.263 265.02 164.286 264.803 163.886 265.31C163.41 265.914 162.966 267.205 162.965 267.982C162.965 268.376 162.86 269.202 162.732 269.817C162.603 270.432 162.543 271.076 162.598 271.249C162.738 271.688 162.869 271.397 163.187 269.944ZM191.784 270.284C191.852 269.914 191.887 268.72 191.862 267.631C191.823 265.84 191.786 265.616 191.487 265.295L191.155 264.939L191.21 267.884C191.241 269.503 191.269 270.885 191.275 270.955C191.279 271.024 191.37 271.053 191.473 271.019C191.577 270.984 191.717 270.654 191.784 270.284ZM159.689 267.277C159.608 266.542 159.544 266.349 159.455 266.57C159.3 266.957 159.277 269.334 159.42 270.011C159.517 270.465 159.545 270.395 159.665 269.406C159.739 268.792 159.749 267.834 159.689 267.277ZM168.063 267.925C168.309 266.983 168.341 265.165 168.151 262.996C168.088 262.285 168.027 261.789 168.014 261.894C167.967 262.268 167.686 262.075 167.681 261.665C167.677 261.321 167.65 261.292 167.528 261.501C167.43 261.669 167.435 261.901 167.548 262.186C167.66 262.478 167.682 263.691 167.617 265.962C167.518 269.428 167.59 269.747 168.065 267.925H168.063ZM189.915 268.077C189.915 267.581 189.257 267.282 189.179 267.742C189.124 268.071 189.575 268.663 189.783 268.534C189.855 268.49 189.915 268.284 189.915 268.077ZM165.458 267.064C165.664 266.709 165.967 265.973 166.131 265.429C166.429 264.448 166.72 262.54 166.573 262.54C166.466 262.54 165.489 265.151 165.178 266.266C165.038 266.768 164.889 267.298 164.848 267.444C164.705 267.947 165.085 267.71 165.458 267.064ZM189.001 267.113C189.001 267.035 188.916 266.878 188.811 266.764C188.707 266.65 188.548 266.427 188.458 266.268C188.368 266.11 188.219 265.955 188.127 265.924C187.842 265.829 188.096 266.459 188.506 266.87C188.926 267.289 189.001 267.326 189.001 267.113ZM169.308 263.182C169.277 262.399 169.171 261.681 169.076 261.587C168.948 261.458 168.904 261.498 168.904 261.74C168.904 261.919 168.973 262.109 169.058 262.161C169.144 262.214 169.173 262.322 169.124 262.401C169.075 262.48 168.976 262.508 168.903 262.464C168.749 262.368 168.704 265.99 168.856 266.236C169.071 266.584 169.367 264.584 169.308 263.182ZM190.158 265.156C190.212 264.88 190.213 264.612 190.162 264.56C190.11 264.509 190.068 264.618 190.068 264.805C190.068 264.992 190 265.101 189.916 265.049C189.832 264.997 189.763 264.832 189.763 264.68C189.763 264.529 189.626 264.232 189.459 264.019C189.291 263.806 189.154 263.524 189.154 263.39C189.154 263.257 189.098 263.148 189.029 263.148C188.832 263.148 189.006 265.297 189.253 265.886L189.476 266.418L189.768 266.038C189.929 265.829 190.104 265.432 190.158 265.156ZM164.879 263.433C165.132 262.945 165.168 262.478 164.942 262.617C164.858 262.67 164.824 262.772 164.869 262.844C164.913 262.916 164.881 263.018 164.795 263.071C164.71 263.123 164.64 263.316 164.638 263.499C164.638 263.74 164.599 263.776 164.507 263.63C164.404 263.468 164.359 263.478 164.281 263.68C164.002 264.407 164.476 264.21 164.879 263.433ZM165.554 261.856C165.554 261.73 165.527 261.627 165.494 261.627C165.463 261.627 165.395 261.73 165.347 261.856C165.298 261.981 165.327 262.084 165.407 262.084C165.488 262.084 165.554 261.981 165.554 261.856ZM168.142 258.662C168.142 258.216 167.9 258.179 167.377 258.546L167.001 258.81L167.457 258.908C167.709 258.962 167.965 259.014 168.028 259.024C168.091 259.034 168.142 258.871 168.142 258.662ZM220.277 257.734C220.409 257.683 220.479 257.58 220.432 257.505C220.296 257.285 219.506 257.349 219.3 257.597C219.139 257.792 219.18 257.826 219.574 257.826C219.828 257.826 220.145 257.784 220.277 257.734ZM217.86 257.511C218.012 257.265 217.856 257.192 217.416 257.302C217.198 257.357 217.057 257.463 217.103 257.538C217.219 257.726 217.738 257.708 217.86 257.511ZM168.918 256.893C169.21 256.483 169.23 256.374 169.06 256.102C168.939 255.91 168.921 255.767 169.013 255.736C169.437 255.595 169.734 255.254 169.575 255.093C169.374 254.888 168.761 255.089 168.45 255.465C168.274 255.676 168.271 255.776 168.434 256.035C168.609 256.316 168.58 256.389 168.157 256.719C167.637 257.126 167.66 257.369 168.218 257.369C168.449 257.369 168.701 257.198 168.918 256.893ZM216.56 257.217C216.56 257.134 216.465 257.065 216.35 257.065C216.235 257.065 216.055 256.962 215.951 256.837C215.846 256.712 215.54 256.609 215.27 256.609C214.987 256.609 214.672 256.49 214.525 256.328C214.279 256.056 214.292 256.052 214.92 256.225C215.277 256.324 215.763 256.485 215.999 256.583C216.528 256.803 218.082 256.819 218.082 256.605C218.082 256.426 217.561 256.208 216.644 256.002C216.294 255.924 215.806 255.755 215.56 255.627C215.314 255.499 214.976 255.391 214.809 255.388C214.641 255.384 214.23 255.25 213.895 255.088C213.56 254.926 213.209 254.792 213.116 254.789C213.021 254.785 211.96 254.402 210.755 253.935C209.551 253.469 208.395 253.031 208.186 252.963C207.976 252.894 207.291 252.617 206.663 252.346C204.914 251.591 203.913 251.264 203.161 251.202C202.784 251.171 202.091 251.013 201.62 250.85C201.149 250.688 200.361 250.473 199.869 250.372C198.783 250.15 198.285 249.916 199.05 249.988C199.78 250.057 201.583 250.498 202.219 250.764C202.507 250.884 202.819 250.979 202.913 250.975C203.103 250.966 202.466 250.706 198.746 249.267C195.03 247.83 193.551 247.274 191.438 246.518C183.544 243.693 181.777 243.054 180.704 242.632C178.806 241.887 176.821 241.724 176.821 242.313C176.821 242.504 176.774 242.485 180.399 243.772C181.99 244.337 183.874 245.069 184.586 245.4C185.762 245.945 186.947 246.42 187.134 246.42C187.174 246.42 187.169 246.319 187.122 246.196C187.004 245.89 187.264 245.763 187.755 245.886C188.153 245.985 188.156 245.994 187.863 246.208C187.326 246.601 187.785 246.894 190.228 247.719C191.522 248.156 193.163 248.734 193.875 249.003C198.2 250.639 199.956 251.286 200.072 251.286C200.144 251.286 201.845 251.909 203.852 252.669C211.109 255.42 212.681 256 212.873 256C212.981 256 213.232 255.894 213.431 255.764C213.696 255.59 213.821 255.575 213.901 255.705C213.962 255.803 213.921 255.938 213.811 256.006C213.494 256.202 213.904 256.583 214.558 256.701C214.864 256.756 215.183 256.854 215.266 256.919C215.35 256.984 215.658 257.106 215.951 257.19C216.245 257.273 216.502 257.348 216.522 257.355C216.542 257.363 216.561 257.301 216.561 257.217L216.56 257.217ZM197.794 249.665C197.899 249.623 198.07 249.623 198.175 249.665C198.28 249.707 198.195 249.741 197.985 249.741C197.775 249.741 197.69 249.707 197.794 249.665ZM195.929 249.157C195.876 249.071 196.007 249.005 196.234 249.005C196.461 249.005 196.592 249.071 196.538 249.157C196.486 249.241 196.349 249.309 196.234 249.309C196.118 249.309 195.981 249.241 195.929 249.157ZM222.726 257.077L223.031 256.958L222.726 256.863C222.559 256.811 222.189 256.751 221.904 256.731C221.55 256.705 221.362 256.604 221.313 256.415C221.255 256.192 221.115 256.146 220.613 256.183C219.82 256.241 219.725 256.66 220.489 256.733C220.766 256.76 221.03 256.88 221.076 256.999C221.168 257.237 222.192 257.285 222.726 257.077ZM225.007 256.461C225.058 256.38 224.907 256.274 224.673 256.225C224.44 256.177 224.02 256.024 223.74 255.885C223.213 255.625 222.377 255.604 222.136 255.845C222.052 255.929 222.171 256.02 222.438 256.075C222.68 256.125 223.05 256.259 223.259 256.373C223.704 256.616 224.875 256.675 225.007 256.461ZM227.522 255.855C227.522 255.776 227.265 255.671 226.951 255.622C226.637 255.574 226.186 255.434 225.949 255.311C225.457 255.057 224.96 255.028 224.632 255.235C224.464 255.342 224.569 255.403 225.048 255.48C225.401 255.536 225.768 255.676 225.863 255.791C226.061 256.029 227.522 256.086 227.522 255.855ZM229.852 255.316C229.836 255.233 229.614 255.122 229.361 255.07C229.107 255.018 228.71 254.851 228.478 254.699C228.048 254.417 227.258 254.378 227.01 254.626C226.929 254.707 227.116 254.807 227.464 254.87C227.789 254.928 228.181 255.108 228.335 255.269C228.542 255.484 228.78 255.549 229.249 255.514C229.597 255.489 229.869 255.4 229.852 255.316ZM232.435 254.804C232.627 254.613 232.593 254.602 231.667 254.564C231.19 254.544 230.954 254.448 230.783 254.204C230.544 253.863 229.911 253.761 229.529 254.003C229.392 254.09 229.545 254.191 230.016 254.323C230.395 254.429 230.816 254.638 230.952 254.788C231.226 255.091 232.138 255.101 232.435 254.804ZM234.386 254.48C234.547 254.48 234.678 254.418 234.678 254.343C234.678 254.155 233.806 253.865 233.543 253.966C233.424 254.012 233.228 253.891 233.095 253.689C232.899 253.39 232.759 253.34 232.247 253.389C231.576 253.453 231.553 253.719 232.22 253.719C232.46 253.719 232.858 253.909 233.163 254.17C233.453 254.418 233.781 254.589 233.892 254.55C234.004 254.512 234.227 254.48 234.388 254.48H234.386ZM169.97 253.872C169.97 253.523 169.393 253.444 169.086 253.75C168.78 254.056 168.879 254.176 169.437 254.176C169.868 254.176 169.97 254.118 169.97 253.872ZM237.08 253.707C237.116 253.521 237.026 253.481 236.688 253.53C236.432 253.568 236.159 253.504 236.032 253.377C235.668 253.014 235.18 252.807 234.688 252.807C234.084 252.807 234.094 252.981 234.715 253.253C234.988 253.372 235.293 253.585 235.395 253.726C235.646 254.075 237.012 254.06 237.08 253.707ZM239.36 253.472C239.907 253.325 239.759 253.16 238.988 253.055C238.268 252.956 237.907 253.097 238.096 253.402C238.207 253.583 238.819 253.616 239.36 253.472ZM172.846 252.229C174.063 250.972 174.234 250.726 174.22 250.258C174.209 249.895 174.168 249.934 173.897 250.564C173.726 250.961 173.508 251.286 173.413 251.286C173.319 251.286 173.048 251.518 172.812 251.801C172.511 252.161 172.208 252.344 171.801 252.408C170.953 252.544 170.803 253.111 171.616 253.111C171.877 253.111 172.258 252.838 172.846 252.229ZM237.495 252.67C237.579 252.662 237.647 252.569 237.647 252.465C237.647 252.336 237.452 252.292 237.038 252.328C236.286 252.393 236.198 252.47 236.565 252.738C236.748 252.871 236.94 252.9 237.097 252.816C237.232 252.744 237.411 252.678 237.495 252.67ZM241.453 252.718C240.325 251.877 239.965 251.723 239.36 251.825C238.832 251.914 238.784 251.955 238.978 252.148C239.099 252.27 239.443 252.382 239.74 252.398C240.037 252.414 240.245 252.486 240.201 252.558C240.068 252.775 240.503 252.955 241.149 252.95C241.724 252.946 241.741 252.933 241.453 252.718ZM244.328 252.193C244.402 252.124 244.196 252.02 243.872 251.961C243.118 251.825 243.047 251.781 243.151 251.509C243.201 251.379 243.437 251.285 243.716 251.284C244.673 251.28 245.199 250.985 244.635 250.769C244.349 250.659 243.204 250.971 243.204 251.158C243.204 251.229 242.902 251.286 242.532 251.286C241.288 251.286 240.945 251.643 242.033 251.806C242.408 251.862 242.802 252.037 242.954 252.214C243.163 252.458 243.323 252.502 243.707 252.421C243.975 252.365 244.254 252.262 244.328 252.193ZM171.472 251.047C171.754 250.468 172.044 249.891 172.117 249.765C172.586 248.956 172.834 248.348 172.767 248.174C172.724 248.062 172.755 247.931 172.836 247.881C173.056 247.745 173.138 248.093 173.09 248.971C173.055 249.641 172.953 249.872 172.422 250.506C171.754 251.303 171.65 251.654 172.037 251.802C172.431 251.953 172.558 251.91 172.558 251.624C172.558 251.476 172.652 251.219 172.768 251.054C173.681 249.749 173.839 248.809 173.332 247.695C173.176 247.351 172.995 246.837 172.931 246.554L172.814 246.04L172.62 246.724C172.513 247.1 172.052 248.332 171.596 249.461C170.551 252.047 170.486 252.254 170.753 252.168C170.866 252.131 171.19 251.627 171.472 251.047ZM170.4 250.529C171.191 249.142 171.716 247.824 171.863 246.862C171.93 246.414 171.916 246.382 171.754 246.627C171.652 246.782 171.326 247.227 171.031 247.615C170.403 248.439 169.406 250.412 169.268 251.102C169.163 251.624 169.283 252.112 169.485 251.987C169.555 251.944 169.967 251.288 170.4 250.529ZM246.572 251.661C247.162 251.474 246.828 251.285 245.942 251.305C245.024 251.326 244.657 251.511 245.05 251.754C245.258 251.882 246.021 251.836 246.572 251.661ZM248.637 251.081C248.826 250.893 248.472 250.678 247.974 250.678C247.498 250.678 247.442 250.639 247.516 250.358C247.595 250.056 247.559 250.044 246.887 250.145C246.095 250.263 245.945 250.325 245.945 250.535C245.945 250.614 246.258 250.678 246.639 250.678C247.063 250.678 247.297 250.737 247.239 250.83C247.046 251.142 247.358 251.321 247.957 251.24C248.288 251.196 248.594 251.124 248.637 251.081ZM168.822 250.564C168.878 250.334 169.23 249.538 169.604 248.795C169.978 248.052 170.247 247.407 170.202 247.362C170.067 247.227 169.208 248.277 169.208 248.576C169.208 248.728 169.074 248.987 168.91 249.151C168.581 249.479 168.297 250.982 168.563 250.982C168.648 250.982 168.765 250.794 168.822 250.564ZM250.905 250.522C251.131 250.436 251.272 250.321 251.217 250.266C251.06 250.11 249.608 250.084 249.514 250.237C249.257 250.651 250.105 250.825 250.905 250.522ZM253.31 249.912C253.382 249.845 253.186 249.719 252.873 249.633C252.56 249.547 252.184 249.368 252.038 249.235C251.839 249.056 251.611 249.021 251.133 249.097C250.438 249.208 250.471 249.409 251.198 249.488C251.54 249.525 251.667 249.625 251.704 249.887C251.751 250.212 251.804 250.23 252.466 250.135C252.857 250.08 253.237 249.979 253.31 249.912ZM249.569 249.781C249.625 249.613 249.492 249.586 248.921 249.65C247.836 249.772 247.628 250.1 248.674 250.04C249.212 250.01 249.524 249.92 249.569 249.781ZM255.841 249.443C255.841 249.391 255.527 249.261 255.143 249.153C254.758 249.046 254.408 248.866 254.365 248.753C254.273 248.514 252.949 248.465 252.949 248.701C252.949 248.785 253.083 248.853 253.246 248.853C253.411 248.853 253.787 249.017 254.083 249.218C254.454 249.47 254.811 249.576 255.231 249.56C255.566 249.548 255.84 249.495 255.841 249.443ZM257.13 249.299C257.074 249.21 257.122 249.15 257.235 249.165C257.644 249.221 257.973 249.154 257.973 249.015C257.973 248.735 257.374 248.688 256.992 248.938C256.594 249.198 256.599 249.461 257 249.461C257.125 249.461 257.183 249.388 257.128 249.299H257.13ZM168.703 248.825C168.655 248.703 168.618 248.739 168.611 248.916C168.604 249.077 168.639 249.167 168.691 249.116C168.742 249.065 168.748 248.934 168.703 248.825ZM260.232 248.617C260.288 248.557 260.24 248.474 260.128 248.434C260.015 248.394 259.688 248.155 259.4 247.903C258.928 247.489 258.808 247.454 258.171 247.541C257.783 247.594 257.427 247.675 257.381 247.721C257.213 247.889 257.761 248.088 258.395 248.09C259.022 248.094 259.041 248.107 258.943 248.496C258.844 248.893 258.851 248.898 259.486 248.813C259.84 248.765 260.176 248.677 260.232 248.617ZM257.171 248.489C257.21 248.451 257.03 248.31 256.773 248.178C256.191 247.877 254.967 248.001 255.242 248.332C255.469 248.605 256.935 248.724 257.171 248.489ZM169.056 248.397C169.056 248.313 169.025 248.245 168.989 248.245C168.95 248.245 168.879 248.313 168.827 248.397C168.776 248.48 168.804 248.549 168.895 248.549C168.983 248.549 169.056 248.48 169.056 248.397ZM262.493 248.073L262.922 247.901L262.394 247.756C262.104 247.676 261.709 247.44 261.516 247.232C261.225 246.919 261.079 246.872 260.673 246.959C260.402 247.017 260.044 247.139 259.877 247.232C259.614 247.376 259.69 247.417 260.434 247.533C261.085 247.634 261.314 247.737 261.371 247.956C261.457 248.285 261.86 248.327 262.493 248.073ZM169.407 246.818C170.14 246.03 170.399 245.659 170.215 245.659C169.86 245.659 168.747 247.048 168.756 247.48C168.76 247.667 168.791 247.66 168.917 247.445C169.002 247.297 169.223 247.016 169.407 246.818ZM264.593 247.498C264.879 247.386 264.876 247.37 264.517 247.185C264.31 247.078 263.988 246.852 263.803 246.684C263.542 246.446 263.341 246.398 262.903 246.469C262.021 246.612 261.949 246.837 262.746 246.957C263.24 247.03 263.471 247.146 263.536 247.349C263.631 247.649 264.053 247.708 264.593 247.498ZM266.842 246.931C267.156 246.879 267.413 246.787 267.413 246.727C267.413 246.667 267.156 246.507 266.842 246.372C266.528 246.237 266.158 246.043 266.019 245.94C265.819 245.794 265.628 245.797 265.106 245.956L264.444 246.157L264.967 246.337C265.254 246.435 265.562 246.631 265.651 246.772C265.828 247.051 265.984 247.072 266.842 246.931ZM269.304 246.327C269.712 246.171 269.575 246.011 268.862 245.812C268.487 245.707 268.217 245.562 268.263 245.488C268.356 245.338 267.363 245.312 266.842 245.451C266.247 245.611 266.471 245.812 267.243 245.812C267.858 245.812 268 245.864 268.066 246.116C268.148 246.426 268.769 246.532 269.304 246.327ZM271.562 245.712C271.814 245.557 271.645 245.347 271.029 245.049C270.545 244.814 270.231 244.76 269.781 244.836L269.181 244.936L269.591 245.234C269.817 245.398 270.001 245.637 270.001 245.765C270.001 245.957 270.13 245.979 270.725 245.89C271.123 245.831 271.499 245.75 271.562 245.712ZM273.881 245.216C274.172 245.103 274.171 245.093 273.837 244.915C273.647 244.813 273.357 244.773 273.193 244.825C272.981 244.892 272.894 244.849 272.894 244.676C272.894 244.371 272.388 244.176 271.813 244.261C271.256 244.342 271.245 244.531 271.789 244.641C272.019 244.687 272.345 244.862 272.512 245.031C272.828 245.348 273.357 245.42 273.879 245.216H273.881ZM275.928 244.533C276.069 244.363 276.038 244.27 275.777 244.088C275.596 243.961 275.353 243.894 275.237 243.938C275.121 243.983 275.026 243.938 275.026 243.841C275.026 243.644 274.063 243.677 273.993 243.876C273.969 243.941 274.073 244.161 274.222 244.366C274.432 244.654 274.634 244.739 275.122 244.742C275.482 244.746 275.826 244.656 275.928 244.533ZM278.295 244.347C278.516 244.263 278.507 244.212 278.22 243.907C277.823 243.485 277.981 243.354 278.938 243.316C279.527 243.293 279.644 243.338 279.758 243.638C279.899 244.009 280.283 244.086 280.659 243.821C280.851 243.685 280.854 243.646 280.675 243.575C280.558 243.528 280.254 243.291 279.999 243.048C279.623 242.689 279.45 242.624 279.07 242.7C278.814 242.752 278.428 242.918 278.213 243.07C277.969 243.243 277.67 243.318 277.416 243.269C276.92 243.175 276.244 243.329 276.244 243.537C276.244 243.621 276.421 243.757 276.636 243.839C276.852 243.921 277.131 244.09 277.256 244.215C277.497 244.456 277.883 244.505 278.295 244.347ZM174.161 243.677C174.667 243.119 174 242.872 173.159 243.306C172.626 243.581 172.572 243.944 173.053 244.019C173.547 244.096 173.873 243.995 174.161 243.677ZM282.922 243.145C282.953 243.116 282.827 242.882 282.645 242.627C282.391 242.271 282.2 242.163 281.829 242.169C281.309 242.176 280.244 242.584 280.689 242.606C280.831 242.612 281.139 242.79 281.374 242.999C281.72 243.308 281.903 243.363 282.334 243.29C282.627 243.24 282.892 243.175 282.922 243.145ZM285.379 242.482C285.379 242.288 284.432 241.553 284.184 241.554C283.673 241.554 282.786 241.878 282.879 242.028C282.931 242.113 283.288 242.164 283.671 242.14C284.177 242.109 284.388 242.158 284.44 242.32C284.479 242.442 284.578 242.585 284.658 242.637C284.828 242.748 285.379 242.63 285.379 242.482ZM174.886 241.938C175.12 241.817 175.546 241.673 175.832 241.619C176.174 241.555 176.486 241.347 176.743 241.01C177.071 240.581 177.204 240.512 177.568 240.585C178.238 240.719 179.018 240.228 178.846 239.78C178.718 239.448 178.092 239.545 177.083 240.055C176.283 240.459 176.183 240.551 176.44 240.651C176.608 240.716 176.299 240.734 175.755 240.69C174.78 240.612 174.758 240.618 174.251 241.148C173.459 241.974 173.861 242.473 174.886 241.938ZM287.196 241.867C287.375 241.754 287.38 241.686 287.22 241.496C287.114 241.367 287.06 241.208 287.101 241.142C287.143 241.075 286.76 241.055 286.251 241.097C285.653 241.146 285.301 241.247 285.256 241.383C285.204 241.542 285.307 241.576 285.677 241.522C286.041 241.468 286.212 241.522 286.342 241.73C286.532 242.034 286.85 242.085 287.195 241.867H287.196ZM289.439 240.879C289.451 240.809 289.556 240.693 289.668 240.622C289.968 240.432 288.531 240.456 288.021 240.65C287.683 240.778 287.643 240.838 287.821 240.949C288.09 241.116 289.404 241.06 289.439 240.879ZM173.319 240.814C173.319 240.697 171.759 240.158 168.752 239.236C168.207 239.07 167.643 238.873 167.497 238.799C167.352 238.725 167.067 238.664 166.863 238.664C166.659 238.664 166.466 238.585 166.434 238.488C166.394 238.367 166.292 238.358 166.115 238.457C165.913 238.569 166.377 238.784 168.179 239.41C172.224 240.817 173.319 241.116 173.319 240.814ZM291.676 240.395C292.275 240.26 293.586 239.946 294.591 239.696C295.596 239.447 296.739 239.186 297.132 239.116C297.525 239.046 298.21 238.882 298.655 238.751C299.099 238.62 300.217 238.344 301.138 238.137C302.059 237.931 303.087 237.692 303.422 237.607C303.756 237.522 304.219 237.416 304.449 237.371C304.697 237.323 304.868 237.19 304.868 237.047C304.868 236.869 304.776 236.828 304.526 236.894C304.337 236.944 303.6 237.114 302.887 237.272C302.173 237.43 300.735 237.771 299.689 238.03C298.644 238.288 297.172 238.642 296.418 238.815C295.664 238.988 294.26 239.327 293.297 239.567C292.334 239.807 291.237 240.053 290.861 240.112C290.058 240.238 289.911 240.307 290.03 240.499C290.151 240.695 290.423 240.678 291.676 240.395ZM173.712 240.053C173.608 239.884 171.791 239.167 169.284 238.305C168.196 237.931 166.723 237.407 166.011 237.142C165.299 236.877 164.545 236.603 164.336 236.534C164.126 236.464 163.065 236.09 161.976 235.702C160.887 235.314 159.757 234.929 159.464 234.845C159.171 234.762 158.725 234.594 158.474 234.473C157.477 233.99 154.515 232.885 154.218 232.885C154.043 232.885 153.642 232.709 153.326 232.494C152.892 232.2 152.64 232.128 152.306 232.201C152.062 232.255 151.74 232.222 151.59 232.129C151.369 231.991 151.418 231.976 151.851 232.045L152.384 232.131L151.775 231.829C150.701 231.296 142.733 228.446 141.828 228.271C141.47 228.202 141.339 228.227 141.381 228.353C141.412 228.452 142.807 228.974 144.476 229.513C146.146 230.051 148.248 230.757 149.148 231.08C150.047 231.404 150.887 231.668 151.013 231.668C151.139 231.668 151.242 231.73 151.242 231.806C151.242 231.882 151.122 231.921 150.976 231.892C149.833 231.668 149.75 231.675 149.829 231.978C149.889 232.206 149.992 232.252 150.282 232.18C150.62 232.095 150.907 232.176 151.735 232.599C151.88 232.673 152.206 232.733 152.458 232.733C152.71 232.733 152.917 232.787 152.917 232.854C152.917 232.92 153.174 233.049 153.488 233.14C154.095 233.316 158.434 234.887 161.215 235.938C164 236.991 170.71 239.261 172.016 239.592C172.691 239.763 173.308 239.966 173.388 240.044C173.57 240.222 173.821 240.229 173.712 240.053ZM181.903 239.695C182.155 239.293 181.826 239.061 181.176 239.183C180.59 239.293 180.114 239.665 180.259 239.901C180.414 240.151 181.719 239.987 181.903 239.695ZM185.552 239.276C185.623 239.208 185.655 239.025 185.623 238.87C185.576 238.636 185.45 238.596 184.886 238.637C184.512 238.665 184.006 238.784 183.763 238.904C183.52 239.023 183.229 239.12 183.116 239.12C183.003 239.12 182.911 239.184 182.911 239.263C182.911 239.561 185.243 239.573 185.552 239.276ZM188.636 238.955C189.151 238.762 189.982 237.831 189.841 237.603C189.788 237.518 189.51 237.447 189.222 237.447C188.837 237.447 188.596 237.564 188.305 237.889C187.91 238.332 187.327 238.604 187.327 238.346C187.327 238.27 187.19 238.208 187.022 238.208C186.632 238.208 186.638 238.332 187.049 238.768C187.41 239.152 187.942 239.215 188.636 238.955ZM191.938 238.405C192.445 238.223 192.692 238.041 192.751 237.804C192.953 237.002 192.245 236.917 191.313 237.632C190.666 238.129 190.524 238.425 190.866 238.563C191.161 238.682 191.165 238.681 191.938 238.405ZM165.665 238.268C165.615 238.217 165.483 238.212 165.373 238.256C165.252 238.304 165.288 238.34 165.465 238.348C165.626 238.354 165.716 238.319 165.665 238.268ZM163.879 237.675C163.775 237.55 163.51 237.453 163.289 237.459C162.917 237.47 162.926 237.485 163.422 237.675C164.113 237.941 164.1 237.941 163.879 237.675ZM194.579 237.675C194.819 237.551 195.139 237.448 195.291 237.447C195.442 237.447 195.864 237.372 196.227 237.28C196.741 237.151 196.904 237.032 196.959 236.748C196.998 236.547 196.951 236.275 196.855 236.144C196.462 235.608 193.455 237.197 193.802 237.758C193.925 237.956 194.071 237.94 194.579 237.675ZM161.9 236.99C161.602 236.798 161.4 236.798 161.519 236.99C161.571 237.074 161.729 237.141 161.871 237.14C162.093 237.136 162.097 237.117 161.898 236.99H161.9ZM200.079 236.629C200.543 236.389 200.772 235.921 200.619 235.523C200.558 235.364 200.4 235.328 200.059 235.395C199.307 235.543 198.775 235.783 198.685 236.016C198.64 236.133 198.507 236.23 198.389 236.23C198.1 236.23 197.781 236.633 197.908 236.838C198.048 237.064 199.507 236.924 200.079 236.629ZM202.781 236.251C203.295 236.129 203.498 235.573 203.085 235.414C202.789 235.301 201.946 235.632 201.664 235.971C201.392 236.299 201.59 236.586 201.998 236.46C202.177 236.404 202.529 236.31 202.781 236.251ZM205.577 235.859C206.11 235.745 206.654 235.544 206.786 235.412C207.005 235.193 206.995 235.138 206.666 234.788C206.45 234.559 206.138 234.405 205.887 234.405C205.227 234.405 204.059 235.531 204.305 235.929C204.418 236.112 204.392 236.113 205.577 235.859ZM158.703 235.748C158.493 235.661 158.195 235.524 158.039 235.443C157.836 235.336 157.787 235.344 157.865 235.469C157.99 235.671 158.524 235.907 158.855 235.906C158.98 235.905 158.912 235.834 158.703 235.748ZM157.231 235.307C157.141 235.218 156.837 235.109 156.553 235.065C155.616 234.919 156.146 235.186 157.325 235.454C157.364 235.463 157.321 235.397 157.231 235.307ZM209.673 234.993C210.358 234.702 210.62 234.343 210.346 234.068C209.993 233.716 207.881 234.589 207.881 235.087C207.881 235.524 208.5 235.492 209.673 234.993ZM212.061 234.388C212.14 234.314 212.457 234.253 212.765 234.253C213.391 234.253 213.724 233.97 213.57 233.57C213.483 233.344 213.341 233.318 212.616 233.4C211.711 233.502 211.231 233.86 211.231 234.432C211.231 234.67 211.3 234.709 211.573 234.626C211.762 234.569 211.981 234.462 212.061 234.388ZM216.999 233.421C217.116 233.305 217.166 233.096 217.111 232.953C217.028 232.736 216.886 232.71 216.246 232.795C215.122 232.944 214.733 233.128 214.733 233.51C214.733 233.825 214.776 233.834 215.76 233.734C216.326 233.677 216.883 233.536 216.999 233.421ZM224.429 233.32C224.665 233.225 225.043 233.157 225.27 233.17C225.767 233.197 225.931 232.932 226.057 231.896C226.165 231.007 226.002 230.122 225.712 230.026C225.548 229.971 225.529 230.166 225.614 231.014C225.715 232.012 225.698 232.097 225.314 232.553C224.97 232.961 224.802 233.036 224.238 233.036C223.48 233.036 223.444 232.972 223.374 231.527C223.347 230.986 223.262 230.679 223.123 230.633C222.959 230.579 222.937 230.662 223.026 231.001C223.088 231.242 223.173 231.85 223.214 232.352C223.309 233.503 223.533 233.681 224.429 233.32ZM219.203 233.244C219.811 233.16 219.91 233.098 219.91 232.796C219.91 232.604 219.841 232.404 219.757 232.352C219.674 232.3 219.602 231.937 219.599 231.545L219.591 230.831L219.357 231.262C219.229 231.499 219.162 231.794 219.21 231.918C219.277 232.093 219.187 232.132 218.811 232.095C218.422 232.057 218.282 232.125 218.102 232.442C217.856 232.875 217.949 233.34 218.283 233.34C218.4 233.34 218.813 233.297 219.201 233.244H219.203ZM228.908 233.01C229.63 232.76 229.796 232.48 229.801 231.495C229.805 230.755 229.85 230.627 230.126 230.555C230.506 230.456 230.372 230.147 229.949 230.147C229.7 230.147 229.654 230.255 229.654 230.836C229.654 231.852 229.308 232.58 228.824 232.58C228.446 232.58 228.435 232.552 228.414 231.478L228.395 230.375L228.292 231.37C228.172 232.544 228.108 232.672 227.603 232.769C227.227 232.841 227.22 232.823 227.217 231.913C227.217 231.401 227.149 230.881 227.068 230.755C226.964 230.596 226.919 230.857 226.918 231.617C226.918 232.217 226.874 232.815 226.823 232.948C226.746 233.149 226.866 233.188 227.561 233.188C228.018 233.188 228.625 233.108 228.91 233.01H228.908ZM230.933 232.694C231.227 232.238 231.307 231.336 231.062 231.252C230.954 231.215 230.872 231.309 230.872 231.471C230.872 231.627 230.744 232.007 230.587 232.314C230.43 232.621 230.338 232.909 230.384 232.954C230.543 233.114 230.715 233.032 230.933 232.694ZM222.296 232.542C222.362 232.437 222.418 231.894 222.419 231.334L222.423 230.315L221.885 230.104C221.503 229.954 221.248 229.936 221.01 230.043C220.52 230.261 220.596 230.459 221.129 230.352C221.777 230.223 222.031 230.493 221.983 231.26C221.96 231.61 221.89 232.084 221.824 232.314C221.731 232.641 221.756 232.732 221.941 232.732C222.071 232.732 222.231 232.647 222.298 232.542H222.296ZM221.002 231.934C220.92 231.023 220.671 230.837 220.671 231.688C220.671 232.337 220.751 232.58 220.967 232.58C221.017 232.58 221.033 232.289 221.002 231.934ZM224.874 231.224C224.791 230.697 224.528 230.401 224.28 230.555C224.146 230.637 224.272 231.913 224.439 232.185C224.619 232.477 224.954 231.737 224.874 231.224ZM148.806 231.439C148.702 231.314 148.522 231.211 148.407 231.211C148.291 231.211 148.197 231.314 148.197 231.439C148.197 231.584 148.343 231.668 148.596 231.668C148.934 231.668 148.966 231.632 148.806 231.439ZM224.096 229.691C224.045 229.607 223.904 229.538 223.783 229.538C223.662 229.538 223.564 229.607 223.564 229.691C223.564 229.774 223.705 229.843 223.877 229.843C224.049 229.843 224.148 229.774 224.096 229.691ZM225.543 229.615C225.332 229.361 224.847 229.31 224.712 229.527C224.624 229.669 224.929 229.793 225.447 229.825C225.684 229.84 225.7 229.804 225.543 229.615ZM223.107 229.234C223.107 229.151 222.966 229.082 222.793 229.082C222.621 229.082 222.522 229.151 222.574 229.234C222.626 229.318 222.767 229.386 222.887 229.386C223.008 229.386 223.107 229.318 223.107 229.234ZM226.837 229.234C226.785 229.151 226.61 229.082 226.448 229.082C226.285 229.082 226.152 229.151 226.152 229.234C226.152 229.318 226.327 229.386 226.542 229.386C226.762 229.386 226.89 229.321 226.837 229.234ZM166.963 314.233C166.496 313.712 165.645 312.197 165.503 311.63C165.434 311.354 165.523 311.137 165.863 310.767C166.112 310.495 166.315 310.174 166.315 310.053C166.315 309.662 166.579 309.822 166.767 310.329C166.868 310.601 167.079 311.131 167.235 311.507C167.391 311.884 167.562 312.415 167.614 312.687C167.667 312.96 167.849 313.257 168.019 313.348C168.265 313.479 168.308 313.608 168.232 313.985C168.064 314.824 167.579 314.919 166.963 314.233ZM166.772 312.049C166.772 311.353 166.549 311.247 166.309 311.828C166.147 312.218 166.15 312.318 166.328 312.432C166.691 312.661 166.772 312.592 166.772 312.049ZM163.761 312.304C163.546 311.722 163.096 309.191 163 308.025C162.913 306.958 163.159 306.806 163.335 307.818C163.39 308.133 163.644 309.094 163.901 309.955C164.23 311.057 164.339 311.673 164.27 312.04C164.142 312.722 163.952 312.821 163.761 312.304Z" fill="currentcolor"/>

</svg>
