<svg  viewBox="0 0 1180 580" fill="currentcolor" xmlns="http://www.w3.org/2000/svg">
<path d="M242.232 328.606C242.736 328.606 244.247 328.722 245.589 328.865C248.521 329.176 253.628 329.091 256.12 328.69C257.009 328.547 258.807 328.287 260.114 328.113C261.421 327.938 262.929 327.659 263.465 327.492C264.629 327.13 265.995 326.364 265.802 326.181C265.368 325.768 261.046 323.736 259.65 323.29C258.745 323 257.707 322.57 257.345 322.335C256.667 321.897 256.467 321.569 256.969 321.722C257.125 321.769 258.126 321.994 259.193 322.223C260.261 322.451 262.072 322.858 263.218 323.127C265.717 323.713 273.27 324.857 275.533 324.993C277.285 325.097 281.698 324.842 283.016 324.56C284.438 324.255 284.737 323.506 283.702 322.841C282.59 322.126 282.409 321.962 282.409 321.67C282.409 320.747 284.274 320.718 287.872 321.585C290.324 322.175 295.758 323.106 298.732 323.445C301.387 323.747 303.602 323.364 305.254 322.317C306.089 321.788 307 320.662 307 320.158C307 319.813 306.793 319.816 305.058 320.193C304.094 320.402 300.709 320.405 299.428 320.197C298.233 320.003 296.047 319.178 295.617 318.757C295.432 318.576 295.355 318.346 295.415 318.156C295.469 317.986 296.441 317.232 297.576 316.48C300.317 314.663 302.308 312.766 302.308 311.97C302.308 311.68 301.547 311.783 300.447 312.222C299.057 312.778 298.153 312.873 295.521 312.74C293.008 312.612 290.711 312.244 290.382 311.916C290.054 311.588 289.929 309.054 290.16 307.423C290.411 305.656 291.066 303.226 291.594 302.105C292.149 300.928 293.556 299.548 294.866 298.897L295.918 298.374L295.998 292.55C296.056 288.421 296.028 286.684 295.901 286.579C295.795 286.491 295.411 286.49 294.948 286.575C293.702 286.808 293.438 286.627 292.16 284.676C290.448 282.061 289.96 280.951 289.442 278.493C288.942 276.117 288.849 274.473 289.114 272.702C289.39 270.861 290.267 268.066 290.987 266.739L291.46 265.867L289.887 265.972C285.853 266.242 282.836 266.39 281.317 266.391H279.659V263.806H280.251C280.992 263.806 285.268 264.551 286.424 264.882C287.41 265.164 287.985 265.076 288.237 264.606C288.471 264.169 288.344 263.831 287.529 262.72C286.627 261.492 285.263 259.221 284.718 258.042C283.832 256.124 284.27 253.915 285.876 252.2C287.098 250.895 286.741 250.42 284.782 250.748C283.53 250.958 280.29 251.363 279.867 251.363C279.522 251.363 279.497 251.296 279.497 250.394V249.424L280.265 249.428C280.688 249.432 281.507 249.544 282.085 249.682C282.664 249.819 283.423 249.972 283.772 250.021L284.407 250.111L284.048 249.566C283.851 249.266 283.347 248.367 282.929 247.567C282.179 246.132 282.169 246.091 282.168 244.577C282.168 243.24 282.223 242.92 282.609 242.098C282.852 241.579 283.425 240.685 283.882 240.112C284.339 239.538 284.666 239.021 284.608 238.963C284.55 238.906 283.868 239.065 283.092 239.319C281.399 239.872 279.526 240.369 279.125 240.373C278.871 240.377 278.84 240.249 278.882 239.372C278.928 238.426 278.964 238.345 279.497 237.986C279.966 237.67 280.188 237.622 280.791 237.706C281.191 237.763 282.086 237.846 282.779 237.893L284.04 237.977L284.693 237.324C285.417 236.602 285.398 236.258 284.645 236.423C284.188 236.524 284.164 236.504 284.215 236.069C284.262 235.668 284.219 235.612 283.865 235.629C283.642 235.64 283.22 235.749 282.926 235.87C282.439 236.071 282.334 236.058 281.761 235.729C280.946 235.26 280.52 235.272 279.766 235.784C279.002 236.303 278.688 236.206 278.688 235.453C278.688 234.908 278.662 234.882 278.122 234.882H277.555V240.502L277.03 240.592C276.74 240.642 276.166 240.73 275.753 240.787C274.893 240.907 274.615 241.072 273.085 242.367C272.056 243.238 270.714 243.976 267.581 245.393L266.584 245.843L265.983 244.119C265.293 242.142 265.209 241.888 261.064 229.307C259.366 224.152 257.922 219.849 257.855 219.745C257.763 219.601 256.859 219.629 254.095 219.862C252.094 220.031 249.711 220.171 248.799 220.173L247.141 220.177V219.615C247.141 219.099 247.211 219.016 247.982 218.626C248.445 218.392 249.1 218.017 249.437 217.794C250.271 217.243 251.254 217.346 252.296 218.094C253.356 218.853 254.051 218.818 255.551 217.928C256.746 217.219 257.227 216.614 256.875 216.262C256.73 216.117 256.559 216.118 256.148 216.267C255.853 216.374 255.533 216.461 255.438 216.461C255.139 216.461 255.084 216.035 255.323 215.574C255.814 214.629 255.463 214.321 254.48 214.833C253.78 215.197 253.168 215.117 251.96 214.504C251.116 214.075 250.717 214.118 249.478 214.775C248.516 215.284 248.339 215.329 247.939 215.164C247.691 215.061 247.362 214.838 247.208 214.669C247.055 214.499 246.722 214.36 246.469 214.36H246.008V220.347L245.593 220.505C245.365 220.591 244.546 220.665 243.773 220.669C241.529 220.681 240.711 221.129 238.839 223.376C237.4 225.103 236.668 226.294 235.889 228.176L235.221 229.792L230.987 233.145C228.659 234.989 226.691 236.498 226.615 236.498C226.539 236.498 226.255 236.043 225.984 235.488C224.176 231.787 224.541 228.619 227.232 224.636C227.741 223.882 228.038 223.286 227.98 223.135C227.856 222.814 227.09 222.883 223.521 223.536C222.053 223.805 220.396 224.092 219.84 224.174L218.829 224.323V223.175C218.829 221.891 219.001 221.529 219.859 220.999C220.742 220.453 221.649 220.545 222.915 221.309C223.506 221.664 224.113 221.955 224.265 221.955C224.68 221.955 225.476 221.287 226.239 220.3C227.195 219.062 227.146 218.591 226.118 219.123C225.708 219.334 225.633 219.333 225.448 219.11C225.27 218.896 225.33 218.772 225.844 218.288C226.905 217.288 226.258 217.036 224.876 217.911C224.452 218.18 223.954 218.4 223.77 218.4C223.586 218.4 223.045 218.137 222.568 217.816C221.405 217.034 220.719 216.955 219.719 217.487C218.883 217.931 218.667 217.917 218.667 217.421C218.667 217.152 218.551 217.107 217.862 217.107H217.056L216.969 224.298L214.269 224.405C210.48 224.555 209.756 224.809 208.116 226.56C207.375 227.352 206.389 229.502 206.084 230.989L205.806 232.349L190.401 246.177C181.928 253.783 174.939 260.017 174.87 260.031C174.801 260.045 173.616 258.835 172.236 257.342C170.857 255.849 169.692 254.623 169.648 254.618C169.603 254.613 169.319 254.821 169.016 255.079L168.466 255.549L170.412 257.86C171.483 259.131 176.226 264.752 180.952 270.351L189.545 280.531V281.42C189.545 282.156 189.181 285.437 188.825 287.9C188.746 288.451 188.776 288.498 189.382 288.771C189.734 288.929 190.127 289.176 190.254 289.319C190.491 289.584 191.168 291.67 191.493 293.135C191.775 294.406 192.297 298.495 192.297 299.439V300.295L191.363 300.21C187.626 299.872 184.269 302.789 184.081 306.539C184.003 308.105 184.195 308.728 184.758 308.728C185.056 308.728 185.247 308.56 185.531 308.046C186.034 307.135 186.478 306.926 187.767 306.991C189.746 307.091 191.892 308.521 192.293 310.006C192.701 311.521 191.709 313.11 189.803 313.995C186.909 315.338 183.836 314.558 181.285 311.833C179.789 310.234 179.192 309.022 179.192 307.577C179.192 305.67 180.113 303.917 181.819 302.576C182.287 302.208 182.695 301.841 182.725 301.762C182.825 301.494 182.077 301.616 180.604 302.109C177.631 303.104 176.103 304.143 171.107 308.567C169.751 309.766 168.204 311.055 167.667 311.43C166.444 312.285 163.718 319.165 170.75 325.671C173.381 328.479 175.169 329.702 177.979 330.618C180.488 331.436 184.549 331.93 187.162 331.734L188.579 331.627L187.759 330.762C186.242 329.16 185.658 327.069 186.204 325.194C186.807 323.124 189.126 321.542 192.12 321.161C194.139 320.904 198.998 321.412 206.271 322.641C211.578 323.538 214.06 324.298 216.195 325.68C217.056 326.238 218.99 328.135 218.99 328.422C218.99 328.574 221.857 328.87 225.623 329.107C228.819 329.308 233.227 329.194 235.897 328.842C236.875 328.712 237.767 328.606 237.878 328.605L242.232 328.606ZM175.478 324.004C174.788 323.647 174.34 322.989 174.34 322.334C174.34 321.863 174.469 321.64 175.068 321.084C175.468 320.711 175.796 320.361 175.796 320.305C175.796 320.249 175.413 320.203 174.946 320.203C173.891 320.203 173.254 319.838 172.568 318.841C171.383 317.121 171.113 315.634 171.758 314.373C172.142 313.62 172.629 313.093 172.94 313.093C173.061 313.093 173.658 313.533 174.268 314.071C175.54 315.193 177.417 316.378 178.374 316.664C178.878 316.815 179.177 316.817 179.657 316.674C180.585 316.396 181.269 316.445 181.809 316.829C182.572 317.372 183.656 317.618 185.285 317.618C186.117 317.618 186.797 317.679 186.797 317.754C186.797 318.135 185.985 318.489 183.982 318.984C181.516 319.594 180.845 319.924 178.802 321.535C177.779 322.341 177.314 322.834 177.01 323.433C176.561 324.318 176.286 324.421 175.478 324.004ZM210.093 317.857C204.799 317.086 205.207 317.191 203.761 316.229C203.038 315.749 202.278 315.356 202.073 315.356C201.857 315.356 201.321 315.686 200.806 316.136C199.981 316.857 199.06 317.295 198.366 317.295C198.049 317.295 195.594 316.105 195.211 315.766C195.076 315.647 194.694 315.437 194.36 315.299C194.026 315.161 193.753 314.977 193.753 314.89C193.753 314.803 194.406 314.387 195.204 313.967C196.809 313.122 197.574 312.455 197.414 312.04C197.292 311.72 196.604 311.828 195.631 312.32C194.912 312.684 194.921 312.806 195.541 311.074C196.085 309.551 195.736 307.981 194.617 306.921C193.883 306.225 192.34 305.533 190.64 305.138C189.772 304.936 189.086 304.699 189.114 304.61C189.142 304.521 189.655 304.198 190.252 303.892C191.198 303.408 191.53 303.326 192.802 303.265C194.56 303.182 195.695 303.445 198.001 304.472C200.207 305.455 200.487 305.436 203.434 304.103C208.541 301.793 209.256 301.593 209.941 302.277C210.372 302.707 210.287 302.929 209.556 303.278C209.228 303.434 208.961 303.631 208.961 303.715C208.961 303.922 210.251 304.478 211.453 304.787C213.581 305.336 216.122 307.112 216.748 308.487C217.154 309.381 217.14 310.512 216.714 311.052C216.53 311.286 216.3 311.477 216.205 311.477C216.109 311.477 215.456 311.11 214.755 310.66C212.244 309.051 208.631 307.761 206.637 307.761C205.279 307.761 204.905 307.982 205.195 308.614C205.364 308.982 208.648 310.88 210.497 311.677C213.27 312.873 220.926 315.423 222.883 315.803C223.678 315.957 224.329 316.162 224.329 316.26C224.333 316.814 222.898 317.456 221.659 317.456C219.993 317.456 216.443 316.53 214.155 315.498C213.065 315.007 212.52 314.912 212.52 315.215C212.52 315.589 213.201 316.482 213.741 316.815C214.29 317.154 214.594 317.757 214.386 318.093C214.22 318.362 213.147 318.303 210.093 317.857ZM232.403 309.794C229.428 309.046 228.118 308.951 225.519 309.295C223.789 309.523 223.206 309.54 222.216 309.39C220.535 309.134 219.535 308.776 219.155 308.292C218.613 307.605 218.722 307.438 219.713 307.438C220.903 307.438 227.954 306.668 228.773 306.449C229.132 306.352 229.7 306.142 230.036 305.98L230.646 305.686L231.492 306.262C233.377 307.544 235.772 308.33 238.348 308.51C240.042 308.629 240.082 308.721 238.776 309.486C237.019 310.514 235.548 310.585 232.403 309.794ZM244.353 307.165C243.794 306.89 243.386 306.115 243.451 305.452C243.524 304.699 244.032 304.492 245.523 304.606C249.053 304.876 250.263 304.879 252.888 304.621C256.02 304.312 259.917 303.725 262.226 303.212C263.751 302.874 263.814 302.872 264.127 303.155C264.567 303.553 264.538 304.23 264.063 304.676C263.546 305.161 260.36 306.225 258.455 306.549C254.378 307.242 252.426 307.41 248.597 307.397C245.757 307.387 244.683 307.328 244.353 307.165ZM270.437 302.267C270.038 301.869 270.006 300.941 270.38 300.63C270.686 300.376 276.152 300.101 284.71 299.908C289.366 299.803 289.851 299.817 289.943 300.056C290.078 300.408 289.544 301.449 289.042 301.81C288.358 302.301 286.648 302.402 279.04 302.4C275.008 302.4 271.665 302.441 271.612 302.494C271.404 302.701 270.744 302.574 270.437 302.267ZM227.52 302.209C226.882 301.941 225.512 300.502 225.375 299.957C225.081 298.786 225.695 298.085 226.75 298.387C227.627 298.638 228.056 299.016 228.467 299.896C228.918 300.865 228.964 301.562 228.608 302.069C228.313 302.489 228.215 302.502 227.52 302.209ZM240.831 299.082C238.137 296.932 234.998 293.553 234.703 292.484C234.483 291.692 234.877 290.361 235.402 290.123C235.827 289.929 236.395 290.148 241.559 292.504L244.471 293.832L244.558 301.805L243.382 300.992C242.736 300.545 241.588 299.685 240.831 299.082ZM249.851 301.393L248.597 301.402V298.51C248.597 296.162 248.638 295.628 248.815 295.67C249.358 295.8 260.08 300.259 260.081 300.356C260.085 300.508 259.137 300.804 257.252 301.239C255.795 301.575 255.409 301.601 253.369 301.498C252.124 301.435 250.54 301.387 249.851 301.393ZM220.401 299.949C219.391 299.526 218.182 297.848 218.182 296.868C218.182 295.996 219.379 295.708 220.466 296.318C221.649 296.982 222.32 299.104 221.579 299.843C221.197 300.225 221.087 300.235 220.401 299.949ZM255.161 296.748L248.643 293.976L248.531 291.311C248.469 289.845 248.48 288.584 248.555 288.509C248.868 288.196 259.498 289.654 261.72 290.315L262.823 290.643L262.869 294.799C262.911 298.675 262.894 298.973 262.613 299.237C262.448 299.393 262.169 299.52 261.995 299.52C261.821 299.52 258.745 298.273 255.161 296.748ZM286.126 296.932C285.701 296.705 285.565 295.819 285.853 295.143C285.982 294.839 286.392 294.249 286.764 293.83C287.559 292.936 288.308 292.695 288.962 293.123C289.484 293.464 289.491 294.153 288.985 295.239C288.299 296.711 287.072 297.438 286.126 296.932ZM281.147 296.74C280.85 296.444 280.916 295.215 281.264 294.545C281.808 293.5 282.483 292.895 283.106 292.895C283.909 292.895 284.512 293.423 284.512 294.126C284.512 294.824 284.213 295.409 283.515 296.077C282.686 296.87 281.586 297.179 281.147 296.74ZM273.601 296.575C273.463 296.378 273.349 295.986 273.349 295.705C273.349 294.73 274.943 292.895 275.789 292.895C276.855 292.895 277.399 293.639 277.089 294.674C276.576 296.382 274.326 297.609 273.601 296.575ZM213.468 296.539C212.846 296.116 211.925 294.856 211.761 294.202C211.703 293.974 211.761 293.629 211.897 293.391C212.103 293.029 212.239 292.976 212.953 292.981C214.887 292.995 216.339 295.276 215.197 296.507C214.703 297.039 214.218 297.048 213.468 296.539ZM207.149 294.025C206.199 293.396 205.546 292.446 205.444 291.544C205.226 289.615 207.488 289.812 208.642 291.821C209.236 292.855 209.262 293.578 208.725 294.114C208.215 294.623 208.039 294.613 207.149 294.025ZM229.985 293.055C227.92 292.635 225.903 291.899 222.307 290.256L219.395 288.925L219.351 286.205C219.309 283.657 219.325 283.492 219.594 283.594C219.958 283.733 230.381 288.096 230.442 288.135C230.467 288.151 230.656 288.774 230.862 289.519C231.172 290.639 231.607 291.826 232.202 293.177C232.328 293.461 231.853 293.435 229.985 293.055ZM240.47 290.606C236.385 288.859 236.29 288.785 237.568 288.343C238.24 288.111 240.983 288.076 243.137 288.271L244.552 288.399V290.324C244.552 291.382 244.498 292.248 244.431 292.248C244.364 292.248 242.582 291.509 240.47 290.606ZM200.663 290.964C200.047 290.424 199.487 289.323 199.634 288.941C199.979 288.043 201.677 288.952 202.069 290.243C202.171 290.582 201.656 291.44 201.351 291.44C201.271 291.44 200.962 291.226 200.663 290.964ZM193.052 290.823C192.61 290.335 192.746 289.596 193.289 289.533C194.094 289.44 194.791 290.883 194.121 291.257C193.808 291.432 193.485 291.301 193.052 290.823ZM264.102 286.431C262.098 283.829 260.85 279.559 261.225 276.582C261.649 273.215 263.191 269.489 265.017 267.418L265.707 266.636L266.037 267.767C266.219 268.39 266.492 269.355 266.645 269.912L266.923 270.926L266.418 272.019C265.673 273.634 265.491 275.112 265.714 277.759C265.815 278.96 266.017 280.475 266.162 281.126C266.505 282.659 267.448 284.674 268.572 286.277C269.064 286.978 269.466 287.59 269.466 287.638C269.466 287.685 269.062 287.724 268.569 287.724C267.607 287.724 266.99 287.962 266.474 288.531L266.151 288.887L265.531 288.184C265.19 287.798 264.547 287.009 264.102 286.431ZM279.47 286.334C279.44 285.748 279.478 285.23 279.555 285.183C279.886 284.98 283.383 284.949 285.802 285.128C288.543 285.331 290.332 285.69 291.455 286.263C292.719 286.907 292.271 287.066 289.123 287.091C287.877 287.101 286.457 287.165 285.968 287.232C285.479 287.3 283.829 287.365 282.301 287.378L279.524 287.4L279.47 286.334ZM270.697 287.145C270.301 286.113 270.954 284.951 272.107 284.637C273.253 284.326 276.724 284.689 277.36 285.187C277.55 285.336 277.605 286.925 277.433 287.279C277.401 287.346 275.894 287.401 274.085 287.401C271.234 287.401 270.782 287.367 270.697 287.145ZM212.784 284.995C210.943 283.914 207.913 282.406 206.412 281.825C205.767 281.575 205.24 281.314 205.24 281.244C205.24 281.174 205.406 280.924 205.609 280.688C206.156 280.053 207.028 280.018 209.527 280.532C211.595 280.958 214.47 281.807 215.859 282.401L216.564 282.703V287.41L215.391 286.624C214.746 286.191 213.573 285.458 212.784 284.995ZM228.309 284.015C226.72 283.229 222.215 279.709 221.351 278.58C220.125 276.975 220.385 276.231 222.469 275.392C222.558 275.356 222.43 275.138 222.184 274.906C221.613 274.368 221.418 273.843 221.418 272.842C221.418 271.992 221.733 271.055 222.192 270.538C222.718 269.946 224.014 269.467 225.095 269.466C226.191 269.462 227.321 269.825 227.476 270.227C227.529 270.366 227.462 270.633 227.326 270.82C227.19 271.008 226.83 271.507 226.525 271.929C226.135 272.471 225.94 272.949 225.867 273.545C225.729 274.669 226.047 277.115 226.451 278.026C226.776 278.762 229.063 282.271 230.19 283.765C230.525 284.209 230.8 284.637 230.8 284.715C230.8 284.993 229.608 284.658 228.309 284.015ZM198.364 279.087C196.647 278.624 194.488 278.476 193.106 278.726L192.378 278.858L188.126 274.298C185.788 271.79 183.895 269.683 183.92 269.616C183.945 269.55 184.604 268.939 185.385 268.259L186.804 267.022L200.71 275.195V277.438C200.71 279.681 200.71 279.682 200.346 279.603C200.146 279.559 199.254 279.327 198.364 279.087ZM199.998 272.876C199.25 272.05 198.861 270.068 198.678 266.152C198.566 263.756 198.739 262.221 199.42 259.566C199.707 258.45 201.539 253.883 201.815 253.598C201.874 253.536 201.942 254.587 201.964 255.933C202.041 260.479 202.925 263.82 204.613 265.95L205.093 266.556H204.261C202.983 266.556 202.707 266.947 201.587 270.356C201.077 271.91 200.573 273.181 200.467 273.181C200.361 273.181 200.15 273.043 199.998 272.876ZM265.509 259.309C264.215 253.954 263.157 249.48 263.157 249.368C263.157 249.17 265.039 248.168 265.15 248.308C265.18 248.346 265.808 250.14 266.545 252.295L267.884 256.213L267.522 257.546C267.067 259.223 266.929 261.374 267.202 262.535C267.45 263.59 268.121 265.112 268.906 266.403L269.489 267.361L268.712 268.241C268.285 268.725 267.919 269.103 267.898 269.083C267.878 269.062 266.802 264.664 265.509 259.309ZM179.45 264.952C177.618 262.914 176.119 261.185 176.119 261.11C176.119 260.961 177.974 259.284 178.138 259.284C178.349 259.284 187.606 264.174 187.606 264.285C187.606 264.383 182.923 268.656 182.815 268.656C182.797 268.656 181.282 266.989 179.45 264.952ZM207.094 266.868C206.141 266.391 205.66 265.773 205.66 265.024C205.66 264.285 206.18 263.747 207.329 263.295C208.125 262.982 208.531 262.941 210.74 262.946C213.29 262.952 214.618 263.115 215.66 263.55L216.241 263.792V265.413C216.241 266.962 216.224 267.038 215.877 267.118C215.274 267.256 213.236 267.321 210.483 267.29C208.08 267.263 207.819 267.231 207.094 266.868ZM219.436 267.047L218.991 267.04V263.611L221.135 263.724C224.255 263.889 229.987 264.889 230.784 265.406C231.392 265.801 230.197 266.564 228.393 266.931C227.608 267.091 224.766 267.128 219.436 267.047ZM270.204 266.52C270.065 266.322 269.952 265.891 269.952 265.562C269.952 263.923 272.213 263.041 275.822 263.272L277.404 263.373L277.313 266.636L275.129 266.724C270.418 266.914 270.482 266.917 270.204 266.52ZM234.077 265.303C232.316 264.443 230.098 261.743 228.434 258.435C225.792 253.181 225.809 247.586 228.474 245.243C229.732 244.137 231.262 244.014 232.711 244.904C233.005 245.084 233.342 245.46 233.459 245.737C233.652 246.198 233.628 246.337 233.188 247.308C232.575 248.657 232.064 250.671 231.605 253.54C230.799 258.579 231.545 261.593 234.358 264.657C234.909 265.257 235.276 265.748 235.173 265.748C235.071 265.748 234.578 265.548 234.077 265.303ZM236.729 264.674C235.845 263.931 235.493 263.325 235.493 262.549C235.493 261.611 236.19 260.88 237.442 260.508C238.417 260.217 241.316 259.937 243.379 259.933L244.714 259.929V264.233L242.409 264.434C241.141 264.544 239.63 264.731 239.052 264.848C237.512 265.161 237.29 265.144 236.729 264.673V264.674ZM248.435 261.911V259.93H249.45C250.809 259.93 252.663 260.167 255.877 260.751C261.024 261.685 264.346 262.724 264.879 263.566C265.083 263.888 265.044 263.889 256.76 263.89H248.435V261.91V261.911ZM227.299 262.825C225.935 262.411 224.123 261.458 222.902 260.513C222.397 260.122 220.812 258.613 219.379 257.16C216.7 254.442 216.248 253.78 216.47 252.896C216.581 252.454 217.173 252.095 218.068 251.927C218.4 251.865 218.703 251.763 218.742 251.7C218.781 251.636 218.564 251.236 218.261 250.809C217.524 249.774 217.313 249.076 217.431 248.07C217.755 245.321 219.03 244.24 222.244 243.986C223.49 243.888 224.381 243.978 224.805 244.246C224.993 244.365 224.925 244.517 224.448 245.045C222.373 247.339 222.148 250.909 223.783 255.601C224.861 258.695 226.206 260.964 227.858 262.475C228.27 262.853 228.563 263.162 228.508 263.162C228.453 263.162 227.909 263.011 227.299 262.825ZM191.92 259.809C192.114 257.637 192.516 254.663 192.808 253.239C193.598 249.386 195.836 244.311 197.926 241.634C198.546 240.84 205.635 234.418 206.06 234.265C206.143 234.235 206.21 234.541 206.21 234.945C206.21 237.447 206.867 240.63 207.813 242.714L208.281 243.746L207.772 243.955C207.011 244.268 204.755 246.613 204.061 247.811C203.727 248.389 203.226 249.407 202.949 250.073L202.445 251.285L197.174 255.931C194.276 258.486 191.892 260.577 191.878 260.577C191.863 260.577 191.883 260.231 191.92 259.809ZM263.211 259.728C262.381 258.866 260.934 256.894 260.276 255.729C259.755 254.807 258.27 251.507 258.343 251.435C258.471 251.307 261.147 250.073 261.295 250.073C261.486 250.073 264.303 259.446 264.295 260.052C264.287 260.595 263.947 260.494 263.211 259.728ZM267.181 247.457C267.294 247.331 270.169 246.035 270.22 246.086C270.238 246.104 270.178 246.467 270.087 246.893C269.881 247.86 270.108 249.283 270.749 251.038L271.208 252.294L270.675 252.548C270.382 252.687 269.936 253.06 269.683 253.377L269.224 253.952L268.152 250.76C267.562 249.005 267.126 247.518 267.181 247.457ZM272.074 251.978C272.001 251.782 271.974 251.498 272.013 251.348C272.239 250.485 274.03 249.635 275.964 249.473C277.379 249.354 277.555 249.492 277.555 250.711V251.633L275.25 251.968C272.231 252.407 272.232 252.407 272.074 251.978ZM257.632 249.468C257.309 248.663 257.387 246.706 257.793 245.456C258.133 244.409 259.127 242.817 259.517 242.695C259.648 242.654 261.078 247.893 261.059 248.342C261.054 248.459 258.226 249.868 257.936 249.899C257.867 249.906 257.73 249.712 257.632 249.468ZM261.796 243.772L260.843 240.055H260.261C259.941 240.055 257.24 240.274 254.259 240.539C251.278 240.805 248.748 241.022 248.637 241.023C248.486 241.023 248.435 240.51 248.435 238.998C248.435 237.221 248.47 236.959 248.718 236.857C248.874 236.793 250.13 236.746 251.509 236.753C253.724 236.764 254.276 236.825 256.24 237.278C258.786 237.866 259.598 237.926 259.598 237.526C259.598 237.381 259.206 236.744 258.727 236.112C257.664 234.71 257.664 234.709 256.954 232.671C256.169 230.418 255.968 228.821 256.196 226.655C256.377 224.945 256.794 223.086 256.998 223.086C257.058 223.086 258.106 226.159 259.327 229.914C260.547 233.669 262.265 238.945 263.144 241.64L264.742 246.538L263.828 246.996C263.325 247.248 262.877 247.461 262.832 247.47C262.786 247.479 262.32 245.814 261.796 243.77V243.772ZM233.603 243.944C231.973 242.144 231.008 241.846 228.052 242.229C227.028 242.361 224.989 242.545 223.521 242.636C222.053 242.728 220.506 242.846 220.083 242.898L219.314 242.994V239.542L219.921 239.629C220.255 239.677 221.037 239.76 221.66 239.814C222.283 239.868 224.202 240.09 225.925 240.307C229.199 240.719 230.801 240.801 230.801 240.556C230.801 240.477 230.108 239.963 229.261 239.415C227.732 238.425 227.02 237.71 227.354 237.496C227.447 237.437 229.102 236.153 231.033 234.642C232.964 233.131 234.601 231.874 234.671 231.849C234.741 231.823 234.84 232.55 234.891 233.465C235.05 236.316 235.998 239.079 237.362 240.669C237.69 241.051 237.931 241.387 237.898 241.416C237.865 241.446 237.539 241.62 237.173 241.805C236.367 242.21 235.096 243.584 234.82 244.347C234.709 244.653 234.586 244.903 234.545 244.903C234.505 244.903 234.081 244.471 233.603 243.944ZM209.692 243.224C208.9 242.433 209.016 241.012 209.945 240.122L210.437 239.651L216.251 239.55L216.16 243.206L213.976 243.383C210.38 243.675 210.135 243.666 209.692 243.224ZM239.607 241.273C238.599 240.852 238.268 239.245 238.97 238.175C239.543 237.302 242.495 236.45 243.846 236.768L244.471 236.916L244.517 238.916C244.542 240.017 244.501 240.979 244.424 241.055C243.984 241.496 240.516 241.652 239.607 241.273ZM222.42 237.312C221.186 236.655 219.97 235.577 218.794 234.1C218.02 233.127 217.85 232.807 217.89 232.398C217.927 232.023 218.066 231.832 218.434 231.648L218.929 231.4L218.637 230.92C218.088 230.017 218.384 228.029 219.199 227.157C219.852 226.458 220.441 226.254 221.764 226.267C222.444 226.274 223.074 226.325 223.165 226.381C223.268 226.444 223.191 226.769 222.959 227.249C222.278 228.663 222.019 229.623 221.942 231.029C221.816 233.321 222.456 234.824 224.549 237.145C225.14 237.8 225.624 238.392 225.624 238.459C225.624 238.645 223.484 237.878 222.42 237.312Z" fill="currentcolor"/>

</svg>
