<svg  viewBox="0 0 1180 580" fill="currentcolor" xmlns="http://www.w3.org/2000/svg">
<path d="M247.381 333.139C246.671 332.933 245.927 332.32 245.582 331.658L245.255 331.028L245.299 328.27C245.323 326.754 245.379 325.409 245.421 325.283C245.484 325.093 245.333 324.934 244.55 324.365C242.281 322.718 239.896 320.463 237.62 317.816C236.86 316.931 236.161 316.102 236.068 315.974C235.949 315.81 235.61 315.679 234.922 315.533C227.872 314.039 221.16 307.853 218.402 300.306C216.72 295.703 216.878 291.051 218.828 287.774C219.48 286.677 220.891 285.226 222.085 284.424L223.048 283.777V280.759C223.048 277.456 223.211 275.653 223.723 273.263C223.885 272.505 224.059 271.523 224.108 271.081C224.166 270.565 224.309 270.072 224.508 269.703C224.727 269.298 224.799 269.028 224.755 268.785C224.643 268.161 224.357 265.261 224.213 263.273C223.912 259.116 224.055 250.854 224.523 245.358C224.832 241.74 224.965 241.167 225.499 241.167C225.608 241.167 226.363 241.528 227.177 241.97C228.703 242.799 231.957 244.395 232.011 244.342C232.027 244.325 232.046 242.359 232.054 239.972L232.066 235.633L228.578 234.087C224.112 232.109 221.333 230.881 217.043 228.991C215.145 228.156 213.503 227.393 213.392 227.297C213.183 227.114 213.131 226.74 213.283 226.501C213.421 226.285 213.151 226.389 226.412 221.427C239.117 216.674 238.646 216.851 242.106 215.52C242.991 215.179 247.401 213.52 251.905 211.833L260.095 208.766L266.564 211.201C270.122 212.54 273.24 213.708 273.493 213.797C273.746 213.885 274.056 214.003 274.182 214.058C274.309 214.113 275.266 214.475 276.309 214.862C278.616 215.718 298.628 223.23 300.798 224.055C301.651 224.379 303.333 225.009 304.535 225.455C305.736 225.902 306.783 226.348 306.863 226.447C307.067 226.703 307.041 227.092 306.805 227.294C306.694 227.389 305.388 227.985 303.902 228.62C302.416 229.255 298.174 231.076 294.475 232.668C290.776 234.259 287.684 235.588 287.605 235.62C287.494 235.666 287.461 236.68 287.461 240.142C287.461 244.342 287.473 244.601 287.663 244.536C288.105 244.383 292.298 242.304 293.268 241.756C293.836 241.434 294.418 241.17 294.558 241.169C294.992 241.165 295.141 241.588 295.328 243.349C295.813 247.902 295.98 251.313 295.98 256.612C295.98 261.634 295.818 264.742 295.38 268.129C295.259 269.067 295.261 269.084 295.545 269.368C296.082 269.904 296.236 270.4 296.164 271.355C296.121 271.925 296.156 272.465 296.266 272.941C296.763 275.081 296.911 276.569 296.971 280.049L297.032 283.505L297.913 284.087C299.948 285.431 301.476 287.439 302.168 289.678C303.31 293.375 302.781 297.81 300.67 302.246C300.298 303.029 299.993 303.688 299.993 303.711C299.993 303.733 300.485 303.752 301.085 303.752C302.176 303.752 302.177 303.751 302.632 304.162C303.474 304.922 303.801 306.457 303.56 308.528C303.209 311.542 301.991 314.884 300.531 316.84C299.831 317.778 299.746 317.869 299.246 318.214C298.201 318.936 297.42 318.932 296.631 318.201C295.714 317.352 293.358 315.889 290.871 314.624L289.396 313.873L288.86 314.103C287.909 314.511 286.158 315.088 285.449 315.229C285.07 315.304 284.673 315.39 284.567 315.42C284.46 315.45 283.869 316.103 283.251 316.871C281.144 319.493 277.563 322.944 275.275 324.555C274.603 325.028 274.572 325.07 274.663 325.398C274.715 325.587 274.757 326.956 274.757 328.441C274.757 330.989 274.745 331.165 274.509 331.599C273.936 332.656 273.052 333.193 271.883 333.193C271.052 333.193 270.533 333.014 270.027 332.552C269.78 332.327 269.778 332.328 269.314 332.663C268.328 333.377 266.92 333.387 265.904 332.689C265.419 332.356 265.407 332.354 265.141 332.561C264.326 333.196 263.422 333.377 262.462 333.098C261.336 332.771 260.56 331.837 260.381 330.594C260.308 330.087 260.279 330.048 259.97 330.048C259.655 330.048 259.639 330.073 259.639 330.552C259.639 330.88 259.527 331.269 259.318 331.669C258.477 333.277 256.452 333.709 254.946 332.602L254.563 332.321L254.313 332.549C253.389 333.393 251.853 333.449 250.788 332.678L250.326 332.344L249.861 332.68C249.172 333.178 248.161 333.365 247.379 333.139L247.381 333.139ZM264.383 331.452L264.699 331.154V325.594L264.293 325.237C263.947 324.934 263.795 324.881 263.274 324.881C262.589 324.881 262.174 325.122 261.88 325.689C261.637 326.159 261.632 330.599 261.876 331.067C262.358 331.997 263.603 332.188 264.384 331.452H264.383ZM248.934 331.721C249.536 331.41 249.536 331.412 249.536 328.383C249.536 325.355 249.536 325.357 248.934 325.046C248.117 324.624 247.043 324.991 246.718 325.804C246.432 326.519 246.456 330.383 246.749 331.031C247.094 331.79 248.152 332.124 248.932 331.721H248.934ZM253.55 331.481L253.892 331.154V325.594L253.486 325.237C253.14 324.934 252.988 324.881 252.466 324.881C252.019 324.881 251.771 324.946 251.548 325.121C250.947 325.593 250.903 325.818 250.904 328.406C250.904 331.04 250.939 331.189 251.594 331.634C252.162 332.019 253.061 331.949 253.55 331.481ZM257.593 331.685C258.283 331.283 258.376 330.89 258.376 328.377C258.376 326.543 258.341 326.049 258.191 325.733C257.655 324.604 255.882 324.594 255.348 325.717C255.189 326.052 255.157 326.508 255.157 328.384C255.157 330.906 255.238 331.27 255.895 331.669C256.342 331.942 257.14 331.949 257.593 331.685ZM268.381 331.712C268.565 331.617 268.773 331.434 268.841 331.305C269.027 330.959 269.011 325.606 268.822 325.38C268.403 324.876 267.356 324.725 266.745 325.082C266.052 325.485 265.961 325.874 265.967 328.407C265.971 330.919 266.041 331.217 266.715 331.661C267.125 331.931 267.908 331.955 268.379 331.712H268.381ZM272.98 331.481C273.169 331.3 273.374 330.968 273.437 330.744C273.586 330.207 273.584 326.55 273.433 326.01C273.367 325.774 273.139 325.433 272.912 325.235C272.568 324.932 272.418 324.881 271.885 324.881C271.322 324.881 271.218 324.922 270.808 325.312C270.238 325.854 270.189 326.147 270.238 328.728C270.279 330.908 270.352 331.179 271.022 331.633C271.592 332.02 272.49 331.95 272.98 331.481ZM260.355 327.206C260.417 325.592 260.537 325.177 261.139 324.492C262.105 323.393 263.667 323.217 264.933 324.067L265.433 324.402L265.919 324.068C266.94 323.367 268.311 323.376 269.301 324.092C269.78 324.439 269.782 324.439 270.028 324.214C270.796 323.514 272.237 323.339 273.184 323.831L273.679 324.088L274.449 323.54C275.854 322.539 277.844 320.795 279.358 319.238C280.79 317.764 282.519 315.803 282.519 315.651C282.519 315.611 282.17 315.579 281.743 315.579C280.579 315.579 278.931 315.283 278.756 315.045C278.509 314.708 278.593 314.351 279.027 313.893C279.697 313.187 280.401 312.231 280.843 311.427C281.07 311.016 281.255 310.649 281.255 310.611C281.255 310.574 279.974 310.121 278.409 309.606L275.564 308.668L275.03 308.965C273.993 309.543 272.955 309.247 272.222 308.168C272.037 307.894 271.781 307.639 271.655 307.602C271.528 307.565 271.142 307.459 270.796 307.365C270.45 307.272 270.075 307.166 269.962 307.131C269.792 307.077 269.758 307.135 269.758 307.475C269.758 308.266 268.538 309.263 267.572 309.263C266.963 309.263 266.545 309.04 266.029 308.437C265.544 307.871 265.433 307.543 265.612 307.208C265.805 306.848 266.215 306.799 266.751 307.072C267.319 307.362 268.069 307.374 268.578 307.103L268.95 306.905L267.945 306.653C263.702 305.59 259.059 304.65 258.497 304.74C257.86 304.841 257.312 304.616 256.773 304.032C256.106 303.31 255.996 303.03 256.235 302.665C256.341 302.504 256.52 302.373 256.633 302.373C256.82 302.373 256.835 302.279 256.788 301.391C256.729 300.259 256.889 299.07 257.294 297.63C257.597 296.555 258.311 294.909 258.731 294.32C258.98 293.971 258.981 293.957 258.777 293.604C258.372 292.9 254.083 285.654 253.694 285.017L253.299 284.368L252.409 284.868C251.249 285.52 249.913 286.006 248.455 286.306C246.927 286.622 244.342 286.569 242.926 286.194C241.167 285.728 238.934 284.52 237.739 283.389C237.612 283.27 237.39 283.092 237.245 282.995C237.1 282.898 236.684 282.451 236.32 282.002C234.354 279.573 233.41 277.391 232.801 273.866L232.727 273.435H229.532C227.031 273.435 226.213 273.398 225.771 273.264C225.461 273.17 225.174 273.092 225.133 273.092C225.027 273.092 224.728 274.831 224.521 276.65C224.297 278.62 224.275 283.082 224.49 283.08C224.569 283.08 225.039 282.949 225.534 282.791C227.097 282.292 228.355 282.132 230.21 282.193C232.045 282.255 232.455 282.357 234.08 283.165C237.533 284.881 239.751 287.876 240.388 291.68C240.547 292.63 240.574 293.28 240.523 294.895C240.445 297.359 240.132 299.011 239.277 301.454C238.153 304.672 238.109 304.871 238.104 306.794C238.1 308.378 238.128 308.595 238.423 309.493C238.976 311.17 239.915 312.764 241.124 314.077C241.729 314.733 241.759 315.163 241.218 315.385C240.798 315.557 239.21 315.803 238.269 315.841L237.647 315.866L238.245 316.61C239.908 318.677 243.649 322.17 245.86 323.722L246.392 324.096L246.856 323.86C247.838 323.359 248.984 323.449 249.879 324.097C250.352 324.439 250.353 324.439 250.6 324.214C251.101 323.757 251.626 323.575 252.456 323.57C253.289 323.565 253.793 323.74 254.313 324.214C254.56 324.439 254.561 324.439 255.034 324.097C255.587 323.697 256.5 323.448 257.074 323.541C257.423 323.597 257.466 323.58 257.395 323.411C257.202 322.952 257.207 322.683 257.411 322.456C257.644 322.199 257.885 322.209 258.664 322.511C259.295 322.755 259.858 322.741 260.305 322.469C260.758 322.193 261.058 322.178 261.3 322.42C261.591 322.71 261.513 323.152 261.079 323.681C260.666 324.185 259.874 324.651 259.432 324.651C259.128 324.651 259.129 324.626 259.409 325.241C259.597 325.655 259.637 325.996 259.639 327.206L259.643 328.67H260.302L260.355 327.206ZM255.019 320.512C254.273 320.119 253.708 319.187 253.925 318.711C254.098 318.331 254.395 318.292 255.104 318.557C255.902 318.855 256.365 318.857 256.911 318.565C257.147 318.438 257.418 318.335 257.513 318.335C257.754 318.335 258.146 318.751 258.146 319.008C258.146 319.311 257.28 320.255 256.757 320.522C256.202 320.805 255.567 320.801 255.019 320.512ZM261.537 320.566C260.775 320.17 260.146 319.318 260.264 318.845C260.385 318.364 260.8 318.262 261.468 318.549C262.182 318.856 262.739 318.861 263.319 318.565C263.876 318.281 264.037 318.278 264.279 318.545C264.591 318.89 264.511 319.321 264.038 319.846C263.298 320.665 262.289 320.956 261.537 320.566ZM252.642 316.991C252.191 316.769 251.363 315.774 251.363 315.454C251.363 315.199 251.749 314.775 251.982 314.775C252.07 314.775 252.368 314.878 252.644 315.003C253.291 315.296 253.9 315.294 254.485 314.996C255.044 314.711 255.411 314.772 255.597 315.18C255.704 315.415 255.698 315.541 255.566 315.794C255.361 316.189 254.552 316.93 254.165 317.077C253.731 317.242 253.076 317.205 252.641 316.991L252.642 316.991ZM259.181 317.058C258.816 316.914 258.175 316.305 257.964 315.901C257.725 315.446 257.764 315.149 258.091 314.935C258.364 314.757 258.418 314.76 259.021 314.99C259.82 315.295 260.327 315.299 260.905 315.005C261.462 314.721 261.622 314.718 261.865 314.985C262.167 315.319 262.092 315.724 261.63 316.263C260.953 317.053 259.971 317.372 259.181 317.058ZM265.408 316.993C264.915 316.75 264.239 315.868 264.239 315.466C264.239 315.161 264.542 314.775 264.782 314.775C264.849 314.775 265.129 314.878 265.405 315.003C266.072 315.305 266.796 315.298 267.354 314.985C267.723 314.778 267.846 314.758 268.085 314.867C268.56 315.083 268.575 315.496 268.131 316.108C267.441 317.06 266.299 317.432 265.408 316.993ZM250.324 313.397C249.133 313.192 248.103 311.439 248.98 311.11C249.15 311.046 249.409 311.081 249.753 311.214C250.68 311.572 251.02 311.584 251.642 311.283C251.954 311.133 252.291 311.038 252.39 311.073C253.022 311.296 253.02 311.802 252.386 312.522C251.702 313.298 251.139 313.537 250.324 313.397ZM256.824 313.432C255.996 313.26 255.042 312.322 255.042 311.678C255.042 311.096 255.509 310.92 256.202 311.241C256.831 311.533 257.671 311.557 258.071 311.295C258.491 311.02 259.026 311.042 259.186 311.341C259.624 312.158 257.927 313.661 256.824 313.432ZM263.104 313.387C262.637 313.289 262.233 313.002 261.814 312.471C261.342 311.873 261.302 311.612 261.631 311.283L261.912 311.003L263.669 311.6L264.272 311.35C264.988 311.054 265.308 311.037 265.553 311.281C265.818 311.545 265.777 311.801 265.383 312.335C264.788 313.144 263.897 313.555 263.104 313.387ZM269.527 313.394C268.931 313.235 268.509 312.929 268.162 312.405C267.684 311.685 267.695 311.397 268.211 311.126C268.394 311.03 268.557 311.051 268.932 311.219C269.794 311.604 270.137 311.615 270.852 311.277C271.46 310.99 271.517 310.982 271.778 311.153C272.221 311.443 272.151 311.923 271.576 312.546C271.311 312.833 270.987 313.125 270.857 313.195C270.506 313.384 269.854 313.481 269.527 313.394ZM247.374 308.931C246.53 308.32 246.166 307.668 246.412 307.208C246.605 306.848 247.015 306.799 247.551 307.072C248.144 307.374 248.884 307.378 249.438 307.081C249.968 306.798 250.125 306.794 250.368 307.062C250.667 307.393 250.596 307.8 250.143 308.328C249.308 309.302 248.216 309.54 247.374 308.931ZM253.892 309.022C253.378 308.722 252.742 307.89 252.742 307.519C252.742 307.361 252.848 307.136 252.978 307.019C253.207 306.812 253.227 306.812 253.754 307.019C254.615 307.359 255.216 307.376 255.855 307.077C256.382 306.83 256.425 306.827 256.703 307.009C257.047 307.234 257.079 307.588 256.794 308.008C256.008 309.165 254.837 309.575 253.892 309.022ZM260.388 309.072C259.887 308.808 259.652 308.577 259.339 308.043C259.114 307.66 259.082 307.512 259.174 307.271C259.33 306.86 259.717 306.794 260.333 307.073C261.01 307.379 261.747 307.378 262.246 307.069C262.976 306.618 263.646 307.143 263.269 307.871C263.065 308.265 262.256 309.006 261.869 309.153C261.443 309.315 260.78 309.279 260.388 309.072ZM244.581 304.534C244.003 304.236 243.315 303.41 243.315 303.014C243.315 302.729 243.639 302.373 243.899 302.373C243.988 302.373 244.334 302.477 244.667 302.603C245.43 302.893 245.923 302.893 246.362 302.603C246.777 302.328 247.144 302.31 247.388 302.554C247.982 303.147 246.814 304.579 245.61 304.733C245.209 304.785 244.984 304.741 244.581 304.534ZM251.074 304.57C250.583 304.347 249.939 303.696 249.81 303.291C249.585 302.582 250.139 302.186 250.869 302.534C251.566 302.865 252.208 302.894 252.74 302.617C253.315 302.318 253.569 302.31 253.817 302.583C254.091 302.886 254.052 303.22 253.692 303.656C253.263 304.174 253.106 304.301 252.57 304.559C251.996 304.834 251.661 304.837 251.074 304.57ZM299.109 316.544C299.312 316.273 299.311 316.268 299.052 316.268C298.906 316.268 298.623 316.167 298.422 316.045L298.057 315.822L298.175 316.16C298.24 316.346 298.34 316.527 298.397 316.562C298.453 316.597 298.5 316.727 298.5 316.85C298.5 317.035 298.535 317.052 298.702 316.947C298.812 316.877 298.995 316.696 299.109 316.544ZM296.015 312.823C296.53 310.24 297.782 307.098 298.845 305.72C299.106 305.382 299.285 305.072 299.242 305.031C299.2 304.99 299.08 305.086 298.976 305.243C297.174 307.981 294.224 310.925 291.651 312.553L290.787 313.1L291.223 313.316C292.026 313.714 294.411 315.045 295.108 315.485L295.799 315.919L295.866 314.572C295.905 313.831 295.97 313.044 296.015 312.823ZM299.535 314.144C299.652 314.002 299.645 313.971 299.492 313.971C299.389 313.971 299.305 314.049 299.305 314.144C299.305 314.238 299.324 314.316 299.348 314.316C299.372 314.316 299.456 314.238 299.535 314.144ZM280.565 308.881C280.565 308.86 280.853 307.943 281.205 306.842C281.957 304.494 281.959 304.365 281.269 302.581C281.017 301.93 280.747 301.177 280.67 300.908C280.539 300.456 280.484 300.406 279.952 300.248C279.635 300.154 279.366 300.09 279.352 300.105C279.341 300.121 278.878 301.555 278.327 303.292C277.777 305.029 277.253 306.671 277.164 306.942C277.074 307.212 277.001 307.504 277.001 307.59C277.001 307.69 277.623 307.958 278.697 308.323C280.4 308.901 280.565 308.951 280.565 308.881ZM300.074 308.244C300.455 308.048 300.966 308.089 301.287 308.341L301.575 308.568L301.639 308.09C301.722 307.473 301.612 306.541 301.438 306.397C301.165 306.171 300.336 307.045 299.536 308.402L299.265 308.861L299.544 308.617C299.697 308.483 299.935 308.315 300.074 308.244ZM276.166 305.789C276.423 304.952 276.951 303.286 277.337 302.086C277.724 300.886 278.026 299.834 278.009 299.749C277.994 299.662 276.967 299.219 275.679 298.742C272.365 297.514 267.519 295.545 264.412 294.164L264.067 294.011V295.465C264.067 297.005 263.898 297.985 263.353 299.615C262.889 301.007 262.016 302.592 261.308 303.328C261.137 303.506 261.025 303.679 261.058 303.712C261.094 303.746 261.964 303.949 262.996 304.165C265.275 304.642 272.189 306.358 274.012 306.9C274.74 307.116 275.416 307.297 275.516 307.302C275.65 307.308 275.817 306.919 276.166 305.789ZM259.541 302.056C259.855 301.849 260.79 300.778 260.79 300.626C260.79 300.578 260.582 300.648 260.326 300.781C259.812 301.049 259.289 301.014 258.929 300.689C258.73 300.509 258.721 300.527 258.721 301.085C258.721 301.757 258.879 302.259 259.092 302.257C259.172 302.257 259.375 302.167 259.541 302.056ZM279.753 297.474C279.584 296.633 279.485 295.615 279.446 294.335C279.385 292.32 279.51 291.267 280.01 289.569C280.855 286.698 283.179 284.096 286.169 282.671C287.397 282.086 288.155 281.916 289.82 281.853C291.568 281.786 293.059 281.988 294.585 282.499C295.291 282.735 295.592 282.79 295.653 282.696C295.775 282.505 295.756 279.236 295.625 277.638C295.563 276.887 295.402 275.578 295.266 274.73C295.031 273.255 295.009 273.191 294.777 273.274C294.644 273.321 292.906 273.38 290.914 273.405L287.292 273.449L287.097 274.643C286.759 276.701 285.851 279.035 284.742 280.691C284.038 281.743 282.496 283.367 281.506 284.1C279.309 285.726 276.863 286.526 274.087 286.526C271.815 286.526 269.726 285.999 267.727 284.922C267.254 284.667 266.823 284.459 266.77 284.459C266.716 284.459 266.521 284.73 266.337 285.062C266.151 285.393 265.688 286.181 265.307 286.813C264.926 287.445 264.093 288.837 263.456 289.907L262.297 291.853L262.665 291.99C262.868 292.065 264.12 292.602 265.448 293.182C271.154 295.673 279.877 299.056 279.969 298.812C279.989 298.761 279.892 298.159 279.754 297.474H279.753ZM261.595 293.997C261.595 293.937 261.543 293.857 261.48 293.818C261.417 293.779 261.365 293.638 261.365 293.504C261.365 293.264 261.361 293.265 261.075 293.533L260.786 293.805L261.104 293.945C261.505 294.123 261.595 294.132 261.595 293.997ZM261.384 290.835C261.833 290.076 262.418 289.092 262.685 288.65C264.151 286.225 265.044 284.683 265.044 284.578C265.044 284.498 263.409 284.459 260.043 284.459C256.118 284.459 255.042 284.49 255.042 284.602C255.042 284.681 255.996 286.348 257.163 288.306C258.329 290.264 259.419 292.092 259.584 292.369L259.883 292.872L260.226 292.545C260.414 292.364 260.936 291.595 261.384 290.835ZM247.197 285.03C252.549 284.359 257.054 279.448 257.98 273.272C258.198 271.816 258.232 271.794 260.123 271.845C261.236 271.875 261.629 271.926 261.761 272.058C261.858 272.156 261.99 272.635 262.06 273.149C262.507 276.436 263.983 279.43 266.256 281.665C269.266 284.624 272.903 285.733 276.509 284.79C280.934 283.632 284.204 279.231 284.433 274.124C284.499 272.637 284.611 272.223 284.972 272.127C285.109 272.09 287.265 272.058 289.762 272.055C294.544 272.049 294.518 272.051 294.802 271.519C295.029 271.094 294.96 270.684 294.6 270.326L294.264 269.99H289.398C286.721 269.99 284.47 269.949 284.396 269.902C284.32 269.854 284.052 269.184 283.798 268.412C282.283 263.803 279.047 260.46 274.965 259.286C274.223 259.073 273.783 259.028 272.402 259.027C270.456 259.027 269.786 259.169 268.206 259.928C265.229 261.357 263.018 264.323 262.269 267.894C261.886 269.714 262.051 269.584 260.079 269.621C258.133 269.658 258.099 269.643 257.971 268.703C257.755 267.11 256.899 264.94 255.901 263.454C252.946 259.055 247.455 257.707 242.77 260.231C240.937 261.218 239.228 262.812 237.99 264.689C237.128 265.995 236.372 267.674 236.072 268.944C235.808 270.063 236.167 269.992 230.778 269.992H226.059L225.781 270.269C225.435 270.615 225.332 271.001 225.483 271.397C225.734 272.057 225.742 272.058 230.569 272.061C235.688 272.065 235.497 272.028 235.497 273.012C235.497 275.646 236.455 278.777 237.858 280.741C238.15 281.15 238.348 281.535 238.302 281.608C238.257 281.682 238.271 281.709 238.333 281.67C238.396 281.631 238.676 281.836 238.955 282.124C239.234 282.412 239.787 282.896 240.184 283.199C240.581 283.502 240.865 283.773 240.817 283.8C240.767 283.827 240.793 283.832 240.877 283.812C240.959 283.791 241.321 283.922 241.681 284.102C242.525 284.523 243.359 284.793 244.388 284.98C245.43 285.169 246.015 285.18 247.196 285.032L247.197 285.03ZM244.292 283.767C240.651 283.035 237.75 279.765 236.935 275.473C236.712 274.297 236.711 271.83 236.932 270.564C237.444 267.648 238.833 265.02 240.911 263.035C241.951 262.042 242.591 261.6 243.81 261.031C245.262 260.353 246.029 260.185 247.682 260.179C248.871 260.175 249.267 260.221 249.981 260.442C252.533 261.233 254.468 262.956 255.734 265.564C256.741 267.639 257.138 269.944 256.896 272.314C256.567 275.548 255.332 278.33 253.243 280.548C251.121 282.801 248.715 283.898 245.957 283.871C245.293 283.865 244.543 283.818 244.29 283.767H244.292ZM248.317 282.262C251.821 281.081 254.59 277.661 255.397 273.517C256.049 270.175 255.33 266.714 253.506 264.41C252.142 262.687 250.477 261.719 248.487 261.492C244.046 260.986 239.794 264.58 238.366 270.047C238.019 271.374 237.937 273.745 238.191 275.085C238.915 278.911 241.164 281.611 244.292 282.412C245.419 282.701 247.212 282.634 248.317 282.262ZM248.776 279.031C247.721 278.597 246.914 277.822 246.467 276.813C245.912 275.559 245.864 273.745 246.355 272.572L246.516 272.187L246.952 272.409C247.503 272.69 248.036 272.691 248.579 272.413C249.472 271.956 249.914 271.188 249.921 270.082C249.925 269.368 249.944 269.307 250.2 269.243C251.136 269.008 252.71 269.678 253.506 270.65C255.452 273.027 254.561 277.249 251.801 278.721C251.166 279.06 250.953 279.112 250.098 279.14C249.51 279.16 248.983 279.116 248.776 279.031ZM272.083 283.716C269.587 283.153 267.074 281.304 265.461 278.845C263.89 276.448 263.09 273.812 263.09 271.023C263.09 265.155 266.825 260.508 271.826 260.153C274.553 259.96 277.402 261.167 279.554 263.429C283.635 267.716 284.527 274.598 281.631 279.451C280.937 280.613 279.507 282.067 278.413 282.721C277.073 283.523 276.062 283.798 274.299 283.842C273.298 283.867 272.566 283.826 272.083 283.716ZM276.196 282.294C279.17 281.338 281.292 278.555 281.9 274.814C282.244 272.698 281.943 270.296 281.062 268.123C279.948 265.373 277.711 263.019 275.277 262.032C274.118 261.563 273.586 261.461 272.345 261.466C270.29 261.476 268.716 262.162 267.169 263.721C265.381 265.524 264.435 268.025 264.428 270.966C264.42 274.373 265.592 277.413 267.787 279.676C269.151 281.081 270.571 281.958 272.191 282.395C273.293 282.693 275.096 282.647 276.196 282.294ZM268.838 278.985C267.824 278.632 266.696 277.629 266.183 276.622C264.556 273.434 265.978 269.68 268.98 269.24C269.28 269.196 269.655 269.193 269.814 269.233C270.082 269.3 270.103 269.354 270.103 269.993C270.103 270.829 270.416 271.56 270.99 272.063C271.702 272.688 272.33 272.79 273.088 272.403L273.534 272.176L273.744 272.719C273.904 273.132 273.954 273.579 273.954 274.583C273.954 275.719 273.914 276.007 273.667 276.639C273.271 277.653 272.249 278.699 271.383 278.978C270.624 279.222 269.527 279.225 268.838 278.985ZM264.649 282.708C263.888 282.057 262.481 280.337 261.737 279.149C261.405 278.617 260.877 277.595 260.564 276.877C260.134 275.89 259.976 275.626 259.917 275.795C259.407 277.246 258.404 279.157 257.539 280.325C257.282 280.672 256.579 281.46 255.978 282.076L254.883 283.196H265.217L264.649 282.71V282.708ZM285.967 273.674C285.971 273.306 285.904 273.399 285.813 273.894C285.761 274.177 285.773 274.245 285.852 274.124C285.914 274.029 285.966 273.827 285.967 273.674ZM234.197 273.581C234.166 273.469 234.142 273.532 234.139 273.722C234.136 273.911 234.163 274.003 234.193 273.925C234.224 273.847 234.228 273.692 234.197 273.581ZM229.387 267.219C229.705 263.836 230.411 261.649 231.635 260.26C232.068 259.769 232.106 259.674 232.11 259.059C232.114 258.692 232.082 258.392 232.045 258.392C231.843 258.392 229.964 261.148 228.895 263.012C227.831 264.866 226.221 268.495 226.389 268.663C226.424 268.698 227.081 268.727 227.849 268.727H229.246L229.387 267.219ZM235.028 267.894C235.175 267.436 235.438 266.743 235.614 266.354C235.929 265.655 235.931 265.637 235.77 264.861C235.403 263.093 234.726 261.625 233.912 260.835L233.377 260.315L232.794 260.94C232.136 261.646 231.571 262.739 231.24 263.946C230.952 264.996 230.673 266.957 230.67 267.952L230.666 268.727H234.76L235.027 267.894H235.028ZM285.738 268.468C285.738 268.326 285.612 267.74 285.458 267.166C284.417 263.284 281.827 259.769 278.553 257.795C275.1 255.713 270.904 255.461 267.544 257.136C266.167 257.822 265.428 258.347 264.407 259.365C262.793 260.974 261.607 263.049 260.962 265.396C260.797 265.996 260.623 266.561 260.575 266.652C260.429 266.926 260.152 267.042 259.833 266.962C259.583 266.899 259.5 266.774 259.348 266.228C258.349 262.637 256.968 260.322 254.764 258.548C253.825 257.792 251.832 256.737 250.788 256.443C247.448 255.504 243.697 256.204 240.675 258.331C239.242 259.339 237.652 260.967 236.845 262.252C236.552 262.717 236.551 262.735 236.724 263.325C236.821 263.656 236.936 263.882 236.98 263.829C237.023 263.775 237.357 263.335 237.72 262.85C238.935 261.232 240.892 259.644 242.782 258.743C244.585 257.884 246.975 257.47 248.807 257.701C251.818 258.079 254.232 259.377 256.173 261.661C257.529 263.258 258.439 265.067 258.992 267.269L259.258 268.325L260.021 268.359C260.772 268.392 260.784 268.388 260.856 268.072C261.285 266.186 261.819 264.768 262.597 263.453C265.303 258.877 270.25 256.741 275.219 258.003C278.73 258.895 282.294 261.935 284.05 265.536C284.336 266.123 284.736 267.08 284.939 267.665C285.227 268.495 285.354 268.727 285.523 268.727C285.67 268.727 285.739 268.644 285.738 268.468ZM293.672 268.594C293.672 268.521 293.433 267.863 293.142 267.13C291.438 262.847 288.63 258.639 285.165 255.174C283.522 253.532 282.53 252.854 280.68 252.108C277.226 250.715 273.628 250.664 269.343 251.944C267.192 252.587 265.396 253.425 263.434 254.7C262.834 255.09 261.199 256.641 260.541 257.444C260.091 257.995 259.755 257.947 259.251 257.261C257.49 254.864 253.733 252.684 249.536 251.621C246.858 250.944 243.62 250.866 241.45 251.427C239.082 252.04 237.079 253.081 235.594 254.47L234.692 255.315V257.536C234.692 258.771 234.739 259.785 234.798 259.822C234.857 259.858 235.136 260.195 235.418 260.57L235.932 261.253L236.584 260.403C238.591 257.786 241.769 255.739 244.993 254.988C246.093 254.732 248.968 254.698 250.04 254.928C251.884 255.325 253.556 256.051 255.025 257.093C257.013 258.503 258.926 261.045 259.891 263.559C259.992 263.821 260.057 263.729 260.668 262.468C261.481 260.788 262.225 259.724 263.467 258.466C266.787 255.1 271.696 253.883 276.188 255.31C281.344 256.949 285.468 261.6 286.847 267.33C287.009 268.003 287.166 268.593 287.195 268.641C287.286 268.791 293.672 268.746 293.672 268.594ZM226.9 264.014C228.084 261.668 229.664 259.187 231.127 257.377L232.086 256.19L232.039 245.821L230.29 245.01C229.328 244.564 227.992 243.905 227.321 243.544L226.101 242.888L226.03 243.403C225.447 247.65 225.189 258.785 225.562 263.559C225.643 264.601 225.713 265.63 225.717 265.846C225.721 266.062 225.748 266.215 225.777 266.186C225.804 266.157 226.312 265.179 226.9 264.014ZM294.468 264.191C294.685 261.258 294.752 254.885 294.602 251.444C294.437 247.665 294.123 243.574 293.957 243.041C293.93 242.956 293.518 243.119 292.845 243.479C291.578 244.156 289.057 245.374 288.124 245.759L287.463 246.032V255.648L288.128 256.419C290.275 258.911 292.575 262.516 293.798 265.306C294.011 265.793 294.219 266.155 294.259 266.11C294.299 266.065 294.393 265.201 294.468 264.191ZM260.321 255.679C260.724 255.167 262.02 254.079 263.008 253.422C265.776 251.583 269.94 250.14 273.379 249.827C277.386 249.463 280.809 250.285 283.969 252.372C284.481 252.71 285.161 253.221 285.48 253.507C285.799 253.794 286.092 254.028 286.132 254.028C286.171 254.028 286.2 249.966 286.196 245.001C286.188 236.55 286.176 235.979 285.992 236.034C285.884 236.066 282.562 237.485 278.611 239.187C262.97 245.922 259.574 247.368 259.39 247.368C259.285 247.368 258.691 247.139 258.069 246.859C257.447 246.579 254.404 245.231 251.305 243.862C248.207 242.493 245.465 241.281 245.212 241.168C241.834 239.657 234.824 236.573 234.767 236.573C234.726 236.573 234.692 240.345 234.692 244.956C234.692 249.567 234.715 253.339 234.742 253.339C234.769 253.339 235.162 253.061 235.615 252.721C237.323 251.437 239.908 250.342 242.194 249.933C243.472 249.705 246.057 249.679 247.454 249.881C250.618 250.339 254.585 251.794 256.898 253.345C257.706 253.887 258.83 254.833 259.489 255.528C259.725 255.777 259.955 255.98 260.001 255.98C260.046 255.98 260.19 255.845 260.321 255.679Z" fill="currentcolor"/>

</svg>
