<svg  viewBox="0 0 1180 580" fill="currentcolor" xmlns="http://www.w3.org/2000/svg">
<path d="M204.731 313.376C194.254 313.016 188.884 312.046 186.763 310.129C185.502 308.989 186.294 307.431 188.772 306.18C191.89 304.606 206.591 302.141 215.114 301.763C217.203 301.67 220.649 301.518 222.773 301.425L226.633 301.257L226.74 302.184C226.89 303.49 228.154 303.493 228.304 302.189L228.41 301.265L232.525 301.435C241.52 301.806 243.572 301.939 248.119 302.445C254.416 303.145 263.839 305.145 266.183 306.279C268.314 307.31 269.159 308.545 268.533 309.714C267.939 310.822 264.928 312 261.257 312.559C254.467 313.594 223.92 314.036 204.731 313.376ZM236.896 312.719C241.123 312.536 246.745 312.383 249.389 312.38C256.095 312.371 263.556 311.313 263.743 310.345C263.955 309.243 255.359 307.344 247.106 306.671C240.132 306.101 226.552 305.581 224.115 305.789C222.832 305.899 218.363 306.14 214.185 306.324C210.007 306.509 204.992 306.886 203.042 307.162C198.789 307.765 194.544 308.654 194.137 309.029C193.816 309.324 194.023 309.296 198.315 308.479C199.894 308.179 202.049 307.888 203.104 307.833C204.159 307.778 205.184 307.633 205.383 307.511C205.581 307.388 205.744 307.467 205.744 307.686C205.744 307.983 205.873 307.978 206.25 307.665C206.691 307.299 206.764 307.545 206.816 309.563C206.858 311.222 206.907 311.449 206.989 310.363C207.17 307.97 207.355 307.477 208.095 307.421C208.702 307.376 208.785 307.574 208.804 309.119C208.821 310.51 208.888 310.713 209.131 310.11C209.299 309.692 209.353 309.132 209.25 308.866C209.148 308.599 209.224 308.106 209.419 307.77C209.692 307.302 209.777 307.744 209.785 309.661C209.798 312.685 210.086 312.602 210.454 309.467C210.669 307.64 210.782 307.331 210.993 307.984C211.241 308.753 211.277 308.764 211.517 308.153C211.677 307.744 211.802 308.449 211.847 310.026L211.921 312.555L212.126 310.642C212.399 308.102 212.823 307.772 212.882 310.054L212.929 311.881L213.143 310.131C213.426 307.805 213.839 307.479 213.882 309.548C213.914 311.098 213.934 311.134 214.18 310.093C214.583 308.395 214.97 308.313 214.693 309.984C214.52 311.032 214.558 311.393 214.823 311.229C215.029 311.102 215.198 310.636 215.198 310.195C215.198 308.593 215.873 308.968 215.921 310.596L215.969 312.218L216.453 309.52L216.501 310.973C216.536 312.044 216.66 312.357 216.971 312.163C217.543 311.804 218.317 311.807 218.828 312.17C219.09 312.355 219.25 312.332 219.25 312.107C219.25 311.902 219.682 311.799 220.242 311.869C220.991 311.964 221.189 311.878 221.05 311.516C220.949 311.253 221.034 311.037 221.24 311.037C221.445 311.037 221.624 311.303 221.637 311.628C221.658 312.137 221.696 312.128 221.919 311.558C222.175 310.904 222.18 310.904 222.56 311.558C222.893 312.131 222.945 312.141 222.954 311.638C222.97 310.708 223.985 311.329 224.199 312.4L224.387 313.341L226.799 313.196C228.125 313.117 232.669 312.902 236.896 312.719ZM208.008 309.608C207.928 309.188 207.859 309.452 207.855 310.194C207.851 310.936 207.917 311.279 208.002 310.957C208.086 310.634 208.089 310.027 208.008 309.608ZM211.039 309.962C210.931 309.693 210.851 309.773 210.835 310.166C210.821 310.522 210.9 310.721 211.013 310.609C211.125 310.497 211.137 310.206 211.039 309.962ZM204.961 308.613C204.854 308.344 204.774 308.424 204.757 308.817C204.743 309.173 204.823 309.372 204.935 309.26C205.047 309.148 205.059 308.857 204.961 308.613ZM188.861 304.676C188.861 303.946 190.453 303.325 194.432 302.502C198.306 301.702 199.72 301.495 208.951 300.38C214.644 299.693 232.608 299.391 239.561 299.867C246.174 300.319 256.915 301.686 261.456 302.653C264.934 303.394 266.494 304.117 265.898 304.712C265.565 305.045 263.959 304.7 260.781 303.612C259.919 303.317 254.102 302.383 247.444 301.471C243.453 300.925 232.79 300.391 227.016 300.45C221.11 300.509 208.396 301.192 206.419 301.556C205.398 301.744 202.891 302.145 200.848 302.448C198.805 302.751 195.69 303.378 193.926 303.843C189.544 304.997 188.861 305.109 188.861 304.676ZM260.903 301.276C260.032 300.294 258.719 299.391 256.945 298.551C255.486 297.861 254.457 297.193 254.659 297.069C254.861 296.944 256.143 296.717 257.506 296.564C260.073 296.276 260.901 295.966 262.661 294.634C263.458 294.032 263.79 293.942 264.096 294.249C264.316 294.468 264.495 294.817 264.495 295.024C264.495 295.232 265.103 296.215 265.846 297.21C266.589 298.204 267.196 299.125 267.196 299.255C267.196 299.386 266.36 299.831 265.339 300.245C264.317 300.66 263.194 301.392 262.844 301.872L262.207 302.745L260.903 301.276ZM191.989 301.611C191.762 301.249 190.796 300.68 189.842 300.346C188.887 300.012 188.033 299.553 187.944 299.324C187.854 299.096 188.254 298.313 188.832 297.584C189.936 296.191 191.079 293.829 190.638 293.849C190.497 293.856 190.001 294.071 189.537 294.327C188.945 294.655 188.569 294.689 188.271 294.443C187.713 293.98 187.733 293.5 188.311 293.5C188.565 293.5 189.743 293.187 190.927 292.805C192.112 292.423 194.753 291.89 196.796 291.622C198.839 291.353 202.485 290.844 204.9 290.49C207.314 290.137 210.505 289.741 211.99 289.611C215.392 289.313 240.015 289.3 242.918 289.594C249.643 290.276 261.003 291.997 263.482 292.71C267.441 293.848 267.357 293.812 266.986 294.183C266.78 294.388 266.239 294.378 265.494 294.153C261.069 292.816 240.68 290.195 239.999 290.875C239.889 290.985 239.991 291.38 240.225 291.754C240.976 292.956 239.614 293.908 238.017 293.296C237.313 293.026 237.331 291.595 238.043 291.197C238.42 290.987 236.921 290.803 233.468 290.636C230.643 290.499 228.249 290.469 228.149 290.57C227.897 290.821 231.194 292.684 233.292 293.476C234.237 293.833 236.119 294.278 237.475 294.466C240.051 294.822 241.505 295.525 239.661 295.522C238.714 295.522 234.388 296.285 231.654 296.936C230.955 297.102 229.871 297.687 229.246 298.236C228.62 298.785 227.845 299.234 227.522 299.234C227.2 299.234 226.424 298.785 225.799 298.236C225.173 297.687 224.089 297.104 223.39 296.939C220.712 296.308 216.25 295.524 215.339 295.524C213.537 295.524 215.025 294.818 217.57 294.466C220.424 294.071 222.712 293.269 225.327 291.746C226.754 290.915 227.033 290.633 226.529 290.528C225.673 290.349 216.587 290.851 217.139 291.046C217.371 291.129 217.561 291.636 217.561 292.173C217.561 292.926 217.374 293.197 216.742 293.356C214.951 293.805 214.085 292.924 214.872 291.455C215.195 290.852 215.1 290.803 213.606 290.811C210.636 290.827 200.842 291.976 194.694 293.029C190.794 293.698 190.742 293.835 193.74 295.553C194.951 296.246 195.904 296.53 197.027 296.532C198.724 296.536 200.482 297.047 200.224 297.462C200.137 297.602 199.267 298.02 198.29 298.391C197.313 298.762 195.721 299.786 194.751 300.667C193.781 301.548 192.855 302.269 192.694 302.269C192.532 302.269 192.215 301.973 191.989 301.611ZM199.25 300.04C198.905 299.284 198.939 299.093 199.491 298.691C200.338 298.072 201.663 298.092 201.908 298.728C202.015 299.007 202.007 299.614 201.891 300.077C201.583 301.303 199.815 301.278 199.25 300.04ZM253.155 300.46C252.741 299.383 253.159 298.393 254.07 298.288C255.26 298.15 256.111 299.018 255.75 300.002C255.413 300.917 253.463 301.262 253.155 300.46ZM204.492 298.969C204.119 298.728 205.2 297.625 206.661 296.754C207.082 296.504 211.986 297.833 211.699 298.119C211.612 298.207 210.426 298.415 209.064 298.584C207.702 298.752 206.208 298.967 205.744 299.061C205.279 299.155 204.716 299.114 204.492 298.969ZM246.093 298.59L242.717 298.025L244.436 297.597C245.382 297.361 246.554 296.962 247.04 296.71C247.855 296.288 248.025 296.332 249.204 297.267C250.542 298.329 250.833 299.021 249.976 299.105C249.697 299.133 247.95 298.901 246.093 298.59ZM203.062 297.767C202.532 296.376 202.625 295.378 203.373 294.43C203.984 293.654 204.344 293.561 207.614 293.338C211.96 293.043 212.497 293.321 212.497 295.868V297.457L210.565 296.82C208.094 296.006 207.833 295.719 209.09 295.199C210.168 294.753 211.025 293.941 210.729 293.645C210.632 293.549 209.776 293.927 208.827 294.486L207.101 295.502L205.588 294.855C204.644 294.451 203.997 294.334 203.867 294.544C203.752 294.729 204.274 295.122 205.027 295.417L206.395 295.954L205.143 296.947C204.455 297.494 203.785 298.113 203.655 298.323C203.511 298.556 203.28 298.34 203.062 297.767ZM214.748 298.334C214.326 297.912 214.521 296.515 215.03 296.32C216.504 295.755 218.172 297.279 217.009 298.129C216.378 298.589 215.118 298.704 214.748 298.334ZM238.074 298.326C237.358 298.14 237.298 297.108 237.971 296.551C239.041 295.664 240.894 296.767 240.417 298.007C240.214 298.537 239.339 298.656 238.074 298.326ZM249.976 296.845C248.748 295.779 248.59 295.525 249.152 295.524C249.978 295.524 251.256 294.666 250.925 294.335C250.797 294.207 250.008 294.364 249.171 294.684C247.693 295.247 247.606 295.243 246.173 294.551C244.514 293.749 244.236 293.694 244.236 294.17C244.236 294.353 244.779 294.729 245.442 295.006C246.105 295.283 246.558 295.654 246.449 295.832C246.225 296.194 242.555 297.33 242.331 297.106C241.993 296.768 242.682 294.158 243.243 293.65C243.77 293.174 244.361 293.129 247.406 293.337C251.478 293.614 252.065 293.967 252.123 296.177C252.177 298.205 251.71 298.35 249.976 296.845ZM198.981 295.169C198.408 294.099 198.703 293.011 199.6 292.884C201.136 292.667 201.92 294.236 200.824 295.331C200.099 296.055 199.424 295.996 198.981 295.169ZM254.122 295.439C253.441 294.561 253.411 293.889 254.026 293.334C255.301 292.181 256.851 293.404 256.127 294.991C255.705 295.916 254.67 296.147 254.122 295.439ZM269.053 293.608C268.682 293.525 267.466 293.165 266.352 292.807C263.297 291.827 257.858 290.813 252.002 290.132C250.609 289.97 248.33 289.637 246.937 289.392C245.065 289.063 240.006 288.947 227.522 288.947C213.197 288.947 210.077 289.035 206.925 289.529C204.883 289.849 202.604 290.174 201.861 290.252C198.438 290.61 193.475 291.526 190.549 292.339C188.785 292.83 186.582 293.254 185.653 293.281L183.965 293.331V292.151C183.965 291.122 184.127 290.892 185.231 290.353C185.928 290.013 186.498 289.622 186.498 289.484C186.498 289.346 183.848 286.847 180.61 283.931C177.371 281.015 174.248 278.09 173.668 277.43C172.689 276.316 172.572 276.27 172.017 276.772C171.122 277.58 170.016 277.427 168.931 276.343C166.991 274.405 167.394 272.51 169.844 272.051C171.159 271.805 172.067 272.424 172.858 274.105L173.335 275.12L173.158 273.956C172.939 272.512 171.79 271.241 170.705 271.241C170.254 271.241 169.367 271.487 168.732 271.788C167.616 272.317 167.535 272.307 166.294 271.487C164.54 270.328 161.255 268.695 159.823 268.27C153.494 266.394 151.462 265.862 149.865 265.662C147.59 265.379 147.395 264.683 149.44 264.148C150.23 263.941 152.25 263.328 153.929 262.785C157.524 261.624 159.035 261.555 160.836 262.473C162.494 263.318 162.476 263.319 162.862 262.304C163.517 260.583 166.907 259.368 166.625 260.955C166.171 263.505 166.23 264.825 166.877 266.666C167.667 268.91 168.419 269.892 169.347 269.892C170.213 269.892 171.068 267.83 171.105 265.651C171.142 263.502 169.797 261.461 168.344 261.461C167.558 261.461 167.507 261.4 167.939 260.976C168.245 260.676 169.301 260.454 170.708 260.394C172.936 260.298 173.004 260.321 173.987 261.469C174.538 262.114 174.996 262.45 175.004 262.215C175.034 261.278 177.141 260.452 179.502 260.451C180.762 260.451 182.316 260.231 182.956 259.964C184.195 259.446 184.827 259.784 184.149 260.6C183.915 260.882 183.806 262.108 183.866 263.77C183.963 266.427 183.944 266.503 182.868 267.612C182.264 268.235 181.77 268.838 181.77 268.953C181.77 269.069 182.287 269.481 182.917 269.871C184.493 270.844 185.098 271.889 185.357 274.088C185.625 276.363 185.127 276.572 183.697 274.782C181.693 272.273 177.522 271.266 175.465 272.793C173.965 273.907 174.09 274.606 176.101 276.335C179.546 279.298 182.071 280.568 187.452 282.042C189.871 282.705 190.098 282.714 191.438 282.203C193.398 281.456 195.443 279.147 196.098 276.945C196.654 275.076 196.752 272.862 196.328 271.781C196.107 271.219 196.021 271.273 195.63 272.216C194.661 274.553 192.507 274.951 190.684 273.13C189.709 272.156 189.536 271.748 189.536 270.421C189.536 268.998 189.64 268.797 190.695 268.175L191.853 267.493L191.032 266.285C190.165 265.008 189.982 263.531 190.559 262.454C190.976 261.677 192.599 260.787 193.597 260.787C194.64 260.787 196.203 262.51 196.475 263.96C196.659 264.941 196.828 265.162 197.259 264.984C199.218 264.175 200.464 264.464 201.363 265.939C202.355 267.562 202.231 269.068 201.008 270.29C200.145 271.152 199.778 271.291 198.644 271.183C197.906 271.112 197.302 271.142 197.302 271.249C197.302 271.356 198.09 272.326 199.052 273.404C200.934 275.514 202.131 276.162 205.948 277.14C208.003 277.666 208.584 277.695 210 277.341C213.409 276.49 216.252 273.876 218.374 269.639C219.078 268.234 219.43 267.869 220.08 267.869C220.53 267.869 220.997 268.028 221.117 268.222C221.237 268.416 220.782 269.744 220.106 271.173C217.837 275.967 212.834 279.673 208.631 279.673C205.786 279.673 202.872 278.855 200.769 277.467C199.796 276.825 198.883 276.3 198.738 276.3C198.594 276.3 198.29 277.08 198.063 278.033C197.449 280.616 195.388 283.166 193.353 283.861C190.969 284.674 187.344 284.87 185.231 284.298C184.256 284.034 183.459 283.869 183.459 283.931C183.459 283.993 184.066 284.353 184.809 284.731C185.816 285.245 186.16 285.625 186.16 286.226C186.16 286.708 186.568 287.375 187.173 287.884C187.73 288.352 188.186 288.87 188.186 289.034C188.186 289.199 189.243 289.065 190.536 288.738C194.185 287.812 202.647 286.458 208.783 285.818C215.778 285.089 237.483 285.003 244.742 285.675C250.818 286.239 259.37 287.551 263.567 288.564C265.377 289.002 266.859 289.24 266.859 289.095C266.859 288.949 267.314 288.375 267.872 287.819C268.444 287.247 268.885 286.449 268.885 285.984C268.885 285.352 269.18 285.036 270.151 284.626L271.417 284.091L270.066 284.327C267.98 284.691 263.817 284.563 262.132 284.083C259.607 283.363 256.757 279.741 256.737 277.228C256.733 276.717 256.58 276.3 256.398 276.3C256.216 276.3 255.235 276.831 254.219 277.481C251.993 278.903 249.23 279.673 246.35 279.673C243.66 279.673 241.24 278.518 238.262 275.816C236.248 273.987 234.531 271.193 233.914 268.739C233.717 267.955 233.791 267.869 234.661 267.872C235.506 267.876 235.773 268.153 236.808 270.113C238.352 273.038 240.362 275.245 242.599 276.474C244.946 277.763 247.364 277.778 251.177 276.529C253.681 275.708 254.05 275.464 255.82 273.464C256.877 272.269 257.742 271.242 257.742 271.182C257.742 271.122 256.969 271.073 256.024 271.073C253.848 271.073 253.015 270.215 253.015 267.974C253.015 266.745 253.204 266.279 254.044 265.441C255.083 264.402 256.019 264.296 257.826 265.01C258.28 265.189 258.417 265.072 258.417 264.51C258.417 262.94 260.121 260.787 261.363 260.787C262.435 260.787 264.055 261.652 264.485 262.454C265.064 263.535 264.879 264.947 263.984 266.262L263.135 267.509L264.148 268.033C266.782 269.393 265.164 274.277 262.08 274.277C260.928 274.277 259.096 272.692 259.087 271.689C259.083 271.168 259.032 271.151 258.755 271.579C258.251 272.357 258.357 275.708 258.938 277.354C259.591 279.206 261.841 281.53 263.648 282.219C264.936 282.71 265.197 282.699 267.592 282.042C272.883 280.593 275.84 279.063 279.352 275.959C280.841 274.642 280.861 274.597 280.358 273.699C279.55 272.254 277.72 271.72 275.376 272.244C273.776 272.602 273.142 272.98 271.606 274.49C269.535 276.525 269.147 276.411 269.538 273.884C269.84 271.936 270.615 270.718 272.117 269.833C272.753 269.458 273.274 269.071 273.274 268.972C273.274 268.874 272.728 268.19 272.062 267.453C270.853 266.117 270.85 266.106 271.079 263.822C271.23 262.328 271.176 261.282 270.926 260.815C270.346 259.733 270.778 259.417 272.089 259.964C272.729 260.231 274.316 260.449 275.615 260.449C277.758 260.449 278.085 260.543 279.129 261.459L280.281 262.469L281.121 261.381C281.942 260.318 282.017 260.295 284.275 260.396C285.547 260.453 286.707 260.573 286.853 260.663C287.352 260.971 287.118 261.461 286.472 261.461C285.694 261.461 284.165 263.194 283.855 264.425C283.596 265.459 284.212 268.734 284.799 269.441C285.579 270.379 286.569 269.807 287.547 267.856C288.767 265.423 289.074 262.956 288.335 261.529C287.791 260.478 287.794 260.462 288.642 260.249C289.75 259.972 292.183 261.502 292.183 262.478C292.183 263.319 292.549 263.318 294.208 262.473C295.952 261.585 297.773 261.621 300.368 262.597C301.536 263.036 303.314 263.571 304.32 263.787C307.502 264.468 307.913 265.313 305.217 265.629C300.734 266.155 291.797 269.37 288.051 271.804C287.174 272.373 287.077 272.374 286.142 271.822C285.6 271.503 284.776 271.241 284.31 271.241C283.138 271.241 281.707 272.996 281.744 274.387L281.773 275.457L282.064 274.485C282.44 273.231 283.683 271.916 284.492 271.916C285.393 271.916 286.999 272.806 287.242 273.44C287.356 273.736 287.146 274.571 286.776 275.296C285.751 277.303 284.249 277.864 282.959 276.722C282.479 276.297 282.251 276.248 282.147 276.546C282.067 276.773 278.884 279.796 275.074 283.262L268.146 289.564L269.612 290.267C270.718 290.797 271.104 291.188 271.182 291.856C271.276 292.667 270.505 293.891 269.958 293.798C269.832 293.777 269.425 293.691 269.053 293.608ZM195.763 267.399C195.978 266.211 195.95 266.136 195.476 266.61C195.187 266.898 194.758 267.201 194.523 267.284C194.211 267.393 194.269 267.629 194.74 268.159C195.505 269.02 195.463 269.052 195.763 267.399ZM260.781 267.479C260.781 267.323 260.561 267.194 260.291 267.194C260.022 267.194 259.647 266.929 259.457 266.604C259.057 265.917 259.005 266.337 259.306 267.839C259.51 268.855 259.549 268.878 260.15 268.334C260.497 268.021 260.781 267.636 260.781 267.479ZM187.862 287.614C187.638 287.345 187.507 286.852 187.571 286.518C187.663 286.039 188.146 285.864 189.878 285.685C194.238 285.233 196.255 284.083 197.988 281.062C199.216 278.92 199.633 278.651 200.363 279.53C201.233 280.577 204.182 281.784 206.282 281.952C208.474 282.128 211.197 281.464 212.834 280.355C214.24 279.403 214.523 279.281 214.523 279.627C214.523 279.809 214.124 280.431 213.637 281.01C213.149 281.589 212.841 282.152 212.952 282.263C213.062 282.373 214.463 281.836 216.065 281.068C220.374 279.003 222.598 279.325 222.171 281.954C221.925 283.466 221.395 284.057 220.286 284.057C219.038 284.057 218.184 283.351 218.121 282.268C218.092 281.768 218.02 281.359 217.961 281.359C217.678 281.359 216.305 282.184 215.704 282.716C214.103 284.135 208.703 284.884 204.694 284.243C203.291 284.019 203.119 284.064 202.953 284.7C202.731 285.548 201.905 285.601 200.174 284.879C198.986 284.383 198.868 284.391 198.191 285.008C196.944 286.145 195.351 286.764 192.87 287.075C191.549 287.241 190.303 287.54 190.103 287.74C189.583 288.259 188.34 288.19 187.862 287.614ZM264.728 287.728C264.391 287.533 263.129 287.233 261.922 287.062C259.615 286.736 258.054 286.103 256.848 285.003C256.138 284.355 256.089 284.354 254.382 284.958L252.64 285.575L252.03 284.768C251.527 284.102 251.249 284.006 250.445 284.218C248.962 284.61 243.438 284.427 241.791 283.931C240.988 283.69 239.667 283.012 238.856 282.426C237.035 281.108 236.808 281.101 236.808 282.359C236.808 283.462 236.053 284.057 234.654 284.057C233.592 284.057 232.756 282.915 232.756 281.464C232.756 279.256 234.904 279.104 238.89 281.029C241.738 282.405 242.609 282.354 241.233 280.892C240.08 279.666 240.383 279.241 241.788 280.114C243.847 281.393 245.823 282.034 247.704 282.032C250.117 282.028 251.647 281.55 253.657 280.17C254.595 279.525 255.499 278.998 255.667 278.998C255.835 278.998 256.163 279.46 256.397 280.024C257.81 283.431 260.537 285.231 264.952 285.672C266.885 285.865 267.38 286.031 267.473 286.518C267.727 287.838 266.129 288.542 264.728 287.728ZM227.134 282.773C226.933 282.644 226.661 282.192 226.528 281.767C226.395 281.342 225.672 280.405 224.921 279.684C223.298 278.127 223.199 277.248 224.441 275.423C224.929 274.706 225.328 273.752 225.328 273.301C225.328 272.71 225.035 273.067 224.273 274.59C223.613 275.911 222.824 276.938 222.163 277.341C221.064 278.01 218.756 278.216 218.422 277.675C218.316 277.504 218.913 276.803 219.749 276.119C221.306 274.845 223.29 271.828 223.316 270.694C223.325 270.346 223.535 269.492 223.783 268.796L224.235 267.532H220.198C216.536 267.532 216.172 267.477 216.274 266.941C216.36 266.485 216.846 266.307 218.409 266.155C220.083 265.993 219.806 265.949 216.802 265.902L213.172 265.845V261.791L241.704 261.967V265.677L237.989 265.854C234.614 266.015 234.475 266.046 236.47 266.191C238.125 266.312 238.665 266.476 238.665 266.857C238.665 267.272 237.962 267.38 234.747 267.458L230.829 267.552L231.147 268.975C231.723 271.554 233.431 274.576 235.147 276.053C236.037 276.819 236.69 277.567 236.598 277.716C236.506 277.865 235.767 277.986 234.957 277.986C233.093 277.986 231.848 276.998 230.744 274.644C230.301 273.7 229.813 272.928 229.659 272.928C229.208 272.928 229.321 273.277 230.392 275.172C230.949 276.158 231.405 277.276 231.405 277.657C231.405 278.037 230.721 279.013 229.886 279.824C229.05 280.635 228.366 281.521 228.366 281.793C228.366 282.451 227.593 283.066 227.134 282.773ZM218.259 261.034C217.092 260.733 216.66 260.203 217.169 259.695C217.599 259.265 236.663 259.106 237.567 259.525C238.361 259.893 238.312 260.344 237.425 260.817C236.579 261.27 219.905 261.458 218.259 261.034ZM207.186 257.439C204.863 254.645 204.562 253.825 204.562 250.308C204.562 247.352 204.64 246.963 205.491 245.678C207.408 242.782 211.564 241.978 214.618 243.912C218.005 246.057 220.867 251.403 221.468 256.707L221.706 258.809L220.4 258.702C219.101 258.595 219.092 258.584 218.535 256.45C217.806 253.657 216.428 251.706 214.518 250.767C211.539 249.302 208.935 250.018 208.105 252.53C207.677 253.827 207.867 255.111 208.813 257.316C209.392 258.666 209.395 258.763 208.855 258.757C208.537 258.753 207.785 258.16 207.186 257.439ZM224.163 258.341C224.092 258.11 223.946 256.622 223.839 255.035C223.47 249.544 221.565 244.236 219.07 241.743C218.412 241.086 216.956 240.086 215.836 239.521L213.798 238.493L216.083 236.15C217.34 234.861 218.422 233.806 218.487 233.806C218.553 233.806 219.302 234.491 220.152 235.328C222.499 237.639 224.306 237.721 223.787 235.493C223.562 234.526 222.031 232.795 221.401 232.795C220.438 232.795 220.686 232.021 222.503 229.36C224.802 225.993 226.067 223.408 226.875 220.429L227.476 218.212L228.254 220.912C229.081 223.782 230.982 227.453 233.133 230.335C233.854 231.301 234.444 232.155 234.444 232.233C234.444 232.312 233.99 232.564 233.434 232.793C232.118 233.338 230.93 235.235 231.209 236.346C231.526 237.606 232.566 237.384 234.409 235.661C235.303 234.827 236.194 234.144 236.39 234.144C236.726 234.144 240.59 237.959 240.779 238.478C240.828 238.612 240.063 239.115 239.079 239.597C238.095 240.079 236.809 240.878 236.22 241.373C233.809 243.399 231.545 249.253 231.216 254.309C230.901 259.15 231.223 258.763 227.505 258.763C225.23 258.763 224.255 258.64 224.163 258.341ZM233.431 257.468C233.431 255.584 234.627 251.213 235.662 249.313C236.871 247.094 239.561 244.136 240.982 243.462C242.413 242.784 245.637 242.744 246.87 243.389C248.271 244.123 249.851 245.974 250.316 247.428C250.905 249.273 250.587 252.862 249.674 254.647C248.758 256.439 246.694 258.763 246.018 258.763C245.666 258.763 245.592 258.586 245.771 258.173C246.728 255.973 247.242 253.964 247.07 253.102C246.794 251.723 245.609 250.375 244.366 250.026C242.713 249.561 239.957 250.641 238.43 252.351C237.233 253.693 237.035 254.127 236.159 257.33C235.795 258.664 235.687 258.763 234.599 258.763C233.47 258.763 233.431 258.72 233.431 257.468Z" fill="currentcolor"/>

</svg>
