<svg  viewBox="0 0 1180 580" fill="currentcolor" xmlns="http://www.w3.org/2000/svg">
<path d="M230.49 211.227C230.263 211.227 230.037 211.289 229.853 211.426C229.162 211.939 229.248 213.037 230.006 213.397C230.283 213.528 230.295 213.552 230.295 213.98C230.295 214.332 230.264 214.436 230.15 214.472C229.9 214.551 229.76 214.872 229.715 215.465L229.672 216.037L228.985 216.018C228.607 216.008 228.168 216.042 228.011 216.094C227.762 216.176 227.724 216.224 227.724 216.456C227.724 216.772 228.092 217.394 228.577 217.894C228.765 218.088 228.894 218.246 228.864 218.246C228.833 218.246 228.619 218.206 228.386 218.156C227.578 217.982 226.408 218.327 225.864 218.899C225.675 219.097 225.614 219.25 225.585 219.596C225.522 220.356 225.968 221.012 227.032 221.723C227.374 221.952 227.678 222.138 227.708 222.138C227.74 222.138 227.752 221.861 227.735 221.522C227.69 220.506 228.091 219.986 228.94 219.957C229.278 219.945 229.343 219.972 229.452 220.162C229.571 220.37 229.563 220.394 229.264 220.741C228.843 221.23 228.356 222.256 228.08 223.235L227.853 224.041L227.642 223.9C223.525 221.168 221.9 220.496 219.613 220.576C218.826 220.604 218.662 220.637 218.17 220.868C217.358 221.25 216.833 221.865 216.4 222.941C216.393 222.952 216.041 222.834 215.61 222.681C214.233 222.189 212.999 222.109 212.296 222.467C211.109 223.072 210.363 225.068 210.626 226.935C210.674 227.275 210.704 227.563 210.692 227.575C210.68 227.587 210.374 227.505 210.012 227.392C209.153 227.126 209.096 227.134 209.644 227.448C210.355 227.854 211.163 228.711 211.34 229.244C211.788 230.596 210.592 232.001 208.683 232.365C207.579 232.576 207.569 232.574 206.716 231.802C206.3 231.426 205.883 231.051 205.791 230.968C205.329 230.554 203.938 229.537 203.209 229.081C201.412 227.953 199.143 227.056 197.078 226.654C196.156 226.475 195.892 226.386 195.296 226.055C191.838 224.136 187.839 222.891 183.735 222.457C182.418 222.318 179.474 222.338 178.18 222.496C176.907 222.651 176.104 222.837 174.532 223.343C170.115 224.764 168.014 226.924 168.553 229.493C168.764 230.497 169.338 231.58 170.131 232.473C170.415 232.792 170.492 232.948 170.532 233.288C170.596 233.833 171.008 234.815 171.447 235.473C171.637 235.759 172.08 236.29 172.432 236.654C172.783 237.018 173.05 237.336 173.025 237.361C173.002 237.385 172.06 237.404 170.936 237.402C169.4 237.398 168.656 237.363 167.951 237.253C164.241 236.674 160.095 234.494 158.143 232.096C156.481 230.052 155.857 228.255 155.936 225.74L155.975 224.513L156.335 223.806C157.47 221.571 159.867 219.548 162.241 218.822C163.681 218.381 165.643 218.244 167.236 218.472C168.67 218.678 170.424 219.215 172.029 219.941C172.585 220.192 173.096 220.419 173.164 220.445C173.233 220.472 173.084 220.28 172.833 220.019C171.44 218.572 169.5 217.612 167.276 217.273C166.2 217.108 163.799 217.154 162.681 217.36C159.868 217.879 157.328 218.844 155.909 219.935C154.681 220.878 153.805 222.241 153.543 223.615C152.966 226.644 154.598 230.649 157.739 233.915C158.84 235.06 159.625 235.643 160.908 236.272C162.941 237.268 165 237.86 167.854 238.27C170.631 238.669 174.087 238.714 177.269 238.393L177.77 238.343L177.921 239.158C178.004 239.607 178.199 240.373 178.354 240.86C179.111 243.227 180.053 244.48 181.844 245.499C185.764 247.732 190.286 247.787 193.548 245.642C195.194 244.559 195.88 242.81 195.422 240.866C195.219 240.008 194.953 239.58 194.36 239.158C193.608 238.621 193.123 238.43 192.396 238.384C191.55 238.332 190.946 238.556 190.364 239.14C189.781 239.726 189.618 240.09 189.618 240.81C189.618 241.313 189.649 241.445 189.849 241.746C190.118 242.152 190.752 242.585 191.077 242.585C191.212 242.585 191.44 242.47 191.65 242.295C192.221 241.818 192.643 241.81 193.071 242.268C193.268 242.479 193.307 242.591 193.307 242.957C193.307 244.233 192.294 245.31 190.37 246.082C189.701 246.351 189.697 246.352 188.249 246.347C186.181 246.341 184.973 246.07 183.191 245.215C182.457 244.862 182.222 244.698 181.693 244.166C180.66 243.127 179.446 241.098 178.608 239.009L178.321 238.293L179.243 238.156C182.428 237.683 189.559 236.256 194.967 235.008C195.674 234.845 196.465 234.67 196.725 234.618L197.199 234.526L197.606 234.85C197.831 235.029 198.923 235.905 200.035 236.799C202.001 238.379 204.324 240.161 205.247 240.797C208.21 242.839 210.357 244.064 211.506 244.369C212.992 244.762 215.366 244.575 217.9 243.864L218.656 243.652L219.218 243.949C220.986 244.887 224.973 245.642 230.431 246.073C231.312 246.142 231.808 246.134 232.919 246.03C237.907 245.567 241.221 244.903 242.899 244.032L243.447 243.747L243.976 243.868C244.467 243.98 245.272 244.091 246.499 244.215C247.147 244.281 248.553 244.126 249.188 243.918C251.595 243.129 255.936 240.175 262.12 235.119L263.218 234.22L265.719 234.774C269.796 235.677 271.858 236.115 274.936 236.732C277.074 237.16 280.889 237.804 282.274 237.971C283.118 238.072 283.822 238.168 283.839 238.183C283.898 238.235 283.167 239.957 282.687 240.896C281.778 242.675 280.784 244.044 279.928 244.695C279.029 245.379 277.723 245.905 276.054 246.256C275.373 246.399 274.894 246.44 273.856 246.444C272.361 246.449 272.047 246.376 270.801 245.729C269.559 245.085 268.858 244.22 268.779 243.232C268.744 242.769 268.76 242.697 268.958 242.461C269.223 242.146 269.646 241.986 269.928 242.094C270.037 242.136 270.247 242.286 270.394 242.428C270.838 242.854 271.412 242.742 272.03 242.11C272.996 241.122 272.426 239.449 270.885 238.746C270.452 238.549 270.326 238.529 269.706 238.561C269.109 238.593 268.926 238.641 268.402 238.906C267.281 239.474 266.832 240.071 266.597 241.306C266.275 242.997 266.982 244.687 268.418 245.661C269.458 246.367 271.073 246.978 272.364 247.154C272.774 247.21 273.166 247.267 273.234 247.28C273.522 247.337 274.404 247.317 275.097 247.238C276.682 247.057 278.016 246.677 279.439 245.999C281.321 245.102 282.293 244.205 283.052 242.665C283.675 241.399 284.03 240.226 284.302 238.536L284.351 238.235L286.579 238.28C292.001 238.391 296.65 237.525 299.935 235.793C301.636 234.896 303.243 233.33 304.707 231.141C306.973 227.752 307.599 224.382 306.408 221.983C305.37 219.892 303.271 218.565 299.414 217.56C295.728 216.6 292.541 216.795 289.852 218.146C289.074 218.537 287.94 219.393 287.491 219.928C287.294 220.163 287.169 220.339 287.213 220.319C287.257 220.298 287.704 220.084 288.206 219.843C289.341 219.299 291.221 218.67 292.476 218.416C293.264 218.256 293.69 218.222 294.923 218.221C296.538 218.221 297.105 218.297 298.293 218.682C300.715 219.466 302.998 221.409 304.127 223.646C304.438 224.264 304.44 224.274 304.48 225.489C304.524 226.848 304.433 227.62 304.11 228.61C302.868 232.417 298.778 235.54 293.417 236.774C292.272 237.038 289.892 237.194 288.379 237.104L287.312 237.041L287.972 236.366C289.087 235.228 289.61 234.347 289.873 233.17C289.989 232.647 290.074 232.472 290.397 232.089C292.852 229.21 292.382 226.424 289.115 224.496C287.613 223.609 284.895 222.685 282.814 222.353C281.696 222.174 278.485 222.102 277.04 222.222C272.719 222.582 268.578 223.878 264.634 226.106C264.03 226.448 263.535 226.749 263.535 226.776C263.535 226.803 263.862 226.814 264.261 226.8L264.987 226.776L266.479 226.039C269.293 224.65 271.851 223.774 274.505 223.289C275.373 223.131 275.806 223.104 277.549 223.104C278.785 223.104 279.888 223.147 280.368 223.213C283.681 223.675 286.49 224.605 287.982 225.733C288.746 226.312 289.123 226.745 289.471 227.447C289.762 228.034 289.777 228.103 289.769 228.855C289.761 229.356 289.715 229.767 289.633 229.977L289.504 230.308L289.377 230.015C289.094 229.36 288.14 228.249 287.165 227.436C285.398 225.964 283.364 225.019 281.114 224.624C280.314 224.484 278.102 224.483 277.3 224.62C275.335 224.962 273.291 225.705 271.89 226.588C271.573 226.788 271.557 226.789 270.728 226.693C269.64 226.566 266.752 226.638 265.691 226.818C263.735 227.151 262.034 227.696 260.367 228.526C258.77 229.321 257.252 230.359 255.713 231.709L254.981 232.352L253.946 232.296C251.338 232.156 250.257 231.791 249.504 230.794C249.332 230.566 249.193 230.361 249.193 230.338C249.193 230.315 249.363 230.111 249.567 229.883C249.987 229.415 250.616 228.196 250.775 227.544C250.834 227.305 250.905 227.109 250.933 227.109C250.96 227.109 251.056 227.057 251.143 226.993C251.294 226.882 251.292 226.878 251.096 226.916L250.891 226.955L250.918 226.349C250.994 224.759 250.392 223.18 249.47 222.546C248.752 222.052 247.568 222.055 246.136 222.553C245.744 222.69 245.403 222.801 245.376 222.801C245.348 222.801 245.26 222.614 245.178 222.386C244.717 221.105 243.089 220.289 241.27 220.428C239.706 220.548 239.198 220.773 235.562 222.951C234.336 223.685 233.301 224.265 233.261 224.241C233.221 224.217 233.188 224.128 233.188 224.045C233.188 223.762 232.769 222.445 232.48 221.82C232.322 221.478 232.063 221.04 231.903 220.846C231.574 220.444 231.543 220.238 231.778 220.025C231.897 219.918 232.021 219.89 232.23 219.924C233.115 220.068 233.472 220.556 233.424 221.562C233.408 221.878 233.416 222.136 233.447 222.136C233.54 222.136 234.48 221.501 234.792 221.228C235.158 220.907 235.503 220.35 235.598 219.926C235.74 219.302 235.171 218.557 234.345 218.283C233.891 218.132 233.055 218.087 232.578 218.187L232.255 218.255L232.667 217.794C233.141 217.263 233.464 216.67 233.426 216.403C233.383 216.111 233.063 216.01 232.176 216.008H231.367V215.462C231.367 214.947 231.351 214.898 231.077 214.625C230.819 214.367 230.787 214.287 230.787 213.898C230.787 213.487 230.803 213.455 231.045 213.354C231.584 213.131 231.793 212.297 231.448 211.741C231.244 211.411 230.862 211.226 230.484 211.224L230.49 211.227ZM230.459 211.573C230.746 211.573 231.104 211.784 231.211 212.04C231.465 212.654 230.974 213.259 230.32 213.136C230.061 213.087 229.717 212.648 229.717 212.367C229.717 212.08 230.053 211.659 230.341 211.587C230.377 211.578 230.418 211.573 230.459 211.573ZM230.727 220.822C230.864 220.822 230.971 220.898 231.14 221.066C231.352 221.278 231.383 221.36 231.339 221.583C231.233 222.112 230.762 222.335 230.323 222.064C229.839 221.765 229.899 221.094 230.429 220.893C230.552 220.847 230.644 220.821 230.727 220.822ZM242.448 221.985C242.883 221.961 243.206 222.38 242.977 222.781C242.834 223.032 242.604 223.128 242.318 223.056C241.826 222.933 241.782 222.19 242.256 222.024C242.322 222.001 242.386 221.988 242.448 221.985ZM219.027 221.998C219.293 222.015 219.51 222.258 219.513 222.608C219.521 222.898 219.277 223.13 218.976 223.13C218.883 223.13 218.723 223.072 218.622 223.001C218.497 222.913 218.438 222.788 218.439 222.608C218.439 222.295 218.497 222.195 218.752 222.062C218.846 222.013 218.939 221.993 219.027 221.998ZM239.604 222.58C239.907 222.58 240.157 222.631 240.345 222.731C240.739 222.942 241.046 224.292 240.952 225.404C240.82 226.986 240.353 228.631 239.623 230.091C238.886 231.566 238.36 232.369 237.274 233.674L236.668 234.402L232.549 234.385L232.819 233.583C233.119 232.691 233.401 231.344 233.526 230.214C233.631 229.263 233.63 227.143 233.518 226.073C233.453 225.423 233.459 225.231 233.542 225.182C235.87 223.792 236.704 223.352 237.71 222.985C238.447 222.716 239.095 222.579 239.599 222.58L239.604 222.58ZM221.952 222.717C222.551 222.717 222.783 222.798 225.467 223.944C227.661 224.88 227.727 224.915 227.683 225.118C227.576 225.614 227.478 227.075 227.476 228.208C227.468 230.537 227.813 232.531 228.51 234.25C228.565 234.386 228.439 234.396 226.528 234.395C224.693 234.394 224.473 234.38 224.342 234.249C224.095 234.002 223.204 232.734 222.727 231.951C221.835 230.488 221.266 229.223 220.902 227.897C220.743 227.318 220.719 227.028 220.723 225.698C220.73 223.96 220.842 223.367 221.256 222.953C221.459 222.75 221.558 222.717 221.952 222.717ZM230.622 223.179C230.967 223.166 231.323 223.399 231.323 223.837C231.323 224.335 230.81 224.659 230.377 224.436C230.114 224.3 229.942 223.947 230.009 223.681C230.092 223.351 230.354 223.19 230.622 223.179ZM183.042 223.288C183.829 223.284 184.563 223.324 185.189 223.407C187.598 223.725 190.333 224.573 193.148 225.877L193.935 226.241L192.319 226.34C191.43 226.395 190.22 226.523 189.632 226.624L188.561 226.809L187.434 226.248C184.123 224.598 180.721 224.267 177.561 225.288C175.096 226.084 172.54 227.944 171.342 229.815C171.136 230.135 170.943 230.4 170.912 230.402C170.881 230.406 170.819 230.286 170.773 230.138C170.291 228.586 170.94 227.034 172.551 225.886C173.641 225.11 175.734 224.276 177.622 223.866C179.314 223.498 181.308 223.294 183.042 223.288ZM245.575 223.791L245.832 223.844C246.955 224.074 247.418 225.022 247.231 226.708C247.124 227.663 246.936 228.115 246.141 229.322C245.449 230.373 243.835 232.476 242.549 234.004L242.219 234.396L241.313 234.392C240.815 234.388 240.408 234.374 240.408 234.359C240.408 234.343 240.773 233.964 241.22 233.516C243.868 230.861 245.358 227.807 245.527 224.685L245.575 223.791ZM215.968 223.875H216.241L216.249 225.221C216.256 226.422 216.28 226.646 216.479 227.311C216.776 228.312 217.559 229.886 218.189 230.749C218.829 231.626 220.423 233.21 221.273 233.813C221.625 234.064 221.915 234.297 221.915 234.331C221.915 234.366 221.347 234.393 220.652 234.393C219.664 234.393 219.369 234.368 219.304 234.277C219.259 234.213 218.865 233.738 218.428 233.221C216.675 231.144 215.27 229.221 214.717 228.139C214.254 227.235 214.155 225.535 214.523 224.82C214.818 224.244 215.384 223.874 215.967 223.875L215.968 223.875ZM243.243 224.882C243.432 224.878 243.627 224.942 243.8 225.087C244.292 225.501 244.185 226.252 243.599 226.496C243.443 226.561 243.306 226.611 243.293 226.607C243.281 226.603 243.163 226.568 243.033 226.529C242.688 226.425 242.493 226.217 242.43 225.885C242.325 225.319 242.761 224.888 243.243 224.882ZM218.14 224.893C218.403 224.897 218.828 225.124 218.925 225.337C219.296 226.152 218.536 226.903 217.765 226.484C217.133 226.141 217.307 225.137 218.039 224.906C218.066 224.896 218.102 224.893 218.14 224.893ZM230.793 225.476C230.832 225.476 230.866 225.493 230.899 225.526C230.966 225.593 230.926 225.617 230.746 225.615C230.531 225.611 230.52 225.601 230.654 225.524C230.709 225.492 230.754 225.476 230.793 225.476ZM276.659 225.721C277.722 225.725 279.536 225.853 280.498 226.006C283.779 226.529 286.089 227.9 287.049 229.895C287.422 230.67 287.582 231.309 287.638 232.256C287.724 233.709 287.313 234.897 286.323 236.052C285.656 236.831 285.442 236.953 284.848 236.895L284.392 236.851L284.337 236.354C284.114 234.338 283.07 232.343 281.423 230.79C279.54 229.013 277.024 227.86 273.284 227.057L272.952 226.986L273.671 226.593C274.924 225.909 275.342 225.769 276.254 225.728C276.37 225.722 276.507 225.72 276.659 225.721ZM229.878 225.798L230.314 225.964C230.732 226.123 230.857 226.125 231.506 225.987C231.755 225.935 231.773 225.949 231.912 226.312C232.036 226.64 232.042 226.744 231.954 227.059C231.74 227.825 230.957 228.211 230.245 227.901C229.94 227.769 229.675 227.45 229.548 227.067C229.446 226.757 229.532 226.288 229.753 225.977L229.878 225.798ZM183.737 225.955C184.826 225.951 185.277 226.087 186.242 226.559C186.757 226.811 187.179 227.046 187.179 227.081C187.179 227.117 187.001 227.196 186.785 227.258C184.343 227.957 182.249 229.06 180.743 230.44C179.046 231.996 177.939 234.18 177.74 236.362L177.683 236.993L177.186 237.047C176.912 237.077 176.296 237.127 175.818 237.158L174.947 237.213L174.444 236.688C173.627 235.836 173.325 235.355 173.018 234.42C172.559 233.023 172.795 231.123 173.595 229.759C173.747 229.501 174.17 228.992 174.535 228.627C176.186 226.981 178.85 226.133 182.868 225.976C183.201 225.963 183.486 225.955 183.737 225.955ZM192.319 227.644C194.396 227.644 194.938 227.725 196.693 228.299C198.215 228.796 200.544 230.027 202.227 231.225C203.402 232.063 204.092 232.592 204.092 232.659C204.092 232.7 203.877 232.735 203.615 232.736C203.353 232.736 202.261 232.808 201.19 232.894C199.612 233.019 199.06 233.097 198.288 233.304C197.763 233.444 197.331 233.559 197.328 233.559C197.32 233.559 197.176 233.436 196.996 233.285C196.097 232.527 192.608 229.756 191.38 228.824C190.049 227.815 189.997 227.764 190.22 227.706C190.349 227.672 191.293 227.644 192.319 227.644ZM269.573 227.866C269.791 227.87 269.924 227.887 269.921 227.924C269.913 227.959 269.735 228.106 269.512 228.252C269.033 228.567 266.559 230.493 264.569 232.099C263.79 232.729 263.118 233.242 263.077 233.24C263.035 233.237 262.591 233.128 262.089 232.995C261.435 232.821 260.796 232.724 259.83 232.651C259.089 232.595 258.483 232.526 258.483 232.497C258.483 232.469 258.94 232.125 259.498 231.734C262.718 229.479 265.3 228.342 268.017 227.981C268.612 227.902 269.21 227.861 269.573 227.866ZM188.569 227.927C188.804 227.927 192.367 230.485 194.066 231.875C194.504 232.232 195.182 232.785 195.574 233.104C195.966 233.423 196.289 233.708 196.292 233.737C196.3 233.8 192.517 234.539 190.41 234.885C189.567 235.024 188.037 235.302 187.011 235.503C184.141 236.065 181.561 236.487 178.772 236.851L178.203 236.925L178.258 236.338C178.447 234.334 179.277 232.586 180.682 231.231C182.249 229.72 184.336 228.764 187.437 228.138C188.013 228.022 188.523 227.927 188.569 227.927ZM271.377 227.953L272.413 228.075C275.857 228.48 278.301 229.251 280.273 230.552C281.78 231.547 282.86 232.935 283.443 234.624C283.603 235.09 283.853 236.327 283.853 236.655C283.853 236.825 283.869 236.825 282.941 236.714C279.945 236.356 276.278 235.775 273.323 235.192C272.298 234.99 270.544 234.669 269.427 234.479C267.048 234.075 264.307 233.541 264.234 233.468C264.177 233.412 264.253 233.343 265.772 232.1C267.408 230.759 269.639 229.093 270.921 228.252L271.377 227.953ZM242.289 228.261C242.562 228.273 242.813 228.5 242.813 228.856C242.813 229.188 242.384 229.483 242.066 229.371C241.896 229.31 241.656 229.002 241.654 228.84C241.654 228.766 241.729 228.608 241.825 228.489C241.955 228.323 242.126 228.253 242.289 228.261ZM219.219 228.265C219.46 228.265 219.763 228.594 219.763 228.855C219.763 229.122 219.48 229.425 219.23 229.425C219.123 229.425 218.95 229.356 218.846 229.272C218.455 228.956 218.711 228.265 219.219 228.265ZM230.678 228.847C231.168 228.848 231.444 229.242 231.287 229.717C231.142 230.156 230.642 230.299 230.272 230.008C229.997 229.792 229.926 229.487 230.081 229.188C230.214 228.93 230.359 228.847 230.678 228.847ZM212.059 230.215C212.13 230.18 212.748 230.755 214.166 232.173C215.328 233.335 216.279 234.311 216.279 234.34C216.279 234.369 215.85 234.393 215.326 234.393L214.373 234.392V236.463C214.373 237.602 214.345 238.532 214.31 238.53C214.274 238.527 213.554 237.923 212.706 237.184C211.858 236.446 210.614 235.338 209.942 234.723C209.27 234.108 208.593 233.498 208.437 233.369C208.281 233.239 208.175 233.099 208.201 233.058C208.228 233.017 208.442 232.983 208.679 232.983C209.709 232.984 210.879 232.428 211.425 231.679C211.729 231.262 212.052 230.516 212.052 230.231C212.052 230.222 212.051 230.217 212.059 230.215ZM230.614 230.847C231.797 230.838 232.475 232.221 231.678 233.127C231.232 233.634 230.535 233.798 230.002 233.52C229.447 233.231 229.214 232.84 229.215 232.2C229.215 231.455 229.728 230.916 230.498 230.852C230.537 230.849 230.576 230.847 230.614 230.847ZM248.698 230.922C248.722 230.922 248.846 231.089 248.975 231.293C249.412 231.983 250.297 232.504 251.288 232.653C251.574 232.696 252.405 232.758 253.135 232.79L254.461 232.848L254.005 233.261C250.908 236.065 247.389 239.12 247.257 239.12C247.23 239.12 247.205 238.058 247.205 236.76V234.4L245.175 234.399L246.915 232.661C247.872 231.704 248.674 230.922 248.697 230.922H248.698ZM240.802 231.01C241.077 231.005 241.278 231.21 241.304 231.551C241.319 231.754 241.284 231.923 241.22 231.977C241.045 232.122 240.712 232.162 240.51 232.062C240.121 231.872 240.182 231.196 240.601 231.049C240.671 231.024 240.738 231.011 240.802 231.01ZM220.645 231.006C220.763 230.995 220.861 231.046 220.99 231.167C221.367 231.517 221.136 232.157 220.633 232.157C220.539 232.157 220.38 232.099 220.278 232.028C220.153 231.94 220.094 231.815 220.096 231.635C220.096 231.324 220.154 231.222 220.4 231.093C220.496 231.043 220.574 231.013 220.645 231.006ZM257.644 233.264C257.709 233.264 257.783 233.272 257.879 233.285C258.919 233.425 261.858 233.916 261.994 233.972C262.119 234.024 261.836 234.285 260.46 235.399C256.557 238.553 252.276 241.828 251.35 242.37C250.671 242.766 249.701 243.143 248.924 243.311C248.342 243.436 246.464 243.535 246.043 243.462C245.929 243.442 245.558 243.385 245.219 243.334C244.88 243.284 244.555 243.225 244.496 243.202C244.437 243.18 245.014 242.744 245.776 242.234C248.378 240.494 251.887 237.82 255.456 234.856C255.958 234.44 256.618 233.904 256.925 233.665C257.33 233.35 257.448 233.265 257.644 233.264ZM204.715 233.313C205.044 233.313 205.001 233.281 207.781 235.601C210.961 238.255 215.165 241.429 217.208 242.718C217.422 242.853 217.599 242.991 217.601 243.023C217.609 243.117 216.376 243.477 215.416 243.662C214.591 243.821 212.715 243.889 212.173 243.78C212.082 243.762 211.784 243.704 211.51 243.651C210.489 243.456 209.212 242.866 208.192 242.116C207.745 241.788 205.776 240.29 204.588 239.375C204.103 239.001 199.274 235.131 198.759 234.704C198.465 234.46 198.32 234.289 198.386 234.266C198.743 234.139 204.231 233.313 204.715 233.313ZM218.21 236.298C219.099 236.298 219.832 236.541 220.303 236.992C220.63 237.305 220.673 237.388 220.673 237.706C220.673 238.022 220.629 238.107 220.318 238.404C220.122 238.589 219.777 238.81 219.551 238.895C219.015 239.096 217.635 239.153 217.095 238.997C216.231 238.748 215.615 238.213 215.615 237.713C215.615 236.927 216.77 236.297 218.21 236.298ZM243.434 236.315C244.577 236.297 245.586 236.696 245.919 237.315C246.072 237.6 246.075 237.647 245.961 237.977C245.826 238.368 245.3 238.788 244.733 238.958C244.213 239.114 242.907 239.133 242.403 238.992C241.521 238.745 240.965 238.249 240.965 237.709C240.973 236.989 241.903 236.408 243.204 236.324C243.281 236.319 243.357 236.317 243.434 236.315ZM235.194 236.335C235.666 236.341 236.119 236.395 236.412 236.496C236.913 236.671 237.465 237.15 237.548 237.484C237.686 238.032 237.202 238.641 236.42 238.902C235.81 239.106 234.529 239.154 233.962 238.994C233.448 238.85 232.95 238.551 232.706 238.241C232.264 237.68 232.67 236.901 233.593 236.537C233.952 236.396 234.587 236.327 235.194 236.335ZM226.643 236.341C227.513 236.345 227.641 236.363 228.107 236.577C228.839 236.914 229.089 237.201 229.089 237.708C229.089 238.216 228.836 238.504 228.106 238.832C227.681 239.023 227.458 239.065 226.767 239.087C226.253 239.104 225.796 239.073 225.565 239.006C224.606 238.729 224.072 238.253 224.072 237.673C224.072 237.397 224.127 237.295 224.428 237.009C224.963 236.499 225.49 236.34 226.643 236.341ZM239.233 237.047C239.728 237.048 239.969 237.741 239.582 238.054C239.327 238.26 239.063 238.246 238.846 238.015C238.492 237.638 238.728 237.047 239.233 237.047ZM230.768 237.048C231.042 237.048 231.148 237.113 231.274 237.352C231.416 237.623 231.39 237.778 231.165 238.003C230.91 238.258 230.621 238.262 230.388 238.014C230.037 237.64 230.271 237.045 230.768 237.048ZM222.386 237.048C222.478 237.044 222.565 237.066 222.63 237.109C222.754 237.192 222.912 237.503 222.912 237.665C222.912 237.849 222.539 238.205 222.346 238.205C222.259 238.205 222.089 238.128 221.969 238.033C221.692 237.816 221.681 237.472 221.942 237.226C222.061 237.114 222.231 237.051 222.385 237.048H222.386ZM223.504 240.768L225.684 240.815L225.746 241.187C225.977 242.565 227.036 243.911 228.424 244.589C229.019 244.88 229.057 244.912 228.797 244.902C228.637 244.897 228.414 244.877 228.299 244.859C228.185 244.84 227.598 244.75 226.993 244.657C225.232 244.387 221.466 243.381 220.683 242.972C220.493 242.872 220.503 242.861 221.014 242.596C221.653 242.267 222.656 241.565 223.145 241.105L223.504 240.768ZM219.594 240.772C220.871 240.772 221.916 240.801 221.915 240.835C221.915 240.902 221.824 240.959 220.465 241.739C219.963 242.026 219.514 242.262 219.466 242.262C219.419 242.262 219.045 242.048 218.636 241.786C217.5 241.058 217.275 240.901 217.274 240.834C217.274 240.8 218.317 240.772 219.594 240.772ZM230.755 240.776H235.2L235.147 241.004C235.119 241.129 234.959 241.508 234.794 241.845C233.969 243.546 231.879 244.586 229.978 244.249C228.383 243.965 227.054 242.854 226.488 241.33C226.39 241.066 226.31 240.833 226.31 240.812C226.31 240.791 228.31 240.775 230.755 240.776ZM235.872 240.776L236.597 240.776C237.311 240.776 237.328 240.781 237.682 241.079C237.881 241.246 238.296 241.547 238.605 241.748C239.194 242.131 240.952 243.011 241.131 243.012C241.188 243.012 241.234 243.045 241.234 243.085C241.234 243.277 238.017 244.207 235.768 244.665C234.769 244.869 232.879 245.082 232.155 245.074L231.658 245.067L232.143 244.95C233.431 244.639 234.81 243.526 235.369 242.349C235.529 242.006 235.711 241.513 235.768 241.252L235.872 240.776ZM242.064 240.776C243.705 240.776 245.049 240.794 245.049 240.816C245.049 240.9 242.535 242.515 242.406 242.513C242.332 242.509 241.935 242.359 241.524 242.173C240.619 241.761 239.085 240.923 239.082 240.837C239.082 240.803 240.422 240.776 242.064 240.776Z" fill="currentcolor"/>
<path d="M284.376 299.9C284.376 299.747 278.91 300.381 271.654 307.684C272.695 305.918 273.566 304.099 274.259 302.256C282.472 299.978 283.976 296.513 285.855 290.348C285.059 291.942 279.536 293.305 278.115 295.865C276.999 297.871 275.813 299.802 274.779 300.763C275.322 299.075 275.721 297.38 275.963 295.701C275.998 295.427 276.032 295.155 276.062 294.888C278.735 293.547 284.994 289.118 285.401 280.74C284.199 282.54 279.707 282.304 276.281 292.033C276.36 290.066 276.298 288.164 276.158 286.33C278.764 284.178 283.802 277.831 282.895 264.994C281.871 266.984 276.52 273.749 276.293 278.354C276.201 280.219 276.007 281.717 275.806 282.845C275.764 282.49 275.72 282.137 275.674 281.79C275.444 280.022 275.102 278.352 274.68 276.783C275.007 274.936 275.887 272.26 277.546 270.11C279.65 267.381 278.968 264.994 278.228 263.403C277.488 261.811 277.887 258.23 277.887 258.23C277.887 258.23 272.858 263.263 274.138 274.949C273.651 273.444 273.093 272.041 272.49 270.75C272.386 269.259 272.23 267.672 273.276 265.45C274.644 262.551 276.178 258.116 272.48 251.465C272.422 254.079 270.147 258.457 270.431 261.811C270.644 264.318 271.047 266.858 271.522 268.809C270.786 267.44 270.011 266.244 269.246 265.165C269.07 263.37 269.898 260.87 269.805 256.522C269.69 251.237 267.356 250.101 266.788 247.257C264.732 252.767 265.861 259.114 267.529 262.879C267.36 262.663 267.194 262.454 267.03 262.245C266.459 261.52 265.921 260.837 265.448 260.17C265.474 256.228 264.162 252.372 263.203 250.669C262.178 248.849 259.047 247.315 258.99 245.779C258.221 251.44 260.961 255.295 263.458 258.111C263.47 258.137 263.48 258.162 263.491 258.188C258.931 253.886 253.698 256.465 253.698 256.465C253.698 256.465 256.941 259.482 259.616 259.706C262.179 259.925 263.436 259.728 264.887 260.559C265.339 261.194 265.845 261.843 266.382 262.524C262.87 260.607 257.724 262.456 255.689 263.743C258.65 266.073 261.553 265.506 263.203 264.426C264.67 263.465 266.361 264.347 267.439 263.875C268.308 265.004 269.22 266.253 270.102 267.709C270.905 269.109 271.676 270.686 272.364 272.438C270.446 269.766 267.146 266.495 263.032 266.417C263.146 268.12 265.081 271.417 267.756 272.953C269.936 274.204 272.227 274.7 273.495 275.793C274.031 277.679 274.456 279.723 274.715 281.923C274.715 281.947 274.715 281.975 274.727 282C272.253 275.825 265.446 273.049 263.605 272.897C263.605 272.897 266.62 275.114 266.848 277.955C267.077 280.8 269.752 282.332 272.198 283.13C273.611 283.589 274.55 284.712 275.08 285.634C275.267 288.153 275.322 290.809 275.08 293.527C274.312 281.766 266.226 281.765 266.226 281.765C266.226 281.765 267.478 282.788 267.706 284.835C267.933 286.882 268.446 288.585 270.95 291.315C272.937 293.479 274.096 296.215 274.293 298.245C273.563 301.124 272.376 304.005 270.766 306.758C272.201 303.103 273.141 297.939 271.236 293.533C270.95 296.09 267.081 299.9 267.081 303.083C267.081 305.797 268.195 309.418 267.256 311.728C266.772 312.31 266.268 312.877 265.745 313.435C266.007 311.764 265.819 309.344 266.169 307.632C265.261 308.994 264.71 312.636 264.081 315.108C262.928 316.199 261.695 317.231 260.39 318.197C263.513 314.538 265.104 308.59 264.406 303.064C262.129 305.261 259.093 309.811 258.941 313.374C258.819 316.231 257.575 318.989 256.656 320.634C256.437 320.76 256.22 320.886 255.998 321.009C255.317 321.378 254.623 321.727 253.915 322.054C257.315 318.977 258.183 313.471 258.183 311.023C254.344 313.698 250.235 319.961 249.733 323.625C249.012 323.833 248.281 324.013 247.541 324.155C244.58 324.697 241.34 324.738 238.656 323.341L238.497 323.644L238.337 323.948L238.018 324.553C241.141 326.162 244.657 326.064 247.797 325.493C248.955 325.266 250.084 324.961 251.181 324.596C252.59 326.926 256.366 328.98 258.789 328.76C261.293 328.533 263.799 327.32 265.468 327.85C263.265 324.212 259.473 323.15 256.969 323.985C254.736 324.729 253.229 324.987 252.066 324.282C253.659 323.693 255.185 322.981 256.641 322.185C256.836 322.077 257.025 321.966 257.217 321.856C260.229 323.697 264.046 323.373 266.606 322.545C269.414 321.636 270.476 318.831 272.753 317.618C266.91 316.102 263.722 318.148 262.357 319.436C261.282 320.451 259.738 321.226 258.351 321.182C260.653 319.754 262.766 318.122 264.671 316.341C266.296 316.311 269.739 317.359 272.26 315.305C269.837 314.531 267.893 314.267 266.246 314.784C266.78 314.23 267.294 313.662 267.788 313.085C269.673 313.167 273.111 314.331 275.731 312.86C278.976 311.044 282.391 307.914 282.391 307.914C282.391 307.914 277.951 307.744 275.56 308.372C277.894 307.063 284.384 300.069 284.384 299.9" fill="currentcolor"/>
<path d="M176.054 299.9C176.054 299.747 181.52 300.381 188.774 307.684C187.735 305.918 186.864 304.099 186.17 302.256C177.956 299.978 176.454 296.513 174.574 290.348C175.37 291.942 180.892 293.305 182.314 295.865C183.43 297.871 184.615 299.802 185.651 300.763C185.106 299.075 184.706 297.38 184.466 295.701C184.43 295.427 184.396 295.155 184.366 294.888C181.694 293.547 175.435 289.118 175.029 280.74C176.229 282.54 180.72 282.304 184.149 292.033C184.069 290.066 184.132 288.164 184.271 286.33C181.666 284.178 176.626 277.831 177.534 264.994C178.558 266.984 183.908 273.749 184.136 278.354C184.229 280.219 184.423 281.717 184.623 282.845C184.667 282.49 184.71 282.137 184.755 281.79C184.987 280.022 185.328 278.352 185.75 276.783C185.423 274.936 184.543 272.26 182.884 270.11C180.778 267.381 181.461 264.994 182.201 263.403C182.94 261.811 182.543 258.23 182.543 258.23C182.543 258.23 187.572 263.263 186.292 274.949C186.779 273.444 187.336 272.041 187.938 270.75C188.043 269.259 188.201 267.672 187.153 265.45C185.786 262.551 184.25 258.116 187.949 251.465C188.006 254.079 190.283 258.457 189.999 261.811C189.786 264.318 189.382 266.858 188.906 268.809C189.644 267.44 190.416 266.244 191.183 265.165C191.36 263.37 190.53 260.87 190.624 256.522C190.738 251.237 193.071 250.101 193.641 247.257C195.697 252.767 194.568 259.114 192.9 262.879C193.07 262.663 193.236 262.454 193.399 262.245C193.971 261.52 194.509 260.837 194.983 260.17C194.956 256.228 196.267 252.372 197.227 250.669C198.25 248.849 201.382 247.315 201.439 245.779C202.208 251.44 199.468 255.295 196.971 258.111C196.959 258.137 196.951 258.162 196.938 258.188C201.497 253.886 206.732 256.465 206.732 256.465C206.732 256.465 203.487 259.482 200.812 259.706C198.25 259.925 196.992 259.728 195.543 260.559C195.089 261.194 194.584 261.843 194.048 262.524C197.559 260.607 202.706 262.456 204.741 263.743C201.78 266.073 198.877 265.506 197.227 264.426C195.759 263.465 194.068 264.347 192.991 263.875C192.122 265.004 191.21 266.253 190.326 267.709C189.525 269.109 188.752 270.686 188.065 272.438C189.983 269.766 193.282 266.495 197.398 266.417C197.283 268.12 195.349 271.417 192.674 272.953C190.494 274.204 188.202 274.7 186.935 275.793C186.397 277.679 185.971 279.723 185.713 281.923C185.713 281.947 185.702 281.975 185.702 282C188.174 275.825 194.982 273.049 196.824 272.897C196.824 272.897 193.807 275.114 193.579 277.955C193.352 280.8 190.675 282.332 188.229 283.13C186.816 283.589 185.877 284.712 185.347 285.634C185.16 288.153 185.106 290.809 185.347 293.527C186.115 281.766 194.201 281.765 194.201 281.765C194.201 281.765 192.949 282.788 192.721 284.835C192.494 286.882 191.981 288.585 189.477 291.315C187.49 293.479 186.33 296.215 186.135 298.245C186.864 301.124 188.051 304.005 189.662 306.758C188.226 303.103 187.286 297.939 189.191 293.533C189.477 296.09 193.347 299.9 193.347 303.083C193.347 305.797 192.233 309.418 193.17 311.728C193.656 312.31 194.159 312.877 194.682 313.435C194.42 311.764 194.61 309.344 194.257 307.632C195.166 308.994 195.717 312.636 196.346 315.108C197.499 316.199 198.732 317.231 200.036 318.197C196.915 314.538 195.321 308.59 196.022 303.064C198.299 305.261 201.333 309.81 201.486 313.374C201.607 316.231 202.852 318.989 203.771 320.634C203.99 320.76 204.207 320.886 204.43 321.009C205.11 321.378 205.804 321.727 206.511 322.054C203.112 318.977 202.245 313.471 202.245 311.023C206.082 313.698 210.194 319.961 210.693 323.625C211.415 323.833 212.147 324.013 212.886 324.154C215.847 324.697 219.088 324.738 221.771 323.341L221.932 323.643L222.089 323.947L222.408 324.552C219.287 326.162 215.77 326.064 212.631 325.493C211.472 325.266 210.346 324.961 209.246 324.596C207.839 326.926 204.062 328.98 201.638 328.76C199.132 328.533 196.628 327.32 194.959 327.85C197.16 324.212 200.954 323.15 203.458 323.985C205.693 324.729 207.2 324.987 208.36 324.282C206.768 323.693 205.242 322.981 203.787 322.184C203.591 322.077 203.403 321.966 203.21 321.856C200.199 323.697 196.38 323.373 193.821 322.545C191.013 321.636 189.949 318.831 187.674 317.618C193.517 316.102 196.705 318.148 198.07 319.436C199.145 320.45 200.69 321.226 202.075 321.181C199.774 319.754 197.663 318.122 195.756 316.341C194.131 316.311 190.691 317.359 188.167 315.305C190.591 314.53 192.536 314.267 194.18 314.784C193.649 314.229 193.133 313.662 192.639 313.084C190.755 313.167 187.316 314.331 184.694 312.86C181.451 311.044 178.037 307.914 178.037 307.914C178.037 307.914 182.477 307.744 184.867 308.372C182.534 307.063 176.044 300.069 176.044 299.9" fill="currentcolor"/>
<path d="M215.202 266.931C215.463 267.387 216.285 267.712 217.669 267.907C218.028 267.972 218.312 268.013 218.524 268.029C218.817 265.834 219.159 263.134 219.55 259.93C220.95 260.174 221.796 260.443 222.09 260.735C222.139 260.784 221.618 263.297 220.526 268.273C223.36 268.598 225.175 268.672 225.973 268.493L226.022 269.029C225.257 269.68 223.294 270.038 220.136 270.103C219.566 272.981 219.281 275.331 219.281 277.153C219.477 279.625 220.356 280.869 221.919 280.885C222.489 280.885 223.018 280.722 223.506 280.397C223.978 280.072 224.215 279.738 224.215 279.397L224.825 279.543C224.825 280.031 224.377 280.641 223.482 281.373C222.342 282.284 221.105 282.479 219.77 281.958C218.353 281.259 217.628 279.486 217.596 276.64C217.58 275.437 217.792 273.258 218.231 270.103C216.993 270.07 216.22 269.981 215.911 269.834C215.504 269.639 215.227 269.216 215.081 268.566C214.95 267.932 214.991 267.387 215.202 266.931Z" fill="currentcolor"/>
<path d="M227.607 257.418C228.421 258.816 229.203 259.589 229.952 259.735C228.34 267.769 227.802 272.754 228.34 274.689C228.275 274.705 228.413 274.42 228.755 273.835C229.13 273.201 229.561 272.542 230.049 271.859C231.433 269.956 232.443 268.989 233.078 268.956C233.876 268.907 234.38 269.143 234.592 269.664C234.69 269.924 234.714 270.184 234.665 270.444C233.363 276.348 233.249 279.568 234.323 280.104C235.105 280.316 235.878 279.779 236.644 278.494L236.717 278.738C236.082 280.088 235.39 280.966 234.641 281.373C233.534 281.975 232.492 281.389 231.515 279.616C230.701 278.12 230.945 275.209 232.247 270.883C232.166 270.786 231.596 271.444 230.538 272.859C229.17 274.681 228.202 276.933 227.632 279.616C227.257 281.422 227.111 282.471 227.192 282.763L225.482 281.544C225.564 281.592 225.922 277.681 226.557 269.81C227.208 261.923 227.485 257.784 227.387 257.393L227.607 257.418Z" fill="currentcolor"/>
<path d="M239.899 276.421C240.875 276.47 241.975 275.526 243.196 273.591C243.733 272.762 244.01 272.054 244.026 271.469C244.059 270.802 243.733 270.404 243.049 270.273C242.137 270.095 241.291 271.095 240.509 273.274C240.216 274.055 240.012 274.795 239.899 275.494C239.768 276.177 239.768 276.486 239.899 276.421ZM239.947 277.275C239.866 278.576 240.338 279.673 241.364 280.568C242.536 281.576 243.749 281.137 245.003 279.251C245.101 279.104 245.108 278.722 245.026 278.104L244.929 277.25C245.873 277.153 246.475 277.397 246.736 277.982C246.736 278.389 246.508 278.966 246.052 279.714C245.303 280.95 244.196 281.698 242.73 281.958C240.825 282.284 239.319 281.584 238.212 279.86C237.317 278.478 236.918 277.055 237.015 275.591C237.194 272.924 238.359 270.997 240.508 269.81C241.404 269.322 242.267 269.135 243.097 269.249C243.96 269.363 244.595 269.802 245.002 270.566C245.995 272.404 245.556 274.12 243.683 275.713C242.999 276.299 242.258 276.746 241.46 277.055C240.712 277.364 240.207 277.437 239.946 277.275H239.947Z" fill="currentcolor"/>
<path d="M210.548 283.638C211.492 283.638 212.412 284.003 213.308 284.735C212.836 291.387 212.51 295.745 212.331 297.811C212.738 296.087 213.69 295.054 215.188 294.713C215.807 294.566 216.475 294.713 217.191 295.152C217.94 295.607 218.526 296.257 218.95 297.103C220.041 299.299 219.707 301.779 217.948 304.543C215.897 307.292 213.935 308.072 212.062 306.885C211.362 306.446 210.809 305.788 210.401 304.909C210.011 304.096 209.872 303.372 209.986 302.738C210.214 301.551 210.402 298.046 210.548 292.224C210.695 286.484 210.695 283.621 210.548 283.638ZM212.209 300.982C211.834 304.495 212.396 306.316 213.894 306.446C214.415 306.495 214.961 306.113 215.53 305.3C216.051 304.552 216.491 303.6 216.849 302.445C217.68 299.665 217.606 297.835 216.629 296.957C215.473 296.127 214.431 296.347 213.503 297.615C212.787 298.607 212.355 299.73 212.209 300.982Z" fill="currentcolor"/>
<path d="M223.228 301.519C224.205 301.567 225.304 300.624 226.525 298.689C227.062 297.859 227.339 297.152 227.355 296.567C227.388 295.9 227.062 295.501 226.378 295.371C225.466 295.192 224.62 296.193 223.838 298.372C223.545 299.152 223.341 299.892 223.228 300.592C223.097 301.275 223.097 301.584 223.228 301.519ZM223.276 302.372C223.195 303.69 223.643 304.804 224.62 305.714C225.759 306.788 227.054 306.454 228.503 304.714C228.731 304.438 229.032 303.95 229.407 303.251C229.732 302.649 229.903 302.348 229.92 302.348C230.082 302.364 230.196 302.397 230.261 302.446C230.261 302.885 230.001 303.568 229.48 304.495C228.666 305.942 227.526 306.796 226.061 307.056C224.156 307.381 222.65 306.682 221.542 304.958C220.647 303.576 220.248 302.153 220.346 300.689C220.525 298.022 221.689 296.095 223.838 294.908C224.734 294.42 225.597 294.233 226.427 294.347C227.29 294.461 227.925 294.9 228.332 295.664C229.325 297.502 228.886 299.217 227.013 300.811C226.329 301.397 225.588 301.844 224.791 302.153C224.042 302.462 223.537 302.535 223.276 302.372Z" fill="currentcolor"/>
<path d="M228.261 306.007C230.02 304.381 231.322 302.714 232.169 301.006C233.179 299.006 233.805 296.534 234.05 293.59C234.229 293.314 234.489 293.07 234.831 292.859C235.531 292.42 236.329 292.346 237.225 292.639C237.355 292.672 237.298 292.948 237.054 293.468C236.761 294.103 236.614 294.509 236.614 294.688C236.614 295.453 236.956 296.282 237.64 297.176C238.08 296.802 238.666 296.477 239.398 296.201C239.594 296.201 239.691 296.29 239.691 296.469C239.008 296.957 238.486 297.396 238.128 297.786C239.252 299.185 239.952 300.161 240.229 300.714C240.847 301.982 240.986 303.307 240.644 304.69C240.497 305.292 240.033 305.812 239.252 306.251C238.503 306.658 237.648 306.893 236.687 306.958C235.678 307.04 234.807 306.902 234.074 306.544C233.244 306.153 232.731 305.536 232.535 304.69C232.258 303.584 232.682 302.283 233.805 300.787C234.359 300.039 234.945 299.396 235.564 298.86C234.913 297.77 234.587 296.77 234.587 295.859C234.489 296.998 233.952 298.705 232.975 300.982C231.689 303.974 230.28 305.844 228.75 306.593C228.359 306.544 228.196 306.349 228.261 306.007ZM236.223 299.884C235.621 300.665 235.108 301.478 234.685 302.324C233.854 304.031 233.936 305.08 234.929 305.47C235.792 305.812 236.533 305.649 237.151 304.983C237.738 304.365 237.965 303.641 237.835 302.811C237.77 302.405 237.542 301.909 237.151 301.323C236.598 300.51 236.288 300.031 236.223 299.884Z" fill="currentcolor"/>
<path d="M240.461 292.029C240.722 292.485 241.544 292.81 242.928 293.005C243.286 293.07 243.571 293.111 243.783 293.127C244.076 290.931 244.418 288.232 244.808 285.028C246.209 285.272 247.055 285.54 247.348 285.833C247.397 285.882 246.876 288.394 245.785 293.371C248.618 293.696 250.434 293.769 251.232 293.59L251.28 294.127C250.515 294.778 248.553 295.135 245.395 295.2C244.825 298.079 244.54 300.429 244.54 302.25C244.735 304.722 245.614 305.966 247.177 305.983C247.747 305.983 248.276 305.82 248.765 305.495C249.237 305.17 249.473 304.836 249.473 304.495L250.084 304.641C250.084 305.129 249.636 305.739 248.74 306.471C247.601 307.381 246.363 307.576 245.028 307.056C243.612 306.357 242.887 304.584 242.855 301.738C242.839 300.535 243.051 298.355 243.49 295.2C242.252 295.168 241.479 295.078 241.169 294.932C240.762 294.737 240.485 294.314 240.339 293.664C240.209 293.029 240.25 292.485 240.461 292.029Z" fill="currentcolor"/>

</svg>
