<svg viewBox="0 0 1180 580" fill="currentColor" xmlns="http://www.w3.org/2000/svg">
<path d="M256.384 332.326C255.144 331.621 253.645 330.433 253.401 329.961C253.224 329.62 253.182 329.25 253.243 328.577C253.334 327.57 253.364 327.543 252.765 329.011C252.658 329.273 252.603 329.246 252.21 328.732C251.835 328.241 251.797 328.106 251.936 327.758C252.324 326.788 252.325 326.744 251.949 327.191C251.528 327.691 251.501 327.667 251.164 326.532C250.625 324.707 250.987 322.141 252.012 320.533C252.511 319.752 253.814 318.292 255.463 316.668C256.514 315.632 256.997 314.993 257.924 313.409C260.854 308.399 261.631 306.422 261.858 303.404C262.027 301.139 261.901 297.647 261.581 295.748C261.447 294.956 261.333 293.625 261.327 292.791C261.319 291.5 261.365 291.198 261.635 290.771L261.953 290.269L262.057 292.224C262.114 293.3 262.223 294.584 262.299 295.078C262.639 297.271 262.766 299.982 262.607 301.686C262.24 305.632 261.625 307.569 259.218 312.363C258.259 314.272 257.289 316.277 257.063 316.819C255.881 319.652 255.313 322.282 255.214 325.384C255.107 328.721 255.496 330.26 256.863 331.913C257.184 332.3 257.447 332.645 257.447 332.677C257.447 332.826 257.01 332.682 256.384 332.326ZM267.388 330.927C265.742 330.525 263.506 328.674 262.705 327.052C261.671 324.955 261.306 320.933 261.7 315.97C261.906 313.365 262.196 311.436 262.928 307.8C263.891 303.014 263.967 299.829 263.229 295.218C262.91 293.221 262.807 290.986 263.062 291.579C263.134 291.746 263.198 292.136 263.203 292.445C263.209 292.755 263.495 294.392 263.838 296.083C264.385 298.779 264.462 299.412 264.464 301.206C264.464 303.282 264.33 304.278 263.45 308.667C262.854 311.638 262.607 313.676 262.609 315.595C262.614 319.212 263.491 320.987 266.1 322.657C266.683 323.03 267.16 323.43 267.16 323.546C267.16 323.661 267.006 323.866 266.819 324.002C266.486 324.242 266.494 324.247 267.16 324.212C267.769 324.18 267.849 324.212 267.893 324.523C267.967 325.044 267.695 325.259 266.816 325.375C266.161 325.462 266.071 325.508 266.303 325.638C266.457 325.724 266.781 325.756 267.022 325.707C267.622 325.588 267.919 325.731 267.919 326.14C267.919 326.678 267.567 326.859 266.631 326.801C265.931 326.757 265.831 326.78 266.045 326.936C266.186 327.039 266.525 327.165 266.797 327.216L267.292 327.309L267.206 328.331C267.097 329.633 267.333 330.387 267.973 330.777C268.49 331.092 268.283 331.145 267.388 330.927ZM225.955 323.101C224.109 322.886 222.868 322.681 221.984 322.444C221.664 322.358 220.992 322.186 220.491 322.062C219.249 321.754 216.663 320.972 216.014 320.707C215.721 320.588 215.004 320.305 214.42 320.078C213.836 319.851 212.997 319.503 212.557 319.304C212.116 319.105 211.722 318.942 211.681 318.942C211.555 318.942 208.11 317.217 206.983 316.591C204.085 314.978 203.048 314.361 202.987 314.213C202.959 314.146 202.873 314.091 202.795 314.091C202.398 314.091 195.449 309.085 194.69 308.252C194.606 308.16 193.855 307.499 193.02 306.782C189.692 303.925 186.371 299.977 184.184 296.279C183.706 295.471 182.762 293.438 182.424 292.489C181.824 290.801 181.694 290.04 181.696 288.219C181.7 286.079 182.042 284.945 183.091 283.611C183.324 283.314 183.604 282.871 183.713 282.626C183.822 282.381 184.102 281.908 184.335 281.574C184.568 281.241 184.873 280.805 185.013 280.606C185.152 280.407 185.641 279.896 186.098 279.469C186.555 279.043 187.061 278.567 187.223 278.411C187.705 277.946 189.658 276.848 190.847 276.373C191.93 275.941 192.533 275.749 193.781 275.441C194.116 275.359 195.039 274.863 195.831 274.34C197.615 273.162 201.571 270.287 202.465 269.519C202.65 269.359 203.333 268.8 203.982 268.277C204.631 267.753 206.464 266.029 208.056 264.445C210.811 261.703 211.627 260.762 214.597 256.9C214.945 256.448 215.321 255.982 215.432 255.865C215.543 255.748 216.022 255.175 216.497 254.591C216.971 254.008 217.74 253.157 218.204 252.702C218.669 252.246 219.049 251.832 219.049 251.781C219.049 251.73 218.734 251.532 218.349 251.34L217.648 250.99L213.682 254.929C209.771 258.812 208.928 259.548 206.832 260.902C202.878 263.457 200.36 264.31 197.13 264.191C196.22 264.158 195.756 264.08 195.714 263.952C195.68 263.848 195.763 263.763 195.899 263.763C196.603 263.763 198.041 262.57 199.367 260.887C199.796 260.342 200.189 259.863 200.241 259.821C200.471 259.637 202.3 256.766 202.896 255.652C203.119 255.236 203.498 254.601 203.739 254.243C203.979 253.884 204.176 253.554 204.176 253.509C204.176 253.465 204.397 253.111 204.669 252.723C205.934 250.915 207.338 249.273 208.879 247.798L210.558 246.191L210.181 245.944C209.804 245.697 209.803 245.697 207.71 247.796C204.845 250.671 204.286 250.942 200.755 251.168C199.235 251.265 198.62 251.369 198.108 251.616C197.741 251.794 197.419 251.939 197.393 251.939C197.113 251.939 197.946 248.008 198.617 246.167C199.815 242.878 201.415 240.992 204.112 239.691C205.515 239.014 207.147 238.599 208.403 238.599C209.584 238.599 210.539 238.843 211.688 239.438C212.636 239.929 215.166 241.667 215.338 241.945C215.445 242.119 214.563 242 213.893 241.752C213.143 241.473 211.207 241.176 210.14 241.176C209.092 241.176 207.656 241.451 207.108 241.758C206.662 242.007 207.875 242.235 209.639 242.234C210.916 242.234 211.459 242.306 212.371 242.602C212.997 242.805 214.046 243.077 214.702 243.207C216.354 243.532 216.469 243.455 216.469 242.016V240.896L215.9 240.709C215.069 240.437 214.368 239.947 213.5 239.031C212.316 237.782 211.976 237.248 210.833 234.842C210.25 233.615 209.56 232.167 209.301 231.625C208.663 230.295 207.599 228.652 207.093 228.217C206.555 227.754 206.715 227.62 207.537 227.844C207.966 227.961 209.102 228.007 210.778 227.974C215.169 227.889 215.855 227.925 216.697 228.287C217.891 228.8 218.97 229.616 219.71 230.567C220.599 231.711 221.755 233.96 222.239 235.491C222.345 235.824 222.558 236.417 222.713 236.807C222.868 237.198 222.995 237.556 222.995 237.603C222.995 237.855 222.434 237.617 220.396 236.503C219.759 236.155 218.992 235.767 218.692 235.642C218.15 235.416 218.146 235.417 218.278 235.756C218.643 236.694 219.12 237.345 219.696 237.691C220.042 237.898 220.567 238.217 220.863 238.399C221.159 238.581 221.982 239.012 222.691 239.358C223.401 239.704 224.084 240.05 224.209 240.127C224.334 240.204 224.576 240.328 224.747 240.402C224.917 240.477 225.156 240.658 225.278 240.806C225.481 241.052 225.468 241.067 225.12 240.981C224.168 240.745 223.377 240.692 222.317 240.791L221.172 240.898L221.685 241.766L223.165 241.676C224.596 241.589 226.365 241.762 227.548 242.106C228.464 242.373 229.976 243.034 229.976 243.169C229.976 243.24 228.901 243.299 227.586 243.3C225.533 243.304 223.632 243.516 223.382 243.772C223.352 243.803 223.542 244.082 223.806 244.391L224.285 244.954L225.196 244.81C228.019 244.361 229.907 244.259 232.177 244.433C234.017 244.573 234.337 244.63 233.847 244.726C233.513 244.792 232.864 244.933 232.405 245.04L231.57 245.235L232.387 245.252C233.848 245.282 235.946 245.701 237.879 246.349C238.926 246.701 238.931 246.701 238.931 246.324C238.931 246.154 239.069 245.744 239.238 245.413L239.546 244.811L239.2 244.674C239.01 244.599 238.377 244.353 237.793 244.127C237.208 243.902 236.594 243.662 236.427 243.594C231.523 241.596 229.073 240.265 227.42 238.7C226.046 237.398 224.54 234.865 223.847 232.687C223.08 230.274 222.91 227.152 223.439 225.183C223.868 223.585 224.105 222.972 224.711 221.89C225.299 220.841 227.476 218.54 228.535 217.85C228.869 217.633 229.176 217.414 229.218 217.365C229.402 217.147 231.971 215.993 232.936 215.694C233.788 215.431 234.504 215.351 236.546 215.294C238.927 215.227 239.203 215.249 240.766 215.629C243.862 216.382 246.928 218.016 248.457 219.729C249.753 221.182 250.737 223.601 250.998 225.979C251.056 226.5 251.164 226.926 251.239 226.926C251.314 226.926 251.376 226.871 251.376 226.803C251.376 226.735 251.496 226.548 251.643 226.386C251.79 226.225 252.147 225.785 252.436 225.41C252.725 225.035 252.999 224.694 253.044 224.652C253.089 224.611 253.683 223.928 254.363 223.136C256.107 221.107 258.516 218.852 259.799 218.047C260.05 217.89 260.289 217.719 260.331 217.666C260.372 217.614 260.926 217.322 261.561 217.018C262.504 216.567 262.886 216.466 263.653 216.466C264.258 216.466 264.723 216.553 264.962 216.709C266.282 217.573 266.529 220.168 265.615 223.591C264.962 226.039 264.949 226.078 263.97 228.507C263.704 229.168 263.433 229.816 263.368 229.947C263.302 230.078 262.814 231.072 262.284 232.156C261.266 234.233 259.245 237.813 258.212 239.365C257.875 239.872 257.599 240.318 257.599 240.356C257.599 240.393 257.427 240.695 257.218 241.026C257.008 241.358 256.63 242.011 256.377 242.478C256.124 242.945 255.801 243.505 255.658 243.722C255.445 244.046 255.44 244.101 255.626 244.027C255.751 243.978 256.161 243.823 256.536 243.682C256.912 243.542 257.322 243.375 257.447 243.312C257.572 243.249 258.562 242.921 259.647 242.584C261.556 241.99 262.657 241.713 264.732 241.305C266.071 241.042 270.626 241.049 271.713 241.315C272.787 241.578 274.607 242.229 274.9 242.454C275.026 242.55 275.327 242.728 275.569 242.85C276.058 243.095 277.949 244.897 278.584 245.723C280.755 248.551 281.578 250.926 281.578 254.364C281.578 257.04 281.106 259.05 279.763 262.095C279.414 262.887 279.075 263.706 279.009 263.914C278.943 264.123 278.667 264.732 278.396 265.269L277.903 266.244L278.337 266.546C279.645 267.458 280.686 268.986 281.371 271C281.799 272.258 282.61 273.848 283.307 274.791C284.215 276.021 284.238 276.247 283.415 275.822C282.719 275.463 280.189 275.289 277.091 275.388C273.266 275.511 271.153 275.207 269.54 274.304C268.793 273.886 267.387 272.496 267.162 271.953C267.018 271.605 266.866 271.516 266.29 271.437C265.907 271.384 265.568 271.365 265.539 271.395C265.509 271.425 265.587 271.892 265.713 272.433C265.848 273.014 265.968 274.471 266.006 275.996C266.061 278.201 266.117 278.677 266.388 279.271C266.562 279.653 266.705 280.038 266.705 280.126C266.705 280.214 266.768 280.286 266.845 280.286C267.033 280.286 267.213 278.501 267.128 277.476C267.09 277.02 267.103 276.648 267.156 276.648C267.418 276.648 268.531 277.625 268.92 278.198C269.162 278.554 269.394 278.88 269.436 278.922C269.854 279.336 270.738 282.096 270.893 283.469L271.005 284.455L271.213 283.469C271.393 282.619 271.39 282.298 271.192 281.12C270.894 279.344 270.225 278.027 268.655 276.127C267.985 275.316 267.471 274.62 267.511 274.58C267.611 274.479 269.491 275.419 270.589 276.118C272.731 277.482 273.593 278.655 274.204 281.037C274.488 282.143 274.53 285.019 274.276 285.953C274.071 286.706 273.355 288.518 273.221 288.624C273.168 288.665 273.035 288.87 272.925 289.078C272.253 290.356 269.073 293.482 267.752 294.164C267.51 294.289 267.312 294.45 267.312 294.522C267.312 294.593 267.193 294.694 267.046 294.745C266.9 294.797 266.695 294.879 266.591 294.927C266.454 294.991 266.401 294.824 266.401 294.326C266.401 293.603 266.146 292.718 265.569 291.436C264.858 289.857 264.732 289.322 264.732 287.874C264.732 286.595 264.925 285.518 265.345 284.455C265.411 284.288 265.675 283.628 265.933 282.987C266.191 282.347 266.401 281.761 266.401 281.684C266.401 281.608 266.235 281.353 266.032 281.116L265.662 280.686L265.569 281.131C265.362 282.119 264.892 283.703 264.584 284.455C264.516 284.622 264.308 285.133 264.122 285.592C263.483 287.172 262.36 289.161 260.612 291.807C259.649 293.266 258.468 295.278 257.989 296.279C257.51 297.279 257.065 298.201 257.001 298.326C256.721 298.871 256.36 300.715 256.431 301.239C256.515 301.866 256.405 301.954 256.046 301.547C255.381 300.793 254.523 298.515 254.175 296.582C253.54 293.053 254.372 287.483 256.297 282.371L256.682 281.349L255.888 280.937C255.452 280.71 254.958 280.442 254.791 280.341C254.624 280.239 254.283 280.049 254.032 279.917C253.782 279.786 252.795 279.173 251.839 278.556L250.102 277.434L248.854 279.959C247.207 283.293 246.368 285.111 246.368 285.348C246.368 285.454 246.321 285.588 246.264 285.645C246.207 285.702 246.068 286.004 245.957 286.315C245.544 287.466 244.575 290.395 244.316 291.276C244.169 291.777 243.996 292.356 243.933 292.565C243.869 292.773 243.738 293.285 243.641 293.702C243.545 294.119 243.403 294.704 243.325 295.003C243.037 296.109 242.3 299.807 242.119 301.054C242.016 301.763 241.838 302.871 241.725 303.516C241.586 304.306 241.565 304.814 241.662 305.069C241.92 305.747 242.27 308.299 242.27 309.504C242.27 311.949 241.321 315.358 240.256 316.744C239.71 317.455 239.111 318.38 238.81 318.979C238.418 319.761 237.198 321.051 236.351 321.58C235.685 321.995 234.062 322.649 233.164 322.864C231.167 323.341 228.714 323.421 225.955 323.101ZM239.167 313.899C238.754 311.702 238.512 310.983 237.468 308.861C236.862 307.629 236.859 307.623 235.684 305.83C232.688 301.258 228.317 296.913 222.084 292.313C220.438 291.098 217.541 289.226 215.786 288.242C213.741 287.095 213.497 286.966 211.764 286.117C210.804 285.646 209.848 285.174 209.639 285.068C209.431 284.961 208.44 284.553 207.439 284.162C206.437 283.77 205.515 283.398 205.39 283.334C204.766 283.015 200.159 281.666 198.636 281.356C195.754 280.768 195.044 280.694 192.337 280.695C189.495 280.695 189.152 280.744 186.798 281.47C185.953 281.73 183.838 283.054 183.838 283.322C183.838 283.4 184.277 283.223 184.812 282.929C185.854 282.357 186.167 282.243 187.936 281.792C189.561 281.378 193.852 281.382 196.242 281.8C198.601 282.212 198.333 282.153 201.216 282.891C201.55 282.976 201.994 283.116 202.203 283.2C202.411 283.285 202.992 283.477 203.493 283.628C206.808 284.626 213.207 287.596 216.434 289.634C216.874 289.912 217.269 290.14 217.313 290.14C217.357 290.14 217.475 290.208 217.576 290.291C217.676 290.374 218.408 290.874 219.201 291.401C221.285 292.788 222.679 293.772 223.526 294.454C223.777 294.655 224.266 295.046 224.614 295.322C226.673 296.958 227.624 297.805 229.568 299.736C230.759 300.92 232.245 302.502 232.872 303.252C234.013 304.619 235.896 307.185 235.896 307.373C235.896 307.428 235.992 307.58 236.109 307.712C236.227 307.844 236.667 308.606 237.088 309.407C238.144 311.418 238.911 313.82 239.043 315.531L239.148 316.895L239.289 316.097C239.395 315.493 239.366 314.957 239.167 313.899ZM239.845 311.022C240.227 309.587 240.258 306.226 239.903 304.638C239.158 301.302 237.897 298.368 235.919 295.369C234.871 293.781 233.823 292.347 233.148 291.579C232.928 291.329 232.419 290.75 232.017 290.291C231.249 289.416 230.423 288.684 230.651 289.081C230.722 289.205 230.898 289.442 231.043 289.609C231.516 290.157 233.315 292.852 233.315 293.013C233.315 293.1 233.368 293.171 233.431 293.171C233.495 293.171 233.614 293.301 233.697 293.459C236.302 298.471 237.115 301.226 237.112 305.037V307.277L237.624 308.296C238.184 309.409 238.804 310.923 239.111 311.925C239.345 312.689 239.431 312.583 239.847 311.022H239.845ZM211.51 311.919C214.414 310.866 216.231 308.891 217.015 305.935C217.855 302.767 216.113 298.784 213.138 297.07C212.055 296.446 211.573 296.282 210.131 296.048C208.527 295.788 206.574 296.109 205.314 296.84C205.063 296.985 204.654 297.215 204.403 297.351C203.603 297.784 202.207 299.405 201.67 300.523C201.39 301.107 201.045 302.158 200.904 302.859C200.662 304.064 200.662 304.205 200.915 305.436C201.566 308.606 203.475 310.86 206.376 311.885C207.87 312.413 210.107 312.427 211.51 311.919ZM202.582 306.446C201.503 305.98 201.128 304.743 201.774 303.783C202.538 302.647 203.934 302.438 204.698 303.345C205.871 304.737 204.221 307.156 202.582 306.446ZM241.496 302.416C241.519 301.357 240.432 298.654 239.007 296.23C238.025 294.559 236.623 292.599 235.193 290.897C233.921 289.385 230.746 286.235 229.445 285.195C228.944 284.795 228.501 284.427 228.459 284.377C228.417 284.328 228.11 284.09 227.776 283.849C227.442 283.608 227.1 283.335 227.017 283.243C226.933 283.151 226.319 282.704 225.651 282.249C224.983 281.795 224.403 281.381 224.361 281.33C224.319 281.279 224.08 281.124 223.83 280.985C223.579 280.845 223.191 280.614 222.966 280.471C221.218 279.356 217.665 277.506 215.08 276.365C213.639 275.73 210.411 274.65 208.88 274.292C208.338 274.165 207.518 273.965 207.059 273.848C205.336 273.41 201.875 273.009 199.824 273.01C198.806 273.01 198.387 273.075 198.081 273.276C196.788 274.124 195.526 275.032 195.575 275.081C195.606 275.112 196.102 275.069 196.678 274.986C198.915 274.663 202.216 274.844 205.39 275.465C206.266 275.636 207.308 275.832 207.704 275.9C208.1 275.967 208.491 276.064 208.572 276.114C208.653 276.164 209.182 276.333 209.748 276.489C210.813 276.783 213.166 277.587 213.965 277.93C214.215 278.037 214.864 278.312 215.407 278.54C216.654 279.066 219.333 280.402 220.384 281.024C220.826 281.285 221.221 281.499 221.262 281.499C221.304 281.499 221.523 281.625 221.749 281.779C221.975 281.933 222.98 282.596 223.982 283.252C225.568 284.291 227.469 285.639 227.7 285.89C227.742 285.935 228.288 286.38 228.914 286.879C230.361 288.033 234.172 291.838 235.369 293.323C237.911 296.48 240.158 300.302 241.002 302.906C241.233 303.619 241.301 303.713 241.382 303.437C241.436 303.252 241.488 302.792 241.496 302.416ZM217.746 296.604C218.894 294.79 219.319 293.996 219.212 293.866C218.934 293.532 215.345 291.201 215.108 291.201C215.022 291.201 214.951 291.132 214.951 291.049C214.951 290.966 214.876 290.897 214.785 290.897C214.693 290.897 214.426 290.76 214.19 290.592L213.761 290.287L213.445 290.729C213.272 290.973 213.13 291.217 213.13 291.272C213.13 291.327 212.959 291.596 212.751 291.869C212.542 292.142 212.371 292.414 212.371 292.472C212.371 292.53 212.3 292.66 212.213 292.761C211.99 293.02 210.402 295.505 210.4 295.599C210.4 295.641 210.739 295.757 211.156 295.856C212.676 296.217 214.393 297.267 215.43 298.47C215.786 298.883 216.09 299.207 216.104 299.19C216.118 299.173 216.857 298.009 217.746 296.604ZM240.592 295.9C241.215 292.872 243.066 286.782 244.071 284.455C244.143 284.288 244.274 283.981 244.362 283.773C244.45 283.564 245.199 281.995 246.027 280.286C246.855 278.577 247.67 276.876 247.838 276.507L248.145 275.836L247.669 275.361C247.407 275.099 246.922 274.549 246.591 274.137C246.259 273.726 245.92 273.314 245.836 273.221C245.753 273.129 245.377 272.534 245.002 271.899C244.626 271.264 244.281 270.742 244.235 270.74C244.19 270.736 244.061 270.992 243.95 271.304C243.838 271.617 242.913 273.578 241.894 275.662C239.68 280.189 238.978 281.892 237.834 285.516C237.393 286.915 237.119 287.892 236.512 290.233C236.239 291.289 236.311 291.636 236.996 292.553C238.328 294.337 238.752 294.982 239.57 296.471C240.29 297.782 240.194 297.836 240.592 295.9ZM262.229 281.93C261.786 280.564 261.31 279.719 260.51 278.884C260.21 278.571 260.051 278.315 260.157 278.315C260.357 278.315 261.304 278.519 262.454 278.809C263.477 279.068 265.172 279.933 265.984 280.611C266.38 280.943 266.705 281.133 266.705 281.036C266.705 280.569 265.038 277.488 264.11 276.239C262.732 274.383 262.155 273.76 260.79 272.656C260.162 272.148 259.613 271.695 259.572 271.651C259.53 271.606 259.154 271.3 258.737 270.97C256.627 269.302 253.742 266.171 252.251 263.932C251.939 263.464 251.614 262.998 251.53 262.897C251.445 262.797 251.376 262.678 251.376 262.634C251.376 262.59 251.164 262.21 250.904 261.789C250.227 260.689 249.447 258.77 248.998 257.099C248.679 255.911 248.607 255.293 248.596 253.644C248.587 252.215 248.532 251.635 248.405 251.635C248.307 251.635 247.966 251.397 247.647 251.105C247.328 250.813 247.019 250.574 246.96 250.574C246.9 250.574 246.63 250.966 246.359 251.446C246.088 251.925 245.731 252.556 245.566 252.848C245.108 253.659 243.699 256.486 243.412 257.168C242.531 259.266 242.3 260.913 242.556 263.282C242.783 265.386 242.902 265.937 243.563 267.935C244.187 269.823 244.637 270.711 246.051 272.845C246.834 274.026 249.148 276.296 250.469 277.178C251.093 277.595 251.626 277.987 251.654 278.05C251.682 278.113 251.77 278.164 251.849 278.164C251.928 278.164 252.452 278.459 253.012 278.819C254.502 279.777 254.662 279.871 256.119 280.643C261.037 283.251 260.515 282.957 261.511 283.67C261.957 283.989 262.369 284.365 262.427 284.504C262.489 284.655 262.55 284.43 262.577 283.952C262.609 283.395 262.502 282.772 262.229 281.93ZM216.776 276.155C217.68 275.068 218.009 274.657 218.686 273.768C220.46 271.441 224.124 265.909 224.711 264.672C224.77 264.547 224.964 264.206 225.14 263.914C225.317 263.622 226.042 262.258 226.751 260.882C228.563 257.367 229.302 256.048 230.008 255.061C230.241 254.736 230.432 254.412 230.432 254.341C230.432 254.27 229.825 254.212 229.084 254.212H227.736L227.338 254.733C227.12 255.019 226.941 255.291 226.941 255.336C226.941 255.382 226.714 255.779 226.436 256.218C226.159 256.657 225.538 257.801 225.058 258.76C224.577 259.719 223.915 260.981 223.587 261.565C223.259 262.148 222.946 262.728 222.89 262.853C222.835 262.978 222.746 263.115 222.693 263.156C222.639 263.198 222.365 263.641 222.083 264.142C221.802 264.642 221.516 265.074 221.448 265.102C221.381 265.129 221.326 265.213 221.326 265.287C221.326 265.428 219.395 268.329 219.213 268.462C219.156 268.504 218.952 268.795 218.761 269.11C218.569 269.425 218.333 269.766 218.235 269.868C218.138 269.97 217.821 270.361 217.531 270.736C216.773 271.717 214.458 274.373 213.91 274.89L213.444 275.33L214.843 275.903C215.612 276.218 216.298 276.48 216.367 276.486C216.435 276.492 216.62 276.343 216.776 276.155ZM262.911 272.252C262.911 270.786 262.874 270.547 262.607 270.281C262.44 270.114 262.23 269.978 262.141 269.978C262.051 269.978 261.876 269.875 261.751 269.75C261.204 269.204 261.179 269.494 261.554 272.013C261.659 272.715 261.794 273.02 262.177 273.415C262.446 273.692 262.721 273.919 262.789 273.919C262.856 273.919 262.911 273.169 262.911 272.252ZM259.171 269.419L259.068 267.951L258.082 267.032C256.953 265.978 255.327 264.071 254.518 262.853C254.214 262.394 253.856 261.883 253.724 261.716C253.496 261.429 253.488 261.445 253.57 262.019C253.618 262.353 253.695 263.171 253.74 263.838C253.786 264.505 253.857 265.212 253.897 265.409C253.962 265.728 258.937 270.887 259.179 270.887C259.231 270.887 259.228 270.227 259.171 269.419ZM274.46 263.709C275.624 263.484 276.555 262.977 277.398 262.107L277.998 261.488L277.559 260.194C277.317 259.483 277.03 258.827 276.921 258.736C276.811 258.646 276.721 258.494 276.721 258.4C276.721 258.026 275.23 256.048 274.138 254.97C272.028 252.887 268.204 250.954 264.884 250.29C261.91 249.695 261.59 249.665 258.303 249.663C253.983 249.659 251.856 249.954 251.482 250.605L251.241 251.024L253.851 253.417C255.286 254.733 256.87 256.15 257.371 256.565C257.872 256.98 258.316 257.358 258.358 257.405C258.399 257.452 259.048 257.948 259.799 258.507C260.551 259.066 261.248 259.591 261.35 259.673C261.451 259.756 262.271 260.17 263.171 260.593C264.071 261.017 264.917 261.42 265.05 261.489C265.551 261.748 268.013 262.736 268.674 262.943C269.052 263.062 269.6 263.238 269.892 263.336C270.441 263.519 272.411 263.86 273.079 263.888C273.288 263.896 273.909 263.816 274.46 263.709ZM279.079 262.739C281.374 257.863 281.876 253.638 280.586 250.044C279.392 246.715 276.432 243.377 273.762 242.347C271.878 241.62 270.825 241.447 268.291 241.449C265.779 241.449 264.857 241.576 261.848 242.323C260.359 242.693 258.883 243.145 257.826 243.554C257.492 243.683 257.083 243.842 256.916 243.907C256.373 244.118 255.567 244.469 254.7 244.873C254.233 245.09 253.778 245.269 253.688 245.269C253.598 245.269 253.42 245.729 253.291 246.292C253.034 247.416 252.438 248.757 251.975 249.253C251.512 249.75 251.817 249.834 253.128 249.573C254.893 249.221 261.28 249.217 263.062 249.566C265.645 250.073 266.046 250.17 267.388 250.617C272.409 252.288 276.108 255.512 277.724 259.624C278.135 260.669 278.262 261.247 278.339 262.427C278.393 263.245 278.457 263.914 278.482 263.914C278.506 263.914 278.775 263.386 279.079 262.739ZM273.696 253.282C272.461 252.141 270.899 251.166 269.224 250.491C267.74 249.894 265.621 249.361 264.726 249.361C264.395 249.361 264.125 249.338 264.125 249.309C264.125 249.28 264.222 249.058 264.342 248.816C264.461 248.574 264.842 247.728 265.189 246.936C265.535 246.144 265.912 245.291 266.026 245.041C267.216 242.425 267.499 241.853 267.658 241.752C267.959 241.561 269.931 241.614 271.131 241.844C273.567 242.313 275.804 243.552 277.229 245.223C277.505 245.546 277.487 245.619 276.198 249.617C275.477 251.852 274.838 253.795 274.78 253.933C274.692 254.14 274.498 254.023 273.696 253.282ZM233.208 253.695C236.671 253.018 237.019 252.889 241.781 250.514C244.489 249.164 245.277 248.708 245.153 248.564C245.064 248.461 244.903 248.248 244.794 248.09C244.613 247.828 244.529 247.82 243.775 247.992C240.305 248.78 239.252 248.907 236.157 248.907C232.161 248.907 228.47 248.235 226.54 247.157C224.971 246.281 223.013 244.258 221.188 241.63C220.551 240.714 219.141 238.279 218.363 236.753C217.952 235.947 217.57 235.315 217.515 235.349C217.46 235.383 217.37 235.736 217.315 236.133C217.26 236.53 217.108 237.522 216.977 238.337C216.814 239.348 216.756 240.465 216.797 241.847L216.856 243.874L216.321 243.804C216.027 243.765 215.205 243.639 214.496 243.524C213.786 243.409 212.728 243.244 212.143 243.158C210.488 242.913 208.115 242.534 207.363 242.394L206.68 242.267L207.818 243.331C208.795 244.244 210.261 245.532 211.394 246.473C213.645 248.343 217.073 250.413 220.28 251.841C221.079 252.196 223.846 253.081 224.816 253.292C227.778 253.935 231.155 254.097 233.208 253.695ZM243.599 247.676C243.871 247.589 244.169 247.376 244.262 247.203C244.403 246.94 244.373 246.844 244.071 246.613C243.873 246.461 243.625 246.335 243.52 246.333C243.414 246.333 243.21 246.27 243.065 246.197C242.92 246.123 242.546 245.955 242.235 245.822C241.693 245.59 241.662 245.592 241.503 245.891C241.411 246.062 241.25 246.532 241.145 246.936C240.966 247.627 240.973 247.68 241.271 247.831C241.616 248.007 242.815 247.927 243.599 247.676ZM252.085 247.353C252.345 246.942 252.517 246.426 252.559 245.931L252.625 245.154L249.816 242.832L249.548 243.273C249.4 243.516 248.968 243.974 248.587 244.292L247.896 244.869L248.528 245.41C248.876 245.707 249.308 246.098 249.488 246.277C250.22 247.008 251.395 247.997 251.531 247.997C251.611 247.997 251.86 247.707 252.085 247.353ZM246.335 245.007C246.562 244.863 246.781 244.709 246.823 244.664C246.865 244.62 247.184 244.399 247.533 244.173C248.479 243.561 249.223 242.365 249.489 241.029C249.546 240.74 249.646 240.399 249.711 240.271C249.776 240.143 249.901 239.595 249.988 239.053C250.508 235.838 250.623 235.046 250.765 233.719C251.089 230.663 250.896 226.254 250.371 224.728C250.163 224.124 250.163 224.123 250.245 224.652C250.29 224.944 250.366 225.839 250.413 226.64C250.498 228.078 250.494 228.099 250.139 228.188C249.557 228.334 246.369 228.651 245.388 228.66L244.483 228.669L244.349 228.139C244.227 227.658 243.962 226.909 243.627 226.092C243.236 225.142 241.861 222.328 241.42 221.574C241.136 221.091 240.904 220.635 240.904 220.562C240.904 220.489 241.297 220.388 241.777 220.337C242.257 220.286 243.264 220.148 244.015 220.031C244.766 219.913 245.785 219.773 246.278 219.719C247.904 219.543 247.912 219.501 246.497 218.565C245.424 217.854 244.286 217.255 242.801 216.618C242.474 216.478 241.435 216.164 240.221 215.84C239.186 215.563 234.866 215.562 233.847 215.84C231.637 216.439 229.504 217.453 228.459 218.401C228.133 218.696 228.263 218.667 229.369 218.198C231.234 217.407 232.131 217.21 233.871 217.207C236.25 217.203 237.472 217.713 239.146 219.407C240.36 220.635 241.967 223.255 242.874 225.488C242.942 225.654 243.102 226.029 243.228 226.321C243.648 227.287 244.404 229.715 244.62 230.793C245.235 233.863 245.618 238.645 245.612 243.186C245.608 244.523 245.665 245.27 245.766 245.27C245.852 245.27 246.108 245.152 246.335 245.008V245.007ZM245.295 241.213C245.278 239.585 245.164 239.481 244.496 240.485C244.184 240.954 243.973 241.41 244.026 241.497C244.137 241.676 245.018 242.235 245.191 242.236C245.254 242.236 245.3 241.776 245.295 241.213ZM242.969 239.095C243.294 238.614 243.594 238.185 243.636 238.144C243.678 238.102 244.002 237.645 244.357 237.128C244.796 236.488 245.002 236.028 245.001 235.688C245.001 235.177 244.69 233.032 244.38 231.398C243.796 228.321 242.101 224.215 240.2 221.271L239.534 220.24L238.836 220.741C238.193 221.201 237.975 221.419 237 222.577C236.504 223.166 235.835 224.569 235.432 225.865C235.143 226.794 235.078 227.347 235.075 228.897C235.07 230.912 235.263 231.749 236.119 233.436C236.576 234.337 238.611 236.879 239.788 238.019C240.872 239.069 242.161 240.106 242.286 240.029C242.337 239.997 242.645 239.577 242.969 239.095ZM252.206 232.382C252.757 231.297 253.413 230.052 253.664 229.615C253.915 229.178 254.193 228.633 254.281 228.404C254.369 228.175 254.503 227.987 254.578 227.987C254.653 227.987 254.715 227.924 254.715 227.847C254.715 227.694 256.679 224.496 257.386 223.5C257.628 223.158 258.063 222.544 258.351 222.136C258.64 221.727 259.004 221.257 259.16 221.09C259.876 220.327 259.667 220.268 258.891 221.014C257.245 222.595 254.983 225.262 252.991 227.97C251.256 230.328 251.28 230.269 251.18 232.421C251.131 233.484 251.117 234.354 251.148 234.354C251.179 234.354 251.655 233.467 252.206 232.382ZM249.944 223.066C249.642 222.179 249.003 220.914 248.789 220.782C248.699 220.727 248.825 221.08 249.069 221.567C249.313 222.055 249.636 222.829 249.786 223.288C249.937 223.746 250.087 224.041 250.12 223.942C250.154 223.843 250.074 223.449 249.944 223.066ZM290.56 322.277C290.573 322.068 290.353 321.352 290.071 320.685C289.592 319.55 289.559 319.363 289.559 317.771L289.559 316.07L289.217 316.977C288.736 318.255 288.395 318.942 288.242 318.942C288.169 318.942 287.927 318.584 287.704 318.146C287.106 316.974 287.06 315.656 287.545 313.636C288.216 310.846 288.219 309.135 287.557 307.158C287.277 306.322 285.832 303.315 284.914 301.66C283.723 299.513 281.021 294.155 280.464 292.84C279.693 291.018 278.97 288.936 279.037 288.734C279.16 288.367 280.549 290.954 281.664 293.626C282.064 294.585 282.575 295.712 282.799 296.131C283.023 296.55 283.774 297.982 284.467 299.314C285.159 300.646 286.233 302.521 286.852 303.479C288.829 306.543 290.343 309.986 291.117 313.181C291.946 316.603 291.995 318.531 291.308 320.713C290.796 322.341 290.519 322.918 290.56 322.277ZM271.777 320.776C270.543 320.216 270.194 319.224 270.808 318.021C271.422 316.82 272.784 316.65 273.675 317.663C274.062 318.104 274.142 318.323 274.142 318.947C274.142 319.857 274.264 319.88 275.245 319.162C276.162 318.49 277.185 317.105 277.924 315.538C281.173 308.643 281.199 299.529 277.995 290.746C277.615 289.704 276.994 287.93 276.614 286.804C275.832 284.484 275.304 283.224 274.947 282.83C274.721 282.581 274.721 282.56 274.951 282.56C275.266 282.56 275.741 283.308 277.117 285.971C278.665 288.968 279.877 292.449 280.579 295.913C281.305 299.498 281.336 299.826 281.339 304.086C281.343 307.799 281.306 308.448 281 310.026C280.136 314.491 278.718 317.589 276.656 319.516C275.103 320.967 273.252 321.445 271.777 320.776ZM255.094 309.379C255.094 308.38 255.114 308.325 255.694 307.732C256.312 307.099 256.289 306.966 255.626 307.345C255.096 307.647 255.019 307.627 255.019 307.183C255.019 306.732 255.269 306.211 255.612 305.948C255.824 305.785 255.813 305.762 255.521 305.758C254.431 305.742 255.374 304.512 258.645 301.683C260.17 300.363 260.747 298.823 260.583 296.512C260.486 295.151 260.698 293.809 260.94 294.243C261.009 294.365 261.147 295.433 261.248 296.616C261.572 300.414 260.957 303.448 259.294 306.248C258.612 307.395 257.005 309.116 255.943 309.837L255.094 310.412V309.379ZM297.438 303.269C295.586 302.776 294.164 302.201 290.381 300.416C286.595 298.629 284.897 296.88 281.061 290.822C279.204 287.889 277.387 285.175 276.137 283.469C275.399 282.462 275.126 281.975 275.23 281.849C275.418 281.62 279.347 286.794 281.507 290.116C283.62 293.366 285.314 295.517 287.076 297.191C289.744 299.725 291.149 300.07 295.99 299.383C298.083 299.085 298.585 299.059 299.384 299.206C300.332 299.38 302.295 300.26 302.295 300.512C302.295 300.587 301.953 300.767 301.536 300.912L300.777 301.176L301.847 301.096C302.841 301.021 302.984 301.05 303.886 301.52C304.611 301.896 305.128 302.047 305.928 302.113L307 302.202L306.393 302.472C304.684 303.23 303.259 303.523 301.005 303.578C299.058 303.626 298.647 303.59 297.438 303.269ZM277.239 295.369C277.009 295.018 277.009 294.962 277.239 294.611C277.522 294.179 277.955 294.122 278.304 294.471C278.768 294.933 278.431 295.748 277.777 295.748C277.618 295.748 277.376 295.578 277.239 295.369ZM276.199 292.986C275.714 292.294 276.114 291.504 276.949 291.504C277.514 291.504 277.936 291.93 277.936 292.499C277.936 293.277 276.655 293.636 276.199 292.986ZM274.834 290.271C274.245 289.809 274.098 289.325 274.357 288.704C274.719 287.839 275.718 287.586 276.462 288.171C277.477 288.968 276.844 290.594 275.518 290.594C275.368 290.594 275.06 290.449 274.834 290.271ZM285.145 288.628C283.048 288.163 281.561 287.269 279.543 285.265C278.632 284.36 277.933 283.573 277.989 283.517C278.045 283.461 278.308 283.637 278.573 283.908C279.573 284.93 280.677 285.16 283.947 285.027L286.179 284.937L285.994 285.86L286.556 285.733C286.865 285.663 287.289 285.642 287.497 285.687C288.105 285.817 288.712 286.073 288.712 286.201C288.712 286.265 288.421 286.461 288.067 286.637C287.371 286.981 287.461 287.008 288.636 286.81C289.317 286.696 289.464 286.725 290.077 287.096C290.453 287.324 291.102 287.641 291.519 287.801L292.278 288.091L291.292 288.207C290.749 288.27 289.964 288.394 289.546 288.481C288.49 288.703 285.875 288.79 285.145 288.628ZM278.331 282.462C276.92 282.03 275.914 281.21 274.636 279.452C274.09 278.702 273.47 277.9 273.257 277.671C272.961 277.351 272.927 277.254 273.112 277.254C273.377 277.254 276.77 277.82 277.253 277.945C278.156 278.178 276.422 277.44 274.919 276.951L273.168 276.382L273.92 276.28C275.175 276.111 277.212 276.142 277.933 276.34C279.679 276.82 280.901 277.768 282.341 279.761C282.832 280.44 283.51 281.245 283.848 281.55C284.186 281.855 284.462 282.139 284.462 282.18C284.462 282.222 284.172 282.258 283.817 282.259C283.462 282.259 282.557 282.363 281.806 282.486C280.122 282.763 279.291 282.757 278.331 282.462ZM172.911 279.509C172.576 279.375 172.562 279.34 172.789 279.212C172.93 279.132 173.197 278.856 173.38 278.599L173.715 278.13L173.058 278.564C172.086 279.206 171.322 279.15 169.794 278.324C168.521 277.636 167.38 276.816 167.511 276.685C167.554 276.642 168.163 276.727 168.864 276.874C170.073 277.128 170.2 277.128 171.307 276.882C176.245 275.785 180.647 272.142 185.964 264.752C188.408 261.356 192.374 258.266 196.208 256.771C197.359 256.322 199.956 255.377 201.444 254.866C201.819 254.737 202.455 254.466 202.857 254.263C203.484 253.947 203.566 253.933 203.439 254.167C202.972 255.028 201.952 255.607 199.547 256.378C197.385 257.071 194.991 258.082 192.8 259.229C189.64 260.883 188.082 262.448 185.04 267.022C183.565 269.241 183.183 269.997 182.474 272.1C181.63 274.605 180.836 276.263 180.067 277.125C178.919 278.412 177.064 279.389 175.337 279.618L174.55 279.722L174.793 279.254C175.158 278.548 175.088 278.509 174.561 279.124C174.061 279.709 173.651 279.805 172.911 279.509ZM169.724 269.424C167.731 269.108 165.352 267.9 164.576 266.812C164.201 266.286 164.148 265.903 164.498 266.253C164.629 266.384 164.905 266.533 165.112 266.585C165.557 266.696 166.717 266.295 167.388 265.797L167.86 265.447L168.366 265.969C169.07 266.694 169.188 266.621 168.74 265.738C168.281 264.834 168.264 264.581 168.651 264.374C169.112 264.128 169.186 264.173 169.549 264.918C169.964 265.772 170.138 265.685 169.877 264.753C169.721 264.197 169.722 264.024 169.881 263.832C170.199 263.449 170.697 263.619 170.787 264.142C170.878 264.67 171.127 264.695 171.252 264.188C171.351 263.783 171.706 263.792 172.301 264.215C174.738 265.947 177.277 266.07 180.317 264.602C182.172 263.706 183.751 262.67 187.061 260.177C190.169 257.837 191.452 256.984 192.909 256.286C193.93 255.797 194.632 255.576 198.94 254.38C200.108 254.056 201.321 253.68 201.634 253.545C201.947 253.409 202.203 253.359 202.203 253.432C202.203 253.626 200.706 254.254 198.712 254.895C195.445 255.947 195.145 256.061 193.324 256.948C191.271 257.947 189.746 258.952 186.387 261.517C185.11 262.491 183.144 263.875 182.017 264.591C179.601 266.128 175.669 268.099 173.746 268.739C172.538 269.14 172.051 269.245 170.483 269.438C170.274 269.464 169.932 269.457 169.724 269.424ZM188.62 268.386C189.119 264.588 191.201 261.396 194.667 259.115C196.146 258.141 200.278 256.331 200.502 256.558C200.617 256.675 199.656 257.547 199.412 257.547C199.331 257.547 198.705 257.818 198.02 258.149C197.137 258.576 196.577 258.971 196.094 259.508C195.21 260.49 194.952 261.059 194.51 262.997C194.147 264.59 193.247 266.794 192.961 266.794C192.878 266.794 192.704 266.643 192.574 266.457L192.337 266.121V266.469C192.337 266.876 191.568 267.704 191.191 267.704C190.975 267.704 190.945 267.6 191.015 267.085C191.117 266.32 190.972 266.437 190.658 267.374C190.44 268.021 190.355 268.105 189.682 268.331C189.276 268.467 188.849 268.706 188.732 268.861C188.544 269.112 188.531 269.057 188.62 268.386ZM171.796 258.419C171.067 257.713 170.483 256.404 170.483 255.479C170.483 253.035 172.566 249.598 175.64 246.971C181.277 242.154 189.495 239.039 198.143 238.443C200.592 238.274 204.418 238.473 204.731 238.786C204.894 238.948 204.735 238.973 203.831 238.928C203.224 238.898 201.75 239.011 200.533 239.181C199.323 239.351 197.854 239.533 197.27 239.585C192.053 240.054 187.69 241.226 183.459 243.296C180.932 244.532 179.101 245.702 177.216 247.283C173.987 249.993 171.985 252.86 171.75 255.112L171.648 256.087L172.09 255.778C173.047 255.109 174.097 255.216 174.803 256.053C175.282 256.622 175.307 257.394 174.869 258.102C174.474 258.74 173.87 259.063 173.073 259.063C172.558 259.063 172.355 258.961 171.796 258.419ZM166.574 243.045C166.387 243.006 166.233 242.924 166.233 242.863C166.233 242.802 166.587 242.346 167.02 241.85C167.453 241.354 167.911 240.825 168.038 240.675C168.164 240.524 167.793 240.679 167.213 241.018C165.937 241.764 165.49 241.902 163.743 242.092C162.999 242.173 162.299 242.315 162.187 242.408C162.065 242.509 161.983 242.517 161.983 242.427C161.983 242.173 164.326 240.026 165.093 239.577C166.894 238.522 170.516 237.577 174.038 237.241C176.419 237.013 177.724 237.043 180.765 237.391C183.012 237.648 184.277 237.694 188.391 237.67C191.104 237.653 194.067 237.645 194.974 237.651C196.578 237.662 197.754 237.787 197.609 237.931C197.57 237.97 196.658 238.101 195.583 238.222C193.25 238.483 186.602 238.518 182.415 238.289C178.246 238.062 175.961 238.351 173.981 239.355C173.518 239.59 172.456 240.337 171.621 241.015C170.786 241.693 169.762 242.409 169.344 242.606C168.587 242.965 167.22 243.181 166.574 243.045ZM192.008 242.35C191.645 242.058 191.579 241.697 191.826 241.345C192.073 240.992 192.629 240.921 192.914 241.206C193.182 241.474 193.136 242.002 192.819 242.289C192.486 242.589 192.321 242.602 192.008 242.35ZM197.856 242.362C197.479 242.18 197.194 241.628 197.194 241.081C197.194 240.525 197.963 239.811 198.56 239.811C198.887 239.811 199.18 239.952 199.482 240.254C199.785 240.557 199.926 240.849 199.926 241.175C199.926 242.155 198.783 242.811 197.856 242.362ZM194.665 242.235C194.326 242.1 194.067 241.574 194.143 241.175C194.278 240.465 195.253 240.17 195.729 240.695C196.422 241.46 195.623 242.617 194.665 242.235ZM204.469 238.386C204.329 238.246 199.55 237.545 196.132 237.164C187.091 236.155 185.853 235.787 182.174 233.014C178.255 230.061 175.802 227.577 174.677 225.423C173.8 223.744 172.951 220.547 173.085 219.433C173.138 218.993 173.143 218.996 173.621 219.766C173.89 220.201 174.453 220.795 174.897 221.114C175.536 221.572 175.788 221.891 176.193 222.751C176.703 223.838 176.809 223.841 176.558 222.761C176.481 222.43 176.444 222.134 176.475 222.102C176.575 222.002 177.831 222.932 178.506 223.606C179.33 224.429 179.686 225.145 180.497 227.608C181.373 230.271 181.897 231.328 182.849 232.352C183.724 233.293 184.582 233.792 186.57 234.513C188.971 235.385 190.632 235.707 196.739 236.484C197.947 236.638 199.208 236.861 203.61 237.703C204.69 237.909 205.376 238.109 205.344 238.208C205.288 238.377 204.6 238.517 204.469 238.386ZM210.091 238.297C209.963 238.225 209.28 238.059 208.573 237.926C206.288 237.499 205.784 237.357 204.894 236.89C203.351 236.081 202.668 235.084 201.703 232.232C201.407 231.356 201.118 230.521 201.061 230.376C200.964 230.131 200.995 230.128 201.484 230.331C201.994 230.545 203.058 230.791 205.075 231.165C207.28 231.573 209.224 233.111 210.199 235.218C210.498 235.864 210.794 236.565 210.858 236.776C210.922 236.986 211.024 237.295 211.086 237.461C211.148 237.628 210.745 237.275 210.189 236.677C209.185 235.594 207.79 234.38 208.057 234.821C208.134 234.948 208.699 235.747 209.311 236.596C210.369 238.063 210.611 238.591 210.091 238.297ZM200.457 236.032C198.265 235.273 196.739 234.343 195.425 232.968C194.447 231.943 193.883 230.924 193.381 229.276C193.128 228.442 192.761 227.333 192.566 226.812C192.371 226.291 192.243 225.865 192.281 225.865C192.319 225.865 192.536 226.042 192.761 226.259C192.987 226.476 193.529 226.886 193.964 227.17C194.678 227.636 194.785 227.78 195.05 228.633L195.344 229.579L195.359 228.859C195.369 228.327 195.432 228.139 195.599 228.139C195.889 228.139 196.735 229.297 196.845 229.844C196.93 230.271 197.103 230.379 197.27 230.109C197.321 230.026 197.463 229.958 197.584 229.958C197.804 229.958 198.09 230.508 199.004 232.686C199.887 234.789 200.743 235.752 202.185 236.267L202.734 236.463L202.202 236.458C201.91 236.454 201.125 236.264 200.457 236.032Z" fill="currentColor"/>
<defs>
<linearGradient id="paint0_linear_372_18" x1="161.983" y1="274.001" x2="307" y2="274.001" gradientUnits="userSpaceOnUse">
<stop stop-color="#F9E781"/>
<stop offset="0.136842" stop-color="#BE9F50"/>
<stop offset="0.268421" stop-color="#D7A448"/>
<stop offset="0.380208" stop-color="#D7A448"/>
<stop offset="0.671875" stop-color="#FFF0B4"/>
<stop offset="1" stop-color="#D7A448"/>
</linearGradient>
</defs>
</svg>
