<svg  viewBox="0 0 1180 580" fill="currentcolor" xmlns="http://www.w3.org/2000/svg">
<path d="M230.49 212.226C230.263 212.226 230.038 212.289 229.853 212.426C229.163 212.939 229.248 214.037 230.006 214.397C230.283 214.528 230.295 214.552 230.295 214.98C230.295 215.332 230.264 215.435 230.15 215.472C229.9 215.551 229.76 215.871 229.715 216.464L229.672 217.036L228.985 217.018C228.607 217.008 228.168 217.042 228.01 217.094C227.762 217.175 227.723 217.224 227.723 217.455C227.723 217.771 228.092 218.393 228.577 218.894C228.765 219.088 228.894 219.246 228.864 219.246C228.833 219.246 228.619 219.205 228.386 219.155C227.578 218.982 226.408 219.326 225.864 219.898C225.675 220.097 225.614 220.249 225.585 220.595C225.522 221.356 225.968 222.012 227.032 222.723C227.374 222.951 227.678 223.138 227.708 223.138C227.739 223.138 227.752 222.861 227.735 222.522C227.69 221.506 228.091 220.986 228.94 220.957C229.278 220.945 229.343 220.971 229.452 221.161C229.571 221.369 229.563 221.394 229.264 221.741C228.843 222.229 228.356 223.255 228.08 224.234L227.853 225.04L227.642 224.9C223.525 222.168 221.9 221.495 219.613 221.576C218.826 221.604 218.661 221.637 218.17 221.868C217.358 222.249 216.833 222.864 216.4 223.941C216.394 223.952 216.041 223.834 215.61 223.68C214.233 223.188 212.999 223.109 212.296 223.467C211.109 224.071 210.363 226.067 210.627 227.935C210.675 228.275 210.704 228.563 210.692 228.575C210.68 228.587 210.374 228.504 210.012 228.392C209.152 228.125 209.096 228.134 209.644 228.448C210.355 228.854 211.163 229.71 211.34 230.243C211.788 231.595 210.592 233.001 208.683 233.365C207.579 233.576 207.569 233.573 206.716 232.802C206.3 232.426 205.884 232.05 205.791 231.967C205.329 231.554 203.938 230.537 203.209 230.08C201.412 228.953 199.144 228.055 197.078 227.654C196.156 227.475 195.892 227.386 195.296 227.055C191.838 225.136 187.839 223.891 183.735 223.457C182.418 223.318 179.474 223.338 178.18 223.496C176.907 223.65 176.104 223.837 174.532 224.343C170.115 225.763 168.015 227.924 168.553 230.492C168.764 231.496 169.338 232.579 170.131 233.473C170.415 233.792 170.492 233.948 170.532 234.288C170.597 234.832 171.008 235.815 171.447 236.473C171.637 236.758 172.08 237.29 172.432 237.654C172.783 238.018 173.05 238.336 173.026 238.36C173.001 238.385 172.06 238.404 170.935 238.402C169.4 238.398 168.656 238.363 167.951 238.253C164.241 237.674 160.095 235.493 158.143 233.095C156.481 231.052 155.857 229.255 155.936 226.74L155.975 225.513L156.334 224.805C157.47 222.571 159.867 220.548 162.241 219.821C163.682 219.381 165.643 219.243 167.236 219.472C168.67 219.678 170.424 220.215 172.029 220.941C172.585 221.192 173.096 221.419 173.164 221.445C173.233 221.471 173.084 221.279 172.833 221.019C171.44 219.571 169.5 218.612 167.276 218.272C166.2 218.108 163.799 218.153 162.681 218.36C159.868 218.878 157.328 219.844 155.909 220.934C154.681 221.877 153.805 223.241 153.543 224.615C152.966 227.644 154.598 231.649 157.74 234.915C158.841 236.059 159.625 236.642 160.908 237.271C162.941 238.267 165 238.86 167.854 239.27C170.631 239.669 174.087 239.714 177.269 239.393L177.77 239.342L177.92 240.158C178.003 240.606 178.199 241.372 178.355 241.86C179.111 244.227 180.053 245.479 181.844 246.499C185.764 248.732 190.286 248.787 193.548 246.641C195.193 245.559 195.88 243.81 195.421 241.866C195.219 241.008 194.953 240.58 194.361 240.157C193.608 239.621 193.123 239.429 192.396 239.384C191.55 239.331 190.946 239.556 190.364 240.14C189.781 240.726 189.618 241.09 189.618 241.81C189.618 242.313 189.65 242.445 189.85 242.746C190.119 243.152 190.752 243.585 191.077 243.585C191.212 243.585 191.44 243.469 191.649 243.294C192.221 242.818 192.643 242.81 193.071 243.268C193.269 243.479 193.307 243.591 193.307 243.956C193.307 245.232 192.294 246.31 190.37 247.082C189.701 247.351 189.697 247.351 188.249 247.347C186.181 247.34 184.974 247.07 183.191 246.214C182.457 245.862 182.222 245.697 181.693 245.166C180.66 244.127 179.446 242.098 178.608 240.009L178.321 239.292L179.243 239.155C182.428 238.683 189.559 237.255 194.967 236.007C195.674 235.844 196.465 235.669 196.725 235.618L197.199 235.525L197.606 235.85C197.831 236.028 198.923 236.905 200.035 237.798C202.001 239.379 204.324 241.161 205.247 241.797C208.21 243.839 210.357 245.064 211.506 245.368C212.993 245.762 215.366 245.575 217.9 244.863L218.656 244.651L219.218 244.949C220.987 245.887 224.973 246.642 230.431 247.072C231.312 247.142 231.808 247.133 232.919 247.03C237.907 246.566 241.22 245.903 242.898 245.032L243.447 244.747L243.976 244.868C244.467 244.98 245.272 245.091 246.499 245.215C247.147 245.281 248.553 245.125 249.188 244.917C251.595 244.129 255.937 241.174 262.12 236.118L263.218 235.22L265.72 235.774C269.796 236.677 271.859 237.115 274.936 237.731C277.075 238.159 280.889 238.804 282.274 238.97C283.118 239.072 283.822 239.168 283.839 239.183C283.898 239.234 283.167 240.957 282.687 241.895C281.778 243.675 280.784 245.044 279.928 245.695C279.029 246.378 277.723 246.905 276.054 247.256C275.373 247.399 274.893 247.44 273.856 247.443C272.361 247.449 272.047 247.375 270.801 246.729C269.559 246.084 268.858 245.219 268.779 244.232C268.742 243.769 268.759 243.697 268.958 243.46C269.223 243.146 269.646 242.986 269.928 243.094C270.037 243.136 270.247 243.286 270.395 243.428C270.838 243.853 271.412 243.742 272.03 243.11C272.996 242.122 272.427 240.449 270.886 239.746C270.452 239.548 270.326 239.529 269.706 239.561C269.109 239.592 268.926 239.641 268.402 239.906C267.281 240.474 266.832 241.071 266.597 242.306C266.276 243.996 266.982 245.687 268.418 246.661C269.458 247.367 271.073 247.978 272.364 248.154C272.774 248.21 273.166 248.266 273.234 248.28C273.522 248.337 274.404 248.317 275.097 248.238C276.682 248.057 278.016 247.676 279.439 246.998C281.321 246.102 282.293 245.205 283.051 243.665C283.675 242.399 284.031 241.226 284.302 239.536L284.351 239.234L286.58 239.28C292.001 239.39 296.65 238.524 299.935 236.793C301.636 235.895 303.243 234.329 304.707 232.141C306.973 228.752 307.599 225.382 306.408 222.983C305.37 220.892 303.27 219.564 299.414 218.56C295.727 217.599 292.541 217.795 289.853 219.145C289.074 219.537 287.94 220.393 287.491 220.928C287.294 221.163 287.169 221.339 287.213 221.318C287.258 221.298 287.705 221.084 288.206 220.843C289.341 220.298 291.221 219.67 292.477 219.415C293.264 219.256 293.69 219.222 294.923 219.221C296.538 219.221 297.104 219.297 298.293 219.682C300.715 220.466 302.998 222.408 304.127 224.646C304.438 225.264 304.44 225.274 304.48 226.489C304.524 227.848 304.433 228.619 304.11 229.61C302.868 233.417 298.778 236.54 293.417 237.774C292.272 238.038 289.892 238.193 288.379 238.104L287.312 238.04L287.972 237.366C289.087 236.228 289.61 235.347 289.873 234.17C289.989 233.646 290.074 233.471 290.397 233.089C292.852 230.21 292.382 227.423 289.115 225.495C287.613 224.609 284.896 223.685 282.814 223.353C281.696 223.174 278.485 223.101 277.04 223.222C272.719 223.582 268.578 224.878 264.634 227.106C264.03 227.447 263.536 227.749 263.535 227.775C263.536 227.802 263.862 227.813 264.261 227.8L264.987 227.776L266.479 227.039C269.293 225.65 271.851 224.773 274.505 224.289C275.373 224.13 275.806 224.104 277.549 224.104C278.785 224.104 279.888 224.146 280.368 224.213C283.681 224.675 286.49 225.604 287.982 226.733C288.747 227.311 289.123 227.744 289.471 228.447C289.762 229.034 289.777 229.103 289.769 229.855C289.761 230.356 289.715 230.767 289.633 230.977L289.504 231.308L289.377 231.015C289.094 230.36 288.141 229.248 287.166 228.436C285.398 226.963 283.364 226.018 281.114 225.624C280.314 225.483 278.103 225.482 277.3 225.62C275.334 225.961 273.291 226.705 271.89 227.588C271.573 227.788 271.557 227.789 270.727 227.692C269.64 227.566 266.752 227.638 265.691 227.818C263.734 228.15 262.034 228.696 260.366 229.526C258.77 230.32 257.252 231.359 255.713 232.709L254.981 233.351L253.946 233.296C251.338 233.156 250.257 232.791 249.504 231.794C249.332 231.566 249.193 231.361 249.194 231.338C249.193 231.315 249.363 231.11 249.567 230.883C249.987 230.415 250.617 229.196 250.775 228.543C250.834 228.304 250.904 228.109 250.932 228.109C250.96 228.109 251.056 228.056 251.143 227.992C251.294 227.882 251.292 227.878 251.097 227.915L250.891 227.955L250.919 227.348C250.994 225.759 250.393 224.18 249.471 223.546C248.753 223.052 247.569 223.054 246.137 223.553C245.745 223.69 245.403 223.801 245.376 223.801C245.349 223.801 245.261 223.614 245.179 223.386C244.717 222.105 243.09 221.289 241.271 221.428C239.707 221.548 239.198 221.773 235.563 223.951C234.337 224.685 233.301 225.266 233.262 225.241C233.222 225.217 233.189 225.128 233.189 225.045C233.189 224.762 232.77 223.445 232.481 222.82C232.323 222.478 232.064 222.04 231.904 221.846C231.575 221.444 231.543 221.238 231.779 221.025C231.898 220.918 232.022 220.89 232.231 220.924C233.116 221.068 233.472 221.556 233.424 222.562C233.409 222.878 233.416 223.136 233.447 223.136C233.54 223.136 234.48 222.501 234.792 222.228C235.158 221.907 235.503 221.35 235.599 220.927C235.74 220.302 235.171 219.557 234.345 219.283C233.891 219.132 233.055 219.087 232.578 219.187L232.255 219.255L232.667 218.794C233.141 218.264 233.464 217.67 233.425 217.403C233.383 217.111 233.063 217.01 232.176 217.008H231.367V216.462C231.367 215.947 231.351 215.898 231.078 215.625C230.819 215.367 230.787 215.287 230.787 214.898C230.788 214.487 230.803 214.455 231.045 214.354C231.585 214.131 231.793 213.297 231.449 212.741C231.245 212.411 230.863 212.226 230.484 212.224L230.49 212.226ZM230.458 212.573C230.745 212.573 231.103 212.784 231.209 213.04C231.463 213.654 230.972 214.258 230.319 214.136C230.06 214.087 229.715 213.647 229.715 213.366C229.715 213.079 230.052 212.659 230.34 212.587C230.376 212.577 230.417 212.573 230.458 212.573ZM230.725 221.822C230.862 221.826 230.97 221.897 231.138 222.066C231.35 222.277 231.382 222.36 231.337 222.583C231.231 223.112 230.76 223.335 230.321 223.064C229.837 222.765 229.898 222.094 230.427 221.893C230.55 221.846 230.643 221.821 230.725 221.822ZM242.447 222.984C242.882 222.96 243.205 223.379 242.976 223.78C242.832 224.032 242.603 224.128 242.316 224.056C241.825 223.932 241.78 223.19 242.255 223.023C242.32 223.001 242.385 222.988 242.447 222.984ZM219.026 222.998C219.291 223.015 219.508 223.258 219.511 223.608C219.518 223.897 219.275 224.13 218.975 224.13C218.881 224.13 218.722 224.072 218.62 224.001C218.495 223.913 218.437 223.788 218.438 223.607C218.438 223.294 218.496 223.195 218.751 223.061C218.844 223.012 218.937 222.992 219.026 222.998ZM239.603 223.58C239.905 223.58 240.156 223.63 240.344 223.731C240.738 223.941 241.044 225.292 240.951 226.404C240.818 227.985 240.351 229.631 239.622 231.091C238.885 232.566 238.358 233.369 237.272 234.674L236.667 235.401L232.548 235.385L232.817 234.583C233.117 233.691 233.4 232.345 233.524 231.214C233.629 230.263 233.628 228.144 233.518 227.073C233.454 226.423 233.459 226.232 233.542 226.182C235.87 224.792 236.704 224.352 237.71 223.985C238.447 223.716 239.095 223.579 239.599 223.58L239.603 223.58ZM221.951 223.717C222.549 223.717 222.782 223.798 225.465 224.943C227.66 225.88 227.726 225.915 227.682 226.118C227.575 226.614 227.477 228.075 227.475 229.208C227.468 231.536 227.811 233.53 228.508 235.25C228.563 235.386 228.438 235.395 226.527 235.394C224.692 235.394 224.471 235.38 224.341 235.249C224.093 235.002 223.202 233.734 222.725 232.95C221.834 231.488 221.264 230.223 220.9 228.897C220.741 228.317 220.718 228.028 220.721 226.698C220.728 224.96 220.84 224.366 221.255 223.953C221.458 223.75 221.556 223.716 221.951 223.717ZM230.62 224.179C230.965 224.165 231.321 224.399 231.321 224.837C231.321 225.335 230.809 225.659 230.375 225.435C230.113 225.3 229.94 224.947 230.007 224.681C230.09 224.35 230.352 224.19 230.62 224.179ZM183.04 224.288C183.828 224.288 184.561 224.324 185.188 224.406C187.597 224.724 190.331 225.573 193.147 226.876L193.934 227.241L192.317 227.34C191.428 227.395 190.219 227.522 189.63 227.624L188.559 227.808L187.433 227.248C184.121 225.598 180.719 225.267 177.559 226.287C175.094 227.084 172.538 228.944 171.34 230.815C171.134 231.135 170.942 231.399 170.911 231.402C170.881 231.406 170.818 231.286 170.772 231.138C170.29 229.585 170.939 228.034 172.55 226.886C173.639 226.11 175.733 225.276 177.62 224.865C179.313 224.497 181.307 224.293 183.04 224.288ZM245.574 224.791L245.831 224.843C246.954 225.073 247.417 226.022 247.229 227.707C247.123 228.662 246.934 229.115 246.139 230.322C245.447 231.373 243.834 233.476 242.547 235.004L242.217 235.396L241.311 235.391C240.813 235.387 240.406 235.374 240.406 235.358C240.406 235.343 240.771 234.963 241.218 234.515C243.866 231.861 245.356 228.806 245.526 225.685L245.574 224.791ZM215.966 224.875L216.239 224.879L216.247 226.224C216.254 227.426 216.28 227.649 216.477 228.315C216.775 229.315 217.558 230.89 218.188 231.752C218.828 232.629 220.422 234.213 221.272 234.817C221.624 235.068 221.913 235.301 221.914 235.335C221.914 235.369 221.346 235.397 220.651 235.397C219.663 235.396 219.368 235.371 219.303 235.281C219.258 235.217 218.864 234.742 218.427 234.225C216.674 232.148 215.269 230.224 214.716 229.143C214.253 228.239 214.154 226.539 214.521 225.823C214.817 225.248 215.383 224.877 215.966 224.878L215.966 224.875ZM243.241 225.881C243.43 225.877 243.625 225.941 243.798 226.087C244.29 226.501 244.183 227.252 243.597 227.496C243.441 227.561 243.304 227.61 243.291 227.606C243.279 227.602 243.161 227.567 243.031 227.528C242.686 227.425 242.491 227.216 242.429 226.885C242.323 226.318 242.759 225.887 243.241 225.881ZM218.138 225.893C218.401 225.896 218.827 226.124 218.924 226.337C219.295 227.151 218.534 227.903 217.763 227.484C217.131 227.141 217.306 226.137 218.037 225.905C218.066 225.896 218.101 225.892 218.138 225.893ZM230.791 226.476C230.831 226.476 230.864 226.493 230.897 226.526C230.964 226.592 230.923 226.617 230.744 226.615C230.53 226.611 230.518 226.601 230.653 226.523C230.707 226.492 230.752 226.476 230.791 226.476ZM276.657 226.72C277.72 226.724 279.534 226.852 280.496 227.006C283.777 227.529 286.088 228.9 287.048 230.895C287.421 231.67 287.58 232.309 287.636 233.255C287.723 234.709 287.312 235.896 286.322 237.052C285.654 237.831 285.44 237.953 284.846 237.895L284.391 237.851L284.335 237.354C284.113 235.337 283.068 233.343 281.421 231.789C279.538 230.013 277.022 228.859 273.282 228.056L272.95 227.985L273.67 227.593C274.923 226.909 275.341 226.769 276.252 226.728C276.369 226.722 276.505 226.72 276.657 226.72ZM229.876 226.798L230.312 226.964C230.73 227.122 230.856 227.125 231.505 226.987C231.753 226.934 231.771 226.949 231.91 227.312C232.035 227.639 232.041 227.743 231.953 228.059C231.738 228.825 230.956 229.211 230.244 228.901C229.939 228.768 229.673 228.45 229.546 228.066C229.444 227.756 229.532 227.287 229.751 226.976L229.876 226.798ZM183.736 226.954C184.824 226.95 185.275 227.086 186.24 227.559C186.755 227.811 187.177 228.046 187.177 228.081C187.177 228.116 187 228.195 186.783 228.257C184.341 228.956 182.247 230.059 180.742 231.44C179.045 232.996 177.937 235.18 177.738 237.362L177.682 237.992L177.184 238.047C176.91 238.077 176.295 238.127 175.816 238.157L174.945 238.212L174.442 237.688C173.626 236.836 173.323 236.354 173.016 235.42C172.558 234.023 172.793 232.122 173.594 230.759C173.745 230.5 174.168 229.991 174.533 229.627C176.185 227.981 178.849 227.133 182.866 226.976C183.199 226.963 183.484 226.955 183.736 226.954ZM192.317 228.644C194.394 228.64 194.936 228.725 196.691 229.298C198.213 229.795 200.542 231.027 202.225 232.225C203.401 233.062 204.09 233.592 204.09 233.659C204.09 233.7 203.876 233.734 203.613 233.736C203.351 233.74 202.26 233.808 201.188 233.893C199.611 234.019 199.058 234.097 198.286 234.303C197.762 234.444 197.33 234.559 197.327 234.559C197.32 234.559 197.174 234.436 196.995 234.285C196.096 233.527 192.607 230.755 191.379 229.824C190.048 228.815 189.995 228.764 190.218 228.705C190.347 228.671 191.292 228.644 192.317 228.644ZM269.571 228.866C269.789 228.87 269.922 228.887 269.92 228.924C269.913 228.958 269.733 229.106 269.511 229.252C269.032 229.567 266.558 231.492 264.568 233.099C263.788 233.729 263.116 234.242 263.075 234.24C263.033 234.236 262.589 234.128 262.088 233.994C261.434 233.821 260.795 233.724 259.829 233.651C259.087 233.594 258.481 233.525 258.481 233.497C258.481 233.468 258.938 233.125 259.497 232.734C262.717 230.479 265.298 229.342 268.015 228.981C268.611 228.902 269.208 228.861 269.571 228.866ZM188.567 228.926C188.802 228.926 192.365 231.485 194.065 232.874C194.502 233.232 195.181 233.785 195.573 234.104C195.964 234.423 196.287 234.707 196.29 234.736C196.297 234.8 192.515 235.539 190.409 235.885C189.565 236.024 188.035 236.302 187.009 236.503C184.14 237.065 181.56 237.487 178.77 237.85L178.201 237.925L178.257 237.337C178.446 235.334 179.275 233.585 180.68 232.231C182.248 230.719 184.334 229.764 187.436 229.138C188.011 229.022 188.521 228.926 188.567 228.926ZM271.375 228.953L272.411 229.075C275.855 229.48 278.3 230.25 280.271 231.552C281.778 232.547 282.858 233.935 283.441 235.623C283.601 236.089 283.852 237.327 283.852 237.654C283.851 237.825 283.866 237.824 282.939 237.714C279.944 237.355 276.277 236.775 273.322 236.192C272.296 235.989 270.542 235.668 269.425 235.479C267.047 235.074 264.305 234.541 264.232 234.468C264.176 234.411 264.253 234.343 265.771 233.099C267.407 231.759 269.637 230.092 270.919 229.252L271.375 228.953ZM242.288 229.26C242.561 229.273 242.811 229.499 242.811 229.855C242.811 230.187 242.383 230.483 242.065 230.371C241.894 230.31 241.655 230.002 241.652 229.84C241.652 229.766 241.728 229.608 241.823 229.488C241.953 229.323 242.124 229.253 242.288 229.26ZM219.217 229.265C219.458 229.264 219.762 229.594 219.762 229.855C219.762 230.122 219.478 230.424 219.228 230.424C219.121 230.424 218.949 230.355 218.845 230.271C218.454 229.955 218.71 229.265 219.217 229.265ZM230.677 229.847C231.167 229.847 231.443 230.242 231.286 230.717C231.141 231.155 230.641 231.299 230.27 231.008C229.996 230.792 229.924 230.486 230.079 230.188C230.213 229.93 230.358 229.847 230.677 229.847ZM212.057 231.215C212.129 231.18 212.746 231.754 214.164 233.172C215.327 234.335 216.278 235.31 216.278 235.34C216.278 235.368 215.849 235.392 215.324 235.392L214.371 235.392V237.463C214.371 238.601 214.342 239.532 214.308 239.53C214.274 239.526 213.552 238.923 212.704 238.184C211.856 237.445 210.613 236.337 209.94 235.722C209.268 235.107 208.591 234.498 208.436 234.368C208.28 234.239 208.174 234.099 208.199 234.058C208.225 234.017 208.44 233.983 208.678 233.983C209.707 233.983 210.878 233.427 211.424 232.679C211.727 232.262 212.051 231.516 212.051 231.23C212.051 231.222 212.05 231.217 212.057 231.215ZM230.613 231.847C231.795 231.838 232.473 233.221 231.676 234.127C231.23 234.634 230.533 234.798 230 234.52C229.446 234.231 229.213 233.84 229.213 233.199C229.213 232.454 229.726 231.916 230.496 231.852C230.536 231.848 230.574 231.847 230.613 231.847ZM248.697 231.922C248.719 231.922 248.845 232.089 248.974 232.293C249.41 232.983 250.295 233.504 251.286 233.653C251.572 233.696 252.404 233.758 253.133 233.79L254.46 233.848L254.004 234.261C250.907 237.065 247.388 240.12 247.255 240.12C247.227 240.12 247.203 239.058 247.203 237.76V235.4L245.173 235.399L246.914 233.66C247.871 232.704 248.672 231.922 248.696 231.922H248.697ZM240.801 232.01C241.075 232.004 241.276 232.209 241.302 232.551C241.317 232.754 241.283 232.922 241.218 232.976C241.043 233.122 240.71 233.162 240.508 233.062C240.119 232.871 240.181 232.195 240.6 232.048C240.67 232.024 240.737 232.011 240.801 232.01ZM220.643 232.006C220.761 231.994 220.86 232.046 220.989 232.167C221.365 232.517 221.134 233.157 220.631 233.157C220.538 233.157 220.378 233.099 220.277 233.028C220.151 232.94 220.093 232.815 220.094 232.635C220.094 232.324 220.153 232.222 220.398 232.093C220.494 232.042 220.572 232.013 220.643 232.006ZM257.642 234.263C257.707 234.263 257.781 234.272 257.877 234.285C258.917 234.425 261.856 234.916 261.992 234.972C262.118 235.024 261.834 235.285 260.458 236.399C256.555 239.552 252.274 242.828 251.348 243.369C250.669 243.766 249.699 244.143 248.922 244.31C248.341 244.436 246.463 244.534 246.042 244.461C245.928 244.441 245.557 244.384 245.218 244.334C244.879 244.284 244.553 244.225 244.495 244.202C244.436 244.179 245.012 243.744 245.775 243.234C248.377 241.494 251.886 238.819 255.454 235.856C255.956 235.44 256.617 234.903 256.923 234.665C257.328 234.35 257.446 234.264 257.642 234.263ZM204.714 234.313C205.043 234.313 205 234.281 207.779 236.601C210.959 239.255 215.163 242.428 217.206 243.717C217.421 243.853 217.598 243.99 217.6 244.022C217.606 244.117 216.374 244.477 215.414 244.662C214.589 244.821 212.713 244.889 212.172 244.78C212.08 244.761 211.782 244.703 211.508 244.651C210.487 244.456 209.21 243.865 208.19 243.116C207.743 242.788 205.774 241.29 204.587 240.375C204.102 240.001 199.272 236.131 198.758 235.704C198.463 235.46 198.318 235.289 198.385 235.265C198.741 235.139 204.229 234.313 204.714 234.313ZM218.208 237.297C219.098 237.298 219.83 237.541 220.302 237.992C220.628 238.305 220.672 238.388 220.672 238.706C220.671 239.022 220.628 239.107 220.316 239.403C220.12 239.589 219.775 239.81 219.549 239.895C219.014 240.096 217.633 240.153 217.093 239.997C216.229 239.747 215.613 239.213 215.614 238.713C215.614 237.926 216.769 237.297 218.208 237.297ZM243.432 237.315C244.576 237.296 245.585 237.696 245.917 238.315C246.07 238.599 246.073 238.646 245.96 238.977C245.824 239.368 245.299 239.787 244.731 239.958C244.211 240.114 242.906 240.133 242.402 239.992C241.52 239.745 240.963 239.248 240.963 238.709C240.97 237.989 241.902 237.408 243.203 237.324C243.28 237.318 243.356 237.317 243.432 237.315ZM235.192 237.335C235.664 237.341 236.118 237.394 236.41 237.496C236.912 237.671 237.463 238.15 237.547 238.483C237.685 239.031 237.2 239.641 236.419 239.901C235.809 240.105 234.527 240.154 233.96 239.994C233.446 239.85 232.948 239.551 232.704 239.241C232.263 238.68 232.669 237.9 233.592 237.536C233.95 237.395 234.586 237.327 235.192 237.335ZM226.641 237.342C227.512 237.345 227.639 237.363 228.105 237.577C228.838 237.914 229.087 238.201 229.087 238.708C229.087 239.216 228.835 239.505 228.105 239.832C227.679 240.023 227.456 240.065 226.765 240.087C226.252 240.104 225.794 240.073 225.563 240.006C224.604 239.729 224.071 239.253 224.071 238.673C224.071 238.397 224.126 238.295 224.426 238.009C224.961 237.499 225.489 237.34 226.641 237.342ZM239.231 238.047C239.727 238.048 239.967 238.742 239.58 239.054C239.325 239.26 239.061 239.246 238.844 239.015C238.49 238.638 238.726 238.047 239.231 238.047ZM230.766 238.048C231.041 238.052 231.146 238.113 231.272 238.352C231.415 238.623 231.389 238.778 231.164 239.003C230.908 239.258 230.62 239.262 230.387 239.014C230.035 238.64 230.269 238.045 230.766 238.048ZM222.384 238.048C222.476 238.044 222.563 238.066 222.628 238.109C222.753 238.192 222.91 238.503 222.91 238.665C222.91 238.85 222.537 239.205 222.345 239.205C222.258 239.205 222.088 239.128 221.968 239.034C221.691 238.816 221.68 238.472 221.941 238.226C222.06 238.114 222.231 238.051 222.384 238.048ZM223.502 241.768L225.683 241.815L225.745 242.187C225.975 243.565 227.035 244.911 228.422 245.589C229.018 245.88 229.056 245.912 228.795 245.902C228.636 245.897 228.412 245.877 228.298 245.859C228.184 245.84 227.596 245.75 226.992 245.657C225.23 245.387 221.465 244.381 220.682 243.972C220.491 243.872 220.501 243.861 221.013 243.597C221.652 243.267 222.655 242.565 223.144 242.105L223.502 241.768ZM219.593 241.772C220.87 241.772 221.915 241.801 221.914 241.835C221.914 241.902 221.822 241.959 220.463 242.739C219.962 243.026 219.512 243.262 219.465 243.262C219.418 243.262 219.044 243.048 218.635 242.786C217.498 242.058 217.273 241.901 217.272 241.834C217.272 241.8 218.316 241.772 219.593 241.772ZM230.754 241.776H235.199L235.145 242.004C235.116 242.129 234.957 242.508 234.793 242.845C233.967 244.546 231.878 245.586 229.976 245.249C228.381 244.965 227.053 243.854 226.486 242.33C226.388 242.066 226.308 241.833 226.308 241.812C226.309 241.791 228.308 241.774 230.753 241.775L230.754 241.776ZM235.87 241.776L236.596 241.776C237.309 241.776 237.326 241.781 237.681 242.079C237.879 242.246 238.294 242.547 238.603 242.748C239.192 243.131 240.951 244.011 241.129 244.012C241.186 244.012 241.233 244.045 241.233 244.085C241.233 244.277 238.015 245.208 235.766 245.665C234.767 245.869 232.877 246.083 232.153 246.074L231.656 246.067L232.141 245.95C233.429 245.639 234.809 244.527 235.368 243.349C235.527 243.006 235.709 242.514 235.766 242.252L235.87 241.776ZM242.062 241.776C243.704 241.776 245.047 241.794 245.047 241.816C245.047 241.9 242.533 243.515 242.405 243.513C242.33 243.509 241.933 243.359 241.523 243.173C240.618 242.762 239.084 241.923 239.08 241.838C239.08 241.803 240.421 241.776 242.062 241.776Z" fill="currentcolor"/>
<path d="M284.377 300.9C284.377 300.746 278.91 301.38 271.655 308.684C272.695 306.918 273.566 305.099 274.259 303.256C282.472 300.978 283.977 297.513 285.855 291.348C285.059 292.942 279.536 294.305 278.115 296.864C276.999 298.87 275.814 300.801 274.779 301.762C275.322 300.075 275.721 298.38 275.963 296.701C275.998 296.427 276.032 296.155 276.063 295.887C278.735 294.547 284.994 290.118 285.401 281.74C284.2 283.539 279.707 283.303 276.281 293.033C276.36 291.066 276.298 289.164 276.158 287.33C278.764 285.178 283.803 278.831 282.895 265.993C281.871 267.984 276.521 274.749 276.293 279.353C276.202 281.219 276.008 282.717 275.806 283.845C275.764 283.49 275.72 283.137 275.674 282.789C275.444 281.022 275.102 279.352 274.68 277.783C275.008 275.936 275.887 273.26 277.547 271.11C279.651 268.38 278.968 265.994 278.228 264.403C277.489 262.811 277.887 259.23 277.887 259.23C277.887 259.23 272.859 264.262 274.138 275.949C273.651 274.444 273.093 273.041 272.491 271.75C272.386 270.259 272.23 268.671 273.276 266.449C274.644 263.55 276.179 259.115 272.48 252.464C272.422 255.078 270.147 259.457 270.431 262.811C270.644 265.318 271.047 267.858 271.523 269.809C270.786 268.44 270.011 267.244 269.246 266.164C269.071 264.369 269.898 261.87 269.805 257.522C269.69 252.237 267.356 251.101 266.788 248.257C264.732 253.767 265.861 260.114 267.529 263.879C267.361 263.663 267.194 263.453 267.03 263.245C266.459 262.52 265.922 261.837 265.448 261.169C265.474 257.228 264.162 253.372 263.203 251.668C262.178 249.849 259.047 248.315 258.99 246.779C258.221 252.44 260.961 256.294 263.458 259.111C263.47 259.137 263.48 259.162 263.492 259.188C258.931 254.886 253.698 257.465 253.698 257.465C253.698 257.465 256.942 260.482 259.617 260.706C262.179 260.925 263.437 260.728 264.887 261.559C265.339 262.194 265.845 262.842 266.383 263.524C262.87 261.606 257.724 263.456 255.689 264.743C258.65 267.073 261.553 266.506 263.203 265.426C264.67 264.465 266.361 265.346 267.439 264.875C268.309 266.004 269.22 267.253 270.103 268.709C270.905 270.108 271.676 271.686 272.365 273.438C270.446 270.766 267.146 267.494 263.032 267.416C263.146 269.12 265.081 272.417 267.756 273.953C269.936 275.203 272.227 275.7 273.495 276.793C274.031 278.679 274.456 280.722 274.715 282.923C274.715 282.947 274.715 282.975 274.727 282.999C272.253 276.824 265.447 274.048 263.605 273.896C263.605 273.896 266.62 276.114 266.848 278.955C267.077 281.799 269.752 283.332 272.198 284.13C273.611 284.589 274.55 285.712 275.08 286.634C275.267 289.152 275.322 291.808 275.08 294.527C274.312 282.766 266.226 282.765 266.226 282.765C266.226 282.765 267.478 283.788 267.706 285.835C267.933 287.881 268.446 289.585 270.95 292.315C272.937 294.479 274.097 297.214 274.294 299.245C273.563 302.124 272.376 305.004 270.766 307.757C272.201 304.103 273.142 298.938 271.236 294.532C270.95 297.09 267.081 300.9 267.081 304.082C267.081 306.796 268.196 310.418 267.256 312.728C266.772 313.31 266.268 313.877 265.745 314.434C266.007 312.764 265.819 310.344 266.17 308.632C265.261 309.994 264.71 313.636 264.081 316.108C262.928 317.199 261.695 318.231 260.39 319.197C263.513 315.538 265.105 309.59 264.406 304.064C262.129 306.261 259.094 310.81 258.941 314.374C258.82 317.231 257.575 319.988 256.656 321.634C256.437 321.76 256.22 321.886 255.998 322.009C255.317 322.378 254.623 322.727 253.916 323.054C257.315 319.977 258.184 314.471 258.184 312.023C254.345 314.698 250.235 320.961 249.733 324.624C249.012 324.833 248.281 325.012 247.541 325.154C244.58 325.697 241.34 325.738 238.656 324.341L238.497 324.643L238.337 324.947L238.019 325.552C241.142 327.162 244.657 327.063 247.797 326.493C248.955 326.266 250.084 325.96 251.181 325.596C252.59 327.926 256.366 329.98 258.789 329.76C261.293 329.533 263.799 328.32 265.468 328.85C263.266 325.212 259.473 324.15 256.969 324.985C254.736 325.729 253.229 325.987 252.067 325.282C253.659 324.693 255.185 323.98 256.642 323.184C256.836 323.077 257.026 322.966 257.217 322.856C260.23 324.697 264.047 324.373 266.606 323.545C269.414 322.636 270.476 319.831 272.753 318.618C266.91 317.102 263.722 319.147 262.357 320.436C261.282 321.45 259.738 322.226 258.352 322.181C260.653 320.754 262.766 319.121 264.671 317.341C266.296 317.311 269.739 318.359 272.26 316.305C269.837 315.53 267.893 315.267 266.247 315.784C266.78 315.229 267.294 314.662 267.788 314.084C269.674 314.167 273.111 315.331 275.731 313.86C278.976 312.043 282.391 308.914 282.391 308.914C282.391 308.914 277.951 308.743 275.56 309.371C277.895 308.063 284.384 301.069 284.384 300.9" fill="currentcolor"/>
<path d="M176.054 300.9C176.054 300.746 181.52 301.38 188.774 308.684C187.735 306.918 186.864 305.099 186.17 303.256C177.957 300.978 176.454 297.513 174.574 291.348C175.37 292.942 180.892 294.305 182.314 296.864C183.43 298.87 184.615 300.801 185.651 301.762C185.107 300.075 184.707 298.38 184.466 296.701C184.431 296.427 184.397 296.155 184.366 295.887C181.694 294.547 175.435 290.118 175.03 281.74C176.23 283.539 180.72 283.303 184.149 293.033C184.069 291.066 184.132 289.164 184.271 287.33C181.667 285.178 176.627 278.831 177.534 265.993C178.558 267.984 183.908 274.749 184.136 279.353C184.229 281.219 184.423 282.717 184.623 283.845C184.667 283.49 184.71 283.137 184.755 282.789C184.987 281.022 185.329 279.352 185.75 277.783C185.423 275.936 184.543 273.26 182.884 271.11C180.778 268.38 181.461 265.993 182.201 264.403C182.94 262.811 182.543 259.23 182.543 259.23C182.543 259.23 187.572 264.262 186.292 275.949C186.779 274.444 187.336 273.041 187.939 271.75C188.043 270.259 188.201 268.671 187.153 266.449C185.786 263.55 184.25 259.115 187.949 252.464C188.007 255.078 190.283 259.457 189.999 262.811C189.786 265.318 189.382 267.858 188.907 269.809C189.644 268.44 190.417 267.244 191.183 266.164C191.36 264.369 190.53 261.87 190.624 257.522C190.739 252.237 193.071 251.101 193.641 248.257C195.697 253.767 194.568 260.114 192.9 263.879C193.07 263.663 193.237 263.453 193.399 263.245C193.971 262.52 194.509 261.837 194.983 261.169C194.956 257.228 196.267 253.372 197.228 251.668C198.251 249.849 201.382 248.315 201.439 246.779C202.208 252.44 199.468 256.294 196.971 259.111C196.959 259.137 196.951 259.162 196.939 259.188C201.498 254.886 206.732 257.465 206.732 257.465C206.732 257.465 203.487 260.482 200.812 260.706C198.25 260.925 196.992 260.728 195.543 261.559C195.089 262.194 194.584 262.842 194.048 263.524C197.559 261.606 202.706 263.456 204.741 264.743C201.78 267.073 198.878 266.506 197.227 265.426C195.759 264.465 194.068 265.346 192.991 264.875C192.122 266.004 191.21 267.253 190.326 268.709C189.525 270.108 188.752 271.686 188.066 273.438C189.983 270.766 193.282 267.494 197.398 267.416C197.283 269.12 195.349 272.417 192.674 273.953C190.494 275.203 188.202 275.7 186.935 276.793C186.398 278.679 185.972 280.722 185.714 282.923C185.714 282.947 185.702 282.975 185.702 282.999C188.174 276.824 194.982 274.048 196.824 273.896C196.824 273.896 193.807 276.114 193.579 278.955C193.352 281.799 190.675 283.332 188.229 284.13C186.816 284.589 185.877 285.712 185.347 286.634C185.16 289.152 185.106 291.808 185.347 294.527C186.115 282.766 194.201 282.765 194.201 282.765C194.201 282.765 192.949 283.788 192.721 285.835C192.494 287.881 191.981 289.585 189.477 292.315C187.49 294.479 186.331 297.214 186.135 299.245C186.864 302.124 188.051 305.004 189.662 307.757C188.226 304.103 187.286 298.938 189.191 294.532C189.477 297.09 193.347 300.9 193.347 304.082C193.347 306.796 192.233 310.418 193.171 312.728C193.656 313.31 194.159 313.877 194.682 314.434C194.42 312.764 194.61 310.344 194.257 308.632C195.166 309.994 195.717 313.635 196.346 316.108C197.499 317.199 198.732 318.231 200.037 319.196C196.915 315.537 195.321 309.59 196.023 304.064C198.299 306.261 201.334 310.81 201.486 314.374C201.607 317.231 202.852 319.988 203.771 321.634C203.99 321.76 204.207 321.886 204.43 322.009C205.11 322.378 205.804 322.727 206.511 323.054C203.112 319.977 202.245 314.471 202.245 312.023C206.082 314.698 210.194 320.961 210.694 324.624C211.415 324.833 212.147 325.012 212.886 325.154C215.847 325.697 219.089 325.737 221.771 324.341L221.932 324.643L222.09 324.947L222.409 325.552C219.287 327.162 215.77 327.063 212.631 326.493C211.472 326.266 210.346 325.96 209.246 325.596C207.839 327.926 204.062 329.98 201.638 329.76C199.132 329.533 196.628 328.32 194.959 328.849C197.16 325.212 200.954 324.15 203.458 324.985C205.693 325.729 207.2 325.986 208.36 325.282C206.768 324.692 205.242 323.98 203.787 323.184C203.591 323.077 203.403 322.966 203.21 322.856C200.199 324.697 196.38 324.373 193.821 323.545C191.013 322.636 189.949 319.83 187.674 318.618C193.517 317.102 196.705 319.147 198.07 320.436C199.145 321.45 200.69 322.226 202.076 322.181C199.774 320.754 197.663 319.121 195.756 317.341C194.131 317.31 190.691 318.358 188.167 316.305C190.591 315.53 192.536 315.267 194.181 315.784C193.649 315.229 193.133 314.662 192.639 314.084C190.755 314.167 187.316 315.33 184.695 313.86C181.451 312.043 178.037 308.914 178.037 308.914C178.037 308.914 182.477 308.743 184.867 309.371C182.534 308.063 176.045 301.069 176.045 300.9" fill="currentcolor"/>
<path d="M209.369 279.372C208.813 280.123 208.195 281.045 207.515 282.136C206.852 283.227 206.118 284.497 205.312 285.946C203.485 289.256 202.016 292.27 200.906 294.989C200.852 295.168 200.673 295.257 200.369 295.257C200.064 295.257 199.912 295.132 199.912 294.882C199.912 294.81 199.939 294.703 199.992 294.56C200.494 293.504 200.986 292.458 201.47 291.42C201.972 290.383 202.473 289.345 202.975 288.308C203.53 287.127 204.022 286.018 204.452 284.98C204.9 283.925 205.303 282.914 205.661 281.948C205.625 281.984 205.518 282.064 205.339 282.189C205.16 282.297 204.918 282.467 204.613 282.699C204.255 282.95 203.96 283.173 203.727 283.37C203.494 283.567 203.315 283.728 203.19 283.853C202.993 283.996 202.84 284.068 202.733 284.068C202.643 284.068 202.598 284.023 202.598 283.934C202.598 283.773 202.76 283.54 203.082 283.236C203.601 282.717 204.273 282.055 205.097 281.25C205.921 280.445 206.897 279.497 208.025 278.406C208.133 278.37 208.231 278.352 208.321 278.352C208.589 278.352 208.831 278.451 209.046 278.647C209.279 278.844 209.395 279.041 209.395 279.238C209.395 279.309 209.387 279.354 209.369 279.372Z" fill="currentcolor"/>
<path d="M217.27 279.372C216.715 280.123 216.097 281.045 215.416 282.136C214.754 283.227 214.019 284.497 213.213 285.946C211.386 289.256 209.918 292.27 208.807 294.989C208.754 295.168 208.574 295.257 208.27 295.257C207.966 295.257 207.813 295.132 207.813 294.882C207.813 294.81 207.84 294.703 207.894 294.56C208.395 293.504 208.888 292.458 209.372 291.42C209.873 290.383 210.374 289.345 210.876 288.308C211.431 287.127 211.924 286.018 212.354 284.98C212.801 283.925 213.204 282.914 213.562 281.948C213.527 281.984 213.419 282.064 213.24 282.189C213.061 282.297 212.819 282.467 212.515 282.699C212.156 282.95 211.861 283.173 211.628 283.37C211.395 283.567 211.216 283.728 211.091 283.853C210.894 283.996 210.742 284.068 210.634 284.068C210.545 284.068 210.5 284.023 210.5 283.934C210.5 283.773 210.661 283.54 210.983 283.236C211.503 282.717 212.174 282.055 212.998 281.25C213.822 280.445 214.798 279.497 215.927 278.406C216.034 278.37 216.133 278.352 216.222 278.352C216.491 278.352 216.733 278.451 216.947 278.647C217.18 278.844 217.297 279.041 217.297 279.238C217.297 279.309 217.288 279.354 217.27 279.372Z" fill="currentcolor"/>
<path d="M227.838 276.984C227.838 277.467 227.48 278.594 226.763 280.365C226.53 280.937 226.298 281.519 226.065 282.109C225.832 282.681 225.599 283.254 225.366 283.826H224.963L225.715 277.44C225.769 277.082 225.921 276.787 226.172 276.554C226.423 276.322 226.727 276.206 227.086 276.206C227.587 276.206 227.838 276.465 227.838 276.984ZM223.674 276.957C223.674 277.44 223.324 278.576 222.626 280.365C222.393 280.937 222.16 281.518 221.927 282.109C221.695 282.681 221.453 283.254 221.202 283.826H220.826L221.551 277.467C221.587 277.145 221.739 276.858 222.008 276.608C222.295 276.34 222.599 276.205 222.921 276.205C223.423 276.205 223.674 276.456 223.674 276.957Z" fill="currentcolor"/>
<path d="M233.862 287.878C234.274 287.789 234.722 287.708 235.205 287.637C235.689 287.565 236.217 287.494 236.79 287.422C239.71 284.452 241.859 281.528 243.238 278.647C243.829 277.395 244.125 276.259 244.125 275.239C244.125 274.256 243.865 273.477 243.346 272.905C242.826 272.333 242.155 272.046 241.331 272.046C240.113 272.046 238.904 272.619 237.704 273.764C236.307 275.105 235.169 276.984 234.292 279.399C233.701 281.045 233.405 282.771 233.405 284.578C233.405 285.758 233.558 286.858 233.862 287.878ZM254.575 291.823C254.181 292.341 253.751 292.825 253.286 293.272C252.82 293.719 252.328 294.139 251.808 294.533C250.537 295.499 249.426 295.982 248.477 295.982C247.116 295.982 246.229 294.998 245.817 293.03C245.728 292.583 245.683 292.1 245.683 291.581C245.683 290.454 245.853 289.095 246.193 287.503C245.423 287.52 244.483 287.556 243.372 287.61C242.262 287.646 240.964 287.708 239.477 287.798C239.405 287.851 239.074 288.155 238.483 288.71C237.892 289.265 237.023 290.078 235.877 291.152C236.969 292.046 238.34 292.494 239.987 292.494C241.134 292.494 241.984 292.216 242.54 291.662C242.611 291.59 242.683 291.59 242.754 291.662C242.826 291.733 242.826 291.805 242.754 291.876C242.128 292.502 241.205 292.816 239.987 292.816C238.214 292.816 236.754 292.35 235.608 291.42C234.14 292.816 232.841 293.978 231.713 294.909C230.584 295.821 229.617 296.51 228.811 296.975C229.205 297.171 229.653 297.333 230.155 297.458C230.656 297.583 231.22 297.681 231.847 297.753C232.044 297.789 232.143 297.833 232.143 297.887C232.143 298.03 231.982 298.084 231.659 298.048C230.388 297.905 229.295 297.628 228.381 297.216C225.516 298.898 223.214 299.703 221.477 299.631C220.725 299.613 220.349 299.372 220.349 298.907C220.349 298.71 220.429 298.46 220.591 298.155C220.68 297.905 220.823 297.735 221.02 297.646C220.859 298.021 220.779 298.325 220.779 298.558C220.779 298.952 221.083 299.157 221.692 299.175C223.322 299.229 225.382 298.495 227.871 296.975C226.456 296.313 225.749 295.383 225.749 294.184C225.749 293.361 226.098 292.52 226.796 291.662C228.265 289.873 230.45 288.647 233.352 287.986C232.993 286.859 232.814 285.624 232.814 284.282C232.814 282.494 233.092 280.848 233.647 279.345C234.578 276.823 235.796 274.882 237.301 273.522C238.608 272.341 239.943 271.751 241.304 271.751C242.289 271.751 243.095 272.082 243.722 272.744C244.349 273.388 244.662 274.274 244.662 275.401C244.662 276.402 244.375 277.529 243.802 278.782C242.531 281.483 240.381 284.345 237.354 287.368C237.552 287.333 237.784 287.306 238.053 287.288C238.34 287.252 238.662 287.216 239.02 287.181C239.987 286.215 240.981 285.168 242.002 284.041C243.023 282.896 244.08 281.644 245.172 280.284C248.181 276.527 249.686 273.978 249.686 272.637C249.686 271.993 249.336 271.653 248.638 271.617C248.477 271.617 248.396 271.572 248.396 271.483C248.396 271.322 248.54 271.241 248.826 271.241C250.169 271.295 250.841 271.858 250.841 272.932C250.841 273.647 250.546 274.578 249.955 275.722C250.044 275.848 250.062 276.036 250.008 276.286C249.739 277.359 249.417 278.755 249.041 280.472C248.665 282.189 248.226 284.256 247.725 286.671C249.963 286.313 251.083 285.392 251.083 283.907C251.083 283.71 251.163 283.612 251.324 283.612C251.432 283.612 251.504 283.683 251.54 283.826C251.629 285.758 250.322 286.939 247.617 287.368C247.492 288.12 247.402 288.808 247.348 289.435C247.295 290.061 247.268 290.642 247.268 291.179C247.268 292.073 247.349 292.824 247.51 293.433C247.796 294.721 248.36 295.365 249.202 295.365C249.901 295.365 250.787 294.882 251.862 293.916C252.059 293.737 252.336 293.46 252.695 293.084C253.053 292.708 253.501 292.225 254.038 291.635C254.253 291.42 254.414 291.313 254.522 291.313C254.611 291.313 254.656 291.384 254.656 291.528C254.656 291.653 254.629 291.751 254.575 291.823ZM249.202 277.064C247.984 278.978 246.614 280.749 245.092 282.377C244.68 282.824 244.071 283.442 243.265 284.229C242.477 284.998 241.483 285.946 240.283 287.073C240.999 287.002 242.011 286.948 243.319 286.912C244.823 286.894 245.835 286.867 246.354 286.832C246.516 286.152 246.713 285.392 246.946 284.551C247.196 283.692 247.474 282.753 247.778 281.733C248.011 280.946 248.244 280.168 248.477 279.399C248.71 278.63 248.951 277.851 249.202 277.064ZM233.781 289.032C232.205 289.551 230.791 290.248 229.537 291.125C227.871 292.288 227.038 293.442 227.038 294.587C227.038 295.356 227.468 296.062 228.328 296.706C229.098 296.205 230.047 295.481 231.175 294.533C232.304 293.585 233.62 292.395 235.125 290.964C234.874 290.731 234.632 290.445 234.399 290.105L234.104 290.347C231.919 292.207 230.665 293.138 230.343 293.138C230.271 293.138 230.226 293.102 230.208 293.03C230.173 292.923 230.19 292.86 230.262 292.842C230.835 292.485 231.444 292.055 232.089 291.554C232.752 291.053 233.459 290.481 234.211 289.837C234.122 289.712 234.041 289.587 233.97 289.461C233.916 289.318 233.853 289.175 233.781 289.032ZM235.716 288.468C235.465 288.54 235.214 288.612 234.964 288.683C234.713 288.737 234.462 288.808 234.211 288.898C234.265 289.005 234.319 289.112 234.373 289.22C234.426 289.327 234.489 289.434 234.561 289.542C234.955 289.202 235.34 288.844 235.716 288.468ZM238.241 287.959C237.883 288.03 237.543 288.093 237.22 288.146C236.898 288.2 236.611 288.254 236.361 288.308C236.092 288.558 235.823 288.817 235.555 289.086C235.286 289.336 235.008 289.587 234.722 289.837C234.811 289.98 234.91 290.123 235.017 290.266C235.143 290.409 235.268 290.553 235.393 290.696C235.734 290.392 236.137 290.016 236.602 289.569C237.068 289.104 237.614 288.567 238.241 287.959Z" fill="currentcolor"/>
<path d="M259.907 276.984C259.907 277.467 259.548 278.594 258.832 280.365C258.599 280.937 258.366 281.519 258.133 282.109C257.901 282.681 257.668 283.254 257.435 283.826H257.032L257.784 277.44C257.838 277.082 257.99 276.787 258.241 276.554C258.492 276.322 258.796 276.206 259.154 276.206C259.656 276.206 259.907 276.465 259.907 276.984ZM255.743 276.957C255.743 277.44 255.393 278.576 254.695 280.365C254.462 280.937 254.229 281.518 253.996 282.109C253.763 282.681 253.522 283.254 253.271 283.826H252.895L253.62 277.467C253.656 277.145 253.808 276.858 254.077 276.608C254.363 276.34 254.668 276.205 254.99 276.205C255.492 276.205 255.743 276.456 255.743 276.957Z" fill="currentcolor"/>

</svg>
