<svg viewBox="0 0 1180 580" fill="currentcolor" xmlns="http://www.w3.org/2000/svg">
<path d="M219.56 319.327C200.777 318.506 187.428 315.618 187.428 312.375C187.428 310.584 193.26 308.476 201.639 307.239C215.608 305.177 239.867 304.884 254.68 306.597C267.521 308.082 274.168 310.285 273.525 312.844C272.413 317.266 245.732 320.472 219.56 319.327ZM242.378 316.827C254.328 316.158 262.485 314.729 264.018 313.037C264.769 312.208 264.293 311.677 262.039 310.835C251.216 306.791 207.711 306.972 198.367 311.101C196.708 311.834 196.428 312.722 197.612 313.492C199.869 314.96 209.688 316.45 220.272 316.931C225.407 317.164 237.357 317.108 242.378 316.827ZM187.287 306.929C187.216 306.563 186.776 304.063 186.309 301.374C182.977 282.152 174.159 258.162 164.43 241.851C160.992 236.087 160.608 235.623 159.187 235.526C155.848 235.296 153.84 232.12 155.044 228.971C156.361 225.527 160.512 224.728 163.121 227.415C164.137 228.462 164.214 228.683 164.197 230.497C164.186 231.572 164.084 232.735 163.969 233.082C163.797 233.6 164.158 233.996 165.979 235.29C169.847 238.039 181.42 252.354 189.692 264.622C198.873 278.238 202.14 282.132 204.383 282.132C206.251 282.132 208.575 280.139 210.866 276.572C212.065 274.706 216.829 265.129 218.475 261.275C220.43 256.699 222.438 250 225.95 236.341L227.829 229.033L226.734 227.823C224.51 225.364 225.494 221.333 228.61 220.144C233.248 218.375 237.39 223.866 234.239 227.607L233.422 228.576L234.315 232.249C235.899 238.759 239.523 251.808 240.931 256.067C243.354 263.396 249.723 276.157 252.647 279.541C253.916 281.009 255.806 282.132 257.007 282.132C257.96 282.132 259.499 280.92 261.623 278.497C263.563 276.283 265.824 273.135 272.264 263.679C279.006 253.78 290.379 239.327 293.58 236.59C294.315 235.962 295.596 234.987 296.427 234.423C297.651 233.592 297.895 233.278 297.712 232.767C297.234 231.427 297.466 228.898 298.152 227.979C300.211 225.22 304.265 225.206 306.226 227.952C307.268 229.411 307.256 232.038 306.201 233.516C305.275 234.813 302.987 235.9 301.718 235.646C300.898 235.483 300.7 235.634 299.579 237.283C297.838 239.844 293.831 246.864 291.786 250.937C283.777 266.888 277.166 286.908 274.56 303.109C274.169 305.538 273.821 307.566 273.786 307.617C273.751 307.667 273.243 307.427 272.657 307.084C270.23 305.664 263.09 304.329 253.589 303.52C247.06 302.963 213.959 302.966 207.481 303.524C198.049 304.335 191.94 305.433 188.975 306.851L187.418 307.595L187.287 306.929ZM202.713 277.77C201.275 276.729 199.049 274.058 195.046 268.569L192.171 264.626L192.162 262.575C192.147 258.915 191.551 254.628 190.398 249.891L189.269 245.251L187.565 245.271C184.395 245.309 182.533 243.542 182.533 240.495C182.533 238.505 183.05 237.492 184.692 236.267C185.886 235.376 188.657 235.382 189.867 236.277C191.467 237.46 192.213 238.898 192.121 240.621C192.041 242.122 192.107 242.253 194.106 244.567C199.494 250.808 206.537 261.057 209.454 266.902L211.22 270.44L210.069 272.766C208.691 275.549 205.864 278.662 204.714 278.662C204.291 278.662 203.39 278.261 202.713 277.77ZM253.939 276.849C252.838 275.739 251.696 274.143 250.995 272.737L249.851 270.44L251.625 266.902C254.619 260.929 261.434 251.004 266.931 244.612C268.98 242.23 269.222 241.809 269.222 240.637C269.222 237.191 273.277 234.895 276.459 236.538C278.194 237.434 279.266 239.831 278.872 241.93C278.422 244.325 275.267 246.248 272.871 245.587L271.793 245.289L270.672 249.911C269.611 254.29 268.907 259.534 268.906 263.073C268.906 264.613 268.776 264.851 265.546 269.224C260.145 276.535 258.075 278.663 256.363 278.663C256.019 278.663 254.928 277.846 253.939 276.849Z" fill="currentcolor"/>

</svg>
