<svg  viewBox="0 0 1180 580" fill="currentcolor" xmlns="http://www.w3.org/2000/svg">
<path d="M235.502 209.223C234.241 209.223 234.168 209.244 233.499 209.792C232.625 210.507 232.314 211.367 232.622 212.217C232.868 212.897 232.756 213.036 231.912 213.103C231.355 213.147 231.274 213.202 231.307 213.512C231.328 213.71 231.492 214.018 231.672 214.197C232.215 214.74 233.138 216.906 233.294 218.002C233.559 219.872 233.217 220.293 231.434 220.294C230.316 220.294 229.315 220.052 228.039 219.471C227.676 219.305 227.333 219.17 227.276 219.17C227.098 219.17 227.165 219.739 227.366 219.94C227.602 220.176 227.644 220.165 226.351 220.207C225.256 220.242 224.597 220.548 223.923 221.332C223.123 222.262 223.229 223.851 224.149 224.731C224.592 225.155 224.714 225.186 225.939 225.186C227.03 225.186 227.242 225.227 227.188 225.427C226.811 226.802 227.414 226.859 228.607 225.561C229.121 225.002 229.918 224.342 230.379 224.095L231.216 223.646L231.916 223.985C232.471 224.254 232.67 224.466 232.881 225.02C233.263 226.018 233.152 227.062 232.441 229.174C232.289 229.626 231.901 230.07 231.001 230.822C229.244 232.288 227.661 234.535 226.844 236.719C226.369 237.99 226.326 240.956 226.764 242.238C227.36 243.983 228.467 245.697 229.841 247.004L230.859 247.972L230.052 248.571C229.608 248.901 229.096 249.17 228.914 249.17C228.607 249.17 228.59 249.107 228.689 248.319C228.808 247.368 228.622 246.703 228.098 246.205C227.33 245.474 226.95 245.322 225.889 245.322C224.933 245.322 224.797 245.366 224.282 245.842C223.973 246.128 223.629 246.567 223.518 246.816C223.387 247.108 223.216 247.249 223.036 247.215C222.815 247.173 222.746 246.964 222.708 246.227C222.663 245.357 222.609 245.243 221.945 244.598C221.15 243.827 220.416 243.609 219.219 243.788C218.482 243.898 217.677 244.608 217.369 245.418C217.125 246.06 216.718 245.837 216.63 245.014C216.573 244.482 216.117 243.892 215.352 243.36C214.588 242.829 213.196 242.741 212.562 243.185C211.954 243.61 211.634 243.974 211.51 244.382C211.2 245.396 210.191 245.644 209.393 244.901C209.146 244.671 208.776 244.418 208.571 244.34C208.152 244.179 206.88 244.175 206.332 244.333C205.864 244.468 205.019 245.269 204.836 245.751C204.671 246.185 204.222 246.386 202.759 246.681C202.185 246.797 201.49 246.975 201.214 247.077C200.939 247.178 200.253 247.24 199.689 247.213L198.663 247.165L198.58 246.443C198.449 245.309 197.812 244.609 196.543 244.205C195.979 244.026 195.742 244.026 195.098 244.205C194.232 244.447 193.325 245.181 193.251 245.698C193.191 246.121 192.479 246.29 192.479 245.882C192.479 245.737 192.552 245.484 192.641 245.318C192.873 244.884 192.403 244.055 191.567 243.425C190.976 242.98 190.759 242.913 189.913 242.913C189.151 242.913 188.801 243 188.302 243.315C187.618 243.746 187.131 244.631 187.212 245.297C187.244 245.56 187.128 245.782 186.85 245.991C186.423 246.309 185.894 246.25 185.894 245.882C185.894 245.51 185.469 244.85 184.921 244.372C184.323 243.85 183.346 243.629 182.368 243.794C181.238 243.985 180.21 245.594 180.386 246.898C180.463 247.476 180.43 247.543 179.955 247.78C179.486 248.014 179.407 248.014 179.054 247.784C178.84 247.644 178.666 247.467 178.666 247.388C178.666 247.31 178.554 247.246 178.417 247.246C178.28 247.246 177.956 247.137 177.697 247.003C177.31 246.803 177.095 246.792 176.504 246.941C174.765 247.378 173.998 249.128 174.845 250.725C175.194 251.382 175.195 251.404 174.901 251.728C174.549 252.116 174.081 252.161 173.95 251.819C173.881 251.64 173.597 251.578 172.845 251.578C171.961 251.578 171.759 251.638 171.259 252.05C170.928 252.322 170.564 252.84 170.399 253.271C170.123 253.994 170.124 254.051 170.414 254.905C170.58 255.392 170.806 255.825 170.916 255.867C171.472 256.08 170.735 257.353 170.056 257.353C169.242 257.353 168.4 258.091 167.99 259.163C167.712 259.889 167.712 259.952 167.984 260.682C168.278 261.47 168.795 262.163 169.097 262.172C169.192 262.176 169.438 262.317 169.643 262.488C169.989 262.776 170.002 262.844 169.821 263.405C169.714 263.739 169.606 264.093 169.581 264.192C169.557 264.291 169.285 264.419 168.977 264.477C168.192 264.624 167.273 265.507 167.156 266.226C166.983 267.288 167.224 268.171 167.858 268.804C168.178 269.124 168.561 269.386 168.71 269.386C169.105 269.386 169.545 269.945 169.484 270.37C169.454 270.573 169.191 270.899 168.899 271.095C167.911 271.758 167.663 272.227 167.672 273.408C167.679 274.239 167.755 274.564 168.023 274.903C168.465 275.465 169.441 276.124 169.83 276.124C170.104 276.124 170.635 276.667 170.635 276.947C170.635 277.008 170.32 277.38 169.936 277.775C169.17 278.563 168.972 279.16 169.136 280.191C169.338 281.46 170.409 282.381 171.683 282.381C172.231 282.381 172.43 282.455 172.566 282.708C172.751 283.053 172.642 283.664 172.395 283.664C172.153 283.664 171.599 284.97 171.599 285.54C171.599 286.214 172.05 287.06 172.744 287.687C173.257 288.15 173.342 288.171 174.375 288.106C175.32 288.047 175.487 288.078 175.627 288.34C175.757 288.583 175.662 288.82 175.139 289.549C174.647 290.235 174.49 290.606 174.49 291.078C174.49 292.396 175.482 293.505 177.1 293.997C177.398 294.087 177.486 294.65 177.228 294.809C177.144 294.861 176.801 294.756 176.465 294.575C175.364 293.982 174.798 293.904 173.899 294.22C173.453 294.377 172.916 294.623 172.705 294.766L172.322 295.028L172.708 295.723C173.773 297.64 176.366 300.415 178.184 301.585C179.585 302.487 179.569 302.469 179.693 303.246C179.907 304.582 181.161 305.643 182.526 305.643C183.163 305.643 183.294 305.73 184.639 307.044L186.072 308.446L185.965 309.442C185.865 310.382 185.883 310.461 186.29 310.838C186.528 311.058 186.952 311.288 187.232 311.348C187.939 311.5 188.45 311.792 189.107 312.419C189.839 313.119 191.355 314.888 191.355 315.043C191.355 315.109 191.475 315.296 191.622 315.458C191.854 315.714 191.862 315.831 191.681 316.378C191.447 317.086 191.55 317.904 191.942 318.464C192.087 318.671 192.647 319.041 193.186 319.287C193.725 319.533 194.314 319.866 194.496 320.028C195.609 321.022 197.399 321.652 203.081 323.051C204.804 323.475 206.06 323.754 206.694 323.852C207.048 323.907 207.554 324.014 207.819 324.09C208.084 324.167 208.987 324.342 209.827 324.479C210.666 324.617 211.822 324.807 212.396 324.902C214.101 325.184 216.853 325.528 218.741 325.695C219.713 325.781 221.122 325.922 221.873 326.01C223.817 326.237 227.119 326.529 229.181 326.656C231.715 326.812 242.496 326.819 244.68 326.666C247.155 326.493 250.397 326.205 252.068 326.01C252.819 325.922 254.229 325.78 255.2 325.694C257.822 325.461 261.898 324.908 264.034 324.496C268.387 323.656 270.844 323.111 272.395 322.639C272.665 322.557 273.207 322.421 273.6 322.337C274.707 322.1 276.04 321.742 276.483 321.563C276.703 321.474 277.209 321.27 277.607 321.11C278.004 320.95 278.731 320.52 279.222 320.155C279.712 319.79 280.29 319.445 280.507 319.389C282.007 318.999 282.741 317.686 282.237 316.295C282.056 315.795 282.084 315.725 282.939 314.599C284.556 312.467 285.573 311.592 286.723 311.345C287.01 311.283 287.47 311.007 287.746 310.732C288.223 310.256 288.242 310.186 288.159 309.263L288.071 308.294L289.384 306.97C290.69 305.654 290.702 305.646 291.526 305.645C292.243 305.641 292.46 305.56 293.133 305.029C293.64 304.629 294.065 304.101 294.352 303.515C294.876 302.446 295.323 301.953 296.721 300.899C297.953 299.969 299.373 298.502 300.125 297.381C301.022 296.044 301.453 295.458 301.579 295.402C301.646 295.373 301.7 295.152 301.7 294.911C301.7 294.236 300.904 293.932 299.134 293.932C298.347 293.932 297.659 294.004 297.604 294.092C297.549 294.18 297.288 294.252 297.023 294.252C296.743 294.252 296.583 294.185 296.64 294.092C296.695 294.004 296.908 293.932 297.114 293.932C297.321 293.932 297.531 293.823 297.582 293.691C297.633 293.559 297.815 293.45 297.987 293.45C298.159 293.45 298.524 293.168 298.797 292.823C299.218 292.292 299.298 292.047 299.321 291.221C299.345 290.342 299.297 290.183 298.827 289.599C298.465 289.149 298.322 288.818 298.357 288.514C298.407 288.081 298.419 288.077 299.451 288.126C300.349 288.17 300.568 288.122 301.015 287.79C301.992 287.063 302.182 286.687 302.179 285.484C302.175 284.495 302.129 284.332 301.697 283.843C301.208 283.289 301.143 283.083 301.315 282.635C301.387 282.448 301.636 282.381 302.26 282.381C302.816 282.381 303.175 282.298 303.306 282.14C303.416 282.008 303.579 281.899 303.669 281.899C303.987 281.899 304.541 281.126 304.746 280.396C305.033 279.37 304.746 278.346 304.005 277.756C303.709 277.52 303.467 277.196 303.467 277.036C303.467 276.532 303.784 276.124 304.175 276.124C304.382 276.124 304.642 276.015 304.752 275.883C304.862 275.751 305.025 275.643 305.114 275.643C305.383 275.643 305.943 274.943 306.157 274.34C306.581 273.146 306.279 272.131 305.254 271.308C304.893 271.018 304.554 270.644 304.5 270.477C304.384 270.109 304.824 269.386 305.164 269.386C305.87 269.386 307 267.861 307 266.909C307 266.359 306.407 265.271 305.918 264.926C305.674 264.754 305.221 264.559 304.912 264.493C304.227 264.346 304.115 264.19 304.112 263.382C304.108 262.789 304.453 262.166 304.783 262.166C304.974 262.166 305.428 261.704 305.764 261.169C306.285 260.337 306.066 258.823 305.316 258.073C304.939 257.697 304.254 257.353 303.88 257.353C303.321 257.353 302.535 256.242 302.902 255.972C303.036 255.874 303.146 255.721 303.146 255.631C303.146 255.541 303.254 255.378 303.386 255.268C303.555 255.128 303.627 254.758 303.627 254.041C303.627 253.038 303.61 252.996 302.909 252.296C302.219 251.607 302.152 251.578 301.234 251.578C300.598 251.578 300.196 251.659 300.036 251.819C299.706 252.148 299.396 252.12 299.042 251.73C298.753 251.41 298.753 251.387 299.042 250.848C299.465 250.064 299.467 248.586 299.047 248.019C298.698 247.549 297.847 247.024 297.178 246.867C296.73 246.762 295.978 247.038 294.92 247.696C294.354 248.048 294.306 248.053 293.917 247.798C293.557 247.563 293.508 247.419 293.508 246.611C293.508 244.612 292.276 243.525 290.317 243.794C289.359 243.926 288.368 244.744 288.118 245.611C287.977 246.101 287.881 246.196 287.568 246.161C286.999 246.096 286.762 245.822 286.762 245.231C286.762 243.893 285.586 242.915 283.977 242.915C283.026 242.915 282.94 242.948 282.18 243.617C281.388 244.314 281.381 244.328 281.412 245.222C281.439 246.023 281.407 246.123 281.126 246.123C280.951 246.123 280.768 245.997 280.719 245.843C280.439 244.967 279.859 244.496 278.594 244.118C278.092 243.968 276.818 244.322 276.342 244.744C275.74 245.277 275.197 246.234 275.197 246.762V247.246H274.156C273.584 247.246 272.843 247.144 272.51 247.019C272.177 246.893 271.406 246.703 270.798 246.595C270.183 246.487 269.596 246.285 269.477 246.141C269.359 245.999 268.941 245.522 268.547 245.081L267.83 244.278H266.567C265.352 244.278 265.279 244.3 264.637 244.849C264.078 245.326 263.874 245.408 263.387 245.351C263.033 245.31 262.772 245.181 262.721 245.022C262.275 243.621 261.378 242.915 260.046 242.915C259.351 242.915 259.062 243.004 258.557 243.373C257.612 244.063 257.36 244.416 257.322 245.1C257.294 245.607 257.222 245.732 256.932 245.773C256.657 245.812 256.551 245.721 256.463 245.372C256.401 245.124 256.111 244.668 255.819 244.359C255.307 243.817 255.247 243.797 254.12 243.797C253.084 243.797 252.884 243.849 252.357 244.251C251.451 244.944 251.055 245.719 251.181 246.556C251.274 247.178 251.252 247.246 250.957 247.246C250.74 247.246 250.524 247.043 250.32 246.645C249.831 245.689 249.201 245.321 248.056 245.321C247.307 245.321 246.944 245.409 246.483 245.701C245.402 246.387 245.244 246.671 245.242 247.915C245.242 249.393 245.001 249.562 243.778 248.943L242.925 248.512L243.843 247.42C246.23 244.58 247.429 240.582 246.925 237.139C246.815 236.389 246.626 235.633 246.505 235.459C246.384 235.285 246.286 235.045 246.286 234.925C246.286 234.642 245.332 233.211 244.649 232.469C243.957 231.716 242.658 230.715 241.556 230.085C239.334 228.815 238.465 224.995 240.16 223.948C240.698 223.616 240.71 223.615 241.286 223.915C242.098 224.337 242.729 224.779 243.39 225.386C244.153 226.087 244.396 226.067 244.33 225.307L244.278 224.706L245.061 224.656C247.048 224.53 248.288 222.595 247.475 220.892C247.334 220.597 246.861 220.112 246.424 219.814C245.69 219.313 245.589 219.287 245.103 219.462C244.244 219.772 244.163 219.724 244.44 219.062C244.637 218.591 244.645 218.446 244.482 218.343C244.187 218.156 244.067 218.174 243.332 218.512C242.037 219.107 240.405 219.652 239.92 219.652C239.527 219.652 238.929 219.117 238.726 218.584C238.325 217.53 238.736 215.628 239.701 214.06C240.462 212.826 240.399 212.713 239.031 212.848C237.945 212.955 237.887 212.944 237.999 212.657C238.223 212.079 238.283 210.907 238.112 210.467C238.014 210.214 237.699 209.909 237.375 209.755C237.063 209.607 236.809 209.427 236.809 209.355C236.809 209.283 236.22 209.224 235.5 209.224L235.502 209.223ZM235.192 210.056C235.786 210.039 236.389 210.202 236.771 210.552C237.221 210.966 237.266 211.945 236.851 212.305C236.518 212.594 234.485 212.795 233.97 212.59C233.212 212.288 233.06 211.298 233.671 210.641C234.015 210.27 234.599 210.073 235.192 210.056ZM245.508 220.453C245.916 220.453 246.597 221.078 246.851 221.685C247.051 222.164 247.053 222.306 246.863 222.673C246.741 222.908 246.508 223.219 246.344 223.364C245.768 223.872 244.352 223.838 244.015 223.308C243.942 223.194 243.882 222.623 243.881 222.039L243.877 220.978L244.565 220.716C244.943 220.571 245.367 220.453 245.507 220.453H245.508ZM236.117 220.651C236.282 220.645 236.454 220.655 236.633 220.678C238.672 220.957 238.923 223.432 236.995 224.237C235.506 224.858 234.223 224.116 234.201 222.62C234.183 221.462 234.962 220.694 236.117 220.651ZM225.927 221.148C226.355 221.148 226.794 221.3 227.133 221.616C227.61 222.061 227.652 223.47 227.201 223.878C227.008 224.052 226.625 224.143 226.089 224.143C225.389 224.143 225.199 224.072 224.776 223.65C224.214 223.088 224.15 222.571 224.557 221.883C224.842 221.401 225.376 221.148 225.927 221.148ZM237.108 229.443C237.676 229.43 237.793 229.494 237.901 229.697C237.989 229.863 238.114 231.298 238.178 232.887C238.316 236.328 238.427 236.758 239.3 237.251C239.862 237.569 240.171 237.614 241.772 237.617C243.31 237.621 243.803 237.686 244.866 238.038C246.327 238.522 246.389 238.625 246.212 240.27C246.127 241.067 246.022 241.365 245.761 241.547C245.454 241.762 245.365 241.752 244.85 241.447C244.351 241.152 244.129 241.123 243.075 241.217C241.349 241.371 241.387 241.369 239.581 241.338C237.539 241.303 237.336 240.995 239.34 240.973C240.113 240.964 240.927 240.895 241.147 240.82C241.663 240.644 233.799 240.773 232.072 240.969C230.657 241.129 229.568 241.392 228.915 241.73C228.681 241.852 228.385 241.951 228.258 241.951C228.001 241.951 227.736 241.168 227.578 239.94C227.492 239.274 227.525 239.088 227.765 238.883C228.185 238.524 229.557 238.176 231.648 237.899C233.232 237.689 233.529 237.601 233.897 237.233L234.321 236.81V233.529C234.321 229.505 234.267 229.611 236.373 229.48C236.679 229.46 236.919 229.447 237.108 229.443ZM214.24 243.395C214.555 243.395 215.274 243.847 215.643 244.277C216.245 244.977 215.819 246.384 214.83 246.966C214.219 247.325 213.065 247.455 212.597 247.218C211.91 246.871 211.811 245.368 212.411 244.385C212.641 244.008 213.774 243.395 214.24 243.395ZM259.831 243.442C259.888 243.446 259.945 243.451 260.001 243.461C260.641 243.581 261.707 244.443 261.707 244.841C261.707 245.006 261.779 245.185 261.867 245.24C262.346 245.536 261.822 247.134 261.191 247.303C259.658 247.713 258.006 246.582 258.016 245.128C258.022 244.257 258.971 243.406 259.831 243.442ZM283.556 243.474C283.911 243.474 284.331 243.606 284.941 243.882C285.47 244.121 285.662 244.327 285.872 244.876C286.103 245.479 286.108 245.635 285.915 246.095C285.792 246.385 285.492 246.726 285.246 246.854C284.584 247.197 284.018 247.137 283.25 246.644C282.392 246.093 281.821 244.997 282.087 244.413C282.182 244.206 282.496 243.891 282.785 243.714C283.042 243.556 283.28 243.474 283.556 243.474ZM190.494 243.559C190.858 243.57 191.192 243.652 191.441 243.815C192.053 244.215 192.001 245.283 191.331 246.045C191.053 246.361 190.623 246.725 190.375 246.853C189.608 247.249 188.585 247.03 188.105 246.366C187.87 246.04 187.975 244.735 188.263 244.41C188.754 243.857 189.695 243.536 190.494 243.559ZM183.396 244.358C184.5 244.358 185.091 244.91 185.091 245.941C185.091 246.846 184.892 247.175 184.004 247.737C182.497 248.692 181.236 248.222 181.236 246.706C181.236 245.233 182.042 244.358 183.396 244.358ZM220.21 244.358C220.98 244.358 221.085 244.405 221.54 244.956C221.811 245.285 222.034 245.707 222.034 245.894C222.034 246.441 221.57 247.215 220.965 247.675C220.571 247.976 220.151 248.124 219.556 248.174C218.761 248.239 218.686 248.214 218.363 247.76C217.75 246.901 218.019 245.443 218.922 244.719C219.26 244.448 219.582 244.358 220.21 244.358ZM253.759 244.358C254.507 244.358 254.697 244.424 255.119 244.836C255.992 245.689 256.203 247.008 255.591 247.785C255.324 248.124 255.126 248.207 254.588 248.201C253.8 248.193 252.878 247.747 252.405 247.147C252.166 246.844 252.07 246.489 252.07 245.919C252.07 244.797 252.545 244.358 253.759 244.358ZM290.539 244.358C291.226 244.358 291.494 244.44 291.888 244.77C292.727 245.476 292.944 247.182 292.287 247.907C291.655 248.604 289.85 248.072 289.097 246.966C288.565 246.183 288.585 245.741 289.186 244.982C289.651 244.396 289.734 244.358 290.539 244.358ZM277.858 244.842C278.746 244.838 278.873 244.884 279.332 245.36C280.213 246.275 280.155 247.111 279.154 247.924C278.6 248.373 277.607 248.289 276.829 247.726C276.198 247.269 276.163 247.2 276.163 246.425C276.163 245.227 276.571 244.845 277.858 244.842ZM196.226 244.857C196.634 244.861 197.005 244.945 197.218 245.132C197.602 245.47 197.941 246.034 197.941 246.336C197.941 246.788 197.424 247.561 196.91 247.878C195.848 248.534 194.667 248.181 194.088 247.035C193.907 246.677 193.9 246.52 194.053 246.275C194.159 246.105 194.246 245.863 194.246 245.736C194.246 245.228 195.328 244.849 196.226 244.857ZM266.028 244.998C266.348 244.998 266.678 245.071 266.975 245.225C268.284 245.909 268.878 247.494 268.125 248.295C267.468 248.993 266.528 248.835 265.12 247.789C264.699 247.477 264.384 246.47 264.528 245.896C264.669 245.338 265.323 244.996 266.028 244.998ZM208.03 245.002C209.185 245.002 209.837 246.091 209.3 247.125C209.037 247.631 208.761 247.896 208.041 248.337C206.817 249.084 205.49 248.631 205.49 247.466C205.49 246.094 206.615 245.002 208.03 245.002ZM247.511 245.804C248.585 245.804 249.47 246.531 249.798 247.683C250.042 248.539 249.731 249.414 249.095 249.655C248.641 249.827 248.506 249.83 247.893 249.675C247.171 249.493 246.485 248.973 246.126 248.336C245.709 247.594 245.771 247.229 246.454 246.405C246.856 245.921 247.062 245.804 247.511 245.804ZM226.295 245.815C226.681 245.811 227.033 245.972 227.409 246.302C227.88 246.716 227.977 246.908 227.977 247.44C227.977 248.217 227.58 248.934 226.933 249.328C226.409 249.646 225.31 249.852 224.925 249.704C224.307 249.468 224.121 249.126 224.123 248.226C224.123 247.158 224.451 246.573 225.301 246.117C225.672 245.919 225.994 245.817 226.295 245.815ZM263.167 246.336C263.382 246.346 263.624 246.493 263.543 246.623C263.427 246.811 263.036 246.807 262.918 246.617C262.867 246.535 262.893 246.426 262.975 246.376C263.027 246.344 263.095 246.332 263.167 246.336ZM210.792 246.343C210.865 246.343 210.932 246.354 210.982 246.385C211.085 246.448 211.064 246.537 210.928 246.624C210.642 246.804 210.308 246.804 210.308 246.624C210.308 246.477 210.574 246.346 210.792 246.343ZM203.837 247.248C204.209 247.248 204.37 247.314 204.326 247.448C204.248 247.683 202.277 247.826 202.277 247.597C202.277 247.422 203.054 247.248 203.837 247.248ZM270.129 247.248C270.878 247.248 271.665 247.423 271.665 247.589C271.665 247.749 269.685 247.784 269.528 247.627C269.326 247.425 269.605 247.248 270.129 247.248ZM177.19 247.702C177.39 247.698 177.614 247.706 177.863 247.72C178.375 247.753 179.148 248.577 179.148 249.09C179.148 249.733 178.685 250.507 178.013 250.988C177.146 251.608 176.454 251.685 175.912 251.222C175.133 250.553 175.155 248.726 175.951 248.037C176.197 247.823 176.589 247.715 177.19 247.702ZM296.658 247.729C297.622 247.729 297.682 247.753 298.156 248.327C298.552 248.807 298.65 249.074 298.65 249.679C298.65 250.315 298.565 250.524 298.108 251.007C297.811 251.322 297.431 251.578 297.265 251.576C296.788 251.57 296.011 251.128 295.435 250.535C294.74 249.818 294.665 248.78 295.264 248.143C295.602 247.784 295.786 247.729 296.658 247.729ZM201.671 247.736C201.924 247.723 202.117 247.77 202.117 247.883C202.117 247.967 201.866 248.083 201.56 248.14C201.254 248.197 200.92 248.345 200.818 248.468C200.715 248.591 200.565 248.692 200.484 248.692C200.281 248.692 198.612 249.936 198.016 250.531C197.748 250.799 197.231 251.415 196.867 251.901C194.781 254.682 194.108 257.776 194.61 262.282C194.755 263.587 194.982 265.124 195.114 265.698C195.617 267.88 196.599 271.351 196.913 272.059C197.036 272.337 197.137 272.677 197.137 272.816C197.137 272.954 197.238 273.304 197.362 273.593C197.486 273.883 197.711 274.445 197.864 274.842C198.017 275.239 198.236 275.781 198.35 276.045C198.465 276.31 198.679 276.816 198.825 277.168C199.193 278.055 200.472 280.589 200.757 280.996C201.081 281.458 201.069 282.64 200.738 282.766C200.598 282.82 200.436 282.86 200.377 282.855C200.136 282.837 199.547 282.33 199.547 282.142C199.547 282.031 199.438 281.851 199.306 281.741C199.173 281.631 199.065 281.414 199.065 281.259C199.065 281.105 198.956 280.888 198.824 280.778C198.691 280.668 198.583 280.443 198.583 280.277C198.583 280.112 198.512 279.976 198.425 279.976C198.339 279.976 198.219 279.777 198.16 279.535C198.101 279.292 197.955 278.951 197.836 278.777C197.717 278.603 197.619 278.338 197.619 278.189C197.619 278.039 197.519 277.712 197.396 277.462C197.087 276.833 196.795 275.976 196.695 275.404C196.649 275.139 196.513 274.78 196.392 274.606C196.272 274.432 196.171 274.107 196.168 273.884C196.164 273.661 196.059 273.298 195.933 273.077C195.806 272.857 195.7 272.522 195.697 272.334C195.693 272.145 195.583 271.784 195.452 271.532C195.32 271.279 195.211 270.937 195.211 270.773C195.211 270.608 195.094 270.103 194.952 269.65C194.43 267.986 194.347 267.69 194.226 267.061C194.158 266.708 194.025 266.023 193.93 265.537C193.493 263.288 193.431 262.665 193.433 260.506C193.433 259.238 193.509 258.005 193.599 257.767C193.69 257.529 193.764 257.16 193.764 256.946C193.764 256.369 194.644 253.831 195.245 252.674C196.067 251.094 197.974 249.329 199.788 248.467C200.141 248.299 200.622 248.065 200.856 247.946C201.102 247.821 201.417 247.749 201.671 247.736ZM272.27 247.736C272.523 247.748 272.838 247.82 273.086 247.946C273.321 248.065 273.802 248.299 274.155 248.466C274.804 248.772 276.085 249.626 276.783 250.216C277.737 251.023 279.536 253.919 279.536 254.649C279.536 254.779 279.602 254.953 279.684 255.037C279.831 255.188 280.019 256.012 280.356 257.981C280.566 259.207 280.47 263.7 280.212 264.735C280.013 265.532 279.766 266.638 279.515 267.863C279.424 268.305 279.283 268.734 279.202 268.818C279.12 268.902 279.053 269.191 279.053 269.46C279.053 269.729 278.944 270.156 278.812 270.409C278.68 270.661 278.571 271.022 278.571 271.211C278.571 271.399 278.462 271.76 278.33 272.013C278.198 272.266 278.089 272.627 278.089 272.815C278.089 273.003 277.98 273.364 277.848 273.617C277.716 273.87 277.606 274.231 277.602 274.419C277.599 274.608 277.494 274.942 277.367 275.163C277.241 275.384 277.135 275.709 277.131 275.885C277.127 276.061 277.016 276.413 276.884 276.665C276.752 276.918 276.645 277.247 276.645 277.397C276.645 277.546 276.538 277.809 276.409 277.98C276.279 278.151 276.171 278.445 276.168 278.633C276.164 278.821 276.054 279.064 275.922 279.174C275.789 279.284 275.681 279.536 275.681 279.735C275.681 279.934 275.579 280.181 275.455 280.284C275.332 280.386 275.186 280.648 275.131 280.865C275.077 281.082 274.961 281.259 274.874 281.259C274.788 281.259 274.717 281.406 274.717 281.585C274.717 281.765 274.609 281.953 274.476 282.004C274.344 282.054 274.235 282.212 274.235 282.354C274.235 282.497 274.043 282.778 273.809 282.979C273.402 283.328 272.645 283.468 272.413 283.236C272.197 283.02 272.529 281.973 273.09 281.104C273.63 280.268 274.299 278.978 275.262 276.912C275.492 276.418 275.681 275.972 275.681 275.92C275.681 275.868 275.764 275.623 275.866 275.374C276.448 273.951 277.112 271.969 277.685 269.949C277.835 269.42 278.062 268.626 278.189 268.184C279.934 262.147 279.957 257.413 278.26 253.826C277.498 252.217 275.579 249.984 274.224 249.131C272.806 248.238 272.877 248.274 272.268 248.141C272.025 248.088 271.826 247.973 271.826 247.887C271.826 247.773 272.017 247.724 272.27 247.736ZM232.689 248.727C233.042 248.719 233.337 248.787 233.383 248.933C233.412 249.021 232.95 249.346 232.358 249.655C230.985 250.371 229.265 252.034 228.797 253.098C228.068 254.753 228.062 258.96 228.783 262.649C228.878 263.135 229.059 264.055 229.186 264.695C229.746 267.514 229.889 268.269 230.121 269.628C230.917 274.287 230.926 274.386 230.937 278.612C230.948 282.667 230.941 282.785 230.627 282.825C230.046 282.899 229.945 282.687 230.076 281.661C230.344 279.548 230.218 276.889 229.654 272.757C229.051 268.348 228.903 267.466 228.274 264.543C228.185 264.128 228.052 263.406 227.978 262.939C227.904 262.471 227.77 261.619 227.679 261.045C227.197 257.992 227.148 256.99 227.395 255.27C227.686 253.243 227.923 252.637 228.983 251.205C229.74 250.181 230.314 249.7 231.646 248.969C231.925 248.816 232.336 248.734 232.689 248.727ZM241.681 248.845C242.054 248.849 242.573 249.087 243.316 249.577C245.346 250.917 246.43 253.117 246.714 256.472C246.81 257.605 246.486 260.366 246.093 261.767C245.994 262.12 245.863 262.734 245.801 263.131C245.74 263.528 245.611 264.178 245.516 264.575C245.336 265.321 245.042 266.846 244.834 268.104C244.769 268.501 244.628 269.259 244.521 269.789C243.563 274.543 243.359 276.456 243.422 280.097C243.475 283.125 243.47 283.185 243.146 283.185C242.964 283.185 242.69 283.094 242.538 282.982C242.282 282.795 242.273 282.53 242.421 279.493C242.579 276.243 242.674 275.426 243.165 273.077C243.303 272.416 243.527 271.333 243.664 270.671C244.107 268.519 244.386 267.239 244.616 266.302C244.74 265.796 244.841 265.182 244.84 264.938C244.84 264.694 244.944 264.025 245.073 263.452C245.976 259.439 246.126 256.419 245.528 254.307C244.807 251.765 243.611 250.37 241.412 249.506C241.032 249.357 240.988 249.285 241.151 249.089C241.286 248.926 241.458 248.843 241.681 248.845ZM258.506 249.651C259.709 249.641 260.976 249.744 261.707 249.953C262.627 250.216 263.915 250.781 265.267 251.513C265.883 251.847 267.838 253.997 268.189 254.728C268.354 255.07 268.55 255.472 268.626 255.62C268.936 256.229 269.296 259.037 269.196 260.072C269.006 262.045 268.788 263.632 268.635 264.144C268.551 264.425 268.359 265.088 268.207 265.617C267.778 267.12 267.466 268.135 267.243 268.746C267.13 269.055 266.811 269.957 266.532 270.751C266.253 271.545 265.931 272.412 265.815 272.677C265.699 272.942 265.553 273.392 265.49 273.678C265.428 273.963 265.309 274.238 265.228 274.288C265.146 274.339 265.08 274.491 265.08 274.627C265.08 274.763 264.978 275.101 264.855 275.379C264.731 275.657 264.593 276.029 264.547 276.206C264.502 276.382 264.311 276.924 264.123 277.409C263.785 278.283 263.386 279.47 262.91 281.019C262.774 281.46 262.572 282.579 262.46 283.505C262.262 285.145 262.246 285.191 261.835 285.239C261.602 285.266 261.222 285.465 260.989 285.681C260.756 285.896 260.497 286.072 260.414 286.072C260.168 286.072 260.237 283.875 260.502 283.24C260.635 282.923 260.743 282.506 260.743 282.313C260.743 282.12 260.849 281.822 260.979 281.651C261.108 281.48 261.217 281.206 261.22 281.044C261.224 280.881 261.321 280.556 261.438 280.322C261.555 280.087 261.772 279.655 261.92 279.361C262.068 279.067 262.189 278.702 262.189 278.55C262.189 278.397 262.295 278.132 262.424 277.961C262.554 277.79 262.663 277.541 262.666 277.409C262.67 277.277 262.78 276.962 262.912 276.709C263.044 276.456 263.152 276.178 263.152 276.092C263.152 275.919 263.518 275.028 263.885 274.308C264.012 274.058 264.116 273.729 264.116 273.577C264.116 273.424 264.222 273.159 264.352 272.988C264.482 272.816 264.59 272.556 264.593 272.409C264.597 272.261 264.699 271.937 264.823 271.687C265.269 270.787 265.562 270.013 265.562 269.734C265.562 269.577 265.668 269.309 265.797 269.137C265.927 268.966 266.036 268.702 266.038 268.551C266.042 268.399 266.142 268.038 266.263 267.749C266.602 266.939 266.865 266.155 267.007 265.537C267.078 265.228 267.211 264.759 267.303 264.494C267.567 263.734 267.932 262.183 268.12 261.027C268.445 259.023 268.25 256.91 267.598 255.383C266.911 253.77 265.333 252.117 263.794 251.397C262.199 250.651 261.83 250.593 259.023 250.657C256.527 250.714 255.226 250.873 253.861 251.288C253.566 251.378 252.951 251.513 252.496 251.589C252.041 251.665 251.271 251.807 250.785 251.904C249.911 252.079 248.929 252.273 247.953 252.462C247.599 252.531 247.372 252.48 247.183 252.291C246.776 251.885 246.96 251.665 247.745 251.617C249.04 251.537 252.365 250.848 256.096 249.885C256.673 249.736 257.57 249.66 258.506 249.651ZM214.744 249.675C215.018 249.679 215.312 249.684 215.631 249.695C216.811 249.739 217.994 249.853 218.259 249.949C219.904 250.545 224.157 251.423 225.929 251.532C227.4 251.623 227.609 251.763 227.04 252.277C226.68 252.602 226.306 252.609 225.031 252.311C224.04 252.08 222.782 251.828 221.347 251.574C220.926 251.499 220.347 251.366 220.062 251.278C217.932 250.624 212.928 250.396 211.433 250.886C208.125 251.969 205.98 254.658 205.73 258.032C205.624 259.46 205.805 261.343 206.197 262.89C206.745 265.052 206.821 265.318 207.034 265.823C207.156 266.113 207.257 266.514 207.257 266.714C207.257 266.914 207.334 267.155 207.429 267.25C207.525 267.345 207.663 267.667 207.737 267.964C207.918 268.697 208.219 269.54 208.483 270.054C208.604 270.288 208.702 270.589 208.702 270.723C208.702 270.856 208.805 271.17 208.93 271.42C209.056 271.67 209.28 272.199 209.429 272.596C209.579 272.993 209.801 273.51 209.924 273.744C210.047 273.978 210.15 274.303 210.153 274.466C210.157 274.629 210.264 274.902 210.394 275.073C210.523 275.244 210.63 275.51 210.63 275.662C210.63 275.926 210.721 276.15 211.329 277.382C211.474 277.676 211.595 278.037 211.598 278.184C211.602 278.331 211.71 278.592 211.839 278.763C211.969 278.934 212.075 279.199 212.075 279.352C212.075 279.504 212.179 279.833 212.306 280.083C212.738 280.931 213.039 281.708 213.039 281.973C213.039 282.119 213.139 282.433 213.262 282.671C213.385 282.909 213.512 283.465 213.543 283.906L213.601 284.709L212.687 284.732C212.185 284.744 211.733 284.714 211.683 284.665C211.634 284.615 211.592 284.352 211.591 284.08C211.587 283.504 211.077 280.94 210.914 280.684C210.853 280.588 210.733 280.227 210.646 279.882C210.56 279.536 210.165 278.352 209.77 277.249C209.374 276.146 208.96 274.99 208.849 274.682C208.739 274.373 208.553 273.893 208.435 273.615C208.317 273.336 208.22 273.008 208.22 272.885C208.22 272.761 208.155 272.592 208.074 272.508C207.994 272.424 207.854 272.103 207.762 271.794C207.67 271.485 207.333 270.51 207.012 269.628C206.692 268.746 206.365 267.807 206.287 267.542C206.209 267.278 206.026 266.664 205.88 266.179C205.129 263.681 204.86 261.949 204.854 259.582C204.844 256.163 205.343 254.767 207.293 252.757C208.185 251.838 208.701 251.466 209.88 250.893C211.849 249.935 212.821 249.665 214.744 249.675ZM271.825 249.814C272.279 249.818 272.716 249.918 273.064 250.13C273.348 250.303 273.727 250.733 273.907 251.086C274.516 252.277 274.231 253.463 273.168 254.163C272.46 254.63 270.945 254.582 270.19 254.07C268.935 253.218 268.719 251.57 269.735 250.594C270.264 250.086 271.069 249.811 271.825 249.814ZM202.237 249.814C203.134 249.814 204.153 250.373 204.584 251.104C205.162 252.08 204.736 253.471 203.656 254.137C202.921 254.591 201.431 254.588 200.717 254.13C199.795 253.541 199.509 252.563 199.915 251.396C200.303 250.285 200.995 249.814 202.237 249.814ZM188.32 250.192C191.33 250.176 195.19 250.476 195.327 250.886C195.424 251.176 195.029 251.213 193.443 251.058C191.658 250.885 186.843 251.013 186.424 251.245C186.265 251.333 185.81 251.474 185.412 251.557C182.807 252.104 180.089 253.774 178.614 255.734C177.935 256.636 177.088 258.231 176.731 259.279C175.742 262.187 175.679 267.731 176.596 271.392C176.684 271.745 176.816 272.31 176.889 272.648C176.962 272.986 177.102 273.343 177.201 273.442C177.3 273.541 177.381 273.774 177.381 273.96C177.381 274.146 177.487 274.439 177.617 274.61C177.747 274.781 177.855 275.086 177.858 275.287C177.862 275.488 177.971 275.695 178.104 275.746C178.236 275.796 178.345 276.006 178.345 276.212C178.345 276.63 178.587 276.863 178.749 276.601C178.807 276.508 178.74 276.257 178.6 276.043C178.459 275.829 178.345 275.485 178.345 275.278C178.345 275.072 178.239 274.762 178.109 274.591C177.979 274.42 177.869 274.063 177.863 273.798C177.858 273.533 177.747 273.177 177.617 273.006C177.487 272.834 177.381 272.496 177.381 272.254C177.381 272.012 177.297 271.61 177.194 271.362C177.091 271.114 176.954 270.478 176.889 269.948C176.825 269.419 176.68 268.29 176.568 267.44C176.363 265.893 176.402 265.19 176.877 261.916C177.068 260.595 177.374 259.654 178.136 258.034C179.079 256.032 181.612 253.632 183.343 253.101C183.553 253.036 183.801 252.924 183.893 252.851C183.984 252.778 184.346 252.646 184.696 252.557C186.268 252.158 186.676 252.061 187.581 251.866C188.814 251.601 194.172 251.6 194.437 251.866C194.573 252.002 194.511 252.257 194.192 252.871C193.957 253.324 193.764 253.767 193.764 253.856C193.764 253.945 193.661 254.245 193.535 254.523C192.866 256.001 192.548 259.342 192.787 262.376C192.967 264.662 193.229 266.416 193.456 266.853C193.534 267.004 193.645 267.437 193.703 267.816C193.761 268.195 193.871 268.585 193.947 268.682C194.024 268.78 194.152 269.177 194.231 269.565C194.311 269.952 194.455 270.504 194.552 270.791C194.649 271.078 194.807 271.547 194.904 271.834C195.001 272.12 195.133 272.608 195.197 272.917C195.262 273.225 195.399 273.636 195.503 273.828C195.607 274.021 195.692 274.32 195.692 274.492C195.692 274.664 195.8 275.012 195.932 275.265C196.064 275.517 196.174 275.868 196.178 276.045C196.182 276.221 196.29 276.506 196.42 276.677C196.549 276.849 196.656 277.114 196.656 277.266C196.656 277.418 196.758 277.748 196.882 277.997C197.007 278.247 197.236 278.74 197.39 279.093C197.544 279.446 197.807 279.988 197.975 280.296C198.143 280.605 198.378 281.075 198.498 281.341C198.618 281.607 198.902 282.025 199.13 282.27L199.544 282.717L198.823 283.418C198.18 284.042 198.101 284.197 198.101 284.834C198.101 285.422 198.195 285.65 198.623 286.104C198.91 286.408 199.434 286.829 199.788 287.038C200.141 287.247 200.466 287.464 200.51 287.519C200.555 287.574 200.717 287.666 200.872 287.723C201.175 287.835 201.26 288.157 200.987 288.157C200.895 288.157 200.639 288.039 200.417 287.893C200.04 287.647 199.955 287.649 199.123 287.932C197.389 288.52 196.52 290.086 197.201 291.391C197.412 291.794 197.393 291.848 196.869 292.354C196.264 292.939 195.692 294.07 195.692 294.681C195.692 295.653 196.916 296.457 198.135 296.286C198.514 296.233 199.019 296.143 199.258 296.087C199.678 295.988 199.69 296.003 199.602 296.539C199.48 297.291 200.148 298.357 200.95 298.692C201.605 298.965 202.576 298.882 203.435 298.481C205.003 297.747 205.433 297.473 206.147 296.751C206.91 295.98 207.269 295.846 206.97 296.444C206.888 296.607 206.685 297.025 206.517 297.372C205.792 298.876 204.042 299.938 201.974 300.13C200.463 300.27 198.865 299.756 196.893 298.496C196.418 298.192 195.962 297.944 195.882 297.944C195.714 297.944 195.21 299.18 195.21 299.591C195.21 299.741 194.979 300.304 194.697 300.841C194.14 301.903 192.894 303.15 191.843 303.697C191.481 303.886 191.114 304.04 191.029 304.04C190.775 304.04 190.852 303.69 191.154 303.469C191.52 303.202 191.549 301.853 191.194 301.633C190.984 301.503 190.989 301.429 191.243 301.038C192.068 299.767 192.26 298.608 191.77 297.862C191.432 297.347 190.902 297.13 189.673 297.001C188.895 296.92 188.68 296.833 188.534 296.541C188.039 295.546 186.984 294.958 186.055 295.159C185.745 295.225 185.43 295.284 185.354 295.288C185.278 295.293 185.187 294.445 185.153 293.405C185.112 292.142 185.011 291.358 184.85 291.046C184.717 290.79 184.609 290.438 184.609 290.264C184.609 289.838 184.446 289.441 184.27 289.441C184.036 289.441 184.107 290.508 184.388 291.209C184.593 291.72 184.634 292.247 184.578 293.659C184.539 294.648 184.43 295.602 184.336 295.778C183.935 296.534 183.645 297.34 183.645 297.699C183.645 298.194 183.331 298.39 183.083 298.051C182.849 297.731 182.667 295.45 182.684 293.03C182.698 291.039 182.289 289.112 181.461 287.251C181.337 286.973 181.236 286.707 181.236 286.661C181.236 286.521 180.293 284.48 179.592 283.104C175.823 275.696 175.357 274.604 174.763 271.794C173.328 264.996 174.282 259.547 177.655 255.269C178.57 254.108 180.497 252.322 181.075 252.098C181.208 252.046 181.569 251.85 181.879 251.661C182.474 251.297 183.842 250.786 185.171 250.431C185.759 250.273 186.952 250.2 188.32 250.192ZM285.69 250.224C288.116 250.231 288.492 250.326 290.372 250.946C293.168 251.867 296.318 254.635 297.665 257.354C297.862 257.751 298.083 258.184 298.157 258.317C298.583 259.082 299.129 260.738 299.514 262.431C299.808 263.725 299.868 267.698 299.617 269.306C299.301 271.34 299.112 272.372 298.968 272.836C298.067 275.746 298.047 275.794 296.5 278.843C293.813 284.141 293.559 284.665 292.713 286.633C292.179 287.874 292.126 288.016 291.855 288.959C291.053 291.739 290.936 292.981 291.348 294.333C291.683 295.433 291.406 298.431 290.92 298.974C290.76 299.152 290.374 298.285 290.211 297.381C290.147 297.028 290.036 296.665 289.963 296.573C289.294 295.723 289.261 290.64 289.919 289.685C290.196 289.282 290.208 288.588 289.936 288.677C289.826 288.713 289.711 288.99 289.682 289.292C289.653 289.594 289.526 289.899 289.401 289.969C289.275 290.04 289.173 290.338 289.173 290.632C289.173 290.925 289.065 291.425 288.932 291.742C288.775 292.117 288.691 292.851 288.691 293.847V295.376H287.885C287.3 295.376 286.903 295.487 286.439 295.779C286.088 296.001 285.8 296.248 285.8 296.329C285.8 296.631 285.28 296.98 284.832 296.98C283.499 296.98 282.427 298.125 282.427 299.547C282.427 300.036 282.534 300.524 282.695 300.769C282.945 301.151 282.945 301.208 282.695 301.631C282.547 301.88 282.427 302.301 282.427 302.568C282.427 303.112 283.055 303.962 283.579 304.128C283.844 304.212 283.868 304.265 283.693 304.375C283.408 304.555 283.4 304.555 282.829 304.293C282.563 304.172 282.238 304.026 282.106 303.97C280.972 303.485 279.678 302.19 279.06 300.925C278.792 300.374 278.572 299.862 278.572 299.788C278.572 299.482 277.996 298.433 277.827 298.429C277.726 298.425 277.288 298.669 276.852 298.969C275.199 300.104 274.684 300.256 272.464 300.257C270.616 300.261 270.399 300.227 269.813 299.871C268.461 299.047 266.848 296.985 267.081 296.378C267.149 296.202 267.347 296.336 267.831 296.886C268.539 297.689 269.039 298.006 270.3 298.451C271.341 298.819 272.115 298.817 272.977 298.445C273.83 298.078 274.24 297.64 274.381 296.947C274.483 296.442 274.526 296.415 275.365 296.333C275.848 296.286 276.46 296.131 276.725 295.988C277.433 295.608 278.09 294.801 278.09 294.311C278.09 293.749 277.218 292.62 276.364 292.075C275.741 291.678 275.421 291.045 275.844 291.045C275.933 291.045 276.166 290.716 276.362 290.314L276.717 289.583L276.4 288.994C276.058 288.361 275.036 287.683 274.417 287.679C273.97 287.675 272.412 288.183 272.334 288.358C272.305 288.424 272.124 288.476 271.933 288.473C271.592 288.468 271.591 288.465 271.906 288.286C272.083 288.186 272.272 288.037 272.326 287.956C272.438 287.788 272.94 287.49 273.727 287.127C274.021 286.99 274.581 286.541 274.972 286.129C275.544 285.524 275.681 285.265 275.681 284.792C275.681 284.193 275.156 283.517 274.517 283.293C274.215 283.187 274.127 282.863 274.4 282.863C274.49 282.863 274.635 282.7 274.721 282.502C274.954 281.962 275.255 281.515 275.48 281.371C275.591 281.301 275.681 281.111 275.681 280.949C275.681 280.788 275.789 280.566 275.922 280.456C276.054 280.347 276.163 280.13 276.163 279.975C276.163 279.82 276.271 279.604 276.404 279.494C276.536 279.384 276.645 279.164 276.645 279.006C276.645 278.847 276.753 278.495 276.886 278.223C277.018 277.952 277.235 277.507 277.367 277.235C277.5 276.963 277.608 276.595 277.608 276.417C277.608 276.24 277.706 275.903 277.826 275.668C278.127 275.078 278.572 273.659 278.572 273.286C278.572 273.117 278.678 272.837 278.808 272.666C278.938 272.495 279.046 272.185 279.049 271.978C279.053 271.771 279.152 271.374 279.271 271.096C279.503 270.556 279.781 269.579 280.023 268.454C280.106 268.073 280.228 267.676 280.296 267.571C280.505 267.25 280.819 265.408 281.096 262.889C281.318 260.862 281.331 260.16 281.174 258.434C280.942 255.871 280.678 254.871 279.683 252.786C279.434 252.263 279.417 252.11 279.588 251.94C279.883 251.645 283.631 251.499 285.158 251.724C287.859 252.12 288.446 252.233 288.597 252.384C288.684 252.47 288.904 252.542 289.085 252.542C289.266 252.542 289.621 252.651 289.874 252.783C290.127 252.915 290.419 253.023 290.524 253.023C290.793 253.023 293 254.507 293.67 255.14C295.247 256.626 296.46 258.878 296.895 261.124C296.963 261.477 297.095 262.055 297.188 262.408C297.457 263.428 297.411 268.541 297.125 269.482C296.994 269.915 296.883 270.522 296.879 270.831C296.875 271.139 296.768 271.573 296.642 271.793C296.516 272.014 296.407 272.411 296.401 272.675C296.395 272.94 296.286 273.337 296.16 273.558C296.034 273.778 295.926 274.139 295.92 274.36C295.914 274.581 295.803 274.901 295.673 275.073C295.381 275.458 295.356 276.178 295.638 276.086C295.749 276.049 295.861 275.832 295.889 275.603C295.916 275.373 296.042 275.099 296.17 274.994C296.297 274.888 296.401 274.646 296.401 274.456C296.401 274.266 296.5 273.968 296.62 273.794C296.74 273.62 296.876 273.261 296.923 272.996C296.969 272.732 297.082 272.298 297.174 272.034C297.986 269.703 298.236 262.829 297.588 260.643C296.282 256.238 294.756 254.27 291.342 252.585C288.607 251.236 286.444 250.864 282.186 251.007C280.596 251.061 279.15 251.121 278.974 251.141C278.785 251.163 278.653 251.083 278.653 250.948C278.653 250.502 280.802 250.237 284.515 250.226C284.956 250.226 285.344 250.222 285.691 250.226L285.69 250.224ZM236.875 250.298C237.487 250.302 238.475 250.734 238.989 251.222C239.974 252.159 239.858 253.838 238.736 254.85C238.123 255.403 238.043 255.429 236.931 255.428C235.807 255.428 235.741 255.405 235.022 254.789C234.18 254.068 233.962 253.415 234.231 252.418C234.488 251.464 235.951 250.291 236.875 250.298ZM215.03 251.116C215.744 251.13 216.438 251.207 216.813 251.343C217.167 251.47 217.719 251.575 218.04 251.576C218.361 251.576 218.975 251.679 219.405 251.801C220.888 252.224 222.437 252.544 223.077 252.558C223.431 252.566 223.889 252.621 224.097 252.679C224.46 252.781 224.463 252.794 224.177 253.046C224.014 253.19 223.63 253.361 223.324 253.426C221.488 253.816 218.574 256.24 217.707 258.096C216.91 259.805 216.827 260.239 216.841 262.648C216.85 264.297 216.93 265.228 217.115 265.846C217.258 266.325 217.375 266.952 217.375 267.24C217.375 267.528 217.443 267.805 217.527 267.856C217.61 267.908 217.724 268.291 217.781 268.708C217.838 269.125 217.987 269.694 218.112 269.972C218.237 270.25 218.339 270.621 218.339 270.796C218.339 270.971 218.447 271.321 218.579 271.574C218.711 271.827 218.82 272.188 218.82 272.376C218.82 272.564 218.929 272.925 219.061 273.178C219.193 273.431 219.302 273.761 219.302 273.913C219.302 274.064 219.404 274.425 219.528 274.715C219.652 275.005 219.88 275.675 220.035 276.205C220.19 276.734 220.414 277.395 220.533 277.673C220.651 277.951 220.748 278.322 220.748 278.497C220.748 278.672 220.856 279.022 220.988 279.275C221.12 279.527 221.229 279.888 221.229 280.075C221.229 280.263 221.339 280.676 221.471 280.993C221.604 281.309 221.713 281.77 221.715 282.015C221.715 282.261 221.821 282.75 221.949 283.103C222.284 284.033 222.279 288.151 221.941 289.301C221.544 290.654 221.351 290.958 220.853 291.016C220.495 291.058 220.344 291.213 220.095 291.791C219.924 292.189 219.785 292.592 219.785 292.685C219.785 293.071 218.626 295.198 217.955 296.042C217.155 297.05 216.516 297.582 215.387 298.182C214.792 298.498 214.395 298.584 213.552 298.582C212.96 298.578 212.368 298.51 212.235 298.424C212.103 298.339 211.872 298.268 211.721 298.266C211.084 298.26 208.862 296.431 208.862 295.912C208.862 295.748 208.948 295.743 209.264 295.887C209.485 295.987 209.665 296.116 209.665 296.173C209.665 296.42 212.32 297.301 213.063 297.301C213.752 297.301 215.032 296.703 215.472 296.177C216.123 295.397 216.168 294.979 215.696 294.078C215.471 293.648 215.287 293.189 215.287 293.058C215.287 292.927 215.703 292.518 216.211 292.15C217.311 291.353 217.688 290.923 217.693 290.462C217.698 289.997 216.9 289.253 215.842 288.735L214.966 288.307V287.141C214.966 286.461 214.887 285.896 214.777 285.786C214.673 285.682 214.534 285.253 214.467 284.831C214.317 283.877 214.022 282.778 213.738 282.116C213.618 281.838 213.518 281.477 213.515 281.314C213.511 281.151 213.404 280.877 213.274 280.706C213.145 280.535 213.038 280.27 213.038 280.118C213.038 279.965 212.934 279.636 212.807 279.386C212.384 278.555 212.075 277.763 212.075 277.513C212.075 277.377 212.01 277.227 211.932 277.178C211.853 277.13 211.743 276.891 211.685 276.647C211.586 276.223 211.311 275.571 210.846 274.656C210.727 274.421 210.629 274.12 210.629 273.987C210.629 273.853 210.527 273.539 210.401 273.29C210.276 273.04 210.051 272.511 209.902 272.114C209.753 271.716 209.53 271.2 209.407 270.966C209.284 270.731 209.184 270.403 209.184 270.236C209.184 270.068 209.106 269.854 209.01 269.759C208.915 269.664 208.777 269.342 208.703 269.045C208.629 268.747 208.411 268.107 208.218 267.621C208.026 267.136 207.815 266.486 207.751 266.178C207.686 265.869 207.549 265.458 207.445 265.266C207.341 265.073 207.256 264.672 207.256 264.375C207.256 264.078 207.184 263.763 207.095 263.674C206.944 263.523 206.758 262.482 206.457 260.086C206.145 257.604 207.057 254.974 208.805 253.318C209.514 252.646 210.999 251.81 211.878 251.587C212.207 251.504 212.765 251.362 213.119 251.271C213.58 251.152 214.316 251.102 215.03 251.116ZM258.912 251.116C259.627 251.102 260.362 251.152 260.823 251.271C261.177 251.362 261.735 251.504 262.064 251.587C262.394 251.671 263.068 251.958 263.562 252.225C266.172 253.635 267.493 256.034 267.485 259.346C267.481 260.236 267.405 261.252 267.311 261.605C267.217 261.958 267.084 262.65 267.015 263.141C266.945 263.633 266.807 264.188 266.707 264.374C266.607 264.56 266.524 264.88 266.524 265.084C266.524 265.289 266.416 265.662 266.284 265.915C266.152 266.168 266.044 266.574 266.044 266.818C266.044 267.062 265.935 267.351 265.803 267.461C265.67 267.571 265.559 267.85 265.556 268.082C265.553 268.314 265.445 268.644 265.316 268.815C265.186 268.986 265.08 269.264 265.08 269.432C265.08 269.6 264.984 269.929 264.867 270.164C264.75 270.398 264.533 270.83 264.385 271.124C264.237 271.418 264.116 271.768 264.116 271.901C264.116 272.035 264.02 272.336 263.903 272.57C263.786 272.804 263.569 273.236 263.421 273.53C263.273 273.824 263.152 274.19 263.152 274.342C263.152 274.495 263.046 274.759 262.917 274.931C262.787 275.102 262.678 275.339 262.676 275.458C262.672 275.577 262.572 275.902 262.451 276.18C262.331 276.458 262.107 277.011 261.955 277.408C261.802 277.805 261.578 278.346 261.457 278.611C261.335 278.876 261.189 279.292 261.132 279.535C261.075 279.778 260.964 280.017 260.886 280.066C260.807 280.114 260.742 280.276 260.742 280.425C260.742 280.575 260.633 280.903 260.501 281.156C260.369 281.409 260.261 281.759 260.261 281.933C260.261 282.108 260.161 282.443 260.038 282.677C259.534 283.641 259.278 285.812 259.534 286.953C259.621 287.344 259.556 287.529 259.188 287.935C258.939 288.21 258.436 288.587 258.071 288.771C257.228 289.197 256.405 290.217 256.412 290.827C256.419 291.449 256.798 291.844 257.892 292.373C258.703 292.764 258.816 292.876 258.816 293.286C258.816 293.543 258.742 293.798 258.653 293.853C258.432 293.99 258.013 295.017 258.013 295.421C258.013 295.971 258.768 296.795 259.437 296.975C260.458 297.249 262.027 296.886 264.011 295.917C264.438 295.708 264.854 295.536 264.934 295.536C265.312 295.536 265.004 296.184 264.295 296.882C263.328 297.833 263.004 298.035 261.856 298.402C260.829 298.729 259.316 298.61 258.414 298.131C257.036 297.398 255.625 295.83 254.758 294.07C254.34 293.219 253.995 292.353 253.992 292.145C253.984 291.654 253.472 291.044 253.066 291.044C252.634 291.044 252.314 290.504 251.966 289.187C251.621 287.884 251.567 285.174 251.859 283.825C251.963 283.34 252.13 282.582 252.229 282.141C252.328 281.699 252.474 280.983 252.555 280.55C252.635 280.116 252.776 279.686 252.867 279.595C252.959 279.504 253.033 279.258 253.033 279.05C253.033 278.841 253.118 278.512 253.222 278.32C253.326 278.127 253.463 277.717 253.528 277.408C253.592 277.099 253.734 276.594 253.843 276.285C254.731 273.782 255.442 271.52 255.443 271.197C255.443 271.039 255.552 270.704 255.684 270.451C255.816 270.198 255.925 269.822 255.925 269.614C255.925 269.407 256.025 269 256.149 268.71C256.458 267.984 256.691 266.77 256.977 264.413C257.173 262.796 257.185 262.115 257.04 260.899C256.942 260.07 256.799 259.276 256.724 259.135C256.649 258.994 256.422 258.517 256.22 258.076C255.687 256.908 253.402 254.688 252.068 254.04C251.495 253.761 250.809 253.485 250.544 253.426C250.279 253.367 249.933 253.203 249.777 253.062C249.376 252.701 249.683 252.547 250.804 252.544C251.301 252.54 252.015 252.433 252.391 252.3C252.766 252.168 253.263 252.059 253.495 252.057C253.727 252.057 254.206 251.951 254.559 251.824C254.913 251.697 255.491 251.588 255.844 251.583C256.198 251.578 256.776 251.47 257.129 251.343C257.505 251.207 258.198 251.13 258.912 251.116ZM173.394 252.245C173.545 252.249 173.683 252.269 173.799 252.31C174.43 252.532 175.019 253.462 174.902 254.052C174.758 254.775 174.044 255.585 173.253 255.924C172.362 256.305 172.402 256.307 171.743 255.864C171.225 255.517 171.195 255.443 171.15 254.437C171.109 253.521 171.154 253.321 171.471 252.963C171.848 252.54 172.74 252.23 173.394 252.245ZM300.808 252.245C301.143 252.249 301.499 252.334 301.851 252.508C302.254 252.708 302.488 252.989 302.718 253.551C302.999 254.239 303.01 254.39 302.817 254.971C302.699 255.329 302.454 255.715 302.272 255.829C301.695 256.192 301.317 256.212 300.657 255.917C299.466 255.382 298.772 254.209 299.133 253.338C299.428 252.628 300.069 252.238 300.808 252.245ZM247.95 253.503C248.191 253.503 249.419 253.852 250.624 254.262C252.447 254.883 254.529 256.61 255.342 258.175C256.338 260.093 256.672 263.053 256.162 265.455C256.031 266.073 255.922 266.795 255.919 267.06C255.915 267.324 255.81 267.721 255.684 267.942C255.557 268.162 255.452 268.523 255.449 268.744C255.445 269.104 255.265 269.763 254.773 271.231C254.684 271.495 254.541 272.001 254.455 272.354C254.37 272.707 254.232 273.064 254.148 273.148C254.065 273.232 253.996 273.448 253.996 273.629C253.996 273.81 253.887 274.165 253.755 274.418C253.623 274.67 253.513 275.031 253.509 275.22C253.506 275.408 253.401 275.743 253.274 275.963C253.148 276.184 253.042 276.509 253.038 276.685C253.034 276.862 252.923 277.213 252.791 277.466C252.659 277.718 252.55 278.079 252.55 278.268C252.55 278.456 252.441 278.817 252.31 279.07C252.178 279.323 252.07 279.648 252.07 279.792C252.07 279.936 251.968 280.379 251.843 280.776C251.199 282.811 251.025 284.066 251.033 286.632C251.041 289.267 251.145 289.841 251.881 291.322C252.146 291.853 252.025 292.199 251.626 292.053C251.379 291.962 250.773 290.664 250.369 289.359C250.133 288.594 250.073 287.903 250.081 285.99C250.091 283.734 250.123 283.489 250.598 282.06C250.876 281.221 251.149 280.3 251.204 280.013C251.258 279.725 251.367 279.45 251.445 279.401C251.524 279.353 251.588 279.176 251.588 279.008C251.588 278.839 251.687 278.465 251.809 278.175C251.931 277.885 252.264 276.89 252.548 275.963C252.833 275.037 253.133 274.11 253.214 273.903C253.4 273.427 253.923 271.794 254.223 270.749C255.175 267.434 255.438 265.881 255.44 263.568C255.444 261.157 255.171 259.931 254.355 258.679C253.17 256.86 251.768 255.864 249.214 255.025C247.89 254.591 247.445 254.226 247.635 253.731C247.683 253.606 247.825 253.503 247.95 253.503ZM226.121 253.523C226.253 253.527 226.325 253.554 226.376 253.605C226.683 253.912 226.357 254.279 225.675 254.394C224.819 254.538 222.953 255.427 222.082 256.106C221.24 256.762 220.343 257.933 219.924 258.923C219.748 259.339 219.542 259.824 219.467 260C219.061 260.955 218.821 262.621 218.821 264.492C218.821 266.763 219.043 268.068 219.897 270.829C221.106 274.739 221.957 277.631 222.187 278.61C222.403 279.534 222.676 280.58 222.934 281.477C223.057 281.906 223.158 282.447 223.158 282.68C223.158 282.912 223.266 283.668 223.399 284.36C223.531 285.051 223.64 286.075 223.64 286.634C223.64 287.701 223.163 290.355 222.776 291.439C222.651 291.789 222.48 292.098 222.396 292.126C222.15 292.208 221.83 291.723 221.978 291.492C222.243 291.078 222.538 290.132 222.843 288.717C223.191 287.101 223.226 286.291 222.989 285.348C222.9 284.995 222.763 284.201 222.684 283.584C222.606 282.966 222.456 282.136 222.352 281.739C221.922 280.107 221.676 279.226 221.522 278.771C221.433 278.506 221.302 278.037 221.231 277.728C221.088 277.11 220.825 276.326 220.487 275.517C220.366 275.227 220.267 274.826 220.267 274.626C220.267 274.426 220.198 274.194 220.115 274.11C220.032 274.026 219.894 273.669 219.808 273.316C219.658 272.697 219.554 272.358 219.142 271.15C219.036 270.842 218.889 270.336 218.814 270.027C218.679 269.466 218.488 268.725 218.094 267.22C217.603 265.35 217.477 262.213 217.819 260.385C218.16 258.555 219.339 256.714 220.909 255.554C221.763 254.924 223.246 254.165 224.005 253.97C225.259 253.648 225.833 253.519 226.121 253.523ZM200.041 256.134C200.262 256.134 200.473 256.192 200.819 256.306C202.63 256.907 203.168 258.842 201.875 260.104C200.804 261.15 199.101 261.153 198.059 260.112C197.615 259.669 197.568 259.526 197.576 258.642C197.589 257.282 198.032 256.643 199.199 256.303C199.588 256.189 199.819 256.133 200.041 256.134ZM274.064 256.183C274.698 256.187 275.299 256.386 275.69 256.802C276.09 257.227 276.478 258.181 276.481 258.752C276.486 259.448 275.967 260.229 275.279 260.562C274.426 260.974 273.527 260.969 272.673 260.547C271.3 259.868 270.89 258.203 271.831 257.132C272.38 256.507 273.249 256.18 274.064 256.183ZM237.044 256.672C237.827 256.684 238.611 256.963 239.141 257.516C239.541 257.932 239.599 258.119 239.61 259.003C239.623 260.176 239.369 260.675 238.453 261.276C237.782 261.716 236.501 261.913 235.783 261.686C234.162 261.175 233.626 259.076 234.75 257.645C235.268 256.986 236.156 256.658 237.044 256.672ZM171.015 258.016C171.331 258.028 171.565 258.16 171.892 258.436C172.686 259.107 172.738 259.826 172.056 260.717C171.76 261.103 171.302 261.546 171.037 261.701C170.441 262.048 170.041 262.062 169.475 261.756C168.881 261.434 168.708 261.054 168.708 260.076C168.708 259.044 169.11 258.48 170.046 258.2C170.473 258.072 170.769 258.008 171.015 258.016ZM303.074 258.031C303.269 258.039 303.501 258.099 303.867 258.214C304.624 258.452 304.759 258.564 305.058 259.2C305.244 259.594 305.396 260.017 305.396 260.14C305.396 260.661 304.881 261.533 304.439 261.762C304.179 261.896 303.836 261.999 303.677 261.99C302.781 261.942 301.379 260.491 301.381 259.615C301.381 259.149 301.977 258.374 302.499 258.158C302.719 258.067 302.878 258.023 303.074 258.031ZM273.561 262.648C276.102 262.648 276.958 266.11 274.673 267.146C273.818 267.533 273.21 267.535 272.364 267.151C271.502 266.761 270.862 265.838 270.862 264.987C270.862 263.723 272.103 262.648 273.561 262.648ZM200.625 262.664C201.057 262.669 201.339 262.747 201.686 262.932C202.778 263.517 203.246 264.508 202.946 265.595C202.756 266.281 202.396 266.676 201.557 267.121C201.205 267.308 200.699 267.459 200.432 267.457C199.842 267.453 198.757 266.973 198.404 266.561C197.738 265.782 197.865 264.184 198.662 263.315C199.119 262.816 199.288 262.744 200.135 262.683C200.32 262.669 200.481 262.663 200.625 262.664ZM237.29 262.997C238.088 263.003 238.6 263.217 239.066 263.698C239.55 264.196 239.599 264.337 239.608 265.251C239.62 266.431 239.214 267.13 238.222 267.637C237.066 268.228 235.515 267.921 234.574 266.914C234.246 266.564 234.182 266.328 234.172 265.443C234.161 264.412 234.176 264.376 234.813 263.781C235.353 263.279 235.625 263.153 236.388 263.058C236.726 263.016 237.024 262.995 237.29 262.997ZM170.271 265.067C170.627 265.062 170.77 265.164 171.108 265.502C171.518 265.911 171.599 266.118 171.599 266.755C171.599 267.457 171.538 267.574 170.854 268.211C170.195 268.824 170.021 268.904 169.357 268.904C168.744 268.904 168.536 268.826 168.236 268.481C167.741 267.912 167.636 267.014 167.98 266.289C168.331 265.552 168.848 265.221 169.83 265.105C170.011 265.083 170.153 265.069 170.271 265.067ZM303.862 265.074C304.444 265.07 305.131 265.299 305.548 265.689C305.992 266.103 306.038 266.238 306.038 267.142C306.038 267.955 305.972 268.207 305.677 268.518C305.398 268.812 305.144 268.9 304.567 268.902C303.901 268.906 303.741 268.829 303.106 268.213C302.714 267.832 302.343 267.32 302.281 267.073C302.141 266.515 302.606 265.55 303.169 265.232C303.355 265.127 303.598 265.076 303.862 265.074ZM202.263 268.664C202.593 268.669 202.931 268.737 203.257 268.877C205.259 269.734 205.402 272.147 203.505 273.064C201.245 274.157 199.018 272.351 199.934 270.167C200.334 269.213 201.27 268.65 202.263 268.664ZM271.777 268.694C272.471 268.709 273.157 268.982 273.635 269.574C274.525 270.676 274.389 272.195 273.331 272.972C272.899 273.289 271.352 273.469 270.772 273.27C269.875 272.961 269.095 271.9 269.095 270.988C269.095 269.573 270.451 268.664 271.777 268.694ZM237.233 269.072C238.428 269.056 239.43 269.855 239.619 270.977C239.822 272.176 239.294 273.191 238.128 273.844C237.125 274.406 235.819 274.145 234.763 273.172C234.315 272.761 234.241 272.584 234.241 271.934C234.241 271.326 234.345 271.038 234.765 270.481C235.343 269.716 236.453 269.082 237.233 269.072ZM303.292 271.49C303.516 271.494 303.781 271.552 304.142 271.66C305.087 271.943 305.556 272.593 305.556 273.619C305.556 274.343 305.487 274.53 305.055 274.971C304.426 275.614 303.895 275.628 302.999 275.027C301.576 274.073 301.301 272.929 302.275 272.012C302.664 271.645 302.92 271.487 303.292 271.49ZM170.545 271.525C170.942 271.516 171.262 271.654 171.653 271.961C172.019 272.249 172.08 272.416 172.075 273.128C172.069 274.056 171.851 274.41 170.877 275.07C170.113 275.588 169.517 275.594 168.97 275.087C168.167 274.344 168.081 273.602 168.669 272.475C168.872 272.086 169.135 271.89 169.715 271.698C170.041 271.59 170.307 271.531 170.545 271.525ZM270.205 274.925C271.506 274.892 272.63 275.814 272.755 277.312C272.824 278.143 272.799 278.212 272.204 278.849C271.629 279.465 271.506 279.521 270.619 279.579C269.543 279.648 269.175 279.559 268.603 279.092C267.339 278.059 267.36 276.245 268.646 275.425C269.16 275.097 269.696 274.938 270.205 274.925ZM203.601 274.929C204.407 274.908 205.246 275.273 205.798 275.919C206.195 276.383 206.293 276.643 206.292 277.234C206.292 278.036 205.987 278.622 205.285 279.173C204.541 279.758 202.72 279.736 201.94 279.131C201.315 278.646 200.881 276.954 201.314 276.687C201.402 276.632 201.474 276.461 201.474 276.306C201.474 275.874 202.279 275.211 203.051 275.007C203.23 274.959 203.415 274.934 203.601 274.929ZM237.366 276.118L237.661 276.483C238.33 277.308 238.563 278.075 238.465 279.126C238.399 279.832 238.433 280.202 238.58 280.379C238.766 280.603 238.843 280.579 239.286 280.162C240.486 279.028 240.987 279.095 240.987 280.387C240.987 281.56 240.708 282.112 239.559 283.221C239.041 283.72 238.571 284.309 238.516 284.528C238.371 285.107 238.653 285.699 239.213 285.988C239.829 286.306 240.208 286.133 241.457 284.963C242.701 283.797 242.995 283.885 242.995 285.421C242.995 286.24 243.029 286.317 243.557 286.668C244.437 287.254 245.163 288.013 245.163 288.348C245.163 288.517 245.056 288.861 244.925 289.114C244.7 289.548 244.323 289.742 243.235 289.982C242.581 290.126 242.402 290.582 242.701 291.341C243.079 292.304 242.905 292.728 242.003 293.035C241.589 293.176 241.13 293.291 240.983 293.291C240.245 293.291 238.995 292.31 238.479 291.326C238.274 290.935 238.279 290.839 238.515 290.479C238.757 290.109 238.807 290.095 239.054 290.318C239.203 290.453 239.454 290.564 239.611 290.564C239.836 290.564 239.876 290.478 239.797 290.163C239.71 289.816 239.75 289.762 240.091 289.762C240.308 289.762 240.531 289.834 240.585 289.922C240.712 290.127 241.42 290.131 241.546 289.927C241.599 289.842 241.494 289.68 241.314 289.568C240.749 289.215 240.948 289.12 242.252 289.12C243.181 289.12 243.571 289.056 243.717 288.879C243.878 288.686 243.874 288.587 243.701 288.378C243.524 288.165 243.289 288.136 242.411 288.218C241.82 288.272 241.174 288.377 240.976 288.451C240.382 288.67 239.837 288.492 239.894 288.097C239.938 287.787 240.058 287.752 241.197 287.709C242.388 287.664 242.45 287.644 242.402 287.308C242.363 287.034 242.227 286.942 241.8 286.901C241.103 286.835 239.912 287.158 239.355 287.564C238.855 287.928 238.654 287.848 238.525 287.238C238.474 286.993 238.181 286.517 237.876 286.178L237.319 285.562L237.637 285.026C237.953 284.491 237.952 284.488 237.633 284.318C237.336 284.16 237.331 284.114 237.553 283.669C237.685 283.406 237.86 283.148 237.943 283.097C238.174 282.955 238.121 282.382 237.877 282.382C237.633 282.382 237.247 282.786 237.037 283.264C236.821 283.753 236.749 281.98 236.96 281.376C237.053 281.109 237.13 280.612 237.13 280.272C237.13 279.765 237.073 279.654 236.814 279.654C236.269 279.654 236.111 280.253 236.103 282.342C236.098 283.83 236.046 284.307 235.89 284.307C235.776 284.307 235.684 284.207 235.684 284.086C235.684 283.964 235.584 283.782 235.462 283.681C235.34 283.58 235.198 283.283 235.145 283.02C235.069 282.641 234.965 282.542 234.644 282.542C234.177 282.542 234.08 283.013 234.479 283.344C234.612 283.454 234.72 283.615 234.72 283.702C234.72 283.788 234.937 284.133 235.202 284.467C235.467 284.801 235.684 285.141 235.684 285.222C235.684 285.303 235.47 285.575 235.208 285.825C234.89 286.13 234.669 286.561 234.542 287.13C234.437 287.598 234.266 288.013 234.161 288.054C234.056 288.094 233.472 287.917 232.864 287.661C231.627 287.139 230.865 287.055 230.865 287.44C230.865 287.575 230.973 287.727 231.105 287.778C231.496 287.927 231.21 288.157 230.633 288.157C230.031 288.157 229.306 288.646 229.484 288.933C229.553 289.046 230.038 289.12 230.705 289.12C231.82 289.12 232.22 289.296 231.729 289.57C231.583 289.652 231.513 289.801 231.575 289.901C231.733 290.157 232.355 290.126 233.11 289.824C233.465 289.683 233.882 289.616 234.037 289.676C234.286 289.773 234.27 289.825 233.888 290.134C233.652 290.326 233.273 290.613 233.045 290.772C232.588 291.091 232.508 291.444 232.864 291.581C233.001 291.633 233.283 291.456 233.553 291.149C234.017 290.621 234.699 290.082 234.903 290.082C234.965 290.082 235.173 290.338 235.366 290.65L235.718 291.218L235.271 291.894C234.652 292.827 233.784 293.625 232.923 294.053C231.846 294.587 231.023 294.504 230.263 293.782C229.784 293.327 229.76 292.034 230.216 291.296C230.405 290.992 230.494 290.646 230.438 290.435C230.355 290.117 230.241 290.082 229.281 290.077C228.479 290.073 228.125 289.997 227.854 289.77C227.407 289.398 227.362 288.5 227.773 288.15C228.278 287.72 229.211 287.195 229.469 287.195C229.949 287.195 229.936 286.844 229.438 286.331C228.765 285.638 228.779 285.076 229.484 284.371C229.797 284.059 230.191 283.827 230.408 283.827C230.932 283.83 231.635 284.326 232.02 284.969C232.824 286.31 233.659 286.617 234.39 285.84C234.868 285.332 234.751 284.833 233.943 283.936C232.405 282.227 232.275 281.982 232.252 280.731L232.23 279.574L232.777 279.6C233.461 279.633 234.043 279.936 234.166 280.321C234.217 280.484 234.394 280.617 234.559 280.617C234.795 280.617 234.895 280.423 235.036 279.694C235.134 279.187 235.245 278.626 235.282 278.447C235.32 278.269 235.803 277.672 236.357 277.121L237.364 276.118L237.366 276.118ZM295.277 276.285C295.188 276.285 295.117 276.484 295.118 276.727C295.122 277.07 295.155 277.115 295.277 276.927C295.48 276.613 295.48 276.285 295.277 276.285ZM179.046 277.304C179.022 277.3 179.005 277.359 179 277.475C178.993 277.645 179.031 277.739 179.084 277.686C179.138 277.633 179.143 277.494 179.097 277.378C179.078 277.33 179.06 277.306 179.046 277.304ZM172.044 277.81C172.976 277.8 173.58 278.399 173.58 279.422C173.58 280.289 173.206 280.863 172.306 281.377C171.491 281.842 170.943 281.833 170.416 281.345C169.833 280.807 169.668 280.301 169.833 279.568C170.041 278.647 170.488 278.16 171.349 277.917C171.596 277.848 171.828 277.813 172.044 277.81ZM301.888 277.814C302.08 277.81 302.284 277.837 302.501 277.889C303.557 278.142 303.998 278.68 304.077 279.814C304.134 280.631 304.1 280.737 303.623 281.219C303.024 281.825 302.542 281.873 301.666 281.411C300.501 280.796 299.928 279.391 300.506 278.566C300.853 278.071 301.313 277.821 301.888 277.814ZM270.64 280.491C270.779 280.487 270.859 280.546 270.977 280.664C271.295 280.981 271.66 281.994 271.663 282.569C271.663 282.805 271.518 283.34 271.338 283.759C270.963 284.632 271.08 284.879 271.713 284.551C272.339 284.226 273.899 284.082 274.456 284.297C274.876 284.459 274.91 284.528 274.825 285.053C274.724 285.674 274.319 286.232 273.969 286.232C273.85 286.232 273.753 286.299 273.753 286.381C273.753 286.529 273.037 286.904 271.697 287.459C270.677 287.882 270.054 289.051 270.573 289.569C270.907 289.902 271.68 289.78 272.526 289.261C272.974 288.985 273.596 288.726 273.909 288.686C274.386 288.624 274.571 288.701 275.079 289.169C275.915 289.942 275.888 290.402 274.964 291.08C274.57 291.37 274.245 291.701 274.241 291.815C274.237 291.93 274.506 292.13 274.838 292.259C275.942 292.691 276.475 293.014 276.734 293.408C277.05 293.889 277.187 294.743 276.995 295.028C276.754 295.385 275.61 295.443 274.698 295.145C273.83 294.862 273.018 294.775 272.845 294.947C272.79 295.002 272.954 295.444 273.209 295.931L273.672 296.814L273.271 297.201C272.71 297.742 270.776 297.905 270.308 297.45C270.224 297.369 270.042 297.302 269.903 297.302C269.507 297.302 267.971 295.876 267.971 295.508C267.971 295.329 268.176 294.919 268.426 294.598C268.676 294.276 268.927 293.887 268.983 293.732C269.13 293.329 269.526 293.386 270.196 293.907C271.122 294.627 271.768 294.952 272.054 294.842C272.297 294.749 272.298 294.709 272.064 294.352C271.923 294.139 271.615 293.915 271.378 293.856C270.552 293.648 271.382 293.461 272.396 293.625C274.543 293.971 274.878 293.987 274.878 293.742C274.878 293.419 273.863 292.97 273.132 292.97C272.255 292.97 272.179 292.769 272.983 292.575C273.922 292.349 273.777 292.087 272.715 292.092C271.99 292.095 271.831 292.044 271.764 291.787C271.693 291.516 271.578 291.491 270.793 291.572C269.797 291.674 269.707 291.608 269.661 290.743C269.645 290.424 269.574 289.928 269.504 289.641C269.399 289.215 269.424 289.12 269.637 289.12C269.96 289.12 269.978 288.744 269.667 288.486C269.34 288.215 269.491 287.953 270.309 287.366C271.038 286.843 271.228 286.345 270.767 286.168C270.603 286.105 270.343 286.249 270.045 286.568C269.672 286.967 269.56 287.017 269.484 286.818C269.432 286.681 269.494 286.367 269.623 286.12C270.032 285.334 270.439 283.339 270.232 283.132C269.843 282.743 269.502 283.244 269.389 284.373C269.329 284.964 269.189 285.558 269.077 285.693C268.964 285.829 268.823 286.24 268.763 286.607L268.654 287.275L268.634 286.503C268.608 285.5 268.364 285.01 268.03 285.287C267.841 285.444 267.814 285.699 267.9 286.501C268.006 287.495 267.911 287.713 267.535 287.337C267.437 287.239 267.278 287.207 267.182 287.267C266.923 287.426 266.97 287.85 267.285 288.198C267.526 288.463 267.531 288.523 267.325 288.639C266.443 289.138 265.935 289.613 265.65 290.204C265.469 290.579 265.265 290.885 265.195 290.885C265.126 290.885 264.919 290.63 264.735 290.319C264.321 289.619 263.833 289.316 263.695 289.675C263.591 289.947 263.153 290.018 263.153 289.762C263.153 289.674 263.053 289.601 262.931 289.601C262.81 289.601 262.62 289.493 262.51 289.361C262.293 289.1 261.46 289.031 261.316 289.263C261.219 289.42 261.761 289.819 262.751 290.32C263.756 290.827 264.277 291.222 264.277 291.476C264.277 291.771 263.822 291.641 262.831 291.065C261.659 290.382 259.749 289.902 259.541 290.238C259.402 290.463 259.867 290.849 260.422 290.97C261.505 291.206 262.979 291.738 262.901 291.865C262.852 291.943 262.522 292.008 262.168 292.008C261.639 292.008 261.533 292.058 261.579 292.289C261.625 292.523 261.815 292.569 262.739 292.569C263.479 292.569 263.867 292.636 263.913 292.77C263.953 292.886 263.849 292.97 263.666 292.97C263.492 292.97 263.231 293.152 263.085 293.374C262.857 293.723 262.852 293.791 263.055 293.869C263.185 293.918 263.506 293.8 263.769 293.606C264.303 293.212 264.598 293.292 264.598 293.83C264.598 294.028 264.689 294.281 264.799 294.393C265.046 294.643 264.737 294.904 263.554 295.447C261.406 296.432 260.043 296.442 259.261 295.478C258.84 294.96 258.914 294.605 259.637 293.669C260 293.199 260.26 292.716 260.214 292.597C260.168 292.477 259.852 292.255 259.513 292.103C259.174 291.95 258.715 291.743 258.495 291.643C257.563 291.219 257.291 290.651 257.739 290.064C257.954 289.781 259.304 289.12 259.665 289.12C260.101 289.12 260.469 288.473 260.645 287.398L260.824 286.313L261.53 286.262C262.128 286.219 262.374 286.305 263.136 286.821C263.631 287.157 264.072 287.469 264.116 287.515C264.16 287.561 264.454 287.734 264.768 287.898C265.308 288.181 265.369 288.183 265.859 287.929C266.882 287.401 266.874 286.442 265.835 285.27C264.96 284.281 264.541 283.309 264.67 282.566C264.764 282.027 265.07 281.098 265.155 281.098C265.175 281.098 265.403 281.204 265.661 281.333C266.408 281.705 267.489 282.701 267.489 283.017C267.489 283.391 267.899 283.727 268.21 283.608C268.383 283.542 268.455 283.272 268.459 282.668C268.466 281.617 268.854 281.102 269.948 280.694C270.302 280.562 270.5 280.496 270.64 280.491ZM203.232 280.501C203.682 280.469 204.962 281.114 205.171 281.505C205.285 281.717 205.388 282.2 205.401 282.58C205.429 283.408 205.566 283.665 205.981 283.665C206.194 283.665 206.293 283.555 206.293 283.317C206.293 282.934 207.449 281.737 208.186 281.356C208.87 281.004 209.077 281.237 209.154 282.447C209.244 283.855 209.17 284.06 208.142 285.262C207.191 286.373 207.058 286.861 207.541 287.457C208.25 288.33 208.671 288.273 210.442 287.059C212.44 285.691 213.36 285.881 213.36 287.662C213.36 288.327 213.855 289.12 214.271 289.12C214.628 289.12 215.632 289.603 216.051 289.976C216.769 290.617 216.465 291.207 215.127 291.77C213.644 292.394 213.442 292.647 213.965 293.22C214.634 293.954 214.966 294.479 214.961 294.797C214.955 295.189 214.542 295.73 214.047 295.995C213.26 296.415 211.355 296.088 209.907 295.284C209.295 294.944 209.264 294.89 209.264 294.149C209.264 293.419 209.288 293.374 209.657 293.415C209.873 293.439 210.178 293.574 210.334 293.715C210.626 293.979 211.111 293.915 211.111 293.612C211.111 293.518 210.858 293.292 210.549 293.109C209.759 292.644 209.992 292.436 211.171 292.555C212.169 292.656 212.688 292.51 212.488 292.186C212.427 292.088 212.093 292.008 211.744 292.008C210.998 292.008 210.856 291.613 211.553 291.476C213.367 291.118 214.541 290.648 214.429 290.324C214.279 289.886 212.286 290.358 210.924 291.154C209.936 291.732 209.666 291.801 209.666 291.476C209.666 291.224 210.521 290.564 210.847 290.564C210.973 290.564 211.119 290.455 211.169 290.323C211.22 290.191 211.39 290.08 211.548 290.077C211.883 290.071 212.557 289.548 212.557 289.294C212.557 289.032 211.662 289.084 211.433 289.36C211.323 289.493 211.157 289.601 211.064 289.601C210.972 289.601 210.765 289.719 210.605 289.863C210.336 290.106 210.307 290.106 210.214 289.863C210.159 289.719 210.029 289.601 209.925 289.601C209.684 289.601 209.248 290.109 209.106 290.555C208.955 291.032 208.683 290.898 208.29 290.151C208.002 289.603 207.468 289.12 206.622 288.641C206.453 288.546 206.434 288.45 206.556 288.293C206.946 287.793 206.935 287.508 206.52 287.32C206.145 287.149 206.115 287.061 206.154 286.242C206.194 285.391 206.177 285.347 205.785 285.301C205.414 285.257 205.362 285.32 205.265 285.924C205.139 286.717 205.005 286.652 204.831 285.712C204.481 283.822 204.262 283.104 204.038 283.104C203.723 283.104 203.79 285.054 204.126 285.697C204.596 286.598 204.346 287.014 203.713 286.382C203.324 285.993 203.02 286.044 202.951 286.509C202.915 286.748 203.107 286.988 203.634 287.366C204.372 287.895 204.569 288.366 204.125 288.536C203.721 288.691 203.839 289.12 204.285 289.12C204.705 289.12 204.814 289.41 204.509 289.714C204.361 289.862 204.302 290.226 204.212 291.551C204.208 291.609 203.773 291.617 203.244 291.569C202.451 291.497 202.267 291.527 202.183 291.744C202.107 291.943 201.87 292.007 201.216 292.007C200.565 292.007 200.35 292.065 200.35 292.241C200.35 292.38 200.575 292.516 200.911 292.579C201.602 292.708 201.492 292.97 200.747 292.97C200.089 292.97 199.065 293.428 199.065 293.722C199.065 293.97 199.911 294.005 200.607 293.785C201.877 293.385 203.472 293.509 202.38 293.924C201.938 294.092 201.711 294.554 201.952 294.795C202.142 294.985 202.718 294.691 203.883 293.811C204.531 293.322 204.622 293.293 204.767 293.536C204.855 293.685 205.145 294.099 205.41 294.455C205.675 294.812 205.963 295.2 206.05 295.318C206.261 295.605 204.789 297.013 203.813 297.458C202.932 297.859 201.389 297.898 200.868 297.533C200.392 297.2 200.39 296.328 200.864 295.688C201.172 295.272 201.187 295.182 200.984 294.98C200.808 294.805 200.615 294.784 200.189 294.893C199.88 294.972 199.338 295.112 198.985 295.203C197.211 295.66 196.397 295.046 197.066 293.755C197.42 293.07 197.812 292.719 198.754 292.243C199.637 291.796 199.65 291.709 198.868 291.451C198.375 291.288 197.815 290.57 197.791 290.07C197.785 289.931 197.958 289.65 198.175 289.446C198.558 289.087 198.631 289.079 200.422 289.189C202.614 289.324 202.922 289.259 202.914 288.667C202.907 288.212 202.319 287.695 200.812 286.818C199.666 286.151 199.065 285.506 199.065 284.943C199.065 284.564 199.16 284.422 199.507 284.287C200.079 284.065 201.738 284.232 202.243 284.563C202.812 284.935 203.019 284.638 202.659 283.964C202.088 282.897 202.388 280.81 203.154 280.517C203.176 280.508 203.203 280.503 203.232 280.501ZM180.973 281.796C180.949 281.792 180.932 281.851 180.927 281.967C180.92 282.136 180.958 282.231 181.012 282.178C181.065 282.125 181.071 281.986 181.025 281.87C181.005 281.822 180.988 281.798 180.973 281.796ZM292.765 282.116C292.741 282.113 292.724 282.171 292.719 282.288C292.712 282.457 292.75 282.552 292.803 282.499C292.857 282.445 292.863 282.307 292.816 282.191C292.797 282.143 292.779 282.119 292.765 282.116ZM181.455 282.919C181.431 282.915 181.414 282.974 181.409 283.09C181.402 283.259 181.44 283.354 181.494 283.301C181.547 283.248 181.553 283.109 181.506 282.993C181.487 282.945 181.47 282.921 181.455 282.919ZM292.3 283.258C292.271 283.247 292.25 283.339 292.25 283.505C292.25 283.725 292.286 283.816 292.331 283.705C292.375 283.595 292.375 283.414 292.331 283.304C292.32 283.276 292.309 283.262 292.3 283.258ZM174.57 283.697C175.128 283.701 175.597 283.894 175.894 284.262C176.654 285.202 176.178 286.519 174.811 287.258C173.912 287.744 173.567 287.715 172.904 287.101C172.57 286.792 172.509 286.588 172.509 285.787C172.509 284.616 172.859 284.064 173.761 283.812C174.044 283.733 174.316 283.695 174.57 283.697ZM299.481 283.751C300.419 283.757 300.488 283.785 301.002 284.38C301.453 284.901 301.541 285.128 301.541 285.778C301.541 286.204 301.477 286.553 301.399 286.553C301.321 286.553 301.222 286.679 301.18 286.834C301.085 287.18 300.262 287.66 299.934 287.56C299.274 287.359 298.684 287.009 298.26 286.566C297.874 286.163 297.787 285.932 297.778 285.276C297.76 284.112 298.172 283.743 299.481 283.751ZM181.916 283.889C181.906 283.893 181.896 283.895 181.885 283.902C181.801 283.954 181.772 284.103 181.822 284.232C181.95 284.564 182.039 284.525 182.039 284.137C182.039 283.978 181.986 283.877 181.916 283.889ZM291.804 284.37C291.784 284.37 291.763 284.375 291.74 284.389C291.65 284.444 291.618 284.557 291.669 284.639C291.807 284.862 291.903 284.82 291.903 284.538C291.903 284.435 291.862 284.372 291.804 284.37ZM182.435 285.023C182.406 285.012 182.386 285.104 182.386 285.269C182.386 285.49 182.422 285.58 182.467 285.47C182.511 285.36 182.511 285.179 182.467 285.069C182.455 285.041 182.445 285.026 182.435 285.023ZM291.319 285.325C291.295 285.321 291.278 285.38 291.274 285.497C291.267 285.666 291.304 285.761 291.358 285.707C291.411 285.654 291.417 285.516 291.371 285.4C291.351 285.352 291.334 285.327 291.319 285.325ZM182.917 286.146C182.888 286.135 182.868 286.227 182.868 286.392C182.868 286.613 182.904 286.703 182.948 286.593C182.993 286.483 182.993 286.302 182.948 286.192C182.937 286.164 182.926 286.149 182.917 286.146ZM290.929 286.45C290.881 286.444 290.818 286.516 290.771 286.644C290.709 286.814 290.698 287.021 290.746 287.104C290.795 287.186 290.885 287.114 290.947 286.943C291.009 286.773 291.02 286.566 290.972 286.483C290.96 286.463 290.946 286.452 290.929 286.45ZM183.307 287.034C183.14 287.034 183.112 287.572 183.27 287.73C183.426 287.884 183.645 287.861 183.645 287.689C183.645 287.412 183.45 287.034 183.307 287.034ZM205.618 287.101C205.629 287.105 205.639 287.108 205.65 287.115C205.738 287.169 205.811 287.318 205.811 287.445C205.811 287.572 205.738 287.676 205.65 287.676C205.562 287.676 205.489 287.527 205.489 287.346C205.489 287.187 205.545 287.087 205.618 287.101ZM290.492 287.526C290.358 287.526 290.142 287.859 290.139 288.117C290.135 288.227 290.204 288.318 290.286 288.318C290.474 288.318 290.684 287.689 290.544 287.548C290.529 287.533 290.512 287.526 290.492 287.526ZM183.789 288.157C183.624 288.157 183.598 288.651 183.743 289.027C183.878 289.379 184.127 289.344 184.127 288.973C184.127 288.553 183.963 288.157 183.789 288.157ZM232.153 288.338C232.225 288.338 232.298 288.35 232.353 288.372C232.464 288.416 232.373 288.453 232.153 288.453C231.932 288.453 231.841 288.417 231.952 288.372C232.007 288.35 232.08 288.338 232.153 288.338ZM177.442 289.276C177.906 289.261 178.306 289.426 178.654 289.774C179.673 290.792 179.009 292.477 177.359 293.058C176.556 293.341 176.725 293.358 176.086 292.928C175.486 292.524 175.264 291.855 175.41 290.897C175.516 290.2 175.846 289.789 176.533 289.499C176.861 289.36 177.163 289.286 177.442 289.276ZM296.423 289.286C296.759 289.281 297.129 289.365 297.516 289.561C298.165 289.89 298.621 290.6 298.638 291.306C298.655 292.049 298.241 292.913 297.813 293.028C296.878 293.278 296.221 293.08 295.483 292.325C294.167 290.981 294.968 289.305 296.423 289.286ZM203.067 292.096C203.176 292.1 203.261 292.124 203.309 292.172C203.411 292.274 203.243 292.324 202.831 292.315C202.204 292.301 202.202 292.299 202.675 292.158C202.823 292.114 202.957 292.094 203.067 292.096ZM236.861 292.112L237.236 292.581C237.443 292.839 237.613 293.126 237.613 293.218C237.613 293.473 239.482 295.336 239.855 295.455C240.036 295.512 240.184 295.626 240.184 295.708C240.184 295.791 240.324 295.858 240.495 295.858C240.667 295.858 240.847 295.923 240.897 296.003C240.946 296.082 241.485 296.299 242.096 296.484C243.621 296.947 246.221 296.954 247.571 296.5C249.701 295.783 252.124 294.012 252.567 292.848C252.775 292.303 253.073 292.473 253.361 293.302C254.039 295.247 255.372 297.322 256.524 298.227C257.753 299.192 258.115 299.305 259.94 299.297C261.522 299.29 261.693 299.257 262.703 298.755C263.864 298.179 265.48 296.848 265.643 296.335C265.805 295.827 265.944 295.961 266.264 296.935C266.857 298.736 268.141 299.941 270.52 300.927C271.399 301.292 273.732 301.337 274.556 301.006C275.465 300.641 276.698 300.037 277.068 299.775C277.392 299.546 277.431 299.564 277.751 300.08C277.937 300.382 278.09 300.718 278.09 300.829C278.09 301.292 279.617 303.287 280.43 303.887C280.902 304.236 281.346 304.522 281.416 304.522C281.486 304.522 281.756 304.634 282.016 304.769C282.333 304.934 283.158 305.045 284.506 305.105C286.446 305.191 287.496 305.09 288.968 304.675C289.342 304.57 289.768 304.53 289.916 304.587C290.154 304.678 290.143 304.735 289.811 305.087C289.606 305.305 289.357 305.484 289.257 305.484C289.158 305.484 288.989 305.571 288.883 305.677C288.25 306.309 284.688 306.629 282.989 306.205C281.686 305.881 280.243 305.208 279.371 304.518C278.719 304.002 277.608 302.456 277.608 302.065C277.608 301.935 277.471 301.66 277.302 301.452C277.025 301.11 276.968 301.097 276.7 301.314C276.224 301.698 275.752 301.93 274.718 302.287C273.903 302.569 273.456 302.614 271.943 302.566C270.29 302.514 270.047 302.465 269.03 301.976C267.789 301.38 266.416 300.122 265.962 299.166C265.802 298.83 265.57 298.517 265.446 298.469C265.312 298.418 264.895 298.714 264.421 299.197C263.021 300.625 260.941 301.359 259.298 301.007C257.827 300.691 257.431 300.548 256.567 300.017C255.022 299.068 253.99 297.915 253.242 296.3C252.928 295.625 252.84 295.543 252.578 295.683C252.412 295.772 252.167 296.01 252.034 296.212C251.173 297.526 249.285 298.555 247.128 298.887C245.587 299.124 245.009 299.114 243.489 298.823C241.581 298.458 239.811 297.53 238.278 296.09C237.579 295.433 236.981 294.895 236.949 294.895C236.917 294.895 236.338 295.429 235.661 296.08C233.197 298.456 229.853 299.473 226.572 298.845C224.389 298.428 222.651 297.429 221.77 296.087C221.339 295.43 220.988 295.595 220.462 296.7C219.106 299.549 215.685 301.508 212.944 301.003C211.674 300.769 210.418 300.113 209.465 299.187C209.033 298.768 208.595 298.427 208.491 298.429C208.386 298.433 208.161 298.738 207.991 299.111C207.479 300.232 206.028 301.513 204.594 302.109C203.382 302.613 203.295 302.626 201.407 302.567C200.34 302.534 199.322 302.428 199.145 302.33C198.968 302.233 198.482 301.996 198.065 301.803C197.647 301.611 197.263 301.386 197.212 301.303C196.989 300.944 196.701 301.228 196.188 302.311C195.249 304.296 193.713 305.477 191.223 306.129C189.977 306.455 188.296 306.516 187.099 306.279C186.745 306.209 186.035 306.085 185.521 306.003C184.853 305.898 184.465 305.734 184.161 305.43C183.776 305.046 183.759 304.98 183.984 304.756C184.192 304.548 184.349 304.537 184.943 304.686C186.571 305.096 187.521 305.189 189.347 305.116C191.092 305.047 191.377 304.992 192.35 304.532C193.757 303.868 194.857 302.776 195.589 301.314C195.911 300.672 196.174 300.045 196.174 299.922C196.174 299.473 196.679 299.524 197.591 300.067C199.092 300.96 199.963 301.229 201.314 301.218C203.26 301.201 205.151 300.369 206.453 298.956C207.357 297.975 207.738 297.269 207.738 296.576C207.738 295.788 207.946 295.784 208.494 296.561C209.007 297.288 210.775 298.746 211.144 298.746C211.263 298.746 211.538 298.869 211.753 299.02C212.066 299.239 212.505 299.294 213.917 299.294C215.557 299.294 215.749 299.26 216.492 298.846C217.446 298.314 218.018 297.797 218.736 296.82C219.349 295.987 220.488 293.76 220.808 292.77C220.946 292.343 221.11 292.434 221.569 293.189C222.272 294.348 224.415 295.813 226.451 296.528C227.53 296.907 230.622 296.93 231.665 296.567C233.952 295.77 235.711 294.425 236.474 292.89L236.861 292.112ZM271.162 292.187C271.279 292.187 271.389 292.198 271.466 292.218C271.62 292.258 271.457 292.29 271.103 292.288C270.75 292.284 270.624 292.254 270.824 292.215C270.924 292.196 271.046 292.186 271.162 292.187ZM293.483 294.885C293.88 294.892 294.286 295.025 294.585 295.282C294.973 295.616 295.034 295.783 295.024 296.486C295.01 297.405 295.224 297.536 295.766 296.941C295.946 296.742 296.217 296.447 296.368 296.284C296.825 295.791 297.839 295.354 298.747 295.26C300.227 295.108 300.325 295.502 299.212 297.135C297.967 298.96 294.674 301.715 294.135 301.382C293.799 301.175 294.052 300.784 294.985 300.069C296.351 299.021 297.043 298.338 297.043 298.037C297.043 297.547 296.472 297.801 295.437 298.75C294.863 299.276 294.303 299.707 294.192 299.707C294.07 299.707 293.992 299.489 293.992 299.146C293.992 298.754 293.919 298.585 293.751 298.585C293.577 298.585 293.51 298.762 293.51 299.217C293.51 299.979 293.302 300.164 293.055 299.623C292.945 299.381 292.74 299.227 292.531 299.227C292.237 299.227 292.203 299.29 292.296 299.668C292.621 300.986 292.664 300.889 291.484 301.47L290.393 302.006L289.864 301.699C289.573 301.531 289.1 301.032 288.812 300.592C288.299 299.81 287.727 299.452 287.727 299.914C287.727 300.041 288.016 300.472 288.37 300.873C289.056 301.652 289.165 301.954 288.761 301.954C288.404 301.954 287.874 301.652 287.406 301.184C286.974 300.751 285.659 299.868 285.447 299.868C285.376 299.868 285.318 300.032 285.318 300.232C285.318 300.491 285.547 300.745 286.111 301.114C286.548 301.4 286.976 301.633 287.064 301.633C287.264 301.633 287.727 302.089 287.727 302.286C287.727 302.368 287.516 302.435 287.259 302.435C286.64 302.435 286.282 302.582 286.282 302.836C286.282 303.174 286.686 303.234 288.267 303.13C289.908 303.023 290.221 303.154 289.661 303.713C289.371 304.002 289.134 304.039 287.607 304.034C286.304 304.029 285.663 303.95 284.997 303.711C283.518 303.181 283.144 302.344 284.126 301.765L284.702 301.426L284.247 301.054C283.997 300.849 283.743 300.68 283.684 300.676C283.418 300.662 283.214 299.55 283.372 298.978C283.643 297.999 284.429 297.669 285.235 298.197C285.824 298.582 286.282 298.366 286.282 297.701C286.282 296.994 286.867 296.299 287.464 296.299C287.975 296.299 288.543 296.778 288.899 297.511C289.319 298.372 289.655 299.187 289.655 299.343C289.655 299.537 290.352 300.189 290.559 300.189C290.79 300.189 291.503 299.392 291.805 298.794C291.982 298.443 292.064 297.854 292.064 296.936C292.064 295.739 292.105 295.555 292.436 295.244C292.699 294.997 293.087 294.878 293.483 294.885ZM180.422 294.895C181.607 294.895 181.973 295.525 182.082 297.754C182.145 299.033 182.172 299.113 182.719 299.66C183.26 300.2 183.31 300.217 183.647 299.981C184.02 299.721 184.609 298.857 184.609 298.572C184.609 298.354 185.192 297.129 185.45 296.806C185.694 296.5 186.271 296.178 186.576 296.178C186.98 296.178 187.468 296.795 187.578 297.444C187.73 298.349 188.016 298.543 188.671 298.191C189.65 297.664 190.452 298.167 190.658 299.437C190.75 299.998 190.703 300.092 190.02 300.746L189.284 301.451L189.838 301.777C190.867 302.384 190.414 303.259 188.807 303.767C187.835 304.074 184.88 304.141 184.408 303.866C184.254 303.776 184.127 303.551 184.127 303.366C184.127 303.039 184.176 303.032 185.714 303.132C186.934 303.212 187.342 303.187 187.477 303.024C187.735 302.714 187.388 302.435 186.745 302.435C185.914 302.435 186.073 302.052 187.128 301.512C188.381 300.871 189.061 300.029 188.326 300.029C188.042 300.029 186.516 301.075 186.401 301.348C186.335 301.508 185.494 301.954 185.259 301.954C184.9 301.954 185.117 301.297 185.653 300.761C186.267 300.148 186.344 299.908 185.974 299.766C185.72 299.668 185.106 300.275 185.096 300.633C185.088 300.931 183.984 301.955 183.672 301.953C183.525 301.953 183.049 301.772 182.614 301.552C182.18 301.332 181.733 301.152 181.621 301.152C181.285 301.152 181.179 300.518 181.462 300.205C181.753 299.884 181.806 299.226 181.542 299.226C181.445 299.226 181.156 299.376 180.899 299.559C180.474 299.861 180.422 299.866 180.329 299.623C180.269 299.469 180.321 299.296 180.449 299.216C180.637 299.1 180.631 299.035 180.408 298.812C180.064 298.468 179.737 298.671 179.858 299.154C180.035 299.856 179.621 299.733 178.519 298.758C177.451 297.812 176.899 297.553 176.899 298C176.899 298.301 177.442 298.856 178.709 299.851C179.673 300.608 179.979 301.07 179.699 301.35C179.515 301.534 178.293 300.748 176.91 299.556C175.86 298.652 173.687 295.909 173.687 295.488C173.687 295.142 174.876 295.036 175.671 295.313C176.869 295.73 177.304 295.991 177.897 296.651C178.219 297.009 178.56 297.301 178.654 297.301C178.751 297.301 178.827 296.99 178.827 296.592C178.827 296.062 178.932 295.757 179.242 295.389C179.599 294.965 179.766 294.895 180.422 294.895ZM236.94 300.53C239.76 300.534 242.596 300.683 244.761 300.986C246.215 301.189 251.478 301.642 252.311 301.636C252.986 301.631 255.97 301.983 258.414 302.357C259.209 302.479 260.619 302.692 261.546 302.83C266.859 303.625 270.009 304.26 273.512 305.243C273.954 305.366 274.713 305.575 275.199 305.707C277.088 306.219 278.039 306.484 278.763 306.701C279.177 306.825 279.62 306.927 279.748 306.927C279.876 306.927 280.332 307.032 280.762 307.16C281.192 307.288 281.977 307.512 282.507 307.66C284.488 308.209 286.478 308.926 286.801 309.206C287.086 309.452 287.108 309.555 286.953 309.896C286.803 310.225 286.657 310.296 286.134 310.296C285.784 310.296 285.457 310.23 285.407 310.15C285.311 309.995 284.384 309.547 283.31 309.136C282.473 308.816 281.211 308.471 279.616 308.127C278.909 307.975 277.644 307.669 276.805 307.449C275.966 307.229 274.958 306.985 274.565 306.906C274.172 306.829 273.63 306.699 273.36 306.618C273.09 306.538 272.292 306.353 271.585 306.206C270.878 306.06 269.866 305.842 269.336 305.721C268.806 305.6 268.011 305.456 267.569 305.401C267.128 305.346 266.513 305.24 266.204 305.165C265.895 305.091 264.919 304.911 264.036 304.766C263.152 304.621 261.851 304.401 261.145 304.277C260.438 304.153 259.498 304.01 259.057 303.96C258.615 303.909 257.928 303.8 257.531 303.719C256.851 303.579 255.916 303.446 251.427 302.849C239.405 301.251 232.956 301.346 218.902 303.332C217.93 303.469 216.52 303.68 215.769 303.802C215.019 303.923 213.681 304.138 212.798 304.28C211.915 304.422 210.595 304.643 209.867 304.772C209.138 304.901 207.91 305.117 207.136 305.252C206.363 305.386 205.261 305.596 204.687 305.717C204.112 305.838 203.064 306.059 202.358 306.207C201.651 306.356 200.721 306.579 200.291 306.702C199.861 306.826 199.398 306.927 199.261 306.927C199.124 306.927 198.609 307.042 198.115 307.183C196.542 307.631 195.643 307.86 194.407 308.128C191.708 308.712 190.824 308.992 189.013 309.839C187.63 310.487 187.018 310.427 187.018 309.645C187.018 309.257 187.132 309.126 187.701 308.849C188.076 308.667 188.637 308.454 188.946 308.375C189.255 308.297 189.906 308.113 190.391 307.968C191.447 307.651 192.616 307.33 193.604 307.087C194.001 306.989 194.688 306.808 195.13 306.685C195.571 306.562 196.33 306.357 196.816 306.229C197.302 306.101 198.116 305.883 198.624 305.743C199.133 305.604 199.964 305.377 200.471 305.24C200.979 305.103 201.627 304.917 201.912 304.827C202.197 304.737 202.776 304.6 203.197 304.523C203.619 304.447 204.253 304.313 204.606 304.226C205.766 303.939 207.631 303.573 209.184 303.328C210.848 303.066 211.091 303.029 212.878 302.765C213.541 302.667 214.733 302.486 215.528 302.362C217.875 301.995 220.941 301.631 221.632 301.636C222.492 301.642 227.763 301.184 229.211 300.978C231.315 300.678 234.12 300.528 236.94 300.53ZM235.37 309.061C238.603 309.042 242.061 309.194 245.966 309.515C247.07 309.606 248.733 309.739 249.66 309.81C250.588 309.882 251.889 310.017 252.551 310.112C253.669 310.27 254.972 310.428 258.013 310.772C258.675 310.847 259.651 310.986 260.181 311.081C260.711 311.176 261.867 311.368 262.751 311.507C265.424 311.927 267.194 312.237 268.292 312.476C268.866 312.601 269.47 312.703 269.634 312.703C270.115 312.703 272.647 313.296 274.878 313.933C279.307 315.196 280.89 315.847 281.045 316.466C281.171 316.966 280.921 317.611 280.518 317.827C280.071 318.065 279.857 318.03 279.214 317.615C276.968 316.162 274.919 315.49 269.417 314.401C267.017 313.926 266.268 313.788 265.321 313.647C264.791 313.568 264.147 313.431 263.891 313.344C263.635 313.256 263.212 313.184 262.951 313.184C262.689 313.184 261.995 313.08 261.408 312.952C259.833 312.611 255.377 311.95 252.15 311.581C246.809 310.969 232.743 310.671 227.655 311.061C221.868 311.505 215.58 312.292 212.534 312.952C211.947 313.08 211.253 313.184 210.992 313.184C210.73 313.184 210.307 313.256 210.051 313.344C209.795 313.431 209.152 313.568 208.622 313.647C207.674 313.788 207.003 313.911 204.446 314.411C199.314 315.415 197.731 315.923 194.679 317.548C194.397 317.698 193.896 317.825 193.567 317.829C193.066 317.835 192.952 317.773 192.871 317.455C192.645 316.553 192.834 316.185 193.764 315.719C194.25 315.476 195.154 315.124 195.772 314.938C196.391 314.752 197.186 314.507 197.539 314.393C199.045 313.91 199.396 313.808 200.526 313.524C202.479 313.034 205.519 312.43 208.301 311.98C209.184 311.837 210.232 311.655 210.63 311.576C211.027 311.496 211.714 311.388 212.155 311.336C212.597 311.284 213.609 311.144 214.404 311.023C217.878 310.497 218.494 310.413 219.785 310.292C222.054 310.079 224.601 309.813 226.129 309.629C229.131 309.268 232.138 309.079 235.37 309.061Z" fill="currentcolor"/>

</svg>
