<svg  viewBox="0 0 1180 580" fill="currentcolor" xmlns="http://www.w3.org/2000/svg">
<path d="M238.552 209.298C238.077 209.316 237.603 209.473 237.217 209.78C236.904 210.029 236.514 210.484 236.351 210.791C236.068 211.324 236.067 211.38 236.32 212.043C236.475 212.447 236.81 212.908 237.124 213.147C237.779 213.646 237.794 213.778 237.218 213.979C236.422 214.256 235.688 215.179 235.39 216.278C235.131 217.232 235.132 217.364 235.397 219.042C235.778 221.444 236.276 222.357 237.49 222.873L238.054 223.114L237.584 223.31C236.881 223.603 236.541 224.067 236.452 224.857C236.355 225.72 236.838 226.547 237.579 226.786C238.261 227.006 238.496 227 239.111 226.743C240.289 226.251 240.905 224.92 240.423 223.909C240.284 223.618 240.081 223.379 239.972 223.378C239.863 223.378 239.669 223.309 239.541 223.227C239.349 223.106 239.426 222.966 239.969 222.445C240.763 221.682 241.042 221.172 241.432 219.765C241.971 217.825 241.762 215.524 240.961 214.574C240.824 214.411 240.336 214.11 239.876 213.905C239.175 213.593 239.071 213.496 239.231 213.303C239.336 213.177 239.483 213.074 239.559 213.074C239.737 213.074 240.172 212.632 240.517 212.1C240.864 211.566 240.865 210.888 240.522 210.289C240.136 209.619 239.344 209.267 238.552 209.298ZM244.193 215.338C243.365 215.338 243.252 215.383 242.708 215.926C242.132 216.502 242.119 216.539 242.125 217.666C242.133 218.927 242.232 219.132 243.133 219.722C243.554 219.998 243.912 220.084 244.667 220.091C245.813 220.102 246.388 219.856 246.958 219.11C247.753 218.069 247.355 216.834 245.917 215.884C245.213 215.419 244.956 215.338 244.193 215.338ZM232.865 215.613C232.757 215.613 232.646 215.625 232.527 215.646C231.044 215.912 229.999 216.85 229.968 217.941C229.957 218.339 230.079 218.551 230.555 218.963C230.886 219.249 231.372 219.545 231.635 219.621C232.753 219.946 233.517 219.755 234.232 218.973C234.627 218.541 234.693 218.345 234.693 217.596C234.693 216.845 234.633 216.667 234.263 216.323C233.722 215.819 233.332 215.612 232.865 215.613ZM238.68 227.596C237.17 227.596 234.267 228.563 232.661 229.601C231.603 230.285 229.704 232.184 229.35 232.913C228.145 235.392 227.913 237.056 228.426 239.542C228.708 240.911 230.036 243.52 230.97 244.541C231.977 245.641 231.921 245.953 230.747 245.798C229.797 245.672 229.534 245.497 229.534 244.993C229.534 244.783 229.3 244.393 228.982 244.076C228.242 243.337 227.455 243.307 226.798 243.992C226.254 244.559 226.079 244.562 225.088 244.023C224.555 243.732 224.216 243.409 223.994 242.977C223.624 242.261 222.784 241.754 222.186 241.885C221.971 241.932 221.572 242.22 221.299 242.525L220.804 243.079L219.892 242.815C218.416 242.388 218.314 242.327 218.201 241.814C218.143 241.549 217.864 241.088 217.581 240.789C217.127 240.307 216.977 240.245 216.279 240.245C215.477 240.245 215.332 240.353 214.423 241.631C214.4 241.664 213.7 241.678 212.868 241.662L211.355 241.633L210.679 240.939C210.083 240.327 209.924 240.245 209.333 240.25C208.642 240.255 208.11 240.561 207.917 241.064C207.86 241.215 207.749 241.338 207.671 241.338C207.593 241.338 207.487 241.546 207.436 241.802C207.367 242.146 207.231 242.293 206.909 242.368C206.67 242.425 206.132 242.614 205.714 242.79C204.967 243.103 204.947 243.104 204.41 242.815C203.669 242.416 202.701 242.467 202.272 242.926C201.857 243.371 201.393 244.227 201.393 244.547C201.393 244.681 200.94 245.243 200.385 245.797C199.423 246.758 199.344 246.803 198.618 246.803C197.911 246.803 197.817 246.851 197.258 247.506C196.929 247.892 196.545 248.208 196.406 248.208C196.07 248.208 195.296 247.481 195.296 247.165C195.296 246.868 194.939 246.56 194.227 246.241C193.476 245.904 192.814 246.163 192.183 247.042C191.735 247.664 191.614 247.74 191.069 247.74C190.553 247.74 190.348 247.63 189.754 247.037C189.165 246.449 188.954 246.335 188.46 246.34C187.739 246.345 187.43 246.567 186.787 247.537C186.423 248.086 186.201 248.277 185.956 248.251C185.772 248.232 185.323 248.321 184.958 248.449C184.301 248.681 184.291 248.679 183.815 248.223C183.09 247.527 182.118 247.187 181.54 247.427C180.546 247.838 179.732 249.006 179.874 249.82C179.95 250.259 179.896 250.357 179.409 250.668C178.764 251.079 178.52 251.105 178.256 250.786C177.914 250.375 176.928 250.2 176.345 250.448C175.225 250.924 174.687 252.036 174.995 253.236C175.16 253.88 175.148 254.049 174.899 254.565C174.742 254.891 174.564 255.263 174.503 255.391C174.434 255.538 174.122 255.644 173.669 255.673C173.026 255.715 172.882 255.798 172.37 256.424C171.849 257.059 171.793 257.217 171.793 258.053C171.793 258.698 171.872 259.066 172.053 259.266C172.376 259.623 172.379 259.81 172.071 260.405C171.919 260.699 171.575 260.983 171.156 261.163C170.787 261.321 170.335 261.65 170.151 261.895C169.967 262.14 169.745 262.425 169.658 262.529C169.431 262.8 169.46 264.726 169.695 265.01C169.803 265.14 170.119 265.464 170.399 265.731C171.107 266.407 171.068 266.897 170.204 268.196C169.624 269.066 169.5 269.38 169.5 269.974C169.5 270.37 169.569 270.695 169.653 270.695C169.738 270.695 169.851 270.87 169.905 271.085C169.997 271.45 170.679 272.154 171.066 272.283C171.16 272.314 171.3 272.584 171.378 272.884C171.912 274.932 171.906 274.873 171.635 275.286C171.337 275.739 171.291 276.952 171.551 277.458C171.881 278.099 172.522 278.658 172.93 278.661C173.512 278.665 173.622 278.79 173.955 279.829C174.12 280.345 174.31 280.833 174.379 280.915C174.549 281.118 174.536 281.781 174.362 281.781C174.284 281.781 174.146 281.997 174.053 282.261C173.764 283.092 174.198 283.745 176.926 286.588C177.7 287.394 178.413 288.206 178.511 288.392C178.608 288.578 178.739 289.31 178.801 290.017C178.952 291.756 179.657 293.066 180.975 294.056C181.33 294.322 181.76 294.813 181.931 295.146C182.344 295.951 183.14 297.299 183.26 297.397C183.313 297.44 183.576 297.791 183.843 298.178C184.111 298.564 184.853 299.42 185.492 300.081C186.637 301.263 186.878 301.701 187.238 303.253C187.444 304.139 187.951 304.742 188.827 305.142C189.71 305.545 189.805 305.714 189.428 306.211C189.084 306.665 189.151 307.404 189.594 308.055C189.971 308.61 190.204 308.732 191.068 308.831C191.553 308.886 192.103 309.659 193.044 311.607C194.32 314.25 194.364 314.536 193.834 316.76C193.544 317.976 193.686 318.724 194.371 319.588C194.823 320.157 196.534 321.288 196.943 321.288C197.143 321.288 197.458 321.408 198.814 321.995C200.464 322.71 202.929 323.247 206.318 323.63C207.006 323.707 207.991 323.844 208.507 323.933C209.551 324.113 211.23 324.356 212.884 324.564C213.486 324.64 214.787 324.851 215.776 325.032C220.787 325.95 223.252 326.234 228.049 326.446C230.199 326.541 232.098 326.681 232.27 326.756C232.682 326.936 243.139 326.837 247.122 326.614C251.827 326.352 257.071 325.787 259.004 325.335C259.348 325.254 260.087 325.122 260.646 325.04C262.224 324.811 263.762 324.574 264.789 324.401C265.305 324.314 266.254 324.181 266.899 324.105C272.919 323.395 275.848 322.824 277.765 321.985C278.023 321.873 278.832 321.554 279.563 321.277C282.663 320.103 283.534 318.863 282.749 316.741C282.417 315.842 282.407 313.835 282.732 313.228C282.865 312.98 283.205 312.286 283.487 311.685C283.77 311.084 284.252 310.19 284.557 309.699C285.065 308.883 285.161 308.806 285.678 308.801C286.425 308.795 287.018 308.308 287.228 307.531C287.408 306.861 287.324 306.377 286.955 305.956C286.645 305.603 286.742 305.493 287.681 305.13C288.661 304.751 289.143 304.111 289.5 302.716C289.776 301.641 290.24 300.796 290.839 300.278C291.381 299.809 292.634 298.363 293.127 297.636C293.363 297.29 293.608 296.983 293.672 296.955C293.737 296.926 293.789 296.808 293.789 296.692C293.789 296.577 293.879 296.389 293.988 296.276C294.097 296.162 294.319 295.77 294.482 295.404C294.654 295.015 295.133 294.434 295.634 294.007C297.192 292.678 297.559 291.868 297.932 288.942C298.013 288.311 298.143 288.106 298.932 287.366C299.858 286.497 301.949 284.074 302.433 283.31C302.784 282.754 302.771 282.488 302.364 281.939L302.028 281.484L302.364 280.563C302.549 280.056 302.701 279.531 302.701 279.395C302.701 279.027 303.142 278.658 303.582 278.658C303.812 278.658 304.207 278.438 304.543 278.121C305.091 277.605 305.114 277.54 305.115 276.52C305.115 275.934 305.017 275.233 304.894 274.958C304.725 274.58 304.712 274.372 304.841 274.099C304.935 273.901 305.092 273.443 305.19 273.08C305.31 272.636 305.545 272.286 305.907 272.01C306.203 271.784 306.553 271.385 306.684 271.123C306.927 270.637 307.017 268.889 306.805 268.795C306.478 268.65 305.764 267.324 305.721 266.784C305.678 266.243 305.745 266.108 306.336 265.558L307 264.939V263.79C307 262.723 306.963 262.593 306.481 261.986C306.145 261.561 305.755 261.269 305.37 261.154C304.9 261.014 304.72 260.847 304.5 260.349C304.247 259.776 304.244 259.684 304.464 259.313C305.08 258.271 304.922 257.228 303.995 256.211C303.643 255.825 303.403 255.704 302.99 255.704C302.267 255.704 302.015 255.471 301.672 254.487C301.439 253.818 301.42 253.602 301.573 253.357C302.081 252.545 301.422 251.043 300.322 250.503C299.826 250.259 299.661 250.247 299.112 250.411C298.762 250.516 298.398 250.695 298.302 250.81C298.095 251.06 297.601 251.085 297.458 250.853C297.401 250.762 297.186 250.623 296.979 250.545C296.65 250.42 296.604 250.303 296.604 249.606C296.604 249.169 296.516 248.719 296.408 248.607C296.301 248.495 296.113 248.259 295.992 248.083C295.87 247.908 295.506 247.645 295.184 247.5C294.63 247.251 294.556 247.251 293.873 247.512C293.475 247.664 293.029 247.939 292.883 248.123C292.469 248.643 292.33 248.678 291.562 248.447C291.168 248.328 290.708 248.267 290.541 248.31C290.307 248.371 290.159 248.237 289.889 247.713C289.432 246.829 288.838 246.347 288.195 246.34C287.686 246.335 286.944 246.697 286.712 247.065C286.412 247.539 286.065 247.74 285.544 247.74C285.018 247.74 284.409 247.392 284.409 247.091C284.409 246.872 283.798 246.332 283.364 246.167C282.598 245.877 281.334 246.62 281.063 247.521C280.927 247.971 279.719 248.483 279.719 248.091C279.719 248.027 279.484 247.711 279.197 247.389C278.737 246.872 278.59 246.803 277.956 246.803C277.279 246.803 277.174 246.741 276.133 245.73C275.27 244.891 275.029 244.559 275.029 244.208C275.029 243.918 274.841 243.547 274.502 243.167C274.041 242.65 273.885 242.575 273.247 242.562C272.776 242.552 272.418 242.637 272.237 242.801C271.859 243.143 271.69 243.126 270.417 242.614C269.544 242.264 269.269 242.07 269.059 241.658C268.574 240.708 268.002 240.245 267.315 240.245C266.628 240.245 265.741 240.8 265.57 241.338C265.479 241.625 265.334 241.65 263.789 241.65H262.106L261.601 240.947C261.121 240.28 261.057 240.245 260.334 240.245C259.685 240.245 259.492 240.322 259.015 240.771C258.656 241.109 258.457 241.44 258.457 241.699C258.457 242.15 257.95 242.587 257.425 242.587C257.24 242.587 256.832 242.694 256.518 242.825C255.911 243.078 255.449 242.965 255.278 242.521C255.23 242.394 254.969 242.177 254.7 242.038C254.308 241.836 254.112 241.819 253.721 241.955C253.113 242.166 252.516 242.713 252.516 243.058C252.516 243.393 252.149 243.703 251.255 244.124C250.337 244.557 250.275 244.551 249.804 243.992C249.492 243.621 249.284 243.524 248.809 243.524C248.064 243.524 247.201 244.23 247.201 244.839C247.201 245.329 246.662 245.707 245.8 245.823C245.452 245.869 245.168 245.867 245.168 245.818C245.168 245.769 245.827 245.075 246.632 244.275C248.027 242.889 248.245 242.6 248.847 241.338C250.499 237.873 249.793 234.342 246.825 231.215C245.626 229.951 243.85 228.848 242.198 228.341C240.042 227.679 239.653 227.596 238.68 227.596ZM237.954 228.536C238.207 228.536 238.522 228.551 238.914 228.565L240.243 228.611L240.288 230.322C240.328 231.871 240.369 232.08 240.726 232.547C241.265 233.253 241.834 233.512 243.42 233.772C245.926 234.182 246.614 234.321 246.897 234.472C247.053 234.555 247.307 234.626 247.463 234.629C247.62 234.633 247.945 234.796 248.187 234.994C248.588 235.322 248.641 235.489 248.799 236.945C249.013 238.916 248.956 239.012 247.786 238.649C247.335 238.51 246.614 238.317 246.184 238.222C245.754 238.127 244.98 237.942 244.464 237.812C243.586 237.591 241.449 237.249 239.858 237.075C238.683 236.947 232.893 237.712 231.68 238.155C231.356 238.274 230.895 238.371 230.656 238.371C230.417 238.371 230.155 238.433 230.073 238.51C229.851 238.717 229.292 238.858 229.171 238.737C229.113 238.679 229.065 237.875 229.065 236.951C229.065 235.322 229.077 235.261 229.477 234.947C229.703 234.769 229.993 234.623 230.12 234.623C230.248 234.623 230.678 234.521 231.076 234.396C231.762 234.182 232.698 233.944 234.452 233.537C235.64 233.262 236.247 232.914 236.682 232.256C237.057 231.691 237.076 231.566 237.003 230.17C236.928 228.748 236.857 228.529 237.954 228.536ZM241.103 238.075C241.344 238.075 241.585 238.084 241.767 238.1C242.133 238.133 241.834 238.16 241.103 238.16C240.372 238.16 240.073 238.133 240.438 238.1C240.621 238.084 240.862 238.075 241.103 238.075ZM236.71 238.075C236.993 238.076 237.271 238.084 237.473 238.1C237.879 238.132 237.507 238.157 236.647 238.157C235.787 238.157 235.456 238.131 235.91 238.099C236.137 238.083 236.427 238.075 236.71 238.075ZM233.912 238.427C234.097 238.433 234.248 238.456 234.324 238.498C234.54 238.619 234.397 238.675 233.67 238.758C233.158 238.817 232.517 238.964 232.246 239.086C231.975 239.208 231.518 239.309 231.23 239.312C230.942 239.316 230.57 239.42 230.403 239.547C230.086 239.786 229.657 239.847 229.486 239.676C229.299 239.489 229.551 239.307 229.999 239.307C230.245 239.307 230.473 239.225 230.507 239.124C230.541 239.021 230.993 238.91 231.536 238.871C232.069 238.833 232.504 238.746 232.504 238.679C232.504 238.529 233.357 238.407 233.912 238.427ZM216.194 240.87C216.699 240.87 217.343 241.529 217.441 242.146C217.518 242.624 217.466 242.787 217.131 243.121C216.716 243.536 216.4 243.598 215.849 243.375C215.414 243.199 215.207 242.913 215.078 242.314C214.986 241.882 215.039 241.737 215.439 241.338C215.697 241.08 216.037 240.87 216.194 240.87ZM260.39 240.886C260.592 240.882 260.799 240.962 261.042 241.121C261.361 241.33 261.427 241.499 261.427 242.112C261.427 242.627 261.341 242.928 261.143 243.107C260.321 243.85 259.082 243.38 259.082 242.325C259.082 241.911 259.202 241.663 259.568 241.322C259.877 241.033 260.129 240.89 260.39 240.886ZM267.447 240.893C267.63 240.897 267.794 241.016 268.049 241.252C268.631 241.791 268.632 242.743 268.049 243.2C267.136 243.917 266.062 243.368 266.146 242.227C266.185 241.693 266.285 241.52 266.725 241.225C267.059 241.001 267.262 240.889 267.445 240.893H267.447ZM209.177 240.968C209.308 240.974 209.448 241.034 209.673 241.15C209.954 241.296 210.297 241.608 210.435 241.843C210.67 242.241 210.667 242.305 210.39 242.78C210.227 243.06 210.018 243.341 209.925 243.404C209.269 243.852 208.115 243.182 208.115 242.354C208.115 241.621 208.246 241.359 208.736 241.105C208.924 241.008 209.046 240.961 209.177 240.968ZM222.254 242.586C223.26 242.586 223.859 243.874 223.151 244.514C222.262 245.318 221.086 244.221 221.545 243.016C221.681 242.661 221.803 242.586 222.254 242.586ZM254.192 242.586C255.112 242.586 255.511 243.777 254.812 244.433C254.613 244.62 254.274 244.773 254.06 244.773C253.559 244.773 252.985 244.24 252.985 243.776C252.985 243.208 253.616 242.586 254.192 242.586ZM273.312 243.219C273.579 243.223 273.842 243.338 274.063 243.573C274.529 244.068 274.519 244.922 274.041 245.37C273.805 245.592 273.48 245.709 273.101 245.709C272.616 245.709 272.472 245.627 272.213 245.202C271.843 244.597 271.844 244.607 272.118 244.079C272.412 243.515 272.868 243.213 273.312 243.219ZM203.086 243.233C203.373 243.223 203.726 243.381 204.123 243.723C204.646 244.176 204.703 244.292 204.609 244.722C204.55 244.99 204.383 245.313 204.237 245.441C203.804 245.82 203.378 245.871 202.839 245.607C202.523 245.452 202.322 245.232 202.307 245.026C202.227 243.887 202.537 243.253 203.086 243.233ZM248.937 244.166C249.109 244.166 249.258 244.236 249.447 244.379C249.783 244.634 249.841 245.744 249.536 246.111C249.311 246.382 248.273 246.406 248.013 246.147C247.91 246.044 247.826 245.659 247.826 245.292C247.826 244.711 247.885 244.594 248.287 244.386C248.569 244.24 248.764 244.167 248.937 244.166ZM227.656 244.182C227.788 244.186 227.926 244.224 228.066 244.305C228.287 244.433 228.584 244.731 228.725 244.968C228.963 245.366 228.962 245.428 228.721 245.826C228.518 246.162 228.323 246.266 227.834 246.303C227.31 246.343 227.165 246.287 226.952 245.963C226.433 245.171 226.945 244.165 227.656 244.182ZM212.806 245.34C215.507 245.34 216.546 245.517 219.919 246.561C223.901 247.795 226.508 248.202 228.518 247.907C230.077 247.678 231.296 247.691 231.215 247.935C231.18 248.042 230.946 248.15 230.694 248.175C230.443 248.199 229.766 248.322 229.19 248.448C227.172 248.889 223.993 248.582 221.17 247.673C216.514 246.174 215.126 245.861 213.151 245.864C211.715 245.868 210.065 246.16 209.108 246.584C208.837 246.704 208.578 246.803 208.533 246.803C208.233 246.803 206.394 248.084 205.646 248.814C204.312 250.114 203.777 250.865 202.904 252.659C202.044 254.429 201.868 255.059 201.468 257.821C201.324 258.809 201.779 261.941 202.327 263.746C202.51 264.347 202.722 265.05 202.797 265.307C202.934 265.772 203.104 266.235 203.743 267.884C203.927 268.356 204.088 268.848 204.103 268.977C204.142 269.33 203.445 269.376 203.333 269.027C203.247 268.756 202.94 267.937 202.615 267.11C202.162 265.956 201.504 263.708 201.167 262.162C200.835 260.638 200.834 256.469 201.163 255.167C201.89 252.311 202.561 250.777 203.691 249.383C205.145 247.59 206.901 246.418 209.208 245.704C210.22 245.391 210.711 245.341 212.804 245.34L212.806 245.34ZM263.772 245.349C266.078 245.358 266.476 245.4 267.526 245.746C269.366 246.35 270.563 247.048 271.875 248.282C273.96 250.243 275.148 252.929 275.589 256.68C275.798 258.451 275.798 258.891 275.589 260.662C275.46 261.757 275.287 262.864 275.205 263.121C275.123 263.379 274.947 263.976 274.814 264.449C274.348 266.098 273.889 267.426 273.756 267.508C273.683 267.553 273.623 267.724 273.623 267.888C273.623 268.052 273.475 268.47 273.294 268.816C273.114 269.162 272.951 269.446 272.933 269.446C272.915 269.446 272.771 269.351 272.613 269.235C272.416 269.091 272.369 268.955 272.464 268.806C272.629 268.547 272.964 267.683 273.154 267.025C273.314 266.469 273.732 265.279 273.922 264.839C274.081 264.472 274.443 263.096 274.786 261.56C274.934 260.899 275.03 259.721 275.03 258.579C275.03 254.732 273.569 251.303 270.826 248.704C269.994 247.916 268.323 246.803 267.971 246.803C267.882 246.803 267.621 246.706 267.393 246.588C265.711 245.716 261.341 245.705 258.927 246.567C258.626 246.674 257.957 246.884 257.442 247.033C256.926 247.183 256.328 247.375 256.113 247.461C254.771 247.997 252.214 248.517 250.376 248.628C248.859 248.718 246.561 248.444 245.56 248.052C244.856 247.776 245.878 247.686 247.668 247.864C250.503 248.147 252.449 247.864 256.66 246.561C260.156 245.479 260.985 245.337 263.773 245.349L263.772 245.349ZM232.514 245.804L232.914 246.204C233.314 246.603 233.314 246.604 233.124 247.913C232.789 250.226 232.751 254.46 233.046 256.484C233.349 258.559 233.708 260.111 234.038 260.776C234.33 261.363 234.316 262 234 262.45C233.865 262.643 233.755 262.956 233.755 263.146C233.755 263.778 233.465 263.685 233.139 262.948C232.962 262.549 232.817 262.156 232.817 262.076C232.817 261.996 232.719 261.601 232.599 261.198C232.105 259.541 231.758 256.676 231.62 253.127C231.526 250.704 231.844 247.407 232.269 246.391L232.514 245.804ZM244.113 246.359C244.36 246.355 244.494 246.648 244.574 247.273C244.634 247.744 244.763 248.692 244.859 249.379C245.279 252.361 244.67 259.223 243.738 262.017C243.294 263.347 243.184 263.504 242.458 263.833C241.503 264.267 241.359 264.234 241.461 263.606C241.508 263.315 241.723 262.7 241.938 262.24C242.53 260.972 243.062 259.233 243.388 257.499C243.8 255.315 243.798 249.561 243.384 248.055L243.107 247.044L243.53 246.681C243.773 246.472 243.963 246.362 244.111 246.359H244.113ZM283.116 246.799C283.532 246.819 283.896 247.092 283.994 247.578C284.095 248.086 283.881 248.829 283.578 249.022C283.476 249.087 283.137 249.141 282.824 249.143C281.805 249.147 281.409 248.027 282.148 247.23C282.435 246.921 282.791 246.783 283.116 246.799ZM193.439 246.825C193.752 246.805 194.097 246.92 194.398 247.199C194.916 247.679 194.966 248.381 194.514 248.833C193.788 249.558 192.482 248.975 192.482 247.925C192.482 247.269 192.916 246.859 193.439 246.825ZM288.323 247.123C288.709 247.133 289.047 247.394 289.253 247.89C289.483 248.445 289.253 249.209 288.775 249.463C288.24 249.749 287.577 249.637 287.234 249.202C286.778 248.623 286.825 248.089 287.378 247.561C287.694 247.259 288.023 247.115 288.323 247.123ZM188.325 247.127C188.617 247.123 188.862 247.247 189.186 247.519C189.793 248.029 189.843 248.77 189.306 249.274C188.88 249.673 188.163 249.715 187.67 249.37C187.383 249.17 187.322 248.979 187.322 248.273C187.322 247.501 187.36 247.405 187.723 247.267C187.959 247.178 188.15 247.13 188.325 247.127ZM198.61 247.594C198.872 247.602 199.156 247.698 199.458 247.882C200.211 248.34 200.318 249.639 199.649 250.193C199.378 250.418 198.757 250.534 198.308 250.443C197.37 250.255 197.005 248.758 197.712 247.997C197.97 247.718 198.272 247.584 198.61 247.594ZM278.025 247.601C278.327 247.611 278.623 247.725 278.866 247.967C279.378 248.479 279.393 249.433 278.898 249.995C278.543 250.398 277.808 250.615 277.374 250.446C276.81 250.226 276.436 249.709 276.441 249.157C276.45 248.23 277.253 247.576 278.025 247.601ZM181.928 248.208C182.479 248.208 182.699 248.3 183.089 248.689C183.816 249.415 183.665 250.188 182.726 250.544C182.236 250.732 182.099 250.731 181.473 250.544C180.89 250.37 180.762 250.156 180.759 249.352C180.755 248.505 181.058 248.208 181.928 248.208ZM294.454 248.227C294.522 248.231 294.597 248.233 294.681 248.239C295.364 248.282 295.458 248.337 295.737 248.858C296.04 249.423 296.04 249.434 295.741 249.99C295.574 250.298 295.322 250.551 295.181 250.551C295.039 250.551 294.721 250.58 294.473 250.616C293.808 250.713 293.499 250.579 293.24 250.078C292.913 249.445 292.945 249.245 293.47 248.685C293.831 248.299 293.974 248.214 294.454 248.227ZM238.524 249.3C239.308 249.296 240.091 249.722 240.336 250.54C240.613 251.463 240.382 252.102 239.613 252.537C238.901 252.94 238.562 252.966 237.882 252.67C236.919 252.251 236.417 251.152 236.811 250.324C237.138 249.636 237.831 249.302 238.524 249.3ZM176.787 251.061C176.998 251.061 177.22 251.124 177.432 251.263C178.435 251.92 178.667 252.682 178.087 253.419C177.818 253.76 177.636 253.83 177.02 253.83C176.058 253.83 175.597 253.392 175.597 252.477C175.597 251.638 176.151 251.062 176.787 251.061ZM299.869 251.09C300.135 251.098 300.368 251.21 300.589 251.431C300.915 251.756 300.908 253.257 300.579 253.585C300.323 253.84 299.024 253.927 298.697 253.711C298.601 253.648 298.434 253.346 298.325 253.041C298.065 252.316 298.391 251.639 299.18 251.265C299.437 251.144 299.663 251.085 299.869 251.09ZM195.612 251.565C195.713 251.569 195.777 251.573 195.793 251.584C195.859 251.624 195.782 252.023 195.624 252.47C195.466 252.918 195.229 253.705 195.097 254.22C194.965 254.736 194.776 255.474 194.677 255.86C194.151 257.908 194.1 264.7 194.603 265.663C194.725 265.897 194.828 266.299 194.831 266.557C194.835 266.814 194.94 267.162 195.066 267.328C195.192 267.495 195.298 267.776 195.301 267.953C195.305 268.13 195.409 268.411 195.535 268.578C195.662 268.744 195.765 269.002 195.765 269.15C195.765 269.299 195.882 269.654 196.026 269.94C196.17 270.227 196.381 270.647 196.495 270.875C196.609 271.103 196.703 271.402 196.703 271.539C196.703 271.974 196.386 271.807 196.288 271.319C196.237 271.062 196.138 270.851 196.068 270.851C195.999 270.851 195.897 270.693 195.843 270.499C195.788 270.306 195.65 269.937 195.537 269.68C194.971 268.397 194.826 268.008 194.822 267.762C194.818 267.614 194.713 267.357 194.587 267.19C194.461 267.024 194.358 266.698 194.358 266.468C194.358 266.237 194.242 265.776 194.1 265.444C193.731 264.58 193.719 257.727 194.084 256.01C194.344 254.782 194.648 253.273 194.785 252.525C194.895 251.928 194.667 251.81 193.341 251.78C192.376 251.758 192.45 251.74 193.961 251.633C194.668 251.582 195.308 251.557 195.612 251.565ZM281.382 251.581C281.731 251.577 282.195 251.59 282.689 251.619L284.487 251.722L283.082 251.8C281.864 251.868 281.669 251.918 281.62 252.172C281.589 252.334 281.642 252.615 281.737 252.797C281.981 253.261 282.373 254.686 282.536 255.704C282.612 256.176 282.746 256.844 282.834 257.187C282.922 257.531 282.996 258.749 282.998 259.894C283.002 261.928 282.894 262.669 282.268 264.917C282.04 265.738 281.907 266.125 281.343 267.611C281.204 267.976 280.987 268.555 280.861 268.899C280.735 269.242 280.532 269.722 280.41 269.966C280.288 270.209 280.188 270.527 280.188 270.673C280.188 270.818 280.089 271.078 279.969 271.25C279.848 271.422 279.725 271.731 279.695 271.936C279.665 272.142 279.552 272.339 279.445 272.374C279.177 272.463 279.191 271.625 279.468 270.973C279.589 270.691 279.809 270.144 279.957 269.758C280.106 269.371 280.317 268.844 280.428 268.587C280.649 268.069 281.056 267.009 281.356 266.166C281.463 265.866 281.638 265.374 281.745 265.073C281.852 264.772 281.998 264.21 282.069 263.824C282.14 263.437 282.278 262.902 282.374 262.633C282.755 261.574 282.396 256.688 281.812 254.996C281.693 254.65 281.595 254.251 281.595 254.111C281.595 253.97 281.496 253.656 281.376 253.413C280.868 252.39 280.648 251.747 280.766 251.635C280.8 251.602 281.034 251.584 281.382 251.581ZM286.065 251.958C286.769 251.944 287.868 252.035 288.46 252.202C290.42 252.752 291.072 252.958 291.444 253.143C291.659 253.25 292.151 253.49 292.538 253.676C298.008 256.312 300.981 260.982 300.611 266.358C300.491 268.101 300.297 269.512 300.077 270.237C299.523 272.066 298.862 274.119 298.697 274.52C298.592 274.778 298.355 275.375 298.171 275.848C297.988 276.32 297.778 276.847 297.706 277.019C297.634 277.191 297.351 277.893 297.077 278.58C296.802 279.267 296.48 280.04 296.361 280.298C296.242 280.556 296.1 280.96 296.044 281.196C295.953 281.588 295.179 282.406 294.901 282.406C294.718 282.406 294.258 283.47 294.258 283.893C294.258 284.103 294.343 284.592 294.446 284.979C294.662 285.782 294.463 286.592 293.9 287.208C293.723 287.401 293.458 287.559 293.311 287.559C292.651 287.559 292.203 285.698 292.653 284.827C292.787 284.569 292.969 284.218 293.058 284.046C294.227 281.79 297.45 275.234 297.741 274.52C298.583 272.455 299.194 270.566 299.643 268.633C299.987 267.154 299.977 263.443 299.627 262.361C298.522 258.951 295.995 256.095 292.582 254.396C290.812 253.514 289.767 253.109 288.699 252.888C288.35 252.816 287.893 252.687 287.683 252.6C287.473 252.514 286.898 252.399 286.405 252.345C285.911 252.291 285.468 252.181 285.418 252.101C285.363 252.011 285.643 251.966 286.065 251.958ZM190.374 251.958C190.78 251.966 191.074 252.01 191.074 252.096C191.074 252.174 190.705 252.282 190.254 252.335C189.483 252.427 188.812 252.592 186.932 253.155C183.662 254.133 180.193 256.555 178.573 258.992C177.914 259.983 177.004 261.83 177.004 262.176C177.004 262.3 176.898 262.807 176.769 263.301C176.346 264.924 176.51 267.094 177.274 269.991C177.561 271.077 178.013 272.501 178.274 273.139C179.139 275.255 179.053 275.071 181.264 279.516C183.244 283.497 183.335 283.679 183.782 284.537C184.152 285.246 184.134 286.955 183.754 287.3C183.336 287.677 183.024 287.619 182.568 287.078C182.182 286.62 182.163 286.51 182.163 284.746V282.894L181.484 282.338C181.097 282.021 180.685 281.497 180.527 281.118C180.067 280.014 180.005 279.862 179.652 278.97C179.465 278.497 179.222 277.9 179.112 277.642C178.591 276.419 177.473 273.498 177.473 273.359C177.473 273.273 177.373 272.972 177.252 272.69C177.02 272.155 176.765 271.251 176.295 269.306C175.905 267.689 175.906 263.668 176.295 262.339C176.638 261.175 177.62 259.085 178.167 258.357C179.078 257.143 181.326 255.094 182.162 254.713C182.291 254.655 182.643 254.46 182.944 254.281C183.864 253.732 184.447 253.45 186.271 252.675C186.597 252.537 187.027 252.423 187.229 252.423C187.43 252.423 187.894 252.318 188.259 252.189C188.71 252.03 189.696 251.944 190.373 251.958H190.374ZM279.161 253.516C279.878 253.516 280.205 253.756 280.482 254.482C280.682 255.009 280.552 255.845 280.195 256.318C279.988 256.592 279.733 256.695 279.155 256.737C277.848 256.833 277.374 256.434 277.374 255.242C277.374 254.715 277.471 254.509 277.934 254.06C278.396 253.612 278.612 253.516 279.161 253.516ZM197.276 253.516C197.97 253.526 198.83 253.957 199.063 254.569C199.266 255.102 199.112 256.235 198.801 256.493C198.502 256.74 197.197 256.836 196.747 256.644C196.197 256.409 195.884 255.484 196.091 254.705C196.186 254.351 196.373 253.939 196.507 253.788C196.679 253.595 196.961 253.512 197.276 253.516ZM238.438 253.995C239.024 253.999 239.613 254.231 240.022 254.709C240.158 254.868 240.357 255.385 240.464 255.857C240.707 256.932 240.439 257.693 239.643 258.184C238.393 258.956 236.992 258.426 236.505 256.999C236.183 256.055 236.191 255.816 236.572 255.071C236.934 254.363 237.684 253.991 238.438 253.995ZM215.385 254.773C216.029 254.777 216.868 255.767 216.869 256.527C216.869 257.174 216.301 258.17 215.731 258.518C214.965 258.984 214.473 258.911 213.75 258.224C213.229 257.729 213.118 257.52 213.118 257.032C213.118 256.699 213.265 256.203 213.455 255.896C213.795 255.347 214.787 254.77 215.385 254.773ZM261.404 254.808C261.853 254.808 262.301 255.031 262.737 255.479C263.655 256.424 263.64 257.587 262.7 258.361C261.718 259.17 260.649 258.839 260.016 257.53C259.492 256.446 259.686 255.62 260.6 255.056C260.866 254.892 261.135 254.809 261.404 254.808ZM173.722 256.484C174.034 256.491 174.364 256.641 174.692 256.934C175.108 257.305 175.199 257.502 175.199 258.027C175.199 258.46 175.099 258.762 174.89 258.963C174.268 259.561 173.263 259.497 172.787 258.829C172.348 258.214 172.376 257.41 172.854 256.895C173.114 256.614 173.409 256.478 173.722 256.484ZM303.007 256.5C303.296 256.5 303.449 256.591 303.705 256.846C304.238 257.378 304.261 258.327 303.756 258.878C303.129 259.56 302.051 259.523 301.545 258.801C300.926 257.918 301.536 256.681 302.665 256.529C302.8 256.512 302.911 256.5 303.007 256.5ZM216.332 259.449C217.694 259.449 218.402 260.283 218.849 262.414C219.352 264.811 219.086 266.724 218.106 267.758C217.617 268.274 217.453 268.35 216.838 268.35C216.148 268.35 215.56 268.047 215.028 267.417C214.752 267.091 214.056 265.608 214.056 265.347C214.056 265.229 213.989 265.067 213.908 264.985C213.663 264.741 213.393 262.59 213.509 261.816C213.717 260.434 214.891 259.449 216.332 259.449ZM278.722 259.449C279.325 259.449 279.578 259.533 279.916 259.846C280.425 260.317 280.969 261.33 280.969 261.806C280.969 262.484 280.591 263.38 280.148 263.752C279.601 264.212 278.948 264.238 278.059 263.835C275.63 262.733 276.127 259.449 278.722 259.449ZM259.853 259.454C260.002 259.454 260.184 259.463 260.422 259.478C261.239 259.53 261.518 259.624 261.995 260.009C262.314 260.267 262.622 260.58 262.68 260.705C262.738 260.83 262.867 261.09 262.966 261.282C263.197 261.728 263.199 263.398 262.97 264.122C262.162 266.671 261.463 267.853 260.563 268.195C259.567 268.574 258.779 268.284 258.073 267.281C257.597 266.605 257.597 266.603 257.607 264.471C257.619 261.925 257.93 260.804 258.862 259.939C259.268 259.563 259.408 259.458 259.853 259.454ZM197.764 259.597C198.827 259.576 199.837 260.498 199.818 261.737C199.803 262.726 199.422 263.349 198.568 263.781C197.54 264.3 196.876 264.249 196.25 263.603C195.794 263.133 195.734 262.97 195.718 262.159C195.698 261.134 196.118 260.302 196.881 259.851C197.165 259.684 197.467 259.603 197.764 259.597ZM254.95 260.031C255.174 260.035 255.386 260.077 255.575 260.167C256.437 260.576 256.737 261.072 256.735 262.086C256.731 263.143 256.513 263.618 255.812 264.09C254.377 265.056 252.203 263.953 252.203 262.259C252.203 261.143 253.743 260.013 254.95 260.031ZM220.953 260.337C221.025 260.337 221.105 260.337 221.194 260.337C222.106 260.35 222.875 260.695 223.476 261.358C223.818 261.736 223.906 261.985 223.906 262.574C223.906 263.231 223.834 263.387 223.279 263.942C222.615 264.604 222.091 264.761 221.092 264.594C220.286 264.46 219.889 264.147 219.615 263.432C219.209 262.37 219.292 261.622 219.894 260.928C220.313 260.443 220.446 260.346 220.953 260.337ZM259.813 260.649C259.67 260.649 259.543 260.736 259.329 260.934C258.921 261.313 258.848 261.565 259.021 262.013C259.073 262.148 259.283 262.26 259.488 262.26C260.387 262.26 260.87 261.078 260.111 260.732C259.991 260.678 259.899 260.648 259.813 260.649ZM238.179 260.81C238.665 260.806 239.121 260.861 239.342 260.983C239.535 261.089 239.842 261.504 240.025 261.906C240.318 262.547 240.35 262.844 240.289 264.318C240.243 265.435 240.277 266.019 240.388 266.057C240.48 266.089 240.859 265.868 241.229 265.567C241.774 265.122 242.035 265.018 242.598 265.018C243.598 265.018 244.073 265.495 244.073 266.499C244.073 267.331 243.849 267.782 242.901 268.857C241.881 270.013 241.752 270.185 241.25 271.075C240.666 272.109 240.655 272.926 241.226 273.007C241.739 273.079 242.763 272.538 243.841 271.624C245.03 270.616 245.687 270.302 246.602 270.302C248.182 270.302 248.592 271.649 247.486 273.208C247.185 273.631 247.441 273.925 248.21 274.04C249.621 274.251 250.64 274.891 250.64 275.564C250.64 275.727 250.542 276.05 250.421 276.282C250.03 277.038 249.631 277.273 248.58 277.362C248.03 277.409 247.47 277.553 247.318 277.685C247.058 277.911 247.063 277.949 247.405 278.407C248.258 279.549 248.531 280.74 248.049 281.221C247.887 281.384 247.518 281.467 246.959 281.467C246.011 281.467 245.482 281.235 243.526 279.96C241.686 278.761 241.662 278.741 241.775 278.449C241.935 278.032 242.928 278.124 243.995 278.656C244.961 279.137 245.545 279.243 245.716 278.967C245.769 278.881 245.686 278.768 245.53 278.716C245.374 278.664 244.613 278.322 243.839 277.955C243.065 277.588 242.305 277.245 242.149 277.192C241.683 277.035 242.014 276.782 242.686 276.782C243.031 276.782 243.453 276.707 243.624 276.616C243.795 276.524 244.891 276.39 246.058 276.317C248.076 276.192 248.439 276.092 248.449 275.659C248.454 275.418 248.048 275.384 244.971 275.37C243.204 275.362 241.719 275.315 241.668 275.265C241.547 275.144 242.315 274.44 242.568 274.44C242.821 274.44 244.543 272.846 244.543 272.612C244.543 272.515 244.631 272.4 244.738 272.357C244.87 272.304 244.855 272.274 244.695 272.266C244.563 272.259 244.278 272.447 244.06 272.683C243.481 273.31 242.662 273.971 242.455 273.976C242.356 273.98 242.139 274.084 241.972 274.21C241.505 274.563 241.135 274.485 240.872 273.978C240.741 273.724 240.352 273.291 240.009 273.015C239.426 272.547 239.383 272.459 239.383 271.711C239.383 271.246 239.48 270.78 239.613 270.605C239.739 270.438 239.845 270.172 239.848 270.013C239.857 269.48 240.396 268.649 241.377 267.659C241.742 267.29 242.041 266.897 242.041 266.786C242.041 266.311 239.449 269.303 239.36 269.881C239.274 270.436 239.063 270.358 238.808 269.677C238.654 269.266 238.535 268.101 238.46 266.269C238.374 264.158 238.294 263.452 238.13 263.351C237.843 263.174 237.607 263.33 237.803 263.567C238.025 263.833 238.105 270.224 237.886 270.224C237.794 270.224 237.548 270.04 237.339 269.816C237.131 269.593 236.819 269.347 236.647 269.27C236.476 269.194 236.229 269.069 236.1 268.993C235.559 268.673 235.001 268.459 234.919 268.54C234.872 268.588 235.17 268.895 235.584 269.222C236.564 269.999 237.506 271.021 237.512 271.316C237.516 271.445 237.621 271.687 237.747 271.854C238.086 272.302 238.029 272.613 237.52 273.1C237.269 273.341 237.025 273.687 236.979 273.871C236.822 274.486 236.465 274.565 234.771 274.354C233.912 274.248 232.891 274.08 232.504 273.983C231.761 273.796 229.823 272.931 229.69 272.728C229.572 272.546 228.909 272.37 228.909 272.521C228.909 272.829 229.47 273.408 230.217 273.873C231.223 274.498 232.35 274.84 234.136 275.065C235.679 275.259 236.287 275.475 235.926 275.703C235.807 275.779 234.263 275.841 232.495 275.843C230.062 275.843 229.212 275.896 228.995 276.054C228.417 276.476 228.785 276.643 230.397 276.692C231.255 276.717 232.52 276.85 233.208 276.986C233.896 277.122 234.775 277.296 235.162 277.372L235.866 277.51L235.246 277.638C234.441 277.805 233.286 278.316 233.286 278.507C233.286 278.589 233.194 278.656 233.082 278.656C232.97 278.656 232.65 278.844 232.372 279.074C231.841 279.514 231.408 279.787 230.824 280.051C230.63 280.138 230.472 280.282 230.472 280.37C230.472 280.684 231.037 280.521 231.541 280.061C231.824 279.804 232.116 279.593 232.19 279.593C232.265 279.593 232.419 279.505 232.533 279.397C233.095 278.864 235.387 278.104 235.871 278.289C236.34 278.469 236.125 278.929 235.519 279.042C234.812 279.175 234.268 279.443 233.084 280.242C232.586 280.578 231.768 281.062 231.267 281.316C230.766 281.571 230.258 281.779 230.139 281.779C229.74 281.779 229.065 281.008 229.065 280.551C229.065 279.949 228.607 278.617 228.321 278.389C228.191 278.285 227.773 278.153 227.391 278.096C227.007 278.039 226.494 277.821 226.24 277.608C225.868 277.295 225.782 277.1 225.783 276.573C225.783 275.603 226.518 274.63 227.38 274.453C228.026 274.321 228.318 273.85 227.906 273.604C227.159 273.156 226.993 272.866 227.074 272.148C227.168 271.317 227.592 270.815 228.436 270.537C229.253 270.268 229.76 270.514 231.15 271.856C232.315 272.98 233.183 273.503 233.882 273.503C234.527 273.503 235.577 272.698 235.708 272.105C235.869 271.373 235.322 270.412 234.37 269.755C232.458 268.434 232.072 268.109 231.751 267.552C231.18 266.561 231.332 265.842 232.212 265.372C232.55 265.191 233.331 265.38 234.114 265.831C234.498 266.052 234.567 266.055 234.696 265.85C234.776 265.722 234.8 265.158 234.748 264.597C234.609 263.085 235.188 261.99 236.596 261.099C236.882 260.918 237.555 260.816 238.179 260.81ZM215.383 261.01C214.928 261.01 214.508 261.887 214.728 262.377C214.933 262.834 215.527 262.836 215.845 262.381C216.307 261.723 216.066 261.01 215.383 261.01ZM171.75 261.947C172.374 261.947 173.322 262.722 173.483 263.363C173.622 263.914 173.168 264.895 172.69 265.076C172.202 265.261 171.589 265.251 171.033 265.048C170.493 264.851 170.224 264.076 170.366 263.131C170.489 262.313 170.917 261.947 171.75 261.947ZM305.005 261.947C305.594 261.947 305.713 262.009 305.985 262.455C306.41 263.15 306.39 264.093 305.938 264.656C305.664 264.999 305.422 265.115 304.884 265.162C303.633 265.272 303.169 264.852 303.169 263.609C303.169 262.989 303.237 262.851 303.752 262.427C304.202 262.057 304.488 261.947 305.005 261.947ZM211.338 262.155C211.86 262.168 212.349 262.42 212.666 262.962C213.196 263.871 212.896 265.023 211.962 265.662C211.194 266.187 210.371 266.078 209.429 265.326C208.921 264.92 208.879 264.827 208.973 264.327C209.227 262.974 210.341 262.129 211.338 262.155ZM265.492 262.26C266.533 262.26 267.611 263.193 267.896 264.342C268.044 264.94 267.906 265.302 267.403 265.631C265.795 266.683 263.928 265.746 263.928 263.886C263.928 263.19 264.823 262.26 265.492 262.26ZM186.609 265.728C187.176 265.74 187.708 266.064 187.931 266.739C188.104 267.263 188.089 267.424 187.813 268.067C187.64 268.469 187.336 268.9 187.137 269.024C185.69 269.927 184.353 268.847 184.827 267.157C185.091 266.216 185.879 265.713 186.609 265.728ZM290.009 265.763C290.195 265.768 290.392 265.798 290.592 265.854C291.201 266.024 291.343 266.146 291.606 266.724C291.775 267.094 291.913 267.585 291.913 267.816C291.913 268.296 291.353 269.286 291.08 269.29C290.979 269.29 290.756 269.325 290.584 269.365C290.128 269.473 289.385 269.088 288.982 268.534C288.605 268.016 288.499 266.857 288.78 266.332C288.984 265.951 289.45 265.747 290.009 265.763ZM199.86 267.765C199.977 267.761 200.095 267.77 200.213 267.794C200.704 267.891 201.393 268.442 201.393 268.737C201.393 269.028 201.98 270.153 202.249 270.376C202.455 270.547 202.605 270.547 203.125 270.376C203.471 270.262 203.803 270.082 203.863 269.976C203.923 269.869 204.221 269.736 204.524 269.68C204.955 269.6 205.168 269.65 205.501 269.912C206.093 270.377 206.051 270.915 205.301 272.507C204.957 273.237 204.676 274.047 204.676 274.308C204.676 274.855 205.211 275.689 205.561 275.689C205.988 275.689 206.704 275.057 207.258 274.19C208.176 272.758 209.337 272.317 209.995 273.152C210.253 273.478 210.315 273.721 210.256 274.167C210.212 274.497 210.25 274.797 210.343 274.854C210.434 274.911 210.98 274.941 211.555 274.923C212.519 274.891 212.621 274.919 212.86 275.284C213.002 275.501 213.118 275.983 213.118 276.356C213.118 276.968 213.049 277.092 212.403 277.642C211.384 278.51 211.332 278.663 211.785 279.46C212.149 280.099 212.155 280.155 211.913 280.524C211.566 281.053 211.064 281.455 210.743 281.461C210.598 281.465 210.435 281.537 210.382 281.623C210.222 281.883 209.019 281.792 208.3 281.466C207.761 281.222 207.634 281.09 207.674 280.816C207.749 280.303 208.424 280.186 209.353 280.525C209.905 280.726 210.17 280.758 210.291 280.636C210.594 280.334 210.471 280.144 209.794 279.866C208.958 279.523 208.33 279.517 208.143 279.851C207.96 280.176 207.561 280.036 207.449 279.608C207.378 279.336 207.572 279.159 208.639 278.521C209.34 278.101 210.371 277.509 210.93 277.204C211.567 276.857 211.963 276.537 211.993 276.346C212.046 276.006 211.616 275.762 211.34 275.976C211.243 276.051 210.953 276.188 210.695 276.28C210.437 276.372 209.839 276.594 209.366 276.773C208.474 277.112 206.863 277.429 206.867 277.266C206.872 277.08 207.105 276.835 207.372 276.737C207.933 276.53 208.616 275.033 208.295 274.713C208.065 274.483 207.49 274.995 207.49 275.43C207.49 275.605 207.332 275.98 207.138 276.264C206.838 276.704 206.694 276.78 206.157 276.781C205.811 276.781 205.385 276.683 205.212 276.561C205.038 276.44 204.689 276.317 204.436 276.288C204.014 276.24 203.953 276.153 203.707 275.238C203.522 274.553 203.485 274.152 203.588 273.96C203.67 273.806 203.738 273.473 203.738 273.22C203.738 272.967 203.843 272.674 203.971 272.568C204.099 272.461 204.163 272.309 204.113 272.229C203.967 271.992 203.318 272.757 203.198 273.308C203.024 274.108 202.71 273.951 202.182 272.8C201.984 272.371 201.726 271.833 201.608 271.605C201.49 271.377 201.393 271.081 201.393 270.947C201.393 270.813 201.243 270.623 201.06 270.525C200.74 270.354 200.731 270.371 200.83 270.949C200.927 271.512 201.135 272.107 201.649 273.292C201.766 273.563 201.862 273.838 201.862 273.905C201.862 273.971 201.974 274.149 202.112 274.301C202.429 274.65 202.255 275.013 201.908 274.726C201.591 274.462 200.659 274.114 200.005 274.014C199.604 273.952 199.495 273.984 199.549 274.147C199.587 274.265 199.842 274.384 200.115 274.411C200.388 274.438 200.611 274.521 200.611 274.595C200.611 274.67 200.769 274.781 200.963 274.842C201.525 275.02 202.8 276.449 202.8 276.901C202.8 277.118 202.647 277.601 202.46 277.975C202.122 278.651 202.113 278.656 201.29 278.656C200.834 278.656 200.174 278.541 199.822 278.401C199.084 278.106 198.681 278.288 198.99 278.778C199.218 279.139 200.685 279.46 201.205 279.263C201.443 279.173 201.657 279.17 201.742 279.255C201.932 279.445 201.071 279.958 199.986 280.301C198.585 280.744 198.11 280.979 198.11 281.23C198.11 281.602 199.272 281.521 200.533 281.061C202.177 280.462 202.13 280.468 202.33 280.84C202.491 281.14 202.443 281.239 201.913 281.707C201.476 282.092 201.389 282.237 201.588 282.241C201.739 282.245 201.862 282.173 201.862 282.081C201.862 281.99 202.055 281.937 202.291 281.964C202.894 282.034 202.912 282.451 202.343 283.17C202.078 283.503 201.862 283.837 201.862 283.911C201.862 283.986 201.683 284.239 201.465 284.474C201.246 284.71 200.981 284.902 200.874 284.902C200.581 284.902 199.986 284.443 199.986 284.217C199.986 283.966 198.903 282.872 198.654 282.872C198.553 282.872 198.177 282.661 197.82 282.403C197.25 281.99 197.172 281.86 197.172 281.321C197.172 280.984 197.26 280.612 197.367 280.495C197.475 280.378 197.676 280.067 197.815 279.806C198.034 279.392 198.038 279.277 197.849 278.915C197.729 278.687 197.579 278.5 197.515 278.5C197.451 278.5 197.264 278.249 197.098 277.942C196.397 276.64 198.006 276.178 199.239 277.327C199.854 277.9 200.868 278.011 201.432 277.567C202.407 276.799 201.638 275.642 199.83 275.156C198.427 274.778 197.811 274.452 197.551 273.948C197.261 273.389 197.268 273.314 197.647 272.908C197.85 272.69 198.152 272.566 198.48 272.566C198.822 272.566 199.113 272.439 199.352 272.184C199.661 271.857 199.696 271.703 199.605 271.095C199.547 270.706 199.437 270.349 199.361 270.302C199.285 270.255 199.066 269.903 198.874 269.52C198.583 268.938 198.556 268.759 198.707 268.428C198.885 268.038 199.354 267.78 199.86 267.765ZM276.576 267.814C276.997 267.808 277.438 267.897 277.584 268.018C277.992 268.356 277.904 269.231 277.374 270.092C277.1 270.535 276.905 271.069 276.905 271.37C276.905 272.022 277.448 272.566 278.099 272.566C278.401 272.566 278.704 272.708 278.942 272.962C279.311 273.354 279.312 273.363 279.032 273.883C278.705 274.49 278.186 274.776 276.699 275.171C275.62 275.458 274.831 276.018 274.635 276.635C274.499 277.062 275.018 277.692 275.601 277.807C276.226 277.931 276.662 277.794 277.461 277.225C278.565 276.437 279.721 276.516 279.718 277.379C279.718 277.664 279.331 278.295 278.898 278.721C278.568 279.046 278.554 279.384 278.852 279.905C279.52 281.077 279.568 281.29 279.274 281.815C279.122 282.087 278.72 282.457 278.381 282.638C277.395 283.162 276.905 283.519 276.905 283.714C276.905 283.814 276.697 284.122 276.444 284.399C276.191 284.676 275.927 284.898 275.858 284.892C275.412 284.857 275.025 284.524 274.734 283.925C274.551 283.546 274.225 283.072 274.011 282.871C273.797 282.67 273.621 282.414 273.621 282.301C273.621 281.968 274.327 281.888 274.855 282.161C275.128 282.302 275.341 282.341 275.341 282.251C275.341 282.163 275.288 282.088 275.224 282.085C275.159 282.081 274.871 281.877 274.583 281.631C274.184 281.29 274.085 281.106 274.164 280.857C274.285 280.477 274.623 280.442 275.213 280.75C275.444 280.87 275.866 281.019 276.151 281.08C276.437 281.141 276.74 281.243 276.826 281.307C277.141 281.541 278.132 281.604 278.301 281.401C278.539 281.115 278.02 280.692 277.207 280.51C276.68 280.392 274.982 279.698 274.739 279.502C274.709 279.478 274.729 279.385 274.784 279.297C274.849 279.191 275.017 279.187 275.272 279.284C276.103 279.599 278.072 278.84 277.754 278.327C277.622 278.114 277.019 278.17 276.679 278.427C276.224 278.771 274.678 278.733 274.349 278.37C274.207 278.213 274.09 277.99 274.09 277.875C274.09 277.76 273.971 277.533 273.825 277.372C273.574 277.095 273.575 277.048 273.839 276.558C274.182 275.922 275.229 274.908 275.543 274.908C275.669 274.908 275.856 274.807 275.959 274.683C276.062 274.559 276.329 274.436 276.552 274.41C276.776 274.383 276.987 274.274 277.023 274.166C277.128 273.847 276.395 273.937 275.434 274.361C274.948 274.576 274.489 274.752 274.413 274.752C274.337 274.752 274.442 274.407 274.645 273.985C274.849 273.564 275.061 273.036 275.117 272.813C275.173 272.589 275.282 272.368 275.358 272.321C275.435 272.273 275.497 272.095 275.497 271.924C275.497 271.753 275.608 271.4 275.743 271.139C275.879 270.877 275.946 270.55 275.892 270.411C275.812 270.203 275.729 270.24 275.418 270.621C275.21 270.874 275.037 271.178 275.034 271.294C275.026 271.604 274.347 273.034 274.209 273.034C274.144 273.034 274.089 273.157 274.088 273.307C274.088 273.458 274.02 273.684 273.941 273.81C273.822 273.997 273.764 273.968 273.624 273.654C273.31 272.95 273.022 272.514 272.783 272.381C272.587 272.271 272.569 272.323 272.676 272.698C272.747 272.945 272.891 273.306 272.996 273.502C273.192 273.869 273.101 274.983 272.848 275.291C272.774 275.381 272.689 275.629 272.659 275.843C272.616 276.158 272.493 276.249 272.011 276.327C271.684 276.38 271.336 276.504 271.237 276.602C271.138 276.701 270.753 276.782 270.38 276.782C269.923 276.782 269.674 276.858 269.613 277.016C269.563 277.146 269.331 277.25 269.091 277.25C268.675 277.25 266.995 276.778 266.352 276.48C264.903 275.808 264.84 275.791 264.696 276.015C264.438 276.415 264.622 276.652 265.588 277.164C267.42 278.138 269.244 279.303 269.244 279.501C269.244 279.611 269.104 279.827 268.932 279.982C268.7 280.192 268.663 280.317 268.788 280.468C269.454 281.269 267.291 282.139 266.018 281.583C264.662 280.991 264.255 280.229 264.859 279.413C265.289 278.832 265.204 278.589 264.239 277.654C263.291 276.735 263.17 276.356 263.575 275.574L263.879 274.986L266.352 274.83L266.309 274.283C266.25 273.532 266.761 272.722 267.295 272.722C267.991 272.722 268.563 273.149 269.391 274.286C270.306 275.543 270.778 275.818 271.362 275.435C271.973 275.036 271.939 273.757 271.286 272.525C270.48 271.006 270.524 269.876 271.396 269.685C271.849 269.586 272.135 269.674 273.152 270.224C273.453 270.387 273.791 270.524 273.903 270.528C274.223 270.54 274.857 269.763 275.031 269.146C275.302 268.187 275.719 267.827 276.576 267.814ZM304.72 268.05C305.348 268.035 305.926 268.399 306.047 269.152C306.223 270.254 306.026 270.821 305.346 271.168C304.277 271.712 303.41 271.425 303.067 270.411C302.887 269.88 302.891 269.711 303.096 269.223C303.415 268.459 304.093 268.065 304.72 268.05ZM171.871 268.054C172.44 268.085 173.03 268.443 173.414 269.064C173.726 269.568 173.743 269.692 173.577 270.246C173.453 270.661 173.226 270.966 172.892 271.169C172.313 271.522 171.962 271.535 171.265 271.23C170.589 270.935 170.389 270.5 170.472 269.508C170.524 268.873 170.629 268.606 170.919 268.365C171.196 268.134 171.53 268.035 171.871 268.054ZM218.628 268.82C219.247 268.82 219.397 268.885 219.674 269.274C220.053 269.806 220.082 270.298 219.776 271.029C219.528 271.622 219.19 271.95 218.544 272.225C218.303 272.328 218.057 272.404 217.997 272.395C217.546 272.327 217.047 271.988 216.823 271.599C216.074 270.296 217.033 268.82 218.628 268.82ZM257.737 268.843C257.851 268.84 257.974 268.843 258.11 268.856C258.785 268.912 259.034 269.02 259.478 269.449C259.922 269.88 260.02 270.09 260.02 270.612C260.02 271.397 259.7 271.877 258.974 272.18C258.668 272.307 258.409 272.408 258.398 272.404C257.222 271.963 256.677 271.275 256.677 270.232C256.677 269.245 256.945 268.863 257.737 268.843ZM187.977 269.757C188.542 269.757 188.714 269.848 189.291 270.45C190.3 271.502 190.912 273.012 190.916 274.462C190.92 275.577 190.611 276.311 189.921 276.837C189.376 277.252 189.164 277.306 188.736 277.138C187.62 276.699 186.317 273.841 186.31 271.813C186.306 270.715 186.327 270.65 186.817 270.213C187.207 269.864 187.48 269.757 187.977 269.757ZM288.643 269.757C289.19 269.757 289.383 269.848 289.823 270.315C290.295 270.814 290.349 270.965 290.347 271.759C290.344 272.548 290.142 273.42 289.739 274.364C289.666 274.535 289.479 274.978 289.325 275.347C289.005 276.114 288.639 276.575 288.035 276.973C287.474 277.343 287.377 277.33 286.624 276.785C285.876 276.244 285.737 275.864 285.739 274.364C285.743 272.837 286.274 271.474 287.249 270.499C287.897 269.85 288.072 269.757 288.643 269.757ZM192.784 270.202C192.992 270.211 193.21 270.269 193.429 270.387C193.796 270.583 194.358 271.64 194.357 272.132C194.357 272.588 193.858 273.347 193.39 273.606C193.191 273.716 192.923 273.805 192.794 273.805C192.353 273.805 191.724 273.352 191.478 272.858C190.824 271.549 191.662 270.154 192.784 270.202ZM283.973 270.231C284.249 270.235 284.513 270.33 284.728 270.544C285.647 271.463 285.472 273 284.379 273.606C283.913 273.865 283.646 273.858 283.121 273.573C282.657 273.321 282.22 272.614 282.22 272.115C282.22 271.067 283.147 270.225 283.973 270.231ZM288.091 270.777C288.022 270.774 287.951 270.795 287.871 270.838C287.197 271.198 286.973 271.85 287.383 272.259C287.779 272.654 287.843 272.649 288.358 272.171C288.869 271.698 288.895 271.427 288.47 271.003C288.321 270.854 288.208 270.782 288.091 270.777ZM187.904 270.874C187.728 270.87 187.524 270.962 187.322 271.162C186.938 271.546 186.91 272.341 187.274 272.544C187.796 272.836 188.417 272.341 188.417 271.632C188.417 271.154 188.199 270.881 187.904 270.874ZM258.311 272.576C258.34 272.572 258.367 272.583 258.389 272.605C258.594 272.809 258.299 273.209 257.786 273.423C257.472 273.554 257.167 273.845 257.016 274.158C256.878 274.443 256.701 274.847 256.623 275.056C256.498 275.388 256.466 275.401 256.374 275.16C256.17 274.629 256.272 274.196 256.734 273.636C256.99 273.326 257.393 273.023 257.631 272.964C257.868 272.904 258.112 272.775 258.173 272.677C258.211 272.616 258.263 272.58 258.311 272.576ZM218.621 272.908C218.689 272.912 218.767 272.919 218.854 272.933C219.636 273.06 220.141 273.69 220.148 274.55C220.155 275.39 219.91 275.55 219.78 274.791C219.664 274.116 219.316 273.663 218.707 273.391C218.146 273.141 218.146 272.891 218.621 272.908ZM217.743 273.09C217.755 273.094 217.765 273.098 217.773 273.105C217.834 273.166 217.761 273.285 217.612 273.368C216.906 273.763 217.574 275.734 218.481 275.935C218.722 275.988 218.892 276.113 218.86 276.213C218.768 276.492 218.237 276.508 217.86 276.243C216.874 275.548 216.563 274.036 217.269 273.367C217.458 273.188 217.655 273.075 217.743 273.09ZM258.851 273.19C258.887 273.194 258.942 273.203 259.014 273.217C259.865 273.38 259.814 275.256 258.937 276.039C258.449 276.474 257.929 276.6 257.757 276.322C257.706 276.24 257.861 276.071 258.1 275.948C258.779 275.597 259.072 275.181 259.177 274.42C259.253 273.865 259.214 273.659 258.993 273.438C258.792 273.237 258.741 273.182 258.851 273.19ZM238.675 273.442C239.987 273.442 241.103 275.956 241.103 278.912C241.103 280.66 240.699 281.502 239.589 282.074C239.401 282.17 239.155 282.247 239.042 282.243C238.611 282.23 238.028 281.783 237.791 281.284C237.255 280.153 237.15 279.587 237.078 277.428C237.008 275.364 237.029 275.13 237.335 274.517C237.761 273.666 238.04 273.442 238.675 273.442ZM184.957 273.505C185.307 273.505 186.192 274.456 186.288 274.936C186.395 275.472 185.957 276.52 185.471 276.889C185.14 277.141 184.349 277.143 184.02 276.893C183.719 276.665 183.101 275.555 183.101 275.243C183.101 274.605 184.276 273.505 184.957 273.505ZM291.766 273.53C292.033 273.536 292.294 273.708 292.694 274.07C293.242 274.564 293.32 274.719 293.32 275.313C293.32 275.85 293.219 276.108 292.835 276.544C291.996 277.498 290.909 277.155 290.376 275.769C290.132 275.136 290.46 274.206 291.069 273.806C291.349 273.621 291.559 273.525 291.766 273.53ZM238.362 274.334C237.765 274.352 237.232 275.044 237.462 275.642C237.573 275.93 238.287 275.897 238.629 275.589C239.012 275.242 239.006 274.492 238.62 274.369C238.534 274.342 238.447 274.331 238.362 274.334ZM173.535 274.598C174.154 274.598 174.311 274.674 174.839 275.229C175.209 275.617 175.441 276.011 175.441 276.252C175.441 276.834 175.01 277.558 174.563 277.728C173.862 277.994 172.938 277.839 172.529 277.387C172.311 277.146 172.246 276.844 172.263 276.136C172.291 274.931 172.566 274.598 173.535 274.598ZM302.921 274.619C302.986 274.619 303.056 274.624 303.133 274.629C303.74 274.669 303.891 274.747 304.123 275.144C304.722 276.168 304.291 277.583 303.322 277.776C301.93 278.054 301.293 277.618 301.293 276.386C301.293 275.642 301.345 275.522 301.855 275.075C302.278 274.704 302.468 274.61 302.921 274.619ZM268.586 274.669C268.144 274.641 268.267 275.831 268.813 276.407C269.131 276.742 269.713 276.925 269.713 276.691C269.713 276.64 269.581 276.411 269.42 276.183C269.259 275.955 269.078 275.546 269.019 275.275C268.961 275.003 268.808 274.74 268.681 274.691C268.647 274.678 268.615 274.671 268.586 274.669ZM235.706 276.319C235.94 276.314 236.1 276.396 236.1 276.55C236.1 276.799 235.747 276.838 235.252 276.644C234.972 276.535 234.97 276.519 235.225 276.421C235.399 276.354 235.566 276.321 235.706 276.319ZM204.194 277.064C205.395 277.029 206.71 278.868 206.961 281.156C207.065 282.099 206.838 283.191 206.459 283.569C206.326 283.702 206.064 283.81 205.877 283.808C205.319 283.804 204.328 283.149 203.872 282.482C203.416 281.816 202.8 280.178 202.8 279.632C202.8 279.2 203.027 279.069 203.27 279.362C203.533 279.678 203.638 279.659 204.195 279.19C204.757 278.718 204.809 278.3 204.345 277.975C203.943 277.694 203.383 277.893 203.145 278.402C202.996 278.721 202.984 278.722 202.869 278.44C202.788 278.239 202.833 278.083 203.009 277.954C203.152 277.85 203.269 277.687 203.269 277.592C203.269 277.496 203.459 277.319 203.69 277.198C203.854 277.112 204.023 277.069 204.194 277.064ZM272.49 277.07C272.591 277.074 272.683 277.094 272.762 277.13C273.444 277.444 273.697 278.036 273.68 279.282C273.653 281.186 272.816 282.873 271.586 283.5C270.455 284.076 270.024 283.857 269.709 282.545C269.359 281.088 269.99 278.692 270.966 277.772C271.443 277.322 272.052 277.052 272.49 277.07ZM286.121 277.417C286.598 277.424 287.062 277.656 287.379 278.096C287.974 278.92 287.845 280.185 287.133 280.509C286.325 280.876 285.574 280.652 284.973 279.864C284.391 279.103 284.418 278.341 285.046 277.813C285.371 277.54 285.75 277.411 286.121 277.417ZM190.483 277.422C190.847 277.422 191.216 277.548 191.532 277.813C192.211 278.384 192.201 279.17 191.505 279.97C191.11 280.424 190.857 280.568 190.371 280.617C189.641 280.69 189.388 280.604 189.014 280.156C188.668 279.743 188.657 279.092 188.985 278.401C189.286 277.769 189.877 277.421 190.483 277.422ZM257.29 277.696C257.708 277.689 258.158 277.835 258.553 278.136C259.05 278.515 259.093 278.61 259.05 279.252C259.011 279.843 258.915 280.025 258.436 280.411C257.821 280.907 256.894 281.096 256.305 280.846C255.549 280.526 255.505 279.031 256.226 278.175C256.489 277.863 256.873 277.703 257.29 277.696ZM219.219 277.721C219.774 277.721 220.015 277.803 220.253 278.072C220.971 278.886 221.124 279.902 220.62 280.507C219.985 281.268 218.573 281.035 217.726 280.03C217.175 279.375 217.228 278.88 217.917 278.249C218.4 277.808 218.614 277.721 219.219 277.721ZM271.847 277.721C271.289 277.721 270.572 278.839 270.912 279.178C271.051 279.317 271.78 279.307 271.995 279.163C272.642 278.732 272.538 277.721 271.847 277.721ZM207.778 277.877C207.962 277.877 207.939 277.95 207.683 278.189C207.498 278.361 207.263 278.502 207.16 278.502C207.047 278.502 207.084 278.378 207.256 278.189C207.411 278.017 207.646 277.877 207.778 277.877ZM268.802 277.877C268.932 277.877 269.166 278.017 269.322 278.189C269.705 278.611 269.285 278.603 268.865 278.18C268.623 277.936 268.611 277.877 268.802 277.877ZM267.87 279.605C267.587 279.601 267.219 279.689 266.784 279.868C266.17 280.12 265.947 280.466 266.221 280.74C266.36 280.878 266.356 280.879 267.001 280.61C267.31 280.481 267.753 280.375 267.986 280.375C268.528 280.375 268.646 280.251 268.451 279.886C268.352 279.702 268.153 279.608 267.87 279.605ZM284.444 280.909C284.613 280.905 284.783 280.934 284.945 280.996C285.565 281.231 285.421 281.468 284.658 281.468C284.052 281.468 283.913 281.538 283.491 282.054L283.012 282.64L283.007 282.159C283 281.475 283.712 280.918 284.444 280.909ZM192.193 280.914C192.699 280.914 193.149 281.199 193.462 281.737C193.623 282.013 193.732 282.373 193.705 282.537C193.665 282.77 193.558 282.686 193.212 282.151C192.787 281.495 192.74 281.469 191.987 281.469C191.094 281.469 191.005 281.177 191.833 280.962C191.955 280.931 192.076 280.915 192.193 280.914ZM190.927 281.625C191.018 281.625 191.049 281.695 190.996 281.781C190.943 281.867 190.869 281.937 190.831 281.937C190.793 281.937 190.762 281.867 190.762 281.781C190.762 281.695 190.836 281.625 190.927 281.625ZM175.545 281.937C176.418 281.937 177.19 282.288 177.732 282.932C178.075 283.338 178.256 283.42 178.808 283.42C179.209 283.42 179.588 283.317 179.763 283.159C179.922 283.016 180.237 282.852 180.463 282.796C181.04 282.652 181.617 283.44 181.471 284.17C181.168 285.68 181.189 286.377 181.562 287.082C182.019 287.948 182.756 288.411 183.457 288.273C184.119 288.142 184.464 287.639 184.773 286.351C185.059 285.161 185.207 284.904 185.605 284.904C185.93 284.904 186.072 285.206 186.072 285.897C186.072 286.92 186.771 287.349 187.635 286.856C188.446 286.393 189.288 286.657 189.787 287.529C190.049 287.987 189.748 288.452 188.707 289.199C188.282 289.504 187.893 289.861 187.843 289.991C187.734 290.276 188.269 290.887 189.081 291.405C190.12 292.067 189.811 292.536 188.157 292.807C186.743 293.038 186.491 293.043 185.798 292.852C185.519 292.775 185.061 292.656 184.782 292.589C184.203 292.449 183.725 291.714 184.02 291.419C184.257 291.182 186.067 291.256 186.37 291.515C186.745 291.835 187.143 291.938 187.262 291.746C187.393 291.534 186.839 291.091 185.915 290.669C185.41 290.439 184.97 290.362 184.352 290.398C183.67 290.437 183.492 290.398 183.492 290.213C183.492 290.082 183.663 289.956 183.883 289.926C184.544 289.836 186.384 288.276 186.384 287.806C186.384 287.439 186.214 287.501 185.547 288.113C184.978 288.635 184.089 289.124 183.291 289.354C183.023 289.431 182.786 289.334 182.352 288.968C182.033 288.698 181.456 288.25 181.069 287.972C180.409 287.498 180.362 287.417 180.318 286.661C180.289 286.156 180.361 285.682 180.513 285.389C180.805 284.825 180.584 284.608 180.155 285.036C179.558 285.632 179.391 286.681 179.746 287.598C179.823 287.798 179.774 287.87 179.561 287.867C179.228 287.864 177.704 286.436 176.222 284.74C174.414 282.67 174.237 281.937 175.545 281.937ZM300.921 281.942C301.021 281.942 301.123 281.951 301.23 281.963C301.609 282.006 301.692 282.094 301.731 282.496C301.768 282.867 301.615 283.195 301.065 283.925C300.082 285.232 297.393 287.871 297.045 287.871C296.738 287.871 296.661 287.638 296.916 287.48C297.197 287.307 297.089 286.044 296.744 285.459C296.404 284.883 295.896 284.681 296.032 285.177C296.395 286.499 296.225 287.689 295.627 288.008C294.811 288.442 294.527 288.635 294.097 289.046L293.644 289.48L292.739 289.135C292.242 288.945 291.495 288.504 291.08 288.154C290.55 287.708 290.277 287.569 290.161 287.685C290.044 287.801 290.226 288.075 290.773 288.607C291.711 289.519 292.202 289.854 292.706 289.925C292.915 289.955 293.086 290.084 293.086 290.213C293.086 290.399 292.908 290.437 292.226 290.398C291.291 290.344 290.249 290.705 289.607 291.303C288.954 291.911 289.193 292.125 289.959 291.618C290.318 291.381 290.693 291.307 291.561 291.307C292.646 291.307 292.695 291.322 292.695 291.672C292.695 292.231 292.258 292.512 290.974 292.779C290.33 292.914 289.732 293.015 289.646 293.005C287.567 292.761 286.668 292.354 287.005 291.811C287.098 291.662 287.355 291.451 287.578 291.342C288.16 291.056 288.773 290.275 288.683 289.932C288.642 289.773 288.404 289.522 288.155 289.375C287.18 288.8 286.754 288.328 286.754 287.823C286.754 286.876 288.094 286.261 288.874 286.851C289.22 287.113 289.849 287.154 290.191 286.939C290.334 286.848 290.454 286.445 290.504 285.889C290.567 285.176 290.644 284.973 290.869 284.931C291.378 284.834 291.707 285.319 291.811 286.321C291.915 287.316 292.207 287.849 292.858 288.237C293.218 288.452 293.314 288.448 293.889 288.191C294.281 288.016 294.664 287.679 294.894 287.308C295.238 286.752 295.262 286.572 295.223 284.869C295.181 283.076 295.189 283.027 295.544 282.865C295.919 282.695 296.21 282.771 297.072 283.269C297.728 283.646 298.15 283.542 298.976 282.801C299.662 282.185 300.222 281.931 300.921 281.942ZM201.168 282.466C201.117 282.477 201.034 282.539 200.905 282.654C200.52 283.001 200.307 283.49 200.416 283.778C200.536 284.091 200.84 283.907 200.898 283.486C200.927 283.278 201.015 283.041 201.093 282.96C201.172 282.878 201.237 282.709 201.237 282.584C201.237 282.496 201.218 282.456 201.168 282.466ZM275.646 282.561C275.431 282.561 275.463 283.558 275.685 283.779C275.916 284.01 276.073 284.017 276.206 283.803C276.328 283.605 275.858 282.561 275.646 282.561ZM190.293 282.83L190.801 283.365C191.429 284.026 192.262 284.405 192.522 284.146C192.62 284.047 192.77 283.967 192.855 283.967C192.94 283.967 192.859 284.107 192.674 284.279C192.155 284.762 191.355 284.691 190.774 284.111C190.487 283.824 190.293 283.469 190.293 283.23V282.83ZM286.155 282.967C286.165 282.967 286.174 282.971 286.181 282.978C286.406 283.203 286.263 283.618 285.797 284.093C285.415 284.484 285.179 284.591 284.703 284.591C284.369 284.591 284.097 284.539 284.097 284.474C284.097 284.41 284.421 284.224 284.816 284.062C285.235 283.89 285.648 283.581 285.806 283.321C285.937 283.106 286.082 282.961 286.155 282.967ZM237.842 282.976C237.976 282.968 238.151 282.995 238.367 283.058C238.625 283.133 239.095 283.152 239.411 283.1C239.883 283.023 240.015 283.062 240.153 283.32C240.246 283.493 240.321 283.762 240.321 283.918C240.321 284.949 242.566 287.882 243.796 288.458C245.005 289.023 247.063 289.443 248.67 289.453C251.013 289.468 252.243 288.928 253.927 287.146C255.048 285.96 255.68 285.14 256.11 284.318C256.66 283.263 256.7 283.312 257.119 285.557C257.242 286.217 257.527 287.146 257.753 287.621C258.227 288.623 259.271 289.758 260.035 290.104C260.751 290.428 262.247 290.838 262.712 290.838C263.388 290.838 265.3 290.264 266.012 289.847C267.355 289.061 268.402 287.793 269.64 285.454C269.823 285.109 270.096 284.802 270.246 284.773C270.496 284.725 270.508 284.828 270.389 286.022C270.146 288.479 270.228 289.24 270.849 290.291C271.762 291.837 273.163 292.933 274.804 293.387C276.03 293.725 276.501 293.717 277.608 293.336C278.631 292.985 279.3 292.52 280.221 291.522C280.852 290.839 281.314 290.666 281.539 291.03C281.604 291.136 281.641 292.092 281.62 293.154C281.579 295.271 281.772 295.969 282.64 296.836C283.577 297.772 284.053 297.941 285.738 297.937C288.213 297.93 289.996 297.139 292.103 295.114C292.852 294.394 293.53 293.805 293.608 293.805C293.687 293.805 293.84 293.912 293.95 294.044C294.114 294.241 294.073 294.432 293.712 295.144C292.93 296.688 292.493 297.159 291.341 297.699C286.74 299.858 282.756 299.656 281.437 297.196C281.173 296.704 280.96 295.815 280.731 294.249C280.677 293.88 280.516 293.592 280.272 293.433C279.844 293.153 279.5 293.251 277.792 294.141C276.943 294.584 276.791 294.612 275.525 294.556C274.425 294.508 273.992 294.411 273.232 294.044C272.16 293.525 271.02 292.451 270.867 291.817C270.746 291.316 270.106 290.104 269.751 289.706C269.615 289.553 269.295 289.435 269.024 289.439C268.565 289.445 268.2 289.662 266.841 290.738C266.1 291.324 264.355 291.775 262.824 291.775C260.999 291.775 259.1 291.12 257.973 290.104C257.378 289.566 256.737 288.524 256.737 288.094C256.737 287.633 256.109 286.622 255.822 286.622C255.667 286.622 255.316 286.932 255.043 287.312C254.268 288.389 253.208 289.101 251.578 289.638C249.559 290.303 249.166 290.369 247.221 290.367C243.749 290.363 241.752 289.444 240.615 287.326C240.009 286.197 239.318 285.901 238.479 286.411C238.245 286.553 237.597 287.132 237.038 287.699C235.941 288.812 235.431 289.198 234.459 289.654C234.115 289.815 233.716 290.004 233.572 290.074C233.017 290.343 231.133 290.709 230.237 290.722C229.247 290.736 227.377 290.446 226.72 290.177C226.505 290.089 226.118 289.96 225.86 289.891C223.622 289.294 222.326 288.478 221.343 287.051C221.181 286.815 220.957 286.622 220.847 286.622C220.521 286.622 220.067 287.317 219.763 288.283C219.45 289.275 218.473 290.402 217.495 290.898C215.811 291.751 213.063 292.051 211.633 291.536C211.289 291.412 210.915 291.31 210.802 291.309C210.599 291.305 209.431 290.56 209.026 290.173C208.568 289.735 207.945 289.432 207.504 289.432C206.93 289.432 206.451 290.016 205.857 291.435C205.318 292.723 204.733 293.343 203.454 293.981C202.565 294.425 202.21 294.511 201.071 294.558C199.745 294.614 199.719 294.607 198.311 293.897C197.53 293.503 196.79 293.18 196.667 293.18C196.186 293.18 195.765 293.873 195.765 294.666C195.765 296.703 194.735 298.329 193.102 298.87C192.312 299.132 190.422 299.341 190.058 299.207C189.972 299.175 189.48 299.062 188.964 298.957C187.615 298.681 186.359 298.247 185.153 297.64C183.848 296.983 183.774 296.901 182.854 295.068C182.452 294.267 182.444 294.214 182.71 294.019C183.072 293.756 183.161 293.812 184.616 295.231C186.553 297.118 188.423 297.921 190.918 297.934C192.619 297.944 193.137 297.724 194.123 296.573C194.876 295.695 195.035 294.995 194.902 293.147C194.811 291.866 194.835 291.552 195.048 291.226C195.405 290.681 195.649 290.737 196.34 291.521C197.696 293.059 199.619 293.855 201.185 293.527C202.56 293.239 203.605 292.672 204.607 291.672C206.236 290.044 206.49 289.133 206.171 286.058C206.085 285.223 206.095 284.759 206.2 284.694C206.432 284.55 206.532 284.694 207.701 286.851C208.132 287.647 208.5 288.107 209.348 288.911C210.239 289.757 211.211 290.267 212.598 290.617C213.681 290.89 213.76 290.89 214.927 290.617C216.875 290.158 217.944 289.385 218.67 287.907C219.201 286.825 219.678 285.065 219.682 284.172C219.686 283.395 219.935 283.16 220.152 283.731C220.668 285.086 223.394 288.137 224.581 288.687C226.722 289.681 227.616 289.902 229.492 289.902C230.863 289.902 231.206 289.844 232.165 289.455C233.728 288.819 234.766 287.974 235.932 286.388C236.585 285.501 237.507 283.701 237.507 283.315C237.507 283.103 237.618 282.99 237.842 282.976ZM283.783 283.967C283.869 283.967 283.94 284.037 283.94 284.123C283.94 284.209 283.869 284.279 283.783 284.279C283.697 284.279 283.627 284.209 283.627 284.123C283.627 284.037 283.697 283.967 283.783 283.967ZM282.921 286.153C284.034 286.153 284.431 286.57 284.442 287.75C284.451 288.766 284.272 289.143 283.572 289.575C282.736 290.09 281.97 290.011 281.34 289.343C280.752 288.721 280.697 288.347 281.062 287.46C281.45 286.517 281.967 286.153 282.921 286.153ZM193.629 286.159C194.585 286.165 195.151 286.547 195.522 287.436C195.871 288.273 195.823 288.737 195.33 289.289C194.762 289.924 193.725 290.071 193.051 289.614C191.962 288.874 191.674 287.516 192.417 286.633C192.775 286.209 192.916 286.154 193.629 286.159ZM180.364 288.651C180.906 288.651 182.326 290.059 182.773 291.037C183.143 291.848 183.196 292.965 182.884 293.375C182.631 293.708 182.414 293.703 181.659 293.351C180.888 292.991 180.521 292.643 180.137 291.907C179.721 291.109 179.726 291.076 180.347 290.692C180.98 290.302 181.16 289.791 180.802 289.396C180.562 289.131 180.398 289.13 179.701 289.392C179.593 289.432 179.505 289.383 179.505 289.282C179.505 288.966 179.934 288.651 180.364 288.651ZM296.229 288.661C296.451 288.666 296.681 288.751 296.845 288.915C297.509 289.578 296.584 292.269 295.429 293.039C294.484 293.668 293.931 293.732 293.582 293.25C293.272 292.822 293.307 292.379 293.744 291.189C294.011 290.463 294.055 290.439 294.645 290.708C295.001 290.87 295.098 290.84 295.512 290.444C296.048 289.931 296.075 289.798 295.722 289.408C295.513 289.178 295.502 289.082 295.663 288.888C295.794 288.731 296.007 288.656 296.229 288.661ZM239.024 289.699C239.188 289.703 239.356 289.72 239.524 289.756C239.99 289.856 240.432 290.078 240.68 290.338C241.095 290.774 241.566 291.916 241.57 292.497C241.575 293.295 240.9 294.289 240.058 294.722C239.259 295.133 238.018 294.814 237.328 294.022C236.905 293.536 236.536 292.232 236.65 291.626C236.869 290.463 237.872 289.682 239.024 289.699ZM254.415 290.295C255.394 290.305 256.372 291.021 256.793 292.35C257.311 293.987 256.949 295.012 255.61 295.695C254.906 296.054 254.463 296.066 253.845 295.745C252.251 294.917 251.586 293.025 252.389 291.599C252.891 290.707 253.653 290.287 254.415 290.295ZM221.512 290.384C221.879 290.374 222.254 290.475 222.636 290.69C223.557 291.206 223.906 291.854 223.906 293.049C223.906 293.929 223.843 294.157 223.451 294.697C223.2 295.042 222.785 295.475 222.527 295.658C221.464 296.414 219.69 295.794 219.128 294.469C218.915 293.967 218.906 293.758 219.071 293.024C219.32 291.918 219.732 291.235 220.44 290.754C220.788 290.518 221.146 290.395 221.512 290.384ZM238.371 290.717C238.227 290.713 238.106 290.799 237.896 290.995C237.66 291.217 237.507 291.533 237.507 291.802C237.507 292.193 237.563 292.243 238.003 292.243C238.983 292.243 239.485 291.176 238.678 290.808C238.552 290.751 238.457 290.718 238.371 290.717ZM253.863 291.306C253.304 291.306 252.731 292.119 252.928 292.633C253.13 293.16 254.548 292.672 254.548 292.076C254.548 291.697 254.201 291.306 253.863 291.306ZM220.773 291.5C220.679 291.496 220.574 291.56 220.385 291.684C219.831 292.046 219.578 292.628 219.837 292.941C220.118 293.279 220.62 293.237 221.042 292.84C221.486 292.425 221.502 292.067 221.096 291.7C220.95 291.568 220.867 291.502 220.773 291.5ZM268.493 292.244C269.629 292.248 270.807 293.939 270.807 295.568C270.807 296.253 270.721 296.531 270.35 297.043C270.098 297.39 269.665 297.787 269.388 297.925C268.809 298.214 267.902 298.246 267.446 297.995C266.877 297.681 266.251 297.013 266.026 296.479C265.588 295.439 265.822 293.989 266.566 293.129C266.879 292.767 268.021 292.242 268.493 292.244ZM208.778 292.51C208.989 292.515 209.22 292.558 209.483 292.636C210.931 293.065 211.775 294.582 211.394 296.069C211.158 296.987 210.731 297.612 210.054 298.03C208.996 298.683 207.554 298.276 206.841 297.124C206.161 296.025 206.501 294.023 207.532 293.058C207.946 292.672 208.314 292.499 208.778 292.51ZM267.785 293.55C267.276 293.542 266.841 294.065 266.991 294.665C267.115 295.157 267.606 295.178 268.1 294.714C268.547 294.295 268.564 293.87 268.144 293.645C268.024 293.581 267.903 293.551 267.785 293.55ZM208.02 294.117C207.3 294.117 206.737 295.176 207.209 295.647C207.441 295.879 207.532 295.88 208.027 295.655C208.771 295.316 208.765 294.117 208.02 294.117ZM277.705 295.961C278.275 295.947 278.838 296.069 279.17 296.33C279.76 296.793 280.18 297.785 280.184 298.727C280.188 299.368 280.103 299.613 279.724 300.073C279.469 300.382 279.019 300.749 278.723 300.889C278.03 301.218 277.415 301.212 276.789 300.87C275.211 300.012 274.864 297.41 276.192 296.398C276.555 296.122 277.134 295.974 277.705 295.961ZM198.719 295.992C200.455 295.995 201.437 297.717 200.662 299.402C200.322 300.14 199.893 300.551 199.209 300.79C198.54 301.024 198.48 301.021 197.824 300.735C196.797 300.287 196.386 299.654 196.398 298.538C196.413 297.031 197.362 295.99 198.719 295.992ZM238.473 296.461C239.474 296.458 239.852 296.704 239.852 297.356C239.852 297.579 239.966 297.888 240.106 298.042C240.245 298.195 240.318 298.429 240.267 298.561C240.216 298.693 240.12 298.789 240.053 298.773C239.985 298.758 239.579 298.718 239.15 298.685C238.233 298.614 237.888 298.351 237.481 297.409C237.116 296.565 237.221 296.465 238.473 296.461ZM235.733 296.531C236.455 296.537 236.493 296.559 236.543 296.998C236.572 297.252 236.695 297.601 236.817 297.775C237.109 298.191 237.098 298.589 236.791 298.706C235.825 299.077 234.938 298.548 234.685 297.45C234.51 296.693 234.704 296.523 235.733 296.531ZM240.892 296.562C241.664 296.552 243.093 296.677 243.224 296.808C243.282 296.866 243.386 297.218 243.456 297.591C243.526 297.964 243.605 298.371 243.633 298.496C243.671 298.672 243.467 298.734 242.73 298.769C241.791 298.814 241.769 298.806 241.198 298.175C240.508 297.412 240.209 296.82 240.412 296.622C240.451 296.583 240.635 296.565 240.892 296.562ZM233.656 296.693L233.969 297.666C234.141 298.201 234.252 298.666 234.214 298.7C234.079 298.82 232.107 298.911 231.823 298.81C231.562 298.718 231.124 297.836 231.048 297.25C231.016 297.001 231.656 296.824 232.885 296.744L233.656 296.693ZM277.445 296.78C277.213 296.768 276.954 296.818 276.738 296.933C276.361 297.135 276.345 297.64 276.709 297.852C277.477 298.299 278.505 297.615 277.993 296.998C277.883 296.866 277.677 296.792 277.445 296.78ZM244.152 296.86L245.402 296.909C246.09 296.936 246.706 296.99 246.77 297.03C246.835 297.07 246.887 297.312 246.887 297.569C246.887 297.826 246.996 298.245 247.128 298.501C247.261 298.757 247.327 299.035 247.276 299.118C247.224 299.202 247.098 299.26 246.995 299.248C245.354 299.054 244.699 298.881 244.699 298.64C244.699 298.569 244.583 298.396 244.442 298.255C244.301 298.114 244.178 297.742 244.168 297.429L244.152 296.86ZM230.394 297.006L230.495 297.708C230.55 298.095 230.646 298.569 230.708 298.762C230.804 299.059 230.764 299.114 230.451 299.115C230.248 299.115 229.835 299.158 229.534 299.207C229.074 299.283 228.929 299.23 228.623 298.878C228.177 298.364 228.011 297.529 228.307 297.287C228.423 297.192 228.94 297.09 229.456 297.06L230.394 297.006ZM197.919 297.247C197.448 297.262 197.009 297.841 197.237 298.433C197.372 298.786 197.957 298.626 198.321 298.136C198.623 297.732 198.626 297.689 198.378 297.441C198.237 297.301 198.077 297.243 197.919 297.247ZM248.199 297.31C248.419 297.306 248.705 297.321 249.008 297.355C250.01 297.465 250.096 297.504 250.141 297.865C250.167 298.079 250.294 298.484 250.422 298.764C250.551 299.044 250.613 299.343 250.56 299.428C250.451 299.604 250.381 299.602 249.312 299.399C248.883 299.317 248.408 299.138 248.256 299.001C247.918 298.696 247.592 297.567 247.785 297.374C247.824 297.335 247.978 297.313 248.199 297.31ZM226.886 297.438C227.075 297.442 227.222 297.462 227.283 297.506C227.378 297.574 227.503 297.995 227.561 298.442L227.666 299.253L227.076 299.417C226.751 299.507 226.415 299.579 226.329 299.578C226.044 299.573 225.516 299.043 225.253 298.498C225.044 298.063 225.032 297.922 225.192 297.762C225.37 297.585 226.319 297.429 226.886 297.438ZM250.92 297.673L252.07 297.78C253.69 297.931 253.743 297.956 253.843 298.615C253.891 298.932 253.993 299.385 254.069 299.621C254.198 300.018 254.177 300.05 253.792 300.04C253.563 300.034 253.235 299.968 253.063 299.895C252.891 299.821 252.527 299.755 252.255 299.749C251.699 299.737 251.232 299.144 251.031 298.198L250.92 297.673ZM223.849 297.865C224.26 297.865 224.375 297.929 224.375 298.159C224.375 298.321 224.48 298.655 224.608 298.901C224.737 299.147 224.843 299.42 224.843 299.508C224.843 299.595 224.388 299.753 223.832 299.859C222.456 300.12 222.424 300.115 221.976 299.583C221.51 299.029 221.319 298.512 221.511 298.32C221.683 298.148 223.141 297.865 223.849 297.865ZM254.954 298.26C255.103 298.26 255.289 298.271 255.515 298.291C257.025 298.423 257.206 298.526 257.206 299.257C257.206 299.597 257.276 299.919 257.362 299.972C257.448 300.026 257.519 300.205 257.519 300.372C257.519 300.738 257.378 300.735 255.836 300.337C255.254 300.187 255.118 300.064 254.774 299.379C254.334 298.504 254.304 298.263 254.954 298.26ZM220.338 298.396C220.409 298.4 220.461 298.407 220.488 298.424C220.562 298.47 220.623 298.607 220.623 298.729C220.623 298.85 220.763 299.18 220.935 299.461C221.316 300.086 221.319 300.146 220.974 300.279C220.128 300.607 219.392 300.626 218.929 300.333C218.389 299.991 218.03 299.178 218.284 298.872C218.44 298.684 219.844 298.38 220.338 298.396ZM258.706 298.82C259.18 298.82 259.727 298.86 260.02 298.941C260.385 299.043 260.411 299.117 260.411 300.045C260.411 300.592 260.34 301.055 260.254 301.073C259.943 301.139 258.936 300.878 258.678 300.664C258.426 300.456 257.831 299.247 257.831 298.945C257.831 298.863 258.232 298.821 258.706 298.82ZM217.014 298.853C217.168 298.866 217.256 298.973 217.352 299.227C217.442 299.465 217.617 299.867 217.742 300.119C218.02 300.679 217.897 300.827 217 301C215.703 301.25 215.433 301.142 214.726 300.091C214.365 299.554 214.574 299.313 215.571 299.121C216.07 299.024 216.639 298.911 216.834 298.87C216.903 298.855 216.962 298.849 217.014 298.853ZM261.603 299.235C261.71 299.235 261.833 299.239 261.971 299.248C263.424 299.334 263.611 299.45 263.642 300.281C263.656 300.67 263.674 301.11 263.681 301.259C263.695 301.547 263.468 301.613 262.834 301.507C261.944 301.358 261.57 301.097 261.256 300.408C260.829 299.472 260.849 299.235 261.603 299.235ZM213.804 299.504L213.946 300.09C214.024 300.412 214.151 300.675 214.228 300.675C214.306 300.675 214.369 300.851 214.369 301.066C214.369 301.373 214.289 301.456 213.998 301.456C213.793 301.456 213.424 301.495 213.177 301.542C212.649 301.644 212.258 301.402 211.639 300.592C211.253 300.086 211.231 299.996 211.438 299.788C211.593 299.633 212.028 299.546 212.738 299.53L213.804 299.504ZM264.319 299.66L265.335 299.716C265.894 299.746 266.433 299.837 266.532 299.918C266.631 299.998 266.747 300.36 266.79 300.721C266.833 301.082 266.893 301.519 266.923 301.69C266.988 302.065 266.543 302.134 265.539 301.904C264.739 301.721 264.193 300.974 264.27 300.172L264.319 299.66ZM210.048 299.887C210.43 299.9 210.584 300.086 210.773 300.519C210.867 300.734 211.043 301.085 211.165 301.298C211.287 301.512 211.331 301.742 211.264 301.809C211.197 301.876 210.69 301.972 210.137 302.021L209.132 302.111L208.545 301.504C207.653 300.579 207.739 300.332 209.058 300.035C209.508 299.934 209.819 299.879 210.048 299.887ZM267.789 300.136C268.311 300.145 269.999 300.441 270.125 300.567C270.184 300.626 270.23 301.149 270.226 301.729C270.219 302.82 270.067 303.042 269.557 302.708C269.428 302.623 269.126 302.553 268.887 302.552C268.611 302.552 268.283 302.376 267.988 302.075C267.616 301.695 267.524 301.466 267.524 300.914C267.524 300.535 267.578 300.192 267.644 300.151C267.664 300.139 267.714 300.135 267.789 300.136ZM206.666 300.432C206.935 300.409 207.315 300.734 207.415 301.137C207.469 301.355 207.661 301.692 207.841 301.885C208.236 302.308 208.16 302.401 207.209 302.662C205.565 303.113 204.97 303.155 204.659 302.845C204.386 302.572 203.894 301.571 203.894 301.287C203.894 301.122 205.376 300.675 205.924 300.675C206.149 300.675 206.409 300.599 206.502 300.506C206.548 300.461 206.604 300.437 206.666 300.432ZM271.083 300.744C271.282 300.744 271.646 300.809 272.018 300.914C272.513 301.054 273.094 301.218 273.309 301.277C273.68 301.38 273.7 301.444 273.7 302.514C273.7 303.783 273.757 303.743 272.394 303.413C271.265 303.141 270.93 302.775 270.842 301.72C270.799 301.196 270.838 300.831 270.945 300.765C270.968 300.75 271.016 300.744 271.083 300.744ZM287.628 300.869C287.723 300.878 287.839 300.919 288.007 300.988C288.619 301.242 288.78 301.642 288.64 302.563C288.493 303.525 287.977 304.217 287.255 304.417C286.506 304.625 286.401 304.62 286.06 304.371C285.71 304.116 285.557 302.821 285.802 302.188C285.982 301.724 286.285 301.749 286.285 302.228C286.285 302.796 287.529 302.731 287.752 302.151C287.883 301.808 287.589 301.456 287.169 301.456H286.841L287.177 301.12C287.367 300.93 287.469 300.854 287.628 300.869ZM188.842 300.96C189.523 300.927 190.39 301.406 190.717 302.081C191.077 302.823 191.024 303.782 190.599 304.237C190.163 304.705 189.202 304.601 188.556 304.018C188.163 303.662 188.183 303.453 188.651 303.047C189.109 302.649 189.151 302.273 188.769 301.994C188.572 301.85 188.439 301.841 188.293 301.962C188.025 302.185 187.747 301.909 187.883 301.554C187.94 301.408 188.176 301.19 188.41 301.069C188.538 301.003 188.685 300.968 188.842 300.96ZM202.812 301.421C203.139 301.417 203.215 301.602 203.377 302.081C203.508 302.467 203.684 302.868 203.768 302.972C203.998 303.254 203.815 303.431 203.007 303.706C202.604 303.843 202.206 303.955 202.12 303.955C201.883 303.955 200.611 302.575 200.611 302.318C200.611 302.041 200.981 301.833 201.881 301.606C202.33 301.492 202.616 301.423 202.812 301.421ZM274.664 301.668C274.874 301.668 275.121 301.712 275.358 301.811C275.65 301.932 276.151 302.081 276.473 302.141C277.153 302.268 277.496 302.722 277.136 303.02C276.996 303.136 276.905 303.483 276.905 303.896C276.905 304.716 276.918 304.714 275.389 304.169C274.786 303.954 274.712 303.866 274.487 303.092C274.352 302.628 274.201 302.144 274.152 302.015C274.068 301.798 274.314 301.67 274.664 301.668ZM199.66 302.364C199.742 302.36 199.795 302.374 199.806 302.405C199.836 302.492 200.099 302.919 200.392 303.352C200.684 303.786 200.889 304.197 200.847 304.264C200.806 304.332 200.577 304.424 200.34 304.468C200.102 304.513 199.76 304.597 199.58 304.655C198.979 304.846 197.779 303.279 198.207 302.861C198.42 302.653 199.305 302.373 199.66 302.364ZM278.248 302.706C278.37 302.71 278.479 302.753 278.534 302.841C278.58 302.916 278.844 303.023 279.121 303.078C279.398 303.133 279.78 303.28 279.97 303.405C280.317 303.632 280.347 304.089 280.097 305.321C280.024 305.679 279.806 305.784 279.651 305.534C279.604 305.458 279.331 305.351 279.044 305.298C278.757 305.244 278.393 305.105 278.235 304.99C277.864 304.719 277.506 303.355 277.706 302.98C277.802 302.801 278.044 302.7 278.248 302.706ZM197.129 303.235C197.383 303.23 197.474 303.397 197.561 303.789C197.616 304.04 197.762 304.329 197.885 304.431C198.224 304.712 198.156 305.155 197.758 305.262C196.998 305.465 196.577 305.364 196.169 304.88C195.546 304.14 195.627 303.737 196.465 303.418C196.767 303.302 196.977 303.238 197.129 303.235ZM281.227 303.978C281.513 304.003 282.09 304.208 282.686 304.501C283.333 304.819 284.108 305.195 284.409 305.337C284.948 305.591 284.956 305.609 284.956 306.57C284.956 307.361 284.909 307.546 284.705 307.546C284.221 307.546 283.657 306.835 283.544 306.082C283.404 305.154 283.002 305.075 283.002 305.975C283.002 306.693 282.851 306.843 282.439 306.531C282.276 306.408 282.023 306.304 281.877 306.302C281.731 306.298 281.42 306.132 281.185 305.93C280.832 305.626 280.755 305.43 280.746 304.798C280.736 304.098 280.768 304.028 281.123 303.978C281.151 303.974 281.186 303.973 281.227 303.978ZM194.68 304.171C194.767 304.176 194.836 304.21 194.906 304.268C195.034 304.374 195.139 304.549 195.139 304.655C195.139 304.762 195.29 305.04 195.473 305.273C195.757 305.634 195.775 305.729 195.59 305.909C195.063 306.424 194.146 306.236 193.251 305.427C192.873 305.085 193.053 304.836 193.998 304.392C194.339 304.232 194.535 304.163 194.68 304.171ZM192.13 305.321L192.785 305.976C193.316 306.506 193.405 306.673 193.255 306.854C192.951 307.22 192.282 307.112 191.657 306.598C191.337 306.334 191.074 306.052 191.074 305.971C191.074 305.89 191.312 305.71 191.602 305.572L192.13 305.321ZM285.693 306.14C285.755 306.144 285.838 306.176 285.941 306.24C286.105 306.343 286.225 306.654 286.255 307.055C286.321 307.953 285.946 307.913 285.674 306.993C285.503 306.412 285.507 306.134 285.693 306.14ZM190.291 306.537C190.391 306.524 190.7 306.731 191.008 307.021C191.576 307.556 191.591 307.594 191.31 307.799C190.927 308.079 190.884 308.074 190.479 307.696C190.136 307.377 190.016 306.702 190.274 306.543C190.278 306.539 190.284 306.538 190.291 306.537ZM237.892 307.974C238.549 307.982 238.711 308.304 238.806 309.33C238.859 309.891 239.018 310.526 239.16 310.742C239.302 310.958 239.377 311.241 239.327 311.371C239.205 311.69 237.507 311.642 237.507 311.32C237.507 311.261 237.326 311.017 237.104 310.779C236.619 310.256 236.13 308.547 236.392 308.286C236.485 308.192 236.917 308.07 237.352 308.015C237.561 307.988 237.74 307.973 237.892 307.974ZM235.553 308.093L235.592 308.717C235.639 309.451 236.11 310.982 236.289 310.982C236.357 310.982 236.413 311.122 236.413 311.294C236.413 311.573 236.31 311.606 235.436 311.601C234.898 311.597 234.348 311.511 234.214 311.406C233.793 311.079 233.432 310.162 233.353 309.223C233.266 308.174 233.297 308.147 234.656 308.114L235.553 308.093ZM239.461 308.093H242.119L242.164 308.873C242.21 309.67 242.524 310.538 242.936 311.011C243.062 311.156 243.12 311.349 243.063 311.44C243.007 311.532 242.476 311.606 241.883 311.606C240.983 311.606 240.745 311.549 240.428 311.255C239.848 310.715 239.358 309.506 239.414 308.746L239.461 308.093ZM231.97 308.171H232.817V309.489C232.817 310.214 232.887 310.85 232.973 310.903C233.059 310.957 233.13 311.13 233.13 311.288C233.13 311.522 232.984 311.586 232.351 311.63C231.922 311.66 231.463 311.605 231.331 311.508C231.042 311.297 230.628 309.797 230.628 308.961C230.628 308.255 230.771 308.171 231.97 308.171ZM244.362 308.171H245.882L245.899 309.615C245.908 310.41 245.941 311.197 245.972 311.366C246.037 311.726 245.811 311.779 244.937 311.609C244.119 311.45 243.301 310.512 242.942 309.322C242.796 308.836 242.713 308.378 242.758 308.304C242.804 308.231 243.525 308.171 244.362 308.171ZM229.04 308.193C229.105 308.193 229.173 308.197 229.244 308.201L230.078 308.249L230.027 309.442C229.996 310.183 230.041 310.674 230.146 310.739C230.239 310.797 230.316 311.05 230.316 311.303C230.316 311.754 230.301 311.762 229.475 311.762C228.992 311.762 228.566 311.679 228.475 311.567C228.179 311.205 227.865 310.284 227.756 309.466C227.658 308.717 227.679 308.632 228.03 308.403C228.257 308.254 228.582 308.186 229.04 308.193ZM246.497 308.249H248.685L248.731 309.653C248.756 310.425 248.844 311.124 248.926 311.207C249.009 311.289 249.076 311.483 249.076 311.637C249.076 311.792 248.988 311.906 248.881 311.892C248.773 311.878 248.405 311.837 248.062 311.802C247.313 311.726 247.116 311.578 246.713 310.789C246.482 310.337 246.416 309.941 246.45 309.217L246.497 308.249ZM226.81 308.337C227.225 308.364 227.189 308.68 227.189 309.582C227.189 310.464 227.262 310.948 227.437 311.214C227.573 311.422 227.64 311.666 227.584 311.755C227.529 311.845 227.078 311.918 226.583 311.918C225.801 311.918 225.633 311.863 225.294 311.489C224.664 310.794 224.344 310.027 224.401 309.349L224.453 308.731L225.469 308.539C226.149 308.41 226.561 308.321 226.81 308.337ZM250.029 308.401C250.493 308.391 251.084 308.508 251.349 308.702C251.566 308.86 251.569 308.933 251.373 309.31C251.156 309.727 251.187 310.227 251.507 311.501C251.607 311.901 251.585 311.918 250.996 311.918C250.05 311.918 249.445 311.095 249.287 309.59C249.201 308.765 249.225 308.654 249.519 308.497C249.635 308.435 249.819 308.405 250.029 308.401ZM252.553 308.679C252.705 308.684 252.893 308.702 253.123 308.726C254.617 308.88 254.622 308.886 254.649 310.307C254.661 310.978 254.697 311.704 254.727 311.918C254.788 312.347 254.58 312.404 253.41 312.276C252.587 312.186 252.09 311.417 251.986 310.072C251.895 308.898 251.893 308.659 252.553 308.679ZM223.876 308.759L223.869 309.873C223.864 310.694 223.93 311.061 224.118 311.27C224.443 311.628 224.447 312.014 224.127 312.136C223.053 312.548 222.213 311.852 221.927 310.313C221.703 309.106 221.834 308.928 223.023 308.83L223.876 308.759ZM255.666 309.108C256.19 309.108 258.37 309.597 258.566 309.759C258.685 309.857 258.849 309.859 259.018 309.765C259.287 309.614 259.542 309.641 260.45 309.915L260.958 310.069V311.13C260.958 311.884 261.026 312.249 261.192 312.387C261.321 312.494 261.427 312.713 261.427 312.874C261.427 313.194 261.119 313.229 260.203 313.012C259.453 312.835 258.778 311.715 258.772 310.639C258.768 310.152 258.484 309.906 258.285 310.219C258.057 310.58 258.126 311.823 258.396 312.209C258.766 312.736 258.505 312.872 257.354 312.751C256.497 312.662 256.275 312.572 255.859 312.144C255.453 311.727 255.352 311.472 255.263 310.644C255.14 309.493 255.241 309.108 255.666 309.108ZM221.17 309.186L221.118 309.773C221.07 310.327 221.435 311.604 221.766 312.039C221.85 312.149 221.89 312.263 221.856 312.293C221.823 312.323 221.402 312.395 220.922 312.453C219.974 312.568 219.919 312.538 219.47 311.653C219.163 311.05 219.123 309.445 219.411 309.338C219.518 309.298 219.958 309.247 220.388 309.225L221.17 309.186ZM218.509 309.654L218.624 310.789C218.687 311.414 218.814 312.065 218.906 312.237C218.998 312.409 219.031 312.618 218.979 312.702C218.927 312.786 218.484 312.853 217.995 312.85C217.213 312.846 217.067 312.794 216.792 312.425C215.943 311.284 215.701 310.179 216.237 309.893C216.404 309.803 216.984 309.713 217.525 309.692L218.509 309.654ZM214.745 310.073C215.138 310.086 215.286 310.347 215.373 311C215.431 311.435 215.614 312.045 215.781 312.356C215.948 312.667 216.033 312.968 215.969 313.025C215.785 313.19 214.619 313.325 214.439 313.202C214.097 312.969 213.62 311.97 213.522 311.279C213.408 310.487 213.522 310.316 214.265 310.138C214.457 310.092 214.615 310.069 214.745 310.073ZM261.997 310.211C262.246 310.202 262.62 310.257 263.171 310.361C264.493 310.61 264.683 310.717 264.406 311.05C264.26 311.225 264.222 311.617 264.277 312.389C264.352 313.426 264.339 313.479 264.025 313.456C263.178 313.397 262.733 313.277 262.462 313.037C262.069 312.69 261.609 311.595 261.552 310.874C261.516 310.421 261.582 310.226 261.997 310.211ZM212.571 310.492L212.852 311.634C213.006 312.263 213.2 312.801 213.282 312.829C213.636 312.953 213.384 313.322 212.845 313.472C212.522 313.561 212.218 313.635 212.169 313.635C211.99 313.635 211.432 312.921 211.196 312.387C210.624 311.093 210.753 310.748 211.868 310.591L212.571 310.492ZM265.396 310.728C265.471 310.728 265.553 310.738 265.641 310.763C265.86 310.824 266.356 310.916 266.742 310.967L267.446 311.06L267.458 311.918C267.465 312.391 267.499 313.053 267.535 313.389C267.594 313.947 267.418 314.258 267.178 314.019C267.128 313.968 266.747 313.878 266.332 313.819C265.666 313.724 265.54 313.642 265.24 313.108C264.555 311.888 264.668 310.736 265.396 310.728ZM210.226 311.06L210.275 311.828C210.302 312.25 210.425 312.74 210.548 312.917C210.936 313.469 210.83 313.742 210.187 313.848C209.182 314.014 209.241 314.045 208.7 313.065C208.372 312.471 208.345 311.557 208.649 311.305C208.771 311.204 209.176 311.108 209.548 311.091L210.226 311.06ZM268.071 311.372L268.697 311.422C269.611 311.494 270.432 311.733 270.643 311.987C270.788 312.161 270.77 312.298 270.562 312.615C270.361 312.921 270.319 313.212 270.388 313.797C270.474 314.523 270.458 314.572 270.136 314.561C269.946 314.554 269.545 314.461 269.244 314.354C268.554 314.108 268.098 313.244 268.083 312.153L268.071 311.372ZM207.476 311.478C207.62 311.473 207.737 311.487 207.797 311.524C207.886 311.579 207.959 312.038 207.959 312.543C207.959 313.048 208.029 313.505 208.115 313.558C208.201 313.611 208.272 313.791 208.272 313.958C208.272 314.207 208.161 314.261 207.654 314.261C207.133 314.261 206.972 314.176 206.623 313.718C206.088 313.018 205.878 312.145 206.174 311.85C206.359 311.665 207.044 311.49 207.476 311.478ZM271.573 312.029C271.775 312.025 272.06 312.098 272.456 312.22L273.387 312.508L273.408 313.189C273.42 313.564 273.455 314.179 273.486 314.557C273.517 314.935 273.473 315.262 273.387 315.284C273.114 315.354 271.707 314.914 271.481 314.688C271.359 314.566 271.222 313.992 271.172 313.386C271.089 312.401 271.128 312.034 271.573 312.029ZM204.768 312.089C205.077 312.105 205.267 312.351 205.409 312.855C205.517 313.242 205.721 313.758 205.862 314.002C206.002 314.246 206.057 314.5 205.983 314.568C205.769 314.764 204.774 314.892 204.553 314.753C204.273 314.576 203.806 313.657 203.688 313.052C203.601 312.603 203.643 312.519 204.065 312.301C204.354 312.152 204.582 312.079 204.768 312.089ZM202.577 312.571C202.824 312.559 202.934 312.823 203.104 313.58C203.214 314.072 203.402 314.572 203.521 314.691C203.829 314.998 203.793 315.123 203.34 315.329C202.773 315.587 202.582 315.557 202.239 315.159C201.424 314.214 201.136 313.084 201.666 312.914C201.817 312.866 202.092 312.755 202.277 312.667C202.397 312.61 202.495 312.575 202.577 312.571ZM274.31 312.774C274.589 312.76 275.374 312.949 276.006 313.195C276.498 313.386 276.543 313.64 276.18 314.193C275.99 314.482 275.948 314.783 276.016 315.359C276.102 316.083 276.085 316.134 275.764 316.13C275.245 316.124 274.67 315.701 274.364 315.099C274.081 314.541 273.982 312.941 274.222 312.792C274.24 312.781 274.27 312.776 274.31 312.774ZM200.333 313.351C200.365 313.351 200.393 313.351 200.419 313.355C200.783 313.398 200.831 313.477 200.862 314.078C200.88 314.449 200.999 314.871 201.126 315.015C201.252 315.159 201.401 315.425 201.456 315.606C201.54 315.884 201.452 315.975 200.883 316.192C199.995 316.531 199.805 316.512 199.47 316.053C199.227 315.72 198.742 314.407 198.737 314.07C198.733 313.865 199.858 313.374 200.333 313.353V313.351ZM277.192 313.632C277.373 313.641 277.623 313.729 277.976 313.886L278.814 314.258L278.72 314.923C278.668 315.289 278.582 315.957 278.528 316.408C278.446 317.086 278.376 317.228 278.122 317.228C277.383 317.228 276.499 315.42 276.693 314.305C276.777 313.824 276.89 313.617 277.192 313.632ZM197.899 314.261C198.017 314.261 198.11 314.424 198.11 314.632C198.11 315.092 198.524 316.116 198.864 316.498C199.101 316.764 199.092 316.803 198.731 317.08C198.22 317.472 197.808 317.458 197.307 317.032C196.89 316.677 196.39 315.792 196.39 315.409C196.39 315.168 197.583 314.261 197.899 314.261ZM279.481 314.752C279.657 314.752 279.951 314.966 280.429 315.393C281.387 316.249 281.854 317.002 281.99 317.907C282.095 318.606 282.075 318.659 281.475 319.258C280.707 320.025 280.344 320.074 280.344 319.41C280.344 319.265 280.104 318.832 279.81 318.447C279.258 317.726 279.196 317.396 279.236 315.393C279.245 314.966 279.304 314.752 279.481 314.752ZM195.596 315.978C195.663 315.978 195.846 316.265 196.004 316.614C196.162 316.964 196.454 317.378 196.653 317.535C196.852 317.691 197.015 317.932 197.015 318.07C197.015 318.398 196.554 318.385 196.14 318.044C195.574 317.58 195.153 315.978 195.596 315.978ZM194.674 317.404C194.774 317.41 194.914 317.573 195.075 317.891C195.216 318.17 195.541 318.583 195.798 318.807C196.072 319.047 196.242 319.332 196.21 319.497C196.13 319.912 195.87 319.932 195.397 319.56C194.863 319.14 194.514 318.469 194.514 317.86C194.514 317.55 194.574 317.399 194.674 317.404Z" fill="currentcolor"/>

</svg>
