<svg  viewBox="0 0 1180 580" fill="currentcolor" xmlns="http://www.w3.org/2000/svg">
<path d="M227.982 210.223C227.244 210.223 227.031 210.332 226.45 211.003C225.941 211.591 225.776 211.974 225.776 212.567C225.776 213.328 225.753 213.352 225.058 213.352C224.663 213.352 224.34 213.432 224.34 213.53C224.34 213.628 224.663 214.338 225.058 215.108C225.879 216.71 225.947 217.432 225.364 218.375C224.54 219.706 222.861 219.819 220.762 218.685C219.255 217.871 219.146 217.886 219.315 218.884L219.454 219.703H218.707C217.407 219.703 216.341 220.499 216.341 221.47C216.341 222.414 217.765 223.637 219.108 223.845C219.332 223.88 219.549 224.091 219.591 224.315C219.811 225.498 220.543 225.502 221.41 224.324C222.099 223.388 222.908 222.871 224.007 222.665C224.887 222.5 225.776 223.178 225.776 224.013C225.776 224.954 225.155 226.052 224.556 226.17C222.214 226.634 220.42 227.537 218.763 229.09C217.651 230.132 216.546 232.137 216.546 233.113C216.546 233.641 216.34 233.992 215.587 234.744C214.651 235.678 214.627 235.734 214.612 237.004C214.597 238.192 214.651 238.358 215.213 238.897C216.16 239.807 216.698 241.56 215.958 241.325C215.402 241.149 214.535 241.538 213.851 242.269C213.313 242.844 213.166 242.896 212.327 242.801C211.816 242.743 211.34 242.639 211.27 242.569C211.199 242.498 211.124 241.94 211.102 241.329C211.068 240.385 210.975 240.141 210.472 239.706C209.612 238.963 208.357 238.651 207.44 238.954C206.606 239.229 205.626 240.171 205.462 240.855C205.379 241.201 205.179 241.334 204.663 241.383C203.836 241.463 203.632 241.203 203.627 240.068C203.624 239.134 203.28 238.63 202.102 237.832C201.128 237.172 200.243 237.191 199.234 237.892C198.445 238.441 198.223 238.717 198.005 239.422C197.928 239.669 197.685 239.779 197.221 239.777C196.269 239.773 195.985 239.54 196.146 238.897C196.24 238.522 196.146 238.14 195.834 237.635C195.269 236.722 194.757 236.646 195.005 237.512C195.591 239.554 193.36 241.596 191.763 240.479C191.365 240.201 191.306 240 191.359 239.117C191.412 238.208 191.511 238.008 192.161 237.484C192.633 237.103 193.258 236.835 193.885 236.746C194.729 236.625 194.822 236.567 194.545 236.337C194.368 236.19 193.766 236.06 193.209 236.047C192.036 236.021 191.1 236.561 190.581 237.563C190.287 238.131 190.199 238.17 189.507 238.04C188.507 237.854 188.241 237.604 188.233 236.836C188.229 236.479 188.025 235.962 187.772 235.668C187.213 235.02 185.897 234.249 185.349 234.249C184.675 234.249 183.376 235.021 182.816 235.753C182.314 236.411 182.242 236.438 181.215 236.344C180.069 236.239 179.626 236.017 179.626 235.546C179.626 235.093 178.589 234.303 177.644 234.037C176.247 233.643 174.587 234.479 174.069 235.837C173.829 236.465 172.568 236.495 172.239 235.882C172.116 235.653 171.637 235.192 171.175 234.857C170.515 234.38 170.118 234.249 169.33 234.249C167.571 234.249 166.139 235.386 165.943 236.94C165.881 237.432 165.689 237.996 165.517 238.193C165.135 238.632 164.329 238.662 164.168 238.244C164.104 238.075 163.92 237.937 163.762 237.937C163.603 237.937 163.358 237.798 163.217 237.629C162.845 237.182 160.7 237.216 159.983 237.681C159.354 238.088 158.705 238.696 158.705 238.879C158.705 238.946 158.553 239.32 158.368 239.709C158.091 240.293 158.077 240.5 158.287 240.892C158.579 241.439 158.413 241.869 157.623 242.607C157.154 243.045 157.052 243.061 156.159 242.837C154.058 242.308 152.187 243.209 151.71 244.979C151.429 246.021 151.761 247.266 152.468 247.822C152.997 248.237 153.076 248.589 152.769 249.156C152.663 249.351 152.52 249.775 152.452 250.097C152.34 250.624 152.262 250.672 151.67 250.576C149.566 250.235 147.546 252.214 147.926 254.241C148.12 255.271 149.089 256.271 150.193 256.58C151.22 256.867 151.396 257.182 151.284 258.545C151.22 259.328 151.198 259.348 150.295 259.457C148.83 259.635 147.991 260.202 147.343 261.454C146.903 262.305 146.928 262.967 147.435 263.825C148.089 264.932 149.052 265.559 150.214 265.633C151.208 265.696 151.218 265.703 151.218 266.399C151.218 266.99 151.13 267.124 150.66 267.25C149.154 267.652 148.243 268.979 148.245 270.772C148.245 271.931 148.308 272.113 148.92 272.764C149.896 273.803 150.824 274.217 152.031 274.151C152.853 274.106 153.063 274.163 153.121 274.445C153.161 274.637 152.992 274.96 152.745 275.162C150.6 276.922 150.386 279.168 152.209 280.805C152.679 281.227 153.218 281.573 153.406 281.573C154.223 281.573 154.397 281.802 154.402 282.876C154.402 283.475 154.629 284.548 154.922 285.364C155.883 288.029 156.129 288.809 157.203 292.584C157.387 293.232 157.662 294.054 157.814 294.409C157.966 294.764 158.089 295.135 158.089 295.234C158.089 295.777 159.94 299.055 162.29 302.675C163.205 304.084 164.132 305.512 164.352 305.851C164.943 306.762 165.093 307.021 165.935 308.593C166.676 309.976 166.704 310.105 166.704 312.063C166.704 313.772 166.784 314.272 167.199 315.198C167.874 316.699 168.52 317.51 169.802 318.465C170.399 318.911 170.939 319.344 171.001 319.429C171.373 319.935 173.229 321.359 173.952 321.694C174.945 322.153 176.801 322.752 177.231 322.752C177.394 322.752 177.977 322.88 178.526 323.037C179.923 323.435 183.992 324.323 187.01 324.889C187.969 325.068 191.377 325.399 194.584 325.624C197.791 325.85 200.745 326.117 201.148 326.219C201.551 326.321 203.865 326.554 206.29 326.735C208.716 326.917 211.854 327.171 213.264 327.3C214.674 327.428 216.659 327.601 217.674 327.683C220.224 327.89 234.919 327.723 235.942 327.476C236.743 327.282 238.617 327.09 243.928 326.657C245.282 326.546 247.451 326.358 248.748 326.237C250.046 326.117 252.999 325.93 255.312 325.823C263.917 325.424 267.4 325.058 270.155 324.268C270.704 324.11 271.336 323.981 271.559 323.981C271.783 323.981 272.441 323.854 273.023 323.698C273.604 323.542 274.818 323.25 275.72 323.048C279.48 322.209 280.722 321.661 282.533 320.039C283.336 319.319 284.303 318.519 284.681 318.26C285.396 317.771 286.298 316.635 286.963 315.386C287.266 314.816 287.36 314.151 287.398 312.304C287.443 310.112 287.489 309.869 288.067 308.821C288.993 307.141 290.812 304.182 291.845 302.675C293.015 300.969 295.308 297.177 295.308 296.95C295.308 296.854 295.585 296.218 295.924 295.537C296.262 294.856 296.539 294.158 296.539 293.986C296.539 293.815 296.667 293.372 296.824 293.002C297.121 292.297 297.453 291.109 297.783 289.572C297.89 289.069 298.07 288.567 298.182 288.455C298.294 288.344 298.385 288.089 298.385 287.89C298.385 287.691 298.514 287.226 298.672 286.856C299.489 284.94 299.63 284.439 299.69 283.245C299.757 281.9 299.957 281.583 300.744 281.576C301.639 281.567 303.308 279.446 303.308 278.318C303.308 277.655 302.678 276.288 302.146 275.795C301.939 275.603 301.556 275.251 301.294 275.013C300.591 274.373 301.022 273.933 302.183 274.107C302.832 274.204 303.243 274.135 303.843 273.826C305.535 272.957 306.17 271.709 305.885 269.812C305.729 268.773 304.774 267.69 303.693 267.326C302.148 266.807 302.402 265.734 304.092 265.635C305.028 265.58 305.244 265.472 306.071 264.645C306.946 263.771 307 263.653 307 262.597C307 261.529 306.953 261.43 305.996 260.474C305.107 259.587 304.878 259.465 303.997 259.408L303 259.345L302.937 258.249C302.868 257.033 303.106 256.708 304.231 256.488C304.861 256.365 305.409 255.881 306.032 254.897C307.22 253.021 305.065 250.329 302.514 250.503C302.021 250.537 301.927 250.431 301.396 249.27C301.107 248.638 301.121 248.589 301.895 247.56C302.881 246.249 302.94 245.378 302.122 244.207C301.297 243.026 300.383 242.595 299 242.734C298.38 242.796 297.636 242.902 297.348 242.969C296.907 243.072 296.739 242.965 296.295 242.306C295.885 241.697 295.789 241.35 295.868 240.749C296.004 239.712 295.627 238.885 294.628 238.031C293.869 237.382 293.688 237.322 292.481 237.322C291.326 237.322 291.067 237.398 290.386 237.937C289.959 238.275 289.463 238.551 289.284 238.551C288.868 238.551 288.416 237.829 288.255 236.905C288.089 235.957 287.658 235.369 286.68 234.753C285.187 233.811 283.382 234.188 281.988 235.732C281.541 236.227 281.363 236.292 280.781 236.174C280.345 236.085 280.037 235.872 279.927 235.585C279.673 234.919 278.578 234.079 277.762 233.926C276.578 233.705 274.821 234.683 274.382 235.809C274.248 236.153 273.988 236.264 273.123 236.347C271.793 236.475 271.706 236.444 271.276 235.692C270.909 235.05 269.555 234.249 268.838 234.249C268.301 234.249 267.259 234.809 266.66 235.42C266.221 235.868 266.138 236.058 265.892 237.161C265.794 237.604 265.592 237.764 264.903 237.95C264.104 238.165 264.013 238.148 263.726 237.729C262.355 235.733 260.648 235.434 259.034 236.907C258.278 237.598 258.183 237.786 258.183 238.608C258.183 239.61 258.001 239.78 256.931 239.78C256.471 239.78 256.269 239.647 256.078 239.217C255.364 237.611 253.199 236.757 252.183 237.681C250.549 239.165 250.356 239.454 250.478 240.233C250.574 240.85 250.521 241.034 250.199 241.207C249.441 241.612 248.95 241.46 248.643 240.727C247.446 237.865 243.032 238.452 243.012 241.475C243.005 242.334 242.941 242.478 242.479 242.653C241.539 243.01 240.93 242.878 240.056 242.126C239.591 241.726 239.09 241.303 238.943 241.185C238.619 240.927 239.04 240.188 239.945 239.428C240.69 238.802 241.058 237.709 240.786 236.931C240.675 236.61 240.297 235.953 239.948 235.472C239.599 234.991 239.313 234.45 239.313 234.27C239.313 233.741 238.066 231.463 237.11 230.247C236.141 229.014 233.765 227.156 232.215 226.421C230.49 225.603 229.745 223.643 230.835 222.787C232.245 221.678 233.212 222.072 235.23 224.573C235.554 224.975 235.826 224.67 235.826 223.907C235.826 223.227 235.838 223.218 236.698 223.25C237.79 223.292 238.567 222.752 238.914 221.711C239.357 220.384 238.506 219.217 236.852 218.883C236.398 218.791 236.331 218.66 236.275 217.756C236.241 217.193 236.135 216.654 236.04 216.559C235.745 216.26 235.006 216.629 235.006 217.074C235.006 217.303 234.692 217.804 234.309 218.187C233.663 218.832 233.515 218.884 232.322 218.884C230.733 218.884 230.083 218.413 230.083 217.262C230.083 216.559 231.184 214.615 231.897 214.058C232.049 213.939 232.142 213.616 232.103 213.341C232.046 212.942 231.894 212.827 231.352 212.775C230.768 212.719 230.618 212.584 230.288 211.815C229.815 210.714 229.105 210.223 227.982 210.223ZM228.2 219.096C228.375 219.088 228.528 219.168 228.797 219.33C229.507 219.759 229.692 220.96 229.142 221.567C228.899 221.835 228.513 221.956 227.903 221.956C227.176 221.956 226.953 221.861 226.67 221.428C226.19 220.697 226.496 219.919 227.468 219.396C227.828 219.203 228.025 219.105 228.2 219.096ZM228.264 226.873C229.828 226.873 229.873 226.888 230.005 227.413C230.081 227.71 230.08 229.039 230.005 230.365L229.869 232.777L230.414 233.205C230.853 233.55 231.248 233.634 232.437 233.634C233.25 233.634 234.368 233.771 234.922 233.939C235.476 234.107 236.096 234.245 236.299 234.246C237.622 234.254 239.929 236.101 239.929 237.153C239.929 238.1 239.15 238.59 238.336 238.155C237.259 237.579 234.367 237.321 228.955 237.317C223.276 237.313 219.357 237.632 217.366 238.261C216.15 238.645 216.011 238.632 215.635 238.095C215.14 237.39 215.248 236.646 215.968 235.805C216.821 234.807 217.581 234.511 220.546 234.019C223.419 233.543 224.264 233.226 225.181 232.281C225.839 231.602 225.852 231.554 225.865 229.663C225.884 227.074 226.055 226.873 228.264 226.873ZM177.462 234.863C178.364 234.863 178.628 234.942 178.798 235.259C179.336 236.262 178.73 237.554 177.437 238.166C177.005 238.37 176.606 238.527 176.549 238.516C176.493 238.504 176.249 238.456 176.007 238.409C175.354 238.281 174.84 237.607 174.84 236.878C174.84 236.399 175.032 236.059 175.589 235.549C176.248 234.945 176.474 234.863 177.462 234.863ZM276.84 234.863C277.789 234.863 277.997 234.945 278.612 235.56C279.414 236.36 279.564 237.439 278.951 237.991C278.362 238.522 277.631 238.581 276.738 238.17C275.78 237.731 275.204 236.967 275.214 236.15C275.226 235.187 275.635 234.863 276.84 234.863ZM283.925 235.326C284.016 235.326 284.111 235.334 284.21 235.351C284.617 235.418 285.167 235.474 285.433 235.475C285.705 235.475 286.217 235.78 286.612 236.174C287.2 236.761 287.309 237.017 287.309 237.799C287.309 238.59 287.221 238.79 286.714 239.151C286.09 239.595 284.962 239.72 284.745 239.37C284.676 239.257 284.446 239.165 284.236 239.165C284.025 239.165 283.568 238.821 283.222 238.401C282.099 237.04 282.558 235.32 283.925 235.326ZM267.985 235.365C268.826 235.37 269.967 235.684 270.352 236.068C270.958 236.673 270.979 238.191 270.386 238.638C269.883 239.017 269.16 239.019 268.3 238.642C267.389 238.244 267.002 237.599 267.002 236.479C267.002 235.655 267.067 235.507 267.464 235.414C267.613 235.379 267.79 235.364 267.984 235.365L267.985 235.365ZM170.22 235.365C170.858 235.373 171.239 235.546 171.427 235.897C172.008 236.981 171.294 238.481 169.881 239.144C168.618 239.738 168.022 239.693 167.278 238.95C166.74 238.413 166.67 238.223 166.775 237.578C166.957 236.462 167.863 235.665 169.185 235.456C169.587 235.392 169.93 235.362 170.22 235.365ZM186.211 235.443C186.853 235.452 186.962 235.588 187.135 236.046C187.474 236.942 187.038 237.944 186.07 238.495C184.539 239.367 183.318 238.898 183.318 237.437C183.318 236.26 184.076 235.533 185.369 235.468C185.724 235.45 185.997 235.439 186.211 235.443ZM260.223 236.735C260.565 236.739 260.965 236.839 261.408 237.048C262.791 237.704 263.365 239.537 262.452 240.386C261.247 241.507 259.004 240.018 259.004 238.097C259.004 237.211 259.471 236.73 260.223 236.735ZM201.598 238.141C202.131 238.141 202.804 238.863 202.804 239.436C202.804 240.18 202.117 241.405 201.456 241.84C200.62 242.39 199.815 242.345 199.18 241.711C198.744 241.276 198.673 241.056 198.772 240.452C198.96 239.293 200.369 238.141 201.598 238.141ZM252.529 238.191C253.233 238.157 254.309 238.62 254.812 239.217C255.484 240.015 255.503 241.296 254.85 241.84C254.132 242.439 253.25 242.342 252.41 241.572C251.249 240.508 251.159 238.584 252.253 238.237C252.335 238.211 252.428 238.196 252.529 238.191ZM291.641 238.246C291.904 238.253 292.206 238.302 292.547 238.39C293.107 238.535 293.769 238.797 294.017 238.973C295.092 239.734 295.124 241.8 294.069 242.345C293.403 242.689 293.194 242.692 292.334 242.365C290.729 241.755 290.006 240.674 290.268 239.277C290.403 238.561 290.849 238.222 291.641 238.246ZM162.561 238.263C162.772 238.263 162.957 238.286 163.098 238.339C164.814 238.991 164.001 241.809 161.954 242.308C161.655 242.381 161.285 242.488 161.134 242.545C160.983 242.602 160.535 242.488 160.14 242.29C159.476 241.958 159.418 241.852 159.361 240.878C159.311 240.019 159.388 239.727 159.772 239.288C160.248 238.745 161.649 238.269 162.561 238.263ZM235.07 238.552C236.084 238.556 237.262 238.789 237.262 238.987C237.262 239.163 236.145 239.176 234.848 239.016C234.011 238.912 234.184 238.549 235.07 238.552ZM222.589 238.556C223.847 238.566 224.977 238.624 225.039 238.725C225.099 238.82 224.25 238.958 223.154 239.031C220.381 239.214 218.597 239.197 218.597 238.987C218.597 238.889 218.943 238.751 219.367 238.682C219.943 238.586 221.33 238.547 222.589 238.556ZM208.717 239.78C210.282 239.78 210.74 240.524 210.058 241.958C209.83 242.438 209.443 242.79 208.839 243.064C207.705 243.58 207.46 243.571 206.781 242.988C205.943 242.268 206.013 241.343 206.971 240.465C207.606 239.884 207.873 239.78 208.717 239.78ZM245.459 239.78C246.407 239.78 246.615 239.861 247.231 240.476C248.135 241.379 248.197 242.406 247.387 243.043C246.733 243.557 246.418 243.564 245.403 243.084C244.558 242.685 243.822 241.685 243.832 240.953C243.844 240.104 244.295 239.78 245.459 239.78ZM277.054 241.113C280.533 241.11 283.51 241.64 285.873 242.681C294.705 246.571 299.602 255.317 298.013 264.364C297.479 267.404 296.476 271.21 296.1 271.626C296.003 271.733 295.924 271.967 295.924 272.146C295.924 272.577 293.954 276.583 293.335 277.411C293.067 277.769 292.847 278.122 292.847 278.194C292.847 278.444 291.012 280.708 290.376 281.242C289.681 281.827 289.455 281.891 289.251 281.561C289.177 281.442 289.453 281.018 289.863 280.62C290.966 279.551 292.451 276.983 293.757 273.89C293.947 273.439 294.236 272.81 294.398 272.491C294.561 272.172 294.693 271.817 294.693 271.702C294.693 271.588 294.822 271.203 294.98 270.848C296.381 267.695 296.983 262.46 296.229 259.978C296.061 259.425 295.921 258.641 295.917 258.237C295.917 257.832 295.775 257.322 295.61 257.103C295.444 256.884 295.308 256.53 295.308 256.315C295.308 256.101 295.182 255.68 295.026 255.381C294.871 255.082 294.543 254.423 294.297 253.916C294.052 253.408 293.672 252.717 293.454 252.379C293.237 252.041 292.967 251.557 292.855 251.303C292.744 251.05 292.558 250.842 292.442 250.842C292.327 250.842 292.232 250.75 292.232 250.638C292.232 250.525 292.071 250.265 291.873 250.06C291.676 249.856 291.093 249.233 290.579 248.678C289.428 247.432 288.406 246.54 288.131 246.54C288.018 246.54 287.924 246.453 287.924 246.347C287.924 246.146 287.621 245.96 285.941 245.128C283.955 244.145 282.614 243.671 281.258 243.47C280.694 243.386 279.749 243.206 279.157 243.069C277.42 242.666 270.308 243.069 268.029 243.696C267.634 243.805 266.711 243.98 265.978 244.085C263.667 244.416 262.001 244.718 261.299 244.933C260.926 245.048 259.956 245.218 259.145 245.31C258.334 245.403 257.071 245.576 256.337 245.695C253.55 246.147 250.299 246.335 245.289 246.335H240.105L240.171 245.874C240.233 245.435 240.333 245.411 242.287 245.367C245.509 245.295 251.647 244.632 256.235 243.86C256.911 243.747 258.112 243.575 258.901 243.479C259.691 243.383 260.937 243.199 261.67 243.07C264.188 242.627 266.491 242.25 267.208 242.162C267.603 242.114 268.526 241.981 269.259 241.866C273.253 241.239 274.532 241.115 277.054 241.113ZM177.171 241.122C179.709 241.133 181.19 241.274 184.959 241.866C185.692 241.981 186.615 242.114 187.01 242.162C187.405 242.211 188.512 242.384 189.471 242.547C199.285 244.222 207.638 245.271 211.931 245.367C213.83 245.41 213.982 245.444 213.982 245.823C213.982 246.219 213.823 246.236 209.469 246.301C203.451 246.391 199.444 246.08 194.086 245.107C193.409 244.984 192.336 244.806 191.701 244.712C191.065 244.619 190.097 244.443 189.547 244.322C188.084 243.999 186.204 243.66 185.266 243.551C184.815 243.498 183.431 243.311 182.19 243.135C178.764 242.65 174.305 242.899 171.934 243.709C171.596 243.824 171.088 243.963 170.806 244.017C170.524 244.071 170.016 244.24 169.678 244.393C169.34 244.545 168.924 244.724 168.755 244.788C168.586 244.853 168.171 245.088 167.832 245.311C167.494 245.534 167.078 245.779 166.909 245.855C166.138 246.203 162.396 249.57 162.396 249.916C162.396 249.963 162.156 250.26 161.861 250.576C161.567 250.892 161.24 251.334 161.135 251.56C160.82 252.233 160.408 252.911 160.164 253.154C160.039 253.28 159.935 253.538 159.935 253.727C159.935 253.916 159.797 254.185 159.627 254.325C159.459 254.466 159.32 254.788 159.32 255.042C159.32 255.296 159.182 255.619 159.012 255.759C158.843 255.9 158.705 256.308 158.705 256.666C158.705 257.024 158.593 257.429 158.456 257.565C157.906 258.114 157.529 263.647 157.877 266.053C158.302 268.995 159.111 271.24 161.515 276.144C163.088 279.352 163.173 279.49 164.167 280.483C164.66 280.976 165.063 281.413 165.063 281.454C165.063 281.624 164.527 281.713 164.208 281.596C163.838 281.46 161.46 278.658 161.147 277.988C161.041 277.762 160.777 277.301 160.56 276.963C158.67 274.023 156.825 268.826 156.219 264.737C155.654 260.924 155.785 258.357 156.705 255.247C157.091 253.944 158.726 250.492 159.08 250.233C159.161 250.174 159.386 249.876 159.581 249.57C160.161 248.659 162.214 246.547 163.422 245.62C167.67 242.357 171.514 241.1 177.171 241.122ZM156.05 243.51C156.434 243.495 156.596 243.599 156.855 243.91C157.665 244.88 157.23 246.561 155.968 247.34C154.954 247.966 153.393 247.927 152.911 247.264C152.713 246.993 152.551 246.48 152.551 246.124C152.551 244.741 153.591 243.861 155.58 243.562C155.769 243.534 155.922 243.515 156.05 243.51ZM297.986 243.529C298.184 243.519 298.453 243.544 298.851 243.591C299.748 243.696 300.196 243.878 300.76 244.366C301.417 244.934 301.497 245.112 301.497 245.993C301.497 246.645 301.374 247.117 301.139 247.376C300.62 247.95 299.067 247.911 298.159 247.301C297.359 246.764 296.659 245.457 296.831 244.821C296.896 244.584 297.113 244.178 297.314 243.921C297.521 243.656 297.655 243.544 297.986 243.529ZM276.427 243.758C277.187 243.748 277.816 243.78 278.284 243.858C279.017 243.979 280.079 244.08 280.643 244.082C281.207 244.082 281.933 244.222 282.256 244.39C282.579 244.559 283.056 244.696 283.316 244.696C283.731 244.696 284.414 244.969 285.463 245.551C285.632 245.645 285.955 245.815 286.181 245.929C286.407 246.043 286.868 246.319 287.207 246.541C287.545 246.763 287.96 247.008 288.129 247.086C288.617 247.309 291.957 250.752 292.306 251.391C292.479 251.709 292.716 252.176 292.832 252.43C292.948 252.684 293.137 252.891 293.252 252.891C293.368 252.891 293.462 253.11 293.462 253.378C293.462 253.646 293.601 253.98 293.77 254.12C293.939 254.26 294.078 254.583 294.078 254.837C294.078 255.091 294.216 255.414 294.385 255.554C294.555 255.695 294.693 256.081 294.693 256.412C294.693 256.744 294.805 257.217 294.94 257.463C295.077 257.709 295.254 258.509 295.335 259.242C295.416 259.974 295.549 261.065 295.631 261.665C295.776 262.726 295.504 265.396 295.076 267.129C294.965 267.58 294.782 268.318 294.669 268.768C294.557 269.219 294.378 269.675 294.271 269.782C294.165 269.889 294.077 270.12 294.077 270.295C294.077 270.469 293.938 270.876 293.769 271.199C293.6 271.522 293.462 271.877 293.462 271.989C293.462 272.163 291.177 276.85 290.436 278.195C289.909 279.152 288.285 280.748 287.452 281.128C286.979 281.344 286.084 281.678 285.463 281.87C283.312 282.536 281.836 283.394 280.661 284.662C280.043 285.329 279.5 285.875 279.455 285.875C279.409 285.875 279.025 285.206 278.6 284.389C277.31 281.908 276.072 280.495 274.079 279.228C273.082 278.594 272.501 278.357 270.01 277.57L268.812 277.191L268.938 276.155C269.007 275.586 268.968 274.796 268.853 274.402C268.672 273.785 268.707 273.6 269.1 273.07C269.445 272.607 269.557 272.173 269.558 271.305C269.558 270.257 269.496 270.093 268.84 269.462C267.675 268.34 266.945 268.051 265.268 268.051C264.188 268.051 263.7 268.137 263.516 268.359C263.376 268.528 263.165 268.666 263.048 268.666C262.931 268.666 262.523 269.012 262.143 269.434C261.496 270.152 261.455 270.286 261.504 271.467C261.544 272.432 261.474 272.825 261.203 273.123C261.008 273.338 260.679 274.014 260.471 274.624L260.094 275.734L257.754 275.89C255.295 276.055 254.379 276.295 252.3 277.321C250.5 278.209 248.109 280.573 247.898 281.675C247.852 281.918 247.657 282.085 247.419 282.085C247.106 282.085 246.98 281.882 246.845 281.163C246.384 278.702 244.81 276.406 242.492 274.816C241.405 274.07 239.646 273.146 238.441 272.689C237.67 272.397 237.467 272.222 237.467 271.85C237.467 271.591 237.328 271.048 237.16 270.644C236.729 269.615 236.741 264.66 237.178 262.212C237.632 259.685 238.759 255.686 239.139 255.257C239.234 255.15 239.311 254.934 239.311 254.776C239.311 254.459 239.56 253.876 240.854 251.15C241.795 249.169 242.275 248.084 242.463 247.513C242.57 247.186 242.983 247.154 247.151 247.15C249.665 247.146 252.09 247.057 252.541 246.949C252.992 246.841 254.285 246.699 255.413 246.633C256.541 246.567 257.879 246.424 258.387 246.316C258.894 246.207 260.002 246.027 260.848 245.916C262.356 245.719 264.552 245.357 266.797 244.935C270.679 244.206 274.145 243.79 276.426 243.758H276.427ZM177.688 243.774C178.332 243.774 178.902 243.8 179.318 243.862C180.108 243.978 181.236 244.075 181.825 244.078C182.414 244.082 183.568 244.214 184.389 244.376C186.461 244.785 188.347 245.118 189.676 245.311C190.297 245.401 191.22 245.571 191.727 245.689C193.017 245.99 195.532 246.323 198.188 246.546C199.43 246.65 200.888 246.829 201.429 246.945C201.971 247.06 204.558 247.155 207.178 247.155C211.542 247.155 211.969 247.186 212.264 247.53C212.974 248.358 214.216 251.53 214.689 253.721C215.155 255.881 215.354 256.722 215.551 257.357C215.666 257.729 215.845 258.559 215.949 259.201C216.053 259.843 216.224 260.83 216.33 261.393C216.435 261.956 216.527 264.586 216.534 267.237C216.545 271.821 216.527 272.075 216.133 272.41C215.907 272.604 215.653 272.764 215.569 272.764C215.346 272.764 212.854 274.063 211.81 274.722C210.706 275.417 208.879 277.255 208.404 278.149C207.959 278.986 207.404 280.628 207.226 281.637C207.066 282.538 206.735 282.546 206.311 281.66C205.948 280.901 204.906 279.554 204.239 278.982C203.957 278.74 203.516 278.357 203.258 278.132C202.721 277.663 201.081 276.848 199.727 276.378C199.219 276.202 197.835 275.995 196.65 275.919C194.11 275.757 193.778 275.628 193.778 274.801C193.778 274.464 193.526 273.799 193.217 273.323C192.779 272.646 192.655 272.207 192.653 271.321C192.653 270.061 192.219 269.348 190.949 268.506C189.667 267.656 186.953 267.967 185.572 269.123C184.419 270.088 184.196 271.919 185.089 273.089C185.571 273.719 185.597 273.835 185.331 274.15C184.947 274.607 184.543 275.993 184.687 276.367C184.911 276.949 185.345 276.63 185.674 275.641C185.89 274.99 186.159 274.579 186.424 274.496C187.066 274.292 187.113 274.521 186.686 275.787C186.314 276.891 186.246 276.967 185.573 277.03C185.179 277.067 184.712 277.228 184.535 277.386C184.359 277.545 183.897 277.735 183.51 277.809C183.122 277.883 182.713 278.009 182.6 278.09C182.487 278.172 182.139 278.299 181.825 278.374C179.888 278.837 177.077 281.48 175.819 284.022C175.355 284.957 174.88 285.657 174.703 285.662C174.533 285.666 173.954 285.18 173.414 284.581C172.409 283.466 170.482 282.31 169.212 282.061C168.843 281.989 168.492 281.849 168.431 281.751C168.371 281.653 168.138 281.572 167.914 281.572C166.984 281.572 165.449 280.475 164.33 279.01C163.206 277.538 161.163 273.442 160.244 270.817C160.047 270.254 159.758 269.502 159.603 269.147C159.448 268.792 159.32 268.28 159.32 268.01C159.32 267.74 159.205 267.403 159.064 267.263C158.881 267.08 158.787 265.841 158.738 262.944C158.68 259.538 158.719 258.78 158.994 258.253C159.174 257.907 159.32 257.36 159.32 257.038C159.32 256.716 159.456 256.273 159.621 256.054C159.787 255.836 159.925 255.415 159.929 255.119C159.933 254.822 160.074 254.465 160.243 254.325C160.412 254.185 160.551 253.915 160.551 253.726C160.551 253.537 160.654 253.28 160.78 253.154C161.023 252.911 161.436 252.233 161.75 251.559C161.855 251.334 162.182 250.891 162.477 250.576C162.771 250.26 163.012 249.965 163.012 249.92C163.012 249.757 165.087 247.769 165.256 247.769C165.352 247.769 165.483 247.631 165.548 247.462C165.613 247.293 165.799 247.155 165.963 247.155C166.126 247.155 166.29 247.085 166.328 247.001C166.448 246.73 167.703 245.925 168.004 245.925C168.164 245.925 168.41 245.787 168.55 245.618C168.69 245.449 168.961 245.311 169.151 245.311C169.342 245.311 169.676 245.176 169.895 245.01C170.114 244.845 170.466 244.706 170.676 244.703C170.887 244.699 171.487 244.562 172.01 244.398C173.158 244.037 175.757 243.777 177.688 243.774ZM219.685 245.601C219.806 245.584 220.335 245.924 220.912 246.393C223.732 248.687 229.393 249.431 232.159 247.871C232.653 247.593 233.196 247.301 233.365 247.223C233.534 247.146 233.737 246.986 233.815 246.868C233.894 246.751 234.017 246.714 234.09 246.786C234.162 246.858 233.996 247.593 233.721 248.419C231.713 254.443 230.828 259.963 230.812 266.564C230.804 269.639 230.733 270.941 230.566 271.005C230.028 271.212 227.949 269.781 227.715 269.043C227.542 268.501 226.668 268.555 226.371 269.127C226.03 269.781 225.549 270.203 224.583 270.696C224.12 270.931 223.707 271.124 223.665 271.124C223.372 271.124 223.315 270.353 223.316 266.429C223.316 261.418 222.909 257.817 221.85 253.506C221.725 252.998 221.551 252.261 221.463 251.867C221.375 251.472 221.105 250.504 220.863 249.715C220.621 248.927 220.343 248.005 220.246 247.667C220.148 247.329 219.95 246.756 219.804 246.394C219.658 246.032 219.596 245.679 219.666 245.609C219.67 245.605 219.677 245.602 219.685 245.601ZM214.099 247.155C214.373 247.155 214.623 247.43 214.888 248.025C215.393 249.162 216.508 252.698 217.359 255.862C217.602 256.763 217.884 257.777 217.986 258.115C218.087 258.453 218.227 259.145 218.297 259.652C218.366 260.159 218.563 261.466 218.735 262.558C219.134 265.088 219.022 269.515 218.519 271.073C218.218 272.002 218.099 272.149 217.643 272.149C217.156 272.149 217.125 272.096 217.249 271.483C217.565 269.922 217.585 264.413 217.283 261.803C216.976 259.129 216.519 256.625 216.264 256.213C216.189 256.091 216.039 255.593 215.932 255.107C215.167 251.646 214.637 249.856 214.007 248.603C213.433 247.461 213.452 247.155 214.098 247.155H214.099ZM240.591 247.17C241.359 247.146 241.597 247.314 241.395 247.713C241.046 248.405 239.28 252.177 239.02 252.788C238.875 253.126 238.618 253.726 238.448 254.121C238.277 254.516 238.072 255.137 237.992 255.502C237.912 255.866 237.761 256.217 237.657 256.281C237.553 256.345 237.466 256.646 237.466 256.949C237.466 257.252 237.327 257.764 237.158 258.087C236.99 258.41 236.852 258.929 236.852 259.24C236.852 259.55 236.705 260.208 236.526 260.701C236.032 262.061 236.016 269.469 236.504 270.586C236.694 271.022 236.851 271.552 236.851 271.764C236.851 271.998 236.706 272.148 236.481 272.148C235.979 272.148 235.62 271.752 235.62 271.196C235.62 270.942 235.481 270.204 235.312 269.555C234.928 268.079 234.929 265.579 235.312 263.442C235.475 262.54 235.611 261.511 235.613 261.155C235.617 260.501 236.321 257.424 236.941 255.349C237.127 254.73 237.355 253.9 237.449 253.505C237.544 253.111 238.033 251.544 238.538 250.023L239.455 247.257L240.224 247.192C240.356 247.181 240.476 247.174 240.586 247.17L240.591 247.17ZM227.44 249.649C226.341 249.611 225.16 250.311 224.281 251.706C223.536 252.887 224.218 254.993 225.58 255.716C226.196 256.044 228.312 255.917 228.786 255.525C230.041 254.484 230.462 252.387 229.674 251.096C229.099 250.154 228.294 249.678 227.44 249.649ZM226.904 250.72C227.073 250.716 227.242 250.734 227.404 250.772C228.085 250.932 228.853 251.634 228.853 252.095C228.853 252.294 228.945 252.514 229.058 252.584C229.375 252.779 229.292 253.558 228.899 254.066C228.653 254.384 228.263 254.553 227.622 254.616C226.128 254.764 225.597 254.523 225.063 253.453C224.665 252.657 224.671 252.45 225.11 251.676C225.433 251.105 226.172 250.731 226.904 250.72ZM301.832 251.483C302.03 251.487 302.274 251.511 302.586 251.55C303.403 251.652 303.872 251.854 304.45 252.353C305.138 252.946 305.222 253.125 305.222 253.977C305.222 254.616 305.098 255.072 304.849 255.347C304.138 256.132 302.036 255.729 301.256 254.658C300.605 253.763 300.421 252.9 300.747 252.271C301.061 251.665 301.237 251.475 301.832 251.483ZM152.499 251.483C152.852 251.497 152.977 251.611 153.194 251.893C154.018 252.963 153.452 254.621 152.02 255.336C150.208 256.24 148.859 255.638 148.859 253.925C148.859 253.182 148.973 252.934 149.57 252.372C150.153 251.823 150.508 251.676 151.551 251.555C151.994 251.504 152.287 251.475 152.499 251.483ZM227.569 256.719C227.314 256.71 227.066 256.751 226.847 256.847C225.846 257.285 225.16 257.846 225.16 258.228C225.16 258.434 225.068 258.659 224.955 258.729C224.376 259.086 224.967 260.753 225.924 261.467C226.802 262.121 227.812 262.035 228.747 261.228C229.498 260.58 229.531 260.497 229.55 259.227C229.565 258.147 229.491 257.816 229.14 257.439C228.729 256.998 228.131 256.738 227.569 256.719ZM227.26 257.626C227.815 257.609 228.016 257.717 228.373 258.133C228.992 258.852 229.038 260.152 228.456 260.463C227.959 260.728 226.811 260.728 226.354 260.463C226.164 260.352 225.864 259.972 225.687 259.618C225.39 259.023 225.394 258.925 225.734 258.34C226.045 257.808 226.247 257.695 226.999 257.641C227.094 257.635 227.181 257.629 227.26 257.627V257.626ZM151.512 260.388C152.022 260.403 152.502 260.711 152.734 261.219C153.042 261.894 153.021 262.218 152.623 262.99C152.233 263.747 151.717 264.157 150.705 264.513C149.761 264.846 149.691 264.84 148.911 264.365C148.299 263.992 148.244 263.873 148.244 262.916C148.244 262.036 148.338 261.779 148.843 261.274C149.188 260.93 149.663 260.675 149.959 260.675C150.242 260.675 150.711 260.585 151 260.475C151.169 260.411 151.342 260.383 151.512 260.388ZM302.835 260.454C303.006 260.458 303.188 260.483 303.381 260.526C304.83 260.855 305.569 261.314 305.893 262.089C306.242 262.923 306.007 263.805 305.275 264.409C304.756 264.837 304.063 264.844 303.103 264.429C302.192 264.035 301.684 263.495 301.442 262.663C301.046 261.302 301.644 260.419 302.835 260.454ZM227.615 262.496C227.06 262.514 226.472 262.718 226.008 263.102C224.453 264.39 224.603 266.724 226.289 267.458C226.514 267.556 227.093 267.602 227.574 267.561C229.632 267.383 230.525 264.59 229.031 263.002C228.694 262.644 228.171 262.477 227.615 262.496ZM227.131 263.187C227.308 263.176 227.478 263.237 227.741 263.362C228.443 263.695 229.147 264.987 228.956 265.59C228.883 265.819 228.558 266.143 228.233 266.311C227.494 266.693 227.465 266.692 226.607 266.257C225.366 265.629 225.294 264.072 226.476 263.436C226.769 263.279 226.953 263.197 227.131 263.187ZM152.439 268.087C152.895 268.071 153.295 268.178 153.551 268.435C154.697 269.578 154.053 271.771 152.305 272.679C151.717 272.985 150.345 273.062 149.965 272.811C149.606 272.573 149.064 271.398 149.064 270.857C149.064 270.586 149.273 270.056 149.527 269.679C150.156 268.747 151.434 268.12 152.439 268.087ZM301.409 268.102C301.649 268.106 301.927 268.125 302.183 268.164C304.601 268.526 305.882 270.868 304.518 272.435C303.707 273.367 301.789 273.059 300.719 271.827C299.856 270.832 299.946 268.438 300.857 268.15C300.965 268.115 301.168 268.099 301.409 268.102ZM189.092 268.877C189.66 268.885 190.293 268.966 190.641 269.114C191.607 269.525 191.933 269.914 191.933 270.651C191.933 271.543 191.238 272.481 190.189 273.006C189.245 273.478 186.881 273.707 186.35 273.378C186.156 273.257 185.848 272.845 185.666 272.46C185.379 271.857 185.371 271.659 185.607 271.009C185.912 270.166 186.843 269.279 187.424 269.279C187.634 269.279 187.863 269.187 187.933 269.074C188.021 268.932 188.524 268.868 189.092 268.877ZM265.031 268.896C267.638 268.926 269.691 271.07 268.013 272.746C267.432 273.327 267.274 273.376 266.013 273.368C264.025 273.354 262.483 272.389 262.263 271.019C262.136 270.229 262.712 269.374 263.546 269.114C264.046 268.958 264.548 268.891 265.031 268.896ZM227.166 270.428C227.297 270.439 227.411 270.525 227.578 270.667C227.809 270.861 228.167 271.127 228.374 271.257C228.719 271.474 228.676 271.562 227.835 272.333C227.332 272.794 226.871 273.17 226.81 273.168C226.749 273.164 226.402 272.806 226.038 272.369L225.377 271.573L226.038 271.078C226.68 270.596 226.947 270.409 227.166 270.428ZM224.733 271.968C224.805 271.972 224.866 271.99 224.9 272.024C224.968 272.092 224.847 272.14 224.631 272.131C224.392 272.122 224.344 272.073 224.507 272.008C224.581 271.978 224.662 271.965 224.733 271.968ZM229.649 271.968C229.76 271.968 229.864 271.984 229.934 272.012C230.072 272.068 229.907 272.111 229.57 272.107C229.232 272.102 229.119 272.057 229.318 272.005C229.418 271.979 229.537 271.966 229.649 271.968ZM222.989 272.433C223.16 272.429 223.3 272.445 223.368 272.487C223.655 272.664 223.095 272.959 222.467 272.963C222.169 272.963 221.662 273.104 221.338 273.272C221.015 273.44 220.428 273.583 220.033 273.589C219.638 273.594 218.946 273.732 218.495 273.894C218.043 274.056 217.489 274.19 217.264 274.191C216.773 274.195 215.02 274.749 214.258 275.143C213.625 275.471 213.264 275.503 213.264 275.234C213.264 275.06 214.268 274.53 215.828 273.881C216.978 273.403 219.173 272.966 220.426 272.966C221.112 272.966 221.674 272.886 221.674 272.788C221.674 272.625 222.474 272.443 222.989 272.433ZM230.986 272.618C231.093 272.618 231.269 272.629 231.519 272.654C235.177 273.03 238.179 273.594 238.563 273.978C238.682 274.097 238.94 274.195 239.135 274.195C239.33 274.195 239.616 274.321 239.77 274.475C239.924 274.63 240.254 274.82 240.502 274.899C240.751 274.978 240.954 275.128 240.954 275.233C240.954 275.339 241.056 275.424 241.181 275.424C241.822 275.424 244.057 277.794 245.021 279.496C245.53 280.395 246.082 282.44 246.082 283.429C246.082 283.971 245.992 284.469 245.883 284.537C245.625 284.696 245.074 283.388 244.849 282.082C244.556 280.38 243.571 277.883 243.192 277.883C243.09 277.883 243.005 277.788 243.005 277.673C243.005 277.336 240.897 275.424 240.524 275.424C240.337 275.424 240.069 275.286 239.929 275.117C239.788 274.948 239.523 274.811 239.339 274.811C239.156 274.811 238.59 274.681 238.082 274.521C236.73 274.096 235.26 273.753 233.984 273.564C233.366 273.473 232.827 273.301 232.788 273.182C232.748 273.063 232.423 272.959 232.066 272.951C231.709 272.944 231.232 272.852 231.006 272.748C230.821 272.663 230.807 272.62 230.987 272.618L230.986 272.618ZM191.807 273.173C191.99 273.174 192.401 273.631 192.849 274.463C193.129 274.982 193.187 275.278 193.039 275.426C192.756 275.708 192.311 275.175 191.884 274.042C191.661 273.449 191.665 273.173 191.807 273.173ZM262.45 273.447C262.518 273.451 262.56 273.521 262.609 273.65C262.68 273.835 262.561 274.327 262.344 274.744C261.93 275.542 261.588 275.789 261.375 275.445C261.162 275.101 261.471 274.261 261.99 273.774C262.233 273.547 262.363 273.442 262.45 273.447ZM190.477 274.096C190.536 274.1 190.602 274.11 190.677 274.13C191.079 274.235 191.585 275.089 191.372 275.302C191.161 275.513 190.994 275.441 190.511 274.928C190.059 274.448 190.067 274.077 190.477 274.096ZM267.901 274.398C268.07 274.426 268.234 274.991 268.234 275.953C268.234 276.451 268.153 276.858 268.054 276.858C267.668 276.858 267.488 276.304 267.572 275.373C267.635 274.679 267.769 274.376 267.901 274.398ZM263.809 274.423C263.893 274.43 263.927 274.502 263.888 274.618C263.839 274.765 263.677 274.927 263.529 274.976C263.375 275.027 263.299 274.95 263.35 274.797C263.399 274.649 263.56 274.488 263.709 274.438C263.747 274.425 263.781 274.421 263.809 274.423ZM265.932 274.605C266.31 274.605 267.003 275.276 267.003 275.641C267.003 276.143 266.556 276.154 266.112 275.664C265.763 275.279 265.648 274.605 265.932 274.605ZM188.461 274.81C188.767 274.81 188.681 275.129 188.276 275.495C187.856 275.875 187.625 275.928 187.625 275.644C187.625 275.397 188.214 274.81 188.461 274.81ZM212.836 275.424C213.186 275.424 213.097 275.832 212.716 275.979C212.294 276.14 211.623 276.793 211.623 277.041C211.623 277.142 211.503 277.27 211.356 277.327C210.708 277.575 209.528 280.633 209.077 283.233C209.007 283.64 208.768 284.136 208.547 284.336C208.175 284.672 208.135 284.674 208.013 284.356C207.731 283.622 208.255 281.533 209.223 279.534C209.843 278.255 212.331 275.424 212.836 275.424ZM264.742 275.678C264.829 275.682 264.878 275.723 264.905 275.802C265.143 276.498 266.967 277.708 268.18 277.973C268.546 278.054 268.897 278.204 268.962 278.308C269.026 278.412 269.327 278.498 269.631 278.498C269.934 278.498 270.447 278.637 270.77 278.806C271.093 278.974 271.525 279.112 271.73 279.112C271.934 279.112 272.24 279.25 272.409 279.419C272.578 279.588 272.826 279.726 272.959 279.726C273.461 279.726 276.233 282.146 276.233 282.584C276.233 282.679 276.371 282.809 276.541 282.874C276.886 283.006 276.965 283.619 276.637 283.619C276.52 283.619 276.368 283.47 276.298 283.287C275.905 282.264 272.539 279.726 271.575 279.726C271.36 279.726 271.005 279.591 270.786 279.426C270.567 279.26 270.157 279.122 269.874 279.119C268.871 279.109 265.989 278.032 264.996 277.297C264.39 276.849 264.244 276.821 263.56 277.028C262.301 277.408 260.666 277.67 258.286 277.873C257.045 277.979 255.578 278.209 255.025 278.384C253.874 278.747 251.759 279.911 251.004 280.596C250.27 281.263 249.237 282.623 249.079 283.131C249.004 283.37 248.763 283.728 248.542 283.927C248.186 284.249 248.128 284.254 248.018 283.967C247.838 283.499 249.393 280.997 250.626 279.773C252.65 277.761 255.188 276.92 259.974 276.676C262.651 276.539 263.136 276.459 263.919 276.023C264.348 275.785 264.598 275.675 264.742 275.678ZM189.604 275.763C189.816 275.752 190.056 275.866 190.423 276.083C191.094 276.478 191.616 276.56 194.228 276.681C199.111 276.908 201.329 277.657 203.48 279.809C204.179 280.509 204.848 281.215 204.964 281.377C205.44 282.04 206.085 283.452 206.085 283.83C206.085 284.375 205.714 284.341 205.454 283.773C204.901 282.562 204.495 281.997 203.428 280.956C201.388 278.963 199.049 278.042 195.428 277.804C193.261 277.661 191.251 277.33 190.537 276.998C190.166 276.825 189.945 276.853 189.511 277.129C188.622 277.694 186.995 278.401 185.779 278.75C183.131 279.51 181.741 279.994 181.164 280.358C180.826 280.572 180.414 280.811 180.248 280.89C179.853 281.079 178.409 282.535 177.847 283.311C177.298 284.071 176.969 283.848 177.479 283.062C177.925 282.374 179.812 280.471 180.241 280.274C180.411 280.197 180.918 279.908 181.369 279.632C181.821 279.356 182.374 279.123 182.6 279.114C182.826 279.106 183.19 278.964 183.409 278.798C183.628 278.633 184.089 278.494 184.434 278.491C184.779 278.487 185.241 278.349 185.46 278.184C185.679 278.018 185.996 277.883 186.164 277.883C186.711 277.883 188.219 277.045 188.7 276.475C189.102 275.997 189.331 275.776 189.604 275.763ZM155.601 275.766C155.855 275.77 156.041 275.833 156.287 275.96C156.821 276.236 156.858 276.341 156.858 277.54C156.858 278.758 156.819 278.863 156.09 279.556C155.667 279.959 155.007 280.392 154.623 280.52C153.777 280.802 153.588 280.797 153.074 280.484C152.166 279.93 151.921 279.459 152.004 278.428C152.114 277.076 152.871 276.324 154.505 275.945C155.025 275.824 155.347 275.764 155.601 275.766ZM298.724 275.811C299.608 275.779 300.688 276.111 301.396 276.778C302.005 277.352 302.077 277.537 302.074 278.522C302.074 279.753 302.006 279.894 301.213 280.398C300.552 280.818 300.16 280.822 299.231 280.417C297.615 279.713 296.738 277.977 297.282 276.561C297.466 276.081 298.036 275.836 298.724 275.811ZM166.136 282.677C167.805 282.683 168.697 282.996 170.553 283.86C171.8 284.44 173.58 286.117 173.412 286.554C173.212 287.077 172.985 286.982 171.896 285.916C170.619 284.668 169.639 284.163 167.624 283.715C166.152 283.388 165.664 283.379 162.045 283.617C158.841 283.829 157.844 283.829 156.854 283.617C156.021 283.441 155.628 283.26 155.628 283.052C155.628 282.802 155.786 282.778 156.5 282.921C157.663 283.153 159.625 283.128 163.214 282.835C164.458 282.734 165.377 282.673 166.136 282.676V282.677ZM288.252 282.703C289.634 282.703 291.551 282.855 294.539 283.136C295.394 283.217 296.399 283.166 297.165 283.003C298.076 282.81 298.468 282.801 298.635 282.968C299.306 283.638 296.151 283.871 290.87 283.541C288.362 283.385 287.765 283.41 286.46 283.728C284.523 284.199 283.559 284.707 282.299 285.92C281.24 286.939 280.866 287.098 280.678 286.608C280.452 286.019 282.336 284.45 284.438 283.477C285.583 282.947 286.475 282.702 288.252 282.703ZM276.974 283.812C277.094 283.831 277.266 283.959 277.33 284.126C277.394 284.291 277.368 284.475 277.271 284.534C277.126 284.624 276.848 284.215 276.848 283.911C276.848 283.828 276.902 283.8 276.974 283.812ZM176.96 284.03C177.072 284.03 177.163 284.099 177.162 284.183C177.162 284.268 177.069 284.475 176.96 284.644C176.799 284.893 176.76 284.864 176.758 284.491C176.758 284.237 176.847 284.03 176.96 284.03ZM277.765 285.149C277.776 285.154 277.791 285.173 277.805 285.208C277.862 285.349 277.862 285.579 277.805 285.72C277.748 285.861 277.701 285.745 277.701 285.464C277.701 285.253 277.728 285.135 277.765 285.149ZM176.289 285.397C176.33 285.39 176.34 285.488 176.338 285.677C176.338 285.954 176.209 286.342 176.059 286.539C175.823 286.851 175.524 287.018 175.524 286.839C175.524 286.807 175.708 286.418 175.934 285.976C176.131 285.589 176.236 285.406 176.289 285.397ZM207.182 285.453C207.632 285.435 208.094 285.537 208.53 285.763C209.602 286.316 209.542 287.957 208.413 288.947C206.908 290.267 204.855 289.482 204.855 287.587C204.855 286.869 204.968 286.636 205.58 286.1C206.043 285.694 206.603 285.475 207.182 285.453ZM246.929 285.464C247.73 285.464 248.048 285.577 248.574 286.047C249.131 286.544 249.227 286.77 249.227 287.585C249.227 288.305 249.109 288.666 248.747 289.051C247.982 289.864 246.724 289.77 245.672 288.821C244.979 288.195 244.851 287.954 244.851 287.275C244.851 286.114 245.597 285.464 246.929 285.464ZM278.288 286.063C278.322 286.068 278.363 286.089 278.405 286.131C278.471 286.197 278.486 286.42 278.435 286.626C278.35 286.984 278.339 286.984 278.187 286.633C278.056 286.333 278.133 286.041 278.287 286.063L278.288 286.063ZM221.266 286.151C221.473 286.146 221.666 286.159 221.828 286.193C222.251 286.281 224.95 286.36 227.827 286.369L233.057 286.386L233.9 286.934C234.739 287.479 235.74 288.998 235.508 289.373C235.347 289.634 235.006 289.407 235.006 289.037C235.006 288.661 234.265 287.916 233.469 287.492C233.13 287.311 232.16 287.071 231.314 286.958C229.699 286.742 220.886 286.768 219.868 286.992C219.542 287.063 219.055 287.417 218.785 287.778C218.339 288.373 218.293 288.637 218.291 290.586C218.291 293.123 218.572 293.708 220.184 294.502C221.138 294.972 221.301 294.984 227.007 295.001C232.729 295.018 232.868 295.009 233.596 294.557C234.449 294.028 235.211 293.137 235.211 292.668C235.211 292.462 235.281 292.418 235.409 292.546C235.637 292.773 235.46 293.659 235.187 293.659C235.088 293.659 235.006 293.781 235.006 293.93C235.006 294.295 234.247 294.951 233.356 295.356C232.729 295.641 232.333 295.657 230.485 295.471C228.957 295.318 227.652 295.321 225.949 295.482C222.769 295.782 222.005 295.753 220.53 295.277C218.317 294.563 217.376 293.336 217.37 291.159C217.366 289.45 218.15 287.103 218.727 287.103C218.857 287.103 219.008 286.988 219.062 286.847C219.194 286.504 220.367 286.168 221.266 286.151ZM226.352 287.721C230.924 287.717 231.412 287.752 232.248 288.133C232.75 288.361 233.16 288.676 233.16 288.833C233.16 288.989 233.266 289.153 233.396 289.196C233.526 289.239 233.582 289.408 233.522 289.572C233.435 289.808 233.382 289.793 233.259 289.495C233.151 289.233 232.968 289.156 232.651 289.235C232.336 289.314 232.054 289.195 231.721 288.841L231.243 288.332H226.586C222.697 288.332 221.887 288.383 221.674 288.64C221.533 288.809 221.324 288.947 221.21 288.947C221.095 288.947 220.878 289.108 220.729 289.305C220.47 289.645 220.456 289.645 220.45 289.292C220.442 288.858 220.816 288.091 221.14 287.874C221.265 287.791 223.61 287.722 226.352 287.721ZM238.766 287.753C239.312 287.808 240.339 288.748 240.339 289.238C240.339 289.717 240.075 289.634 239.416 288.947C239.091 288.609 238.651 288.333 238.437 288.333C237.908 288.333 238.102 287.837 238.664 287.754C238.694 287.75 238.73 287.749 238.766 287.754V287.753ZM214.917 287.767C215.013 287.767 215.109 287.776 215.203 287.8C215.782 287.945 215.732 288.333 215.134 288.333C214.733 288.333 213.879 289.143 213.879 289.524C213.879 289.657 213.781 289.767 213.662 289.767C213.54 289.767 213.472 289.481 213.508 289.121C213.581 288.382 214.245 287.779 214.917 287.767ZM279.206 287.923C280.52 287.923 281.771 289.068 281.771 290.269C281.771 290.971 281.28 291.91 280.701 292.315C280.444 292.495 279.822 292.635 279.279 292.635C278.465 292.635 278.199 292.527 277.581 291.945C276.985 291.383 276.848 291.107 276.85 290.459C276.85 289.132 277.976 287.923 279.206 287.923ZM174.845 287.93C175.353 287.944 175.891 288.133 176.4 288.552C177.113 289.139 177.165 289.257 177.165 290.305C177.165 291.309 177.095 291.493 176.504 292.032C175.949 292.537 175.671 292.635 174.776 292.635C173.792 292.635 173.658 292.574 173.077 291.871C171.578 290.054 173.028 287.88 174.845 287.93ZM216.375 289.069C216.391 289.069 216.401 289.075 216.409 289.085C216.675 289.35 216.54 290.118 216.17 290.452C215.769 290.815 214.595 290.915 214.402 290.603C214.338 290.5 214.57 290.353 214.918 290.276C215.302 290.192 215.691 289.905 215.912 289.543C216.086 289.257 216.28 289.063 216.375 289.069ZM237.074 289.084C237.213 289.092 237.408 289.248 237.633 289.552C237.872 289.876 238.35 290.202 238.693 290.278C239.036 290.353 239.265 290.499 239.201 290.603C239.137 290.706 238.783 290.791 238.414 290.791C237.693 290.791 236.852 290.102 236.852 289.509C236.852 289.218 236.935 289.077 237.074 289.084ZM220.789 291.282C220.837 291.286 220.902 291.305 220.984 291.335C221.194 291.411 221.716 291.785 222.144 292.165L222.923 292.855L225.221 292.728C226.485 292.658 228.291 292.692 229.235 292.802C230.599 292.963 231.092 292.946 231.639 292.717C232.496 292.359 232.544 292.36 232.544 292.734C232.544 292.902 232.21 293.179 231.802 293.349C230.956 293.702 229.81 293.732 229.058 293.421C228.731 293.286 227.489 293.258 225.643 293.343C221.969 293.513 221.115 293.237 220.745 291.761C220.652 291.393 220.647 291.269 220.789 291.282ZM214.87 292.289C215.008 292.275 215.104 292.336 215.233 292.464C215.49 292.722 215.44 292.795 214.837 293.031C214.425 293.192 214.062 293.52 213.94 293.839C213.767 294.291 213.711 294.321 213.585 294.03C213.331 293.444 213.543 292.982 214.255 292.567C214.552 292.393 214.732 292.303 214.87 292.289ZM238.64 292.315C239.185 292.279 240.325 293.21 240.334 293.813C240.342 294.21 240.046 294.118 239.518 293.557C239.254 293.275 238.92 293.045 238.777 293.045C238.409 293.045 238.203 292.638 238.448 292.393C238.496 292.345 238.562 292.32 238.64 292.315ZM216.271 293.557C216.413 293.548 216.546 293.784 216.546 294.187C216.546 294.534 216.34 294.815 215.88 295.096C215.149 295.541 215.039 295.569 214.837 295.367C214.597 295.127 214.686 294.985 215.303 294.621C215.634 294.425 215.964 294.082 216.036 293.857C216.1 293.657 216.187 293.563 216.271 293.557ZM237.098 293.566C237.197 293.573 237.347 293.708 237.629 293.998C237.942 294.319 238.38 294.687 238.602 294.816C238.883 294.98 238.941 295.118 238.794 295.273C238.643 295.432 238.385 295.395 237.887 295.141C237.061 294.72 236.736 294.257 236.923 293.769C236.976 293.632 237.021 293.561 237.098 293.566ZM225.7 300.66C226.909 300.678 227.162 300.874 226.814 301.524C226.486 302.135 226.629 303.823 227.086 304.737L227.386 305.337H226.196C225.457 305.337 224.92 305.234 224.78 305.065C224.306 304.494 223.93 303.261 223.93 302.275C223.93 301.047 224.375 300.64 225.7 300.66ZM229.02 300.676C229.535 300.672 229.93 300.747 230.003 300.866C230.082 300.994 230.127 301.728 230.102 302.498C230.068 303.496 230.148 304.029 230.377 304.356C230.554 304.608 230.698 304.931 230.698 305.075C230.698 305.425 228.766 305.43 228.509 305.081C227.83 304.159 227.596 303.328 227.659 302.059L227.724 300.728L228.792 300.681C228.87 300.677 228.946 300.676 229.02 300.676ZM222.091 300.83H223.315L223.27 302.753C223.24 304.043 223.31 304.777 223.481 304.983C223.688 305.232 223.674 305.313 223.406 305.416C222.656 305.703 221.723 305.546 221.425 305.081C221.049 304.495 220.443 302.63 220.443 302.058C220.443 301.087 220.788 300.83 222.091 300.83ZM231.953 300.859C232.155 300.864 232.375 300.898 232.605 300.964L233.254 301.15L233.276 302.68C233.288 303.522 233.371 304.464 233.459 304.774C233.612 305.313 233.587 305.337 232.892 305.337C232.366 305.337 232.056 305.199 231.772 304.838C231.229 304.149 230.631 302.154 230.784 301.545C230.898 301.09 231.347 300.843 231.953 300.859ZM218.005 301.06C218.16 301.056 218.334 301.064 218.53 301.074L219.52 301.137L219.637 302.469C219.701 303.202 219.862 304.06 219.996 304.377C220.129 304.695 220.238 305.076 220.238 305.226C220.238 305.386 219.924 305.535 219.469 305.59C218.805 305.67 218.611 305.59 218.051 305.002C217.626 304.556 217.326 303.963 217.18 303.283C216.81 301.561 216.923 301.085 218.005 301.06ZM235.296 301.219C235.983 301.215 236.781 301.307 236.935 301.453C237.039 301.553 237.29 301.539 237.508 301.423C237.722 301.308 238.192 301.244 238.553 301.279L239.211 301.342L239.249 303.079C239.271 304.092 239.378 304.846 239.505 304.889C240.073 305.078 239.62 305.337 238.722 305.337C237.855 305.337 237.67 305.261 237.35 304.774C237.146 304.464 236.939 303.722 236.89 303.126C236.835 302.464 236.713 302.071 236.575 302.117C236.243 302.228 236.024 303.471 236.162 304.466C236.276 305.287 236.254 305.337 235.779 305.337C235.501 305.337 235.131 305.176 234.956 304.979C234.047 303.957 233.654 301.633 234.34 301.329C234.51 301.254 234.883 301.22 235.296 301.219ZM215.093 301.24C216.144 301.24 216.325 301.393 216.07 302.066C215.89 302.543 215.921 302.879 216.224 303.744C216.433 304.338 216.683 304.913 216.78 305.02C216.877 305.127 216.956 305.38 216.956 305.583C216.956 305.875 216.79 305.952 216.153 305.952C215.199 305.952 214.392 305.227 213.957 303.978C213.389 302.35 213.85 301.24 215.093 301.24ZM240.632 301.483C240.83 301.488 241.081 301.527 241.398 301.589L242.287 301.765V303.017C242.287 303.947 242.385 304.377 242.666 304.688C242.875 304.918 242.985 305.204 242.91 305.324C242.714 305.642 241.729 305.59 241.222 305.235C240.456 304.7 239.929 303.621 239.929 302.592C239.929 301.753 240.04 301.467 240.632 301.483ZM212.854 301.611V302.95C212.854 303.954 212.965 304.477 213.296 305.038C213.664 305.661 213.69 305.817 213.45 305.968C212.831 306.36 211.66 306.178 211.13 305.608C210.586 305.022 209.982 303.439 209.982 302.598C209.982 302.032 210.147 301.954 211.778 301.748L212.854 301.611ZM243.004 301.834L244.184 301.896C245.362 301.957 245.363 301.958 245.294 302.572C245.205 303.369 245.205 304.923 245.294 305.418C245.41 306.057 244.976 306 244.327 305.289C243.438 304.315 243.006 303.429 243.006 302.581V301.834H243.004ZM208.773 301.956C209.25 301.97 209.291 302.229 209.216 303.039C209.151 303.728 209.25 304.294 209.559 305.008C209.798 305.559 209.961 306.042 209.921 306.081C209.882 306.12 209.572 306.208 209.232 306.276C208.097 306.503 206.917 304.92 206.909 303.16C206.909 302.4 207.17 302.152 208.136 302.013C208.405 301.974 208.613 301.951 208.773 301.956ZM246.939 302.189C247.54 302.17 248.462 302.319 248.661 302.518C248.709 302.566 248.65 303.124 248.534 303.758C248.417 304.393 248.348 305.169 248.381 305.483C248.436 306.009 248.381 306.059 247.667 306.118C246.933 306.179 246.873 306.137 246.492 305.299C245.948 304.101 245.944 302.557 246.485 302.268C246.575 302.22 246.739 302.195 246.939 302.189ZM205.767 302.394C205.853 302.398 205.911 302.404 205.932 302.415C206.016 302.458 206.089 303.064 206.092 303.761C206.096 304.55 206.212 305.18 206.399 305.428C206.565 305.646 206.7 305.992 206.7 306.196C206.7 306.49 206.536 306.566 205.896 306.566C205.275 306.566 204.951 306.426 204.474 305.949C203.673 305.15 202.952 303.699 203.041 303.067C203.105 302.615 203.229 302.561 204.444 302.454C204.994 302.405 205.509 302.383 205.767 302.394ZM250.527 302.49C250.7 302.482 250.889 302.516 251.096 302.595C251.366 302.699 251.378 302.778 251.167 303.032C250.926 303.322 250.842 305.289 251.029 306.251C251.14 306.821 250.576 306.874 249.914 306.354C249.45 305.989 249.364 305.764 249.364 304.906C249.364 303.37 249.781 302.526 250.527 302.49ZM201.085 302.673C201.455 302.673 201.794 302.756 201.935 302.93C202.049 303.071 202.21 303.601 202.293 304.108C202.379 304.63 202.698 305.351 203.029 305.769C203.35 306.176 203.554 306.568 203.482 306.64C203.41 306.712 202.777 306.771 202.075 306.771C200.931 306.771 200.764 306.717 200.453 306.243C200.262 305.952 199.972 305.201 199.809 304.574C199.538 303.537 199.543 303.4 199.856 303.054C200.081 302.806 200.609 302.672 201.085 302.673ZM253.088 302.673C253.774 302.673 253.876 302.734 253.876 303.144C253.876 303.403 253.775 303.717 253.651 303.841C253.416 304.075 253.491 305.885 253.77 306.719C254.097 307.697 252.629 306.82 252.171 305.765C251.285 303.721 251.596 302.673 253.088 302.673ZM198.123 303C198.346 303 198.506 303.008 198.548 303.029C198.632 303.072 198.701 303.506 198.701 303.994C198.701 304.482 198.884 305.284 199.107 305.775C199.331 306.266 199.516 306.783 199.518 306.924C199.536 307.922 197.309 306.193 196.568 304.632C195.977 303.388 196.096 303.134 197.317 303.037C197.613 303.013 197.9 303.001 198.123 303ZM255.828 303.062C256.543 303.05 257.443 303.108 257.621 303.218C257.72 303.278 257.647 303.498 257.458 303.706C257.093 304.108 256.964 306.053 257.243 306.924C257.381 307.354 257.331 307.385 256.492 307.385C255.147 307.385 254.696 306.735 254.696 304.792C254.696 303.882 254.789 303.254 254.937 303.163C255.036 303.102 255.399 303.07 255.828 303.062ZM194.126 303.288C194.977 303.288 195.269 303.572 195.501 304.626C195.574 304.96 195.956 305.639 196.348 306.133C196.74 306.628 197.06 307.1 197.06 307.183C197.06 307.265 196.714 307.39 196.292 307.461C195.869 307.532 195.337 307.635 195.112 307.691C194.886 307.747 194.55 307.675 194.365 307.531C193.92 307.185 192.842 305.183 192.663 304.369C192.493 303.595 192.909 303.288 194.126 303.288ZM258.839 303.357C259.027 303.347 259.283 303.409 259.666 303.518C260.831 303.848 261.019 304.04 260.531 304.397C260.192 304.645 260.133 304.937 260.138 306.344C260.141 307.916 260.119 308 259.691 308C258.68 308 257.659 305.373 258.18 304.114C258.399 303.589 258.525 303.373 258.839 303.357ZM190.406 303.727C190.52 303.723 190.646 303.727 190.787 303.739C191.614 303.799 191.628 303.813 191.841 304.824C192.092 306.016 192.516 306.971 192.956 307.334C193.229 307.56 193.219 307.626 192.868 307.897C192.175 308.432 191.602 308.268 190.818 307.313C190.416 306.822 190.085 306.292 190.084 306.135C190.084 305.978 189.952 305.48 189.795 305.029C189.47 304.1 189.612 303.745 190.406 303.727ZM261.986 303.76C262.038 303.757 262.092 303.76 262.147 303.777C262.393 303.843 262.894 303.897 263.26 303.899C263.819 303.903 263.926 303.978 263.926 304.375C263.926 304.635 263.791 305.027 263.625 305.246C263.268 305.717 263.202 307.908 263.538 308.115C263.697 308.213 263.681 308.309 263.487 308.432C262.789 308.873 261.803 308.281 261.302 307.119C260.745 305.827 261.2 303.813 261.986 303.76ZM188.205 304.188C188.746 304.193 188.856 304.464 188.856 305.322C188.856 305.916 189.275 306.907 189.917 307.831C190.279 308.351 190.28 308.385 189.936 308.481C188.435 308.904 188.267 308.876 187.436 308.063C186.59 307.234 185.705 305.359 185.909 304.827C186.033 304.505 186.29 304.421 187.758 304.223C187.932 304.2 188.08 304.187 188.205 304.188ZM265.999 304.312C266.966 304.312 267.237 304.738 266.669 305.366C266.36 305.708 266.287 306.107 266.296 307.407C266.307 309.174 266.134 309.372 265.209 308.66C264.594 308.187 264.295 307.093 264.453 305.894C264.614 304.672 264.966 304.312 265.999 304.312ZM268.263 304.774C268.402 304.781 268.579 304.804 268.809 304.837C270.047 305.013 270.254 305.214 269.759 305.761C269.436 306.117 269.37 306.484 269.39 307.814C269.416 309.551 269.445 309.512 268.282 309.289C267.336 309.107 266.86 306.603 267.527 305.315C267.756 304.874 267.844 304.752 268.263 304.774ZM184.397 304.957C184.438 304.957 184.477 304.962 184.513 304.966C184.977 305.019 185.071 305.139 185.12 305.746C185.186 306.543 185.668 307.622 186.292 308.364C186.518 308.632 186.702 308.912 186.702 308.985C186.702 309.161 185.395 309.355 184.804 309.268C183.594 309.089 181.375 305.993 182.115 305.516C182.564 305.227 183.774 304.938 184.397 304.957ZM271.22 305.372C271.312 305.372 271.422 305.389 271.558 305.416C271.902 305.485 272.358 305.541 272.573 305.541C273.094 305.541 273.28 306.085 272.909 306.522C272.497 307.006 271.926 308.614 271.926 309.287C271.926 309.701 271.824 309.843 271.528 309.843C271.076 309.843 270.909 309.633 270.546 308.614C270.199 307.637 270.221 306.668 270.61 305.918C270.822 305.507 270.943 305.369 271.22 305.372ZM180.398 305.801C180.639 305.776 180.774 306.052 181.185 307.023C181.43 307.602 181.98 308.428 182.407 308.857C182.834 309.286 183.138 309.682 183.082 309.738C182.862 309.957 181.755 310.027 181.329 309.849C180.602 309.544 178.362 307.194 178.436 306.813C178.473 306.625 178.778 306.39 179.115 306.29C179.453 306.19 179.899 306.02 180.108 305.913C180.225 305.852 180.318 305.81 180.398 305.801ZM274.301 306.156C274.567 306.156 275.11 306.311 275.508 306.501C276.224 306.842 276.431 307.239 276.026 307.489C275.68 307.702 275.002 309.178 275.002 309.716C275.002 309.993 274.946 310.365 274.878 310.544C274.727 310.938 274.653 310.933 273.874 310.479C273.31 310.149 273.254 310.015 273.198 308.855C273.122 307.272 273.578 306.156 274.301 306.156ZM231.021 306.385C237.394 306.36 245.592 306.702 247.106 307.166C247.5 307.286 248.423 307.388 249.157 307.392C249.891 307.396 251.045 307.533 251.722 307.696C252.399 307.859 253.415 307.996 253.978 307.999C254.543 308.003 255.512 308.141 256.132 308.307C256.753 308.473 257.662 308.61 258.152 308.612C258.642 308.612 259.519 308.745 260.101 308.906C260.682 309.066 261.689 309.257 262.337 309.33C262.986 309.403 263.516 309.558 263.516 309.673C263.516 310.063 259.767 309.727 255.927 308.994C255.306 308.876 254.015 308.705 253.056 308.614C252.097 308.523 250.574 308.35 249.671 308.229C243.263 307.369 243.009 307.357 229.262 307.345C217.572 307.335 215.655 307.377 214.495 307.664C213.494 307.911 212.132 307.994 209.036 307.996C206.767 307.996 204.414 308.099 203.806 308.221C203.198 308.342 201.962 308.514 201.06 308.603C200.158 308.692 198.912 308.863 198.291 308.983C197.078 309.218 194.21 309.688 191.727 310.059C187.941 310.624 188.181 310.576 184.856 311.428C184.18 311.601 182.887 311.969 181.985 312.246C181.082 312.522 180.021 312.825 179.626 312.919C176.869 313.572 174.116 315.067 172.404 316.84C171.562 317.712 171.217 317.828 171.217 317.238C171.217 316.659 173.838 314.348 175.346 313.598C177.19 312.68 178.101 312.302 178.466 312.302C178.64 312.302 178.833 312.218 178.897 312.115C178.961 312.012 179.396 311.863 179.863 311.784C180.33 311.705 181.019 311.513 181.394 311.357C181.768 311.2 182.343 311.073 182.671 311.073C182.999 311.073 183.599 310.934 184.005 310.765C184.409 310.596 185.044 310.457 185.414 310.456C185.784 310.456 186.54 310.316 187.094 310.149C187.648 309.981 188.508 309.843 189.005 309.843C189.502 309.843 190.093 309.745 190.318 309.625C190.543 309.504 191.344 309.322 192.099 309.219C195.544 308.748 196.611 308.581 197.471 308.376C197.978 308.256 199.501 308.079 200.855 307.984C202.209 307.889 204.054 307.721 204.957 307.612C205.86 307.503 207.706 307.407 209.059 307.398C210.413 307.389 212.29 307.294 213.23 307.186C214.17 307.078 216.616 306.939 218.666 306.878C220.715 306.817 223.822 306.666 225.571 306.542C226.975 306.443 228.896 306.394 231.021 306.385ZM177.035 306.975C177.375 306.975 177.59 307.188 177.855 307.787C178.052 308.234 178.624 308.96 179.125 309.401C179.626 309.842 180.036 310.297 180.036 310.413C180.036 310.528 179.746 310.724 179.39 310.848C178.182 311.269 177.504 311.133 176.588 310.289C175.129 308.943 174.785 307.385 175.947 307.385C176.152 307.385 176.377 307.293 176.447 307.18C176.516 307.068 176.781 306.975 177.035 306.975ZM277.416 307.208C277.567 307.212 277.763 307.266 278.065 307.357C279 307.636 279.088 307.91 278.488 308.672C278.231 308.998 278.028 309.664 277.946 310.441C277.827 311.577 277.773 311.687 277.332 311.687C277.066 311.687 276.654 311.492 276.415 311.254C276.072 310.911 276.008 310.667 276.105 310.076C276.174 309.666 276.234 309.101 276.239 308.819C276.243 308.537 276.469 308.037 276.739 307.707C277.036 307.344 277.164 307.204 277.416 307.208ZM279.962 308.051C280.085 308.044 280.225 308.067 280.384 308.117C280.701 308.218 280.757 308.36 280.651 308.788C280.577 309.087 280.465 310.138 280.401 311.124C280.301 312.679 280.236 312.917 279.912 312.917C278.987 312.917 278.584 310.847 279.154 309.024C279.358 308.369 279.59 308.073 279.962 308.051ZM173.919 308.205C173.975 308.205 174.279 308.713 174.594 309.335C174.909 309.957 175.431 310.689 175.755 310.961C176.463 311.555 176.51 312.005 175.883 312.173C175.28 312.334 175.332 312.345 174.457 311.883C174.039 311.663 173.531 311.25 173.328 310.966C173.126 310.682 172.799 310.253 172.601 310.013C172.045 309.335 172.162 308.933 173.029 308.551C173.461 308.36 173.862 308.205 173.919 308.205ZM282.032 309.116C282.476 309.104 283.111 309.378 283.449 309.785C283.799 310.206 283.683 313.278 283.294 313.882C283.133 314.132 283.002 314.472 283.002 314.638C283.002 315.486 282.013 314.813 281.58 313.671C281.233 312.756 281.297 309.537 281.669 309.229C281.757 309.156 281.884 309.12 282.032 309.116ZM171.005 309.659C171.296 309.651 171.451 309.838 171.598 310.257C171.717 310.598 172.288 311.338 172.868 311.902C173.526 312.543 173.879 313.041 173.806 313.23C173.642 313.656 172.297 313.595 171.449 313.122C169.662 312.126 169.069 310.438 170.307 309.875C170.607 309.738 170.831 309.663 171.005 309.659ZM264.56 309.843C265.253 309.843 266.321 309.952 267.282 310.159C268.087 310.333 269.439 310.616 270.285 310.786C275.485 311.835 279.601 313.604 281.72 315.701C282.425 316.399 283.002 317.118 283.002 317.299C283.002 317.878 282.515 317.654 281.504 316.606C279.438 314.468 276.366 313.176 269.157 311.413C268.48 311.248 267.511 311.005 267.003 310.875C266.496 310.744 265.627 310.554 265.072 310.452C264.517 310.35 263.968 310.172 263.852 310.055C263.709 309.912 264.02 309.844 264.56 309.843ZM285.027 310.905C285.193 310.898 285.485 311.177 285.962 311.759C286.768 312.742 286.822 312.975 286.417 313.749C286.266 314.039 286.085 314.5 286.015 314.774C285.945 315.048 285.601 315.618 285.25 316.041C284.499 316.946 283.945 317.018 283.549 316.262C283.294 315.777 283.305 315.642 283.643 315.07C284.152 314.209 284.836 312.132 284.843 311.431C284.843 311.088 284.898 310.91 285.027 310.905ZM168.238 311.098C168.46 311.072 168.666 311.313 168.906 311.841C169.341 312.798 170.637 314.037 171.45 314.274L172.064 314.453L171.109 315.682C170.583 316.358 170.136 316.93 170.115 316.952C169.936 317.14 168.686 315.779 168.332 315.01C168.087 314.478 167.805 313.883 167.706 313.687C167.437 313.159 167.498 311.841 167.81 311.431C167.966 311.227 168.104 311.114 168.238 311.098Z" fill="currentcolor"/>

</svg>
