<svg  viewBox="0 0 1180 580" fill="currentcolor" xmlns="http://www.w3.org/2000/svg">
<path d="M265.81 331.569C261.043 330.193 257.231 326.619 256.173 322.535C255.821 321.177 255.851 319.078 256.239 317.872C256.851 315.972 258.22 314.206 259.96 313.074L260.895 312.465L261.711 312.702C262.16 312.833 262.527 312.956 262.527 312.977C262.527 312.998 262.216 313.232 261.835 313.498C260.825 314.203 259.23 315.784 258.598 316.707C256.213 320.193 256.761 324.08 260.111 327.425C261.153 328.465 262.779 329.7 263.84 330.258C264.151 330.422 264.128 330.364 263.679 329.866C262.763 328.85 261.908 327.468 261.538 326.407C260.598 323.708 261.774 320.969 264.801 318.806C267.004 317.233 269.19 316.549 272.301 316.46C274.294 316.403 274.907 316.456 277.815 316.95C278.539 317.073 279.475 316.646 280.213 315.858C281.854 314.106 281.678 311.813 279.808 310.572C278.702 309.838 274.533 309.336 270.623 309.466C265.271 309.644 261.434 310.432 250.639 313.571C238.951 316.97 234.078 318.06 228.101 318.611C225.831 318.82 220.536 318.82 218.401 318.611C213.411 318.122 210.377 317.376 204.867 315.286L202.273 314.303L201.116 311.972C199.233 308.178 198.029 304.625 195.949 296.727C195.352 294.462 195.346 294.414 195.65 294.414C195.948 294.414 197.759 295.872 197.759 296.112C197.759 296.892 201.996 308.453 203.034 310.505C204.468 313.34 205.775 314.25 209.721 315.162C210.965 315.449 212.212 315.751 212.493 315.832C213.26 316.055 215.87 316.547 217.598 316.795C219.765 317.107 225.561 317.221 228.361 317.009C235.167 316.491 244.989 314.409 257.057 310.926C264.904 308.661 268.593 307.965 272.739 307.965C274.592 307.965 277.731 308.266 278.98 308.565C280.991 309.044 282.758 310.359 283.103 311.631C283.48 313.024 282.885 315.137 281.91 315.868C280.478 316.941 279.35 317.202 276.717 317.072C272.123 316.845 268.079 317.782 265.188 319.743C264.176 320.43 263.484 321.189 262.88 322.278C262.494 322.974 262.455 323.172 262.455 324.429C262.455 325.623 262.508 325.927 262.842 326.639C263.425 327.882 264.284 329.07 265.607 330.466C266.262 331.157 266.772 331.745 266.741 331.772C266.71 331.799 266.291 331.708 265.81 331.569ZM284.129 308.804C284.122 308.664 284.279 307.713 284.477 306.691C285.328 302.297 285.48 301.01 285.491 298.057C285.501 295.509 285.469 295.11 285.179 294.188C284.602 292.356 283.736 291.41 282.22 290.956C281.567 290.761 280.77 290.718 277.917 290.726C270.446 290.749 263.426 291.671 247.065 294.778C233.463 297.362 226.792 298.323 220.158 298.656C213.416 298.994 207.074 298.209 202.719 296.499C201.252 295.923 198.978 294.749 197.832 293.977C195.996 292.74 195.401 291.817 195.392 290.197C195.384 288.561 196.457 286.707 198.11 285.504C198.876 284.946 198.987 284.982 198.635 285.673C197.843 287.223 197.723 289.121 198.34 290.33C199.049 291.718 200.926 293.291 202.865 294.122C205.221 295.133 208.502 296.08 211.441 296.599C214.989 297.225 220.598 297.474 224.892 297.195C233.169 296.658 238.887 295.682 255.234 292.015C266.675 289.448 271.135 288.678 275.656 288.491C279.238 288.342 282.045 288.8 283.971 289.849C285.43 290.643 286.054 291.224 286.566 292.262C287.922 295.013 287.679 299.441 285.879 304.753C285.124 306.982 284.149 309.238 284.129 308.804ZM213.808 295.034C213.812 294.893 213.903 294.345 214.015 293.814C214.577 291.17 216.818 288.35 220.572 285.566C222.27 284.306 224.784 282.758 225.13 282.758C225.596 282.758 225.199 283.209 223.579 284.52C219.278 288 216.535 291.397 215.929 293.991C215.815 294.48 215.689 294.913 215.65 294.952C215.547 295.055 214.517 295.281 214.134 295.285C213.916 295.289 213.806 295.203 213.808 295.034ZM195.134 282.796C195.134 282.735 195.444 282.521 195.823 282.321C196.837 281.785 198.232 280.414 198.746 279.448C199.496 278.037 199.696 276.982 199.625 274.808C199.564 272.947 199.55 272.88 198.997 271.762C198.416 270.589 197.91 269.882 197.488 269.656C197.287 269.548 197.249 269.612 197.249 270.06C197.249 270.786 196.786 270.864 196.251 270.229C195.48 269.314 195.386 267.75 196.083 267.433C196.71 267.148 197.524 267.678 198.37 268.92C198.606 269.268 198.608 269.257 198.423 268.625C197.55 265.643 195.411 261.663 193.784 259.993C193.403 259.601 193.092 259.23 193.092 259.168C193.092 259.107 193.272 258.973 193.493 258.872L193.894 258.689L193.383 258.261C192.583 257.592 191.645 257.204 190.679 257.142C189.825 257.087 189.783 257.101 189.271 257.627C188.981 257.926 188.683 258.132 188.61 258.087C188.536 258.041 188.387 257.738 188.28 257.414C188.173 257.089 188.034 256.824 187.973 256.824C187.739 256.824 187.263 257.679 187.169 258.268C187.115 258.604 187.155 259.468 187.258 260.186C187.361 260.904 187.408 261.529 187.361 261.576C187.315 261.622 187.071 261.44 186.82 261.172L186.362 260.685L186.458 261.405C186.766 263.726 188.905 266.535 191.335 267.81C192.062 268.192 192.355 268.43 192.389 268.665C192.419 268.875 192.553 269.006 192.771 269.037C193.53 269.145 193.813 268.309 193.529 266.803C193.431 266.283 193.308 265.857 193.256 265.857C193.205 265.857 193.076 266.054 192.969 266.294C192.443 267.482 190.618 266.176 189.949 264.131C189.349 262.3 190.31 261.091 191.767 261.844C192.874 262.416 194.399 264.849 194.717 266.551C194.922 267.647 194.801 269.073 194.453 269.675C193.84 270.737 192.492 270.915 191.008 270.13C189.97 269.582 187.905 267.472 187.178 266.218C186.258 264.629 185.674 263.241 185.271 261.683C184.777 259.772 184.822 257.75 185.385 256.528C186.281 254.583 188.021 253.818 190.028 254.487C192.113 255.183 194.066 257.022 195.953 260.069C202.692 270.951 202.598 281.765 195.754 282.813C195.413 282.865 195.134 282.857 195.134 282.796ZM289.372 282.671C283.904 281.203 283.345 272.906 288.071 263.38C290.791 257.898 293.554 254.914 296.48 254.301C297.861 254.012 299.212 254.582 300.026 255.797C301.266 257.647 301.188 260.536 299.806 263.921C298.027 268.281 294.443 271.387 292.248 270.471C290.746 269.844 290.555 267.192 291.826 264.629C293.085 262.091 294.716 260.986 295.72 261.989C296.578 262.846 295.765 265.441 294.337 266.401C293.651 266.863 293.204 266.83 292.899 266.295C292.762 266.055 292.607 265.858 292.554 265.858C292.501 265.858 292.38 266.321 292.284 266.889C292.064 268.191 292.288 268.963 292.899 269.035C293.198 269.07 293.326 268.99 293.478 268.673C293.6 268.418 294.023 268.077 294.62 267.754C295.863 267.081 297.759 265.203 298.446 263.963C299.003 262.958 299.436 261.678 299.429 261.059L299.425 260.685L298.981 261.172C298.737 261.44 298.502 261.624 298.459 261.581C298.415 261.537 298.463 260.949 298.563 260.273C298.78 258.814 298.695 257.804 298.31 257.29C297.893 256.732 297.753 256.754 297.536 257.41C297.428 257.736 297.28 258.04 297.208 258.085C297.136 258.13 296.859 257.93 296.594 257.641C296.153 257.159 296.044 257.115 295.313 257.115C294.691 257.115 294.287 257.228 293.497 257.623C292.938 257.902 292.363 258.261 292.218 258.42C291.963 258.702 291.966 258.714 292.339 258.856C292.551 258.936 292.723 259.067 292.723 259.146C292.723 259.225 292.428 259.592 292.068 259.963C291.11 260.948 289.936 262.783 288.946 264.845C288.2 266.401 287.097 269.208 287.232 269.208C287.257 269.208 287.493 268.907 287.758 268.539C288.999 266.812 290.412 266.965 290.194 268.803C290.041 270.096 288.79 271.246 288.555 270.311C288.504 270.105 288.5 269.837 288.547 269.715C288.617 269.533 288.58 269.521 288.339 269.649C287.937 269.864 287.251 270.841 286.72 271.952C286.327 272.774 286.267 273.076 286.197 274.604C286.1 276.7 286.286 277.79 286.985 279.216C287.562 280.394 288.516 281.386 289.838 282.183C291.076 282.928 290.924 283.087 289.372 282.671ZM191.949 281.629C191.877 281.489 191.78 280.719 191.734 279.917C191.59 277.392 190.693 274.797 189.518 273.505C189.018 272.956 188.993 272.945 189.071 273.315C189.117 273.531 189.083 273.751 188.997 273.804C188.507 274.107 187.444 271.943 187.846 271.46C188.095 271.16 188.199 271.188 188.813 271.722L189.359 272.195L188.729 271.029C187.831 269.368 186.092 266.782 185.307 265.942C184.797 265.396 184.657 265.147 184.72 264.899C184.787 264.629 184.686 264.505 184.139 264.185C183.267 263.674 182.736 263.73 182.443 264.36C182.171 264.945 182.072 264.951 181.786 264.4C181.662 264.16 181.508 263.963 181.445 263.963C181.381 263.963 181.175 263.592 180.987 263.138L180.645 262.314L180.977 262.046C182.205 261.052 184.577 262.947 187.295 267.096C189.722 270.8 191.434 274.548 192.122 277.659C192.653 280.063 192.535 282.765 191.949 281.629ZM293.398 281.312C293.16 279.821 293.919 276.21 295.004 273.678C296.393 270.437 298.527 266.839 300.478 264.448C302.324 262.185 303.923 261.305 304.84 262.047L305.174 262.317L304.84 263.14C304.656 263.593 304.449 263.963 304.38 263.963C304.311 263.963 304.153 264.16 304.029 264.4C303.739 264.959 303.612 264.951 303.439 264.364C303.248 263.716 302.595 263.647 301.688 264.178C301.004 264.578 300.964 264.64 301.172 264.969C301.266 265.116 301.103 265.375 300.591 265.895C299.789 266.709 298.039 269.28 297.097 271.029L296.47 272.193L297.008 271.721C297.621 271.184 297.719 271.159 297.981 271.474C298.136 271.66 298.126 271.838 297.927 272.468C297.653 273.335 297.018 274.065 296.818 273.742C296.752 273.635 296.727 273.407 296.763 273.235C296.813 272.998 296.706 273.062 296.312 273.507C295.126 274.845 294.186 277.554 294.106 279.871C294.06 281.199 293.892 281.884 293.612 281.884C293.545 281.884 293.449 281.627 293.398 281.312ZM200.604 281.504C199.402 281.329 199.127 281.083 199.984 280.949C202.665 280.532 203.493 280.358 204.654 279.97C207.054 279.169 208.945 277.873 210.214 276.159C211.135 274.915 211.537 274.158 212.002 272.792C212.406 271.605 212.432 270.876 212.116 269.49C211.899 268.536 211.166 267.177 210.809 267.066C210.725 267.04 210.573 267.249 210.471 267.53C210.155 268.404 209.314 268.41 208.724 267.542C208.195 266.764 208.161 266.047 208.611 265.16C209.034 264.326 209.374 264.079 210.102 264.079C211.164 264.079 212.282 265.207 212.759 266.759L213.032 267.647L213.132 266.551C213.26 265.14 212.995 261.799 212.615 260.037C212.077 257.54 210.965 254.857 210.17 254.138C209.587 253.611 209.816 253.387 211.034 253.293L211.545 253.254L210.541 252.265C209.141 250.887 207.507 250.091 206.025 250.066C205.186 250.052 204.845 250.117 204.293 250.399C203.411 250.849 203.157 250.687 203.157 249.675C203.157 249.289 203.108 248.943 203.047 248.906C202.821 248.767 201.606 249.292 201.132 249.734C200.536 250.289 199.933 251.566 199.586 253.005C199.433 253.638 199.263 254.047 199.164 254.017C199.074 253.988 198.835 253.658 198.635 253.282C198.434 252.906 198.217 252.599 198.153 252.599C197.854 252.599 197.558 253.738 197.568 254.857C197.595 257.911 199.266 260.655 202.61 263.135C203.052 263.463 203.157 263.634 203.157 264.028C203.157 264.558 203.337 264.691 204.051 264.691C204.625 264.691 205.257 264.352 205.605 263.856C205.998 263.295 206.395 262.022 206.339 261.497L206.293 261.059L205.651 261.491C204.871 262.016 204.462 262.032 203.669 261.567C202.077 260.635 201.352 257.821 202.328 256.361C202.974 255.395 204.485 255.071 205.627 255.653C207.523 256.619 208.838 260.168 208.209 262.62C207.296 266.181 204.702 267.482 201.524 265.974C199.596 265.059 198.117 263.51 197.029 261.267C195.987 259.12 195.665 257.665 195.656 255.075C195.645 251.809 196.274 250.01 198.051 248.223C199.731 246.534 201.619 245.812 204.032 245.935C206.353 246.054 208.246 246.93 210.091 248.737C212.639 251.235 214.107 254.602 215.139 260.32C215.609 262.921 215.614 267.254 215.151 269.576C213.921 275.742 210.705 279.779 205.924 281.16C204.857 281.469 201.747 281.669 200.604 281.504ZM281.345 281.5C275.508 280.368 271.904 276.23 270.603 269.168C270.26 267.309 270.255 263.139 270.593 260.968C271.107 257.666 272.12 254.212 273.154 252.233C275.191 248.335 278.63 245.894 282.085 245.894C283.554 245.894 284.506 246.12 285.832 246.785C288.032 247.888 289.547 249.985 290.05 252.626C290.543 255.214 290.045 258.804 288.855 261.243C287.052 264.936 283.467 267.215 280.684 266.437C279.843 266.202 278.676 265.173 278.212 264.258C277.801 263.448 277.406 262.001 277.409 261.318C277.414 260.482 277.82 258.855 278.258 257.92C279.071 256.185 280.123 255.365 281.537 255.365C282.91 255.365 283.765 256.18 283.916 257.633C284.085 259.27 283.284 261.014 282.082 261.626C281.333 262.008 280.917 261.999 280.308 261.587C279.349 260.939 279.396 260.927 279.508 261.79C279.734 263.517 280.633 264.688 281.735 264.689C282.471 264.689 282.658 264.56 282.658 264.046C282.658 263.635 282.803 263.466 283.885 262.616C286.043 260.923 287.482 258.845 288.06 256.587C288.218 255.97 288.344 255.163 288.341 254.795C288.334 254.051 287.924 252.716 287.678 252.638C287.591 252.611 287.401 252.853 287.255 253.176C287.109 253.499 286.903 253.836 286.797 253.924C286.563 254.117 286.419 253.825 286.079 252.46C285.568 250.41 284.485 249.13 283.095 248.933C282.752 248.884 282.729 248.924 282.687 249.634C282.627 250.669 282.399 250.829 281.603 250.395C280.702 249.903 279.121 249.933 277.936 250.464C276.474 251.119 274.489 252.712 274.489 253.23C274.489 253.282 274.787 253.325 275.15 253.325C275.978 253.325 276.139 253.617 275.616 254.172C274.772 255.068 273.762 257.579 273.195 260.196C272.864 261.719 272.62 264.916 272.707 266.57L272.764 267.65L273.08 266.757C273.681 265.055 274.656 264.078 275.753 264.078C276.424 264.078 276.877 264.408 277.244 265.165C277.665 266.033 277.638 266.685 277.151 267.435C276.526 268.399 275.674 268.44 275.341 267.521C275.127 266.93 274.971 266.944 274.531 267.592C274.016 268.351 273.636 269.531 273.535 270.686C273.449 271.656 273.484 271.876 273.908 273.037C275.084 276.26 277.658 278.765 280.965 279.906C281.885 280.223 283.958 280.67 285.758 280.94C286.344 281.027 286.463 281.204 286.05 281.373C285.747 281.498 281.871 281.602 281.345 281.5ZM216.796 280.635C215.607 280.442 214.8 280.263 213.186 279.832C212.885 279.751 212.639 279.606 212.639 279.509C212.639 279.376 213.554 279.331 216.395 279.326C219.228 279.321 220.551 279.257 221.777 279.065C225.139 278.538 227.904 277.555 230.143 276.09C231.619 275.126 233.943 272.823 234.66 271.616C235.141 270.807 235.166 270.697 235.171 269.367C235.177 267.752 234.911 266.801 234.216 265.96C233.97 265.662 233.723 265.418 233.666 265.418C233.609 265.418 233.489 265.613 233.399 265.851C233.184 266.42 232.398 266.802 231.709 266.673C230.853 266.512 230.078 265.134 230.295 264.158C230.545 263.042 232.043 261.918 233.272 261.925C235.108 261.935 236.706 263.709 236.978 266.039L237.083 266.948L237.478 265.782C238.473 262.845 238.905 259.368 238.614 256.635C238.321 253.889 237.557 251.506 236.678 250.599C236.282 250.19 236.25 250.101 236.425 249.89C236.594 249.687 236.799 249.664 237.688 249.744C238.272 249.797 238.75 249.788 238.75 249.724C238.75 249.543 237.569 248.169 237 247.688C235.611 246.514 233.819 245.564 232.22 245.156C230.888 244.816 229.961 244.8 228.805 245.099C227.395 245.464 227.057 245.166 227.376 243.838C227.472 243.438 227.522 243.081 227.486 243.046C227.451 243.011 226.874 243.051 226.205 243.135C223.958 243.416 222.558 244.429 221.081 246.843C220.66 247.533 220.258 248.131 220.19 248.174C219.967 248.311 219.681 247.942 219.495 247.278C219.171 246.122 218.733 246.096 217.975 247.189C216.497 249.318 216.869 252.597 218.931 255.619C219.576 256.564 221.111 258.15 222.316 259.116C223.203 259.826 223.305 259.959 223.224 260.299C223.041 261.066 223.056 261.096 223.725 261.301C225.189 261.75 226.955 261.143 227.892 259.869C228.389 259.192 229.052 257.869 228.947 257.764C228.917 257.734 228.449 257.87 227.907 258.067C226.652 258.522 226.012 258.518 225.07 258.049C223.819 257.427 223.019 256.221 222.887 254.76C222.734 253.079 223.432 251.738 224.81 251.065C225.553 250.702 225.736 250.673 226.899 250.731C229.885 250.881 231.573 252.672 231.974 256.118C232.136 257.504 231.817 258.922 231.074 260.125C228.343 264.548 222.957 264.993 218.258 261.185C213.956 257.698 212.716 251.378 215.272 245.973C216.123 244.174 217.359 242.815 219.229 241.62C221.76 240.002 225.278 239.239 228.484 239.611C235.519 240.428 240.596 245.143 241.871 252.044C242.988 258.093 242.293 264.128 239.92 269.003C238.804 271.295 237.571 273.025 235.768 274.825C232.813 277.776 229.615 279.515 225.431 280.445C223.638 280.843 218.75 280.951 216.796 280.635ZM261.579 280.648C255.347 279.655 250.143 276.181 246.903 270.85C244.297 266.562 243.105 261.142 243.536 255.548C243.932 250.415 245.135 247.152 247.643 244.407C252.707 238.863 261.763 237.89 267.553 242.267C269.379 243.649 270.695 245.687 271.458 248.317C271.743 249.301 271.79 249.796 271.788 251.795C271.784 254.462 271.616 255.291 270.693 257.186C269.248 260.152 266.855 262.261 263.713 263.336C262.209 263.851 259.985 263.878 258.662 263.397C256.912 262.761 255.303 261.308 254.42 259.568C253.904 258.55 253.725 256.852 253.981 255.39C254.491 252.473 256.16 250.87 258.832 250.73C260.776 250.628 261.95 251.227 262.62 252.663C263.123 253.743 263.096 255.018 262.546 256.166C262.057 257.185 261.544 257.708 260.631 258.121C259.765 258.513 259.102 258.5 257.908 258.067C257.366 257.871 256.898 257.733 256.87 257.762C256.737 257.894 257.678 259.571 258.206 260.143C258.957 260.956 259.741 261.353 260.766 261.439C261.684 261.516 262.766 261.207 262.714 260.883C262.697 260.773 262.642 260.513 262.592 260.305C262.514 259.977 262.606 259.844 263.281 259.311C265.822 257.3 267.53 255.118 268.317 252.874C268.621 252.01 268.699 251.505 268.712 250.336C268.726 248.973 268.697 248.815 268.259 247.927C267.742 246.876 267.176 246.252 266.854 246.375C266.739 246.419 266.528 246.772 266.386 247.158C266.097 247.944 265.832 248.301 265.63 248.177C265.555 248.131 265.177 247.556 264.789 246.9C263.892 245.383 262.703 244.168 261.616 243.657C260.83 243.288 258.517 242.857 258.329 243.045C258.286 243.089 258.325 243.378 258.42 243.688C258.846 245.11 258.527 245.439 257.051 245.097C255.773 244.801 254.924 244.816 253.574 245.161C251.521 245.686 249.048 247.232 247.725 248.818C246.873 249.84 246.881 249.871 247.98 249.754C249.553 249.585 249.909 249.862 249.107 250.629C248.635 251.081 247.949 252.694 247.542 254.31C247.348 255.078 247.293 255.976 247.289 258.425C247.283 261.858 247.403 262.727 248.267 265.491L248.722 266.948L248.845 266.034C248.986 264.982 249.471 263.802 250.036 263.135C250.865 262.154 252.565 261.658 253.586 262.097C254.801 262.62 255.784 263.941 255.587 264.785C255.448 265.383 254.833 266.408 254.509 266.581C253.816 266.952 252.761 266.585 252.44 265.859C252.333 265.616 252.201 265.418 252.148 265.418C251.972 265.418 251.255 266.355 251.043 266.861C250.71 267.655 250.555 268.91 250.657 269.985C250.736 270.809 250.849 271.127 251.308 271.814C253.411 274.96 256.904 277.338 261.048 278.445C263.646 279.14 265.352 279.319 269.42 279.326C273.981 279.334 274.289 279.531 270.916 280.281C268.323 280.857 263.968 281.028 261.579 280.648ZM237.004 280.35C235.932 279.866 235.395 278.993 235.395 277.734C235.395 276.27 236.137 275.215 238.713 273.016C239.81 272.079 240.05 272.254 239.347 273.48C238.75 274.524 238.517 275.215 238.387 276.329L238.28 277.253L238.841 276.872C239.504 276.422 240.533 276.356 241.067 276.729C241.572 277.082 241.833 277.81 241.665 278.395C241.493 278.995 240.757 279.774 239.99 280.169C239.216 280.567 237.691 280.66 237.004 280.35ZM246.043 280.435C244.508 279.969 243.379 278.521 243.741 277.484C244.097 276.464 245.479 276.154 246.52 276.861C247.154 277.291 247.156 277.287 246.91 275.763C246.812 275.159 246.546 274.425 246.175 273.736C245.407 272.311 245.512 272.039 246.51 272.872C249.097 275.034 249.994 276.267 250.005 277.676C250.011 278.535 249.895 278.918 249.446 279.516C248.768 280.421 247.3 280.817 246.043 280.435ZM190.302 279.119C189.934 278.751 189.864 278.581 189.922 278.199C190.006 277.648 189.848 277.29 189.423 277.063C189.185 276.935 189.086 276.943 188.985 277.096C188.883 277.249 188.775 277.197 188.494 276.856C188.051 276.319 188.042 276.134 188.445 275.852C188.715 275.663 188.812 275.66 189.138 275.833C189.905 276.239 191.049 278.081 191.049 278.909C191.049 279.581 190.828 279.644 190.302 279.119ZM194.496 277.968C193.414 274.555 193.718 272.703 195.359 272.703C195.946 272.703 196.104 272.78 196.742 273.376C197.14 273.748 197.66 274.444 197.903 274.93C198.876 276.875 198.14 278.642 196.88 277.384C196.193 276.697 196.121 275.821 196.739 275.659C197.134 275.556 197.107 275.425 196.581 274.9C196.108 274.427 195.555 274.209 195.273 274.383C194.968 274.571 194.696 275.448 194.699 276.232C194.703 276.913 194.973 278.523 195.213 279.28C195.261 279.429 195.232 279.551 195.149 279.551C195.066 279.551 194.772 278.839 194.496 277.968ZM290.681 279.369C290.681 279.269 290.778 278.728 290.897 278.167C291.192 276.777 291.179 275.52 290.863 274.889C290.492 274.147 290.077 274.147 289.335 274.889L288.731 275.492L289.086 275.668C289.673 275.959 289.647 276.681 289.028 277.299C288.444 277.882 288.021 277.94 287.699 277.48C287.179 276.739 287.581 275.134 288.597 273.895C289.251 273.098 289.881 272.706 290.509 272.705C291.218 272.705 291.501 272.915 291.783 273.652C292.13 274.56 291.986 275.927 291.329 277.958C290.846 279.45 290.681 279.809 290.681 279.37L290.681 279.369ZM294.863 279.454C294.268 278.86 296.059 275.763 296.998 275.763C297.726 275.763 297.855 276.45 297.233 277.013C296.997 277.226 296.911 277.242 296.817 277.09C296.726 276.942 296.629 276.936 296.392 277.063C295.958 277.295 295.724 277.77 295.925 278.012C296.127 278.255 295.989 278.643 295.519 279.151C295.134 279.567 295.026 279.617 294.863 279.454ZM201.208 277.41C200.928 277.131 201.269 273.523 201.688 272.332C202.507 270.005 204.38 269.01 206.245 269.912C208.471 270.988 209.358 274.998 207.648 276.25C206.566 277.043 204.962 276.045 205.081 274.653C205.143 273.912 205.745 273.447 206.308 273.703C206.521 273.8 206.728 273.848 206.767 273.808C206.944 273.632 206.591 272.894 206.091 272.395C205.498 271.802 204.97 271.6 204.393 271.744C203.846 271.881 202.89 272.81 202.496 273.586C202.109 274.35 201.552 276.331 201.552 276.947C201.552 277.352 201.38 277.583 201.208 277.41ZM284.346 277.339C284.313 277.233 284.247 276.811 284.199 276.4C284.081 275.392 283.509 273.755 283.013 273.007C282.57 272.337 281.594 271.683 281.041 271.684C280.519 271.684 279.803 272.178 279.365 272.84C278.891 273.554 278.962 273.951 279.518 273.698C280.013 273.473 280.548 273.756 280.757 274.355C280.886 274.725 280.857 274.909 280.581 275.463C280.146 276.339 279.397 276.739 278.652 276.493C276.689 275.846 276.82 272.309 278.876 270.463C279.98 269.472 281.175 269.315 282.479 269.99C283.837 270.693 284.695 273.188 284.699 276.447C284.699 277.272 284.491 277.8 284.346 277.339ZM224.163 275.445C223.476 275.091 222.857 274.229 222.852 273.621C222.844 272.451 224.126 271.761 225.235 272.339C225.746 272.605 225.913 272.518 225.913 271.987C225.913 271.524 224.958 270.341 224.328 270.022C222.977 269.34 220.958 269.878 219.461 271.319C218.675 272.075 217.661 273.545 217.152 274.666C216.721 275.615 216.302 275.897 216.41 275.167C216.534 274.33 217.224 272.246 217.748 271.13C218.444 269.646 219.713 268.306 221.026 267.667C221.81 267.285 222.047 267.241 223.287 267.246C224.379 267.25 224.851 267.321 225.51 267.583C226.499 267.975 227.518 268.93 228.035 269.948C228.492 270.85 228.705 272.298 228.512 273.2C228.094 275.158 225.854 276.314 224.163 275.445ZM259.353 275.569C258.609 275.299 257.922 274.672 257.566 273.939C257.116 273.011 257.195 271.25 257.739 270.081C258.244 268.994 259.274 267.992 260.309 267.581C261.582 267.076 263.613 267.099 264.747 267.63C266.308 268.361 267.729 270.001 268.447 271.902C268.955 273.246 269.535 275.345 269.441 275.497C269.296 275.731 269.083 275.613 268.935 275.217C268.19 273.218 266.379 270.997 264.872 270.233C264.013 269.797 262.787 269.602 262.091 269.789C261.097 270.056 259.902 271.32 259.902 272.105C259.902 272.519 260.102 272.588 260.579 272.339C261.15 272.042 261.781 272.067 262.341 272.408C262.859 272.724 263.046 273.209 262.91 273.887C262.623 275.324 260.912 276.133 259.353 275.569ZM242.345 273.581C242.114 272.559 241.73 271.669 241.194 270.908C240.904 270.498 240.904 270.496 241.202 269.597C241.609 268.371 242.52 266.438 242.691 266.438C242.768 266.438 242.987 266.686 243.178 266.988C243.565 267.6 244.634 270.02 244.632 270.279C244.632 270.37 244.385 270.828 244.085 271.295C243.734 271.842 243.431 272.583 243.236 273.371C243.061 274.08 242.857 274.597 242.754 274.597C242.651 274.597 242.476 274.163 242.345 273.581ZM186.308 273.558C185.768 272.685 185.725 272.184 186.244 272.824C186.563 273.217 186.819 273.13 186.819 272.627C186.819 272.088 186.19 270.526 186.116 270.882C185.923 271.817 184.885 271.145 184.084 269.566C183.47 268.354 183.543 267.458 184.257 267.458C184.67 267.458 185.864 268.704 186.451 269.748C187.316 271.287 187.773 273.324 187.406 274.007C187.113 274.555 186.861 274.452 186.308 273.558ZM298.656 274.269C298.196 273.934 298.186 272.998 298.626 271.587C299.239 269.623 300.789 267.458 301.582 267.458C302.405 267.458 302.336 268.72 301.436 270.136C300.731 271.245 299.733 271.691 299.72 270.903C299.716 270.607 299.704 270.61 299.508 270.955C299.148 271.588 298.92 272.831 299.125 273.036C299.265 273.175 299.362 273.136 299.577 272.851C300.012 272.276 300.09 272.626 299.681 273.316C299.025 274.422 298.955 274.487 298.656 274.269ZM302.072 261.098C301.781 260.894 301.744 260.772 301.808 260.21C301.9 259.389 302.316 258.93 302.846 259.063C303.085 259.123 303.256 259.292 303.314 259.526C303.432 259.993 303.099 260.879 302.709 261.137C302.453 261.306 302.362 261.301 302.072 261.098ZM182.85 260.873C182.308 260.044 182.374 259.212 182.994 259.057C183.587 258.908 184.075 259.57 184.018 260.445C183.977 261.082 183.949 261.122 183.522 261.164C183.181 261.197 183.016 261.125 182.85 260.873ZM179.948 259.257C178.692 258.413 178.467 256.103 179.546 255.128C180.015 254.703 181.098 254.758 181.728 255.238C182.494 255.821 183.527 257.987 183.04 257.987C182.954 257.987 182.795 257.774 182.685 257.514C182.435 256.92 181.67 256.093 181.37 256.093C181.175 256.093 181.182 256.177 181.426 256.713C181.588 257.069 181.708 257.659 181.71 258.103C181.714 258.731 181.646 258.942 181.355 259.233C180.91 259.677 180.582 259.683 179.948 259.257ZM304.731 259.443C304.556 259.373 304.335 259.171 304.241 258.995C304.016 258.576 304.125 257.315 304.44 256.686C304.575 256.414 304.653 256.159 304.612 256.118C304.452 255.958 303.833 256.442 303.502 256.985C302.942 257.905 302.818 258.065 302.728 257.976C302.584 257.832 303.053 256.478 303.418 255.984C303.959 255.252 304.505 254.896 305.208 254.817C305.803 254.75 305.894 254.785 306.35 255.269C307.41 256.392 307.132 258.499 305.817 259.3C305.293 259.618 305.197 259.631 304.731 259.443ZM192.083 253.451C191.304 252.616 191.689 251.139 192.686 251.139C193.31 251.139 193.631 251.365 193.821 251.94C194.251 253.244 192.948 254.378 192.083 253.451ZM292.291 253.443C291.856 252.977 291.878 251.881 292.332 251.456C293.288 250.559 294.483 251.608 294.038 252.954C293.761 253.794 292.855 254.048 292.291 253.443ZM188.76 250.709C187.491 249.936 187.244 248.018 188.228 246.591C188.926 245.581 190.468 245.168 191.579 245.694C192.248 246.011 193.023 246.941 193.302 247.758C193.605 248.646 193.61 249.974 193.31 249.974C193.19 249.974 193.091 249.859 193.091 249.719C193.087 248.805 192.417 247.684 191.631 247.277L191.226 247.068L191.438 247.756C192.092 249.879 190.421 251.721 188.76 250.709ZM295.087 250.632C294.851 250.434 294.578 250.078 294.48 249.842C294.291 249.388 294.329 247.763 294.54 247.3C294.656 247.044 294.64 247.042 294.221 247.258C293.538 247.611 293.054 248.29 292.856 249.175C292.651 250.089 292.382 250.159 292.312 249.316C292.211 248.102 292.841 246.701 293.826 245.951C294.575 245.38 295.751 245.307 296.66 245.775C298.508 246.727 298.766 249.549 297.107 250.665C296.442 251.113 295.643 251.099 295.087 250.632ZM242.018 248.264C241.733 247.643 241.366 246.73 241.202 246.235L240.904 245.335L241.346 244.705C241.806 244.049 242.315 242.722 242.467 241.78C242.603 240.944 242.929 241.087 243.132 242.071C243.375 243.251 243.727 244.119 244.259 244.852L244.717 245.483L244.448 246.163C243.653 248.168 242.981 249.393 242.675 249.393C242.598 249.393 242.302 248.885 242.018 248.264ZM211.034 246.819C210.622 246.659 210.027 246.001 209.941 245.609C209.642 244.249 211.371 243.282 212.448 244.208C212.796 244.507 212.857 244.669 212.857 245.297C212.857 245.89 212.786 246.107 212.493 246.399C212.12 246.771 211.426 246.971 211.034 246.819ZM273.906 246.813C272.812 246.414 272.576 244.73 273.521 244.069C273.873 243.822 274.818 243.788 275.227 244.006C275.539 244.173 275.948 244.877 275.948 245.247C275.948 246.224 274.768 247.128 273.906 246.813ZM238.281 243.594C237.501 242.897 236.69 242.112 236.479 241.85C236.025 241.289 235.54 240.084 235.542 239.52C235.546 237.709 237.083 236.384 238.894 236.63C241.036 236.922 242.615 238.905 241.665 240.11C241.046 240.897 239.864 240.955 239.014 240.241L238.556 239.856L238.642 240.878C238.736 241.995 239.02 242.836 239.653 243.872C240.522 245.296 240.084 245.207 238.281 243.594ZM245.835 244.746C245.785 244.666 245.951 244.265 246.204 243.855C246.77 242.936 247.211 241.563 247.211 240.717V240.082L246.488 240.456C245.603 240.915 244.895 240.837 244.271 240.214C243.565 239.509 243.806 238.468 244.888 237.542C245.514 237.007 246.621 236.57 247.347 236.572C249.509 236.576 250.888 238.776 249.98 240.775C249.562 241.693 249.012 242.332 247.509 243.641C246.062 244.902 245.969 244.963 245.835 244.746ZM206.277 243.502C205.01 242.951 204.25 241.422 204.6 240.126C205.124 238.181 207.384 237.042 209.5 237.657C211.083 238.116 212.497 239.94 212.491 241.514C212.486 242.714 212.089 243.067 211.879 242.058C211.732 241.353 211.294 240.512 210.864 240.111C210.576 239.843 209.424 239.25 209.432 239.374C209.436 239.395 209.528 239.674 209.644 239.995C210.05 241.121 209.852 242.193 209.083 243.021C208.878 243.242 208.54 243.487 208.331 243.566C207.802 243.767 206.817 243.736 206.277 243.502ZM277.309 243.449C276.07 242.782 275.649 241.157 276.31 239.592C276.407 239.361 276.375 239.351 276.002 239.492C274.952 239.891 274.314 240.669 273.984 241.952C273.761 242.824 273.512 242.865 273.39 242.049C273.182 240.669 273.851 239.24 275.175 238.232C276.917 236.905 279.688 237.406 280.829 239.255C281.199 239.853 281.272 240.123 281.272 240.882C281.272 241.657 281.208 241.883 280.835 242.412C280.017 243.572 278.413 244.044 277.309 243.449ZM265.773 239.376C265.201 239.092 265.192 238.997 265.675 238.364C266.198 237.68 266.863 236.169 267.154 235.002C267.531 233.497 267.717 229.26 267.135 227.465C266.456 225.373 265.245 223.514 263.095 221.314C261.615 219.8 257.991 216.756 257.669 216.756C257.637 216.756 257.673 217.1 257.747 217.52C257.993 218.905 257.914 222.082 257.596 223.682C256.733 228.006 254.608 231.866 251.842 234.129C251.177 234.674 250.42 234.979 250.42 234.703C250.42 234.619 251.066 233.907 251.856 233.121C253.413 231.571 254.198 230.503 255.076 228.742C257.18 224.526 257.208 219.187 255.148 215.127C254.932 214.702 254.828 214.334 254.902 214.261C255.089 214.073 256.567 214.614 258.042 215.411C260.965 216.988 264.046 219.637 265.878 222.146C266.897 223.543 268.081 225.865 268.44 227.173C268.764 228.353 269.163 231.37 268.662 234.267C268.278 236.487 267.051 239.646 266.468 239.621C266.347 239.616 266.034 239.506 265.773 239.376ZM242.178 237.599C241.006 237.119 240.807 235.31 241.857 234.671C243.457 233.696 245.256 235.398 244.293 236.975C243.874 237.66 242.976 237.925 242.178 237.599ZM244.656 233.277C243.715 232.045 241.903 232.014 240.892 233.215C240.687 233.458 240.389 233.657 240.229 233.657C239.775 233.657 239.087 232.983 238.815 232.271C238.476 231.386 238.581 229.618 239.028 228.682C240.033 226.577 242.493 225.69 244.419 226.738C246.404 227.819 247.309 230.245 246.43 232.127C246.083 232.869 245.382 233.803 245.173 233.803C245.109 233.803 244.877 233.566 244.656 233.277Z" fill="currentcolor"/>

</svg>
