<svg  viewBox="0 0 1180 580" fill="currentcolor" xmlns="http://www.w3.org/2000/svg">
<path d="M256.478 332.431C248.564 330.06 243.474 322.747 245.285 316.348C245.902 314.168 248.104 311.361 250.103 310.205L250.917 309.735L251.9 310.021C252.441 310.178 252.858 310.331 252.827 310.361C252.796 310.391 252.286 310.771 251.694 311.206C249.276 312.98 247.422 315.383 246.738 317.63C246.28 319.134 246.351 321.495 246.899 323.006C247.916 325.81 250.681 328.781 254.163 330.809L254.859 331.215L254.058 330.262C251.909 327.709 251.189 325.972 251.331 323.688C251.464 321.556 252.459 319.858 254.709 317.925C255.943 316.865 259.092 315.284 260.757 314.889C263.289 314.288 266.212 314.256 269.392 314.796C270.014 314.902 270.798 315.028 271.133 315.077C272.307 315.247 273.862 314.238 274.751 312.727C275.145 312.057 275.223 311.721 275.223 310.681C275.223 309.575 275.164 309.352 274.694 308.684C273.806 307.422 273.075 307.057 270.522 306.601C268.538 306.248 267.716 306.199 263.823 306.205C258.886 306.212 256.85 306.442 251.552 307.594C247.936 308.379 246.11 308.87 238.238 311.168C220.552 316.331 213.482 317.553 203.342 317.199C196.317 316.955 191.659 315.965 184.044 313.097L180.933 311.926L179.49 308.97C177.209 304.296 176.081 300.98 173.59 291.63C172.536 287.669 172.555 287.602 174.361 289.022C175.398 289.837 175.419 289.871 175.944 291.586C177.239 295.817 180.755 305.179 181.979 307.656C182.871 309.462 184.295 310.938 185.895 311.715C187.554 312.521 194.998 314.293 199.339 314.915C201.96 315.29 211.171 315.344 214.133 315C222.364 314.046 233.207 311.653 246.157 307.931C255.939 305.12 259.943 304.364 265.045 304.364C267.365 304.364 270.973 304.715 272.518 305.091C275.784 305.886 277.745 307.914 277.523 310.268C277.372 311.88 276.792 313.145 275.889 313.834C274.27 315.068 273.628 315.199 269.044 315.228C264.399 315.257 262.739 315.48 259.917 316.451C256.742 317.544 254.195 319.462 253.201 321.508C252.592 322.763 252.521 324.731 253.033 326.135C253.59 327.661 254.676 329.25 256.423 331.098C257.263 331.986 257.92 332.739 257.884 332.772C257.848 332.805 257.215 332.651 256.478 332.431ZM278.9 303.538C281.3 291.306 280.684 285.669 276.789 284.213C274.236 283.259 263.564 283.765 253.032 285.339C248.835 285.967 243.959 286.82 235.714 288.371C214.375 292.384 207.515 293.291 198.556 293.282C188.382 293.271 181.326 291.519 175.482 287.552C172.977 285.852 172.174 283.953 172.966 281.605C173.445 280.185 174.081 279.268 175.433 278.045C176.729 276.874 177.136 276.767 176.645 277.728C175.663 279.652 175.507 281.882 176.255 283.334C177.143 285.059 179.413 286.888 182.021 287.981C191.222 291.836 202.819 292.62 218.397 290.439C223.971 289.658 231.446 288.176 243.72 285.417C260.862 281.564 267.792 280.586 273.226 281.249C276.028 281.591 278.011 282.297 279.824 283.598C282.884 285.794 283.41 291.606 281.218 298.978C280.803 300.372 279.892 302.823 278.843 305.363C278.794 305.483 278.696 305.58 278.626 305.58C278.556 305.58 278.679 304.661 278.9 303.538ZM297.589 301.104C297.589 301.032 297.558 299.8 297.518 298.366C297.459 296.242 297.361 295.452 296.989 294.107C295.343 288.154 290.809 283.263 285.056 281.237C283.727 280.769 283.519 280.623 283.792 280.35C284.248 279.895 287.436 281.122 289.766 282.65C294.217 285.569 297.836 290.598 299.213 295.779L299.613 297.285L300.442 296C301.713 294.03 303.887 289.526 304.502 287.588C305.271 285.166 305.482 283.742 305.375 281.689C305.295 280.164 305.18 279.66 304.478 277.766C303.152 274.187 301.69 271.866 299.872 270.449C299.453 270.123 298.905 269.685 298.653 269.475L298.197 269.093L299.443 267.835L300.3 268.512C301.653 269.58 303.176 271.344 304.027 272.831C304.958 274.455 306.187 277.484 306.659 279.318C307.087 280.98 307.116 284.041 306.724 286.078C306.064 289.512 304.166 293.833 301.983 296.875C300.202 299.356 297.58 301.88 297.589 301.104ZM188.809 288.303C188.809 288.076 189.129 287.251 189.519 286.472C191.225 283.068 195.429 280.089 202.035 277.606C206.09 276.081 206.293 276.514 202.461 278.516C196.585 281.585 192.984 284.564 191.44 287.631L190.893 288.718H189.851C188.869 288.718 188.809 288.694 188.809 288.303ZM288.61 277.931C286.745 277.502 282.498 276.966 279.052 276.725C274.644 276.416 274.735 276.434 274.872 275.884C275.076 275.068 276.018 273.597 276.94 272.656C278.762 270.796 281.496 270.006 283.645 270.719C284.785 271.098 286.066 272.257 286.75 273.53L287.29 274.535L287.434 273.847C287.513 273.469 287.572 272.064 287.564 270.726C287.551 268.629 287.494 268.15 287.152 267.269C286.333 265.161 284.829 264.13 282.62 264.164C278.031 264.234 273.879 268.038 270.952 274.854C270.389 276.166 270.218 276.378 270.006 276.035C269.844 275.774 271.413 271.17 272.643 268.292C275.439 261.756 278.39 257.371 280.769 256.221C281.475 255.88 281.771 255.833 282.652 255.925C286.638 256.341 289.129 260.17 290.131 267.423C290.397 269.347 290.446 278.151 290.191 278.212C290.095 278.235 289.383 278.109 288.61 277.931ZM167.166 276.952C166.953 276.738 167.057 270.896 167.317 268.553C167.625 265.764 167.979 263.924 168.569 262.034C169.616 258.681 171.527 256.122 173.543 255.369C174.873 254.873 176.394 254.868 177.353 255.356C179.386 256.392 181.959 260.226 184.286 265.684C185.887 269.438 187.726 275.228 187.384 275.439C187.129 275.597 186.979 275.37 186.453 274.028C184.764 269.727 182.106 266.094 179.498 264.524C178.047 263.651 176.945 263.304 175.312 263.207C174.125 263.136 173.772 263.183 172.999 263.516C171.888 263.993 171.019 264.96 170.514 266.279C170.097 267.368 169.87 270.695 170.092 272.466L170.217 273.467L170.593 272.708C171.206 271.471 172.555 270.219 173.754 269.773C176.74 268.665 180.438 270.548 182.115 274.031C182.468 274.763 182.689 275.424 182.607 275.498C182.524 275.573 180.655 275.725 178.453 275.838C176.252 275.95 173.378 276.154 172.068 276.292C169.976 276.512 169.172 276.638 167.645 276.982C167.444 277.027 167.228 277.014 167.166 276.952ZM263.91 275.849C263.144 275.78 259.933 275.627 256.774 275.508C253.615 275.39 250.968 275.235 250.891 275.164C250.7 274.989 251.079 273.532 251.612 272.396C252.223 271.093 253.711 269.541 254.915 268.95C255.806 268.513 256.084 268.466 257.731 268.466C259.378 268.466 259.656 268.513 260.545 268.95C261.804 269.567 262.689 270.46 263.303 271.734L263.79 272.743L263.97 272.169C264.429 270.712 264.538 269.974 264.535 268.325C264.532 265.261 263.66 262.995 261.826 261.281C260.988 260.498 260.494 260.193 259.585 259.895C258.005 259.377 256.521 259.389 255.381 259.929C252.049 261.509 246.818 268.659 245.353 273.637C245.095 274.514 244.868 274.985 244.705 274.985C244.493 274.985 244.47 274.644 244.556 272.855C244.938 264.955 251.31 254.13 256.814 252.03C258.343 251.447 259.971 251.483 261.274 252.128C263.166 253.067 265.371 255.949 266.353 258.768C267.349 261.629 267.528 265.031 267.03 271.595C266.878 273.603 266.719 275.421 266.677 275.637C266.592 276.073 266.479 276.081 263.91 275.849ZM190.809 275.257C190.716 274.933 190.372 267.487 190.374 265.853C190.38 260.418 191.865 256.276 194.883 253.278C196.145 252.023 197.227 251.489 198.712 251.387C200.929 251.236 203.127 252.451 205.604 255.198C209.935 260.002 213.326 268.622 213.03 274.072C212.955 275.449 212.602 275.533 212.299 274.246C211.093 269.123 205.934 261.482 202.511 259.75C201.705 259.342 201.479 259.307 200.046 259.374C198.755 259.434 198.287 259.538 197.465 259.944C195.585 260.875 194.06 262.958 193.444 265.435C193.071 266.935 193.072 269.781 193.448 271.268L193.733 272.403L194.237 271.356C195.868 267.961 200.502 267.052 203.759 269.488C204.462 270.013 205.617 271.508 205.968 272.348C206.38 273.334 206.77 275.022 206.618 275.164C206.385 275.381 190.873 275.472 190.811 275.257H190.809ZM217.25 274.724C217.218 274.628 217.07 274.002 216.922 273.333C216.774 272.664 216.368 271.115 216.02 269.891C215.617 268.475 215.447 267.605 215.553 267.499C215.659 267.393 216.253 267.76 217.189 268.508C220.069 270.811 222.915 272.417 225.446 273.168C227.439 273.759 230.372 273.848 232.146 273.371C234.638 272.701 237.207 271.176 240.24 268.57C241.125 267.809 241.8 267.347 241.892 267.44C241.984 267.532 241.87 268.345 241.613 269.422C241.374 270.426 241.061 272.027 240.917 272.98C240.773 273.934 240.614 274.755 240.564 274.806C240.384 274.985 217.31 274.904 217.25 274.724ZM165.26 270.291C164.514 266.375 163.179 262.841 161.919 261.447C161.557 261.048 161.292 260.691 161.329 260.654C161.449 260.538 164.49 259.306 165.661 258.899C166.283 258.683 166.942 258.446 167.125 258.372C167.397 258.262 167.44 258.298 167.362 258.571C167.31 258.754 167.065 259.59 166.817 260.428C166.091 262.885 165.805 264.944 165.686 268.553L165.574 271.942L165.26 270.291ZM291.796 268.427C291.693 264.968 291.394 262.827 290.673 260.382C290.434 259.569 290.199 258.77 290.152 258.605C290.076 258.343 290.25 258.368 291.52 258.798C292.728 259.207 296.022 260.506 296.143 260.621C296.162 260.639 295.899 261.004 295.559 261.431C294.235 263.095 293.096 266.039 292.365 269.682C292.155 270.734 291.962 271.616 291.938 271.643C291.913 271.669 291.849 270.222 291.796 268.427ZM162.283 267.264C161.652 265.313 161.136 263.631 161.136 263.527C161.136 262.905 162.007 263.855 162.7 265.233C163.319 266.464 163.579 267.334 163.763 268.784C163.932 270.12 163.868 270.812 163.576 270.812C163.496 270.812 162.913 269.216 162.283 267.264ZM293.665 270.628C293.46 270.297 293.782 267.972 294.213 266.67C294.445 265.97 294.901 264.981 295.227 264.473C296.168 263.003 296.554 262.939 296.141 264.32C295.241 267.324 294.052 270.812 293.927 270.812C293.846 270.812 293.728 270.73 293.665 270.628ZM227.684 269.754C226.057 269.283 224.29 267.273 223.609 265.117C223.094 263.488 222.968 260.683 223.339 259.111C224.123 255.788 226.153 253.646 228.694 253.461C232.572 253.178 235.584 258.547 234.512 263.833C234.106 265.833 233.485 267.056 232.241 268.305C230.787 269.766 229.328 270.23 227.684 269.754ZM270.1 263.132C270.056 258.231 269.55 254.629 268.634 252.719C268.409 252.249 268.246 251.864 268.272 251.864C268.298 251.864 269.247 252.064 270.379 252.307C272.8 252.829 274.07 253.184 275.108 253.628L275.863 253.951L275.181 254.776C273.203 257.17 271.654 260.324 270.689 263.925C270.462 264.774 270.241 265.503 270.198 265.545C270.156 265.587 270.112 264.502 270.1 263.132ZM187.011 264.784C186.817 263.575 185.876 260.905 184.988 259.046C184.057 257.097 183.346 255.987 182.304 254.856C181.894 254.412 181.681 254.048 181.776 253.956C182.121 253.619 183.943 253.035 186.43 252.465C187.867 252.135 189.066 251.889 189.094 251.917C189.122 251.945 188.947 252.458 188.704 253.058C187.882 255.092 187.457 258.216 187.401 262.642C187.37 265.051 187.202 265.976 187.011 264.784ZM214.59 264.293C213.611 260.028 210.321 253.055 208.258 250.876L207.734 250.322L208.671 250.053C209.186 249.905 210.156 249.702 210.826 249.602C211.962 249.433 221.886 249.033 222.004 249.151C222.034 249.181 221.763 249.41 221.402 249.661C220.129 250.548 218.432 252.787 217.361 254.994C216.078 257.637 215.14 261.311 214.876 264.728C214.833 265.278 214.806 265.236 214.59 264.293ZM242.525 263.946C242.057 258.699 240.196 253.971 237.393 250.908C236.956 250.43 236.34 249.85 236.025 249.619C235.71 249.389 235.474 249.178 235.501 249.151C235.528 249.124 237.819 249.174 240.592 249.263C245.659 249.424 247.102 249.563 248.834 250.056L249.771 250.322L249.247 250.876C247.129 253.113 244.083 259.582 242.888 264.38L242.65 265.337L242.525 263.946ZM160.096 258.353C159.382 256.837 158.673 254.428 158.88 254.224C159.11 253.998 159.57 254.537 159.57 255.032C159.57 255.208 159.686 255.63 159.828 255.97C160.082 256.576 160.103 256.586 160.822 256.465C162.367 256.204 162.524 255.851 162.687 252.255C162.766 250.524 162.883 249.528 163.023 249.388C163.322 249.09 163.566 249.502 163.57 250.309C163.574 251.067 164.296 252.562 164.816 252.884C165.761 253.469 167.46 252.949 168.294 251.818C169.408 250.309 169.958 248.618 170.127 246.183C170.291 243.815 170.562 243.612 171.132 245.432C171.765 247.454 172.876 248.322 174.642 248.176C176.334 248.035 176.828 247.446 178.271 243.842C178.814 242.486 179.496 241.032 179.787 240.61C180.293 239.876 181.253 239.123 181.556 239.222C181.635 239.248 181.714 240.245 181.73 241.438C181.756 243.31 181.813 243.705 182.147 244.328C182.715 245.389 183.536 245.824 185.144 245.917C186.779 246.011 188 245.563 188.86 244.553C189.462 243.846 189.458 243.854 191.133 240.444C192.497 237.668 193.019 236.889 194.296 235.723C195.578 234.553 196.253 234.522 195.447 235.67C194.905 236.442 194.677 237.411 194.769 238.552C194.868 239.784 195.322 240.769 196.147 241.544C197.201 242.534 197.725 242.697 199.585 242.616C202.227 242.5 203.107 241.853 205.559 238.224C206.336 237.073 207.32 235.721 207.745 235.219C208.585 234.227 210.538 232.819 210.762 233.043C210.838 233.119 210.676 233.83 210.402 234.623C209.065 238.479 209.814 241.061 212.501 241.858C213.625 242.192 213.935 242.196 214.533 241.884C215.165 241.554 215.727 240.917 216.847 239.261C218.028 237.512 220.291 235.239 221.484 234.601C223.243 233.659 226.403 232.789 226.403 233.246C226.403 233.353 225.987 233.638 225.48 233.878C223.755 234.694 222.71 236.048 222.444 237.81C222 240.748 223.484 243.873 226.212 245.743C226.729 246.098 227.16 246.466 227.169 246.562C227.18 246.672 225.234 246.775 221.837 246.844C216.154 246.958 215.021 247.013 209.259 247.457L205.605 247.738L204.734 247.197C203.171 246.225 202.007 245.916 199.546 245.823C196.9 245.722 195.596 245.973 193.356 247.013C192.22 247.54 191.642 247.951 190.731 248.877L189.563 250.065L187.141 250.543C185.809 250.806 183.645 251.289 182.333 251.617L179.948 252.212L179.073 251.868C177.504 251.25 176.081 251.119 174.386 251.436C171.951 251.891 169.898 253.208 168.695 255.088C168.169 255.908 168.004 256.025 166.502 256.641C165.609 257.008 163.985 257.726 162.894 258.237C161.803 258.747 160.813 259.165 160.694 259.165C160.575 259.165 160.306 258.8 160.096 258.353ZM293.537 258.025C282.885 253.736 269.501 250.204 257.383 248.484C250.24 247.47 244.128 246.999 236.164 246.847C229.923 246.728 229.54 246.661 230.96 245.937C232.122 245.345 233.592 243.725 234.341 242.211C234.917 241.047 235.009 240.69 235.073 239.351C235.2 236.701 234.29 235.039 232.109 233.94C230.174 232.964 231.126 232.837 233.876 233.705C235.488 234.213 237.452 235.452 238.604 236.688C239.032 237.147 239.878 238.226 240.484 239.087C242.576 242.06 243.126 242.401 244.968 241.868C246.347 241.469 247.347 240.448 247.64 239.137C247.894 238.004 247.685 236.41 247.031 234.49C246.788 233.778 246.656 233.13 246.736 233.05C246.977 232.81 248.98 234.27 249.815 235.293C250.242 235.817 251.194 237.145 251.93 238.245C254.245 241.703 255.295 242.49 257.754 242.615C259.55 242.706 260.3 242.497 261.247 241.642C262.939 240.116 263.265 237.495 261.996 235.628C261.364 234.697 261.848 234.594 262.882 235.44C264.207 236.525 265.025 237.731 266.535 240.825C267.329 242.451 268.225 244.076 268.528 244.437C269.265 245.318 270.284 245.807 271.603 245.913C274.657 246.158 275.998 244.548 275.789 240.886C275.741 240.036 275.771 239.298 275.857 239.245C276.085 239.105 277.085 239.769 277.511 240.344C278.041 241.062 278.68 242.376 279.198 243.818C280.4 247.163 281.321 248.213 283.052 248.213C284.627 248.213 285.69 247.394 286.276 245.729C286.467 245.188 286.623 244.626 286.623 244.48C286.623 244.334 286.73 244.215 286.862 244.215C287.127 244.215 287.319 244.949 287.319 245.96C287.319 247.97 288.287 250.824 289.398 252.088C289.986 252.756 291.392 253.331 291.98 253.144C293.113 252.784 293.727 251.891 293.883 250.378C293.993 249.317 294.128 249.124 294.472 249.538C294.626 249.724 294.74 250.652 294.817 252.361C294.934 254.966 295.143 255.929 295.648 256.193C295.805 256.276 296.266 256.398 296.671 256.465C297.491 256.601 297.498 256.594 297.967 254.993C298.218 254.137 298.766 253.862 298.66 254.645C298.576 255.259 297.989 256.987 297.463 258.166C297.116 258.944 296.936 259.161 296.65 259.148C296.448 259.138 295.047 258.633 293.537 258.025ZM158.452 252.586C158.302 252.296 158.035 251.956 157.858 251.831C157.386 251.497 156.882 249.307 157.128 248.662C157.33 248.13 157.233 247.592 156.856 247.162C156.61 246.881 156.024 242.485 156.121 241.649C156.169 241.233 156.242 241.307 156.765 242.306C157.391 243.503 158.108 244.389 158.449 244.389C158.602 244.389 158.678 245.526 158.737 248.691C158.781 251.058 158.796 253.021 158.771 253.054C158.746 253.086 158.602 252.876 158.452 252.586ZM298.711 251.69C298.762 250.877 298.804 248.902 298.805 247.301C298.805 244.91 298.85 244.389 299.051 244.389C299.399 244.389 300.127 243.473 300.764 242.233C301.145 241.493 301.33 241.269 301.379 241.492C301.504 242.069 300.876 246.901 300.641 247.17C300.279 247.585 300.175 248.13 300.363 248.624C300.628 249.32 300.093 251.48 299.517 252.043C299.269 252.285 298.966 252.637 298.843 252.825C298.654 253.114 298.633 252.935 298.711 251.69ZM163.139 247.708C163.019 246.672 162.84 246.387 162.639 246.91C162.491 247.297 161.89 247.225 161.581 246.784C160.923 245.846 161.503 244.041 162.462 244.041C163.524 244.041 164.154 245.704 163.776 247.507C163.489 248.874 163.282 248.94 163.139 247.708ZM293.755 247.853C293.473 246.678 293.608 245.195 294.052 244.599C294.866 243.505 296.195 244.174 296.195 245.677C296.195 246.876 295.276 247.674 294.824 246.867C294.577 246.425 294.446 246.663 294.333 247.76C294.277 248.296 294.172 248.735 294.1 248.735C294.027 248.735 293.872 248.338 293.755 247.853ZM227.685 243.881C225.383 242.48 224.992 238.207 226.977 236.141C229.147 233.883 232.146 235.948 232.146 239.699C232.146 242.209 230.717 244.214 228.927 244.214C228.544 244.214 227.985 244.064 227.685 243.881ZM170.452 243.012C170.248 242.371 169.634 241.781 168.522 241.16C167.906 240.816 167.402 240.478 167.402 240.409C167.402 240.339 167.555 239.662 167.743 238.903C168.086 237.518 168.444 234.311 168.445 232.621C168.445 232.125 168.515 231.676 168.6 231.624C168.685 231.572 169.116 232.173 169.559 232.961C170.378 234.417 171.167 235.399 171.898 235.873L172.303 236.135L171.768 238.219C171.318 239.967 170.91 242.247 170.888 243.128C170.879 243.467 170.57 243.384 170.452 243.012ZM169.393 239.135C169.75 238.627 169.744 237.544 169.383 237.245C169.142 237.045 169.055 237.07 168.774 237.417C168.249 238.064 168.401 239.521 168.993 239.521C169.064 239.521 169.244 239.347 169.393 239.135ZM286.558 242.955C286.501 242.74 286.452 242.264 286.451 241.898C286.447 241.532 286.17 240.087 285.83 238.687C285.24 236.26 285.225 236.131 285.525 235.919C286.353 235.333 287.156 234.35 287.927 232.978C288.921 231.209 288.952 231.237 289.129 234.045C289.281 236.455 289.532 238.322 289.853 239.422C289.991 239.894 290.103 240.331 290.103 240.394C290.103 240.458 289.712 240.722 289.235 240.981C288.055 241.623 287.406 242.194 287.146 242.821C286.887 243.446 286.701 243.488 286.558 242.955ZM288.887 239.259C289.164 238.925 289.009 237.659 288.646 237.296C287.99 236.641 287.514 238.282 288.112 239.135C288.431 239.59 288.591 239.615 288.887 239.259ZM182.021 237.185C182.021 236.473 181.954 235.849 181.871 235.798C181.788 235.747 181.58 235.86 181.409 236.049C180.997 236.503 180.603 236.482 180.057 235.977C178.848 234.858 179.702 232.394 181.298 232.394C181.774 232.394 182.039 232.539 182.553 233.079C183.286 233.848 183.521 234.719 183.32 235.914C183.165 236.837 182.451 238.478 182.205 238.478C182.093 238.478 182.021 237.976 182.021 237.185ZM274.624 237.479C273.825 235.412 273.973 233.882 275.065 232.924C276.477 231.686 278.054 232.795 277.94 234.945C277.913 235.449 277.101 236.392 276.693 236.392C276.514 236.392 276.216 236.23 276.031 236.031C275.574 235.541 275.452 235.799 275.443 237.272C275.433 238.784 275.155 238.854 274.624 237.479ZM195.178 234.005C195.105 233.932 194.945 233.637 194.825 233.35C194.469 232.505 193.719 231.734 192.085 230.537C191.241 229.917 190.55 229.387 190.55 229.359C190.55 229.33 190.821 228.857 191.152 228.308C191.99 226.918 192.564 225.384 193.399 222.297C193.794 220.838 194.198 219.618 194.296 219.586C194.394 219.553 194.825 220.248 195.253 221.129C196.355 223.396 197.134 224.539 198.208 225.463L199.141 226.266L198.1 228.07C196.935 230.088 196.08 231.918 195.755 233.089C195.509 233.978 195.371 234.196 195.178 234.005ZM195.494 228.208C196.037 227.565 196.078 226.79 195.597 226.31C195.134 225.847 194.967 225.869 194.365 226.47C193.971 226.863 193.856 227.136 193.856 227.678C193.856 228.822 194.737 229.107 195.494 228.208ZM262.027 234.002C261.985 233.93 261.817 233.406 261.654 232.838C261.323 231.689 260.767 230.524 259.348 228.007L258.394 226.316L259.607 225.139C260.656 224.122 260.968 223.662 261.912 221.74C262.512 220.518 263.081 219.544 263.176 219.575C263.271 219.607 263.721 220.979 264.176 222.625C264.961 225.465 265.831 227.655 266.605 228.74C266.798 229.011 266.955 229.266 266.955 229.308C266.955 229.35 266.294 229.871 265.484 230.465C263.85 231.667 263.127 232.413 262.602 233.442C262.24 234.15 262.159 234.229 262.027 234.002ZM263.375 228.47C263.945 227.901 263.595 226.572 262.758 226.125C262.489 225.981 262.308 226.002 261.984 226.214C261.397 226.598 261.409 227.494 262.01 228.208C262.508 228.799 262.959 228.886 263.375 228.47ZM210.873 232.361C210.832 232.238 210.902 231.791 211.03 231.368C211.278 230.544 211.328 229.642 211.152 229.183C211.056 228.932 210.993 228.944 210.631 229.284C209.777 230.085 208.426 229.57 207.965 228.266C207.73 227.601 207.74 227.513 208.144 226.729C209.258 224.568 211.966 224.646 213.076 226.872C213.828 228.379 213.62 229.468 212.233 231.285C211.306 232.5 211 232.741 210.873 232.361ZM245.569 231.753C244.048 229.989 243.631 228.392 244.309 226.918C244.689 226.091 245.077 225.72 245.94 225.36C246.786 225.007 247.209 225.023 248.06 225.438C249.01 225.901 249.551 226.728 249.551 227.716C249.551 228.645 249.194 229.214 248.403 229.544C247.633 229.865 247.574 229.857 246.972 229.352C246.532 228.982 246.44 228.958 246.35 229.192C246.185 229.62 246.225 230.599 246.442 231.459C246.743 232.653 246.435 232.757 245.569 231.753ZM227.583 230.506C227.08 229.453 226.511 228.694 225.018 227.08C223.963 225.939 223.099 224.914 223.098 224.803C223.094 224.691 223.455 224.182 223.893 223.673C224.923 222.474 226.17 219.933 227.027 217.282C227.521 215.757 227.779 215.19 227.964 215.225C228.107 215.252 228.76 216.492 229.457 218.063C230.766 221.014 231.659 222.482 232.826 223.607C233.218 223.985 233.539 224.394 233.539 224.516C233.539 224.638 232.865 225.502 232.042 226.436C230.136 228.599 229.618 229.352 229.112 230.698C228.887 231.296 228.597 231.802 228.467 231.822C228.327 231.843 227.965 231.303 227.583 230.506ZM229.298 225.129C229.423 224.966 229.525 224.558 229.525 224.223C229.525 223.502 229.246 223.086 228.596 222.84C227.486 222.418 226.565 223.765 227.124 224.991C227.491 225.796 228.731 225.875 229.298 225.129Z" fill=""/>
</svg>
