<svg  viewBox="0 0 1180 580" fill="currentcolor" xmlns="http://www.w3.org/2000/svg">
<path d="M213.161 321.968C189.438 321.03 171.348 317.859 165.36 313.592C162.956 311.878 162.664 310.23 164.449 308.447C167.966 304.935 180.506 301.874 197.902 300.283C219.878 298.274 246.413 298.969 264.764 302.035C278.014 304.25 285.479 307.395 285.479 310.764C285.479 311.001 285.236 311.578 284.939 312.046C281.261 317.838 254.376 322.255 223.518 322.137C219.805 322.122 215.144 322.046 213.161 321.968ZM166.086 301.514C164.65 301.018 163.542 300.291 162.52 299.174C158.653 294.948 159.968 288.301 165.158 285.839C166.909 285.009 168.919 284.814 170.79 285.293C175.651 286.538 178.346 291.697 176.638 296.489C175.861 298.67 173.649 300.785 171.432 301.47C169.872 301.951 167.411 301.971 166.086 301.514ZM279.376 301.722C279.121 301.682 278.414 301.474 277.803 301.261C272.039 299.244 270.406 291.757 274.775 287.385C277.294 284.865 281.108 284.192 284.308 285.704C285.591 286.31 287.476 288.059 288.119 289.239C289.939 292.579 289.352 296.645 286.661 299.332C284.749 301.242 282.01 302.141 279.376 301.722ZM176.539 300.467C176.539 300.395 176.824 299.824 177.172 299.197C178.494 296.822 179.096 294.075 178.759 291.964C178.381 289.604 177.302 287.693 175.086 285.457C173.794 284.153 173.784 284.136 174.28 284.036C174.556 283.98 177.279 283.472 180.331 282.907C183.382 282.341 186.233 281.809 186.665 281.724C187.271 281.605 187.451 281.625 187.451 281.813C187.451 281.947 187.367 282.11 187.263 282.174C186.958 282.362 186.193 283.99 185.698 285.504C184.405 289.46 185.242 293.316 188.005 296.134C188.667 296.808 189.412 297.495 189.66 297.659C189.908 297.824 190.074 297.989 190.03 298.028C189.985 298.066 187.16 298.615 183.752 299.248C180.344 299.881 177.327 300.444 177.048 300.499C176.768 300.554 176.539 300.54 176.539 300.467ZM266.151 298.96C262.387 298.324 259.308 297.799 259.308 297.793C259.308 297.788 260.098 296.972 261.065 295.981C262.145 294.874 263.053 293.745 263.42 293.052C265.005 290.058 264.895 286.727 263.092 283.128C262.689 282.324 262.359 281.607 262.359 281.533C262.359 281.422 273.877 283.254 275.719 283.659L276.295 283.785L275.478 284.456C272.78 286.673 271.292 289.14 270.846 292.135C270.516 294.349 271.061 296.683 272.443 298.975C272.801 299.569 273.071 300.068 273.044 300.085C273.017 300.101 269.915 299.595 266.151 298.96ZM193.389 297.305C189.244 296.191 186.479 291.875 187.249 287.72C188.27 282.213 194.148 279.154 199.196 281.502C202.52 283.048 204.553 286.883 203.941 290.449C203.086 295.431 198.209 298.599 193.389 297.305ZM251.239 296.986C249.822 296.503 248.167 295.325 247.347 294.214C244.763 290.713 245.042 286.139 248.027 283.085C251.279 279.758 256.751 279.773 260.046 283.118C263.751 286.878 263.113 293.128 258.728 296.035C256.585 297.456 253.697 297.823 251.239 296.986ZM203.411 295.479C207.432 290.611 207.179 286.147 202.607 281.266C201.48 280.062 201.473 280.047 201.996 280.039C202.287 280.035 205.98 279.797 210.201 279.511C214.423 279.225 217.911 279.02 217.952 279.055C217.993 279.09 217.605 279.565 217.088 280.11C212.853 284.583 212.643 290.17 216.56 294.169C216.979 294.598 217.525 295.085 217.773 295.252C218.022 295.42 218.184 295.597 218.135 295.646C218.058 295.723 211.569 296.179 204.485 296.605L202.376 296.732L203.411 295.479ZM245.713 296.561C245.357 296.532 242.611 296.421 239.61 296.312C236.609 296.204 233.424 296.065 232.532 296.005L230.911 295.895L232.051 294.678C234.911 291.625 235.954 288.783 235.277 285.889C234.908 284.308 233.789 282.134 232.564 280.616C232.05 279.979 231.67 279.418 231.718 279.369C231.767 279.321 233.958 279.369 236.587 279.477C239.216 279.584 242.888 279.728 244.747 279.796L248.127 279.92L246.759 281.231C244.319 283.566 243.151 285.833 242.987 288.555C242.832 291.117 243.703 293.368 245.715 295.611C246.239 296.195 246.598 296.659 246.514 296.642C246.43 296.626 246.069 296.588 245.713 296.561ZM222.678 296.058C218.448 294.978 215.705 290.92 216.313 286.64C216.833 282.976 219.725 280.072 223.45 279.473C226.935 278.913 230.754 280.948 232.286 284.182C234.421 288.69 232.277 293.974 227.583 295.772C226.331 296.251 223.974 296.389 222.678 296.058ZM160.196 283.751C159.808 283.244 159.336 282.42 159.145 281.92C158.776 280.948 158.227 278.754 158.354 278.754C158.396 278.754 159.06 279.178 159.83 279.697C160.6 280.216 161.681 280.847 162.232 281.099C163.37 281.62 165.557 282.055 167.199 282.089L168.308 282.111L166.274 282.748C164.537 283.291 162.191 284.123 161.182 284.553C160.986 284.637 160.685 284.392 160.196 283.751ZM285.389 283.425C284.475 283.071 282.942 282.562 281.984 282.293L280.242 281.804L282.294 281.59C285.137 281.294 286.388 280.829 288.901 279.135C289.511 278.723 290.037 278.466 290.07 278.563C290.155 278.818 289.409 281.454 289.056 282.142C288.561 283.11 287.687 284.113 287.359 284.089C287.19 284.077 286.303 283.778 285.389 283.425ZM166.269 280.062C164.983 279.855 163.279 279.344 162.423 278.908C161.316 278.344 160.067 277.095 159.589 276.075C158.922 274.65 158.948 274.603 160.714 274.041C162.994 273.316 164.339 272.446 166.066 270.579L167.562 268.962H170.268C174.185 268.962 175.832 268.556 178.119 267.024L179.305 266.23L181.113 266.76C184.985 267.897 187.315 268.178 189.598 267.784C191.993 267.371 193.74 266.609 196.929 264.586L198.175 263.795L199.333 264.423C203.564 266.72 209.334 266.604 213.422 264.142L214.697 263.374L215.547 263.793C221.271 266.612 226.974 266.709 231.783 264.069L232.962 263.421L234.258 264.073C236.528 265.215 238.753 265.864 240.719 265.959C242.784 266.059 244.061 265.805 246.941 264.721L248.884 263.99L251.26 265.182C255.863 267.49 259.027 268.182 262.376 267.615C263.351 267.449 264.884 267.067 265.783 266.766L267.417 266.217L268.218 266.768C271.104 268.751 274.443 269.495 278.081 268.965L279.283 268.79L280.537 270.158C282.327 272.114 284.838 273.649 287.205 274.237C287.908 274.412 287.997 274.746 287.585 275.669C286.508 278.082 283.733 279.588 279.49 280.063C274.944 280.571 268.78 279.287 264.625 276.966C261.646 275.302 259.213 272.698 258.48 270.391L258.26 269.696L257.437 270.609C254.321 274.071 246.815 275.777 239.11 274.775C233.177 274.004 228.061 271.915 224.615 268.859C224.107 268.408 223.657 268.039 223.616 268.039C223.575 268.039 223.265 268.295 222.929 268.609C219.219 272.06 211.473 274.552 203.635 274.817C197.037 275.04 192.486 273.722 189.671 270.774C189.167 270.246 188.723 269.852 188.682 269.897C188.642 269.942 188.443 270.353 188.241 270.81C185.966 275.948 178.178 279.924 169.973 280.138C168.447 280.178 166.78 280.144 166.269 280.062ZM182.088 279.759C182.088 279.739 182.78 279.334 183.625 278.86C185.515 277.8 187.364 276.161 188.504 274.533C188.978 273.857 189.425 273.233 189.499 273.147C189.573 273.061 190.37 273.627 191.27 274.405C193.03 275.925 194.866 276.938 196.522 277.301C197.077 277.423 197.597 277.578 197.676 277.645C197.755 277.712 196.382 277.952 194.624 278.179C192.866 278.405 189.326 278.862 186.758 279.194C184.189 279.525 182.088 279.78 182.088 279.759ZM256.672 278.333C252.577 277.815 249.228 277.345 249.228 277.287C249.228 277.23 249.874 277.03 250.662 276.843C252.735 276.352 254.832 275.305 256.599 273.88C257.448 273.195 258.157 272.66 258.173 272.692C258.189 272.724 258.688 273.477 259.281 274.366C260.552 276.272 262.092 277.726 263.805 278.639C264.709 279.12 264.917 279.294 264.579 279.286C264.325 279.28 260.766 278.852 256.672 278.333ZM216.12 276.313C219.69 274.778 221.174 273.817 223.003 271.852L224.06 270.718L224.744 271.549C226.654 273.867 228.489 275.207 231.286 276.327C231.606 276.455 229.262 276.512 223.703 276.512C217.797 276.512 215.781 276.459 216.12 276.313ZM153.882 273.791C151.021 273.041 150.904 270.458 153.604 267.676C157.524 263.638 164.681 261.869 166.704 264.438C167.865 265.911 166.426 268.823 163.512 270.9C162.089 271.914 159.608 273.108 158.136 273.488C156.786 273.836 154.637 273.989 153.882 273.791ZM290.561 273.408C286.906 272.835 282.87 270.591 281.169 268.187C280.58 267.354 280.408 266.927 280.342 266.138C280.266 265.224 280.308 265.087 280.854 264.466C282.723 262.339 288.181 263.132 292.679 266.182C295.488 268.088 296.779 270.807 295.56 272.253C294.726 273.244 292.619 273.73 290.561 273.408ZM183.622 265.723C181.485 265.148 180.375 264.382 180.034 263.246C179.203 260.476 183.947 257.685 189.578 257.63C191.973 257.606 193.285 257.84 194.681 258.538C198.737 260.567 196.296 264.452 190.17 265.716C188.429 266.075 184.945 266.079 183.622 265.723ZM259.226 265.785C256.272 265.474 253.892 264.546 252.348 263.103C250.908 261.758 250.786 260.541 251.967 259.293C253.293 257.893 256.473 257.186 259.891 257.532C265.646 258.115 269.501 261.41 267.325 263.887C267.004 264.252 266.437 264.706 266.065 264.895C264.487 265.699 261.766 266.053 259.226 265.785ZM220.869 263.859C217.794 263.2 215.568 261.597 215.566 260.04C215.561 256.736 222.99 254.738 228.66 256.518C233.393 258.004 233.693 261.565 229.229 263.262C226.894 264.149 223.392 264.399 220.869 263.859ZM293.155 262.207C292.646 262.065 291.968 261.948 291.647 261.946L291.063 261.942L291.308 260.972C292.643 255.679 290.377 251.132 286.126 250.577C285.129 250.446 283.107 250.825 282.143 251.323C281.841 251.479 281.595 251.566 281.595 251.517C281.595 251.417 282.723 249.027 284.711 244.914C285.619 243.034 286.137 242.167 286.4 242.084C286.924 241.918 287.738 242.211 290.825 243.679C292.29 244.376 293.555 244.946 293.637 244.946C293.719 244.946 294.118 244.385 294.524 243.699C296.44 240.46 299.095 238.062 302.556 236.443C303.808 235.857 306.463 234.97 306.965 234.97C307.102 234.97 306.939 235.345 304.415 240.836C303.563 242.69 302.149 245.766 301.274 247.671C300.399 249.576 299.243 252.091 298.705 253.259C298.167 254.428 297.041 256.88 296.203 258.709C295.366 260.538 294.598 262.138 294.496 262.265C294.282 262.534 294.345 262.537 293.155 262.207ZM153.284 262.085C153.182 261.956 151.534 258.442 149.622 254.276C144.499 243.108 141.985 237.63 141.294 236.125C140.847 235.152 140.749 234.786 140.936 234.786C141.475 234.786 144.318 235.781 145.559 236.403C146.271 236.76 147.353 237.386 147.963 237.794C149.636 238.913 152.078 241.502 153.108 243.249C153.598 244.081 154.064 244.762 154.143 244.762C154.222 244.762 155.569 244.15 157.136 243.403C160.177 241.953 160.825 241.725 161.395 241.905C161.643 241.984 162.442 243.428 163.968 246.56C165.185 249.058 166.181 251.162 166.181 251.235C166.181 251.309 165.661 251.155 165.025 250.893C164.126 250.523 163.54 250.415 162.386 250.407C161.072 250.397 160.763 250.465 159.669 251.003C156.656 252.484 155.377 256.399 156.471 260.788L156.713 261.758L156.13 261.762C155.564 261.766 154.662 261.939 153.861 262.195C153.628 262.27 153.396 262.226 153.284 262.085ZM184.418 255.31C184.384 255.249 184.209 254.742 184.029 254.183C183.187 251.576 181.544 249.394 179.644 248.361C178.509 247.744 176.333 247.521 175.13 247.898C173.967 248.262 172.687 249.213 171.82 250.356L171.009 251.424L170.904 250.818C170.782 250.114 169.697 241.25 169.7 240.975C169.705 240.381 170.13 240.261 173.877 239.793L177.726 239.312L177.771 237.24C177.83 234.567 178.333 232.455 179.478 230.076C180.443 228.071 181.535 226.523 182.986 225.106L183.912 224.202L185.286 225.057C186.911 226.069 188.992 227.947 190.143 229.441C191.454 231.143 192.682 233.861 193.371 236.587C193.48 237.019 193.629 237.372 193.701 237.371C193.773 237.371 195.411 237.169 197.34 236.924C199.656 236.63 200.958 236.537 201.172 236.651C201.641 236.902 201.823 237.748 202.34 242.083C202.595 244.217 202.855 246.289 202.917 246.688L203.032 247.414L202.286 246.824C200.508 245.417 198.424 244.906 196.485 245.4C195.164 245.738 194.34 246.225 193.315 247.275C191.997 248.625 190.977 251.417 190.969 253.696L190.965 254.594L190.271 254.435C189.89 254.347 188.95 254.276 188.183 254.276C186.995 254.276 186.617 254.361 185.633 254.848C184.998 255.163 184.451 255.37 184.418 255.31ZM262.088 254.768C261.325 254.36 260.931 254.276 259.776 254.276C259.01 254.276 258.042 254.343 257.624 254.426L256.866 254.576L256.742 253.246C256.407 249.641 255.005 247.038 252.715 245.772C251.812 245.272 251.569 245.224 249.967 245.224C247.982 245.224 246.976 245.584 245.67 246.762C245.282 247.113 244.919 247.355 244.864 247.3C244.809 247.245 245.037 244.934 245.372 242.164C245.796 238.653 246.066 237.023 246.263 236.784C246.538 236.45 246.648 236.453 250.323 236.911C252.401 237.17 254.156 237.317 254.224 237.238C254.292 237.159 254.453 236.596 254.581 235.987C255.528 231.492 258.738 227.144 262.84 224.799L263.909 224.189L265.1 225.469C268.283 228.89 269.695 232.218 269.916 236.818L270.035 239.312L272.44 239.61C273.762 239.774 275.407 239.968 276.094 240.041C277.58 240.198 277.897 240.454 277.893 241.496C277.889 242.319 276.84 251.05 276.731 251.159C276.696 251.194 276.392 250.857 276.056 250.409C274.773 248.699 272.985 247.807 270.854 247.815C269.654 247.819 269.279 247.905 268.235 248.418C266.164 249.437 264.315 251.843 263.627 254.414C263.498 254.897 263.306 255.285 263.2 255.276C263.094 255.268 262.593 255.039 262.088 254.768ZM220.147 251.387C219.467 248.103 217.567 245.446 215.286 244.591C212.99 243.729 210.356 244.374 208.533 246.243L207.612 247.188V241.746C207.612 236.953 207.647 236.29 207.904 236.191C208.065 236.129 209.89 236.079 211.959 236.079H215.721L215.816 235.571C215.869 235.291 215.965 234.564 216.03 233.954C216.188 232.468 217.26 229.291 218.072 227.908C219.348 225.734 221.163 223.692 222.94 222.434L223.749 221.861L224.259 222.224C225.468 223.084 227.602 225.267 228.495 226.558C230.133 228.925 230.988 231.225 231.481 234.592L231.699 236.079H235.459C239.134 236.079 239.225 236.088 239.507 236.49C239.751 236.837 239.795 237.689 239.795 242.065V247.23L239.161 246.491C238.813 246.084 238.001 245.467 237.358 245.118C236.246 244.516 236.096 244.485 234.338 244.487C232.761 244.491 232.356 244.554 231.588 244.933C229.539 245.944 227.871 248.427 227.262 251.369C227.008 252.602 226.892 252.873 226.666 252.773C224.601 251.861 223.337 251.8 221.434 252.523C220.902 252.725 220.465 252.89 220.462 252.89C220.458 252.89 220.318 252.214 220.147 251.387Z" fill="currentcolor"/>

</svg>
