<svg  viewBox="0 0 1180 580" fill="currentcolor" xmlns="http://www.w3.org/2000/svg">
<path d="M249.088 205.766C248.987 205.758 248.889 205.863 248.8 206.088C248.701 206.335 248.558 206.66 248.48 206.81C248.403 206.961 248.34 207.179 248.34 207.296C248.34 207.499 246.391 210.539 246.153 210.708C245.875 210.905 244.305 213.129 244.15 213.545C244.102 213.675 243.963 213.994 243.841 214.253C243.719 214.513 243.533 215.206 243.428 215.793C243.213 217.002 243.411 218.429 243.948 219.539C244.405 220.484 244.733 220.31 245.002 218.978C245.155 218.219 245.482 217.203 245.838 216.379C245.931 216.163 246.095 215.773 246.201 215.513C246.307 215.253 246.882 214.066 247.48 212.875C248.234 211.371 248.647 210.71 248.833 210.71C249.265 210.71 249.851 211.549 250.794 213.514C252.027 216.084 251.958 215.922 252.752 218.112C252.862 218.415 252.986 218.894 253.028 219.176C253.168 220.119 253.669 220.011 254.206 218.924C254.707 217.907 254.704 216.108 254.199 215.198C253.566 214.057 253.031 213.165 252.36 212.127C250.96 209.964 249.882 207.864 249.594 206.737C249.434 206.111 249.257 205.78 249.088 205.766ZM248.683 212.442C247.973 212.442 245.839 217.526 245.551 219.906C245.447 220.757 245.891 223.586 246.237 224.285C246.353 224.519 246.448 224.883 246.448 225.094C246.448 225.305 246.554 225.68 246.683 225.928C246.813 226.177 246.92 226.596 246.92 226.86C246.92 227.124 246.986 227.407 247.066 227.49C247.195 227.621 247.426 228.83 247.653 230.553C247.72 231.063 247.708 231.082 247.49 230.811C247.211 230.463 246.921 229.209 246.921 228.35C246.921 228.012 246.854 227.695 246.772 227.645C246.69 227.595 246.578 227.218 246.522 226.809C246.467 226.399 246.321 225.841 246.198 225.568C246.075 225.295 245.975 224.956 245.975 224.814C245.975 223.954 244.655 222.489 243.294 221.839C242.704 221.557 242.319 221.502 241.008 221.516C239.545 221.531 239.363 221.57 238.485 222.043C237.287 222.69 236.491 223.452 235.974 224.446C235.412 225.529 235.39 227.489 235.929 228.508C236.445 229.482 237.235 230.069 238.18 230.18C240.306 230.431 242.015 228.836 241.497 227.086C241.387 226.714 241.142 226.284 240.952 226.13C240.644 225.881 240.56 225.875 240.177 226.075C239.94 226.198 239.667 226.3 239.571 226.3C239.474 226.3 239.206 226.449 238.975 226.631C238.563 226.954 238.091 226.946 238.091 226.616C238.091 226.524 238.215 226.404 238.367 226.35C238.519 226.296 238.74 226.177 238.858 226.084C239.143 225.863 240.144 225.519 240.511 225.516C241.364 225.509 242.576 226.048 243.286 226.751C244.036 227.494 244.799 228.871 244.975 229.803C245.029 230.085 245.142 230.405 245.226 230.512C245.404 230.738 245.256 231.244 245.049 231.117C244.873 231.008 243.367 231.447 242.742 231.79C242.023 232.184 241.256 233.09 241.146 233.675C241.092 233.963 241.088 234.499 241.139 234.867C241.24 235.601 241.094 235.807 240.109 236.319C239.456 236.659 237.246 237.47 236.515 237.64C236.211 237.71 235.741 237.838 235.471 237.923C235.2 238.009 233.852 238.168 232.475 238.277C230.526 238.432 229.481 238.436 227.759 238.294C224.014 237.986 221.722 238.049 217.2 238.585C215.52 238.784 212.542 239.46 212.109 239.739C211.997 239.812 211.719 240.166 211.491 240.527C211.059 241.21 209.855 242.433 208.47 243.593C207.611 244.313 207.472 244.645 207.963 244.8C208.449 244.954 209.089 244.727 210.184 244.011C211.341 243.255 212.438 242.612 213.022 242.346C214.13 241.843 215.057 241.527 215.624 241.459C215.97 241.417 216.337 241.317 216.438 241.236C216.539 241.154 217.107 241.024 217.699 240.946C218.292 240.868 219.171 240.721 219.652 240.619C220.274 240.487 221.209 240.471 222.884 240.565L225.241 240.698L222.088 240.88C220.354 240.98 218.651 241.141 218.304 241.237C217.957 241.333 217.442 241.413 217.159 241.415C216.876 241.419 216.521 241.485 216.37 241.567C216.22 241.648 215.742 241.871 215.308 242.063C213.804 242.728 211.68 243.813 211.043 244.243C210.237 244.786 208.708 245.514 208.373 245.514C207.954 245.514 207.217 245.065 207.117 244.749C206.941 244.197 207.325 243.652 208.495 242.788C209.35 242.156 209.845 241.638 210.351 240.846C210.984 239.855 211.047 239.665 211.102 238.564C211.138 237.843 211.089 237.227 210.98 237.024C210.781 236.653 210.502 236.717 210.494 237.137C210.488 237.437 210.1 238.272 209.639 238.978C208.897 240.112 206.726 241.788 205.06 242.512C204.626 242.701 204.059 242.952 203.798 243.07C203.538 243.188 202.935 243.438 202.458 243.626C200.963 244.213 198.492 245.758 197.93 246.456C197.825 246.587 197.736 247.122 197.733 247.645C197.728 248.49 197.328 250.06 197.044 250.343C196.987 250.401 196.94 250.578 196.94 250.737C196.94 251.089 197.327 251.109 197.943 250.788C198.714 250.387 198.838 250.464 198.727 251.273C198.666 251.717 198.727 252.459 198.886 253.203C199.028 253.867 199.221 254.819 199.315 255.317C199.417 255.862 199.566 256.222 199.688 256.222C199.8 256.222 200.076 255.865 200.303 255.429C201.437 253.245 204.124 250.424 207.109 248.282C207.543 247.971 208.004 247.668 208.134 247.61C208.264 247.551 208.796 247.246 209.317 246.931C210.176 246.413 210.993 246.005 212.312 245.437C213.745 244.82 214.003 244.726 214.257 244.726C214.41 244.726 214.603 244.659 214.685 244.577C214.768 244.496 215.119 244.359 215.466 244.274C215.813 244.189 216.771 243.948 217.594 243.739C219.626 243.225 220.57 243.053 223.428 242.682C225.798 242.375 228 242.266 228 242.457C228 242.637 226.655 243.967 225.951 244.485C224.994 245.188 223.762 245.838 221.904 246.622C218.266 248.157 216.566 249.216 215.786 250.435C215.439 250.976 215.251 250.979 214.828 250.449L214.494 250.03L213.712 250.803C212.614 251.889 210.679 254.53 209.857 256.065C209.363 256.987 209.09 258.086 209.085 259.175C209.08 260.245 208.887 260.661 208.664 260.08C208.609 259.935 208.369 259.844 208.041 259.844C207.598 259.844 207.444 259.944 207.127 260.435C206.341 261.652 206.189 262.613 206.178 266.458C206.167 270.432 206.406 271.907 207.444 274.277C207.563 274.55 207.661 274.838 207.661 274.917C207.661 275.119 208.984 277.687 209.339 278.172C209.5 278.394 209.707 278.577 209.798 278.58C209.89 278.584 210.046 278 210.146 277.285C210.363 275.725 210.596 274.607 210.782 274.222C210.857 274.066 211.037 273.703 211.182 273.414C211.327 273.126 211.448 272.771 211.45 272.627C211.455 272.482 211.559 272.226 211.687 272.058C211.814 271.89 211.918 271.564 211.918 271.332C211.918 271.101 212.13 270.495 212.389 269.985C212.837 269.103 212.852 269.013 212.687 268.165C212.448 266.938 212.804 262.518 213.171 262.152C213.263 262.061 213.337 261.825 213.337 261.629C213.337 260.991 214.284 258.966 215.202 257.639C217.205 254.747 220.726 252.066 225.714 249.637C226.652 249.18 228.4 248.439 230.681 247.53C231.331 247.271 232.096 246.959 232.381 246.837C232.666 246.715 232.994 246.616 233.111 246.616C233.227 246.616 233.411 246.509 233.519 246.379C233.627 246.25 233.875 246.143 234.071 246.143C234.266 246.143 234.515 246.037 234.623 245.907C234.731 245.777 234.943 245.671 235.096 245.671C235.248 245.671 235.461 245.564 235.569 245.435C235.677 245.305 235.828 245.198 235.906 245.198C235.984 245.198 236.348 245.005 236.715 244.768C237.644 244.17 237.976 243.968 238.249 243.838C238.552 243.693 240.869 241.953 241.459 241.427C242.408 240.582 244.266 238.691 244.503 238.331C244.639 238.124 244.812 237.954 244.889 237.954C245.124 237.954 245.044 238.431 244.792 238.527C244.662 238.577 244.556 238.703 244.556 238.808C244.556 239.108 242.413 241.351 241.347 242.166C240.814 242.573 240.307 242.963 240.22 243.031C239.678 243.459 238.606 244.215 238.407 244.31C238.277 244.373 237.744 244.664 237.224 244.957C236.263 245.5 234.265 246.516 233.834 246.681C233.704 246.73 233.491 246.836 233.361 246.916C233.067 247.096 231.425 247.849 229.262 248.796C227.236 249.683 225.39 250.567 222.992 251.798C221.382 252.624 218.797 254.558 217.326 256.036C216.433 256.933 215.702 257.74 215.702 257.828C215.702 257.916 215.507 258.246 215.269 258.562C214.857 259.107 214.556 259.674 214.066 260.828C213.213 262.84 212.944 264.937 213.192 267.64C213.295 268.766 213.477 269.9 213.595 270.16C213.947 270.935 216.648 272.221 216.648 271.613C216.648 271.489 216.458 271.04 216.225 270.616C215.854 269.94 215.793 269.628 215.739 268.112C215.703 267.107 215.753 266.082 215.858 265.671C215.957 265.281 216.092 264.712 216.158 264.407C216.418 263.202 217.961 260.396 219.156 258.957C219.381 258.686 219.743 258.225 219.959 257.934C221.194 256.274 224.076 254.097 226.798 252.767C227.873 252.242 228.833 251.813 228.93 251.813C229.028 251.813 229.232 251.747 229.382 251.667C229.533 251.586 230.578 251.063 231.706 250.502C234.777 248.976 236.818 247.791 238.335 246.655C238.711 246.374 239.094 246.143 239.186 246.143C239.278 246.143 239.353 246.088 239.353 246.02C239.353 245.952 239.565 245.771 239.825 245.618C240.421 245.266 243.345 242.758 244.101 241.949C244.414 241.614 245.001 240.915 245.405 240.395C246.301 239.242 246.638 238.879 246.728 238.969C246.863 239.104 246.116 242.144 245.584 243.624C245.355 244.259 243.192 248.705 242.826 249.293C242.745 249.423 242.579 249.777 242.457 250.08C242.335 250.383 242.154 250.83 242.055 251.072C241.791 251.718 241.818 251.823 242.467 252.688C242.792 253.122 243.2 253.776 243.373 254.142C243.557 254.531 243.783 254.791 243.915 254.767C244.039 254.744 244.465 254.257 244.861 253.683C245.906 252.17 246.638 251.34 246.927 251.34C247.244 251.34 248.429 253.048 249.296 254.754C249.706 255.56 250.025 256.013 250.15 255.965C250.26 255.923 250.511 255.575 250.708 255.191C250.906 254.808 251.41 254.07 251.828 253.552L252.588 252.61L252.316 252.102C252.167 251.823 251.988 251.52 251.919 251.428C251.146 250.402 249.759 247.775 249.759 247.337C249.759 247.21 249.701 247.071 249.631 247.028C249.48 246.935 248.447 243.739 248.2 242.6C247.746 240.511 247.818 239.97 248.427 240.907C248.86 241.572 250.667 243.4 251.808 244.326C252.787 245.12 254.117 246.066 255.829 247.187C256.263 247.471 256.688 247.763 256.775 247.837C256.862 247.91 257.039 248.02 257.169 248.082C257.299 248.144 257.618 248.33 257.879 248.496C259 249.211 262.873 251.173 264.107 251.65C266.901 252.731 270.936 255.186 272.184 256.564C274.622 259.257 275.343 260.262 276.409 262.451C276.784 263.221 277.145 264.101 277.212 264.407C277.278 264.712 277.414 265.302 277.514 265.717C277.613 266.132 277.669 267.195 277.637 268.079C277.589 269.449 277.516 269.82 277.14 270.59C276.897 271.087 276.738 271.556 276.785 271.632C276.895 271.811 277.657 271.67 278.056 271.396C278.227 271.279 278.46 271.183 278.575 271.183C278.689 271.183 278.986 271.033 279.234 270.849C279.762 270.459 279.939 269.871 280.194 267.662C280.632 263.87 279.51 259.986 277.189 257.26C276.697 256.681 274.676 254.647 274.594 254.647C274.56 254.647 274.299 254.435 274.014 254.175C273.12 253.359 273.846 253.66 275.133 254.64C276.715 255.842 277.273 256.381 278.239 257.639C280.519 260.609 281.201 264.115 280.57 269.621C280.46 270.582 280.424 270.49 282.524 274.569C283.306 276.086 283.336 276.191 283.339 277.443C283.343 278.376 283.398 278.742 283.539 278.74C283.783 278.736 284.905 276.811 285.464 275.435C285.692 274.872 285.941 274.27 286.016 274.096C286.203 273.666 286.577 272.429 286.92 271.104C287.341 269.477 287.323 263.562 286.893 261.97C286.5 260.518 285.999 259.844 285.311 259.844C284.988 259.844 284.759 259.936 284.7 260.09C284.501 260.609 284.288 260.097 284.283 259.087C284.279 258.503 284.154 257.675 284 257.231C283.762 256.544 282.609 254.429 282.205 253.939C282.134 253.852 281.731 253.32 281.31 252.757C280.889 252.194 280.174 251.344 279.721 250.868L278.897 250.002L278.552 250.435C278.113 250.984 277.926 250.979 277.563 250.411C277.088 249.667 275.611 248.56 274.079 247.799C273.291 247.408 272.605 247.088 272.555 247.088C272.223 247.088 268.672 245.313 267.654 244.639C266.883 244.128 265.368 242.668 265.368 242.436C265.368 242.28 268.617 242.445 270.098 242.677C274.019 243.29 274.121 243.311 277.824 244.26C278.127 244.338 278.766 244.551 279.243 244.733C279.72 244.915 280.292 245.121 280.515 245.191C280.737 245.26 281.057 245.392 281.224 245.484C281.392 245.576 281.919 245.833 282.396 246.055C283.995 246.801 286.88 248.596 287.817 249.429C289.298 250.746 290.228 251.623 290.511 251.968C290.687 252.184 290.947 252.477 291.088 252.619C291.901 253.435 293.401 255.781 293.912 257.033C294.461 258.379 294.755 258.905 294.927 258.848C295.016 258.819 295.137 258.072 295.196 257.189C295.255 256.306 295.373 255.355 295.459 255.076C295.544 254.797 295.66 254.232 295.716 253.82C295.855 252.79 296.158 252.845 297.193 254.092C298.102 255.187 298.446 255.39 298.942 255.125C299.721 254.708 299.723 253.889 298.947 252.909C298.696 252.592 298.235 251.844 297.924 251.246C297.613 250.648 297.296 250.053 297.22 249.923C297.144 249.793 297.042 249.58 296.993 249.45C296.944 249.32 296.84 249.108 296.763 248.978C296.686 248.848 296.484 248.316 296.314 247.797C296.05 246.988 295.871 246.743 295.074 246.096C293.934 245.172 292.123 244.106 290.753 243.551C289.172 242.912 289.147 242.902 288.309 242.519C287.308 242.063 285.637 240.968 284.907 240.289C283.894 239.348 282.869 237.758 282.869 237.13C282.869 236.789 282.687 236.676 282.45 236.872C282.198 237.081 282.158 238.982 282.392 239.597C282.56 240.038 283.47 240.981 285.146 242.449C286.084 243.27 286.233 243.472 286.233 243.928C286.233 244.632 285.845 244.905 285.01 244.789C284.656 244.74 284.137 244.597 283.857 244.472C283.576 244.347 283.115 244.149 282.832 244.031C282.549 243.914 281.643 243.5 280.819 243.113C277.344 241.477 276.097 241.192 270.965 240.865C265.787 240.535 265.378 240.325 270.098 240.419C272.473 240.467 274.407 240.583 275.121 240.722C275.759 240.845 276.478 240.946 276.719 240.946C277.69 240.946 280.239 242.025 283.657 243.883C284.453 244.316 284.999 244.274 285.16 243.768C285.241 243.511 285.083 243.266 284.42 242.626C283.956 242.179 283.399 241.667 283.183 241.49C282.66 241.061 282.159 240.392 281.712 239.529C281.263 238.66 281.148 238.629 278.218 238.598C277.004 238.585 275.159 238.472 274.119 238.346C271.809 238.068 268.482 238.049 265.171 238.296C262.302 238.51 259.417 238.309 257.585 237.765C256.393 237.412 256.07 237.264 255.314 236.723C254.726 236.302 254.681 236.067 255.114 235.676C255.626 235.213 255.813 234.412 255.593 233.625C255.385 232.884 254.642 232.069 254.016 231.896C253.799 231.836 253.314 231.674 252.938 231.536C252.19 231.263 252.223 231.401 252.542 229.881C252.728 228.992 253.522 227.706 254.376 226.908C254.971 226.352 255.355 226.123 256.562 225.603C257.185 225.335 258.515 225.268 258.657 225.497C258.777 225.69 258.362 225.828 257.659 225.828C257.336 225.828 256.934 225.932 256.766 226.059C256.597 226.186 256.338 226.293 256.189 226.296C256.04 226.3 255.842 226.444 255.748 226.619C255.609 226.88 255.657 227.049 256.017 227.549C256.706 228.506 257.422 228.773 259.078 228.691C259.94 228.648 260.967 227.678 261.313 226.579C261.659 225.483 261.654 225.31 261.243 224.093C260.666 222.388 258.996 221.1 257.364 221.103C256.784 221.103 255.007 221.577 254.174 221.952C253.301 222.345 253.054 222.614 252.495 223.781C251.667 225.507 251.303 226.839 250.739 230.203C250.677 230.574 250.555 230.893 250.468 230.912C250.204 230.969 250.198 229.981 250.459 228.968C250.594 228.439 250.705 227.824 250.705 227.601C250.705 226.836 251.867 223.486 252.358 222.836C252.659 222.436 252.912 221.739 252.912 221.308C252.912 220.879 252.264 218.489 251.854 217.403C251.286 215.902 251.114 215.477 250.831 214.883C250.325 213.818 249.64 212.757 249.458 212.757C249.352 212.757 249.04 225.863 249.061 229.411C249.069 230.722 249.005 230.895 248.664 230.485C248.521 230.312 248.517 229.49 248.645 226.988C248.842 223.142 248.87 212.442 248.683 212.442ZM248.583 232.364H252.373L252.875 232.757C253.321 233.107 253.684 233.771 253.52 233.935C253.486 233.968 252.965 233.859 252.361 233.692C251.466 233.444 250.746 233.387 248.456 233.387C246.472 233.387 245.5 233.449 245.142 233.598C244.32 233.939 243.864 234.01 243.57 233.843C243.321 233.702 243.316 233.644 243.523 233.244C243.935 232.448 244.421 232.364 248.583 232.364ZM251.326 236.38C251.418 236.38 251.493 236.451 251.493 236.537C251.493 236.624 251.462 236.695 251.423 236.695C251.386 236.695 251.31 236.624 251.256 236.537C251.203 236.451 251.234 236.38 251.326 236.38ZM251.799 236.695C251.881 236.695 251.991 236.765 252.045 236.852C252.098 236.939 252.032 237.009 251.896 237.009C251.761 237.009 251.651 236.939 251.651 236.852C251.651 236.765 251.717 236.695 251.799 236.695ZM245.244 237.379C245.258 237.383 245.275 237.405 245.294 237.452C245.339 237.566 245.334 237.702 245.282 237.754C245.229 237.806 245.192 237.714 245.199 237.547C245.204 237.433 245.22 237.375 245.244 237.379ZM243.697 237.683C243.703 237.683 243.708 237.687 243.71 237.688C243.977 237.954 242.481 239.354 240.377 240.805C238.663 241.988 235.652 243.781 235.38 243.781C235.258 243.781 235.091 243.842 235.009 243.916C234.683 244.209 233.052 244.609 231.705 244.727C230.925 244.795 229.896 245 229.419 245.182C228.942 245.364 228.534 245.513 228.513 245.513C228.491 245.514 228.473 244.779 228.473 243.882V242.25L229.459 242.153C230.001 242.1 231.047 242.015 231.784 241.965C234.319 241.793 236.754 241.273 238.958 240.431C240.363 239.895 241.351 239.335 242.713 238.302C243.185 237.943 243.609 237.678 243.697 237.683ZM249.655 237.713C249.808 237.719 250.287 238.022 251.02 238.58C253.593 240.537 256.676 241.496 261.899 241.965C263.33 242.094 264.589 242.201 264.698 242.203C264.843 242.207 264.895 242.644 264.895 243.86C264.895 244.769 264.842 245.506 264.777 245.497C264.711 245.489 264.304 245.338 263.87 245.163C263.433 244.986 262.427 244.786 261.615 244.713C260.19 244.587 259.487 244.43 258.509 244.02C257.326 243.525 257.079 243.395 255.356 242.359C252.736 240.784 249.601 238.276 249.601 237.756C249.601 237.725 249.619 237.711 249.655 237.713ZM256.14 238.692C256.429 238.704 256.775 238.784 256.933 238.902C257.019 238.968 257.392 239.071 257.761 239.131C258.13 239.192 258.392 239.306 258.343 239.385C258.294 239.464 258.17 239.518 258.066 239.506C257.287 239.408 257.011 239.333 257.011 239.222C257.011 239.151 256.68 239.043 256.275 238.982C255.837 238.917 255.618 238.823 255.734 238.752C255.813 238.703 255.966 238.685 256.14 238.692ZM249.329 239.214C249.36 239.214 249.811 239.622 250.332 240.12C251.724 241.451 254.011 243.309 254.257 243.309C254.316 243.309 254.623 243.509 254.939 243.755C255.255 244 255.62 244.249 255.75 244.308C255.88 244.366 256.199 244.555 256.46 244.727C256.72 244.899 257.128 245.118 257.366 245.213C257.605 245.309 257.8 245.451 257.8 245.529C257.8 245.607 257.936 245.671 258.104 245.671C258.271 245.671 258.505 245.768 258.624 245.886C258.742 246.005 258.996 246.151 259.187 246.212C259.378 246.272 259.534 246.388 259.534 246.469C259.534 246.699 259.12 246.641 258.903 246.38C258.795 246.25 258.583 246.143 258.43 246.143C258.278 246.143 258.065 246.037 257.957 245.907C257.849 245.777 257.637 245.671 257.484 245.671C257.332 245.671 257.119 245.565 257.011 245.435C256.903 245.305 256.745 245.198 256.658 245.198C256.453 245.198 254.583 244.072 254.515 243.907C254.486 243.838 254.392 243.781 254.306 243.781C254.02 243.781 251.028 241.395 250.3 240.586C249.649 239.863 249.19 239.214 249.329 239.214ZM235.555 239.234C235.61 239.238 235.657 239.25 235.684 239.277C235.736 239.329 235.643 239.366 235.477 239.359C235.293 239.352 235.255 239.314 235.381 239.264C235.438 239.241 235.501 239.231 235.555 239.234ZM233.682 239.563C233.876 239.563 234.02 239.576 234.083 239.603C234.363 239.72 234.356 239.739 233.992 239.85C233.775 239.916 233.314 239.978 232.967 239.988C232.62 239.997 231.988 240.111 231.562 240.24C231.036 240.399 230.127 240.471 228.724 240.464C226.246 240.452 226.476 240.244 229.224 240.012C230.242 239.927 231.683 239.77 232.427 239.665C232.893 239.6 233.358 239.564 233.682 239.563ZM259.692 239.705C259.82 239.705 259.949 239.714 260.046 239.733C260.242 239.771 260.082 239.801 259.692 239.801C259.301 239.801 259.142 239.771 259.337 239.733C259.435 239.714 259.563 239.705 259.692 239.705ZM263.633 240.177C263.962 240.177 264.291 240.185 264.54 240.2C265.039 240.231 264.631 240.257 263.633 240.257C262.636 240.257 262.228 240.231 262.727 240.2C262.976 240.184 263.305 240.177 263.633 240.177ZM297.759 243.38C297.685 243.38 297.605 243.488 297.446 243.725C296.021 245.848 296.426 248.332 298.715 251.498C300.678 254.214 301.137 255.818 300.238 256.824C299.624 257.511 299.112 257.485 298.354 256.728C297.741 256.116 297.059 254.976 297.059 254.564C297.059 254.302 296.511 253.703 296.271 253.703C296.184 253.703 296.109 254.004 296.104 254.372C296.099 254.74 296.027 255.396 295.944 255.829C295.861 256.262 295.722 257.396 295.636 258.348C295.292 262.141 295.284 262.717 295.555 264.018C295.699 264.711 295.906 265.738 296.015 266.301C296.444 268.513 297.522 269.461 298.346 268.348C298.538 268.089 298.761 267.876 298.84 267.876C299.216 267.876 298.511 270.333 298.003 270.791C297.525 271.224 296.896 270.638 296.523 269.411C296.405 269.027 296.153 269.068 296.04 269.49C295.297 272.259 295.175 273.095 295.191 275.278C295.204 276.954 295.14 277.654 294.889 278.585C294.402 280.391 294.043 281.43 293.641 282.191C293.167 283.088 293.179 283.309 293.748 284.151C294.008 284.536 294.224 284.947 294.226 285.064C294.231 285.182 294.335 285.415 294.463 285.583C294.59 285.752 294.694 285.992 294.694 286.117C294.694 286.243 294.807 286.427 294.944 286.528C295.205 286.719 295.147 287.567 294.84 288.044C294.627 288.374 294.426 288.004 294.293 287.037C294.186 286.26 293.762 285.17 293.394 284.724C293.285 284.593 292.88 284.239 292.493 283.937C291.84 283.428 291.709 283.388 290.68 283.391C289.469 283.395 288.995 283.605 288.19 284.497C287.162 285.635 286.823 287.178 287.407 288.062C287.941 288.871 288.548 289.215 289.439 289.215C290.164 289.215 290.329 289.15 290.823 288.672C291.131 288.374 291.382 287.984 291.381 287.806C291.377 287.372 290.79 286.842 290.161 286.704C289.456 286.549 289.517 286.301 290.261 286.301C290.772 286.301 290.965 286.402 291.425 286.911C292.38 287.967 292.522 289.063 291.983 291.223C291.829 291.842 291.735 291.971 291.438 291.971C291.082 291.971 289.964 292.935 289.964 293.241C289.964 293.328 290.082 293.578 290.225 293.797C290.468 294.167 290.468 294.212 290.219 294.46C289.987 294.692 289.557 294.727 286.923 294.727C283.671 294.727 283.018 294.634 280.583 293.827C278.924 293.277 277.68 292.564 276.799 291.659L276.169 291.011L276.657 290.585C276.925 290.351 277.262 289.932 277.406 289.655C277.651 289.182 277.65 289.112 277.391 288.562C277.239 288.238 276.919 287.759 276.68 287.496C276.34 287.122 276.247 286.863 276.247 286.298C276.247 285.67 276.323 285.506 276.838 285.02C277.815 284.098 278.466 283.885 280.248 283.906C281.644 283.922 281.848 283.962 282.195 284.286C283.116 285.146 282.934 285.681 282 284.861C281.56 284.476 281.273 284.355 280.768 284.346C280.11 284.333 280.11 284.333 280.063 284.966C280.003 285.778 280.523 286.969 281.123 287.396C281.776 287.86 283.005 287.836 283.785 287.344C285.03 286.559 285.707 285.239 285.707 283.597C285.707 282.166 285.227 281.204 284.097 280.371C283.705 280.082 283.389 280.001 282.641 279.996C281.702 279.99 281.694 279.987 282.175 279.777C282.792 279.509 282.869 279.298 282.869 277.883C282.869 276.585 282.613 275.869 281.657 274.49C281.008 273.554 280.654 272.879 280.296 271.892C280.045 271.198 279.569 270.993 279.111 271.38C278.657 271.764 277.431 272.244 275.387 272.837C273.763 273.308 272.96 273.981 272.147 275.551L271.802 276.219L272.148 276.969C273.716 280.373 273.884 280.965 273.881 283.073C273.881 284.026 273.835 284.965 273.783 285.16C273.572 285.946 273.469 285.413 273.463 283.506C273.459 281.954 273.398 281.384 273.197 280.994C273.053 280.717 272.936 280.351 272.936 280.18C272.936 280.01 272.833 279.67 272.707 279.424C272.581 279.179 272.321 278.624 272.129 278.191C271.529 276.837 271.285 276.592 270.182 276.236C269.622 276.055 268.898 275.908 268.572 275.908C267.485 275.908 266.076 276.593 265.167 277.564C264.53 278.245 264.455 278.373 264.179 279.249C263.923 280.057 263.922 280.168 264.161 280.868C264.854 282.9 267.108 284.552 268.537 284.075C269.296 283.822 270.098 283.024 270.098 282.522C270.098 281.859 269.18 281.088 268.259 280.977C267.554 280.891 267.532 280.876 267.969 280.777C269.008 280.541 269.296 280.613 270.036 281.294C271.096 282.27 271.359 282.891 271.359 284.411V285.683L270.678 286.347C269.628 287.368 269.42 287.761 269.543 288.489C269.635 289.031 269.602 289.137 269.296 289.301C268.607 289.669 266.826 289.932 263.949 290.091C262.344 290.179 260.298 290.293 259.4 290.345C257.38 290.461 255.963 290.185 253.922 289.28C253.136 288.931 252.122 287.847 252.129 287.364C252.134 287.169 252.236 286.833 252.36 286.616C252.85 285.76 252.438 284.907 251.156 284.127C250.335 283.627 250.19 283.395 250.206 282.606C250.236 281.102 251.44 279.616 253.102 279.032C254.135 278.668 255.435 278.639 255.435 278.979C255.435 279.14 255.272 279.215 254.922 279.217C254.298 279.221 252.733 279.693 252.381 279.985C252.009 280.293 252.06 280.508 252.636 281.066C253.603 282.001 254.713 282.257 255.849 281.808C257.263 281.25 258.16 280.556 258.842 279.494C259.316 278.754 259.367 277.249 258.944 276.483C258.518 275.713 257.35 274.646 256.563 274.309C255.586 273.891 254.054 273.871 252.678 274.259C251.71 274.531 251.45 274.694 250.517 275.605C249.933 276.175 249.382 276.813 249.292 277.023C249.202 277.232 249.066 277.51 248.99 277.64C248.646 278.225 248.34 279.105 248.34 279.51C248.34 279.753 248.234 280.3 248.105 280.725C247.976 281.15 247.868 281.782 247.866 282.128C247.861 282.834 247.671 283.244 247.419 283.089C247.226 282.97 247.304 281.948 247.648 280.081C248.163 277.284 248.692 276.175 250.143 274.845C250.688 274.347 251.238 273.726 251.368 273.467C251.497 273.207 251.727 272.737 251.878 272.423C252.029 272.109 252.207 271.329 252.274 270.691L252.396 269.53L252.418 271.056C252.43 271.928 252.371 272.624 252.281 272.679C252.098 272.792 252.068 273.494 252.242 273.596C252.307 273.634 252.725 273.526 253.171 273.355C254.067 273.011 254.247 272.726 254.693 270.947C255.632 267.193 255.908 264.403 255.621 261.54C255.515 260.481 255.326 259.259 255.202 258.824C255.077 258.389 254.835 257.502 254.665 256.852C254.389 255.801 254.187 255.214 253.566 253.663C253.471 253.425 253.331 253.23 253.256 253.23C252.745 253.23 251.623 255.478 251.016 257.716C250.696 258.893 250.715 259.052 251.429 261.228C251.941 262.788 251.563 263.54 250.491 263.092C250.08 262.921 249.89 262.699 249.678 262.144C249.43 261.496 249.423 261.314 249.611 260.435C249.726 259.894 249.816 258.884 249.811 258.191C249.8 256.815 249.838 256.909 248.222 254.29C247.766 253.553 247.394 252.874 247.394 252.781C247.394 252.687 247.27 252.548 247.118 252.47C246.817 252.315 246.448 252.389 246.448 252.603C246.448 252.677 246.052 253.327 245.568 254.047C244.622 255.456 244.282 256.115 244.016 257.061C243.923 257.392 243.775 257.662 243.689 257.661C243.602 257.661 243.421 257.14 243.287 256.507C243.152 255.874 242.955 255.151 242.848 254.9C242.587 254.286 241.737 253.23 241.503 253.23C241.226 253.23 240.601 254.047 240.298 254.805C240.212 255.022 240.07 255.322 239.983 255.472C239.897 255.622 239.826 255.824 239.826 255.921C239.826 256.017 239.728 256.319 239.608 256.592C239.364 257.151 239.048 258.092 238.677 259.372C238.539 259.848 238.32 260.592 238.191 261.026C238.062 261.459 237.869 262.673 237.761 263.725C237.49 266.377 237.835 269.208 238.665 271.128C238.783 271.401 238.88 271.7 238.88 271.792C238.88 271.954 239.053 272.391 239.684 273.821C239.87 274.241 240.083 274.491 240.257 274.492C240.41 274.492 240.705 274.54 240.913 274.596C241.249 274.685 241.281 274.654 241.205 274.318C241.105 273.874 240.819 273.049 240.515 272.319C240.199 271.563 240.233 269.24 240.574 268.272C240.864 267.449 242.036 266.153 243.775 264.733C244.248 264.347 245.223 263.443 245.942 262.725C246.661 262.007 247.282 261.419 247.322 261.419C247.361 261.419 247.394 261.552 247.394 261.714C247.394 262.444 248.127 263.598 249.428 264.912C251.359 266.862 251.65 267.191 251.656 267.429C251.66 267.545 251.765 267.777 251.892 267.945C252.152 268.289 252.207 269.136 251.969 269.136C251.884 269.136 251.766 268.941 251.707 268.703C251.506 267.888 250.833 267.009 249.193 265.422C248.248 264.506 247.48 263.623 247.379 263.335C247.14 262.649 246.743 262.7 246.196 263.488C245.947 263.847 245.062 264.656 244.229 265.286C243.395 265.917 242.424 266.761 242.069 267.163C241.416 267.905 240.772 269.435 240.772 270.244C240.772 270.743 241.32 272.94 241.553 273.374C241.643 273.544 241.718 273.824 241.718 273.998C241.718 274.411 242.325 275.435 242.57 275.435C242.782 275.435 243.5 276.172 244.105 277.01C244.584 277.674 245.502 279.592 245.502 279.929C245.502 280.062 245.602 280.328 245.725 280.519C246.006 280.958 246.127 283.016 245.877 283.103C245.651 283.181 245.507 282.644 245.504 281.713C245.504 281.311 245.396 280.78 245.266 280.532C245.137 280.284 245.028 279.939 245.025 279.766C245.021 279.593 244.915 279.313 244.787 279.145C244.66 278.977 244.556 278.711 244.556 278.555C244.556 278.398 244.492 278.27 244.414 278.27C244.335 278.27 244.201 278.075 244.115 277.837C243.918 277.29 242.881 276.086 242.443 275.895C242.261 275.816 242.005 275.683 241.875 275.6C240.41 274.669 237.521 274.493 235.805 275.232C234.83 275.652 234.338 276.065 233.737 276.969C233.249 277.704 233.184 277.92 233.184 278.811C233.184 279.895 233.565 280.724 234.431 281.526C235.552 282.563 237.269 282.807 238.323 282.079C239.016 281.6 239.812 280.553 239.821 280.11C239.834 279.379 239.561 279.215 238.332 279.215C237.689 279.215 237.12 279.286 237.066 279.372C236.964 279.539 236.199 279.595 236.199 279.437C236.199 279.386 236.359 279.211 236.554 279.048C236.827 278.821 237.17 278.751 238.038 278.747C239.118 278.742 239.201 278.769 239.955 279.365C240.571 279.851 240.885 280.277 241.388 281.312C241.743 282.04 242.033 282.861 242.033 283.137C242.033 283.717 241.582 284.674 241.104 285.105C240.704 285.467 240.65 286.679 241.013 287.158C241.329 287.575 241.317 287.626 240.732 288.292C240.161 288.944 238.425 289.819 237.108 290.121C234.885 290.629 225.445 290.034 224.069 289.299C223.773 289.141 223.73 289.022 223.811 288.591C223.948 287.858 223.69 287.308 222.806 286.453C222.082 285.752 222.032 285.65 221.927 284.669C221.682 282.386 222.531 280.819 224.156 280.555L224.768 280.455L224.396 280.779C224.191 280.958 223.927 281.105 223.809 281.105C223.69 281.105 223.481 281.276 223.343 281.485C222.535 282.717 224.386 284.518 226.011 284.08C227.744 283.614 229.631 281.178 229.35 279.771C228.956 277.805 226.711 275.908 224.779 275.908C224.242 275.908 222.658 276.355 222.288 276.61C221.996 276.812 221.031 278.036 220.856 278.427C220.797 278.557 220.686 278.77 220.607 278.9C219.986 279.929 219.881 280.544 219.887 283.107C219.896 286.401 219.642 286.595 219.417 283.467C219.229 280.838 219.728 278.875 221.02 277.173C221.65 276.342 221.626 276.097 220.788 274.837C220.046 273.719 219.288 273.188 217.963 272.859C215.331 272.204 214.196 271.749 213.443 271.048L212.997 270.632L212.694 271.004C212.528 271.208 212.391 271.514 212.391 271.683C212.391 271.853 212.315 272.134 212.222 272.308C212.128 272.482 211.948 272.991 211.822 273.439C211.696 273.887 211.483 274.644 211.35 275.12C211.053 276.182 210.65 278.919 210.764 279.103C210.81 279.176 210.999 279.295 211.186 279.366C211.502 279.487 211.493 279.503 211.051 279.603C209.676 279.914 208.564 280.743 207.975 281.894C207.568 282.692 207.54 284.587 207.923 285.372C208.664 286.887 209.776 287.719 211.06 287.719C211.998 287.719 212.599 287.299 213.018 286.352C213.382 285.531 213.447 284.286 213.132 284.166C212.762 284.024 211.804 284.547 211.251 285.193C210.952 285.542 210.661 285.78 210.603 285.723C209.878 284.999 212.415 283.342 213.574 283.782C213.802 283.868 214.168 283.939 214.388 283.939C214.974 283.939 215.857 284.384 216.53 285.02C217.053 285.513 217.121 285.665 217.121 286.332C217.121 286.948 217.041 287.165 216.681 287.52C216.439 287.759 216.113 288.248 215.956 288.606C215.683 289.229 215.683 289.276 215.95 289.708C216.103 289.956 216.44 290.344 216.7 290.57C217.169 290.977 217.17 290.982 216.878 291.367C216.534 291.823 215.435 292.688 214.699 293.082C214.077 293.415 211.707 294.224 210.499 294.517C209.927 294.655 208.574 294.726 206.524 294.726C203.865 294.727 203.379 294.69 203.16 294.471C202.923 294.235 202.923 294.176 203.16 293.723C203.393 293.273 203.393 293.199 203.164 292.848C202.854 292.376 202.255 291.971 201.867 291.971C201.279 291.971 200.942 289.493 201.363 288.27C201.646 287.45 201.798 287.281 201.919 287.653C202.136 288.321 202.341 288.604 202.862 288.961C203.825 289.62 205.2 289.221 205.965 288.062C206.672 286.992 205.992 285.032 204.536 283.939C203.848 283.423 203.727 283.388 202.619 283.389C201.615 283.389 201.342 283.453 200.806 283.8C200.054 284.288 198.52 285.913 198.52 286.222C198.52 286.703 198.158 286.601 197.296 285.879C196.798 285.461 196.368 285.067 196.339 285.002C196.31 284.937 196.184 284.884 196.058 284.884C195.933 284.884 195.789 284.778 195.739 284.648C195.689 284.518 195.523 284.412 195.369 284.412C195.216 284.412 195.002 284.305 194.894 284.175C194.786 284.045 194.57 283.939 194.414 283.939C194.02 283.939 193.632 283.775 193.632 283.607C193.632 283.387 194.171 283.442 194.509 283.698C194.677 283.825 194.934 283.931 195.079 283.934C195.225 283.938 195.439 284.028 195.555 284.136C195.671 284.244 196.022 284.463 196.335 284.623C196.648 284.782 197.13 285.119 197.407 285.371C197.683 285.623 197.98 285.829 198.068 285.829C198.285 285.829 198.678 285.421 198.678 285.196C198.678 285.096 198.997 284.649 199.387 284.203C199.777 283.758 200.097 283.279 200.097 283.138C200.097 282.998 199.933 282.572 199.734 282.191C198.684 280.187 198.191 277.97 198.126 274.963C198.077 272.706 197.826 270.742 197.529 270.285C197.356 270.017 196.945 270.214 196.781 270.644C196.595 271.133 196.14 271.366 195.837 271.128C195.501 270.862 194.894 269.972 194.889 269.733C194.884 269.621 194.779 269.392 194.652 269.224C194.525 269.056 194.421 268.643 194.421 268.308C194.421 267.972 194.345 267.556 194.252 267.384C194.16 267.211 194.036 266.637 193.976 266.108C193.917 265.579 193.798 265.122 193.711 265.094C193.624 265.065 193.341 265.411 193.08 265.861C192.82 266.312 192.413 267.003 192.175 267.397C191.937 267.79 191.662 268.311 191.565 268.553C191.468 268.796 191.344 268.95 191.29 268.896C191.235 268.841 191.187 268.031 191.182 267.094C191.176 265.898 191.098 265.211 190.918 264.783C190.778 264.449 190.619 264.069 190.565 263.939C190.195 263.052 189.068 261.625 187.795 260.435C187.17 259.85 186.596 259.372 186.519 259.372C186.305 259.372 186.353 260.089 186.606 260.666C186.731 260.95 187.065 261.892 187.347 262.758C187.835 264.251 187.861 264.452 187.851 266.616C187.846 267.872 187.72 269.758 187.572 270.806C187.324 272.567 187.323 272.808 187.554 273.956C187.804 275.196 188.613 277.338 189.009 277.81C189.124 277.946 189.217 278.099 189.217 278.15C189.217 278.2 189.628 278.938 190.131 279.79C191.459 282.044 192.008 283.182 191.802 283.257C191.186 283.481 191.031 283.767 191.051 284.638C191.077 285.746 191.585 287.572 191.898 287.682C192.028 287.728 192.453 287.907 192.844 288.081C193.712 288.468 193.42 288.618 192.31 288.355C191.624 288.192 191.433 288.201 191.031 288.413C190.77 288.55 190.465 288.663 190.353 288.663C190.24 288.663 189.938 288.772 189.683 288.904C189.059 289.226 189.076 289.729 189.73 290.304C190.965 291.39 191.939 291.755 194.184 291.975C195.606 292.114 196.859 292.661 197.504 293.427C197.97 293.98 197.977 294.119 197.574 294.727C196.917 295.717 197.424 296.853 198.524 296.853C199.629 296.853 200.734 297.765 201.196 299.059C201.377 299.565 201.357 299.678 200.954 300.398C200.321 301.528 200.312 302.863 200.932 303.676C201.175 303.994 201.502 304.254 201.66 304.254C202.107 304.254 202.73 304.83 203.069 305.558C203.704 306.922 203.88 307.381 203.88 307.672C203.88 307.836 203.954 308.044 204.044 308.134C204.133 308.223 204.27 308.645 204.347 309.071C204.424 309.497 204.601 310.412 204.74 311.105C204.879 311.798 205.074 313.086 205.173 313.968C205.356 315.581 205.333 315.881 204.834 318.428C204.639 319.421 204.767 321.113 205.083 321.717C205.201 321.944 205.298 322.186 205.298 322.256C205.303 322.575 206.497 323.924 207.314 324.529C209.465 326.123 209.646 326.192 213.641 326.941C214.11 327.029 214.568 327.147 214.659 327.203C214.749 327.259 215.324 327.4 215.935 327.517C217.369 327.791 219.594 328.193 220.199 328.287C220.459 328.327 221.311 328.46 222.091 328.582C225.843 329.17 229.27 329.492 234.696 329.767C236.599 329.864 238.267 330.007 238.401 330.086C238.735 330.281 254.857 330.284 255.052 330.09C255.134 330.008 256.692 329.869 258.513 329.782C262.655 329.582 265.955 329.332 267.184 329.124C267.705 329.036 268.698 328.899 269.392 328.819C272.409 328.472 276.525 327.741 279.561 327.015C280.125 326.88 280.976 326.695 281.453 326.605C282.822 326.345 284.008 325.953 284.607 325.56C286.608 324.249 287.854 323.016 288.151 322.051C288.217 321.834 288.325 321.586 288.391 321.5C288.617 321.201 288.711 319.292 288.541 318.429C288.048 315.915 288.025 315.607 288.199 313.985C288.294 313.094 288.488 311.799 288.63 311.106C288.771 310.413 288.951 309.498 289.028 309.072C289.105 308.646 289.242 308.224 289.331 308.135C289.421 308.045 289.494 307.838 289.494 307.673C289.494 307.509 289.606 307.115 289.743 306.799C290.558 304.909 290.874 304.481 291.566 304.33C291.826 304.272 292.205 303.988 292.452 303.664C293.072 302.853 293.061 301.519 292.425 300.364C292.009 299.607 291.99 299.503 292.181 299.025C292.71 297.706 293.764 296.854 294.869 296.854C295.346 296.854 295.529 296.763 295.79 296.396C296.198 295.823 296.198 295.549 295.79 294.707C295.537 294.184 295.503 293.966 295.635 293.719C296.058 292.93 297.943 291.972 299.073 291.972C300.04 291.972 301.982 291.483 302.625 291.077C303.424 290.574 304.157 289.782 304.157 289.423C304.157 289.272 303.997 289.059 303.802 288.95C303.362 288.704 302.148 288.366 301.674 288.357C301.263 288.348 301.207 288.009 301.567 287.71C301.775 287.538 301.807 287.174 301.764 285.491C301.701 283.006 301.588 282.809 300.413 283.142C299.258 283.469 298.796 283.523 298.796 283.331C298.796 283.236 298.991 283.112 299.23 283.054C299.468 282.996 299.803 282.853 299.974 282.736C300.145 282.619 300.512 282.523 300.79 282.523C301.276 282.523 302.265 281.883 302.265 281.568C302.265 281.492 302.592 280.878 302.991 280.204C304.307 277.984 304.936 276.8 305.315 275.83C305.636 275.011 306.049 272.796 305.979 272.272C305.949 272.048 305.835 271.197 305.726 270.382C305.423 268.114 305.438 264.495 305.756 263.625C305.898 263.235 306.174 262.385 306.37 261.735C306.567 261.086 306.787 260.487 306.861 260.405C307.094 260.144 307.018 259.373 306.759 259.373C306.629 259.373 306.522 259.426 306.52 259.491C306.52 259.556 306.05 259.997 305.478 260.471C304.256 261.483 303.195 262.905 302.63 264.288C302.286 265.13 302.222 265.542 302.203 267.04C302.191 268.008 302.14 268.842 302.089 268.893C302.038 268.944 301.719 268.44 301.382 267.772C300.772 266.569 299.828 265.444 299.564 265.606C299.489 265.653 299.426 265.882 299.425 266.115C299.42 266.732 299.255 267.257 299.094 267.157C298.893 267.034 298.918 264.296 299.12 264.171C299.212 264.114 299.678 264.438 300.157 264.89C300.635 265.342 301.081 265.65 301.147 265.574C301.213 265.498 301.398 265.082 301.557 264.649C301.848 263.862 302.894 262.215 303.531 261.541C303.984 261.063 304.424 260.187 304.771 259.073C305.042 258.203 305.043 258.118 304.79 257.465C304.643 257.085 304.37 256.527 304.184 256.223C303.998 255.92 303.78 255.531 303.7 255.357C303.571 255.077 302.741 254.046 301.735 252.916C301.044 252.141 299.963 250.619 299.554 249.845C298.773 248.371 298.166 246.143 298.166 244.755C298.166 244.25 298.073 243.716 297.958 243.559C297.873 243.443 297.819 243.38 297.762 243.381L297.759 243.38ZM195.944 245.101C195.869 245.094 195.793 245.175 195.646 245.357C195.49 245.549 195.363 245.931 195.363 246.206C195.363 246.708 194.933 248.11 194.464 249.136C194.226 249.655 192.91 251.642 192.69 251.813C192.635 251.856 192.242 252.352 191.818 252.915C191.395 253.478 190.815 254.202 190.531 254.523C189.532 255.652 188.522 257.485 188.17 258.806C188.053 259.247 187.956 259.661 187.955 259.726C187.955 259.79 188.402 260.332 188.952 260.931C189.942 262.008 191.106 263.617 191.106 263.907C191.106 263.99 191.212 264.146 191.342 264.254C191.473 264.362 191.579 264.554 191.579 264.682C191.579 264.809 191.729 265.124 191.913 265.382L192.246 265.849L192.636 265.485C192.85 265.284 193.277 264.714 193.584 264.218C193.891 263.722 194.204 263.354 194.28 263.4C194.355 263.447 194.417 264.233 194.417 265.148C194.417 266.779 194.543 267.42 195.183 269.057C195.319 269.404 195.539 269.846 195.672 270.039C196.034 270.565 196.32 270.413 196.801 269.44C197.31 268.409 197.728 265.916 197.728 263.912C197.728 263.184 197.832 262.188 197.96 261.699C198.087 261.21 198.279 260.028 198.385 259.072C198.576 257.352 198.553 256.826 198.098 252.785C197.974 251.678 197.708 251.598 196.972 252.447C196.212 253.322 195.851 253.991 195.843 254.534C195.828 255.518 195.085 256.537 194.382 256.537C194.228 256.537 193.96 256.396 193.786 256.222C193.387 255.823 193.333 254.177 193.707 253.804C193.838 253.674 193.944 253.517 193.944 253.454C193.944 253.345 195.008 251.974 195.218 251.813C195.274 251.77 195.561 251.309 195.854 250.789L196.388 249.844L196.379 247.692C196.373 246.089 196.314 245.473 196.149 245.275C196.06 245.167 196.002 245.107 195.944 245.101ZM259.989 246.706C260.039 246.702 260.1 246.711 260.165 246.728C260.338 246.773 260.48 246.837 260.48 246.87C260.48 246.904 260.338 246.931 260.165 246.931C259.991 246.931 259.849 246.867 259.849 246.788C259.849 246.739 259.905 246.71 259.989 246.706ZM261.111 247.266C261.182 247.266 261.254 247.277 261.308 247.299C261.416 247.343 261.328 247.379 261.111 247.379C260.894 247.379 260.805 247.343 260.914 247.299C260.968 247.277 261.039 247.266 261.111 247.266ZM262.201 247.738C262.256 247.742 262.303 247.754 262.329 247.781C262.382 247.833 262.289 247.87 262.123 247.863C261.939 247.856 261.901 247.818 262.027 247.768C262.084 247.745 262.147 247.735 262.201 247.738ZM273.238 253.407C273.293 253.411 273.34 253.423 273.366 253.45C273.419 253.502 273.326 253.539 273.159 253.533C272.976 253.525 272.938 253.488 273.064 253.437C273.121 253.415 273.183 253.404 273.238 253.407ZM243.453 258.742C243.602 258.742 243.699 259.067 244.163 261.121C244.42 262.256 244.42 262.341 244.163 262.735C243.827 263.248 243.457 263.265 243.008 262.787C242.597 262.35 242.542 261.237 242.893 260.44C243.018 260.156 243.164 259.657 243.216 259.333C243.268 259.008 243.375 258.742 243.455 258.742H243.453ZM246.269 269.769C246.523 269.765 246.804 269.865 247 270.081C247.236 270.342 247.255 270.465 247.107 270.79C246.756 271.559 245.659 271.155 245.659 270.257C245.659 269.946 245.942 269.773 246.269 269.769ZM190.878 270.332C190.926 270.319 190.959 270.501 191.022 270.947C191.083 271.38 191.304 272.108 191.513 272.565C191.974 273.57 191.986 273.8 191.589 274.012C191.18 274.231 191.157 274.226 190.769 273.838C190.462 273.532 190.44 273.386 190.522 272.224C190.572 271.522 190.68 270.77 190.762 270.553C190.813 270.419 190.848 270.341 190.878 270.332ZM302.509 270.485C302.656 270.477 302.762 271.031 302.846 272.224C302.928 273.386 302.906 273.532 302.599 273.838C302.221 274.217 302.141 274.233 301.75 274.005C301.384 273.793 301.4 273.593 301.868 272.537C302.085 272.047 302.263 271.454 302.265 271.218C302.265 270.982 302.327 270.695 302.4 270.579C302.439 270.518 302.475 270.487 302.509 270.485ZM215.374 275.924C215.576 275.92 215.807 276.023 216.075 276.234C216.587 276.636 216.615 277.22 216.14 277.552C215.68 277.874 215.511 277.862 215.014 277.471C214.539 277.098 214.492 276.759 214.844 276.258C214.997 276.039 215.171 275.928 215.374 275.924ZM277.8 276.551C278.006 276.556 278.19 276.648 278.351 276.825C278.685 277.194 278.679 277.357 278.317 277.773C277.973 278.17 277.57 278.194 277.075 277.849C276.611 277.525 276.624 277.109 277.109 276.792C277.363 276.625 277.593 276.545 277.8 276.551ZM212.352 279.689C212.805 279.694 213.337 279.872 213.337 280.021C213.337 280.163 212.841 280.179 212.352 280.051C212.2 280.011 212.076 279.913 212.076 279.833C212.076 279.753 212.2 279.688 212.352 279.689ZM213.955 280.337C214.01 280.341 214.057 280.353 214.083 280.379C214.135 280.432 214.042 280.469 213.876 280.462C213.692 280.455 213.655 280.417 213.781 280.367C213.838 280.344 213.9 280.334 213.955 280.337ZM192.84 283.172C192.912 283.172 192.983 283.183 193.037 283.205C193.146 283.249 193.057 283.284 192.84 283.284C192.624 283.284 192.535 283.249 192.643 283.205C192.697 283.183 192.769 283.172 192.84 283.172ZM276.462 283.364C276.476 283.368 276.494 283.39 276.512 283.437C276.558 283.551 276.552 283.687 276.5 283.739C276.448 283.791 276.41 283.698 276.417 283.532C276.422 283.418 276.438 283.36 276.462 283.364ZM298.526 283.502C298.592 283.506 298.636 283.537 298.636 283.59C298.636 283.811 298.193 283.958 298.08 283.775C298.029 283.692 298.02 283.624 298.062 283.624C298.103 283.624 298.249 283.581 298.387 283.529C298.438 283.509 298.486 283.501 298.526 283.502ZM275.989 283.994C276.003 283.998 276.02 284.02 276.039 284.067C276.085 284.181 276.079 284.317 276.027 284.369C275.975 284.421 275.937 284.328 275.944 284.162C275.949 284.048 275.965 283.99 275.989 283.994ZM297.611 284.097C297.741 284.097 297.847 284.124 297.847 284.158C297.847 284.192 297.741 284.261 297.611 284.311C297.481 284.361 297.374 284.333 297.374 284.249C297.374 284.165 297.481 284.097 297.611 284.097ZM246.675 284.103C249.2 284.09 251.493 284.933 251.493 285.875C251.493 286.12 251.422 286.159 251.138 286.071C250.288 285.808 248.306 285.494 246.958 285.41C245.449 285.316 243.759 285.586 242.769 286.079C242.17 286.378 241.718 286.363 241.718 286.044C241.718 285.68 242.303 284.779 242.627 284.644C243.131 284.435 245.57 284.108 246.675 284.103ZM218.293 284.38C218.305 284.373 218.319 284.396 218.334 284.454C218.374 284.607 218.372 284.82 218.328 284.927C218.285 285.033 218.252 284.908 218.256 284.648C218.256 284.486 218.272 284.391 218.293 284.38ZM297.093 284.581C297.113 284.581 297.13 284.588 297.142 284.6C297.191 284.649 297.103 284.737 296.948 284.796C296.723 284.881 296.705 284.863 296.859 284.708C296.94 284.627 297.031 284.579 297.093 284.581ZM275.562 284.765C275.599 284.754 275.613 284.829 275.614 285.002C275.618 285.367 275.536 285.452 275.399 285.231C275.357 285.162 275.387 285.002 275.467 284.877C275.509 284.81 275.54 284.772 275.562 284.765ZM296.438 285.042C296.53 285.042 296.561 285.113 296.507 285.199C296.454 285.286 296.378 285.357 296.34 285.357C296.302 285.357 296.271 285.286 296.271 285.199C296.271 285.113 296.346 285.042 296.438 285.042ZM218.698 285.199C218.785 285.199 218.856 285.376 218.856 285.593C218.856 286.005 218.819 286.055 218.645 285.882C218.482 285.718 218.522 285.199 218.698 285.199ZM275.08 285.715C275.125 285.719 275.143 285.796 275.143 285.955C275.143 286.335 275.061 286.394 274.898 286.13C274.84 286.036 274.871 285.88 274.968 285.784C275.016 285.736 275.053 285.712 275.08 285.715ZM298.542 286.125C298.628 286.119 298.699 286.131 298.746 286.17C299.03 286.406 299.003 286.679 298.663 286.986C298.197 287.407 297.532 287.312 297.532 286.824C297.532 286.549 298.17 286.154 298.542 286.125ZM203.562 286.144C203.648 286.144 203.719 286.251 203.719 286.381C203.719 286.51 203.648 286.617 203.562 286.617C203.475 286.617 203.404 286.51 203.404 286.381C203.404 286.251 203.475 286.144 203.562 286.144ZM249.223 286.478C249.528 286.484 249.759 286.541 249.759 286.617C249.759 286.793 249.584 286.793 248.891 286.617C248.447 286.504 248.46 286.496 249.089 286.478C249.135 286.478 249.18 286.478 249.223 286.478ZM221.648 286.787C222.002 286.777 222.154 286.856 222.404 287.09C222.615 287.288 222.75 287.511 222.704 287.585C222.659 287.659 222.195 287.719 221.675 287.719C220.711 287.719 219.513 288.013 218.566 288.482C218.276 288.626 217.771 288.971 217.443 289.249C216.812 289.785 216.648 289.776 216.648 289.203C216.648 288.366 219.135 287.07 221.214 286.824C221.389 286.804 221.529 286.79 221.648 286.787ZM271.924 286.815C272.044 286.815 272.16 286.82 272.269 286.835C274.374 287.123 276.72 288.38 276.72 289.22C276.72 289.761 276.501 289.81 276.081 289.364C275.171 288.397 272.887 287.647 271.148 287.744C270.386 287.787 270.174 287.748 270.138 287.562C270.072 287.219 271.085 286.828 271.924 286.815ZM250.547 286.952C250.618 286.952 250.69 286.962 250.744 286.984C250.852 287.028 250.764 287.064 250.547 287.064C250.33 287.064 250.241 287.028 250.35 286.984C250.404 286.963 250.476 286.952 250.547 286.952ZM196.751 287.736C196.986 287.749 197.188 287.883 197.224 288.129C197.254 288.342 197.131 288.551 196.881 288.715C196.519 288.952 196.467 288.951 196.159 288.699C195.846 288.444 195.841 288.407 196.083 288.065C196.249 287.83 196.516 287.723 196.751 287.736ZM221.862 288.352C222.18 288.357 222.482 288.41 222.482 288.507C222.482 288.593 222.167 288.664 221.782 288.664C221.397 288.664 221.04 288.731 220.99 288.812C220.939 288.894 220.583 289.008 220.197 289.066C219.812 289.124 219.414 289.269 219.314 289.39C219.214 289.51 219.052 289.609 218.953 289.609C218.854 289.609 218.582 289.786 218.348 290.003C217.914 290.405 217.594 290.511 217.594 290.252C217.594 290.074 218.762 289.137 218.983 289.137C219.072 289.137 219.172 289.055 219.205 288.955C219.238 288.855 219.671 288.74 220.167 288.699C220.663 288.658 221.107 288.563 221.154 288.487C221.213 288.391 221.545 288.348 221.862 288.352ZM299.582 288.369C299.653 288.369 299.725 288.38 299.779 288.402C299.887 288.446 299.799 288.482 299.582 288.482C299.365 288.482 299.276 288.446 299.385 288.402C299.439 288.38 299.51 288.369 299.582 288.369ZM246.684 291.656C248.444 291.656 248.549 291.748 248.13 292.925C247.985 293.333 247.867 293.795 247.867 293.952C247.867 294.109 247.676 294.436 247.443 294.679C247.21 294.922 246.868 295.121 246.684 295.121C246.211 295.121 245.55 294.356 245.46 293.703C245.418 293.4 245.292 292.933 245.18 292.664C244.811 291.777 244.991 291.656 246.684 291.656ZM250.874 291.971C252.584 291.971 252.581 291.967 252.23 292.916C251.902 293.801 251.476 294.412 250.946 294.759C250.415 295.107 249.506 295.274 248.715 295.169C248.229 295.105 248.224 295.095 248.304 294.364C248.348 293.958 248.481 293.485 248.599 293.314C248.716 293.143 248.813 292.883 248.813 292.735C248.813 292.128 249.235 291.971 250.874 291.971ZM242.468 291.976C243.254 291.972 244.06 292.011 244.188 292.093C244.446 292.257 244.967 293.65 245.07 294.451C245.153 295.092 245.138 295.121 244.738 295.123C244.507 295.123 244.177 295.15 244.004 295.181C243.308 295.305 242.767 295.074 242.017 294.333C241.542 293.863 241.243 293.428 241.24 293.203C241.235 293.002 241.133 292.703 241.008 292.539C240.883 292.374 240.819 292.179 240.865 292.105C240.916 292.023 241.682 291.979 242.468 291.976ZM239.067 292.444C239.938 292.444 240.094 292.492 240.412 292.862C240.61 293.092 240.771 293.457 240.771 293.674C240.771 293.89 240.957 294.31 241.184 294.607C241.411 294.904 241.535 295.203 241.46 295.272C241.385 295.34 240.921 295.44 240.43 295.494C239.567 295.59 239.518 295.574 238.972 295.045C238.661 294.743 238.406 294.35 238.406 294.171C238.406 293.992 238.295 293.63 238.159 293.367C237.77 292.616 237.939 292.444 239.067 292.444ZM254.302 292.444C255.429 292.444 255.598 292.616 255.21 293.367C255.073 293.63 254.959 293.973 254.956 294.129C254.949 294.473 254.379 295.172 253.908 295.416C253.718 295.513 253.505 295.581 253.435 295.567C253.364 295.552 253.022 295.512 252.675 295.478C252.329 295.443 251.987 295.358 251.917 295.289C251.846 295.22 251.97 294.896 252.193 294.569C252.415 294.242 252.597 293.818 252.597 293.627C252.597 293.436 252.758 293.092 252.956 292.862C253.274 292.492 253.431 292.444 254.302 292.444ZM257.233 292.613C258.432 292.631 259.31 292.939 259.246 293.318C259.14 293.941 258.513 294.983 258.017 295.361C257.577 295.696 257.339 295.751 256.312 295.751C254.982 295.751 254.989 295.758 255.363 294.648C255.961 292.869 256.211 292.598 257.233 292.613ZM236.121 292.613C236.627 292.605 237.014 292.693 237.162 292.876C237.575 293.385 237.933 294.142 237.938 294.514C237.943 294.717 238.045 295.018 238.17 295.182C238.295 295.347 238.359 295.541 238.313 295.615C238.268 295.689 237.672 295.75 236.99 295.75C235.912 295.75 235.692 295.701 235.301 295.372C234.848 294.992 234.219 293.89 234.123 293.31C234.08 293.055 234.205 292.961 234.78 292.811C235.262 292.685 235.727 292.62 236.121 292.613ZM232.368 292.866C232.893 292.872 232.998 292.964 233.282 293.294C233.499 293.546 233.676 293.843 233.676 293.955C233.676 294.067 233.855 294.494 234.073 294.904C234.292 295.314 234.416 295.7 234.349 295.761C234.283 295.822 233.758 295.92 233.182 295.979L232.136 296.086L231.562 295.496C231.246 295.171 230.943 294.726 230.887 294.506C230.832 294.286 230.653 293.879 230.49 293.603C230.326 293.327 230.256 293.061 230.334 293.013C230.412 292.965 231.018 292.906 231.682 292.881C231.972 292.87 232.193 292.863 232.368 292.866ZM261 292.866C261.175 292.866 261.397 292.871 261.689 292.882C262.355 292.908 262.962 292.967 263.037 293.014C263.113 293.06 263.042 293.325 262.878 293.602C262.715 293.878 262.533 294.297 262.474 294.532C262.415 294.768 262.297 294.961 262.211 294.961C262.126 294.961 262.057 295.062 262.057 295.187C262.057 295.311 261.851 295.559 261.599 295.738C261.347 295.917 260.974 296.051 260.771 296.037C259.691 295.96 259.127 295.872 259.019 295.766C258.952 295.701 259.076 295.313 259.295 294.903C259.513 294.492 259.692 294.065 259.692 293.953C259.692 293.842 259.869 293.544 260.085 293.293C260.369 292.963 260.473 292.872 261 292.866ZM291.913 292.942C292.855 292.973 294.228 293.649 295.041 294.503C295.703 295.198 295.799 295.653 295.335 295.9C294.884 296.141 294.741 296.102 294.639 295.711C294.548 295.364 294.544 295.363 294.317 295.672C294.091 295.979 294.078 295.976 293.602 295.522C293.336 295.268 293.117 295.002 293.117 294.931C293.117 294.705 293.597 294.795 293.691 295.04C293.806 295.339 294.221 295.35 294.221 295.054C294.221 294.557 292.695 293.612 291.557 293.405C290.775 293.263 290.874 293 291.73 292.945C291.789 292.94 291.85 292.94 291.913 292.94V292.942ZM201.469 292.998C202.305 292.992 202.709 293.269 201.985 293.353C201.012 293.464 199.147 294.582 199.147 295.053C199.147 295.344 199.373 295.337 199.62 295.04C199.828 294.789 200.251 294.716 200.251 294.931C200.251 295.002 200.033 295.268 199.766 295.522C199.29 295.976 199.277 295.979 199.051 295.672C198.824 295.363 198.82 295.364 198.729 295.711C198.581 296.278 197.728 296.019 197.728 295.407C197.728 294.516 200.069 293.009 201.469 292.998ZM228.655 293.212C228.839 293.22 228.997 293.266 229.183 293.353C229.616 293.555 230.365 294.476 230.365 294.805C230.365 294.881 230.514 295.195 230.696 295.502C230.953 295.938 230.979 296.077 230.814 296.132C230.503 296.235 229.205 296.308 228.854 296.243C228.461 296.17 228.16 295.919 227.984 295.519C227.907 295.342 227.783 295.091 227.708 294.961C227.231 294.13 227.037 293.665 227.13 293.572C227.188 293.513 227.568 293.39 227.973 293.298C228.262 293.233 228.472 293.203 228.655 293.212ZM264.518 293.277C265.194 293.273 266.314 293.413 266.314 293.549C266.314 293.619 266.211 293.876 266.085 294.121C265.96 294.366 265.815 294.673 265.764 294.803C265.632 295.138 265.313 295.671 265.066 295.968C264.908 296.158 264.57 296.221 263.702 296.221C263.068 296.221 262.512 296.163 262.468 296.091C262.424 296.02 262.527 295.735 262.696 295.458C262.864 295.18 263.003 294.887 263.003 294.807C263.003 294.583 263.784 293.482 264.046 293.335C264.116 293.296 264.292 293.279 264.518 293.277ZM225.446 293.62C226.102 293.587 227.054 294.392 227.054 295.093C227.054 295.259 227.161 295.483 227.291 295.591C227.602 295.849 227.594 296.476 227.278 296.598C227.141 296.65 226.605 296.693 226.087 296.693C225.226 296.693 225.104 296.649 224.68 296.186C224.425 295.907 224.216 295.622 224.216 295.553C224.216 295.484 224.036 295.142 223.816 294.794C223.596 294.446 223.459 294.093 223.51 294.01C223.562 293.927 223.888 293.858 224.236 293.858C224.583 293.858 225.011 293.782 225.187 293.688C225.265 293.646 225.353 293.624 225.446 293.62ZM267.77 293.662C267.878 293.666 267.993 293.685 268.114 293.72C268.38 293.796 268.9 293.858 269.269 293.858C269.638 293.858 269.94 293.928 269.94 294.013C269.94 294.25 268.684 296.273 268.398 296.496C268.154 296.687 266.447 296.754 266.038 296.589C265.765 296.479 265.791 295.828 266.077 295.591C266.207 295.483 266.315 295.279 266.315 295.138C266.315 294.77 266.865 293.991 267.278 293.77C267.426 293.691 267.589 293.655 267.77 293.662ZM271.253 294.338C271.413 294.343 271.618 294.36 271.89 294.383C273.247 294.496 273.564 294.737 273.079 295.286C272.893 295.497 272.582 295.919 272.387 296.223C272.192 296.528 271.934 296.854 271.814 296.949C271.694 297.044 271.418 297.153 271.202 297.191C270.671 297.283 269.419 297.175 269.264 297.024C269.108 296.871 269.81 295.455 270.371 294.789C270.682 294.419 270.77 294.324 271.253 294.338ZM221.949 294.359C222.707 294.359 223.013 294.581 223.291 295.197C223.368 295.37 223.615 295.821 223.838 296.199C224.062 296.576 224.185 296.94 224.112 297.007C223.958 297.148 222.566 297.278 222.052 297.199C221.858 297.169 221.553 296.954 221.373 296.722C220.349 295.401 219.998 294.838 220.098 294.677C220.159 294.578 220.722 294.449 221.347 294.391C221.576 294.37 221.774 294.359 221.949 294.359ZM200.803 294.488C201.019 294.488 201.197 294.516 201.197 294.549C201.197 294.582 201.019 294.643 200.803 294.685C200.586 294.726 200.408 294.699 200.408 294.624C200.408 294.55 200.586 294.488 200.803 294.488ZM292.625 294.509C292.711 294.509 292.791 294.522 292.844 294.543C292.951 294.586 292.826 294.619 292.566 294.616C292.305 294.611 292.218 294.577 292.371 294.537C292.448 294.517 292.54 294.508 292.625 294.509ZM275.067 295.005C275.173 295.005 275.284 295.017 275.401 295.035C276.229 295.159 276.427 295.478 275.952 295.921C275.767 296.092 275.616 296.288 275.616 296.356C275.616 296.591 274.588 297.58 274.15 297.766C273.65 297.978 273.667 297.978 272.975 297.757C272.693 297.666 272.463 297.534 272.463 297.463C272.463 297.392 272.746 296.922 273.091 296.419C273.807 295.377 274.323 294.992 275.067 295.005ZM218.297 295.021C218.528 295.02 218.752 295.049 218.925 295.115C219.329 295.268 220.266 296.158 220.272 296.394C220.272 296.445 220.417 296.651 220.59 296.851C221.045 297.374 220.984 297.565 220.296 297.771C219.59 297.982 219.704 297.988 219.054 297.704C218.772 297.581 218.331 297.179 218.073 296.811C217.815 296.443 217.486 296.021 217.342 295.874C217.199 295.726 217.121 295.503 217.169 295.378C217.251 295.165 217.789 295.021 218.297 295.021ZM277.937 295.648C278.114 295.652 278.315 295.669 278.549 295.698C279.133 295.769 279.639 295.91 279.673 296.012C279.706 296.114 279.339 296.617 278.857 297.13C278.193 297.836 277.783 298.127 277.174 298.323C276.27 298.615 276.157 298.622 275.656 298.421C275.242 298.254 275.204 298.001 275.542 297.651C275.674 297.514 275.992 297.103 276.248 296.738C276.845 295.887 277.168 295.632 277.937 295.648ZM215.452 295.655C216.144 295.66 216.51 295.925 217.075 296.694C217.361 297.083 217.701 297.514 217.831 297.651C218.174 298.014 218.122 298.255 217.663 298.429C216.677 298.804 215.623 298.339 214.374 296.979C213.36 295.876 213.362 295.871 214.914 295.69C215.115 295.666 215.292 295.654 215.452 295.655ZM212.379 296.413C212.73 296.406 212.959 296.623 213.968 297.638C214.673 298.348 215.222 298.957 215.188 298.992C215.032 299.147 213.672 299.182 213.119 299.046C212.136 298.802 210.192 297.22 210.421 296.849C210.492 296.735 210.687 296.688 212.104 296.445C212.21 296.427 212.297 296.414 212.379 296.413ZM280.99 296.413C281.071 296.413 281.159 296.428 281.264 296.445C282.697 296.691 282.877 296.737 282.966 296.88C283.096 297.09 281.809 298.289 281.005 298.708C280.237 299.107 278.815 299.299 278.423 299.057C278.191 298.913 278.322 298.724 279.419 297.619C280.412 296.62 280.639 296.406 280.99 296.413ZM284.611 297.181C285.219 297.171 286.047 297.362 286.129 297.576C286.227 297.831 285.49 298.546 284.209 299.44C283.387 300.014 282.519 300.217 281.7 300.028C281.159 299.903 280.996 299.593 281.402 299.463C281.558 299.413 282.177 298.909 282.777 298.344C283.376 297.779 284.033 297.274 284.237 297.223C284.342 297.197 284.471 297.184 284.611 297.181ZM208.676 297.189C208.872 297.189 209.049 297.213 209.174 297.262C209.681 297.459 212.248 299.735 212.11 299.866C211.911 300.056 210.594 300.147 210.134 300.003C209.729 299.876 208.799 299.218 207.599 298.209C207.317 297.972 207.178 297.734 207.235 297.585C207.321 297.362 208.087 297.182 208.676 297.189ZM251.269 297.363C251.525 297.353 251.788 297.39 252.175 297.468C253.245 297.686 254.069 298.085 254.807 298.743C255.097 299.001 255.433 299.212 255.555 299.212C255.676 299.212 256.101 298.947 256.497 298.622C257.207 298.041 257.241 298.032 258.574 298.033C259.906 298.033 259.942 298.045 260.756 298.657C261.211 298.999 261.584 299.335 261.584 299.404C261.584 299.472 261.797 299.527 262.057 299.527C262.317 299.527 262.53 299.458 262.53 299.373C262.53 299.288 262.831 299.06 263.2 298.866C263.755 298.573 264.113 298.514 265.289 298.52C266.916 298.529 267.753 298.86 268.492 299.785C268.725 300.076 268.963 300.315 269.021 300.315C269.08 300.315 269.36 300.12 269.643 299.882C270.114 299.486 270.268 299.449 271.429 299.455C272.173 299.46 272.856 299.548 273.077 299.67C273.666 299.994 274.828 301.118 274.828 301.364C274.828 301.771 275.291 301.768 275.997 301.355C276.539 301.037 276.909 300.945 277.637 300.945C279.147 300.945 280.177 301.537 280.72 302.717C281.02 303.369 281.305 303.446 282.023 303.072C283.132 302.495 284.722 303.181 285.372 304.517C285.695 305.18 286.179 305.423 286.417 305.04C286.707 304.57 288.136 305.112 288.674 305.896C289.037 306.425 289.031 306.549 288.592 307.536L288.357 308.064L287.466 307.966C286.975 307.912 286.148 307.801 285.628 307.721C282.47 307.235 279.885 307.013 279.687 307.21C279.371 307.525 279.986 308.092 282.717 310C284.126 310.985 284.906 311.633 286.141 312.842L287.285 313.961L287.185 314.973C287.13 315.529 287.034 316.042 286.971 316.112C286.907 316.182 286.402 316.006 285.848 315.721C284.586 315.073 283.262 314.584 281.056 313.952C279.838 313.603 277.125 313.011 275.543 312.749C275.026 312.664 274.532 312.524 274.447 312.439C274.362 312.354 274.101 312.284 273.869 312.284C273.636 312.284 273.1 312.184 272.678 312.061C270.733 311.496 264.558 310.654 260.48 310.398C259.223 310.319 257.555 310.182 256.775 310.094C255.994 310.005 254.646 309.853 253.779 309.756C252.912 309.658 251.71 309.517 251.108 309.442C249.917 309.292 243.358 309.505 241.402 309.756C240.752 309.839 239.581 309.911 238.801 309.916C238.02 309.92 236.943 309.995 236.407 310.082C235.87 310.169 234.416 310.306 233.174 310.388C230.163 310.584 227.657 310.832 226.503 311.047C225.982 311.143 225.095 311.281 224.532 311.352C223.565 311.474 222.625 311.65 220.038 312.195C218.085 312.607 217.369 312.773 216.83 312.939C216.54 313.029 215.937 313.163 215.49 313.237C214.537 313.396 213.166 313.719 211.839 314.097C209.495 314.766 209.401 314.802 207.626 315.69C207.043 315.982 206.526 316.221 206.478 316.221C206.347 316.221 206.279 315.927 206.172 314.898L206.076 313.968L207.223 312.845C208.407 311.686 209.179 311.04 210.288 310.281C211.744 309.285 213.476 307.934 213.65 307.659C213.934 307.209 213.634 307.046 212.683 307.134C211.612 307.234 209.326 307.511 207.898 307.714C207.291 307.801 206.392 307.917 205.9 307.972L205.007 308.072L204.671 307.335C204.297 306.515 204.33 306.251 204.882 305.657C205.464 305.03 206.168 304.792 206.782 305.014C207.547 305.29 207.638 305.253 207.996 304.517C208.208 304.081 208.603 303.648 209.094 303.314C209.784 302.843 209.935 302.801 210.607 302.893C211.018 302.949 211.424 303.066 211.51 303.151C211.867 303.509 212.373 303.316 212.648 302.717C212.798 302.392 213.039 302.009 213.185 301.865C214.191 300.875 216.144 300.637 217.371 301.355C218.077 301.768 218.54 301.772 218.54 301.364C218.54 301.12 219.708 299.988 220.266 299.689C220.46 299.586 221.127 299.465 221.748 299.421C222.821 299.344 222.914 299.365 223.636 299.85L224.396 300.359L224.855 299.803C225.647 298.844 226.446 298.527 228.079 298.524C229.24 298.524 229.62 298.585 230.168 298.87C230.537 299.062 230.838 299.288 230.838 299.373C230.838 299.774 231.705 299.484 232.449 298.834C233.342 298.053 234.104 297.852 235.461 298.038C236.222 298.143 237.073 298.583 237.35 299.016C237.558 299.34 238.003 299.24 238.561 298.743C239.274 298.107 240.07 297.711 241.097 297.482C242.144 297.249 243.476 297.536 244.316 298.176C244.893 298.615 245.421 298.703 245.545 298.381C245.588 298.27 245.87 298.046 246.173 297.883C246.719 297.59 246.727 297.59 247.295 297.94C247.609 298.134 247.867 298.358 247.867 298.438C247.867 298.719 248.525 298.578 249.038 298.187C249.323 297.969 249.939 297.676 250.407 297.536C250.765 297.429 251.013 297.373 251.269 297.363ZM205.882 298.272C206.096 298.276 206.257 298.322 206.321 298.425C206.375 298.512 206.52 298.582 206.644 298.582C206.909 298.582 209.432 300.646 209.313 300.765C209.268 300.809 208.967 300.946 208.644 301.069C207.322 301.572 207.173 301.532 205.113 300.139C204.65 299.825 204.108 299.518 203.908 299.456C203.609 299.363 203.579 299.302 203.738 299.111C204.122 298.65 205.24 298.263 205.882 298.272ZM287.608 298.292C288.008 298.282 288.414 298.42 288.949 298.673C289.884 299.115 289.996 299.29 289.452 299.459C289.257 299.52 288.718 299.826 288.255 300.139C287.792 300.452 287.153 300.865 286.836 301.056C286.166 301.46 285.631 301.498 285.076 301.181C284.86 301.058 284.562 300.954 284.416 300.951C283.848 300.938 284.018 300.633 285.087 299.743C286.292 298.74 286.942 298.309 287.608 298.292ZM246.22 299.528C241.311 299.528 240.873 299.55 240.332 299.828C239.712 300.147 239.13 300.719 238.637 301.496C238.403 301.865 238.324 302.345 238.275 303.684C238.166 306.677 238.605 307.342 241.323 308.303C241.919 308.514 245.536 308.542 246.999 308.347C247.723 308.251 248.841 308.26 250.246 308.375C252.191 308.533 252.458 308.523 253.134 308.265C253.931 307.961 254.686 307.156 255.165 306.097C255.461 305.444 255.557 302.614 255.289 302.449C255.209 302.399 255.1 302.165 255.048 301.927C254.941 301.449 254.306 300.679 253.7 300.295C252.63 299.616 251.769 299.528 246.22 299.528ZM290.526 300.029C291.106 300.039 291.413 300.387 291.352 300.993C291.313 301.385 291.173 301.54 290.595 301.832C290.204 302.03 289.566 302.269 289.176 302.365C288.785 302.461 288.324 302.565 288.151 302.597C287.803 302.661 286.968 302.271 286.968 302.044C286.968 301.762 289.663 300.126 290.261 300.046C290.355 300.033 290.443 300.027 290.526 300.029ZM202.848 300.029C202.932 300.029 203.021 300.033 203.116 300.046C203.701 300.124 206.4 301.775 206.4 302.054C206.4 302.124 206.176 302.292 205.903 302.429C205.346 302.706 205.166 302.721 204.823 302.518C204.693 302.441 204.338 302.337 204.035 302.287C203.731 302.236 203.164 302.033 202.773 301.834C202.196 301.54 202.055 301.383 202.016 300.992C201.955 300.383 202.261 300.038 202.848 300.029ZM248.114 300.466C251.914 300.466 252.01 300.509 252.762 300.843C253.769 301.291 254.174 301.695 254.629 302.707C255.018 303.572 255.057 304.616 254.724 305.254C254.595 305.502 254.489 305.806 254.489 305.929C254.489 306.315 253.266 307.38 252.716 307.474C251.946 307.605 243.196 307.653 242.101 307.532C240.951 307.405 240.116 306.944 239.638 306.172C239.325 305.665 239.283 305.386 239.278 303.783C239.274 302.293 239.326 301.883 239.563 301.496C240.206 300.445 240.006 300.475 246.247 300.468C246.953 300.468 247.571 300.468 248.114 300.468V300.466ZM246.563 300.95C241.353 300.955 241.535 300.914 241.043 302.209C240.689 303.14 240.7 303.892 241.079 304.747C241.41 305.495 241.837 305.953 242.585 306.361C242.973 306.573 243.341 306.603 244.634 306.524C246.697 306.399 247.929 306.402 249.771 306.538C251.009 306.629 251.371 306.603 251.774 306.395C252.333 306.106 253.069 305.216 253.069 304.827C253.069 304.46 252.742 304.502 252.642 304.881C252.597 305.055 252.501 305.196 252.43 305.196C252.155 305.196 252.135 304.89 252.365 304.236C252.546 303.724 252.565 303.444 252.443 303.092C252.238 302.505 252.346 302.387 252.753 302.755C252.979 302.959 253.069 303.24 253.069 303.738C253.069 304.779 253.452 304.527 253.51 303.447C253.552 302.664 253.51 302.537 253.037 302.019C252.109 301.004 251.744 300.944 246.563 300.95ZM226.709 300.955C226.247 300.948 225.761 301.106 225.266 301.434C224.562 301.899 224.509 301.911 224.141 301.67C223.907 301.517 223.419 301.417 222.907 301.417C222.13 301.417 222.004 301.47 221.372 302.071C220.739 302.673 220.612 302.727 219.774 302.748C218.723 302.775 218.277 303.09 217.751 304.175C217.576 304.536 217.15 305.059 216.804 305.337C216.225 305.802 216.175 305.902 216.175 306.616C216.175 307.287 216.247 307.462 216.712 307.927C217.099 308.313 217.448 308.493 217.96 308.57C218.655 308.674 218.674 308.692 218.854 309.44C219.044 310.232 219.388 310.651 220.196 311.077C220.456 311.214 220.76 311.329 220.872 311.332C221.207 311.343 222.245 310.757 222.653 310.328C223.103 309.853 223.373 309.822 223.787 310.197C223.999 310.387 224.339 310.468 224.894 310.46C225.645 310.448 225.737 310.401 226.344 309.712C226.93 309.048 227.059 308.976 227.679 308.976C228.513 308.976 229.334 308.418 229.465 307.762C229.514 307.518 229.719 307.163 229.92 306.973C231.474 305.504 231.55 305.328 231.055 304.371C230.734 303.75 230.258 303.352 229.679 303.22C229.365 303.148 229.084 302.884 228.75 302.349C228.183 301.437 227.479 300.967 226.709 300.955ZM265.914 301.447C265.742 301.451 265.605 301.526 265.347 301.676C264.841 301.972 264.698 302.227 264.504 303.189C264.429 303.56 264.339 303.622 263.877 303.622C263.06 303.622 262.6 303.859 262.377 304.396C262.218 304.781 262.216 304.978 262.368 305.343C262.541 305.762 263.333 306.299 263.776 306.299C263.871 306.299 263.949 306.545 263.949 306.845C263.949 307.635 264.887 308.563 265.585 308.464C265.856 308.425 266.19 308.345 266.327 308.285C266.505 308.207 266.697 308.348 266.994 308.776C267.462 309.451 268.158 309.921 268.688 309.921C268.883 309.921 269.276 309.744 269.56 309.527C269.844 309.311 270.123 309.134 270.179 309.134C270.235 309.134 270.57 309.417 270.924 309.764C272.145 310.959 273.439 310.461 273.472 308.784L273.488 307.952L274.447 308.006C275.36 308.057 275.428 308.035 275.827 307.561C276.444 306.828 276.376 306.367 275.538 305.598C275.147 305.24 274.828 304.868 274.828 304.77C274.828 304.417 274.277 303.643 273.844 303.388C273.503 303.187 273.205 303.152 272.538 303.235C271.722 303.337 271.646 303.316 271.186 302.867C270.606 302.301 269.905 302.139 268.97 302.354C268.072 302.561 268.104 302.564 267.779 302.228C267.623 302.068 267.132 301.809 266.686 301.652C266.291 301.513 266.085 301.444 265.914 301.447ZM291.939 301.889C292.081 301.903 292.034 302.124 291.692 302.49C291.393 302.811 290.91 302.962 290.91 302.734C290.91 302.679 291.091 302.467 291.312 302.262C291.603 301.992 291.829 301.878 291.939 301.889ZM201.504 301.889C201.675 301.889 202.458 302.582 202.458 302.733C202.458 302.95 201.968 302.817 201.67 302.519C201.334 302.184 201.257 301.889 201.504 301.889ZM241.907 302.269C241.979 302.254 242.033 302.348 242.033 302.5C242.033 302.673 241.962 302.859 241.875 302.912C241.788 302.966 241.718 302.868 241.718 302.694C241.718 302.521 241.788 302.336 241.875 302.282C241.886 302.276 241.896 302.271 241.907 302.269ZM203.089 303.01C203.189 303.01 203.289 303.02 203.365 303.04C203.516 303.079 203.392 303.112 203.089 303.112C202.785 303.112 202.661 303.079 202.813 303.04C202.889 303.02 202.989 303.01 203.089 303.01ZM290.279 303.01C290.379 303.01 290.479 303.02 290.555 303.04C290.707 303.079 290.583 303.112 290.279 303.112C289.976 303.112 289.852 303.079 290.003 303.04C290.079 303.02 290.179 303.01 290.279 303.01ZM241.499 303.051C241.522 303.056 241.551 303.077 241.586 303.112C241.722 303.248 241.725 303.389 241.597 303.655C241.434 303.993 241.423 303.981 241.413 303.471C241.407 303.161 241.428 303.035 241.499 303.051ZM224.745 303.677C224.987 303.677 225.232 303.69 225.478 303.719C226.191 303.804 226.436 303.918 226.857 304.363C227.55 305.093 227.526 305.568 226.761 306.295C226.163 306.864 225.094 307.329 223.544 307.695C222.175 308.019 221.579 307.911 220.787 307.194C220.345 306.794 220.336 306.255 220.759 305.571C221.477 304.41 223.047 303.684 224.745 303.677ZM268.294 303.685C269.028 303.698 269.808 303.846 270.413 304.126C271.417 304.59 272.1 305.214 272.411 305.951C272.699 306.632 272.438 307.216 271.674 307.597C271.096 307.886 270.028 307.956 269.625 307.732C269.495 307.659 269.09 307.555 268.725 307.5C268.059 307.399 267.029 306.922 266.266 306.362C265.45 305.763 265.54 304.621 266.449 304.057C266.871 303.795 267.56 303.672 268.294 303.685ZM207.938 309.451C208.241 309.451 208.448 309.485 208.444 309.566C208.44 309.631 207.892 310.038 207.222 310.472C205.543 311.559 205.524 311.559 205.42 310.472C205.378 310.033 205.432 309.98 206.163 309.73C206.663 309.56 207.433 309.454 207.938 309.451ZM285.51 309.462C286.103 309.455 287.165 309.617 287.596 309.84C288.078 310.089 288.105 310.24 287.827 311.141C287.794 311.249 287.676 311.332 287.565 311.326C287.285 311.31 285.176 309.825 285.097 309.589C285.069 309.505 285.241 309.466 285.51 309.462ZM249.016 310.196C249.712 310.19 250.417 310.234 250.579 310.334C250.675 310.393 251.355 310.454 252.092 310.471C253.1 310.493 253.476 310.561 253.612 310.747C253.749 310.934 253.863 310.954 254.085 310.829C254.272 310.725 254.814 310.709 255.577 310.785C256.236 310.851 257.364 310.89 258.084 310.872C258.859 310.853 259.478 310.911 259.603 311.015C259.762 311.146 259.793 311.519 259.731 312.513C259.664 313.592 259.695 313.883 259.9 314.088C260.038 314.226 260.111 314.443 260.062 314.571C260.013 314.698 259.892 314.791 259.793 314.777C259.694 314.764 259.281 314.711 258.874 314.659C258.242 314.579 258.077 314.48 257.731 313.968C257.509 313.64 257.321 313.215 257.315 313.024C257.308 312.833 257.212 312.428 257.102 312.125L256.9 311.574L256.785 312.089C256.654 312.673 256.807 313.834 257.054 314.14C257.336 314.488 256.967 314.654 256.157 314.543C255 314.385 254.162 313.385 253.932 311.889C253.827 311.211 253.794 311.156 253.692 311.495C253.491 312.165 253.54 313.29 253.784 313.612C254.227 314.197 254.083 314.33 253.008 314.33C252.274 314.33 251.906 314.253 251.651 314.047C251.301 313.764 250.905 312.901 250.751 312.086C250.706 311.848 250.613 311.653 250.546 311.653C250.326 311.653 250.294 312.919 250.502 313.413C250.614 313.677 250.705 313.956 250.705 314.033C250.705 314.11 250.289 314.172 249.782 314.172C249.038 314.172 248.783 314.102 248.469 313.812C247.604 313.01 246.987 310.795 247.51 310.362C247.634 310.259 248.32 310.202 249.016 310.196ZM246.066 310.251C246.484 310.26 246.794 310.316 246.856 310.415C246.917 310.514 246.954 311.063 246.939 311.636C246.917 312.409 246.991 312.834 247.226 313.29C247.399 313.628 247.504 313.964 247.458 314.038C247.412 314.112 247.07 314.172 246.698 314.172C246.195 314.172 245.853 314.05 245.36 313.694C244.996 313.43 244.656 313.094 244.603 312.946C244.551 312.797 244.419 312.57 244.31 312.44C244.202 312.31 244.088 311.815 244.058 311.341L244.004 310.478L244.634 310.365C245.124 310.278 245.648 310.241 246.066 310.251ZM243.61 310.381V311.436C243.61 312.447 243.975 313.7 244.271 313.7C244.341 313.7 244.398 313.806 244.398 313.936C244.398 314.125 244.165 314.172 243.243 314.172C242.247 314.172 242.043 314.124 241.763 313.818C241.116 313.113 240.753 312.156 240.803 311.289L240.85 310.472L243.61 310.381ZM239.641 310.55H240.299V311.623C240.299 312.387 240.393 312.891 240.627 313.374C240.807 313.747 240.896 314.106 240.824 314.171C240.752 314.236 240.292 314.328 239.803 314.375C238.895 314.463 238.466 314.307 237.967 313.707C237.602 313.267 236.987 311.78 236.987 311.334C236.987 310.921 237.042 310.888 237.986 310.724C238.535 310.628 239.28 310.55 239.641 310.55ZM234.945 310.887C235.078 310.887 235.227 310.891 235.396 310.898L236.436 310.944L236.519 311.81C236.566 312.299 236.791 313.046 237.036 313.525C237.274 313.991 237.433 314.41 237.388 314.454C237.344 314.499 236.859 314.566 236.311 314.604C235.319 314.672 235.313 314.67 234.753 314.051C234.269 313.517 234.175 313.283 234.078 312.377C233.946 311.146 234.02 310.891 234.945 310.887ZM233.173 311.032C233.649 311.056 233.663 311.415 233.638 312.502C233.615 313.556 233.664 313.897 233.871 314.126C234.015 314.285 234.084 314.492 234.023 314.585C233.852 314.847 232.838 314.95 232.454 314.744C231.999 314.501 231.311 313.561 231.311 313.181C231.311 312.796 230.845 311.81 230.663 311.81C230.324 311.81 230.649 313.723 231.104 314.404C231.472 314.955 231.361 315.117 230.612 315.117C230.228 315.117 229.745 315.181 229.54 315.259C228.743 315.562 228.079 314.628 227.959 313.035C227.845 311.515 227.94 311.428 229.759 311.396C230.57 311.381 231.667 311.281 232.199 311.172C232.645 311.081 232.957 311.022 233.173 311.032ZM260.778 311.143C261.136 311.139 261.668 311.2 262.451 311.324C263.058 311.42 263.661 311.493 263.791 311.486C264.66 311.442 265.558 311.532 266.257 311.733C266.703 311.861 267.271 311.928 267.519 311.882C267.767 311.835 268.36 311.914 268.837 312.057C269.313 312.2 269.987 312.333 270.334 312.352C271.066 312.394 272.619 312.755 272.875 312.943C272.991 313.029 273.024 313.564 272.972 314.545C272.92 315.546 272.952 316.053 273.073 316.128C273.171 316.189 273.251 316.305 273.251 316.386C273.251 316.671 271.479 316.504 271.081 316.181C270.71 315.88 270.134 314.537 270.011 313.683C269.908 312.973 269.869 312.898 269.772 313.227C269.562 313.943 269.615 315.033 269.88 315.41C270.298 316.007 269.94 316.192 269.008 315.861C268.587 315.712 268.096 315.589 267.918 315.589C267.531 315.589 267.414 315.428 267.102 314.465C266.811 313.566 266.542 313.551 266.575 314.437C266.603 315.193 266.532 315.239 265.443 315.154C264.714 315.097 264.622 315.043 264.3 314.483C264.107 314.148 263.949 313.739 263.949 313.574C263.949 313.409 263.869 313.044 263.77 312.763C263.638 312.384 263.556 312.307 263.451 312.464C263.276 312.729 263.457 314.53 263.673 314.667C263.76 314.722 263.785 314.842 263.729 314.933C263.606 315.132 261.442 314.992 261.155 314.766C260.465 314.223 259.781 311.897 260.149 311.346C260.237 311.214 260.421 311.146 260.778 311.143ZM226.885 311.768C227.142 311.772 227.341 311.792 227.418 311.84C227.533 311.911 227.579 312.392 227.549 313.201C227.514 314.12 227.569 314.583 227.756 314.945C228.044 315.501 228.015 315.526 226.976 315.633C226.629 315.668 226.167 315.633 225.951 315.557C225.375 315.353 224.74 314.428 224.618 313.618C224.521 312.973 224.219 312.683 224.004 313.031C223.863 313.259 224.267 314.885 224.575 315.326C224.748 315.575 224.825 315.828 224.748 315.901C224.553 316.084 222.752 316.252 222.557 316.105C222.028 315.706 221.41 314.647 221.31 313.966C221.144 312.838 220.817 313.095 220.865 314.316C220.895 315.09 220.989 315.405 221.316 315.833C221.776 316.436 221.823 316.393 220.373 316.691C219.675 316.834 219.363 316.837 219.11 316.702C218.641 316.451 218.121 315.619 218 314.926C217.889 314.293 217.756 314.132 217.483 314.301C217.261 314.438 217.542 316.028 217.853 316.389C218.165 316.752 218.116 316.991 217.713 317.073C216.525 317.315 216.472 317.303 215.842 316.655C215.469 316.271 215.229 315.873 215.229 315.639C215.229 315.169 214.965 314.645 214.729 314.645C214.465 314.645 214.672 316.205 215.014 316.8C215.173 317.076 215.268 317.331 215.226 317.368C215.056 317.518 214.344 317.6 214.082 317.5C213.514 317.284 212.55 316.178 212.38 315.547C212.192 314.851 212.323 314.651 212.973 314.647C213.163 314.647 213.362 314.574 213.416 314.487C213.47 314.401 213.841 314.33 214.241 314.33C214.676 314.33 215.076 314.232 215.238 314.086C215.403 313.937 215.958 313.805 216.669 313.747C217.308 313.695 217.877 313.582 217.933 313.496C218.033 313.342 218.728 313.188 220.432 312.941C220.909 312.872 221.477 312.718 221.694 312.599C221.915 312.477 222.633 312.367 223.33 312.348C224.173 312.325 224.614 312.246 224.704 312.102C224.812 311.927 226.112 311.76 226.885 311.768ZM266.976 312.348C266.966 312.348 266.955 312.355 266.944 312.362C266.857 312.415 266.787 312.561 266.787 312.686C266.787 312.81 266.857 312.913 266.944 312.913C267.031 312.913 267.102 312.767 267.102 312.588C267.102 312.432 267.048 312.334 266.976 312.348ZM273.57 313.119C274.116 313.1 275.708 313.411 276.049 313.633C276.249 313.763 276.563 313.823 276.772 313.771C276.976 313.72 277.555 313.824 278.068 314.004C278.578 314.183 279.189 314.33 279.425 314.33C279.661 314.33 279.898 314.401 279.952 314.487C280.006 314.574 280.241 314.645 280.476 314.645C280.711 314.645 281.168 314.786 281.491 314.96C281.815 315.133 282.191 315.275 282.326 315.275C282.829 315.275 284.161 315.8 284.325 316.063C284.424 316.221 284.616 316.303 284.785 316.259C285.211 316.148 286.102 316.623 286.899 317.386C287.555 318.013 287.599 318.108 287.599 318.888C287.599 319.566 287.494 319.894 287.036 320.648C286.726 321.157 286.46 321.574 286.445 321.574C286.337 321.574 285.234 319.943 285.234 319.785C285.234 319.676 285.13 319.449 285.003 319.281C284.875 319.113 284.768 318.798 284.764 318.582C284.754 318.017 284.59 317.479 284.427 317.479C284.351 317.479 284.288 317.865 284.288 318.336C284.288 319.249 284.13 319.513 283.813 319.131C283.706 319.002 283.491 318.897 283.334 318.897C282.985 318.897 282.506 317.924 282.228 316.652C281.898 315.143 281.48 315.65 281.783 317.191C281.884 317.701 281.921 318.164 281.866 318.218C281.77 318.315 280.665 318.041 280.189 317.803C280.059 317.738 279.852 317.479 279.729 317.228C279.606 316.976 279.411 316.582 279.295 316.353C279.179 316.123 279.084 315.768 279.082 315.565C279.078 314.981 278.834 314.7 278.715 315.143C278.546 315.772 278.602 316.372 278.866 316.775C279.25 317.36 279.062 317.635 278.344 317.539C277.187 317.384 277.024 317.313 276.852 316.884C276.757 316.649 276.587 316.243 276.475 315.983C276.363 315.723 276.206 315.263 276.128 314.96L275.985 314.408L275.866 315.074C275.78 315.558 275.815 315.875 275.995 316.235C276.131 316.507 276.203 316.792 276.156 316.869C276.026 317.079 274.606 317.034 274.328 316.81C273.851 316.428 273.433 315.353 273.348 314.295C273.302 313.714 273.328 313.198 273.407 313.15C273.436 313.132 273.492 313.122 273.57 313.119ZM211.273 315.181C211.603 315.202 211.759 315.431 211.837 315.889C211.898 316.254 212.164 316.764 212.489 317.144L213.037 317.784L212.458 318.025C211.531 318.412 211.072 318.335 210.37 317.676C210.025 317.351 209.631 316.818 209.496 316.49L209.25 315.895L210.148 315.498C210.657 315.273 211.017 315.164 211.273 315.181ZM208.58 316.124C208.897 316.107 209.049 316.324 209.049 316.78C209.049 317.181 209.207 317.523 209.634 318.043C209.956 318.435 210.194 318.772 210.162 318.79C210.131 318.809 209.812 318.982 209.453 319.175C208.676 319.593 208.762 319.586 208.32 319.277C207.776 318.896 207.188 317.861 207.189 317.286C207.189 316.85 207.288 316.715 207.827 316.408C208.139 316.229 208.389 316.135 208.58 316.124ZM284.503 316.589C284.479 316.584 284.463 316.643 284.458 316.758C284.451 316.924 284.488 317.017 284.541 316.964C284.593 316.912 284.599 316.776 284.554 316.662C284.534 316.615 284.517 316.591 284.503 316.589ZM206.57 317.346C206.683 317.329 206.715 317.467 206.715 317.77C206.715 318.322 207.103 319.151 207.626 319.715L208.019 320.139L207.643 320.599C207.436 320.852 207.193 321.185 207.103 321.339C206.953 321.594 206.911 321.578 206.634 321.163C205.944 320.132 205.769 319.665 205.769 318.846C205.769 318.172 205.841 317.939 206.134 317.664C206.344 317.467 206.482 317.36 206.57 317.346ZM285.447 321.967L285.57 322.423C285.699 322.906 285.422 323.642 284.938 324.098C284.531 324.483 283.563 325.038 283.302 325.038C283.17 325.038 282.859 325.144 282.611 325.274C282.363 325.403 281.982 325.512 281.765 325.515C281.549 325.519 281.233 325.625 281.065 325.752C280.897 325.879 280.529 325.983 280.247 325.983C279.965 325.983 279.693 326.05 279.642 326.132C279.592 326.213 279.215 326.325 278.805 326.38C278.395 326.435 277.793 326.581 277.466 326.704C277.139 326.827 276.584 326.928 276.233 326.928C275.883 326.928 275.463 326.999 275.301 327.085C275.14 327.172 274.488 327.308 273.853 327.387C272.711 327.53 271.75 327.679 269.152 328.12C268.415 328.245 267.386 328.348 266.866 328.347C266.345 328.347 265.668 328.417 265.359 328.503C265.051 328.588 263.703 328.731 262.364 328.819C261.024 328.908 259.29 329.046 258.509 329.126C254.676 329.518 235.206 329.398 234.487 328.978C234.32 328.881 238.071 328.825 245.029 328.821C253.3 328.816 256.383 328.76 258.194 328.583C259.495 328.456 261.197 328.349 261.978 328.345C262.758 328.34 263.714 328.265 264.101 328.176C264.489 328.087 265.553 327.949 266.466 327.87C267.38 327.79 268.553 327.649 269.073 327.554C271.275 327.156 272.44 326.942 273.33 326.77C273.85 326.67 274.773 326.529 275.38 326.456C276.555 326.315 277.927 326.07 279.085 325.795C279.475 325.703 280.078 325.573 280.425 325.507C281.875 325.231 284.034 324.208 284.728 323.466C285.014 323.162 285.293 322.7 285.348 322.44L285.447 321.967ZM207.916 322.256C207.958 322.244 207.999 322.355 208.087 322.608C208.483 323.742 210.824 325.122 213.022 325.517C213.412 325.588 214.015 325.717 214.362 325.804C215.396 326.065 216.81 326.314 218.067 326.455C218.718 326.529 219.569 326.661 219.959 326.749C221.036 326.992 222.446 327.247 223.586 327.406C224.149 327.484 224.858 327.621 225.161 327.711C225.464 327.8 226.138 327.876 226.659 327.88C227.18 327.884 227.925 327.954 228.316 328.037C228.706 328.12 230.046 328.254 231.294 328.336C232.542 328.417 233.638 328.559 233.73 328.651C233.932 328.853 230.289 328.846 228.946 328.642C228.469 328.569 227.263 328.442 226.266 328.358C225.269 328.275 224.205 328.132 223.902 328.04C223.599 327.948 223.043 327.873 222.666 327.873C222.29 327.873 221.545 327.771 221.01 327.646C220.074 327.427 218.797 327.201 216.964 326.932C216.487 326.862 215.919 326.736 215.702 326.651C215.485 326.567 214.973 326.45 214.563 326.389C214.153 326.329 213.776 326.213 213.726 326.132C213.675 326.05 213.418 325.983 213.155 325.983C212.891 325.983 212.452 325.889 212.179 325.773C211.459 325.469 210.648 325.186 210.104 325.05C208.704 324.7 207.481 323.349 207.795 322.5C207.851 322.349 207.883 322.265 207.916 322.256Z" fill="currentcolor"/>

</svg>
