<svg  viewBox="0 0 1180 580" fill="currentcolor" xmlns="http://www.w3.org/2000/svg">
<path d="M175.648 328.441C174.953 327.804 174.768 327.459 174.768 326.794C174.768 325.12 175.27 324.928 181.458 324.237C198.088 322.379 232.089 321.368 250.19 322.194C265.734 322.902 284.419 324.341 286.002 324.95C287.12 325.381 287.554 325.899 287.554 326.803C287.554 327.73 286.517 328.9 285.461 329.164C285.128 329.248 283.395 329.142 281.609 328.924C276.799 328.342 267.295 327.548 259.859 327.106C250.322 326.541 244.419 326.391 231.567 326.391C214.009 326.391 206.782 326.701 186.801 328.309C185.16 328.441 182.586 328.706 181.081 328.898C177.023 329.415 176.681 329.386 175.648 328.441ZM283.615 321.96C276.17 321.129 273.625 320.868 271.123 320.676C269.636 320.562 268.367 320.415 268.301 320.349C268.236 320.284 268.551 319.71 269.003 319.075C270.7 316.685 271.038 313.857 269.908 311.524C269.603 310.896 269.41 310.327 269.477 310.259C269.586 310.15 273.84 310.635 282.301 311.724C285.907 312.189 290.477 313.01 290.898 313.27C291.306 313.522 291.016 314.495 289.159 319.111C287.706 322.723 288.198 322.471 283.615 321.96ZM174.332 321.766C173.809 321.243 171.462 314.951 171.43 313.986C171.401 313.153 171.401 313.152 172.834 312.865C176.52 312.125 191.936 310.211 192.187 310.461C192.249 310.524 192.016 311.192 191.669 311.949C190.578 314.33 191.096 317.138 193.034 319.342C193.562 319.943 193.68 320.213 193.45 320.293C193.273 320.354 191.463 320.518 189.428 320.658C187.393 320.799 184.438 321.064 182.862 321.247C181.286 321.431 179.084 321.647 177.968 321.73C176.852 321.811 175.656 321.932 175.311 321.998C174.936 322.07 174.543 321.976 174.332 321.766ZM252.577 319.461C251.133 319.367 246.943 319.21 243.266 319.112C239.589 319.015 236.543 318.901 236.497 318.86C236.446 318.815 236.844 318.184 237.37 317.449C239.079 315.066 239.267 312.443 237.902 310.028C237.504 309.322 237.178 308.637 237.178 308.503C237.178 308.352 238.278 308.264 240.103 308.268C243.444 308.272 257.922 309.108 258.117 309.303C258.189 309.374 257.761 309.918 257.167 310.511C255.602 312.074 254.965 313.506 254.979 315.431C254.979 316.574 255.136 317.275 255.528 318.027C256.073 319.071 256.066 319.738 255.506 319.669C255.338 319.647 254.018 319.554 252.574 319.46L252.577 319.461ZM205.663 319.393C205.663 319.312 205.904 318.787 206.2 318.225C207.361 316.019 206.683 312.755 204.582 310.433C204.089 309.888 203.732 309.395 203.79 309.337C203.94 309.187 220.186 308.262 222.674 308.262C224.943 308.262 225.068 308.355 224.28 309.461C222.534 311.91 222.741 315.345 224.775 317.658C225.222 318.167 225.459 318.626 225.335 318.743C225.217 318.854 221.951 319.01 218.078 319.09C214.204 319.169 209.826 319.303 208.349 319.387C206.871 319.471 205.663 319.473 205.663 319.391L205.663 319.393ZM197.177 318.306C194.644 317.157 193.913 314.325 195.706 312.61C197.339 311.049 200.07 311.102 201.875 312.731C203.28 313.999 203.517 315.535 202.577 317.289C201.863 318.621 199.043 319.152 197.177 318.306ZM260.456 318.31C259.222 317.548 258.831 316.927 258.716 315.545C258.581 313.921 259.217 312.77 260.659 312.03C262.013 311.334 264.209 311.304 265.35 311.966C267.781 313.376 267.44 316.978 264.752 318.278C263.469 318.898 261.434 318.914 260.456 318.312V318.31ZM228.941 316.636C227.692 316.063 227.242 315.528 226.883 314.187C226.475 312.664 226.934 311.504 228.312 310.533C229.209 309.904 229.544 309.812 230.931 309.814C232.762 309.818 233.827 310.314 234.568 311.509C235.176 312.49 235.179 314.332 234.568 315.323C233.611 316.891 230.879 317.528 228.935 316.636H228.941ZM169.198 310.293C168.242 309.878 167.466 308.65 167.46 307.546C167.442 304.585 164.998 299.293 160.956 293.476C157.623 288.68 157.393 288.24 156.461 284.848C154.437 277.487 154.477 277.722 154.473 273.087C154.473 269.103 154.512 268.658 155.091 266.887C156.036 263.989 156.899 262.519 158.741 260.675C161.06 258.351 163.133 257.409 166.627 257.091C169.396 256.839 172.315 257.481 176.356 259.232C176.848 259.445 177.251 259.523 177.251 259.404C177.251 259.286 176.767 258.651 176.176 257.994C175.431 257.167 174.444 256.461 172.962 255.696C170.563 254.458 170.089 253.953 170.089 252.629C170.089 251.415 170.399 250.895 171.313 250.577C173.085 249.96 176.217 251.615 179.46 254.883C180.74 256.173 181.853 257.229 181.934 257.229C182.015 257.229 182.015 256.773 181.934 256.216C181.853 255.658 181.95 254.183 182.138 252.937C182.934 247.812 184.78 245.37 187.121 246.347C188.872 247.078 189.327 249.005 188.164 250.76C187.172 252.257 186.746 254.268 186.841 257.001C186.885 258.286 187.008 259.423 187.113 259.528C187.367 259.78 187.748 259.157 187.753 258.484C187.753 258.191 188.092 256.903 188.503 255.623C191.056 247.663 196.066 241.5 202.005 239.016C203.475 238.4 206.941 237.675 208.409 237.675C209.981 237.675 213.423 238.426 215.163 239.149C217.706 240.207 220.144 241.917 222.523 244.31C224.791 246.592 224.87 246.484 223.272 243.279C221.056 238.834 218.976 236.507 216.001 235.146C214.756 234.576 214.18 234.162 213.912 233.644C212.731 231.363 214.511 228.928 216.89 229.568C218.281 229.942 221.852 232.432 223.135 233.922C224.411 235.404 226.1 237.797 226.919 239.284C227.973 241.197 228.131 240.425 227.402 236.926C226.434 232.273 225.293 229.864 222.922 227.466C221.032 225.555 220.691 224.735 221.176 223.267C221.528 222.201 222.455 221.459 223.436 221.459C225.147 221.459 227.532 223.823 229.506 227.476C229.984 228.359 230.481 229.081 230.613 229.079C230.744 229.079 231.15 228.408 231.515 227.591C232.429 225.547 234.422 222.962 235.717 222.141C237.21 221.196 238.192 221.231 239.232 222.269C239.947 222.984 240.043 223.228 240.043 224.322C240.043 225.553 240.026 225.579 238.279 227.267C236.506 228.979 235.904 229.904 235.043 232.238C233.888 235.367 232.911 240.602 233.556 240.204C233.706 240.112 234.252 239.317 234.768 238.438C237.443 233.89 240.178 231.148 243.174 230.012C245.628 229.08 247.216 229.658 247.584 231.615C247.86 233.084 247.192 234.018 245.116 235.071C242.788 236.252 241.971 236.91 240.639 238.68C239.444 240.266 236.574 245.736 236.812 245.973C236.89 246.05 237.737 245.314 238.695 244.338C241.745 241.232 245.646 239.005 249.547 238.143C252.047 237.591 253.279 237.566 255.64 238.017C263.23 239.467 269.407 245.78 272.597 255.346C273.053 256.71 273.515 258.182 273.625 258.618C274.008 260.127 274.303 259.537 274.373 257.12C274.458 254.208 274.184 252.859 273.059 250.648C272.211 248.98 272.198 248.913 272.539 248.019C273.227 246.214 275.349 245.511 276.627 246.666C277.975 247.885 279.036 251.086 279.328 254.811C279.434 256.166 279.6 256.988 279.767 256.985C279.914 256.981 280.357 256.541 280.751 256.007C282.444 253.706 286.126 250.907 288.094 250.423C289.243 250.14 290.38 250.497 290.777 251.266C291.614 252.882 290.885 254.873 289.297 255.305C287.466 255.802 283.974 258.62 283.974 259.6C283.974 259.946 283.887 259.975 286.389 258.797C292.535 255.902 298.496 256.504 302.463 260.42C304.187 262.122 305.139 263.701 306.223 266.659C307.003 268.788 307.006 268.807 306.999 273.206C306.999 277.259 306.938 277.831 306.318 280.241C305.947 281.684 305.181 283.884 304.616 285.13C304.051 286.376 303.253 288.275 302.841 289.351C302.358 290.613 301.279 292.513 299.798 294.709C298.536 296.581 297.1 298.984 296.606 300.05C295.702 302.005 293.763 307.812 293.763 308.564C293.763 308.786 293.467 309.299 293.106 309.703C292.202 310.713 291.186 310.798 287.182 310.197C278.711 308.927 269.688 307.864 261.77 307.204C255.035 306.643 250.711 306.333 250.071 306.365C249.743 306.387 247.809 306.282 245.774 306.142C240.909 305.809 222.76 305.81 217.004 306.142C214.509 306.287 212.253 306.4 211.99 306.392C211.165 306.369 203.819 306.839 199.217 307.209C192.401 307.756 178.356 309.463 174.029 310.271C171.645 310.715 170.192 310.721 169.198 310.293ZM183.854 302.183C186.357 301.44 188.27 299.325 189.247 296.219C190.03 293.728 189.981 289.091 189.133 285.459C188.063 280.878 185.816 275.982 184.181 274.67C183.665 274.256 182.843 273.316 182.355 272.58C179.687 268.566 175.13 268.067 174.169 271.684C173.481 274.276 174.932 276.388 178.239 277.608C181.694 278.882 183.011 279.651 184.74 281.402C186.935 283.626 187.757 284.941 187.757 286.232C187.757 287.039 187.63 287.341 187.128 287.736C186.141 288.511 185.079 288.386 184.205 287.393C183.8 286.932 183.311 286.25 183.118 285.877C182.403 284.496 180.257 282.843 178.279 282.149C174.221 280.726 172.561 279.588 170.903 277.092C169.976 275.697 169.134 273.211 169.134 271.866C169.134 270.814 169.992 268.148 170.564 267.422C170.826 267.089 171.632 266.425 172.356 265.945C173.079 265.466 173.671 264.974 173.671 264.853C173.671 264.478 171.945 263.728 170.374 263.42C167.505 262.856 164.519 263.682 162.943 265.475C160.714 268.011 159.756 272.396 160.391 277.153C161.328 284.179 164.644 291.059 169.437 295.922C174.719 301.28 179.661 303.426 183.854 302.183ZM284.036 301.737C286.544 300.789 288.88 299.136 291.621 296.371C297.053 290.891 300.305 284.022 301.154 276.231C301.753 270.744 299.867 265.872 296.476 264.142C295.429 263.608 295.03 263.549 292.448 263.549C290.057 263.549 289.428 263.627 288.641 264.026C288.123 264.288 287.662 264.625 287.616 264.774C287.565 264.923 288.062 265.371 288.71 265.769C289.357 266.166 290.17 266.796 290.515 267.167C291.433 268.153 292.09 270.108 292.09 271.853C292.09 276.283 289.643 279.689 285.286 281.322C280.965 282.942 279.597 283.899 278.106 286.351C277.636 287.124 277.052 287.863 276.808 287.993C275.997 288.427 274.914 288.266 274.264 287.617C273.743 287.097 273.668 286.853 273.778 286.036C273.948 284.764 275.238 282.927 277.399 280.877C278.989 279.368 279.382 279.133 282.074 278.082C286.223 276.461 287.343 275.352 287.366 272.842C287.388 270.592 286.116 269.255 283.995 269.292C282.148 269.325 280.278 270.619 278.841 272.863C278.404 273.546 277.671 274.39 277.214 274.739C275.671 275.914 273.205 281.615 272.255 286.204C271.332 290.662 271.766 295.944 273.263 298.452C274.407 300.37 276.236 301.829 278.123 302.33C279.427 302.676 282.318 302.386 284.036 301.737ZM215.238 299.469C218.742 298.118 222.107 294.713 224.341 290.257C226.491 285.97 226.647 284.399 225.147 282.142C223.473 279.623 220.876 278.335 217.48 278.338C215.879 278.338 215.349 278.447 214.221 278.999C212.152 280.009 210.92 281.887 210.751 284.285C210.661 285.564 210.729 285.868 211.384 286.98C212.818 289.422 215.825 290.724 217.6 289.671C219.435 288.582 219.971 288.427 220.867 288.722C221.817 289.035 222.482 290.227 222.24 291.187C221.691 293.375 216.869 294.856 213.521 293.867C211.031 293.131 208.029 290.329 206.819 287.613C205.696 285.091 206.033 281.357 207.605 278.889C209.605 275.75 212.846 274.006 217.15 273.753C219.101 273.638 219.711 273.697 221.209 274.153C223.139 274.738 224.593 275.499 226.1 276.711C227.349 277.716 227.628 277.705 227.628 276.653C227.628 275.919 227.522 275.762 226.833 275.474C225.266 274.821 224.988 273.792 225.833 271.787C227.869 266.955 226.526 260.645 223.159 259.224C220.057 257.914 216.202 261.033 217.326 263.943C217.632 264.735 218.91 265.711 219.92 265.925C220.602 266.069 220.797 265.981 221.642 265.117C222.45 264.293 222.744 264.146 223.575 264.146C224.87 264.146 225.446 264.484 225.869 265.497C226.504 267.015 225.664 268.597 223.569 269.832C222.621 270.391 222.242 270.465 220.346 270.465C218.598 270.465 217.993 270.365 217.105 269.927C213.691 268.247 212.058 265.018 212.619 261.056C212.877 259.237 213.59 257.924 215.053 256.577C216.449 255.292 217.554 254.752 219.809 254.253C220.895 254.013 221.659 253.722 221.659 253.549C221.659 253.065 219.799 250.531 218.353 249.046C216.506 247.147 215.149 246.187 213.181 245.388C211.668 244.774 211.245 244.71 208.647 244.71C205.932 244.71 205.701 244.75 204.23 245.453C200.452 247.261 197.771 250.204 195.457 255.084C194.652 256.781 193.725 259.462 193.725 260.093C193.725 260.44 194.026 260.489 196.053 260.471C197.728 260.454 198.728 260.57 199.618 260.88C203.099 262.093 205.705 266.048 205.705 270.119C205.705 272.206 205.137 273.383 202.654 276.443C200.326 279.312 199.865 280.381 199.897 282.836C199.919 284.27 199.827 284.851 199.545 285.164C198.614 286.19 196.462 285.781 195.771 284.446C195.287 283.512 195.279 280.676 195.749 278.854C196.268 276.863 196.852 275.859 198.594 273.962C201.25 271.072 201.628 269.76 200.465 267.467C198.902 264.385 195.153 264.246 193.516 267.208C193.085 267.988 192.906 268.809 192.754 270.717C192.644 272.087 192.495 273.304 192.422 273.421C192.255 273.69 193.104 278.683 193.739 281.171C196.203 290.822 201.853 297.936 208.523 299.785C210.343 300.29 213.488 300.141 215.233 299.468L215.238 299.469ZM253.686 299.68C255.856 299.001 257.472 297.994 259.543 296.029C264.233 291.581 266.733 286.495 268.451 277.905C269.051 274.906 269.091 273.926 268.747 270.739C268.327 266.847 267.038 265.099 264.586 265.099C262.748 265.099 261.452 265.993 260.705 267.777C259.872 269.769 260.312 271.218 262.463 273.565C265.021 276.356 265.879 278.448 265.919 281.99L265.947 284.453L265.168 285.149C264.255 285.965 263.061 286.076 262.251 285.42C261.796 285.052 261.715 284.716 261.644 282.915C261.542 280.27 260.959 278.972 258.787 276.545C255.295 272.646 254.765 269.718 256.777 265.436C257.607 263.669 259.347 261.974 261.24 261.088C262.458 260.518 262.881 260.449 265.171 260.453C266.583 260.457 267.738 260.39 267.738 260.305C267.738 259.774 266.398 256.213 265.614 254.665C262.615 248.732 258.523 245.149 254.129 244.609C249.933 244.092 246.261 245.539 242.646 249.135C241.053 250.719 239.327 253.036 239.327 253.59C239.327 253.764 239.621 253.891 240.022 253.891C241.001 253.891 243.416 254.678 244.644 255.396C245.999 256.19 247.595 257.936 248.241 259.334C248.651 260.22 248.756 260.889 248.751 262.595C248.751 264.464 248.659 264.911 248.078 266.053C246.665 268.834 244.464 270.341 241.533 270.533C239.511 270.665 238.088 270.233 236.783 269.088C235.173 267.677 234.836 266.125 235.871 264.896C236.96 263.604 238.257 263.684 239.612 265.129C240.406 265.975 241.639 266.047 242.823 265.317C243.864 264.675 244.102 264.201 244.102 262.774C244.102 261.786 243.974 261.46 243.264 260.631C241.782 258.902 239.019 258.385 237.463 259.545C234.805 261.527 233.745 266.597 235.182 270.465C236.336 273.575 236.253 274.609 234.787 275.356C233.953 275.781 233.836 275.943 233.836 276.67C233.836 277.127 233.929 277.5 234.043 277.5C234.157 277.5 234.775 277.085 235.416 276.578C236.947 275.366 238.182 274.759 240.312 274.169C245.323 272.782 250.543 274.454 253.442 278.374C254.928 280.383 255.392 281.94 255.277 284.535C255.193 286.425 255.084 286.866 254.357 288.231C253.378 290.071 251.133 292.39 249.463 293.285C247.12 294.541 243.9 294.585 241.544 293.393C239.426 292.321 238.736 290.716 239.807 289.355C240.602 288.346 241.552 288.297 242.988 289.191C244.582 290.183 245.642 290.325 246.991 289.726C249.268 288.716 250.829 286.689 250.859 284.705C250.881 283.239 249.884 281.05 248.7 279.967C247.451 278.824 245.056 278.117 242.944 278.269C240.019 278.479 237.204 280.345 235.882 282.952C235.109 284.474 235.111 285.247 235.882 287.106C238.735 293.917 242.183 297.96 246.512 299.565C248.526 300.312 251.505 300.36 253.679 299.68L253.686 299.68ZM281.591 251.325C279.714 250.381 279.322 248.033 280.631 245.579C281.442 244.059 285.687 239.344 286.245 239.344C286.689 239.344 286.954 241.454 286.948 244.949C286.948 247.342 286.861 247.99 286.441 248.909C285.923 250.043 284.778 251.088 283.734 251.378C283.406 251.469 282.975 251.588 282.777 251.642C282.578 251.698 282.045 251.554 281.591 251.325ZM176.799 251.096C174.871 250.148 173.964 247.15 174.239 242.633C174.4 239.99 174.527 239.344 174.888 239.344C175.005 239.344 176.022 240.283 177.148 241.431C181.645 246.015 182.53 248.747 180.185 250.803C179.249 251.624 178.077 251.726 176.799 251.096ZM229.179 222.516C228.036 221.923 227.224 221.018 226.659 219.705C225.923 217.997 226.123 215.614 227.29 212.197C228.169 209.622 230.444 204.766 230.772 204.766C231.064 204.766 234.28 211.623 234.846 213.451C235.205 214.61 235.372 215.776 235.378 217.167C235.378 218.972 235.313 219.319 234.709 220.345C233.442 222.499 230.998 223.458 229.179 222.516Z" fill="currentcolor"/>

</svg>
