<svg viewBox="0 0 1180 580" fill="Currentcolor" xmlns="http://www.w3.org/2000/svg">
<path d="M231.313 330.487C229.842 330.117 228.423 329.3 227.499 328.29C226.856 327.586 226.57 327.404 225.613 327.083C224.514 326.714 224.084 326.551 223.093 326.124C222.829 326.01 222.572 325.917 222.522 325.917C222.2 325.917 216.784 323.281 214.95 322.231C212.731 320.962 209.649 318.809 208.025 317.394C207.221 316.693 204.938 314.411 204.364 313.733C202.109 311.072 201.052 307.867 201.764 305.852C201.883 305.514 202.421 304.46 202.959 303.511C203.497 302.561 204.232 301.236 204.592 300.566C204.953 299.896 205.298 299.28 205.36 299.196C205.422 299.112 205.832 298.368 206.273 297.543C206.964 296.248 207.029 296.056 206.749 296.145C206.264 296.298 206.357 296.082 206.849 295.911C207.092 295.826 207.4 295.529 207.568 295.216C207.949 294.511 209.141 293.473 210.138 292.979C211.136 292.484 213.227 291.811 213.765 291.811C213.993 291.811 214.365 291.741 214.592 291.654C215.12 291.454 217.135 289.504 218.442 287.929C218.997 287.259 219.494 286.677 219.546 286.635C219.701 286.51 222.389 282.982 222.971 282.139C223.146 281.886 223.402 281.544 223.54 281.378C223.831 281.03 224.382 280.269 224.96 279.414C225.183 279.084 225.528 278.64 225.727 278.425C226.021 278.108 226.089 277.871 226.089 277.155C226.089 276.038 225.623 274.869 224.511 273.202C224.05 272.509 223.589 271.657 223.488 271.309C223.324 270.743 223.341 270.6 223.641 269.98C223.827 269.598 224.183 269.113 224.434 268.902C224.955 268.464 224.921 268.326 224.225 268.063C223.175 267.667 220.398 266.117 220.144 265.785C220.102 265.73 219.656 265.372 219.153 264.988C217.039 263.377 215.03 260.711 214.365 258.635C214.131 257.907 214.158 256.64 214.424 255.889C214.548 255.539 215.004 254.881 215.437 254.427C215.87 253.974 216.344 253.413 216.49 253.18C216.867 252.581 218.47 251.047 219.144 250.641L219.714 250.298L218.227 249.551C217.41 249.14 216.666 248.732 216.575 248.642C216.484 248.553 216.1 248.267 215.723 248.006C215.346 247.745 214.66 247.143 214.199 246.668L213.36 245.804L214.98 245.91C217.408 246.07 220.198 245.725 222.622 244.966L223.347 244.739L223.041 244.351C222.873 244.137 222.735 243.765 222.735 243.523C222.735 243.121 222.77 243.093 223.154 243.186C223.385 243.243 223.839 243.381 224.164 243.494C224.792 243.712 226.368 243.745 227.003 243.554C227.356 243.448 227.338 243.431 226.775 243.323C225.587 243.096 224.264 242.336 223.136 241.232C222.538 240.647 222.186 240.218 222.354 240.279C223.071 240.537 223.323 240.523 223.635 240.212C224.138 239.709 224.023 239.49 223.002 239.008C220.772 237.954 219.258 236.338 217.642 233.285C217.032 232.132 217.036 232.128 218.734 232.128C220.241 232.128 221.995 232.396 223.132 232.801C224.031 233.122 225.632 233.884 226.161 234.245L226.614 234.553L226.971 234.218C227.257 233.949 227.31 233.783 227.235 233.386C227.149 232.928 227.173 232.889 227.538 232.889C228.083 232.889 229.177 233.408 229.821 233.973C230.116 234.232 230.356 234.384 230.356 234.313C230.356 234.156 228.501 231.62 227.938 231.004C227.496 230.521 225.417 228.838 225.128 228.729C225.007 228.684 225.049 228.576 225.25 228.413C225.47 228.234 225.801 228.176 226.432 228.205C226.914 228.227 227.309 228.218 227.308 228.185C227.308 228.152 227.06 227.609 226.756 226.978C225.55 224.475 224.916 222.11 224.771 219.583C224.632 217.149 224.761 217.014 225.785 218.524C226.231 219.181 226.639 219.753 226.69 219.795C226.742 219.837 227.209 220.388 227.728 221.021C228.246 221.653 229.136 222.544 229.704 223C230.273 223.456 230.761 223.881 230.789 223.944C230.817 224.007 230.941 224.058 231.064 224.058C231.188 224.058 231.244 223.985 231.189 223.896C231.134 223.807 231.133 223.498 231.185 223.21C231.262 222.802 231.411 222.622 231.866 222.39C232.304 222.167 232.472 221.972 232.546 221.603C232.675 220.959 233.327 219.588 233.912 218.729C234.518 217.841 236.339 216.032 237.215 215.449C239.898 213.662 243.031 212.92 246.13 213.337C247.78 213.559 248.187 213.687 249.867 214.513C250.897 215.02 251.433 215.421 252.484 216.467C253.21 217.19 253.915 217.995 254.05 218.256C254.185 218.516 254.346 218.729 254.407 218.729C254.469 218.729 254.825 218.346 255.2 217.877C255.574 217.409 256.156 216.81 256.494 216.547C256.831 216.283 257.226 215.96 257.371 215.829C257.627 215.598 259.078 214.846 260.004 214.465C261.541 213.832 264.809 213.65 266.715 214.092C267.9 214.366 269.476 214.939 270.091 215.319C271.481 216.177 272.151 216.651 272.626 217.112L273.159 217.629L273.822 216.943C274.67 216.066 277.124 214.017 277.572 213.812C277.76 213.726 277.915 213.598 277.915 213.528C277.915 213.458 277.991 213.4 278.085 213.4C278.288 213.4 278.246 213.608 277.633 215.608C277.125 217.264 276.811 218.739 276.561 220.632C276.284 222.731 276.212 223.601 276.317 223.601C276.373 223.601 276.593 223.464 276.806 223.297C277.139 223.035 277.915 222.867 277.915 223.056C277.915 223.091 277.751 223.451 277.552 223.855C276.695 225.593 276.447 226.305 276.259 227.56C276.178 228.104 276.06 228.681 275.997 228.841C275.916 229.045 275.935 229.099 276.06 229.022C276.158 228.962 276.238 228.837 276.238 228.744C276.238 228.592 277.103 227.134 277.301 226.951C277.347 226.909 277.573 226.584 277.804 226.228C278.294 225.472 280.462 223.26 281.345 222.616L281.954 222.17L281.483 222.695C280.325 223.986 280.092 224.687 280.652 225.194C280.942 225.456 280.988 225.437 282.128 224.58C283.233 223.749 286.228 221.926 286.488 221.926C286.554 221.926 286.898 221.79 287.253 221.624C287.885 221.328 290.132 220.707 290.241 220.798C290.365 220.901 289.747 223.273 289.412 223.982C289.214 224.401 288.747 225.091 288.374 225.515L287.695 226.287L288.432 226.276C288.837 226.271 289.223 226.319 289.289 226.385C289.354 226.45 288.947 226.919 288.384 227.427C286.785 228.869 285.396 230.995 285.387 232.013L285.384 232.432L287.479 232.427C289.58 232.422 291.651 232.194 293.415 231.774C293.934 231.651 294.397 231.588 294.444 231.635C294.491 231.683 294.53 231.979 294.53 232.294C294.53 232.758 294.437 232.939 294.04 233.249L293.55 233.632L294.001 233.807C294.25 233.904 294.865 234.043 295.368 234.118C295.871 234.193 296.694 234.324 297.197 234.408C298.235 234.582 301.176 234.593 302.508 234.427L303.398 234.316L302.737 234.945C302.173 235.48 301.225 236.162 299.937 236.957C299.772 237.06 299.396 237.254 299.103 237.389C298.809 237.524 298.453 237.695 298.312 237.769C297.469 238.21 293.793 239.283 293.122 239.283C292.527 239.283 292.537 239.426 293.171 239.998C293.645 240.427 293.767 240.644 293.767 241.062C293.767 241.493 293.719 241.572 293.501 241.503C291.648 240.918 289.872 240.706 287.479 240.783C286.553 240.812 286.533 241.095 287.432 241.464C288.394 241.859 289.274 242.785 288.687 242.785C288.386 242.785 287.822 243.445 287.822 243.798C287.822 244.028 287.988 244.158 288.47 244.308C290.378 244.902 292.336 246.248 294.378 248.37C295.3 249.328 296.054 250.163 296.054 250.225C296.054 250.393 294.158 250.839 292.929 250.96L291.862 251.066L293.005 251.354C293.95 251.592 294.752 251.644 297.618 251.655L301.088 251.668L300.743 252.039C300.554 252.243 300.09 252.62 299.712 252.878C299.335 253.136 298.992 253.389 298.95 253.441C298.859 253.555 296.897 254.666 296.359 254.909C295.048 255.501 292.992 256.16 291.176 256.571L290.033 256.83L290.681 257.476C291.176 257.971 291.328 258.239 291.328 258.616C291.328 259.025 291.283 259.091 291.062 259.002C289.7 258.458 287.831 258.174 285.555 258.168C284.058 258.164 283.847 258.193 284.005 258.384C284.106 258.505 284.479 258.745 284.833 258.916C285.188 259.088 285.673 259.431 285.912 259.68L286.345 260.132L285.512 260.448L285.977 261.035C286.531 261.734 287.612 262.73 287.816 262.73C287.995 262.73 288.607 263.144 290.169 264.32C291.374 265.228 293.696 267.805 293.538 268.06C293.493 268.134 293.131 268.239 292.735 268.293C292.339 268.347 291.752 268.458 291.432 268.539C291.111 268.62 289.904 268.687 288.748 268.688C286.776 268.692 285.563 268.505 284.623 268.06C284.218 267.868 283.334 267.402 283.063 267.237C282.858 267.113 282.749 267.144 282.572 267.378C282.247 267.807 282.269 267.862 282.921 268.273C284.135 269.038 284.385 270.862 283.394 271.721C282.624 272.387 281.882 274.351 281.879 275.726C281.875 276.61 281.889 276.632 283.284 278.543C284.564 280.294 285.102 281.023 286.033 282.262C286.208 282.494 286.493 282.88 286.667 283.118C287.398 284.117 288.342 285.346 288.433 285.416C288.486 285.458 288.857 285.904 289.256 286.406C289.655 286.909 290.793 288.145 291.785 289.154L293.589 290.989L294.631 291.184C296.235 291.483 298.391 292.258 299.073 292.779C299.725 293.277 301.737 295.465 301.543 295.465C301.428 295.465 301.824 296.23 303.314 298.891C303.502 299.226 303.908 299.98 304.217 300.566C304.747 301.572 305.399 302.733 306.01 303.763C306.994 305.42 307.214 306.657 306.804 308.22C306.656 308.783 306.44 309.396 306.325 309.582C306.209 309.767 306.115 309.996 306.115 310.091C306.115 310.358 304.551 312.65 303.731 313.584C302.389 315.114 300.573 316.821 299.189 317.856C297.429 319.171 295.813 320.276 294.835 320.834C294.29 321.145 293.809 321.439 293.767 321.488C293.564 321.725 288.615 324.223 287.27 324.767C286.694 325 286.085 325.248 285.917 325.318C284.81 325.782 284.27 325.991 283.326 326.323C282.739 326.53 282.121 326.736 281.954 326.781C281.786 326.827 281.443 327.143 281.192 327.484C280.649 328.22 279.193 329.249 278.137 329.644C277.616 329.838 276.837 329.945 275.636 329.986C273.892 330.047 273.406 329.955 272.35 329.37C272.159 329.264 270.969 329.198 269.149 329.192C266.2 329.182 265.146 329.052 263.38 328.479C262.063 328.052 261.138 327.543 260.425 326.852C259.561 326.014 259.123 325.123 258.617 323.176C258.497 322.715 258.305 322.098 258.188 321.805C258.072 321.512 257.689 320.348 257.337 319.217C256.985 318.087 256.539 316.682 256.346 316.096C255.54 313.647 255.463 313.268 255.555 312.232C255.65 311.163 255.796 310.648 256.369 309.354C256.565 308.912 256.726 308.51 256.726 308.459C256.726 308.409 257 307.966 257.335 307.476C257.671 306.985 257.945 306.525 257.945 306.453C257.945 306.381 258.092 306.192 258.271 306.033C258.587 305.751 258.594 305.665 258.507 303.002C258.457 301.495 258.309 299.679 258.176 298.967C258.044 298.255 257.866 297.296 257.782 296.836C257.604 295.86 257.244 294.222 256.947 293.029C256.831 292.569 256.658 291.815 256.56 291.354C256.462 290.894 256.288 290.214 256.173 289.843C256.058 289.472 255.964 289.021 255.964 288.841C255.964 288.645 255.807 288.429 255.574 288.305C255.236 288.124 255.121 288.131 254.698 288.36C254.43 288.505 253.993 288.81 253.728 289.037C253.463 289.265 253.051 289.558 252.813 289.689C252.454 289.886 252.346 290.093 252.174 290.907C252.061 291.446 251.878 292.23 251.767 292.649C251.657 293.067 251.489 293.787 251.395 294.247C251.23 295.052 250.915 296.522 250.625 297.845C250.269 299.466 250.019 301.833 249.982 303.915L249.942 306.199L250.651 307.265C252.256 309.68 252.802 311.152 252.823 313.127C252.838 314.551 252.55 315.845 251.772 317.847C251.658 318.14 251.28 319.305 250.932 320.435C250.584 321.566 250.133 322.982 249.93 323.582C249.727 324.182 249.561 324.752 249.561 324.848C249.561 324.944 249.389 325.398 249.179 325.857C248.574 327.177 247.299 328.271 245.598 328.926C244.122 329.495 243.357 329.596 240.078 329.652C237.423 329.698 236.675 329.757 236.296 329.953C235.639 330.292 233.618 330.791 232.96 330.776C232.659 330.77 231.917 330.639 231.311 330.487L231.313 330.487ZM232.72 328.952C233.306 328.798 233.958 328.616 234.168 328.548C235.704 328.05 237.209 326.565 237.928 324.838C238.461 323.559 238.893 322.154 238.893 321.704C238.893 321.294 239.051 321.164 239.298 321.369C239.621 321.636 239.124 320.355 238.571 319.495C238.121 318.795 237.18 317.847 236.934 317.847C236.623 317.847 235.384 316.386 235.296 315.915C235.2 315.409 235.414 314.64 235.774 314.193C236.051 313.849 236.441 312.528 236.488 311.774C236.529 311.136 236.503 311.091 235.908 310.756L235.285 310.405L235.043 311.195C234.91 311.63 234.682 312.533 234.537 313.203C234.392 313.873 234.183 314.636 234.073 314.898C233.849 315.433 233.103 316.117 232.415 316.418C231.961 316.616 231.963 316.617 232.745 316.623C233.179 316.627 233.642 316.671 233.774 316.722C234.146 316.864 234.063 317.238 233.659 317.238C232.968 317.238 230.673 318.118 229.916 318.672C228.768 319.514 227.946 320.76 227.202 322.783C226.768 323.965 226.492 323.893 226.593 322.624C226.639 322.048 226.716 321.372 226.765 321.121C226.847 320.693 226.839 320.698 226.635 321.197C226.503 321.518 226.412 322.293 226.405 323.149C226.395 324.41 226.447 324.695 226.875 325.722C227.425 327.043 228.737 328.5 229.883 329.063C230.624 329.427 230.958 329.414 232.72 328.952ZM278.708 328.39C279.885 327.703 280.875 326.684 281.439 325.58C282.078 324.33 282.355 322.333 282.028 321.349C281.938 321.08 281.909 321.258 281.929 321.958C281.963 323.199 281.653 323.309 281.28 322.186C280.362 319.423 279.044 318.022 276.427 317.028C276.069 316.893 275.645 316.781 275.485 316.781C275.324 316.781 275 316.708 274.764 316.618C274.35 316.46 274.345 316.446 274.63 316.237C274.793 316.118 275.273 316.014 275.697 316.008C276.405 315.996 276.437 315.981 276.087 315.817C275.434 315.512 274.899 315.101 274.638 314.702C274.409 314.354 273.692 311.761 273.434 310.349C273.377 310.035 273.301 309.778 273.267 309.778C273.066 309.778 271.819 310.641 271.819 310.78C271.819 310.872 271.921 311.284 272.046 311.695C272.171 312.106 272.274 312.567 272.275 312.719C272.275 312.871 272.464 313.241 272.693 313.541C273.036 313.99 273.11 314.242 273.11 314.97C273.11 315.742 273.053 315.913 272.655 316.331C272.405 316.595 271.844 317.047 271.409 317.337C270.635 317.854 269.866 318.84 269.331 320.002C269.02 320.678 269.017 320.74 269.293 320.74C269.436 320.74 269.572 321.041 269.689 321.615C270.081 323.544 270.935 325.307 272.001 326.39C273.16 327.567 274.342 328.139 276.506 328.569C277.935 328.853 277.91 328.855 278.708 328.39ZM224.439 324.335C224.412 323.632 224.463 322.655 224.552 322.165C224.741 321.119 225.604 319.33 226.325 318.488L226.833 317.896L225.965 317.548C222.825 316.289 218.708 314.118 215.933 312.255C215.587 312.023 214.722 311.442 214.012 310.963C212.563 309.987 211.696 309.737 211.105 310.124C210.807 310.319 210.026 311.397 209.206 312.747C208.908 313.236 208.613 313.933 208.249 315.01C207.968 315.84 207.943 316.058 208.104 316.252C208.441 316.657 210.735 318.395 212.31 319.438C213.139 319.987 213.886 320.488 213.97 320.552C214.18 320.711 216.729 322.146 217.476 322.525C217.811 322.695 218.292 322.946 218.543 323.082C219.16 323.416 221.542 324.487 222.926 325.053C223.198 325.165 223.593 325.332 223.802 325.424C224.466 325.716 224.49 325.674 224.439 324.335ZM285.005 324.698C285.089 324.637 285.55 324.442 286.03 324.265C286.511 324.089 287.025 323.881 287.174 323.803C287.322 323.726 288.439 323.175 289.654 322.579C293.593 320.647 296.316 318.957 299.284 316.604C300.765 315.429 300.698 315.673 300.045 313.838C299.654 312.74 298.445 310.656 297.756 309.892C296.879 308.921 296.26 309.073 293.694 310.889C293.023 311.363 292.392 311.821 292.291 311.905C292.191 311.99 291.865 312.175 291.567 312.317C291.27 312.459 291.026 312.63 291.026 312.699C291.026 312.767 290.951 312.823 290.859 312.823C290.767 312.823 290.51 312.949 290.287 313.104C289.099 313.929 285.808 315.565 282.887 316.781C282.105 317.107 281.607 317.392 281.709 317.455C282.014 317.644 283.024 319.107 283.398 319.903C283.923 321.021 284.083 321.86 284.087 323.512L284.091 324.99L284.472 324.899C284.682 324.85 284.921 324.759 285.005 324.698ZM249.985 322.339C250.155 321.836 250.581 320.5 250.931 319.37C251.282 318.239 251.658 317.074 251.766 316.781C252.379 315.117 252.536 314.363 252.524 313.127C252.511 311.864 252.261 310.691 252.003 310.691C251.932 310.691 251.795 310.948 251.698 311.262C251.601 311.576 251.483 311.936 251.435 312.061C250.39 314.799 248.799 319.72 248.802 320.207C248.802 320.375 248.973 320.991 249.18 321.577C249.388 322.164 249.559 322.809 249.56 323.011C249.565 323.504 249.623 323.412 249.985 322.339ZM258.952 322.181C258.995 321.949 259.191 321.295 259.39 320.728C259.662 319.95 259.719 319.574 259.625 319.191C259.455 318.499 258.426 315.272 258.226 314.802C258.137 314.593 257.938 314.01 257.784 313.508C257.238 311.73 256.613 310.069 256.489 310.067C256.243 310.062 255.971 311.395 255.968 312.613C255.964 313.523 256.068 314.166 256.352 315.049C256.564 315.709 257.017 317.139 257.358 318.228C257.699 319.316 258.064 320.413 258.169 320.664C258.274 320.915 258.452 321.479 258.563 321.917C258.784 322.785 258.836 322.82 258.952 322.181ZM281.815 320.348C281.759 320.125 281.678 319.977 281.636 320.019C281.595 320.061 281.606 320.278 281.662 320.501C281.718 320.724 281.799 320.872 281.84 320.83C281.882 320.788 281.871 320.572 281.815 320.348ZM241.233 320.14C241.806 319.922 241.872 319.461 241.435 318.718C240.881 317.774 237.038 314.008 236.841 314.215C236.779 314.281 236.708 315.367 236.738 315.803C236.75 315.977 237.211 316.594 237.763 317.173C238.316 317.753 239.04 318.639 239.373 319.141C240.112 320.258 240.448 320.438 241.233 320.14ZM268.892 318.946C269.082 318.546 269.691 317.741 270.245 317.157C270.799 316.574 271.38 315.891 271.535 315.639C271.958 314.956 271.893 313.736 271.433 313.736C271.11 313.736 267.301 317.6 266.953 318.281C266.566 319.04 266.565 318.987 266.97 319.364C267.193 319.571 267.51 319.674 267.925 319.674C268.517 319.674 268.563 319.64 268.892 318.946ZM246.363 316.071C246.363 315.849 246.466 315.318 246.593 314.892C246.719 314.465 247.024 313.432 247.27 312.594C247.858 310.59 248.509 308.874 249.359 307.085C249.498 306.792 249.539 306.512 249.462 306.379C249.22 305.96 247.908 304.601 247.745 304.601C247.646 304.601 247.582 304.985 247.582 305.579C247.582 307.349 246.548 310.968 245.433 313.102C245.097 313.744 244.723 314.37 244.601 314.493C244.407 314.688 244.488 314.825 245.252 315.596C245.732 316.081 246.178 316.477 246.243 316.477C246.309 316.477 246.363 316.294 246.363 316.071ZM263.696 313.62C263.482 313.307 263.086 312.571 262.816 311.985C262.547 311.399 262.278 310.817 262.219 310.691C262.161 310.566 261.991 310.052 261.844 309.549C261.696 309.047 261.51 308.43 261.43 308.179C261.185 307.404 260.85 305.324 260.847 304.561L260.843 303.835L260.195 304.486C259.839 304.844 259.391 305.314 259.199 305.531L258.852 305.925L259.183 306.595C259.365 306.964 259.57 307.402 259.638 307.57C260.475 309.626 260.976 311.024 261.302 312.214C261.405 312.591 261.58 313.207 261.69 313.584C261.8 313.961 261.972 314.657 262.073 315.13L262.257 315.991L264.083 314.19L263.695 313.62H263.696ZM233.772 312.65C233.828 312.304 233.854 312.003 233.83 311.982C233.222 311.435 227.455 308.56 226.967 308.56C226.853 308.56 226.694 308.501 226.615 308.429C226.535 308.357 225.749 308.075 224.869 307.801C222.076 306.933 221.649 306.831 218.848 306.356C217.186 306.074 212.278 306.033 211.699 306.296C211.239 306.506 211.101 306.813 211.299 307.183C211.465 307.493 213.341 309.183 214.275 309.864C214.61 310.109 214.919 310.35 214.961 310.401C215.003 310.452 215.344 310.685 215.718 310.92C216.343 311.31 216.308 311.257 215.299 310.277C214.694 309.689 214.199 309.112 214.199 308.994C214.199 308.585 214.668 308.114 215.232 307.957C216.643 307.566 220.555 307.967 223.955 308.852C224.714 309.05 224.923 309.12 226.47 309.694C228.559 310.469 231.046 311.726 232.72 312.852C233.055 313.077 233.406 313.266 233.5 313.27C233.594 313.276 233.717 312.996 233.772 312.65ZM279.263 310.287C283.787 308.191 287.209 307.341 291.126 307.341C293.724 307.341 294.227 307.495 294.227 308.289C294.227 308.684 294.053 308.938 293.275 309.676C292.138 310.755 292.32 310.68 294.151 309.312C295.905 308.003 297.276 306.683 297.276 306.304C297.276 305.812 296.926 305.669 295.352 305.518C293.034 305.296 289.318 305.657 286.529 306.375C285.291 306.694 282.216 307.648 281.651 307.889C281.4 307.997 280.885 308.209 280.508 308.36C279.701 308.684 276.886 310.073 276.011 310.578C274.781 311.289 274.716 311.354 274.716 311.857C274.716 312.857 274.779 312.855 276.491 311.809C277.372 311.27 278.619 310.585 279.263 310.287ZM216.79 311.537C216.79 311.5 216.722 311.428 216.638 311.376C216.554 311.325 216.485 311.354 216.485 311.443C216.485 311.532 216.554 311.605 216.638 311.605C216.722 311.605 216.79 311.574 216.79 311.537ZM292.246 310.691C292.246 310.607 292.215 310.539 292.178 310.539C292.141 310.539 292.069 310.607 292.017 310.691C291.965 310.775 291.995 310.843 292.084 310.843C292.173 310.843 292.246 310.775 292.246 310.691ZM241.533 309.906C242.533 309.376 243.463 306.978 243.51 304.81C243.536 303.589 243.497 303.379 243.105 302.632C242.496 301.471 240.548 299.532 239.341 298.885C237.078 297.671 234.079 296.302 231.195 295.167C231.028 295.101 230.701 294.971 230.469 294.878C230.238 294.785 229.449 294.511 228.716 294.27C227.984 294.028 227.007 293.704 226.546 293.55C225.445 293.181 223.472 293.187 222.681 293.562C221.864 293.949 221.07 294.932 220.261 296.554C219.166 298.75 218.924 299.394 218.924 300.116C218.924 300.689 219.008 300.865 219.52 301.372C220.325 302.168 223.288 303.601 225.25 304.144C225.713 304.272 227.586 304.948 228.147 305.19C228.314 305.262 228.623 305.395 228.832 305.485C229.042 305.575 229.625 305.83 230.128 306.052C230.631 306.273 231.283 306.559 231.576 306.686C232.71 307.18 236.109 308.956 236.37 309.19C236.45 309.262 236.659 309.321 236.835 309.321C237.011 309.321 237.221 309.385 237.3 309.464C237.762 309.923 240.886 310.248 241.533 309.906ZM271.059 308.933C271.771 308.699 272.593 308.359 272.886 308.177C273.962 307.512 277.484 305.82 279.539 304.982C282.27 303.868 282.597 303.742 283.328 303.524C283.871 303.363 284.524 303.133 285.462 302.773C286.551 302.355 288.536 301.245 288.975 300.81C289.69 300.101 289.787 299.463 289.348 298.378C288.793 297.009 287.505 294.525 287.037 293.922C286.115 292.734 284.084 292.325 282.109 292.929C281.606 293.082 280.988 293.266 280.737 293.337C280.485 293.407 279.696 293.679 278.984 293.941C278.271 294.203 277.517 294.475 277.307 294.546C276.835 294.704 274.032 295.879 273.679 296.067C273.536 296.142 272.322 296.736 270.981 297.386C268.708 298.488 268.451 298.657 267.203 299.866C266.466 300.58 265.679 301.475 265.454 301.855C265.071 302.501 265.045 302.658 265.056 304.296C265.066 305.831 265.118 306.169 265.475 307.036C265.991 308.286 266.555 309.142 266.987 309.329C267.592 309.591 269.676 309.388 271.059 308.933ZM206.12 302.167C206.866 301.951 206.915 301.904 207.545 300.795C207.853 300.25 208.174 299.702 208.257 299.576C208.339 299.451 208.468 299.208 208.544 299.036C208.619 298.864 208.99 298.2 209.368 297.561C209.746 296.923 210.101 296.258 210.156 296.085C210.211 295.912 210.32 295.77 210.398 295.77C210.476 295.77 210.54 295.695 210.54 295.603C210.54 295.511 210.883 294.853 211.302 294.142C212.08 292.822 212.178 292.573 211.916 292.573C211.608 292.573 209.976 293.417 209.221 293.967C208.242 294.681 208.14 294.823 206.616 297.597C206.501 297.807 206.252 298.252 206.063 298.587C205.874 298.922 205.438 299.71 205.093 300.338C204.749 300.966 204.258 301.857 204.001 302.317C203.744 302.778 203.533 303.195 203.531 303.245C203.531 303.295 203.991 303.108 204.557 302.829C205.123 302.55 205.826 302.252 206.12 302.167ZM304.546 301.822C304.254 301.299 303.795 300.46 303.525 299.957C303.039 299.053 301.961 297.124 301.694 296.684C301.619 296.558 301.368 296.083 301.137 295.627C300.585 294.536 299.252 293.213 298.114 292.626C297.234 292.173 296.361 291.877 296.361 292.033C296.361 292.074 296.67 292.629 297.047 293.266C297.425 293.904 297.733 294.457 297.733 294.497C297.733 294.537 298.111 295.209 298.572 295.992C299.033 296.774 299.41 297.49 299.41 297.582C299.41 297.674 299.479 297.749 299.562 297.749C299.646 297.749 299.715 297.825 299.715 297.917C299.715 298.009 300.081 298.711 300.529 299.477C300.976 300.244 301.386 300.991 301.438 301.137C301.491 301.284 301.645 301.404 301.78 301.404C302.136 301.404 303.994 302.159 304.44 302.486C305.078 302.952 305.1 302.816 304.546 301.822ZM214.863 299.667C215.094 298.822 215.567 297.654 215.887 297.14C215.965 297.015 216.1 296.745 216.188 296.542C216.461 295.903 218.017 293.747 218.753 292.986C219.508 292.205 219.473 291.971 218.603 291.966C218.384 291.966 217.902 291.922 217.532 291.872C216.93 291.789 216.841 291.817 216.688 292.138C216.595 292.335 216.322 292.908 216.083 293.41C215.843 293.913 215.228 295.087 214.717 296.021C214.205 296.954 213.742 297.81 213.689 297.924C213.635 298.037 213.522 298.233 213.438 298.358C213.355 298.484 212.911 299.203 212.452 299.957L211.618 301.327L214.427 301.48L214.522 301.023C214.575 300.772 214.728 300.162 214.863 299.667ZM296.792 300.712C296.818 300.689 296.369 299.894 295.792 298.944C295.215 297.994 294.694 297.114 294.633 296.988C294.573 296.863 294.249 296.28 293.915 295.694C293.58 295.108 292.947 293.892 292.509 292.993L291.712 291.358L290.463 291.354C289.777 291.354 289.181 291.407 289.14 291.474C289.099 291.54 289.286 291.831 289.555 292.121C290.19 292.801 291.381 294.366 291.635 294.854C291.745 295.064 291.884 295.269 291.946 295.311C292.229 295.503 293.458 298.398 293.692 299.422C293.835 300.05 293.976 300.647 294.006 300.747C294.045 300.882 294.42 300.907 295.401 300.841C296.139 300.791 296.765 300.732 296.792 300.71V300.712ZM246.484 298.492C246.835 298.36 247.655 296.809 248.567 294.552C248.788 294.008 249.028 293.425 249.102 293.258C249.353 292.69 250.021 290.695 250.021 290.512C250.021 290.411 249.695 290.261 249.297 290.177C248.899 290.093 248.453 289.974 248.306 289.912C248.117 289.833 248.039 289.87 248.039 290.039C248.039 290.171 247.944 290.504 247.828 290.779C247.712 291.054 247.393 291.964 247.12 292.801C246.242 295.491 245.88 296.492 245.302 297.826C245.066 298.373 245.01 298.632 245.108 298.73C245.21 298.831 245.898 298.713 246.484 298.492ZM263.477 298.114C263.528 298.063 263.505 297.909 263.425 297.771C263.083 297.179 261.684 293.315 260.77 290.441C260.544 289.729 260.332 289.12 260.3 289.087C260.268 289.054 260.154 289.099 260.047 289.187C259.763 289.42 258.865 288.948 258.487 288.366C257.766 287.26 257.782 287.274 257.88 287.853C257.985 288.476 258.563 290.372 259.111 291.888C259.532 293.051 259.59 293.197 260.082 294.324C260.265 294.742 260.469 295.222 260.536 295.39C260.988 296.524 261.705 297.74 262.044 297.95C262.44 298.195 263.298 298.293 263.477 298.114ZM240.814 296.417C240.936 295.892 241.59 293.938 242.405 291.659C242.75 290.696 243.088 289.737 243.157 289.528C243.453 288.622 245.216 284.665 245.925 283.314C246.93 281.401 247.606 280.381 248.226 279.846L248.725 279.414L248.232 278.419C247.961 277.871 247.693 277.185 247.637 276.894C247.496 276.159 246.536 275.457 244.076 274.288C243.531 274.03 242.966 273.755 242.821 273.679C242.675 273.603 242.24 273.541 241.853 273.541C241.386 273.541 241.001 273.435 240.706 273.224C240.461 273.05 240.187 272.933 240.096 272.963C240.006 272.993 239.544 273.748 239.07 274.641C237.498 277.6 237.178 278.175 236.432 279.377C236.025 280.032 235.692 280.591 235.692 280.619C235.692 280.684 234.112 283.092 233.753 283.574C233.604 283.774 233.379 284.092 233.253 284.279C232.533 285.354 231.529 286.555 230.425 287.663C229.387 288.704 229.092 288.919 228.694 288.919C228.08 288.919 227.857 288.403 228.001 287.323C228.118 286.449 228.784 284.357 229.357 283.062C229.854 281.941 229.847 281.809 229.288 281.686C229.035 281.631 228.487 281.316 228.071 280.987L227.314 280.39L226.954 280.962C226.756 281.277 226.203 282.356 225.726 283.361C225.248 284.366 224.791 285.308 224.71 285.455C224.628 285.601 224.281 286.418 223.937 287.269C223.33 288.772 223.319 288.831 223.551 289.317C223.868 289.98 225.468 290.732 228.832 291.8C232.866 293.081 235.053 293.895 236.607 294.694C238.36 295.595 240.219 296.597 240.334 296.703C240.581 296.93 240.713 296.852 240.814 296.417ZM268.946 295.677C270.136 295 273.835 293.176 274.563 292.908C275.436 292.586 278.942 291.431 280.66 290.899C282.338 290.38 283.642 289.875 283.993 289.609C284.678 289.089 285.081 288.594 285.081 288.273C285.081 287.753 283.833 284.86 282.25 281.709C281.443 280.102 281.268 279.855 280.878 279.768C280.633 279.714 280.312 279.619 280.165 279.558C279.953 279.469 279.898 279.523 279.898 279.823C279.898 280.306 279.352 281.001 278.973 281.001C278.63 281.001 278.584 281.397 278.875 281.843C278.983 282.008 279.199 282.52 279.355 282.981C279.511 283.441 279.689 283.887 279.75 283.97C279.812 284.054 280.047 284.866 280.273 285.775C280.621 287.172 280.656 287.496 280.502 287.869C280.122 288.783 278.999 288.267 277.459 286.471C276.998 285.933 276.546 285.424 276.454 285.341C276.362 285.257 276.133 284.964 275.945 284.689L275.603 284.19L275.121 284.487C273.979 285.191 271.512 285.718 269.38 285.714C268.051 285.71 265.476 285.388 264.539 285.106C264.183 284.999 263.853 284.949 263.807 284.995C263.741 285.061 264.705 287.555 265.412 289.147C265.613 289.597 266.102 291.012 266.888 293.41C267.691 295.86 267.825 296.227 267.914 296.227C267.95 296.227 268.414 295.979 268.946 295.677ZM249.591 288.957C249.805 288.726 250.018 288.38 250.064 288.188C250.146 287.852 250.121 287.841 249.437 287.93C249.046 287.98 248.571 288.054 248.382 288.092C247.944 288.183 247.951 288.078 248.42 287.521C248.937 286.908 248.958 285.951 248.458 285.817C247.764 285.631 247.141 285.722 246.759 286.064C246.382 286.402 246.38 286.415 246.617 287.091C246.904 287.913 247.238 288.358 248 288.934C248.722 289.48 249.1 289.485 249.591 288.957ZM260.355 288.626C261.03 288.278 261.39 287.872 261.772 287.032C262.197 286.097 262.153 285.623 261.614 285.345C260.996 285.026 260.893 285.049 260.772 285.531C260.589 286.263 260.015 286.848 259.188 287.145C258.757 287.3 258.405 287.518 258.405 287.629C258.405 287.885 259.371 288.919 259.61 288.919C259.709 288.919 260.043 288.787 260.355 288.626ZM250.11 287.374C251.053 286.931 251.311 286.492 251.314 285.325C251.318 283.688 250.638 283.183 248.616 283.325C247.978 283.369 247.432 283.502 247.168 283.677L246.744 283.957L247.418 284.075C248.892 284.331 249.822 286.009 249.179 287.251C248.97 287.655 248.97 287.701 249.183 287.701C249.311 287.701 249.73 287.554 250.112 287.374H250.11ZM255.79 285.435C256.013 285.278 256.606 285.03 257.109 284.883C258.73 284.412 258.857 284.291 258.859 283.209C258.859 282.86 258.744 282.678 258.366 282.436C256.32 281.127 254.732 280.013 254.363 279.629C254.011 279.261 253.801 279.174 253.267 279.174H252.607L253.647 280.155C255.229 281.645 255.846 283.059 255.453 284.29C255.293 284.789 254.638 285.024 254.203 284.739C253.713 284.418 253.071 283.439 252.351 281.915C252.015 281.203 251.526 280.42 251.263 280.175C250.593 279.549 250.546 279.742 251.192 280.467C251.489 280.8 252.03 281.698 252.394 282.462C253.435 284.642 254.112 285.389 255.333 285.708C255.362 285.715 255.567 285.593 255.79 285.435ZM273.371 284.368C274.571 283.955 275.089 283.661 275.674 283.059C276.511 282.198 276.719 281.137 276.334 279.692C275.797 277.677 274.11 276.042 272.164 275.651C271.145 275.446 269.604 275.602 268.161 276.056C267.784 276.175 266.857 276.452 266.103 276.672C264.386 277.173 263.575 277.481 263.947 277.492C264.232 277.499 266.217 276.952 267.627 276.476C268.719 276.108 270.956 276.119 271.667 276.496C272.439 276.905 273.725 278.238 274.03 278.946C274.187 279.31 274.299 279.984 274.309 280.621C274.324 281.562 274.268 281.788 273.827 282.556C273.553 283.034 273.013 283.702 272.629 284.04C271.817 284.754 272.005 284.837 273.371 284.368ZM279.223 280.536C279.579 280.241 279.5 279.406 279.098 279.217C278.041 278.719 277.678 278.592 277.587 278.687C277.531 278.746 277.437 279.267 277.376 279.845L277.266 280.896L278.136 280.806C278.614 280.757 279.103 280.635 279.223 280.536ZM231.938 280.319C232.128 280.175 232.188 280.01 232.118 279.829C232.02 279.577 231.987 279.585 231.717 279.914C231.238 280.502 231.372 280.747 231.938 280.319ZM283.557 279.868C283.557 279.831 283.219 279.416 282.807 278.945C281.925 277.938 280.714 276.211 280.138 275.14C279.913 274.721 279.67 274.276 279.598 274.15C279.383 273.775 278.679 272.171 278.678 272.052C278.678 271.992 278.585 271.766 278.473 271.551C278.36 271.336 278.223 270.979 278.167 270.756L278.065 270.352L278.602 270.668C278.956 270.877 279.269 270.952 279.519 270.89C280.05 270.756 279.998 270.619 279.203 270.049C277.988 269.177 277.077 267.825 276.485 266.015C276.181 265.084 276.178 264.926 276.468 265.167C276.594 265.271 276.697 265.437 276.697 265.536C276.697 265.634 277.034 266.093 277.446 266.555C278.497 267.732 279.857 268.406 281.845 268.733C282.3 268.808 282.331 268.789 282.188 268.523C281.939 268.058 282.007 267.56 282.383 267.091L282.733 266.654L283.488 267.115C283.903 267.369 284.789 267.753 285.458 267.97C286.516 268.313 286.935 268.364 288.693 268.364C290.698 268.364 293.008 268.022 293.008 267.725C293.008 267.448 289.7 264.275 288.842 263.729C287.703 263.004 286.558 262.421 285.691 262.126C285.064 261.914 285.001 261.846 284.959 261.344C284.924 260.931 285.011 260.677 285.305 260.328L285.697 259.863L285.244 259.541C284.392 258.935 283.483 258.777 280.737 258.756C278.077 258.737 278.034 258.676 280.432 258.316C283.493 257.857 285.791 257.736 287.622 257.936C288.614 258.045 289.785 258.233 290.226 258.354C290.666 258.476 291.026 258.548 291.026 258.514C291.026 258.48 290.924 258.256 290.8 258.017C290.657 257.739 290.24 257.414 289.655 257.122L288.736 256.663L289.614 256.497C290.097 256.405 290.904 256.257 291.407 256.167C292.57 255.959 293.617 255.641 295.37 254.964C296.812 254.407 300.147 252.397 300.167 252.073C300.171 252.031 298.851 251.988 297.238 251.978C295.192 251.965 293.934 251.884 293.084 251.711C291.744 251.438 290.256 251.05 290.153 250.947C290.116 250.91 290.349 250.761 290.671 250.614C291.488 250.24 291.788 249.951 291.788 249.537C291.788 249.131 291.457 249.076 290.568 249.335C289.595 249.619 286.877 249.941 285.459 249.941H284.061L283.552 251.302C283.256 252.093 282.841 252.883 282.561 253.189L282.078 253.715L282.919 253.884C284.828 254.267 289.171 254.023 291.972 253.377C292.6 253.232 292.858 253.223 292.899 253.346C292.932 253.447 292.397 253.657 291.571 253.866C288.82 254.563 287.183 254.812 285.348 254.813C284.363 254.813 283.557 254.856 283.557 254.908C283.557 254.959 283.761 255.235 284.012 255.519C284.262 255.804 284.507 256.224 284.556 256.453C284.605 256.682 284.707 257.023 284.783 257.211C285.009 257.768 284.807 257.602 284.48 256.961C284.085 256.188 283.091 255.349 282.205 255.041C280.54 254.461 275.334 254.683 273.432 255.415C272.989 255.586 272.993 255.59 274.421 256.304C276.451 257.32 278.047 258.872 279.118 260.87C279.268 261.15 279.259 261.208 279.069 261.208C278.942 261.208 278.724 260.986 278.583 260.714C278.442 260.442 277.909 259.783 277.398 259.25C274.943 256.687 271.816 255.559 268.694 256.109C266.789 256.444 264.355 257.373 263.671 258.025C263.431 258.254 263.869 258.185 264.255 257.933C264.449 257.806 265.184 257.489 265.889 257.228C267.058 256.794 267.33 256.753 268.999 256.75C270.621 256.746 270.958 256.795 271.972 257.167C273.935 257.888 275.667 259.479 276.076 260.938L276.266 261.617L277.434 261.563C278.348 261.52 278.522 261.543 278.232 261.668C278.029 261.756 277.526 261.877 277.115 261.937L276.369 262.046L276.294 263.333C276.252 264.042 276.186 264.674 276.146 264.738C275.978 265.009 275.655 268.759 275.737 269.481C275.786 269.914 276.019 270.678 276.255 271.181C276.789 272.318 277.918 275.218 277.912 275.435C277.908 275.524 277.73 275.322 277.515 274.987C277.299 274.652 277.17 274.515 277.228 274.683C277.391 275.152 277.605 276.737 277.609 277.5C277.612 278.17 277.629 278.194 278.336 278.517C280.165 279.354 283.557 280.232 283.557 279.868ZM278.679 261.453C278.679 261.42 278.914 261.366 279.202 261.333C279.489 261.299 279.691 261.326 279.65 261.392C279.576 261.512 278.679 261.568 278.679 261.453ZM230.692 278.824C231.071 277.847 232.874 277.492 233.904 278.19L234.473 278.576V278.242C234.473 277.341 232.793 275.622 231.913 275.622C230.802 275.622 229.595 276.801 229.595 277.884C229.595 278.398 229.881 279.141 230.262 279.617C230.404 279.795 230.441 279.782 230.48 279.541C230.506 279.381 230.601 279.058 230.692 278.824ZM275.558 275.444C275.448 275.025 275.171 274.169 274.942 273.541C274.712 272.913 274.367 271.954 274.174 271.409L273.823 270.42L273.908 271.567C273.979 272.539 273.943 272.811 273.673 273.34C273.498 273.683 273.167 274.101 272.938 274.267L272.523 274.57L273.047 274.681C273.731 274.825 274.914 275.464 275.343 275.92C275.53 276.118 275.699 276.263 275.72 276.243C275.741 276.222 275.668 275.862 275.558 275.444ZM262.521 274.453C265.872 273.637 269.267 271.889 270.319 270.438C271.207 269.214 270.69 268.498 269.346 269.091C268.769 269.346 265.628 271.298 265.188 271.675C265.104 271.747 264.933 271.851 264.807 271.907C264.681 271.963 264.236 272.214 263.816 272.465C262.76 273.097 261.864 273.519 260.615 273.972C259.703 274.303 259.283 274.361 257.719 274.369C255.982 274.378 255.844 274.355 254.975 273.922C254.085 273.477 254.059 273.447 254.013 272.797C253.971 272.217 254.03 272.062 254.458 271.62C254.953 271.111 255.604 270.845 257.185 270.51C260.545 269.797 263.747 268.659 263.961 268.102C264.011 267.971 263.934 267.732 263.789 267.572C263.429 267.175 262.991 267.306 261.682 268.201C261.095 268.602 260.375 269.037 260.082 269.167C258.056 270.065 254.746 270.324 254.746 269.584C254.746 269.231 256.55 267.541 258.306 266.249C259.822 265.133 262.153 263.91 263.588 263.479C264.492 263.208 267.102 262.893 268.491 262.888C269.218 262.884 269.921 262.841 270.054 262.791C270.371 262.669 270.354 262.19 270.005 261.422C269.789 260.947 269.575 260.74 269.104 260.552C268.549 260.33 268.398 260.328 267.6 260.531C266.292 260.862 263.112 262.513 261.682 263.604C261.458 263.775 259.526 265.04 258.557 265.65C257.42 266.366 256.058 266.994 255.644 266.994C255.457 266.994 255.191 266.892 255.052 266.766C254.828 266.563 254.681 266.576 253.708 266.881C252.354 267.304 252.229 267.612 253.494 267.409C254.192 267.297 254.494 267.317 254.942 267.503C255.254 267.633 255.509 267.807 255.509 267.889C255.509 268.089 253.931 268.669 253.388 268.669C253.149 268.669 252.872 268.768 252.771 268.89C252.619 269.073 252.682 269.151 253.133 269.339C253.441 269.467 253.679 269.675 253.679 269.813C253.679 270.023 253.505 270.052 252.498 270.011C251.568 269.973 251.317 270.007 251.317 270.175C251.317 270.291 251.42 270.436 251.545 270.497C251.671 270.558 252.168 270.787 252.651 271.007C253.516 271.401 253.755 271.746 253.286 271.926C252.846 272.095 252.392 272.019 251.583 271.643C251.062 271.401 250.782 271.335 250.781 271.455C250.781 271.555 250.743 271.775 250.7 271.942C250.644 272.156 250.724 272.297 250.968 272.416C251.16 272.51 252.009 272.938 252.855 273.368C254.709 274.311 255.551 274.596 256.957 274.76C258.451 274.933 261.165 274.784 262.521 274.453ZM229.998 274.063C230.656 273.931 231.573 273.681 232.034 273.507C232.495 273.333 233.352 273.147 233.939 273.094L235.006 272.997L234.32 272.882C233.75 272.787 233.353 272.858 231.969 273.306C230.838 273.673 230.019 273.845 229.412 273.845C228.597 273.845 228.507 273.812 228.373 273.459C228.119 272.791 228.608 272.016 229.595 271.524C230.384 271.13 230.537 271.108 232.215 271.143L233.998 271.181L233.686 270.85C233.514 270.667 233.412 270.457 233.459 270.381C233.505 270.305 232.878 270.156 232.065 270.049C231.251 269.942 229.906 269.69 229.077 269.49C228.247 269.29 227.437 269.126 227.278 269.126C226.981 269.126 226.314 269.773 226.166 270.205C226.121 270.338 226.359 270.972 226.696 271.615C227.033 272.257 227.308 272.974 227.308 273.209C227.308 273.557 227.427 273.696 227.956 273.967C228.733 274.364 228.537 274.355 229.998 274.063ZM280.867 274.109C281.139 273.91 282.031 272.416 282.73 270.99C283.077 270.283 283.102 270.127 282.947 269.658C282.788 269.178 282.716 269.125 282.211 269.125C280.873 269.125 278.687 268.226 277.65 267.249C276.868 266.512 277.045 266.985 278.102 268.46C278.414 268.895 279.09 269.546 279.604 269.906L280.539 270.561L280.118 270.923C279.808 271.189 279.562 271.269 279.188 271.225C278.908 271.193 278.679 271.178 278.679 271.193C278.679 271.263 279.193 272.482 279.526 273.202C279.731 273.644 279.898 274.073 279.898 274.154C279.898 274.367 280.555 274.336 280.867 274.109ZM247.427 273.084C247.586 272.943 248.066 272.142 248.569 271.178C249.082 270.195 249.39 269.283 249.752 267.679C249.866 267.177 250.024 266.781 250.104 266.801C250.335 266.857 250.366 268.052 250.163 269.049C249.953 270.08 248.94 272.244 248.367 272.887C248.159 273.121 247.855 273.462 247.692 273.645C247.396 273.977 247.396 273.978 247.721 273.893C248.127 273.787 249.049 272.731 249.358 272.018C249.485 271.725 249.686 271.26 249.805 270.985C249.924 270.71 250.021 270.426 250.021 270.353C250.021 270.281 250.312 269.615 250.667 268.874C251.177 267.813 251.314 267.355 251.315 266.715C251.319 265.7 251.056 265.471 249.895 265.471C248.921 265.471 247.957 265.22 247.447 264.834C247.247 264.682 246.927 264.558 246.735 264.558C245.938 264.558 244.948 266.119 244.129 268.669C243.571 270.405 243.625 270.294 243.46 270.035C243.176 269.586 243.416 267.823 243.926 266.613C244.4 265.489 244.584 265.072 244.721 264.806C244.831 264.593 244.821 264.55 244.681 264.637C244.391 264.816 243.217 267.428 243.006 268.364C242.547 270.399 242.222 270.958 242.12 269.887C241.969 268.308 243.154 265.257 244.492 263.778C244.993 263.225 245.005 263.188 244.685 263.188C244.338 263.188 242.856 264.592 242.856 264.921C242.856 264.961 242.656 265.426 242.411 265.956C241.417 268.105 241.18 268.941 241.18 270.291C241.18 272.008 241.378 272.323 242.458 272.323C243.044 272.323 243.385 272.419 243.804 272.703C245.222 273.666 246.14 272.909 247.495 269.658C247.635 269.323 247.814 268.93 247.894 268.785C247.974 268.64 248.039 268.394 248.039 268.239C248.039 268.085 248.088 267.909 248.148 267.85C248.208 267.79 248.417 267.385 248.612 266.949L248.968 266.157L248.881 267.543C248.777 269.189 248.293 270.784 247.337 272.623C246.63 273.984 246.442 274.592 247.007 273.693C247.191 273.4 247.38 273.126 247.427 273.084ZM273.115 264.824C273.115 261.874 273.295 260.447 273.752 259.766C274.055 259.314 273.997 258.988 273.562 258.703C272.929 258.289 271.847 258.027 270.454 257.949C269.738 257.909 269.323 257.91 269.533 257.953C270.623 258.166 271.684 258.826 272.027 259.505C272.162 259.772 272.268 260.774 272.33 262.352C272.382 263.692 272.524 265.302 272.645 265.93C272.844 266.961 273.041 267.758 273.095 267.757C273.106 267.757 273.115 266.438 273.115 264.826V264.824ZM240.565 267.308C240.785 266.896 240.761 266.689 240.492 266.689C240.059 266.689 238.872 266.037 238.628 265.665C238.42 265.348 238.416 265.273 238.599 265.16C238.875 264.99 239.39 265.116 240.324 265.582C240.923 265.881 241.095 265.914 241.198 265.751C241.41 265.417 241.368 265.355 240.494 264.71C239.592 264.045 239.417 263.644 240.028 263.644C240.232 263.644 240.442 263.713 240.494 263.797C240.621 264.001 241.18 263.991 241.18 263.784C241.18 263.694 240.94 263.259 240.647 262.818C240.075 261.956 239.796 261.056 240.101 261.056C240.511 261.056 241.145 261.542 241.778 262.343C242.234 262.92 242.502 263.146 242.606 263.041C242.711 262.937 242.662 262.775 242.456 262.542C242.012 262.041 241.7 261.495 241.581 261.011C241.523 260.778 241.409 260.628 241.326 260.679C240.535 261.167 239.683 259.167 239.053 255.346C238.242 250.418 237.276 247.369 236.252 246.5C235.593 245.941 235.158 245.895 234.307 246.293C233.253 246.786 233.302 247.06 234.693 248.481C235.906 249.721 237.279 251.667 237.818 252.91C237.999 253.329 238.209 253.808 238.283 253.976C238.357 254.143 238.599 255.034 238.82 255.955C239.142 257.293 239.24 258.158 239.31 260.256C239.396 262.87 239.395 262.883 239.069 262.883C238.701 262.883 237.691 261.915 237.082 260.98C236.864 260.645 236.636 260.334 236.576 260.289C236.286 260.074 235.761 258.527 235.452 256.977C235.264 256.031 235.026 255.158 234.925 255.035C234.681 254.742 234.072 254.751 233.957 255.051C233.86 255.302 234.079 256.471 234.306 256.912C234.379 257.056 234.675 257.653 234.963 258.239C235.625 259.588 236.133 260.502 237.105 262.093C237.709 263.08 237.893 263.534 237.945 264.155C238.003 264.851 237.959 265.014 237.6 265.44C237.093 266.042 236.735 266.055 235.582 265.516C233.637 264.606 232.072 262.394 231.08 259.153C230.952 258.734 230.766 257.98 230.666 257.478C230.566 256.975 230.415 256.256 230.33 255.879C230.245 255.502 230.115 254.817 230.04 254.357C229.682 252.145 229.295 251.134 228.77 251.032C227.964 250.875 227.616 252.173 227.923 254.19C228.648 258.944 231.99 263.976 235.768 266.005C235.936 266.095 236.416 266.291 236.835 266.441C237.255 266.59 237.735 266.776 237.902 266.853C238.298 267.034 239.982 267.568 240.222 267.588C240.324 267.596 240.478 267.47 240.565 267.308ZM262.868 247.01C267.527 237.694 271.478 229.73 271.649 229.311C271.82 228.892 272.149 227.899 272.38 227.103C272.757 225.806 272.801 225.414 272.805 223.297C272.809 221.218 272.768 220.815 272.458 219.918C271.321 216.633 268.618 214.621 265.341 214.622C261.698 214.622 258.498 216.959 256.383 221.165C255.52 222.881 255.144 223.808 255.369 223.669C255.446 223.622 255.51 223.673 255.512 223.783C255.516 223.892 255.627 223.742 255.762 223.449C257.082 220.602 257.935 219.235 259.203 217.942C260.212 216.913 261.087 216.324 262.444 215.76C263.456 215.34 263.627 215.317 265.729 215.316C267.923 215.316 267.954 215.32 268.777 215.783C270.26 216.618 270.515 217.694 269.368 218.278C268.667 218.636 268.154 218.653 267.156 218.35C264.996 217.696 262.697 218.313 261.058 219.987C260.238 220.825 259.114 222.481 258.605 223.601C258.442 223.961 257.923 225.144 257.637 225.809C257.565 225.976 257.403 226.422 257.277 226.799C257.152 227.175 256.917 227.826 256.757 228.245C256.596 228.664 256.178 229.794 255.827 230.757C255.476 231.72 255.119 232.677 255.033 232.882C254.646 233.81 254.266 235.048 254.345 235.127C254.461 235.243 255.309 234.894 255.957 234.463C256.246 234.272 256.51 234.143 256.544 234.177C256.624 234.257 255.846 236.424 255.698 236.535C255.635 236.581 255.488 236.807 255.369 237.036C255.085 237.587 253.584 239.09 252.999 239.411C252.553 239.655 252.657 239.667 255.89 239.74C257.93 239.787 259.124 239.867 258.938 239.945C258.123 240.29 257.581 240.611 257.232 240.956L256.85 241.335L257.284 241.509C257.523 241.605 257.932 241.729 258.192 241.785C258.648 241.883 258.679 241.856 259.012 241.08C259.202 240.636 259.493 239.965 259.659 239.588C259.824 239.211 260.02 238.766 260.093 238.598C260.238 238.265 260.719 237.05 261.176 235.858C263.153 230.705 264.025 225.974 263.603 222.699C263.429 221.357 263.454 221.172 263.775 221.431C264.034 221.64 266.043 222.431 267.114 222.745C267.587 222.883 268.839 223.041 269.896 223.094L271.819 223.191L271.814 224.043C271.798 226.485 269.856 231.435 265.393 240.407C264.35 242.505 264.079 243.175 264.21 243.334C264.343 243.494 264.296 243.578 263.998 243.713C263.742 243.83 263.379 244.347 262.901 245.278C261.958 247.109 260.98 248.982 259.749 251.312C259.196 252.358 258.419 253.831 258.022 254.585C257.626 255.339 256.94 256.641 256.498 257.478C256.057 258.315 255.237 259.891 254.676 260.98C254.116 262.068 253.601 263.017 253.533 263.087C253.43 263.192 251.041 261.962 250.783 261.672C250.741 261.625 250.442 261.45 250.119 261.283C249.795 261.116 249.498 260.898 249.458 260.799C249.418 260.699 250.077 259.26 250.923 257.601C251.768 255.942 252.46 254.551 252.46 254.509C252.459 254.467 251.516 254.429 250.364 254.425C248.661 254.419 248.172 254.367 247.759 254.148C247.271 253.889 247.242 253.889 247.04 254.155C246.924 254.308 246.827 254.549 246.825 254.69C246.821 254.832 246.759 254.985 246.684 255.031C246.61 255.077 246.502 255.302 246.444 255.53C246.387 255.759 246.167 256.324 245.955 256.788C245.744 257.251 245.474 257.846 245.357 258.11C245.239 258.374 245.143 258.973 245.143 259.442V260.295H246.004C247.249 260.295 248.24 260.832 249.678 262.287C250.695 263.316 250.976 263.514 251.698 263.706C252.159 263.828 252.955 263.933 253.467 263.939L254.398 263.948L262.868 247.01ZM227.308 261.524C227.308 261.446 227.222 261.292 227.118 261.181C227.013 261.07 226.521 260.158 226.025 259.153C224.892 256.861 224.34 255.999 223.402 255.057C222.371 254.023 221.595 253.705 219.91 253.626C218.639 253.567 218.459 253.597 217.548 254.011C216.3 254.578 215.678 255.104 215.278 255.931C214.91 256.69 214.878 257.498 215.176 258.479C215.409 259.246 216.135 260.706 216.349 260.838C216.425 260.884 216.486 260.326 216.487 259.58C216.491 258.115 216.851 257.032 217.573 256.338C218.242 255.695 219.742 255.118 220.744 255.118C222.899 255.118 224.111 256.108 225.779 259.229C227.011 261.535 227.308 261.981 227.308 261.524ZM261.918 258.305C261.976 258.211 262.107 257.507 262.21 256.74C262.437 255.047 262.708 253.979 263.233 252.711C263.529 251.994 263.586 251.706 263.457 251.577C263.236 251.356 263.083 251.554 261.963 253.519C261.486 254.357 260.658 255.752 260.123 256.62C259.588 257.488 259.172 258.218 259.197 258.243C259.562 258.6 261.705 258.648 261.918 258.305ZM265.569 256.292C266.852 255.885 268.082 255.592 269.533 255.347C270.329 255.212 271.273 255.037 271.631 254.958C271.988 254.878 272.454 254.814 272.665 254.814C273.201 254.814 274.106 254.412 274.107 254.174C274.107 253.859 275.124 251.965 275.796 251.027C276.87 249.527 279.774 246.724 279.954 247.015C279.997 247.085 279.495 247.696 278.838 248.374C277.063 250.205 275.75 252.316 275.402 253.898C275.303 254.349 275.321 254.391 275.575 254.29C275.731 254.229 276.922 254.093 278.222 253.988C279.847 253.857 280.764 253.713 281.16 253.525C281.898 253.176 282.858 252.085 283.373 251.011C283.595 250.548 283.802 250.118 283.832 250.056C283.862 249.993 283.613 249.941 283.277 249.941C282.32 249.941 282.195 249.848 282.295 249.206C282.51 247.834 283.436 246.298 284.987 244.744C285.542 244.188 285.996 243.683 285.996 243.621C285.996 243.442 284.872 243.669 284.082 244.007C283.217 244.377 283.043 244.311 283.739 243.876C284.478 243.414 286.077 241.692 286.36 241.054C286.933 239.763 287.029 239.475 287.117 238.789C287.188 238.237 287.161 238.065 287.003 238.065C286.312 238.065 282.533 239.644 281.804 240.236C281.72 240.305 281.215 240.639 280.681 240.98C280.147 241.32 279.358 241.866 278.928 242.192C278.497 242.517 278.064 242.784 277.965 242.785C277.681 242.785 277.154 241.943 277.154 241.487C277.154 241.124 277.124 241.098 276.909 241.277C276.551 241.574 275.009 243.511 274.498 244.308C274.256 244.685 273.949 245.164 273.815 245.374C273.682 245.583 273.369 246.155 273.12 246.645C272.871 247.134 272.644 247.466 272.616 247.381C272.546 247.172 272.837 244.322 272.974 243.871L273.084 243.51L272.642 243.787C271.7 244.378 269.559 246.164 268.516 247.228C266.488 249.297 265.62 250.503 264.387 252.965C263.326 255.081 263.209 255.403 263.155 256.359L263.095 257.415L263.989 256.962C264.481 256.713 265.192 256.411 265.569 256.292ZM242.081 256.564C242.086 256.481 242.023 256.515 241.942 256.641C241.861 256.766 241.798 256.972 241.803 257.097C241.812 257.338 242.065 256.853 242.081 256.564ZM253.946 251.628C254.553 250.421 255.028 249.41 255 249.383C254.972 249.355 254.383 249.413 253.691 249.51C252.716 249.648 252.066 249.646 250.817 249.501C249.929 249.398 249.142 249.3 249.069 249.285C248.947 249.258 248.676 249.86 248.351 250.875C248.234 251.243 248.3 251.332 249.16 251.962C250.291 252.789 252.296 253.885 252.612 253.849C252.743 253.834 253.317 252.877 253.946 251.628ZM223.283 252.547C223.3 251.665 223.655 251.1 224.69 250.302C225.206 249.904 225.297 249.784 225.022 249.867C224.534 250.014 223.05 250.683 221.211 251.585L219.763 252.295L220.61 252.389C221.077 252.441 221.831 252.659 222.287 252.874C222.743 253.09 223.15 253.271 223.192 253.277C223.234 253.284 223.275 252.955 223.283 252.547ZM265.927 248.823C266.705 247.695 268.98 245.527 270.238 244.716C270.814 244.344 271.693 243.878 272.191 243.679L273.096 243.318L273.754 241.809C274.116 240.979 274.386 240.274 274.354 240.242C274.322 240.21 274.003 240.512 273.646 240.914L272.996 241.643L273.096 239.456C273.194 237.345 273.521 234.917 273.813 234.152C274.111 233.369 273.868 233.325 273.44 234.084C273.198 234.514 271.379 237.636 271.209 237.913C271.132 238.039 270.721 238.724 270.295 239.436C269.869 240.148 269.459 240.833 269.384 240.958C269.308 241.084 268.828 241.906 268.317 242.785C267.805 243.665 267.323 244.487 267.245 244.612C265.481 247.454 265.382 247.661 265.302 248.651C265.258 249.193 265.255 249.637 265.295 249.637C265.334 249.637 265.619 249.271 265.927 248.823ZM229.365 247.516C230.112 247.036 230.523 246.691 232.147 245.181C234.415 243.073 235.01 242.879 236.664 243.712L237.598 244.182L236.988 243.547C236.652 243.198 236.112 242.763 235.786 242.582C233.514 241.316 233.606 241.308 232.878 242.823C232.348 243.925 232.028 244.326 230.272 246.083C228.306 248.051 228.15 248.297 229.365 247.516ZM247.381 231.453C247.743 230.798 248.039 230.177 248.039 230.072C248.039 229.967 248.133 229.803 248.248 229.708C248.542 229.464 248.767 229.777 248.828 230.516L248.878 231.109L249.778 230.352C250.71 229.569 250.769 229.452 251.262 227.435C251.399 226.873 251.372 226.64 251.076 225.836C250.517 224.317 249.214 221.527 248.965 221.317C248.916 221.276 248.682 220.944 248.447 220.582C247.513 219.144 246.155 218.13 244.61 217.718C243.645 217.461 242.934 217.463 241.423 217.729C239.46 218.074 238.436 217.713 238.436 216.675C238.436 216.22 238.707 215.867 239.533 215.246C240.296 214.671 243.363 214.44 245.008 214.833C246.533 215.198 248.226 216.192 249.348 217.383C250 218.076 251.018 219.438 251.373 220.094C251.806 220.895 252.295 221.873 252.482 222.31L252.674 222.764L252.728 222.282C252.764 221.963 252.623 221.486 252.313 220.871C251.795 219.847 250.84 218.31 250.524 217.993C250.412 217.881 250.141 217.553 249.92 217.264C249.278 216.422 247.264 215.003 246.036 214.526C245.024 214.133 244.743 214.091 243.161 214.101C241.655 214.111 241.279 214.166 240.491 214.492C238.143 215.465 236.519 217.39 235.832 220.018C235.413 221.62 235.606 224.87 236.249 227.027C236.483 227.813 236.568 228.044 236.932 228.901L237.146 229.405L237.505 228.919C237.863 228.436 237.863 228.427 237.609 227.578C236.916 225.259 236.607 223.88 236.607 223.106V222.535L238.169 222.531C240.251 222.528 240.357 222.49 240.826 221.565C241.043 221.138 241.446 220.548 241.722 220.253C241.998 219.958 242.351 219.556 242.507 219.36L242.79 219.004L242.96 219.36C243.355 220.188 243.619 220.839 243.619 220.987C243.619 221.285 243.849 221.287 244.446 220.997C244.774 220.838 245.07 220.735 245.104 220.769C245.138 220.802 245.092 221.093 245.003 221.415C244.768 222.258 244.806 225.902 245.065 227.329C245.186 227.999 245.287 228.635 245.29 228.741C245.294 228.884 245.395 228.87 245.676 228.686C246.045 228.444 246.185 228.092 246.488 226.644L246.631 225.959L246.645 226.949C246.658 227.943 246.329 230.6 246.131 231.098C246.001 231.426 246.373 232.756 246.576 232.689C246.657 232.662 247.019 232.105 247.381 231.451L247.381 231.453Z" fill="Currentcolor"/>

</svg>
