<svg  viewBox="0 0 1180 580" fill="currentcolor" xmlns="http://www.w3.org/2000/svg">
<path d="M203.007 314.463L203.924 309.859H201.493L201.998 307.271H204.428L205.345 302.69H202.915L203.442 300.124H206.377C206.897 300.124 207.387 300.376 207.845 300.88C208.304 301.384 208.48 301.896 208.373 302.415L207.547 306.469C207.333 307.538 206.63 308.172 205.437 308.37L205.392 308.531C206.523 308.729 206.981 309.363 206.767 310.432L205.919 314.692C205.797 315.242 205.414 315.776 204.772 316.295C204.13 316.799 203.534 317.051 202.984 317.051H200.048L200.576 314.463H203.007ZM199.911 300.124H202.846L199.452 317.051H196.517L199.911 300.124Z" fill="currentcolor"/>
<path d="M219.659 300.124H222.595L219.201 317.051H216.265L219.659 300.124ZM213.904 309.378H211.473L212 306.79H214.958C215.509 306.79 215.998 307.049 216.426 307.568C216.869 308.072 217.038 308.599 216.931 309.149L215.83 314.692C215.708 315.242 215.325 315.776 214.683 316.295C214.041 316.799 213.445 317.051 212.895 317.051H209.936L210.464 314.463H212.895L213.904 309.378ZM209.799 300.124H212.734L209.34 317.051H206.405L209.799 300.124Z" fill="currentcolor"/>
<path d="M229.496 317.051H226.538L229.932 300.124H232.89L229.496 317.051ZM223.717 300.124H229.359L228.831 302.69H226.125L223.259 317.051H220.323L223.717 300.124Z" fill="currentcolor"/>
<path d="M231.669 314.463H233.917L239.581 300.124H242.723L236.531 314.646C236.286 315.211 235.858 315.753 235.247 316.272C234.65 316.792 234.085 317.051 233.55 317.051H231.142L231.669 314.463ZM236.233 300.124L236.256 307.11L233.71 313.501L233.091 300.124H236.233Z" fill="currentcolor"/>
<path d="M251.602 302.484L250.868 306.125H247.91L248.598 302.69H245.915L246.442 300.124H249.63C250.18 300.124 250.67 300.384 251.098 300.903C251.541 301.407 251.709 301.934 251.602 302.484ZM245.365 300.124H245.846L242.452 317.051H241.971C241.42 317.051 240.924 316.799 240.48 316.295C240.037 315.776 239.876 315.242 239.999 314.692L242.429 302.484C242.536 301.934 242.911 301.407 243.553 300.903C244.21 300.384 244.814 300.124 245.365 300.124ZM246.236 317.051H243.048L243.576 314.463H246.259L247.085 310.248H250.043L249.171 314.692C249.064 315.226 248.682 315.761 248.025 316.295C247.368 316.83 246.771 317.082 246.236 317.051Z" fill="currentcolor"/>
<path d="M253.202 300.124H256.137L252.743 317.051H249.808L253.202 300.124ZM256.733 317.051L254.853 309.492L255.22 307.683L259.623 300.124H262.466L257.696 308.049L259.714 317.051H256.733Z" fill="currentcolor"/>
<path d="M201.05 261.79H195.275L194.28 266.811H188.356L189.451 261.342C189.717 260.116 190.53 258.955 191.89 257.862C193.284 256.735 194.595 256.171 195.823 256.171H202.195L201.05 261.79ZM185.17 280.435L201.05 268.154L203.439 256.171H204.485C205.679 256.171 206.741 256.735 207.67 257.862C208.633 258.989 208.998 260.149 208.765 261.342L206.924 270.64L190.944 283.418L190.447 286.053H184.075L185.17 280.435ZM182.681 292.965L183.826 287.346H203.589L202.443 292.965H182.681Z" fill="currentcolor"/>
<path d="M219.609 287.346L224.686 261.79H218.962L220.107 256.171H226.877C228.071 256.171 229.134 256.735 230.063 257.862C231.025 258.989 231.39 260.149 231.158 261.342L225.881 287.843C225.616 289.037 224.786 290.197 223.392 291.324C221.998 292.418 220.704 292.965 219.509 292.965H212.739L213.884 287.346H219.609ZM217.767 256.171H218.813L211.445 292.965H210.4C209.205 292.965 208.126 292.418 207.164 291.324C206.202 290.197 205.853 289.037 206.119 287.843L211.395 261.342C211.628 260.149 212.441 258.989 213.834 257.862C215.262 256.735 216.572 256.171 217.767 256.171Z" fill="currentcolor"/>
<path d="M245.74 261.79H239.965L238.969 266.811H233.046L234.141 261.342C234.406 260.116 235.22 258.955 236.58 257.862C237.974 256.735 239.285 256.171 240.513 256.171H246.884L245.74 261.79ZM229.86 280.435L245.74 268.154L248.129 256.171H249.174C250.369 256.171 251.431 256.735 252.36 257.862C253.323 258.989 253.688 260.149 253.455 261.342L251.614 270.64L235.634 283.418L235.137 286.053H228.764L229.86 280.435ZM227.371 292.965L228.516 287.346H248.278L247.133 292.965H227.371Z" fill="currentcolor"/>
<path d="M255.786 280.236H262.855L261.859 285.258H249.813L251.057 279.142L267.435 257.464L265.443 267.259L255.786 280.236ZM268.978 256.171H275.35L270.521 280.236H273.906L272.91 285.258H269.526L267.982 292.965H261.611L268.978 256.171Z" fill="currentcolor"/>
<path d="M215.841 247.839C215.645 247.659 215.592 247.562 215.592 247.373C215.592 246.9 215.734 246.846 217.484 246.651C222.187 246.125 231.801 245.839 236.919 246.073C241.315 246.273 246.598 246.68 247.046 246.852C247.362 246.974 247.485 247.12 247.485 247.376C247.485 247.638 247.192 247.969 246.893 248.044C246.799 248.068 246.309 248.038 245.804 247.976C244.444 247.811 241.756 247.587 239.653 247.462C236.957 247.302 235.287 247.26 231.653 247.26C226.689 247.26 224.645 247.347 218.995 247.802C218.531 247.839 217.803 247.914 217.378 247.968C216.23 248.115 216.133 248.107 215.841 247.839ZM246.371 246.007C244.266 245.772 243.546 245.698 242.839 245.643C242.418 245.611 242.059 245.57 242.041 245.551C242.022 245.533 242.111 245.371 242.239 245.191C242.719 244.515 242.815 243.715 242.495 243.056C242.409 242.878 242.354 242.717 242.373 242.698C242.404 242.667 243.607 242.804 246 243.112C247.019 243.244 248.312 243.476 248.43 243.549C248.546 243.62 248.464 243.896 247.939 245.201C247.528 246.222 247.667 246.151 246.371 246.007ZM215.469 245.952C215.321 245.804 214.657 244.025 214.648 243.752C214.64 243.516 214.64 243.516 215.046 243.435C216.088 243.226 220.447 242.684 220.518 242.755C220.536 242.773 220.469 242.962 220.371 243.176C220.063 243.849 220.21 244.643 220.758 245.266C220.907 245.436 220.94 245.513 220.875 245.535C220.825 245.552 220.313 245.599 219.738 245.639C219.162 245.678 218.327 245.753 217.881 245.805C217.436 245.857 216.813 245.918 216.497 245.942C216.182 245.965 215.844 245.999 215.746 246.017C215.64 246.038 215.529 246.011 215.469 245.952ZM237.594 245.3C237.186 245.273 236.001 245.229 234.962 245.201C233.922 245.174 233.06 245.142 233.047 245.13C233.033 245.117 233.145 244.939 233.294 244.731C233.777 244.057 233.831 243.316 233.445 242.633C233.332 242.433 233.24 242.239 233.24 242.202C233.24 242.159 233.551 242.134 234.067 242.135C235.012 242.135 239.106 242.372 239.161 242.428C239.181 242.448 239.06 242.601 238.892 242.769C238.45 243.211 238.269 243.616 238.274 244.16C238.274 244.484 238.318 244.682 238.429 244.894C238.583 245.19 238.581 245.378 238.422 245.359C238.374 245.353 238.001 245.326 237.593 245.3L237.594 245.3ZM224.328 245.281C224.328 245.258 224.397 245.109 224.48 244.951C224.808 244.327 224.617 243.404 224.023 242.747C223.884 242.593 223.783 242.454 223.799 242.437C223.842 242.395 228.435 242.133 229.139 242.133C229.78 242.133 229.816 242.159 229.593 242.472C229.099 243.165 229.158 244.136 229.733 244.79C229.859 244.934 229.926 245.064 229.891 245.097C229.858 245.128 228.934 245.173 227.839 245.195C226.744 245.218 225.506 245.255 225.088 245.279C224.67 245.303 224.328 245.303 224.328 245.279V245.281ZM221.929 244.973C221.213 244.648 221.006 243.848 221.513 243.363C221.975 242.921 222.747 242.936 223.258 243.397C223.655 243.755 223.722 244.19 223.456 244.686C223.254 245.062 222.457 245.213 221.929 244.973ZM239.822 244.973C239.473 244.758 239.363 244.582 239.33 244.192C239.292 243.732 239.472 243.407 239.88 243.197C240.263 243.001 240.883 242.992 241.206 243.18C241.894 243.578 241.797 244.597 241.037 244.964C240.674 245.14 240.099 245.144 239.822 244.973ZM230.911 244.5C230.558 244.338 230.431 244.187 230.329 243.807C230.214 243.377 230.344 243.049 230.733 242.774C230.987 242.596 231.081 242.57 231.474 242.571C231.991 242.571 232.292 242.712 232.502 243.05C232.674 243.328 232.675 243.848 232.502 244.129C232.231 244.572 231.459 244.752 230.909 244.5H230.911ZM214.018 242.706C213.747 242.589 213.528 242.242 213.526 241.93C213.522 241.092 212.83 239.596 211.687 237.951C210.744 236.595 210.68 236.471 210.416 235.511C209.844 233.43 209.855 233.496 209.853 232.186C209.853 231.059 209.864 230.933 210.028 230.433C210.296 229.613 210.54 229.197 211.06 228.676C211.716 228.019 212.302 227.753 213.29 227.663C214.073 227.591 214.899 227.773 216.042 228.268C216.181 228.328 216.295 228.35 216.295 228.317C216.295 228.283 216.158 228.104 215.991 227.918C215.78 227.684 215.501 227.484 215.082 227.268C214.403 226.918 214.269 226.775 214.269 226.401C214.269 226.058 214.357 225.911 214.615 225.821C215.116 225.646 216.002 226.114 216.919 227.038C217.281 227.403 217.596 227.702 217.619 227.702C217.642 227.702 217.642 227.573 217.619 227.415C217.596 227.257 217.623 226.84 217.676 226.488C217.902 225.039 218.424 224.348 219.086 224.624C219.581 224.831 219.709 225.376 219.38 225.872C219.1 226.296 218.98 226.864 219.006 227.637C219.019 228 219.054 228.322 219.083 228.352C219.155 228.423 219.263 228.247 219.264 228.056C219.264 227.974 219.36 227.609 219.477 227.247C220.198 224.996 221.615 223.254 223.294 222.551C223.71 222.377 224.69 222.172 225.105 222.172C225.55 222.172 226.523 222.385 227.015 222.589C227.734 222.888 228.423 223.372 229.096 224.048C229.738 224.694 229.76 224.663 229.308 223.757C228.682 222.5 228.093 221.842 227.252 221.457C226.9 221.296 226.737 221.179 226.661 221.032C226.328 220.388 226.83 219.699 227.503 219.88C227.897 219.986 228.907 220.69 229.269 221.111C229.63 221.53 230.108 222.207 230.339 222.627C230.637 223.168 230.682 222.95 230.476 221.961C230.202 220.645 229.88 219.964 229.209 219.286C228.675 218.745 228.578 218.513 228.715 218.098C228.815 217.797 229.077 217.587 229.354 217.587C229.838 217.587 230.513 218.255 231.071 219.288C231.206 219.538 231.347 219.742 231.384 219.742C231.421 219.741 231.536 219.552 231.639 219.321C231.897 218.743 232.461 218.012 232.827 217.78C233.249 217.512 233.527 217.523 233.821 217.816C234.023 218.018 234.05 218.087 234.05 218.397C234.05 218.745 234.046 218.752 233.551 219.229C233.05 219.713 232.88 219.975 232.636 220.635C232.31 221.52 232.034 223 232.216 222.888C232.258 222.861 232.413 222.636 232.559 222.388C233.315 221.102 234.089 220.327 234.936 220.005C235.629 219.742 236.079 219.905 236.183 220.459C236.261 220.874 236.072 221.138 235.485 221.436C234.826 221.77 234.596 221.956 234.219 222.457C233.881 222.905 233.069 224.452 233.137 224.519C233.159 224.541 233.398 224.332 233.669 224.056C234.532 223.178 235.635 222.548 236.738 222.305C237.444 222.149 237.793 222.141 238.46 222.269C240.607 222.679 242.354 224.464 243.256 227.169C243.385 227.555 243.515 227.971 243.546 228.094C243.655 228.521 243.738 228.354 243.758 227.671C243.782 226.847 243.704 226.466 243.386 225.841C243.147 225.369 243.143 225.35 243.239 225.097C243.434 224.587 244.034 224.388 244.395 224.715C244.776 225.059 245.076 225.964 245.159 227.018C245.189 227.401 245.236 227.633 245.283 227.632C245.325 227.632 245.45 227.507 245.561 227.356C246.04 226.705 247.081 225.914 247.637 225.777C247.962 225.697 248.284 225.798 248.396 226.015C248.633 226.472 248.427 227.035 247.977 227.157C247.46 227.298 246.472 228.095 246.472 228.372C246.472 228.47 246.448 228.478 247.155 228.145C248.893 227.326 250.579 227.496 251.701 228.604C252.188 229.085 252.457 229.532 252.764 230.368C252.984 230.97 252.985 230.975 252.983 232.219C252.983 233.365 252.966 233.527 252.791 234.209C252.686 234.617 252.469 235.239 252.31 235.591C252.15 235.943 251.924 236.48 251.808 236.785C251.671 237.142 251.366 237.679 250.947 238.3C250.59 238.829 250.184 239.509 250.045 239.81C249.789 240.363 249.241 242.005 249.241 242.217C249.241 242.28 249.157 242.425 249.055 242.539C248.799 242.825 248.512 242.849 247.38 242.679C244.984 242.32 242.433 242.019 240.194 241.833C238.289 241.674 237.067 241.586 236.886 241.596C236.793 241.602 236.246 241.572 235.671 241.533C234.295 241.438 229.163 241.439 227.536 241.533C226.83 241.574 226.192 241.605 226.118 241.603C225.884 241.597 223.807 241.73 222.506 241.834C220.579 241.989 216.607 242.472 215.384 242.7C214.71 242.826 214.298 242.828 214.018 242.706ZM218.161 240.413C218.869 240.203 219.411 239.605 219.687 238.727C219.908 238.022 219.894 236.711 219.654 235.684C219.352 234.389 218.716 233.004 218.254 232.633C218.108 232.516 217.876 232.25 217.738 232.042C216.983 230.907 215.695 230.766 215.423 231.789C215.228 232.522 215.639 233.119 216.574 233.464C217.551 233.824 217.923 234.042 218.412 234.537C219.033 235.166 219.265 235.538 219.265 235.903C219.265 236.131 219.229 236.216 219.087 236.328C218.808 236.547 218.508 236.512 218.261 236.231C218.146 236.1 218.008 235.908 217.953 235.802C217.751 235.412 217.145 234.945 216.585 234.748C215.438 234.346 214.968 234.024 214.499 233.318C214.237 232.924 213.999 232.221 213.999 231.84C213.999 231.543 214.242 230.789 214.404 230.584C214.478 230.49 214.706 230.302 214.91 230.166C215.115 230.031 215.282 229.892 215.282 229.857C215.282 229.752 214.794 229.539 214.35 229.452C213.539 229.293 212.694 229.526 212.248 230.033C211.618 230.75 211.347 231.99 211.527 233.336C211.792 235.322 212.729 237.268 214.085 238.643C215.578 240.158 216.976 240.765 218.161 240.413ZM246.49 240.287C247.199 240.019 247.86 239.552 248.635 238.77C250.171 237.22 251.09 235.278 251.331 233.075C251.5 231.523 250.967 230.145 250.008 229.656C249.711 229.505 249.599 229.489 248.869 229.489C248.193 229.489 248.015 229.511 247.792 229.624C247.646 229.698 247.515 229.793 247.502 229.835C247.488 229.877 247.628 230.004 247.811 230.116C247.995 230.229 248.224 230.407 248.322 230.512C248.582 230.79 248.767 231.343 248.767 231.837C248.767 233.089 248.075 234.052 246.843 234.514C245.621 234.972 245.235 235.243 244.813 235.936C244.68 236.155 244.515 236.364 244.446 236.401C244.217 236.523 243.911 236.478 243.727 236.294C243.58 236.147 243.558 236.078 243.589 235.847C243.638 235.488 244.002 234.968 244.613 234.388C245.063 233.962 245.174 233.895 245.935 233.598C247.108 233.14 247.425 232.826 247.432 232.116C247.439 231.48 247.078 231.102 246.479 231.112C245.956 231.122 245.427 231.488 245.021 232.122C244.897 232.316 244.69 232.554 244.561 232.653C244.124 232.985 243.427 234.597 243.159 235.895C242.898 237.155 243.02 238.649 243.444 239.358C243.767 239.9 244.284 240.313 244.818 240.455C245.186 240.553 246.004 240.471 246.49 240.287ZM227.036 239.646C228.027 239.264 228.978 238.301 229.61 237.041C230.218 235.828 230.262 235.384 229.838 234.746C229.364 234.034 228.631 233.67 227.67 233.671C227.218 233.671 227.068 233.701 226.748 233.857C226.164 234.143 225.815 234.674 225.767 235.352C225.742 235.714 225.76 235.8 225.946 236.114C226.352 236.805 227.202 237.173 227.704 236.875C228.223 236.567 228.375 236.523 228.628 236.607C228.897 236.695 229.084 237.032 229.016 237.304C228.861 237.922 227.497 238.341 226.55 238.062C225.846 237.853 224.998 237.061 224.656 236.293C224.338 235.58 224.433 234.524 224.878 233.826C225.443 232.939 226.36 232.445 227.577 232.374C228.129 232.342 228.301 232.358 228.724 232.487C229.27 232.653 229.682 232.868 230.108 233.211C230.461 233.495 230.539 233.492 230.539 233.194C230.539 232.987 230.51 232.942 230.315 232.861C229.872 232.676 229.793 232.385 230.032 231.818C230.608 230.452 230.228 228.668 229.276 228.266C228.399 227.895 227.309 228.777 227.627 229.6C227.713 229.824 228.074 230.1 228.36 230.161C228.553 230.201 228.608 230.177 228.847 229.932C229.076 229.699 229.158 229.657 229.393 229.657C229.76 229.657 229.922 229.753 230.042 230.039C230.222 230.469 229.984 230.916 229.392 231.265C229.124 231.423 229.016 231.444 228.48 231.444C227.986 231.444 227.815 231.416 227.564 231.292C226.599 230.817 226.137 229.904 226.296 228.784C226.369 228.269 226.57 227.898 226.984 227.517C227.378 227.154 227.691 227.001 228.328 226.86C228.636 226.792 228.852 226.71 228.852 226.661C228.852 226.524 228.326 225.808 227.917 225.388C227.394 224.851 227.011 224.579 226.455 224.353C226.027 224.18 225.907 224.162 225.172 224.162C224.405 224.162 224.339 224.173 223.923 224.372C222.855 224.883 222.097 225.715 221.443 227.095C221.215 227.575 220.953 228.333 220.953 228.511C220.953 228.61 221.038 228.623 221.611 228.618C222.085 228.614 222.368 228.646 222.619 228.734C223.604 229.077 224.341 230.195 224.341 231.347C224.341 231.937 224.18 232.269 223.478 233.135C222.819 233.946 222.689 234.248 222.698 234.942C222.705 235.348 222.678 235.512 222.598 235.601C222.335 235.891 221.727 235.775 221.531 235.398C221.395 235.134 221.392 234.332 221.524 233.816C221.671 233.254 221.836 232.97 222.329 232.433C223.08 231.616 223.187 231.245 222.858 230.597C222.416 229.725 221.356 229.686 220.893 230.523C220.771 230.744 220.721 230.976 220.677 231.516C220.647 231.903 220.604 232.247 220.584 232.28C220.536 232.356 220.776 233.768 220.956 234.472C221.653 237.201 223.251 239.212 225.137 239.735C225.651 239.878 226.54 239.836 227.034 239.645L227.036 239.646ZM237.908 239.705C238.521 239.513 238.978 239.228 239.564 238.673C240.89 237.415 241.597 235.977 242.083 233.548C242.253 232.7 242.264 232.423 242.167 231.522C242.048 230.421 241.683 229.927 240.99 229.927C240.47 229.927 240.104 230.18 239.893 230.684C239.658 231.247 239.782 231.657 240.39 232.321C241.113 233.11 241.356 233.702 241.367 234.703L241.375 235.4L241.155 235.597C240.896 235.827 240.559 235.859 240.33 235.673C240.201 235.569 240.179 235.474 240.159 234.965C240.13 234.217 239.965 233.85 239.35 233.164C238.363 232.061 238.213 231.233 238.782 230.022C239.017 229.523 239.509 229.043 240.044 228.793C240.389 228.632 240.508 228.612 241.156 228.613C241.555 228.613 241.882 228.595 241.882 228.571C241.882 228.421 241.502 227.414 241.281 226.976C240.433 225.299 239.276 224.286 238.033 224.133C236.847 223.987 235.809 224.396 234.786 225.413C234.336 225.861 233.848 226.516 233.848 226.673C233.848 226.722 233.931 226.758 234.044 226.758C234.321 226.758 235.004 226.98 235.352 227.183C235.735 227.408 236.186 227.902 236.368 228.297C236.484 228.547 236.514 228.737 236.513 229.219C236.513 229.747 236.486 229.874 236.322 230.197C235.923 230.983 235.3 231.409 234.472 231.464C233.9 231.501 233.497 231.379 233.128 231.055C232.673 230.656 232.578 230.217 232.871 229.87C233.179 229.504 233.545 229.527 233.928 229.936C234.153 230.175 234.502 230.195 234.836 229.989C235.13 229.807 235.198 229.673 235.198 229.269C235.198 228.99 235.162 228.898 234.961 228.663C234.542 228.175 233.761 228.028 233.321 228.356C232.569 228.917 232.27 230.35 232.676 231.444C233.002 232.324 232.979 232.616 232.564 232.827C232.328 232.947 232.295 232.993 232.295 233.199C232.295 233.328 232.322 233.434 232.354 233.434C232.386 233.434 232.561 233.316 232.742 233.173C233.175 232.83 233.524 232.658 234.127 232.492C235.543 232.099 237.019 232.572 237.839 233.681C238.26 234.249 238.391 234.689 238.358 235.423C238.334 235.957 238.303 236.082 238.098 236.468C237.821 236.988 237.186 237.644 236.714 237.897C236.052 238.252 235.141 238.265 234.475 237.927C233.876 237.624 233.681 237.17 233.984 236.786C234.208 236.5 234.477 236.487 234.883 236.739C235.334 237.02 235.634 237.06 236.015 236.891C236.659 236.605 237.1 236.032 237.109 235.471C237.116 235.056 236.833 234.437 236.498 234.131C236.145 233.808 235.468 233.608 234.871 233.651C234.044 233.71 233.248 234.238 232.874 234.975C232.655 235.405 232.656 235.624 232.874 236.15C233.68 238.076 234.656 239.219 235.88 239.673C236.449 239.884 237.291 239.898 237.906 239.705H237.908ZM245.798 226.032C245.268 225.765 245.157 225.101 245.527 224.407C245.756 223.978 246.957 222.644 247.115 222.644C247.24 222.644 247.315 223.241 247.313 224.229C247.313 224.906 247.289 225.089 247.17 225.349C247.024 225.67 246.7 225.965 246.404 226.047C246.312 226.073 246.19 226.107 246.134 226.122C246.078 226.138 245.927 226.097 245.798 226.032ZM216.167 225.967C215.622 225.699 215.365 224.852 215.443 223.574C215.488 222.827 215.524 222.644 215.626 222.644C215.659 222.644 215.947 222.91 216.265 223.234C217.537 224.53 217.787 225.303 217.124 225.885C216.86 226.117 216.528 226.145 216.167 225.967ZM230.978 217.886C230.655 217.718 230.425 217.462 230.265 217.091C230.057 216.608 230.114 215.934 230.444 214.968C230.693 214.24 231.336 212.867 231.429 212.867C231.511 212.867 232.42 214.806 232.581 215.323C232.682 215.65 232.729 215.98 232.731 216.373C232.731 216.884 232.713 216.982 232.542 217.272C232.184 217.881 231.492 218.152 230.978 217.886Z" fill="currentcolor"/>
<path d="M187.137 223.892C187.1 223.872 187.041 223.863 186.956 223.851C186.8 223.829 186.102 223.951 185.404 224.122C180.576 225.302 177.738 227.216 176.52 230.116C176.166 230.96 175.877 232.263 175.961 232.639C176.014 232.877 176.085 232.928 176.485 233.012C177.156 233.154 178.464 233.075 179.465 232.832C181.826 232.258 183.659 230.752 185.204 228.117C185.942 226.856 186.98 224.786 187.127 224.279C187.201 224.023 187.22 223.935 187.137 223.892Z" fill="currentcolor"/>
<path d="M172.188 225.304C172.184 225.304 172.181 225.3 172.178 225.304C171.978 225.327 170.749 226.827 169.841 228.155C167.877 231.027 166.889 234.003 167.163 236.219C167.284 237.195 167.733 238.629 168.189 239.502C168.414 239.932 168.64 240.292 168.692 240.303C168.8 240.326 170.504 239.116 170.901 238.736C172.944 236.777 173.763 233.877 173.336 230.111C173.16 228.554 172.399 225.383 172.188 225.306V225.304Z" fill="currentcolor"/>
<path d="M177.947 242.996C177.701 242.88 175.201 243.274 173.601 243.687C171.026 244.351 169.042 245.441 168.035 246.744C167.454 247.495 166.762 248.793 166.463 249.692C166.315 250.136 166.304 250.271 166.405 250.426C166.664 250.823 168.628 251.026 169.938 250.791C171.386 250.531 173.073 249.672 174.129 248.658C174.797 248.015 176.015 246.478 176.788 245.303C177.466 244.271 178.047 243.137 177.964 243.009C177.96 243.003 177.955 242.999 177.947 242.996Z" fill="currentcolor"/>
<path d="M162.946 236.394C162.895 236.377 162.844 236.399 162.775 236.442C162.383 236.693 161.061 239.426 160.392 241.369C159.69 243.406 159.358 245.879 159.585 247.379C159.764 248.565 160.942 250.921 161.889 251.988C162.09 252.214 162.319 252.413 162.399 252.43C162.72 252.497 163.738 251.517 164.599 250.309C165.722 248.499 165.984 247.442 165.969 245.092C165.969 244.742 165.798 243.782 165.589 242.957C165.208 241.454 163.835 237.821 163.276 236.837C163.127 236.574 163.045 236.445 162.969 236.403C162.961 236.399 162.953 236.396 162.946 236.394Z" fill="currentcolor"/>
<path d="M173.064 251.332C172.888 251.218 171.255 251.844 169.794 252.584C168.448 253.266 165.836 255.052 165.036 255.838C163.833 257.018 163.108 258.569 162.699 260.835C162.51 261.884 162.48 262.288 162.571 262.598C162.681 262.976 162.716 263.003 163.156 263.045C163.413 263.07 164.059 262.976 164.592 262.837C167.453 262.089 169.42 260.705 170.655 258.57C171.461 257.174 172.167 255.308 172.875 252.701C173.173 251.601 173.198 251.418 173.064 251.332Z" fill="currentcolor"/>
<path d="M156.712 249.474C156.668 249.445 156.634 249.434 156.617 249.448C156.418 249.598 155.483 253.301 155.331 254.536C154.804 258.823 155.707 261.793 158.182 263.918C159.116 264.72 159.437 264.737 159.969 264.017C160.364 263.483 161.123 261.437 161.283 260.476C161.79 257.436 160.577 254.411 156.982 249.748C156.886 249.623 156.785 249.523 156.712 249.474Z" fill="currentcolor"/>
<path d="M169.162 263.566C168.824 263.497 166.075 265.587 164.453 267.147C163.177 268.374 161.905 270.339 161.33 271.971C161.061 272.734 161.004 273.054 160.978 273.937C160.942 275.124 161.122 277.028 161.31 277.457C161.461 277.804 161.527 277.82 162.121 277.656C163.418 277.297 165.668 275.869 166.665 274.771C167.865 273.45 168.369 272.164 168.936 268.982C169.504 265.794 169.594 263.654 169.162 263.566Z" fill="currentcolor"/>
<path d="M152.42 264.436C152.262 264.349 152.168 264.323 152.147 264.36C152.05 264.532 152.048 267.39 152.142 268.619C152.33 271.038 152.773 272.712 153.694 274.48C154.13 275.318 154.831 276.175 155.468 276.649C156.252 277.233 158.148 278.295 158.415 278.3C158.763 278.307 158.97 277.848 159.24 276.48C159.538 274.965 159.51 273.823 159.145 272.528C158.418 269.957 156.643 267.611 153.708 265.341C153.127 264.891 152.684 264.581 152.42 264.436Z" fill="currentcolor"/>
<path d="M170.049 273.679C169.846 273.679 168.607 274.819 167.03 276.463C165.724 277.825 164.133 279.978 163.438 281.324C162.948 282.273 162.849 282.595 162.547 284.214C162.238 285.874 162.222 286.138 162.363 287.17C162.53 288.397 162.778 290.732 163.074 291.161C163.335 291.541 163.873 291.043 165.809 289.704C168.138 288.092 169.054 286.939 169.826 284.65C170.233 283.443 170.592 280.82 170.608 278.944C170.628 276.53 170.351 273.84 170.065 273.682C170.062 273.679 170.056 273.678 170.049 273.679Z" fill="currentcolor"/>
<path d="M150.656 279.799C150.112 279.568 149.975 279.56 149.892 279.646C149.702 279.84 149.935 281.086 150.632 283.603C151.88 288.107 153.61 290.981 155.945 292.429C156.127 292.541 157.098 292.977 158.105 293.398C160.4 294.356 160.685 294.373 161.021 293.569C161.196 293.15 161.227 292.634 161.159 291.335C161.078 289.803 161.01 289.498 160.427 288.047C159.674 286.171 158.949 285.147 157.393 283.757C155.955 282.474 154.649 281.658 152.155 280.484C151.457 280.156 150.983 279.937 150.656 279.799Z" fill="currentcolor"/>
<path d="M169.768 288.801C169.517 288.808 169.192 289.219 168.643 290.205C167.89 291.555 166.894 294.067 166.567 295.441C166.235 296.834 166.193 298.786 166.471 299.888C166.822 301.28 167.709 302.94 168.511 303.707C168.658 303.847 168.791 304.72 168.887 304.727C169.274 304.758 170.771 302.314 171.5 300.963C172.263 299.55 172.546 297.044 172.174 294.998C171.876 293.365 170.246 288.991 169.872 288.822C169.839 288.808 169.804 288.8 169.768 288.801Z" fill="currentcolor"/>
<path d="M173.832 298.789C173.532 298.749 173.21 299.865 172.813 302.312C172.436 304.637 172.26 306.941 172.375 308.049C172.459 308.856 173.001 310.507 173.474 311.399C174.033 312.452 175.046 313.64 175.919 314.266C176.763 314.871 176.905 315.43 177.268 315.132C178.29 314.294 179.262 310.238 179.033 308.194C178.897 306.973 178.303 305.292 177.518 303.899C176.707 302.462 174.082 298.822 173.832 298.789Z" fill="currentcolor"/>
<path d="M181.368 308.368C181.187 308.285 181.065 308.265 181.002 308.309C180.843 308.42 180.803 309.895 180.912 311.59C181.098 314.483 181.568 316.459 182.481 318.187C183.052 319.268 184.252 320.746 185.041 321.339C185.641 321.79 187.806 322.758 188.15 322.729C188.494 322.701 188.692 322.198 188.922 320.765C189.534 316.949 188.277 314.102 184.519 310.798C182.972 309.437 181.909 308.619 181.368 308.368Z" fill="currentcolor"/>
<path d="M161.488 300.222C160.628 299.853 159.736 299.511 159.062 299.307C157.224 298.753 152.396 298.288 152.24 298.65C152.147 298.865 152.404 299.374 153.238 300.623C155.028 303.303 157.663 306.098 159.328 307.084C161.036 308.095 163.195 308.575 165.623 308.484C166.988 308.433 168.563 308.106 168.673 307.575C168.747 307.218 167.639 306.875 167.312 306.057C166.502 304.026 165.379 302.445 164.11 301.546C163.644 301.217 162.593 300.697 161.488 300.222Z" fill="currentcolor"/>
<path d="M171.705 313.448C170.155 312.77 168.38 312.46 166.434 312.536C163.847 312.636 159.421 313.402 159.259 313.778C159.196 313.923 159.339 314.149 159.735 314.53C160.628 315.389 162.781 317.082 164.027 317.905C166.124 319.289 168.293 320.071 170.54 320.252C172.142 320.382 173.051 320.219 175.28 319.404C176.659 318.9 178.015 318.057 177.967 317.892C177.855 317.51 175.627 316.46 174.89 315.682C173.981 314.722 172.911 313.974 171.705 313.448Z" fill="currentcolor"/>
<path d="M183.331 321.753C182.449 321.677 181.545 321.712 180.792 321.873C178.503 322.364 175.595 323.728 172.407 325.805C170.885 326.797 170.395 327.223 170.479 327.48C170.553 327.706 172.385 328.48 173.571 328.785C174.804 329.103 179.865 329.409 180.778 329.221C182.368 328.892 184.506 327.745 186.698 326.043C187.872 325.132 188.304 324.623 188.244 324.22C188.187 323.832 186.751 322.732 185.742 322.302C185.074 322.018 184.213 321.83 183.331 321.753Z" fill="currentcolor"/>
<path d="M184.94 236.48C184.912 236.448 184.859 236.419 184.783 236.379C184.644 236.305 183.947 236.181 183.233 236.103C178.292 235.56 174.97 236.389 172.831 238.697C172.21 239.369 171.492 240.494 171.441 240.876C171.409 241.118 171.459 241.19 171.806 241.406C172.388 241.769 173.644 242.141 174.667 242.255C177.083 242.524 179.321 241.736 181.676 239.788C182.802 238.856 184.486 237.266 184.797 236.84C184.955 236.625 185.004 236.548 184.94 236.48Z" fill="currentcolor"/>
<path d="M176.19 232.205C159.164 252.557 156.724 275.603 162.389 293.65C168.054 311.696 181.828 324.806 197.256 325.182L197.279 324.263C182.361 323.899 168.843 311.136 163.268 293.375C157.692 275.613 160.062 252.918 176.897 232.795L176.19 232.205Z" fill="currentcolor"/>
<path d="M269.691 223.892C269.728 223.872 269.787 223.863 269.872 223.851C270.028 223.829 270.726 223.951 271.424 224.122C276.252 225.302 279.089 227.216 280.308 230.116C280.661 230.96 280.951 232.263 280.866 232.639C280.813 232.877 280.742 232.928 280.343 233.012C279.672 233.154 278.364 233.075 277.363 232.832C275.002 232.258 273.169 230.752 271.624 228.117C270.886 226.856 269.848 224.786 269.701 224.279C269.627 224.023 269.608 223.935 269.691 223.892Z" fill="currentcolor"/>
<path d="M284.64 225.304C284.645 225.304 284.647 225.3 284.65 225.304C284.85 225.327 286.079 226.827 286.988 228.155C288.951 231.027 289.939 234.003 289.665 236.219C289.544 237.195 289.096 238.629 288.64 239.502C288.415 239.932 288.188 240.292 288.136 240.303C288.029 240.326 286.324 239.116 285.927 238.736C283.884 236.777 283.066 233.877 283.492 230.111C283.668 228.554 284.429 225.383 284.64 225.306V225.304Z" fill="currentcolor"/>
<path d="M278.881 242.996C279.127 242.88 281.627 243.274 283.227 243.687C285.802 244.351 287.786 245.441 288.793 246.744C289.374 247.495 290.066 248.793 290.365 249.692C290.513 250.136 290.524 250.271 290.423 250.426C290.164 250.823 288.2 251.026 286.89 250.791C285.442 250.531 283.755 249.672 282.699 248.658C282.031 248.015 280.813 246.478 280.04 245.303C279.362 244.271 278.78 243.137 278.864 243.009C278.868 243.003 278.873 242.999 278.881 242.996Z" fill="currentcolor"/>
<path d="M293.881 236.394C293.933 236.377 293.984 236.399 294.053 236.442C294.446 236.693 295.767 239.426 296.436 241.369C297.138 243.406 297.469 245.879 297.243 247.379C297.063 248.565 295.886 250.921 294.939 251.988C294.738 252.214 294.509 252.413 294.429 252.43C294.108 252.497 293.09 251.517 292.229 250.309C291.106 248.499 290.844 247.442 290.859 245.092C290.859 244.742 291.03 243.782 291.239 242.957C291.62 241.454 292.993 237.821 293.551 236.837C293.701 236.574 293.783 236.445 293.859 236.403C293.866 236.399 293.874 236.396 293.881 236.394Z" fill="currentcolor"/>
<path d="M283.764 251.332C283.939 251.218 285.573 251.844 287.034 252.584C288.38 253.266 290.992 255.052 291.792 255.838C292.995 257.018 293.72 258.569 294.129 260.835C294.319 261.884 294.348 262.288 294.257 262.598C294.146 262.976 294.112 263.003 293.672 263.045C293.415 263.07 292.769 262.976 292.236 262.837C289.375 262.089 287.408 260.705 286.173 258.57C285.367 257.174 284.661 255.308 283.953 252.701C283.655 251.601 283.63 251.418 283.764 251.332Z" fill="currentcolor"/>
<path d="M300.116 249.474C300.159 249.445 300.194 249.434 300.211 249.448C300.41 249.598 301.345 253.301 301.497 254.536C302.023 258.823 301.121 261.793 298.646 263.918C297.712 264.72 297.391 264.737 296.859 264.017C296.464 263.483 295.705 261.437 295.545 260.476C295.038 257.436 296.251 254.411 299.846 249.748C299.942 249.623 300.043 249.523 300.116 249.474Z" fill="currentcolor"/>
<path d="M287.666 263.566C288.004 263.497 290.754 265.587 292.375 267.147C293.651 268.374 294.923 270.339 295.498 271.971C295.767 272.734 295.824 273.054 295.851 273.937C295.886 275.124 295.706 277.028 295.519 277.457C295.367 277.804 295.302 277.82 294.708 277.656C293.41 277.297 291.16 275.869 290.163 274.771C288.963 273.45 288.459 272.164 287.892 268.982C287.324 265.794 287.234 263.654 287.666 263.566Z" fill="currentcolor"/>
<path d="M304.408 264.436C304.566 264.349 304.66 264.323 304.682 264.36C304.778 264.532 304.781 267.39 304.686 268.619C304.498 271.038 304.055 272.712 303.135 274.48C302.699 275.318 301.998 276.175 301.36 276.649C300.576 277.233 298.68 278.295 298.413 278.3C298.066 278.307 297.858 277.848 297.588 276.48C297.29 274.965 297.318 273.823 297.684 272.528C298.411 269.957 300.185 267.611 303.12 265.341C303.701 264.891 304.144 264.581 304.408 264.436Z" fill="currentcolor"/>
<path d="M286.779 273.679C286.982 273.679 288.221 274.819 289.797 276.463C291.104 277.825 292.694 279.978 293.39 281.324C293.88 282.273 293.979 282.595 294.281 284.214C294.589 285.874 294.606 286.138 294.465 287.17C294.298 288.397 294.05 290.732 293.754 291.161C293.492 291.541 292.955 291.043 291.019 289.704C288.69 288.092 287.774 286.939 287.002 284.65C286.595 283.443 286.236 280.82 286.22 278.944C286.2 276.53 286.477 273.84 286.762 273.682C286.766 273.679 286.773 273.678 286.779 273.679Z" fill="currentcolor"/>
<path d="M306.171 279.799C306.716 279.568 306.852 279.56 306.936 279.646C307.126 279.84 306.893 281.086 306.196 283.603C304.948 288.107 303.218 290.981 300.882 292.429C300.701 292.541 299.729 292.977 298.722 293.398C296.428 294.356 296.143 294.373 295.807 293.569C295.632 293.15 295.6 292.634 295.669 291.335C295.75 289.803 295.818 289.498 296.4 288.047C297.154 286.171 297.878 285.147 299.435 283.757C300.873 282.474 302.179 281.658 304.673 280.484C305.37 280.156 305.844 279.937 306.171 279.799Z" fill="currentcolor"/>
<path d="M287.059 288.801C287.311 288.808 287.636 289.219 288.185 290.205C288.938 291.555 289.933 294.067 290.261 295.441C290.593 296.834 290.635 298.786 290.357 299.888C290.006 301.28 289.119 302.94 288.316 303.707C288.17 303.847 288.037 304.72 287.941 304.727C287.554 304.758 286.057 302.314 285.327 300.963C284.565 299.55 284.282 297.044 284.654 294.998C284.952 293.365 286.581 288.991 286.956 288.822C286.989 288.808 287.023 288.8 287.059 288.801Z" fill="currentcolor"/>
<path d="M282.997 298.789C283.296 298.749 283.618 299.865 284.015 302.312C284.392 304.637 284.568 306.941 284.453 308.049C284.369 308.856 283.828 310.507 283.354 311.399C282.796 312.452 281.783 313.64 280.909 314.266C280.065 314.871 279.923 315.43 279.56 315.132C278.538 314.294 277.566 310.238 277.795 308.194C277.932 306.973 278.525 305.292 279.311 303.899C280.121 302.462 282.747 298.822 282.997 298.789Z" fill="currentcolor"/>
<path d="M275.46 308.368C275.641 308.285 275.763 308.265 275.826 308.309C275.985 308.42 276.025 309.895 275.916 311.59C275.73 314.483 275.26 316.459 274.347 318.187C273.777 319.268 272.576 320.746 271.787 321.339C271.187 321.79 269.022 322.758 268.678 322.729C268.334 322.701 268.137 322.198 267.907 320.765C267.294 316.949 268.551 314.102 272.309 310.798C273.856 309.437 274.919 308.619 275.46 308.368Z" fill="currentcolor"/>
<path d="M295.34 300.222C296.2 299.853 297.092 299.511 297.767 299.307C299.604 298.753 304.432 298.288 304.589 298.65C304.681 298.865 304.424 299.374 303.59 300.623C301.8 303.303 299.165 306.098 297.5 307.084C295.792 308.095 293.633 308.575 291.205 308.484C289.84 308.433 288.265 308.106 288.155 307.575C288.081 307.218 289.189 306.875 289.516 306.057C290.326 304.026 291.449 302.445 292.719 301.546C293.184 301.217 294.235 300.697 295.34 300.222Z" fill="currentcolor"/>
<path d="M285.123 313.448C286.674 312.77 288.448 312.46 290.395 312.536C292.981 312.636 297.407 313.402 297.569 313.778C297.632 313.923 297.489 314.149 297.093 314.53C296.201 315.389 294.047 317.082 292.801 317.905C290.704 319.289 288.535 320.071 286.289 320.252C284.686 320.382 283.777 320.219 281.548 319.404C280.169 318.9 278.813 318.057 278.862 317.892C278.974 317.51 281.201 316.46 281.938 315.682C282.847 314.722 283.918 313.974 285.123 313.448Z" fill="currentcolor"/>
<path d="M273.497 321.753C274.379 321.677 275.283 321.712 276.036 321.873C278.324 322.364 281.233 323.728 284.421 325.805C285.942 326.797 286.433 327.223 286.349 327.48C286.275 327.706 284.442 328.48 283.257 328.785C282.023 329.103 276.963 329.409 276.05 329.221C274.459 328.892 272.322 327.745 270.129 326.043C268.956 325.132 268.524 324.623 268.583 324.22C268.64 323.832 270.076 322.732 271.086 322.302C271.754 322.018 272.615 321.83 273.497 321.753Z" fill="currentcolor"/>
<path d="M271.888 236.48C271.916 236.448 271.969 236.419 272.045 236.379C272.184 236.305 272.881 236.181 273.595 236.103C278.536 235.56 281.858 236.389 283.997 238.697C284.618 239.369 285.336 240.494 285.386 240.876C285.418 241.118 285.369 241.19 285.022 241.406C284.44 241.769 283.184 242.141 282.161 242.255C279.745 242.524 277.507 241.736 275.152 239.788C274.026 238.856 272.342 237.266 272.03 236.84C271.873 236.625 271.824 236.548 271.888 236.48Z" fill="currentcolor"/>
<path d="M280.637 232.205L279.931 232.795C296.765 252.918 299.136 275.613 293.56 293.375C287.985 311.136 274.466 323.899 259.549 324.263L259.572 325.182C274.999 324.806 288.774 311.696 294.439 293.65C300.104 275.603 297.664 252.557 280.637 232.205Z" fill="currentcolor"/>

</svg>
