<svg  viewBox="0 0 1180 580" fill="currentcolor" xmlns="http://www.w3.org/2000/svg">
<path d="M248.481 210.769C247.039 211.014 245.861 211.967 244.795 212.906C242.808 214.731 241.112 216.887 239.88 219.289C239.578 219.982 239.328 220.702 238.937 221.353C236.278 226.429 233.317 231.343 230.156 236.122C229.672 236.995 229.333 237.94 228.818 238.797C228.336 240.898 228.73 242.349 228.81 243.312C228.875 243.629 228.958 244.122 228.952 244.482C228.958 245.469 228.909 246.458 228.773 247.437C228.624 248.57 228.428 249.695 228.224 250.819C227.871 251.427 227.489 252.122 227.649 252.849C227.879 253.518 228.632 253.779 229.275 253.854C230.956 254.013 232.653 253.697 234.228 253.113C234.423 252.538 235.048 252.948 235.487 252.796C236.568 252.691 237.632 252.126 238.186 251.169C238.949 249.97 239.069 248.516 239.235 247.14C239.2 246.672 239.384 246.214 239.807 245.978C240.552 245.312 241.125 244.321 240.966 243.293C240.79 242.014 239.843 241.002 238.811 240.306C237.278 239.255 235.38 238.754 233.527 238.893C232.851 239.107 232.281 239.646 231.543 239.656C231.132 239.595 230.987 239.1 231.11 238.751C231.486 237.731 232.108 236.781 232.983 236.117C233.498 235.7 234.167 235.36 234.846 235.531C235.312 235.701 235.724 235.992 236.183 236.179C237.481 236.758 238.944 237.173 240.368 236.877C241.514 236.643 242.527 235.937 243.215 235.001C244.263 233.66 244.834 232.026 245.321 230.416C245.432 229.973 245.531 229.489 245.877 229.161C246.357 228.559 246.813 227.803 246.651 227.003C246.388 226.112 245.51 225.626 244.728 225.248C243.779 224.791 242.748 224.493 241.874 223.889C241.469 223.521 241.993 222.736 242.475 223.109C243.751 223.593 245.088 223.991 246.461 224.03C247.528 224.072 248.654 223.723 249.366 222.896C249.983 222.21 250.281 221.317 250.498 220.438C250.749 219.656 251.195 218.917 251.209 218.075C251.238 217.632 251.091 217.163 250.712 216.901C249.8 216.225 248.497 216.484 247.621 215.736C247.346 215.645 247.145 214.897 247.589 215.074C247.812 215.329 248.599 215.442 248.511 214.933C248.313 214.392 247.862 213.984 247.663 213.448C247.609 212.858 248.317 213.015 248.654 213.156C249.228 213.215 249.482 213.741 249.594 214.239C249.822 214.817 250.142 215.428 250.715 215.724C251.206 215.907 251.611 215.398 251.55 214.936C251.554 214.289 251.164 213.734 250.782 213.244C250.586 212.832 250.604 212.35 250.377 211.946C250.119 211.344 249.58 210.793 248.887 210.772C248.752 210.762 248.617 210.768 248.481 210.768V210.769ZM276.765 211.907C276.642 211.907 276.52 211.91 276.397 211.92C274.675 212.043 273.126 212.965 271.833 214.054C270.126 215.49 268.725 217.357 268.063 219.502C267.961 219.961 267.89 220.447 267.587 220.826C266.878 222.013 266.92 223.572 267.62 224.754C268.481 226.415 269.974 227.602 271.357 228.81C271.62 229.137 272.13 229.295 272.188 229.757C272.345 230.001 272.896 229.722 273.178 229.664C274.916 229.129 276.319 227.852 277.403 226.432C279.166 224.114 280.224 221.302 280.631 218.43C280.781 217.18 280.812 215.898 280.562 214.66C280.317 213.889 279.734 213.281 279.137 212.761C278.466 212.226 277.622 211.919 276.765 211.907ZM249.113 216.932L249.099 217.014L249.087 217.078C249.007 217.423 248.818 217.786 248.467 217.914C248.508 217.518 248.686 217.043 249.113 216.932ZM245.956 217.687C246.014 217.683 246.072 217.683 246.13 217.693C246.525 217.863 246.099 218.343 245.819 218.066C245.521 218.056 245.346 217.615 245.782 217.701C245.84 217.697 245.898 217.691 245.956 217.687ZM247.334 218.769C247.382 218.764 247.433 218.769 247.487 218.784C248.025 218.871 247.668 219.796 247.217 219.448C246.818 219.284 246.995 218.802 247.334 218.769ZM239.66 227.035C240.161 227.174 239.215 227.48 239.251 227.062C239.386 227.039 239.523 227.029 239.66 227.035ZM238.412 227.176C238.851 227.379 239.168 227.757 239.517 228.079C239.72 228.472 240.242 228.44 240.608 228.345C240.993 228.299 241.516 227.852 241.817 228.283C242.05 229.037 241.948 229.845 242.079 230.618C242.089 231.193 241.36 230.921 241.121 230.659C240.151 230.017 239.391 229.104 238.755 228.142C238.635 227.873 238.139 227.417 238.412 227.176ZM293.171 228.295L292.854 228.338C290.514 228.762 288.471 230.181 286.894 231.912C285.11 233.869 283.765 236.33 283.524 238.997C283.378 240.764 283.98 242.64 285.332 243.83C285.829 244.313 286.467 244.618 286.972 245.092C287.472 245.491 288.113 245.795 288.767 245.687C289.482 245.415 289.917 244.749 290.46 244.251C292.79 241.807 294.971 239.158 296.45 236.104C297.095 234.724 297.603 233.185 297.361 231.646C297.154 230.557 296.42 229.589 295.427 229.093C294.731 228.689 293.948 228.479 293.171 228.295ZM243.432 228.338C243.503 228.334 243.564 228.356 243.607 228.409C243.702 228.836 242.809 229.137 242.819 228.706C242.927 228.556 243.22 228.344 243.432 228.338ZM266.332 229.287C266.205 229.281 266.078 229.281 265.95 229.287C264.68 229.385 263.63 230.275 262.934 231.286C261.183 233.761 260.444 236.775 258.806 239.314C258.577 239.653 258.326 239.978 258.068 240.297C258.592 240.615 259.194 240.782 259.709 241.12C261.208 241.91 262.668 242.928 264.393 243.13C264.993 243.187 265.606 243.084 266.157 242.841C267.079 240.849 268.638 239.265 269.913 237.506C270.736 236.413 271.535 235.241 271.844 233.888C272.005 233.032 271.741 232.06 271.026 231.52C270.369 230.947 269.561 230.594 268.842 230.112C268.077 229.67 267.221 229.329 266.332 229.287ZM291.549 230.473C291.586 230.469 291.624 230.469 291.663 230.473C291.896 230.495 292.125 230.629 291.862 230.847C291.455 230.919 291.01 231.274 290.598 231.019C290.249 230.604 290.99 230.43 291.307 230.483L291.391 230.487L291.447 230.491C291.477 230.482 291.512 230.475 291.549 230.473ZM294.354 230.814C294.372 230.814 294.391 230.814 294.409 230.822C294.624 231.149 293.785 231.047 294.197 230.863C294.248 230.847 294.3 230.817 294.354 230.814ZM239.843 231.094C239.862 231.09 239.883 231.094 239.904 231.101C240.209 231.418 239.264 231.548 239.693 231.194C239.732 231.152 239.784 231.102 239.843 231.094ZM293.308 231.604L293.345 231.608C293.306 231.86 292.919 231.73 293.273 231.617L293.308 231.604ZM238.697 232.051C239.06 232.223 239.371 232.711 239.154 233.102C238.854 233.513 238.461 232.917 238.509 232.582C238.509 232.414 238.448 232.066 238.697 232.051ZM266.82 232.064C266.902 232.06 266.985 232.06 267.069 232.068C267.643 232.141 267.928 232.81 267.816 233.327C267.728 234.155 267.291 234.9 266.754 235.52C266.868 235.095 266.861 234.52 266.441 234.263C265.878 233.969 265.109 234.154 264.651 233.652C264.396 233.228 264.82 232.78 265.213 232.651C265.715 232.381 266.243 232.094 266.82 232.064ZM263.025 232.421C263.036 232.425 263.038 232.455 263.005 232.533C262.968 232.493 262.991 232.441 263.011 232.426C263.016 232.422 263.021 232.42 263.025 232.421ZM240.864 232.932C240.922 232.924 240.986 232.926 241.056 232.941C241.491 233.074 241.411 233.647 241.204 233.946C241.11 234.347 240.482 234.353 240.507 233.902C240.343 233.553 240.461 232.987 240.864 232.932ZM288.635 233.06C288.7 233.056 288.766 233.06 288.83 233.072C289.332 233.236 288.98 234.027 288.53 233.681C288.135 233.681 287.9 233.033 288.439 233.079C288.504 233.072 288.57 233.063 288.635 233.06ZM295.191 233.741C295.424 233.783 295.626 234.483 295.305 234.287C295.223 234.165 294.911 233.782 295.191 233.741ZM238.11 233.865C238.632 234.086 237.7 234.8 237.723 234.176C237.774 234.008 237.917 233.841 238.11 233.865ZM293.799 234.599C293.815 234.595 293.832 234.599 293.851 234.61C294.132 234.807 293.52 235.126 293.707 234.727C293.718 234.685 293.751 234.611 293.799 234.599ZM265.141 235.035C265.178 235.035 265.215 235.039 265.253 235.045C265.797 235.221 266.228 235.717 266.294 236.288C266.047 236.797 265.433 236.445 265.057 236.315C264.715 236.212 264.266 235.836 264.533 235.455C264.656 235.236 264.883 235.039 265.141 235.035ZM269.482 235.518L269.459 235.597C269.344 235.954 269.022 236.202 268.68 236.326C268.827 235.961 269.155 235.714 269.482 235.518ZM267.82 236.536C267.843 236.526 267.869 236.526 267.901 236.54C268.148 236.767 267.48 237.201 267.692 236.737C267.717 236.675 267.751 236.564 267.82 236.536ZM234.882 236.835C234.778 236.831 234.674 236.834 234.572 236.852C234.079 237.094 234.316 237.801 234.706 238.028C235.532 238.694 236.612 238.886 237.621 239.108C238.293 239.226 238.978 239.384 239.663 239.312C240.106 239.114 239.609 238.546 239.295 238.475C238.039 237.701 236.654 237.097 235.192 236.857C235.088 236.847 234.985 236.838 234.882 236.835ZM262.753 237.026C262.792 237.026 262.831 237.026 262.869 237.031C263.39 237.121 263.897 237.325 264.305 237.666C264.354 238.189 263.644 238.115 263.308 238.028C262.947 237.885 262.464 237.42 262.638 237.05C262.675 237.034 262.714 237.027 262.753 237.026ZM267.2 237.567C267.214 237.561 267.228 237.561 267.245 237.571C267.434 237.754 266.846 237.932 267.114 237.681C267.137 237.658 267.161 237.587 267.2 237.568V237.567ZM260.763 238.369C260.762 238.381 260.754 238.415 260.733 238.483C260.685 238.694 260.537 238.851 260.675 238.543C260.694 238.496 260.764 238.333 260.763 238.369ZM289.653 238.808C289.692 238.804 289.731 238.808 289.769 238.822C290.114 239.17 288.888 239.216 289.311 238.896C289.423 238.873 289.537 238.815 289.653 238.808ZM263.775 238.872C263.833 238.868 263.894 238.868 263.948 238.872C264.021 238.877 264.082 238.888 264.114 238.9C264.544 239.25 263.676 239.449 263.528 239.091C263.443 238.938 263.6 238.881 263.775 238.87V238.872ZM263.633 240.201C263.61 240.472 262.877 240.307 263.369 240.232C263.455 240.216 263.543 240.179 263.633 240.201ZM257.936 242.061C257.551 242.367 257.962 242.831 258.204 243.087C258.785 243.735 259.413 244.472 260.323 244.618C260.94 244.757 261.57 244.863 262.2 244.9C262.706 244.821 262.559 244.178 262.16 244.052C261.455 243.445 260.614 243.026 259.789 242.61C259.202 242.347 258.587 242.09 257.936 242.061ZM256.306 243.367C256.193 243.363 256.08 243.363 255.967 243.367C254.689 243.452 253.578 244.448 253.235 245.661C252.911 246.327 252.281 246.779 251.947 247.439C250.97 249.047 250.503 250.91 250.274 252.762C250.17 253.769 250.181 254.801 250.448 255.784C250.698 256.168 251.176 255.554 251.469 255.952C251.966 256.271 252.354 256.846 252.995 256.874C253.624 256.848 254.015 256.271 254.31 255.785C254.39 255.694 254.606 255.199 254.529 255.57C254.462 256.21 254.509 256.988 255.076 257.404C255.73 257.856 256.598 257.702 257.293 257.431C259.004 256.767 260.454 255.306 260.888 253.498C261.062 253.096 260.827 252.548 261.177 252.246C261.48 251.974 261.908 251.851 262.137 251.497C262.866 250.765 263.108 249.638 262.839 248.653C262.543 247.389 261.713 246.326 260.794 245.441C259.584 244.302 257.996 243.418 256.306 243.367ZM283.401 243.518C283.351 243.518 283.302 243.524 283.253 243.524C282.991 243.464 282.461 243.799 282.988 243.889C283.232 244.027 283.953 243.807 283.55 243.531C283.501 243.518 283.451 243.517 283.401 243.518ZM282.431 244.659C280.841 244.731 279.452 245.906 278.894 247.36C278.534 248.149 278.372 249.009 278.261 249.864C278.65 250.281 278.632 251.019 278.196 251.397C277.801 251.869 277.263 252.382 277.343 253.055C277.389 253.536 277.679 253.942 277.962 254.316C277.538 254.652 277.001 254.805 276.574 255.136C276.333 255.555 276.647 256.013 276.87 256.366C277.231 256.949 277.646 257.494 278.052 258.045C280.358 256.733 282.301 254.88 284.055 252.911C285.394 251.364 286.605 249.65 287.252 247.691C287.493 247.33 287.436 246.772 287.041 246.543C286.628 246.258 286.255 245.911 285.816 245.661C284.808 245.028 283.633 244.61 282.431 244.659ZM236.281 245.292C236.301 245.288 236.324 245.296 236.349 245.311C236.63 245.464 236.122 245.876 236.194 245.444C236.183 245.372 236.22 245.298 236.281 245.292ZM237.137 246.242C237.189 246.233 237.245 246.232 237.304 246.242C237.798 246.354 237.8 246.975 237.708 247.369C237.495 247.905 236.977 247.398 236.826 247.086C236.589 246.763 236.772 246.302 237.137 246.242ZM235.857 246.914C235.909 246.914 235.962 246.922 236.017 246.939L236.029 246.946C236.428 247.239 236.344 247.798 236.329 248.228C236.301 248.752 236.202 249.268 236.112 249.784C236.077 249.176 235.179 249.846 235.095 249.28C235.061 249.002 235.044 248.489 234.627 248.584C234.351 248.231 234.752 247.848 234.954 247.568C235.171 247.301 235.49 246.915 235.857 246.914ZM283.518 246.948L283.573 246.953C283.485 247.456 282.959 247.661 282.636 247.994C282.064 248.444 281.47 248.862 280.88 249.285C281.427 249.657 282.007 249.994 282.481 250.463C282.204 250.945 281.628 250.467 281.212 250.537C280.936 250.457 280.181 250.339 280.342 250.81C280.541 250.966 280.495 251.235 280.228 251.032C279.797 250.894 279.369 250.421 279.58 249.951C279.885 249.118 280.651 248.595 281.326 248.076C281.993 247.597 282.719 247.155 283.518 246.948ZM233.226 247.363C233.271 247.625 233.133 247.481 233.226 247.363ZM180.455 247.953C180.283 247.945 180.109 247.948 179.937 247.961C178.534 248.123 177.388 249.167 176.75 250.377C175.738 252.111 175.58 254.226 175.969 256.166C176.392 258.604 176.767 260.989 177.77 263.275C178.184 264.217 178.687 265.481 179.582 266.15C180.011 266.471 180.372 266.78 180.704 267.143C182.426 269.272 183.369 271.885 184.219 274.452C185.056 276.99 185.806 279.574 187.001 281.974C186.454 287.171 186.827 292.505 188.441 297.492C189.065 299.447 189.894 301.333 190.881 303.132C192.052 306.176 194.105 308.801 195.173 311.89C195.674 313.341 195.887 315.697 195.928 315.956C195.977 316.271 195.923 316.558 196.209 316.529C196.505 316.5 196.125 316.177 197.188 316.363C197.834 316.513 198.148 317.274 197.993 317.879C197.855 318.867 198.96 319.316 198.886 319.838C198.506 320.21 198.512 320.757 198.627 321.235C198.681 321.636 198.769 321.804 199.102 322.047C199.534 322.363 199.737 321.969 199.957 321.631C200.668 320.527 199.058 319.971 200.063 319.09C200.493 318.732 201.219 318.681 201.614 319.12C202.035 319.46 202.282 319.954 202.541 320.417C202.552 321.502 203.739 327.508 203.513 328.726C203.097 329.257 202.522 330.042 203.275 330.749C204.027 331.456 205.684 330.574 206.07 329.849C206.518 329.008 203.524 323.695 204.457 322.89C205.408 322.254 206.618 322.3 207.705 322.448C209.213 322.639 210.742 323.036 212.266 322.755C212.726 322.759 213.096 322.319 213.569 322.441C213.944 322.723 214.195 323.156 214.628 323.363C214.819 322.887 215.802 323.185 215.347 323.666C215.107 323.96 215.378 324.435 215.703 324.094C216.102 323.784 216.789 324.284 216.299 324.647C216.02 324.714 215.72 324.903 216.021 325.169C216.761 326.818 216.407 331.024 216.052 331.362C215.557 331.953 215.896 333.001 216.98 333.109C217.429 333.153 217.557 333.022 217.769 332.78C218.489 331.363 216.923 327.259 218.289 323.985C219.217 322.62 221.606 321.047 222.453 319.632C222.676 319.234 223.188 319.657 223.11 320.007C222.89 320.391 222.854 320.858 222.698 321.279C222.332 322.457 221.837 323.617 221.714 324.854C221.743 325.403 222.437 325.456 222.766 325.13C223.028 324.857 223.644 324.505 223.715 325.114C223.954 325.944 224.011 326.827 224.323 327.634C224.607 328.366 225.602 330.658 226.501 331.413C228.14 332.791 230.911 333.452 232.96 334.048C235.228 334.742 237.583 335.391 239.978 335.2C241.518 335.063 243.048 334.528 244.246 333.535C244.332 333.352 244.667 333.148 244.843 333.197L250.974 328.323C251.303 327.932 251.648 327.555 252.018 327.198C253.244 325.951 254.421 324.631 255.291 323.105C257.369 319.651 258.426 315.678 260.66 312.308C261.035 311.759 261.054 311.064 261.322 310.467C261.669 309.52 262.206 308.649 262.893 307.911C263.232 307.524 263.458 307.053 263.592 306.56C263.762 306.055 263.358 305.608 263.133 305.194C262.311 303.753 261.441 302.328 260.827 300.781C260.742 300.202 261.56 300.449 261.717 300.785C262.719 301.513 263.577 302.543 264.83 302.839C265.543 303.031 266.364 302.759 266.78 302.138C267.511 301.205 267.743 300.008 267.983 298.876C268.232 297.52 268.347 296.144 268.556 294.782C268.75 295.247 269.485 295.349 269.779 294.93C270.779 293.9 271.315 292.544 271.976 291.295C272.237 290.891 272.368 290.27 272.708 289.995C273.346 290.013 274.04 290.062 274.605 289.708C274.967 289.315 274.703 288.644 275.145 288.3C275.486 288.028 276.16 288.127 276.222 287.569C276.537 286.624 277.441 286.051 278.305 285.661C279.768 285.01 281.384 284.721 282.77 283.896C283.3 283.551 283.672 282.841 283.406 282.223C283.016 280.992 281.935 280.179 281.26 279.119C281.188 278.779 281.732 279.286 281.861 279.367C282.514 279.922 283.202 280.435 283.881 280.957C284.27 281.24 284.678 281.498 285.108 281.715C285.644 281.694 285.406 281.014 285.212 280.735C284.988 280.314 285.406 280.909 285.583 280.922C286.395 281.357 287.358 281.095 288.166 280.788C289.817 280.138 291.208 278.994 292.523 277.832C293.489 276.942 294.373 275.963 295.161 274.913C295.337 274.431 295.12 273.931 295.143 273.439C295.045 273.073 295.125 272.323 295.666 272.488C296.471 272.79 297.361 272.957 298.209 272.751C298.736 272.623 299.041 272.143 299.431 271.811C299.99 271.29 300.58 270.775 301.284 270.463C301.284 270.463 303.009 269.043 305.822 266.226C306.579 264.761 307.162 263.112 306.96 261.44C306.867 260.559 306.578 259.703 306.15 258.929C305.76 258.524 305.166 258.469 304.652 258.326C302.525 257.931 300.335 258.577 298.499 259.646C295.986 261.082 293.855 263.308 292.837 266.042C292.243 267.71 292.241 269.655 293.137 271.218C293.318 271.531 292.906 271.044 292.821 270.985C292.111 270.302 291.231 269.64 290.196 269.665C289.126 269.7 288.246 270.432 287.542 271.172C286.549 272.232 285.725 273.434 284.835 274.578C283.78 275.956 282.64 277.346 281.103 278.205C280.381 278.584 279.574 278.817 278.754 278.808C277.746 279.59 276.842 280.669 276.703 281.982C276.591 282.859 276.785 283.758 276.563 284.624C276.343 285.11 275.864 285.448 275.347 285.551C275.24 284.814 275.304 284.068 275.351 283.329C275.077 283.947 274.359 284.246 273.711 284.18C273.233 284.062 272.762 284.374 272.307 284.224C271.863 283.974 272.03 283.375 272.278 283.043C272.679 282.491 273.424 282.256 274.08 282.399C274.438 282.353 273.878 281.975 273.692 282.045C272.886 282.019 272.064 282.369 271.27 282.096C270.949 281.993 270.638 281.512 270.374 281.982C270.146 282.249 269.587 281.809 270.059 281.66C270.535 281.681 270.455 281.021 270.079 280.922C269.627 281.045 269.39 281.567 268.992 281.813C268.241 282.491 267.477 283.234 267.116 284.198C266.814 284.584 266.241 284.434 265.861 284.705C265.436 284.916 265.075 285.234 264.769 285.594C264.238 285.713 264.294 284.997 264.219 284.658C264.102 284.145 264.109 283.606 263.928 283.108C262.706 281.656 261.976 279.88 261.303 278.126C260.808 276.916 260.06 275.741 258.906 275.064C258.019 274.452 256.943 274.203 256.03 273.641C254.841 272.817 254.136 271.51 253.432 270.286C252.495 268.644 251.594 266.892 250.072 265.707C248.929 264.854 247.477 264.42 246.052 264.53C245.293 264.685 244.855 265.417 244.582 266.081C244.199 266.985 244.079 267.984 243.618 268.858C243.41 269.182 242.952 269.133 242.687 268.912C242.424 268.648 241.993 268.426 242.051 267.988C242.286 267.592 241.874 267.261 241.504 267.212C241.102 267.212 240.61 266.708 241.139 266.447C241.776 266.034 242.563 265.944 243.209 265.551C243.623 265.283 243.558 264.665 243.181 264.394C242.553 263.753 241.75 263.324 240.992 262.857C239.651 262.074 238.249 261.37 237.058 260.36C236.152 259.738 235.191 259.202 234.265 258.611C232.642 257.619 230.935 256.746 229.119 256.167C228.605 255.991 228.085 255.834 227.567 255.669C225.358 257.685 223.579 260.283 222.935 263.233C222.307 266.04 222.976 269.095 224.689 271.404C225.105 271.993 225.584 272.535 226.076 273.062C227.908 274.044 229.194 275.722 230.616 277.186C231.642 278.231 232.8 279.28 234.272 279.61C235.192 279.813 236.155 279.709 237.048 279.434C238.299 280.103 239.548 280.821 240.934 281.177C241.428 281.225 241.468 280.561 241.243 280.259C240.898 279.784 240.611 279.262 240.249 278.796C239.239 277.464 238.191 276.161 237.169 274.838C237.066 274.66 236.602 274.277 237.07 274.427C238.815 274.692 240.308 275.859 241.282 277.29C242.742 279.301 243.722 281.598 244.917 283.764C245.247 284.352 245.534 284.987 246.002 285.48C246.387 285.837 247.035 285.942 247.455 285.582C248.317 285.021 248.784 284.061 249.263 283.187C249.556 282.62 249.807 282.032 250.072 281.451C249.797 281.042 250.109 280.472 250.54 280.325C251.64 279.811 252.986 279.855 254.057 280.418C254.618 280.742 255.043 281.378 254.956 282.045C254.911 282.959 254.389 283.75 253.873 284.471C253.043 285.761 252.411 287.184 252.059 288.676C252.137 289.165 252.707 288.841 252.816 288.535C253.077 288.23 253.307 287.898 253.561 287.587C253.682 288.227 253.427 288.863 253.227 289.461C252.911 290.341 252.463 291.196 252.36 292.136C252.309 292.585 252.458 293.103 252.899 293.304C253.552 293.635 254.315 293.566 255.022 293.521C255.508 293.553 256.081 293.171 256.488 293.526C256.997 293.896 257.367 294.631 257.027 295.23C256.631 295.947 255.855 296.317 255.179 296.718C254.048 297.322 252.829 297.754 251.748 298.451C251.336 298.776 251.844 299.167 252.016 299.4C251.98 299.867 251.527 300.15 251.193 300.41C250.663 300.686 250.038 300.486 249.562 300.191C248.345 299.532 247.315 298.494 245.939 298.153C245.744 298.055 245.265 298.169 245.493 297.821C245.73 297.117 246.298 296.606 246.796 296.081C247 296.04 247.371 295.483 246.921 295.681C246.174 295.998 245.45 296.367 244.72 296.723C243.893 297.434 242.891 297.983 241.79 298.091C240.592 298.281 239.365 298.11 238.168 298.295C237.79 298.382 237.376 298.56 237.23 298.95C236.911 299.476 236.234 299.515 235.744 299.807C235.198 300.08 234.598 300.466 234.445 301.095C234.324 301.896 234.81 302.605 235.091 303.318C235.356 303.922 235.605 304.536 235.766 305.177C234.874 306.144 233.865 307.104 232.568 307.478C232.199 307.518 231.992 307.1 232.08 306.784C232.179 306.382 232.455 306.046 232.654 305.685C233.182 304.918 233.842 304.229 234.194 303.353C234.457 303.044 234.233 302.376 233.783 302.713C233.355 303.007 233.005 303.403 232.645 303.775C231.881 304.628 231.246 305.61 230.831 306.678C230.6 307.569 229.917 308.231 229.399 308.961C229.107 309.341 228.795 309.705 228.473 310.06C228.26 309.648 228.675 309.284 228.828 308.931C229.029 308.401 229.337 307.914 229.6 307.411C230.248 306.256 230.916 305.11 231.618 303.988C231.964 303.579 232.006 303.024 232.006 302.511C232.132 300.465 232.489 298.424 232.367 296.368C232.308 295.926 232.093 295.514 231.793 295.187C231.675 294.67 231.916 294.168 231.972 293.658C232.074 293.142 232.167 292.616 232.138 292.087C231.995 291.602 231.421 291.439 230.967 291.463C230.416 291.451 229.868 291.517 229.321 291.569C229.729 291.511 230.397 291.154 230.085 290.665C229.832 290.228 229.358 290.001 228.987 289.68C228.554 290.088 228.677 290.741 228.743 291.267C228.807 291.835 228.913 292.405 228.924 292.975C228.756 293.353 228.708 292.673 228.683 292.524C228.621 291.92 228.601 291.312 228.58 290.705C228.03 292.829 227.545 295.011 227.653 297.218C227.707 297.626 227.736 298.15 228.147 298.369C228.616 298.511 229.1 298.247 229.569 298.386C230.015 298.451 230.182 297.948 230.24 297.598C230.388 296.969 230.805 296.45 231.124 295.9C231.587 296.311 231.684 296.972 231.731 297.555C231.704 298.523 231.032 299.322 230.302 299.892C230.044 300.077 229.756 300.239 229.567 300.501C230.02 300.59 230.446 300.346 230.894 300.329C231.045 300.218 231.521 300.245 231.188 300.478C230.825 301.162 230.696 301.936 230.449 302.664C230.202 303.501 229.946 304.359 229.419 305.07C229.067 305.36 228.557 305.089 228.362 304.738C228.041 304.25 228.337 303.674 228.398 303.156C228.468 302.749 228.541 302.341 228.56 301.927C228.152 302.579 228.035 303.354 227.749 304.059C227.409 305.064 227.082 306.075 226.664 307.052C226.225 307.103 226.553 306.423 226.509 306.159C226.596 305.274 226.81 304.394 226.73 303.5C226.707 300.91 227.236 298.361 227.456 295.789C227.648 293.823 227.761 291.79 227.205 289.87C226.834 288.669 225.978 287.567 224.768 287.132C223.752 286.742 222.645 286.721 221.571 286.769C220.897 286.701 220.29 286.372 219.643 286.198C219.395 286.116 219.152 286.022 218.921 285.9C220.698 285.995 222.472 286.41 224.256 286.198C224.768 286.109 225.38 286.067 225.713 285.61C225.853 285.179 226.016 285.881 226.185 286.008C226.426 286.304 226.707 286.881 227.154 286.75C227.602 286.468 227.535 285.858 227.62 285.401C227.696 284.715 227.713 284.025 227.727 283.336C227.197 282.03 227.555 280.522 226.886 279.257C226.49 278.327 225.857 277.527 225.206 276.764C225.68 276.447 225.955 275.717 225.564 275.233C224.943 274.313 223.848 273.899 222.836 273.565C221.067 273.036 219.081 272.975 217.376 273.757C216.713 274.081 216.122 274.562 215.705 275.174C215.212 275.544 214.552 275.545 214.038 275.877C213.585 276.097 213.076 276.475 213.078 277.027C213.143 277.698 213.732 278.144 214.231 278.522C214.81 278.946 215.44 279.291 216.055 279.661C215.592 279.842 215.139 279.456 214.67 279.437C213.669 279.181 212.676 278.864 211.645 278.753C211.166 278.729 211.081 279.404 211.381 279.676C211.685 280.076 211.967 280.505 212.266 280.914C212.496 281.312 212.897 281.735 212.728 282.221C212.679 282.558 212.722 282.939 212.973 283.193C213.25 283.777 213.542 284.356 213.748 284.969C213.269 285.159 213.127 284.475 212.779 284.292C211.332 282.801 209.929 281.188 208.071 280.195C207.448 279.883 206.635 279.7 206.019 280.125C205.443 280.535 205.208 281.236 205.011 281.882C205.149 282.315 204.606 282.575 204.332 282.257C203.479 282.155 202.74 282.696 202.053 283.12C201.075 283.749 200.179 284.549 199.071 284.945C198.623 285.019 198.207 284.592 198.209 284.157C198.083 283.72 198.268 283.252 198.1 282.822C197.624 282.634 197.084 282.6 196.664 282.281C195.171 281.441 193.853 280.255 192.951 278.793C192.749 278.419 192.502 277.98 192.629 277.542C192.825 277.051 193.437 276.963 193.899 277.049C194.112 277.108 194.652 277.161 194.31 276.821C193.965 276.343 193.607 275.851 193.12 275.507C192.8 275.272 192.367 275.245 192.028 275.457C191.531 275.738 191.118 276.15 190.584 276.369C190.249 276.536 189.886 276.644 189.516 276.701C190.096 276.646 190.735 276.586 191.249 276.918C191.496 277.299 191.105 277.703 190.774 277.863C189.889 278.297 188.871 278.334 187.911 278.204C188.122 277.804 188.074 277.241 187.678 276.972C187.325 276.603 186.879 276.305 186.639 275.84C186.586 275.322 187.18 275.142 187.568 275.008C188.101 274.715 188.359 274.129 188.657 273.63C188.966 273.05 189.051 272.225 188.522 271.742C188.192 271.399 187.757 271.182 187.406 270.864C187.226 270.325 187.894 270.099 188.253 269.882C188.59 269.622 189.291 269.659 189.36 269.166C189.227 268.761 188.936 268.419 188.673 268.089C188.397 267.779 187.872 267.468 188.125 266.981C188.325 266.53 188.755 266.243 189.084 265.891C189.449 265.545 189.829 265.216 190.202 264.879C189.424 264.659 188.572 264.316 188.188 263.551C187.827 262.644 188.177 261.671 188.427 260.785C188.64 260.029 188.936 259.279 189.004 258.493C188.925 256.267 187.94 254.182 186.695 252.374C185.512 250.636 183.936 249.085 181.967 248.274C181.484 248.09 180.971 247.975 180.455 247.953ZM228.58 290.705C228.729 290.56 228.492 290.429 228.58 290.705ZM233.988 248.539L234.007 248.62C234.095 249.012 233.886 249.385 233.686 249.706C233.756 249.316 233.606 248.804 233.988 248.539ZM252.536 249.604C252.821 249.893 252.129 250.688 251.966 250.213C252.061 249.974 252.222 249.572 252.536 249.604ZM237.135 249.703C237.159 249.697 237.184 249.699 237.21 249.71C237.556 249.966 236.743 250.353 236.982 249.865C237.009 249.802 237.065 249.72 237.135 249.703ZM237.961 250.212C238.559 250.326 237.708 251.147 237.599 250.548C237.443 250.331 237.786 250.177 237.961 250.212ZM179.882 250.528C179.948 250.524 180.015 250.524 180.083 250.533C180.513 250.533 181.066 251.248 180.474 251.44C180.041 251.541 179.658 251.259 179.298 251.068C179.105 250.968 178.817 251.072 178.713 251.185C179.011 250.843 179.421 250.552 179.882 250.528ZM231.166 251.066C231.17 251.066 231.173 251.07 231.172 251.081C231.146 251.242 230.786 251.806 231 251.353C231.01 251.326 231.136 251.069 231.166 251.066ZM257.301 251.123C257.329 251.116 257.358 251.117 257.387 251.13C257.387 251.58 257.12 251.992 256.904 252.377C256.667 252.802 256.418 253.222 256.17 253.64C256.033 252.755 256.555 251.949 257.079 251.287C257.14 251.238 257.217 251.144 257.301 251.123ZM282.01 251.624C281.999 251.824 281.933 252.314 281.689 252.256C281.679 252.031 281.837 251.736 282.01 251.624ZM257.789 252.967C257.806 252.963 257.823 252.967 257.841 252.971C257.804 253.561 257.419 254.037 257.168 254.55C256.885 254.915 256.479 255.306 256.018 255.378C255.689 255.065 256.265 254.649 256.414 254.351C256.767 253.861 257.195 253.432 257.643 253.028C257.689 253.009 257.737 252.974 257.789 252.967ZM280.169 253.989C280.185 254.16 280.079 254.628 279.871 254.535C279.83 254.351 279.981 254.003 280.169 253.989ZM259.561 254.667L259.548 254.749C259.479 255.108 259.29 255.451 258.992 255.669C259.136 255.313 259.281 254.942 259.561 254.667ZM280.142 255.906C280.309 256.091 279.78 256.414 280.015 256.057C280.044 256.011 280.061 255.891 280.142 255.906ZM233.171 259.016C233.195 259.012 233.223 259.016 233.253 259.035C233.779 259.062 233.335 259.751 233.108 259.199C233.063 259.121 233.099 259.027 233.171 259.016ZM230.458 259.564C230.49 259.55 230.517 259.568 230.534 259.629C230.656 260.061 230.408 260.472 230.331 260.888C229.986 260.768 230.111 260.242 230.226 259.968C230.226 259.909 230.362 259.605 230.458 259.564ZM271.777 259.828C271.697 259.832 271.619 259.848 271.544 259.884C271.084 260.096 270.724 260.466 270.314 260.755C268.749 261.975 267.237 263.401 266.459 265.264C266.027 266.351 266.05 267.66 266.724 268.647C267.148 269.36 267.799 269.986 268.602 270.236C269.316 270.356 269.957 269.863 270.366 269.325C270.999 268.596 271.481 267.721 272.272 267.14C272.915 266.845 273.611 266.584 274.073 266.019C275.215 264.857 275.635 262.944 274.848 261.477C274.269 260.485 273.128 259.956 272.017 259.846C271.937 259.833 271.856 259.825 271.777 259.828ZM225.675 261.148L225.706 261.152C225.728 261.567 225.748 262.121 225.323 262.351C225.065 261.949 225.352 261.465 225.638 261.164L225.675 261.148ZM239.476 263.154C239.535 263.15 239.591 263.16 239.631 263.204C239.877 263.552 238.981 263.487 239.305 263.184C239.355 263.175 239.418 263.158 239.476 263.154ZM225.543 263.4C225.657 263.577 225.804 263.998 225.593 264.095C225.495 263.905 225.456 263.578 225.543 263.4ZM271.327 263.759C271.337 263.753 271.349 263.752 271.366 263.759C271.431 263.98 271.001 264.198 271.269 263.868C271.285 263.842 271.295 263.778 271.327 263.759ZM230.355 263.927C230.545 264.115 229.938 264.381 230.194 264.074C230.235 264.025 230.267 263.903 230.355 263.927ZM232.66 264.146C232.706 264.141 232.752 264.139 232.799 264.146C233.107 264.209 233.468 264.12 233.723 264.347C233.315 264.456 232.895 264.318 232.519 264.162C232.566 264.158 232.613 264.151 232.66 264.146ZM242.389 264.716C242.441 264.707 242.503 264.709 242.575 264.726L242.826 264.73C243.383 264.838 243.041 265.781 242.532 265.505C242.145 265.431 242.027 264.783 242.389 264.716ZM228.827 265.593L228.759 265.642C228.422 265.802 228.04 265.774 227.677 265.805C228.052 265.694 228.438 265.624 228.827 265.593ZM240.166 266.233C240.186 266.229 240.207 266.233 240.228 266.243C240.286 266.513 239.604 266.627 240.01 266.337C240.051 266.297 240.106 266.241 240.166 266.233ZM239.889 267.974C239.904 267.968 239.92 267.967 239.935 267.974C240.472 268.773 240.653 269.737 240.958 270.635C241.57 272.661 242.054 274.725 242.41 276.811C242.645 277.069 242.18 277.608 242.05 277.131C241.727 276.479 241.51 275.78 241.254 275.1C240.955 274.257 240.656 273.412 240.306 272.588C240.004 272.989 239.979 273.513 239.743 273.946C239.764 274.225 239.283 274.396 239.43 273.99C239.52 273.31 239.738 272.654 239.935 271.999C240.155 271.536 240.127 271.028 240.023 270.539C239.907 269.7 239.775 268.852 239.852 268.002C239.861 267.99 239.874 267.98 239.889 267.974ZM241.325 268.103C241.351 268.103 241.378 268.103 241.404 268.111C241.844 268.367 240.858 268.688 241.127 268.212C241.175 268.152 241.248 268.108 241.325 268.103ZM187.526 269.36C187.545 269.356 187.565 269.36 187.584 269.366C187.754 269.699 186.974 269.519 187.473 269.38C187.489 269.37 187.507 269.363 187.526 269.36ZM242.885 269.674C242.915 269.68 242.934 269.735 242.925 269.867C243.025 270.084 242.724 270.646 242.644 270.194C242.593 270.084 242.795 269.658 242.885 269.674ZM242.159 269.679C242.438 269.883 242.307 270.655 241.892 270.467C241.663 270.293 241.807 269.59 242.159 269.679ZM231.662 270.765C231.688 270.76 231.714 270.76 231.74 270.765C232.351 270.936 232.961 271.26 233.294 271.821C233.322 272.286 232.565 272.576 232.336 272.129C232.017 271.757 231.605 271.414 231.499 270.912C231.515 270.833 231.585 270.776 231.662 270.763V270.765ZM231.316 271.778C231.633 272.048 230.764 272.464 231.066 271.982C231.125 271.904 231.193 271.737 231.316 271.778ZM186.166 271.905C186.338 271.895 186.512 271.895 186.684 271.909C186.764 272.36 186.036 272.171 185.755 272.284C185.396 272.324 185.035 272.309 184.674 272.308C185.136 272.068 185.647 271.937 186.166 271.907V271.905ZM244.085 271.925L244.149 271.979C244.397 272.251 243.72 272.056 244.085 271.925ZM234.996 272.677C235.374 272.796 235.945 272.987 235.893 273.484C235.489 273.542 235.166 273.167 234.958 272.856C234.882 272.781 234.852 272.663 234.996 272.677ZM246.463 272.955C246.493 272.955 246.523 272.959 246.553 272.962C247.04 273.009 247.409 273.601 247.134 274.039C246.914 274.442 246.303 274.458 245.977 274.182C245.717 273.779 245.889 273.103 246.372 272.963C246.402 272.956 246.432 272.954 246.463 272.955ZM231.961 273.326C231.983 273.322 232.006 273.32 232.028 273.331C232.435 273.793 232.287 274.457 232.275 275.017C232.22 275.74 232.104 276.456 231.964 277.168C231.419 276.443 230.832 275.678 230.711 274.752C231.04 274.232 231.336 273.64 231.894 273.328C231.917 273.334 231.938 273.328 231.961 273.328V273.326ZM244.546 273.384C244.276 273.837 243.798 274.095 243.445 274.471C243.033 274.642 243.089 273.983 243.449 273.998C243.777 273.748 244.144 273.462 244.547 273.384H244.546ZM229.727 274.274C229.819 274.268 229.911 274.27 230.002 274.274C230.078 274.705 229.009 274.673 229.457 274.321C229.545 274.292 229.636 274.278 229.727 274.272V274.274ZM246.74 274.629L246.725 274.711C246.646 275.095 246.455 275.456 246.175 275.731C246.253 275.318 246.476 274.95 246.74 274.629ZM234.224 274.844C234.262 274.836 234.311 274.841 234.338 274.849C234.745 274.919 235.215 274.907 235.534 275.211C235.07 275.297 234.546 275.248 234.177 274.929C234.16 274.877 234.187 274.853 234.224 274.844ZM256.865 274.994C256.877 274.988 256.891 274.987 256.908 274.994C256.913 275.191 256.543 275.398 256.791 275.111C256.81 275.084 256.828 275.014 256.865 274.994ZM224.957 275.031C224.97 275.031 224.983 275.037 224.994 275.047C225.357 275.135 224.875 275.432 224.898 275.114C224.876 275.063 224.917 275.028 224.957 275.031ZM255.674 275.288C255.703 275.283 255.732 275.283 255.762 275.288C255.795 275.295 255.829 275.309 255.863 275.333C256.138 275.659 255.869 276.114 255.621 276.37C255.243 276.834 254.626 275.959 255.155 275.735C255.286 275.611 255.472 275.327 255.674 275.288ZM244.642 275.34C244.65 275.336 244.675 275.344 244.73 275.372C244.756 275.46 244.62 275.352 244.642 275.34ZM227.015 275.518C226.97 275.514 226.927 275.531 226.886 275.572C226.631 275.954 227.617 276.318 227.364 275.783C227.289 275.691 227.149 275.525 227.015 275.518ZM244.014 275.83C244.065 275.826 244.118 275.83 244.17 275.841C244.662 276.049 244.264 276.662 243.997 276.901C243.859 277.247 243.241 277.627 243.045 277.132C242.786 276.692 243.126 276.13 243.568 275.974C243.708 275.913 243.859 275.842 244.014 275.83ZM245.874 276.594C245.894 276.594 245.913 276.598 245.929 276.61C245.831 276.965 245.515 277.302 245.268 277.597C245.144 277.834 244.765 277.87 244.839 277.526C245.056 277.138 245.439 276.84 245.815 276.611C245.832 276.602 245.853 276.595 245.874 276.594ZM283.7 278.131C283.726 278.138 283.755 278.153 283.788 278.18C284.183 278.503 284.256 279.037 284.394 279.497C283.977 279.41 283.771 278.965 283.616 278.609C283.541 278.497 283.524 278.088 283.7 278.131ZM221.882 278.211C221.901 278.211 221.918 278.215 221.929 278.224C222.494 278.253 223.061 278.293 223.613 278.422C223.012 278.464 222.374 278.517 221.803 278.297C221.752 278.243 221.824 278.21 221.882 278.211ZM246.022 278.423C246.039 278.423 246.062 278.427 246.091 278.433C246.344 278.429 246.232 279.029 246.081 278.66C246.035 278.599 245.902 278.426 246.022 278.423ZM188.603 278.67L188.647 278.684C188.859 278.781 188.618 279.022 188.614 278.72L188.603 278.67ZM235.493 278.761C235.509 278.761 235.528 278.767 235.551 278.78C235.764 278.941 235.545 279.63 235.432 279.118C235.424 279.04 235.38 278.761 235.493 278.761ZM231.21 279.62L231.155 279.682C230.886 280.154 231.423 280.569 231.56 280.997C231.916 281.726 232.298 282.443 232.636 283.18C233.088 282.954 233.536 282.72 234.005 282.53C233.602 283.154 233.1 283.862 233.279 284.647C233.374 285.252 233.774 285.745 234.162 286.196C234.745 286.368 234.522 285.477 234.861 285.234C235.265 284.778 235.864 284.569 236.412 284.338C237.32 284.002 238.43 283.932 239.259 284.508C239.879 284.951 240.235 285.702 240.274 286.454C240.65 286.723 240.848 286.005 241.131 285.837C241.673 285.203 242.111 284.315 241.799 283.478C241.45 282.555 240.544 282.009 239.683 281.629C238.255 280.978 236.678 280.685 235.113 280.683C234.358 280.552 233.654 280.231 232.918 280.028C232.359 279.855 231.795 279.68 231.21 279.62ZM249.144 280.017L249.211 280.067C249.4 280.267 248.857 280.056 249.144 280.017ZM247.499 280.278C247.908 280.368 248.432 280.573 248.495 281.047C248.312 281.507 247.858 280.847 247.592 280.751C247.483 280.673 247.167 280.259 247.499 280.278ZM229.743 280.777C229.695 280.773 229.647 280.773 229.599 280.781C228.962 281.007 228.734 281.716 228.553 282.301C228.059 284.213 228.251 286.324 229.196 288.068C229.593 288.662 230.374 288.758 231.029 288.81C231.512 288.81 232.117 289.049 232.48 288.602C232.745 288.217 232.627 287.71 232.538 287.284C232.316 286.43 231.958 285.617 231.761 284.757C231.718 284.295 231.675 283.827 231.501 283.391C231.16 282.524 230.903 281.539 230.138 280.938C230.03 280.837 229.888 280.786 229.743 280.777ZM199.3 281.207L199.233 281.211C198.876 281.52 198.753 282.111 199.051 282.5C199.336 282.844 200.184 282.807 200.062 282.226C199.995 281.811 199.737 281.424 199.366 281.22L199.3 281.207ZM190.313 281.472C190.26 281.498 190.206 281.523 190.152 281.549C189.68 281.711 189.197 281.851 188.698 281.904C188.285 281.793 188.97 281.681 189.094 281.653C189.497 281.573 189.904 281.512 190.313 281.472ZM270.519 281.553C270.652 281.586 270.61 281.699 270.519 281.553ZM259.264 281.561C259.549 281.707 259.093 281.603 259.264 281.561ZM221.408 281.661C221.035 281.786 220.623 281.87 220.24 281.74C220.62 281.633 221.019 281.668 221.408 281.661ZM194.597 281.719C194.659 281.712 194.73 281.715 194.811 281.736C195.295 281.886 195.146 282.874 194.59 282.596C194.156 282.393 194.16 281.769 194.597 281.719ZM190.925 281.769C190.933 281.769 190.941 281.776 190.947 281.785C190.826 282.22 190.716 282.738 190.284 282.972C190.222 282.503 190.593 282.146 190.851 281.802C190.866 281.789 190.899 281.764 190.925 281.769ZM234.822 281.908C234.854 281.902 234.887 281.902 234.919 281.917C235.2 282.263 234.28 282.2 234.729 281.941C234.758 281.927 234.79 281.914 234.822 281.908ZM193.123 282.007C193.141 282.011 193.16 282.016 193.181 282.028C193.564 282.113 193.173 282.758 193.018 282.284C192.969 282.186 193 281.989 193.123 282.007ZM235.906 282.33C235.942 282.326 235.978 282.326 236.014 282.33C236.148 282.646 235.183 282.714 235.595 282.425C235.695 282.387 235.798 282.34 235.906 282.328V282.33ZM270.615 282.799C270.787 283.002 270.462 282.823 270.615 282.799ZM226.75 283.066C226.787 283.059 226.828 283.06 226.869 283.07C227.301 283.234 226.916 284.127 226.539 283.742C226.35 283.546 226.49 283.117 226.75 283.066ZM268.952 283.214C268.969 283.215 268.996 283.221 269.033 283.236C269.128 283.492 268.829 283.211 268.952 283.214ZM229.658 283.243C229.684 283.234 229.712 283.233 229.743 283.243C230.222 283.488 230.352 284.063 230.418 284.551C229.985 284.328 229.663 283.916 229.528 283.451C229.532 283.373 229.581 283.269 229.658 283.241V283.243ZM269.03 283.549C269.047 283.549 269.074 283.553 269.111 283.567C269.212 283.855 268.909 283.557 269.03 283.549ZM242.973 283.612H242.926C242.228 283.786 241.731 284.527 241.859 285.239C241.885 285.902 242.113 286.531 242.294 287.163C242.2 286.73 243.08 286.678 242.821 287.156C242.788 287.601 242.437 288.053 242.677 288.492C242.8 288.979 242.868 289.574 242.504 289.978C242.234 290.019 242.112 290.392 242.492 290.328C243.117 290.515 243.935 290.288 244.171 289.626C244.6 288.678 244.449 287.597 244.264 286.607C244.05 285.544 243.636 284.518 243.012 283.628L242.973 283.612ZM206.009 283.642C206.037 283.636 206.067 283.639 206.1 283.655C206.376 283.93 205.62 284.334 205.833 283.839C205.865 283.764 205.926 283.661 206.009 283.642ZM267.358 283.905H267.409C267.57 284.012 267.343 283.991 267.358 283.905ZM261.12 285.147C261.334 285.23 260.998 285.179 261.12 285.147ZM231.112 285.401C231.639 285.541 231.25 286.2 230.978 286.432C230.852 286.888 230.044 286.87 230.13 286.329C230.066 285.794 230.612 285.372 231.112 285.401ZM202.602 285.489C203.397 285.951 203.855 286.783 204.295 287.556C203.795 287.248 203.395 286.805 202.989 286.386C202.888 286.183 202.253 285.621 202.602 285.489ZM236.554 285.943C236.484 285.947 236.413 285.953 236.343 285.966C235.88 286.057 235.465 286.348 235.214 286.746C236.072 286.891 236.96 287.064 237.824 286.857C238.18 286.461 237.576 286.012 237.186 286.006C236.979 285.964 236.766 285.934 236.554 285.943ZM264.329 286.099C264.524 286.312 263.93 286.639 264.132 286.25C264.159 286.172 264.233 286.071 264.329 286.099ZM214.814 286.37C214.853 286.362 214.895 286.361 214.939 286.37C215.479 286.456 215.001 287.382 214.598 287.075C214.399 286.875 214.542 286.428 214.814 286.37ZM272.825 286.432C272.841 286.428 272.867 286.428 272.903 286.432L272.969 286.481L272.989 286.494C273.019 286.597 272.71 286.45 272.825 286.432ZM273.193 286.701L273.268 286.736C273.448 286.885 272.915 286.731 273.193 286.701ZM218.363 287.227C218.503 287.227 218.643 287.231 218.783 287.231C219.672 287.39 220.535 287.666 221.421 287.844C221.793 287.93 222.162 288.032 222.531 288.132C222.07 288.316 221.6 288.041 221.13 288.062C219.83 287.896 218.529 287.723 217.23 287.542C216.975 287.189 217.737 287.258 217.943 287.236C218.083 287.228 218.223 287.227 218.363 287.227ZM242.288 287.253C242.273 287.253 242.255 287.253 242.235 287.261C241.953 287.443 242.565 288.044 242.41 287.533C242.374 287.457 242.391 287.263 242.288 287.253ZM237.322 287.26C237.294 287.256 237.266 287.26 237.24 287.271C236.928 287.359 236.371 287.775 236.732 288.1C237.176 288.38 237.767 287.66 237.401 287.285C237.377 287.271 237.35 287.262 237.322 287.26ZM208.663 287.31L208.728 287.363C208.839 287.577 208.369 287.341 208.663 287.31ZM231.55 287.611C231.599 287.611 231.649 287.617 231.683 287.623C232.019 287.712 231.665 287.994 231.499 287.76C231.249 287.634 231.401 287.608 231.55 287.611ZM239.011 287.747C238.972 287.748 238.934 287.752 238.896 287.761C238.26 287.862 237.925 288.593 238.045 289.18C237.909 289.597 238.455 290.101 238.698 289.572C239.112 289.222 239.498 288.779 239.585 288.227C239.56 287.943 239.284 287.746 239.011 287.747ZM225.122 288.015C225.279 288.007 225.435 288.008 225.592 288.015C226.133 288.108 225.981 289.106 225.413 288.925C225.001 288.883 224.566 288.838 224.213 288.599C224.103 288.096 224.773 288.046 225.122 288.014V288.015ZM229.499 288.642C229.479 288.642 229.458 288.646 229.436 288.653C229.074 288.833 229.001 289.561 229.554 289.425C229.902 289.402 229.815 288.737 229.558 288.651C229.54 288.644 229.52 288.642 229.5 288.642L229.499 288.642ZM259.179 288.942C259.283 288.942 259.388 288.95 259.491 288.949C259.392 289.437 258.76 289.311 258.406 289.231C258.08 289.035 258.717 288.954 258.867 288.968C258.969 288.946 259.074 288.941 259.179 288.942ZM228.961 289.364C228.936 289.36 228.901 289.364 228.852 289.378L228.814 289.442C228.788 289.707 229.136 289.384 228.961 289.364ZM254.431 289.521C254.444 289.517 254.464 289.521 254.49 289.529C254.656 289.565 254.828 290.129 254.553 289.831C254.54 289.788 254.34 289.538 254.431 289.521ZM225.118 289.667C225.148 289.667 225.179 289.667 225.209 289.674C225.559 290.091 225.132 290.596 224.902 290.959C224.646 291.343 224.344 291.692 224.041 292.039C223.873 291.21 224.111 290.225 224.86 289.749C224.94 289.708 225.028 289.671 225.118 289.667ZM266.765 289.87L266.828 289.892C267.163 290.192 266.355 290.079 266.765 289.87ZM265.845 289.912C265.883 289.912 265.922 289.916 265.964 289.927C266.329 290.215 266.062 290.801 265.676 290.924C265.288 291.146 264.847 290.644 265.205 290.323C265.431 290.225 265.587 289.923 265.845 289.912ZM231.874 290.114C231.985 290.481 232.286 290.813 232.652 290.946C232.95 291.078 233.046 290.793 232.806 290.629C232.521 290.452 232.208 290.121 231.874 290.114ZM260.342 290.179C260.292 290.215 260.241 290.25 260.191 290.286C259.744 290.468 259.272 290.698 258.776 290.62C258.761 290.177 259.429 290.361 259.714 290.217C259.922 290.188 260.132 290.189 260.342 290.179ZM212.689 290.337C212.719 290.337 212.759 290.341 212.811 290.354C213.09 290.286 213.308 290.922 212.908 290.669C212.768 290.649 212.48 290.344 212.689 290.337ZM257.275 290.594C257.337 290.59 257.397 290.594 257.443 290.637C257.525 290.883 256.641 290.717 257.091 290.612C257.147 290.612 257.212 290.599 257.275 290.594ZM267.946 290.777C267.994 290.786 268.032 290.836 268.051 290.928C268.2 291.355 268.028 291.814 268.136 292.246C268.188 292.747 267.252 292.844 267.403 292.27C267.399 291.776 267.581 291.305 267.79 290.865C267.843 290.798 267.899 290.768 267.946 290.777ZM221.923 290.925C221.951 290.929 221.977 290.935 222.001 290.946C222.569 290.977 221.99 291.713 221.697 291.261C221.499 291.083 221.731 290.907 221.923 290.925ZM217.057 290.967C217.093 290.96 217.134 290.96 217.176 290.971C218.017 291.055 218.823 291.356 219.557 291.766C219.607 292.299 218.845 291.952 218.538 291.944C217.998 291.857 217.467 291.723 216.933 291.605C216.705 291.448 216.801 291.017 217.057 290.967ZM211.165 291.305C211.195 291.306 211.236 291.311 211.288 291.322C211.563 291.266 211.731 291.853 211.345 291.582C211.215 291.537 210.95 291.304 211.165 291.305ZM265.865 291.61C265.897 291.61 265.908 291.64 265.894 291.739C265.855 292.216 265.5 292.607 265.145 292.897C264.907 293.195 264.214 292.981 264.604 292.596C264.921 292.229 265.302 291.905 265.718 291.655C265.782 291.637 265.834 291.609 265.865 291.61ZM212.234 292.027C212.247 292.027 212.263 292.031 212.278 292.034C212.341 292.051 212.413 292.103 212.459 292.135C212.867 292.427 213.137 292.859 213.435 293.252C212.904 293.043 212.362 292.702 212.16 292.14C212.163 292.06 212.193 292.03 212.234 292.027ZM215.157 292.095C215.191 292.091 215.235 292.095 215.252 292.099C217.061 292.579 218.782 293.336 220.464 294.143C220.686 294.281 221.242 294.482 221.134 294.735C220.716 294.98 220.275 294.598 219.839 294.647C219.427 294.529 218.981 294.399 218.575 294.445C218.323 294.111 218.204 293.646 217.717 293.604C216.832 293.156 215.919 292.745 215.117 292.155C215.096 292.114 215.121 292.1 215.156 292.096L215.157 292.095ZM209.515 292.485C209.525 292.481 209.539 292.481 209.558 292.489C209.788 292.501 209.674 293.124 209.574 292.728C209.586 292.688 209.447 292.501 209.515 292.485ZM230.7 292.636C231.003 292.707 231.227 293.469 230.734 293.197C230.605 293.079 230.324 292.603 230.7 292.636ZM223.392 292.775C223.222 293.53 222.933 294.264 222.485 294.898C222.303 294.614 222.729 294.231 222.771 293.908C222.96 293.544 223.145 293.021 223.392 292.775ZM214.174 293.716L214.229 293.72C214.093 294.036 214.083 294.77 213.658 294.722C213.73 294.365 213.918 293.978 214.174 293.716ZM231.009 294.189C231.062 294.189 231.118 294.194 231.164 294.206C231.568 294.2 231.205 294.616 230.981 294.385C230.723 294.259 230.851 294.193 231.009 294.189ZM228.692 295.392C228.682 295.513 228.672 295.635 228.662 295.757C228.612 296.119 228.551 296.48 228.477 296.838C228.522 296.352 228.588 295.868 228.692 295.392ZM218.611 295.552L218.682 295.556C218.79 296.043 218.37 296.405 218.172 296.803C217.736 297.454 217.253 298.071 216.778 298.693C216.466 298.137 216.774 297.485 217.095 297.006C217.469 296.434 217.942 295.91 218.542 295.57L218.611 295.552ZM230.518 295.916L230.488 295.994C230.356 296.342 230.056 296.616 229.705 296.736C229.862 296.371 230.193 296.123 230.518 295.916ZM213.468 296.11C213.676 296.232 213.28 296.082 213.468 296.11ZM198.714 296.175C198.66 296.246 198.607 296.316 198.553 296.387C198.374 296.58 198.17 296.751 197.938 296.877C198.173 296.619 198.425 296.373 198.714 296.175ZM221.44 296.37V296.453C221.423 296.758 221.341 297.1 221.071 297.28C221.146 296.962 221.207 296.616 221.44 296.37ZM258.516 297.703C258.538 297.703 258.572 297.703 258.623 297.714C258.817 297.952 258.36 297.714 258.516 297.703ZM257.327 298.102C257.442 298.092 257.56 298.093 257.674 298.108C258.328 298.231 258.877 298.829 258.896 299.501C258.685 300.027 257.988 299.763 257.659 299.501C257.213 299.219 256.803 298.883 256.403 298.539C256.644 298.283 256.98 298.136 257.327 298.104V298.102ZM225.788 298.324C226.219 298.666 225.819 299.206 225.652 299.577C225.567 299.88 225.083 300.371 224.912 299.864C224.646 299.241 225.033 298.303 225.788 298.324ZM245.004 298.339C246.126 298.641 247.197 299.1 248.246 299.595C247.959 299.92 247.47 299.493 247.103 299.492C246.395 299.265 245.753 298.881 245.098 298.535C245.07 298.507 244.805 298.316 245.004 298.339ZM218.281 299.527C218.773 299.691 218.043 300.264 218.003 299.792C218.003 299.649 218.136 299.512 218.281 299.527ZM215.917 299.65C215.939 299.65 215.961 299.657 215.984 299.666C216.146 299.994 215.301 300.396 215.563 299.9C215.644 299.813 215.735 299.683 215.855 299.655C215.875 299.65 215.896 299.648 215.917 299.65ZM222.245 299.927C222.259 299.931 222.277 299.936 222.299 299.95C222.531 300.014 222.343 300.552 222.224 300.183C222.201 300.127 222.143 299.909 222.245 299.927ZM246.602 300.106C246.616 300.106 246.63 300.106 246.643 300.117C246.905 300.357 246.185 300.428 246.494 300.168C246.522 300.149 246.562 300.109 246.602 300.106ZM226.053 300.551C226.085 300.546 226.11 300.555 226.104 300.617C226.276 300.996 225.906 301.667 225.459 301.481C225.146 301.126 225.566 300.622 225.958 300.559C225.981 300.571 226.021 300.555 226.053 300.551ZM225.67 301.902C225.708 301.969 225.746 302.036 225.784 302.102C226.051 302.284 225.996 303.147 225.607 302.726C225.435 302.519 225.489 301.852 225.67 301.902ZM219.31 302.538C219.338 302.533 219.362 302.538 219.377 302.569C219.463 302.872 218.751 303.205 219.056 302.735C219.103 302.693 219.226 302.556 219.31 302.538ZM220.349 302.787C220.364 302.787 220.389 302.792 220.424 302.805C220.558 303.052 220.241 302.789 220.349 302.787ZM236.732 304.771C236.757 304.767 236.782 304.77 236.807 304.777C237.042 305.187 235.963 305.137 236.522 304.85C236.587 304.817 236.658 304.777 236.732 304.771ZM254.953 305.487C255.075 305.935 254.842 306.475 254.409 306.661C254.092 306.347 254.347 305.852 254.645 305.624C254.738 305.562 254.833 305.474 254.953 305.487ZM229.086 305.642C229.116 305.638 229.147 305.638 229.177 305.642C229.445 306.067 228.295 306.056 228.831 305.738C228.909 305.692 228.995 305.652 229.086 305.642ZM256.278 305.729C256.309 305.729 256.346 305.734 256.388 305.746H256.443C256.775 305.801 256.67 306.358 256.335 306.078C256.125 305.987 256.063 305.729 256.278 305.729ZM236.741 306.05C236.775 306.05 236.745 306.079 236.585 306.169L236.515 306.216L236.471 306.245C236.039 306.473 235.628 306.774 235.135 306.851C235.389 306.443 235.949 306.43 236.332 306.187C236.449 306.141 236.685 306.052 236.741 306.05ZM260.782 306.07C260.816 306.07 260.851 306.07 260.885 306.077C261.387 306.476 260.176 306.78 260.514 306.194C260.584 306.119 260.681 306.076 260.782 306.07ZM223.206 306.158C223.228 306.164 223.26 306.178 223.303 306.205C223.35 306.498 223.049 306.118 223.206 306.158ZM252.317 306.633C252.336 306.625 252.358 306.625 252.383 306.637C252.699 306.814 252.119 307.303 252.227 306.801C252.234 306.747 252.261 306.655 252.317 306.633ZM261.051 307.627C261.642 307.765 260.716 308.504 260.587 307.972C260.558 307.732 260.852 307.603 261.051 307.627ZM228.058 307.806C228.079 307.801 228.101 307.801 228.126 307.81C228.372 308.156 227.418 308.245 227.892 307.916C227.943 307.879 227.995 307.819 228.058 307.806ZM226.348 307.915C226.4 308.638 226.178 309.354 225.895 310.012C225.841 310.187 225.544 310.324 225.678 310.012C225.777 309.338 225.991 308.684 226.222 308.046C226.265 308.023 226.278 307.896 226.348 307.915ZM231.21 307.995C231.751 308.072 231 308.832 231.028 308.233C231.021 308.13 231.08 307.97 231.21 307.995ZM231.609 308.829C231.619 308.825 231.63 308.829 231.642 308.835C231.606 309.343 231.308 309.802 230.915 310.115C230.919 309.636 231.272 309.264 231.532 308.898C231.552 308.876 231.577 308.836 231.609 308.829ZM224.834 312.514C224.851 312.508 224.869 312.509 224.891 312.521C225.188 312.716 224.514 313.062 224.746 312.663C224.758 312.617 224.785 312.534 224.834 312.514ZM224.015 313.619C224.556 313.88 223.446 314.455 223.606 313.839C223.704 313.716 223.849 313.603 224.015 313.619ZM225.911 314.174C226.324 314.407 225.385 314.818 225.622 314.354C225.689 314.266 225.782 314.14 225.911 314.174ZM222.302 314.815L222.242 314.874C222.009 315.065 221.669 315.203 221.38 315.051C221.663 314.899 221.982 314.824 222.302 314.815ZM225.273 315.549C225.289 315.553 225.304 315.569 225.314 315.598C225.436 315.851 224.76 315.836 225.116 315.632C225.154 315.611 225.223 315.535 225.273 315.549ZM224.329 317.073L224.308 317.155C224.199 317.459 224.019 317.735 223.784 317.957C223.949 317.654 224.09 317.328 224.329 317.073ZM221.993 318.09C222.02 318.085 222.043 318.084 222.059 318.09C222.08 318.1 222.088 318.124 222.076 318.17C222.062 318.713 221.514 319.008 221.208 319.393C220.638 319.956 219.992 320.434 219.357 320.919C218.861 321.034 218.68 320.427 218.599 320.055C218.659 319.475 219.445 319.974 219.697 319.537C220.347 319.025 221.006 318.498 221.765 318.156C221.805 318.16 221.914 318.104 221.994 318.089L221.993 318.09ZM216.757 322.205C216.775 322.209 216.8 322.217 216.832 322.234C216.786 322.466 216.624 322.187 216.757 322.205ZM214.648 323.528C214.628 323.532 214.607 323.541 214.586 323.559C214.498 323.813 215.112 324.18 215.049 323.892C214.941 323.8 214.793 323.507 214.648 323.528ZM215.43 324.368C215.278 324.62 215.959 324.786 215.581 324.481C215.549 324.43 215.503 324.351 215.43 324.368ZM239.094 333.313L239.102 333.388C239.102 333.725 238.776 333.311 239.094 333.313Z" fill="currentcolor"/>

</svg>
