<svg viewBox="0 0 1180 580" fill="currentcolor" xmlns="http://www.w3.org/2000/svg">
<path d="M246.032 211.727C243.47 211.709 240.954 211.765 240.296 211.907C239.849 212.003 238.62 212.182 237.563 212.304C236.507 212.427 235.311 212.622 234.904 212.738C234.498 212.854 233.6 213.026 232.909 213.121C232.219 213.216 231.388 213.405 231.063 213.541C230.738 213.678 230.14 213.836 229.733 213.893C229.327 213.95 228.751 214.12 228.453 214.269C228.156 214.419 227.659 214.587 227.35 214.644C227.04 214.701 226.434 214.902 226.003 215.09C225.571 215.277 225.097 215.43 224.949 215.43C224.801 215.43 224.387 215.583 224.03 215.769C223.672 215.956 223.153 216.152 222.876 216.206C222.598 216.26 222.154 216.467 221.888 216.667C221.623 216.865 221.242 217.029 221.044 217.029C220.845 217.029 220.603 217.123 220.505 217.239C220.407 217.355 220.084 217.527 219.785 217.621C219.487 217.716 219.177 217.841 219.096 217.901C218.953 218.005 217.849 218.593 215.698 219.711C215.129 220.006 214.526 220.373 214.358 220.527C214.19 220.68 213.984 220.806 213.899 220.806C213.814 220.806 213.493 221.003 213.186 221.242C212.879 221.482 212.561 221.678 212.48 221.678C212.398 221.678 211.693 222.155 210.912 222.737C210.131 223.32 209.326 223.903 209.123 224.033C208.732 224.283 206.739 225.955 204.764 227.688C203.163 229.093 201.534 230.731 200.554 231.919C200.107 232.461 199.409 233.278 199.002 233.736C197.56 235.362 195.437 238.259 194.409 240.001C194.321 240.151 194.146 240.389 194.02 240.53C193.894 240.67 193.609 241.144 193.386 241.584C193.162 242.023 192.799 242.645 192.579 242.964C192.359 243.284 192.105 243.761 192.014 244.024C191.923 244.288 191.712 244.673 191.547 244.88C191.381 245.087 191.246 245.322 191.246 245.403C191.246 245.483 190.919 246.21 190.52 247.018C190.121 247.825 189.712 248.747 189.611 249.067C189.511 249.386 189.344 249.779 189.241 249.939C189.138 250.098 188.977 250.517 188.883 250.869C188.788 251.221 188.583 251.743 188.427 252.029C188.271 252.316 188.144 252.69 188.144 252.861C188.144 253.032 187.982 253.531 187.784 253.97C187.587 254.409 187.377 255.022 187.319 255.332C187.26 255.642 187.056 256.349 186.865 256.902C186.674 257.456 186.519 258.115 186.519 258.369C186.519 258.622 186.385 259.212 186.221 259.68C186.057 260.148 185.886 260.893 185.841 261.337C185.796 261.78 185.595 262.807 185.392 263.619L185.025 265.094L185.07 273.353C185.11 280.749 185.14 281.66 185.362 282.057C185.498 282.3 185.681 283.138 185.77 283.918C185.858 284.697 186.024 285.556 186.139 285.825C186.253 286.095 186.395 286.695 186.454 287.16C186.512 287.626 186.75 288.59 186.982 289.302C187.215 290.015 187.405 290.72 187.405 290.87C187.405 291.02 187.538 291.399 187.701 291.712C187.864 292.026 188.072 292.629 188.164 293.051C188.256 293.473 188.455 294.046 188.607 294.325C188.758 294.603 188.882 294.937 188.882 295.066C188.882 295.195 189.048 295.608 189.251 295.984C189.454 296.36 189.621 296.735 189.621 296.818C189.621 296.9 189.811 297.372 190.043 297.865C190.275 298.358 190.517 298.924 190.581 299.123C190.644 299.322 190.819 299.641 190.971 299.832C191.122 300.022 191.246 300.278 191.246 300.399C191.246 300.521 191.412 300.834 191.615 301.096C191.818 301.358 191.985 301.666 191.985 301.781C191.985 301.895 192.11 302.145 192.264 302.337C192.417 302.529 192.652 302.914 192.786 303.192C192.92 303.471 193.191 303.961 193.388 304.28C193.586 304.6 193.891 305.122 194.067 305.442C194.244 305.762 194.579 306.238 194.812 306.501C195.044 306.763 195.235 307.048 195.235 307.134C195.235 307.219 195.385 307.476 195.568 307.705C196.118 308.393 196.695 309.178 197.214 309.946C197.738 310.722 198.235 311.323 199.097 312.221C199.393 312.529 199.753 312.961 199.897 313.18C200.042 313.4 200.55 313.979 201.027 314.467C201.504 314.955 202.055 315.566 202.249 315.826C202.444 316.086 202.957 316.59 203.388 316.947C203.82 317.304 204.415 317.836 204.71 318.13C205.005 318.424 205.492 318.861 205.791 319.1C206.091 319.34 206.715 319.863 207.178 320.263C208.132 321.086 208.455 321.334 210.542 322.85C211.363 323.447 212.194 324.018 212.389 324.119C212.584 324.22 212.909 324.426 213.112 324.577C213.952 325.202 215.024 325.837 216.081 326.335C216.699 326.626 217.288 326.964 217.392 327.086C217.495 327.209 217.696 327.309 217.838 327.309C217.979 327.309 218.266 327.442 218.475 327.604C218.684 327.765 219.138 327.996 219.485 328.116C219.831 328.236 220.218 328.422 220.344 328.53C220.47 328.637 220.917 328.835 221.337 328.969C221.758 329.104 222.176 329.302 222.266 329.409C222.356 329.516 222.678 329.648 222.979 329.703C223.281 329.757 223.689 329.903 223.886 330.028C224.083 330.153 224.548 330.338 224.92 330.44C225.292 330.542 225.929 330.756 226.335 330.917C227.483 331.37 229.369 331.936 230.102 332.046C230.468 332.101 231.078 332.264 231.458 332.409C231.837 332.554 232.502 332.712 232.935 332.761C233.368 332.809 234.22 332.971 234.83 333.121C236.04 333.419 238.491 333.739 238.679 333.625C238.744 333.586 239.085 333.649 239.436 333.766C239.788 333.882 240.341 333.976 240.666 333.973C240.991 333.969 241.423 334.034 241.627 334.116C242.145 334.325 249.755 334.332 250.297 334.124C250.525 334.036 251.045 333.942 251.451 333.916C251.858 333.89 252.622 333.802 253.15 333.72C253.678 333.638 254.738 333.496 255.504 333.403C256.27 333.311 257.16 333.144 257.48 333.033C257.801 332.922 258.27 332.829 258.524 332.829C258.778 332.829 259.352 332.724 259.799 332.598C260.246 332.472 261.044 332.271 261.572 332.149C262.1 332.028 262.964 331.777 263.492 331.591C264.02 331.406 264.751 331.159 265.117 331.042C265.483 330.926 265.999 330.757 266.263 330.668C266.527 330.579 266.926 330.447 267.149 330.375C267.73 330.189 269.058 329.656 269.919 329.263C270.325 329.078 270.824 328.881 271.027 328.827C271.23 328.773 271.53 328.614 271.692 328.474C271.855 328.334 272.165 328.178 272.383 328.128C272.6 328.077 273.265 327.772 273.86 327.449C274.455 327.126 275.042 326.81 275.164 326.746C275.393 326.628 276.135 326.249 276.802 325.908C277.013 325.801 277.305 325.582 277.453 325.421C277.6 325.261 277.779 325.13 277.85 325.13C277.984 325.13 279.241 324.337 279.915 323.828C280.131 323.665 280.377 323.532 280.461 323.532C280.546 323.532 281.001 323.219 281.472 322.838C281.944 322.456 282.695 321.886 283.142 321.572C285.395 319.986 289.891 315.717 292.467 312.717C294.396 310.471 295.071 309.639 295.324 309.195C295.453 308.969 295.785 308.49 296.061 308.13C296.338 307.77 296.873 306.971 297.251 306.352C297.629 305.734 297.992 305.195 298.059 305.155C298.125 305.114 298.458 304.545 298.799 303.888C299.141 303.232 299.547 302.536 299.702 302.341C299.858 302.147 299.984 301.876 299.984 301.738C299.984 301.6 300.184 301.239 300.428 300.938C300.672 300.636 300.871 300.318 300.871 300.23C300.871 300.076 301.274 299.199 301.997 297.777C302.19 297.398 302.348 296.973 302.348 296.832C302.348 296.692 302.507 296.283 302.7 295.924C302.893 295.565 303.1 295.043 303.159 294.763C303.219 294.483 303.36 294.152 303.472 294.026C303.584 293.901 303.74 293.468 303.817 293.064C303.895 292.66 304.1 292.064 304.272 291.74C304.444 291.415 304.64 290.762 304.708 290.287C304.776 289.813 304.935 289.229 305.062 288.988C305.188 288.748 305.362 288.12 305.447 287.592C305.533 287.065 305.665 286.475 305.74 286.281C305.917 285.823 306.168 284.448 306.335 283.03C306.407 282.411 306.587 281.675 306.732 281.396C306.978 280.925 306.996 280.302 307 273.041C307.004 265.842 306.98 265.135 306.736 264.477C306.59 264.083 306.407 263.233 306.329 262.589C306.205 261.557 305.747 259.388 305.286 257.64C305.201 257.32 305.03 256.666 304.905 256.186C304.78 255.707 304.524 254.917 304.337 254.431C304.149 253.945 303.948 253.291 303.888 252.979C303.829 252.667 303.624 252.123 303.433 251.771C303.243 251.419 303.088 250.985 303.088 250.808C303.088 250.631 302.957 250.323 302.797 250.124C302.637 249.924 302.445 249.489 302.369 249.157C302.293 248.824 302.134 248.407 302.016 248.229C301.899 248.05 301.716 247.644 301.61 247.326C301.504 247.009 301.295 246.551 301.145 246.31C300.995 246.068 300.872 245.765 300.872 245.636C300.871 245.506 300.733 245.227 300.563 245.016C300.394 244.804 299.998 244.157 299.684 243.579C299.37 243.001 298.917 242.168 298.677 241.727C298.438 241.285 297.936 240.476 297.562 239.927C297.188 239.379 296.882 238.844 296.882 238.739C296.882 238.633 296.797 238.494 296.693 238.431C296.492 238.307 295.133 236.524 294.497 235.55C294.287 235.229 293.674 234.494 293.135 233.916C292.596 233.338 292.154 232.806 292.154 232.734C292.154 232.663 290.761 231.23 289.058 229.551C286.346 226.876 283.248 224.195 281.883 223.342C281.641 223.191 281.144 222.828 280.778 222.534C280.413 222.241 279.881 221.886 279.596 221.746C279.312 221.606 278.891 221.337 278.661 221.149C278.431 220.96 278.157 220.806 278.052 220.806C277.946 220.806 277.779 220.71 277.68 220.593C277.509 220.391 275.304 219.117 274.352 218.671C274.108 218.556 273.808 218.403 273.686 218.331C273.012 217.929 271.057 217.029 270.858 217.029C270.73 217.029 270.375 216.861 270.069 216.657C269.763 216.453 269.223 216.233 268.869 216.168C268.514 216.103 268.113 215.959 267.978 215.849C267.71 215.629 266.356 215.142 264.748 214.688C264.179 214.527 263.581 214.311 263.418 214.209C263.256 214.106 262.79 213.979 262.384 213.927C261.977 213.875 261.303 213.704 260.886 213.548C260.468 213.392 259.595 213.198 258.947 213.118C258.299 213.039 257.511 212.875 257.196 212.755C256.88 212.636 255.891 212.468 254.997 212.382C254.103 212.297 252.774 212.119 252.042 211.987C251.202 211.835 248.594 211.744 246.032 211.727ZM244.6 215.316C244.784 215.324 244.934 215.352 245.067 215.389L241.229 240.334C240.358 240.467 238.787 240.802 238.524 240.931C238.321 241.032 237.796 241.162 237.357 241.22C236.919 241.278 236.221 241.482 235.806 241.672C235.391 241.862 234.918 242.019 234.754 242.019C234.59 242.019 234.211 242.183 233.912 242.383C233.613 242.583 233.215 242.747 233.028 242.751C232.841 242.755 232.422 242.917 232.097 243.114C231.772 243.31 231.399 243.472 231.268 243.472C231.137 243.472 230.778 243.669 230.472 243.909C230.165 244.148 229.828 244.344 229.724 244.344C229.619 244.344 229.346 244.496 229.116 244.681C228.887 244.865 228.4 245.197 228.034 245.417C226.903 246.097 225.87 246.853 224.931 247.686C223.882 248.616 221.887 250.557 221.46 251.062C221.297 251.254 220.931 251.68 220.647 252.009C219.729 253.072 217.84 255.773 217.84 256.024C217.84 256.098 217.686 256.361 217.499 256.609C217.122 257.108 216.067 259.172 216.067 259.412C216.067 259.496 215.969 259.645 215.849 259.743C215.73 259.841 215.589 260.159 215.536 260.451C215.483 260.742 215.312 261.189 215.157 261.444C215.001 261.698 214.777 262.356 214.661 262.907C214.544 263.457 214.355 264.131 214.241 264.406C214.126 264.68 213.946 265.489 213.84 266.203C213.717 267.029 213.555 267.593 213.394 267.751C213.005 268.134 211.704 268.445 209.542 268.673C208.458 268.787 207.281 268.982 206.925 269.107C206.57 269.233 205.956 269.336 205.562 269.335C204.691 269.335 202.938 269.59 202.031 269.848C201.665 269.952 200.768 270.082 200.037 270.138C199.306 270.193 197.96 270.395 197.048 270.586C196.135 270.777 195.141 270.934 194.84 270.934C194.226 270.934 192.913 271.151 191.68 271.457C191.227 271.569 190.426 271.66 189.9 271.66C189.373 271.66 188.872 271.728 188.787 271.812C188.68 271.917 188.577 271.897 188.451 271.747C188.314 271.585 188.294 271.064 188.373 269.67C188.431 268.647 188.533 267.668 188.599 267.494C188.665 267.32 188.792 266.339 188.882 265.314C188.972 264.289 189.174 262.951 189.33 262.341C189.486 261.73 189.657 260.848 189.709 260.38C189.761 259.911 189.995 258.96 190.229 258.265C190.464 257.571 190.655 256.817 190.655 256.59C190.655 256.364 190.754 256.039 190.875 255.869C190.997 255.699 191.171 255.21 191.264 254.783C191.357 254.356 191.59 253.668 191.783 253.254C191.975 252.839 192.133 252.342 192.133 252.15C192.133 251.957 192.265 251.681 192.428 251.536C192.591 251.391 192.794 251.005 192.878 250.678C193.095 249.84 193.746 248.395 194.061 248.05C194.207 247.89 194.369 247.592 194.42 247.388C194.472 247.184 194.775 246.53 195.095 245.935C195.415 245.34 195.801 244.59 195.953 244.27C196.105 243.949 196.338 243.598 196.471 243.489C196.604 243.381 196.713 243.205 196.713 243.099C196.713 242.914 197.326 241.916 197.911 241.148C198.063 240.948 198.294 240.597 198.424 240.367C198.553 240.137 198.936 239.604 199.274 239.183C199.612 238.761 200.088 238.139 200.332 237.799C202.545 234.72 207.526 229.713 210.805 227.272C211.127 227.033 211.628 226.659 211.919 226.443C212.853 225.747 213.951 225.02 214.068 225.02C214.13 225.02 214.396 224.84 214.659 224.62C214.921 224.4 215.357 224.09 215.627 223.931C216.623 223.34 217.481 222.852 217.84 222.672C218.043 222.571 218.415 222.338 218.666 222.155C218.918 221.973 219.239 221.824 219.382 221.824C219.524 221.824 219.821 221.697 220.042 221.543C220.262 221.389 220.721 221.153 221.062 221.019C221.403 220.885 221.681 220.719 221.681 220.651C221.681 220.583 222.016 220.429 222.426 220.309C222.835 220.19 223.342 219.959 223.553 219.796C223.764 219.633 224.111 219.498 224.323 219.498C224.536 219.498 224.909 219.391 225.153 219.261C225.78 218.927 227.768 218.228 229.028 217.899C229.615 217.746 230.28 217.527 230.505 217.412C230.731 217.298 231.31 217.155 231.792 217.096C232.274 217.036 232.959 216.862 233.314 216.708C233.668 216.554 234.597 216.363 235.377 216.284C236.156 216.206 237.167 216.046 237.622 215.929C238.561 215.687 241.853 215.374 242.175 215.495C242.291 215.539 242.841 215.501 243.395 215.411C243.872 215.334 244.275 215.302 244.6 215.316ZM247.795 215.384C248.221 215.388 248.929 215.427 250.121 215.485C252.759 215.614 253.896 215.731 254.554 215.941C254.879 216.045 255.742 216.205 256.472 216.298C257.202 216.39 258.166 216.586 258.614 216.732C259.063 216.878 259.795 217.042 260.242 217.096C260.689 217.15 261.32 217.309 261.645 217.45C261.97 217.59 262.635 217.789 263.123 217.89C263.611 217.992 264.209 218.191 264.452 218.334C264.696 218.477 265.128 218.64 265.413 218.697C265.697 218.753 266.152 218.924 266.422 219.077C266.693 219.23 267.225 219.424 267.604 219.508C267.984 219.592 268.427 219.779 268.59 219.923C268.752 220.068 269.137 220.223 269.445 220.269C269.752 220.315 270.207 220.52 270.453 220.724C270.7 220.928 271.03 221.095 271.186 221.095C271.342 221.095 271.593 221.216 271.744 221.364C271.894 221.512 272.236 221.708 272.503 221.8C272.929 221.946 273.798 222.429 276.173 223.839C276.525 224.048 277.024 224.389 277.282 224.595C277.539 224.801 277.871 225.013 278.019 225.066C278.327 225.177 281.337 227.385 282.098 228.058C282.377 228.304 282.657 228.506 282.721 228.506C282.906 228.506 287.812 233.349 289.506 235.205C290.353 236.132 291.279 237.231 291.563 237.646C292.199 238.574 292.818 239.404 293.092 239.694C293.205 239.814 293.413 240.135 293.555 240.407C293.696 240.68 294.093 241.3 294.437 241.787C294.781 242.274 295.156 242.844 295.271 243.052C295.385 243.261 295.693 243.828 295.955 244.313C296.218 244.797 296.5 245.235 296.584 245.286C296.667 245.336 296.734 245.494 296.734 245.637C296.734 245.78 296.896 246.082 297.094 246.308C297.292 246.535 297.496 246.888 297.547 247.094C297.597 247.299 297.801 247.711 297.999 248.009C298.198 248.307 298.359 248.653 298.359 248.778C298.359 248.903 298.526 249.313 298.729 249.689C298.932 250.064 299.099 250.455 299.099 250.559C299.099 250.662 299.256 251.055 299.449 251.432C299.642 251.809 299.846 252.323 299.901 252.575C299.957 252.826 300.131 253.281 300.288 253.584C300.445 253.887 300.612 254.367 300.659 254.651C300.706 254.935 300.906 255.536 301.103 255.985C301.301 256.435 301.462 257.008 301.462 257.26C301.462 257.511 301.619 258.098 301.812 258.564C302.007 259.035 302.21 259.919 302.27 260.558C302.329 261.19 302.499 262.066 302.648 262.506C302.803 262.963 302.993 264.206 303.092 265.412C303.187 266.57 303.348 267.845 303.45 268.245C303.552 268.645 303.604 269.382 303.565 269.884C303.526 270.39 303.575 271.078 303.675 271.43C303.774 271.779 303.81 272.208 303.753 272.384C303.748 272.4 303.743 272.412 303.738 272.427L303.742 272.412L278.692 268.179C278.722 268.067 278.662 267.953 278.513 267.697C278.367 267.447 278.19 266.749 278.119 266.146C278.047 265.542 277.882 264.754 277.749 264.394C277.617 264.035 277.448 263.389 277.375 262.958C277.302 262.528 277.141 262.065 277.017 261.93C276.894 261.795 276.697 261.396 276.582 261.042C276.302 260.187 275.609 258.553 275.435 258.34C275.358 258.246 275.042 257.652 274.731 257.019C274.251 256.043 272.366 253.144 272.064 252.916C272.011 252.876 271.652 252.451 271.266 251.972C270.483 250.998 266.032 246.668 265.815 246.668C265.738 246.668 265.263 246.35 264.758 245.96C264.254 245.57 263.338 244.979 262.721 244.646C262.104 244.313 261.518 243.945 261.42 243.829C261.322 243.712 261.18 243.617 261.106 243.617C261.031 243.617 260.557 243.429 260.052 243.199C259.548 242.969 258.969 242.733 258.766 242.674C258.563 242.615 258.197 242.451 257.953 242.31C257.709 242.169 257.255 242.009 256.943 241.955C256.631 241.9 256.125 241.726 255.818 241.569C255.511 241.412 254.89 241.224 254.438 241.152C253.986 241.079 253.31 240.918 252.935 240.793C252.561 240.668 252.037 240.566 251.771 240.566C250.985 240.566 250.824 240.334 250.658 238.968C250.576 238.288 250.407 237.307 250.283 236.788C250.158 236.268 249.985 235.157 249.898 234.318C249.811 233.479 249.644 232.428 249.528 231.984C249.412 231.539 249.249 230.424 249.167 229.507C249.085 228.589 248.919 227.515 248.796 227.119C248.673 226.723 248.534 225.843 248.487 225.164C248.44 224.485 248.246 223.145 248.056 222.186C247.866 221.227 247.63 219.724 247.532 218.846C247.433 217.968 247.266 217.009 247.16 216.713C247.042 216.385 247.011 216.015 247.079 215.766C247.159 215.478 247.086 215.379 247.796 215.384L247.795 215.384ZM245.657 216.56C245.771 218.243 245.787 223.429 245.787 241.874C245.787 273.265 245.802 271.66 245.48 271.66C245.23 271.66 243.238 269.759 239.595 266.041C238.68 265.108 237.932 264.291 237.932 264.225C237.932 264.203 237.925 264.186 237.914 264.17L238.324 264.231L245.657 216.56ZM236.3 220.56C236.244 220.553 236.185 220.564 236.116 220.583C235.937 220.636 235.325 220.802 234.756 220.951C234.187 221.099 233.475 221.324 233.173 221.45C232.871 221.575 232.42 221.678 232.171 221.678C231.922 221.678 231.323 221.842 230.841 222.041C230.358 222.241 229.772 222.404 229.539 222.404C229.305 222.404 228.996 222.532 228.852 222.689C228.622 222.939 228.61 223.078 228.75 223.862C228.838 224.351 229.037 224.958 229.192 225.212C229.348 225.466 229.517 226.007 229.569 226.413C229.62 226.82 229.787 227.409 229.938 227.721C230.089 228.034 230.286 228.705 230.375 229.213C230.464 229.722 230.61 230.225 230.699 230.331C230.789 230.437 230.985 231.1 231.136 231.804C231.286 232.508 231.514 233.28 231.642 233.52C231.769 233.76 231.875 234.139 231.875 234.363C231.875 234.586 231.967 234.946 232.078 235.162C232.189 235.378 232.387 235.974 232.518 236.488C232.649 237.002 232.84 237.478 232.943 237.546C233.294 237.778 234.785 237.518 236.825 236.868C237.231 236.738 237.929 236.527 238.376 236.397C239.682 236.019 239.854 235.868 239.854 235.105C239.854 234.447 239.66 233.907 239.351 233.704C239.09 233.533 238.38 233.576 237.955 233.79C237.74 233.899 236.966 234.132 236.237 234.309L234.909 234.631L234.666 234.335C234.532 234.173 234.378 233.685 234.323 233.251C234.268 232.817 234.128 232.341 234.013 232.192C233.899 232.043 233.805 231.675 233.801 231.374C233.796 230.738 233.951 230.642 235.347 230.415C235.835 230.336 236.609 230.069 237.067 229.823L237.9 229.374L237.772 228.814C237.582 227.982 237.402 227.575 237.122 227.346C236.903 227.168 236.725 227.19 235.74 227.517C233.177 228.369 233.027 228.377 232.744 227.676C232.655 227.454 232.454 226.978 232.299 226.618C231.936 225.777 231.896 224.793 232.212 224.482C232.343 224.353 232.865 224.192 233.372 224.124C233.879 224.055 234.399 223.907 234.527 223.793C234.654 223.679 235.252 223.484 235.856 223.361C236.459 223.237 237.002 223.086 237.062 223.024C237.122 222.963 237.213 222.684 237.264 222.404C237.34 221.99 237.272 221.765 236.9 221.191C236.612 220.747 236.469 220.581 236.3 220.56ZM255.35 220.692C255.056 220.678 254.906 220.725 254.804 220.845C254.515 221.188 253.926 223.295 253.815 224.382C253.76 224.933 253.554 225.893 253.358 226.517C253.163 227.14 253.003 227.971 253.003 228.364C253.003 228.756 252.836 229.586 252.633 230.209C252.429 230.831 252.22 231.831 252.168 232.43C252.117 233.03 251.951 233.833 251.8 234.216C251.282 235.528 251.475 236.089 252.561 236.422C253.4 236.679 253.345 236.676 253.637 236.462C253.922 236.254 254.628 234.056 254.628 233.375C254.628 233.124 254.76 232.433 254.921 231.839C255.082 231.245 255.32 230.077 255.448 229.243C255.577 228.41 255.769 227.56 255.876 227.355C255.983 227.149 256.12 226.491 256.18 225.892C256.24 225.292 256.354 224.638 256.434 224.439C256.513 224.239 256.702 223.494 256.852 222.782C257.217 221.058 257.135 220.912 255.694 220.724C255.561 220.707 255.447 220.696 255.35 220.692ZM262.79 222.596C261.675 222.618 260.669 223.137 259.859 224.114C259.501 224.547 259.205 225.01 259.205 225.142C259.205 225.275 259.068 225.671 258.906 226.023L258.61 226.664L259.049 227.939C259.29 228.64 259.722 229.529 260.01 229.914C261.167 231.462 262.211 233.097 262.342 233.566C262.535 234.252 262.397 234.658 261.769 235.258C261.254 235.75 261.185 235.772 260.166 235.772C259.274 235.772 259.013 235.713 258.557 235.409C258.258 235.209 257.958 235.045 257.892 235.045C257.825 235.045 257.52 234.849 257.213 234.61C256.907 234.37 256.568 234.174 256.462 234.174C256.071 234.174 255.517 234.842 255.335 235.535L255.148 236.242L255.631 236.638C255.896 236.856 256.294 237.115 256.515 237.214C256.736 237.312 257.25 237.565 257.656 237.774C258.063 237.984 258.728 238.198 259.134 238.25C261.788 238.595 263.156 238.118 264.239 236.469L264.822 235.581V234.001C264.822 232.982 264.75 232.255 264.618 231.953C264.444 231.552 263.58 230.327 262.099 228.379C261.321 227.355 261.469 225.895 262.389 225.517C262.666 225.404 263.063 225.31 263.272 225.31C263.873 225.31 265.503 225.879 265.787 226.187C266.081 226.507 266.865 226.692 267.322 226.549C268.027 226.329 268.328 224.836 267.777 224.294C267.614 224.134 267.37 224.003 267.234 224.003C267.099 224.003 266.872 223.901 266.732 223.776C266.316 223.406 264.279 222.723 263.275 222.617C263.111 222.6 262.95 222.593 262.79 222.596ZM223.012 224.875C222.664 224.875 221.386 225.854 221.386 226.121C221.386 226.24 221.555 226.646 221.762 227.023C221.969 227.399 222.246 227.904 222.377 228.144C222.508 228.384 222.669 228.678 222.735 228.798C222.802 228.918 223.198 229.685 223.617 230.503C224.036 231.321 224.47 232.064 224.581 232.155C224.693 232.246 224.784 232.435 224.784 232.574C224.784 232.713 224.912 232.988 225.069 233.185C225.308 233.483 226.113 235.101 226.113 235.282C226.113 235.425 224.753 234.342 223.508 233.207C222.749 232.516 221.945 231.837 221.72 231.698C221.496 231.56 220.713 230.909 219.982 230.25C219.251 229.592 218.396 228.867 218.083 228.64L217.514 228.226L216.958 228.505C216.652 228.659 216.2 228.95 215.954 229.154C215.708 229.358 215.455 229.524 215.392 229.524C215.329 229.524 215.156 229.633 215.007 229.765C214.603 230.124 214.654 230.908 215.107 231.295C215.31 231.469 215.476 231.657 215.476 231.715C215.476 231.861 216.54 233.567 217.566 235.065C218.042 235.76 218.431 236.393 218.431 236.472C218.431 236.551 218.647 236.88 218.911 237.203C219.583 238.024 220.632 239.642 221.634 241.402C221.81 241.712 222.053 242.046 222.172 242.143C222.291 242.24 222.47 242.514 222.569 242.751C222.708 243.081 222.847 243.182 223.156 243.182C223.543 243.182 224.59 242.599 224.818 242.256C225.062 241.889 224.92 241.246 224.488 240.763C224.245 240.49 224.045 240.17 224.045 240.053C224.045 239.936 223.975 239.84 223.889 239.84C223.803 239.84 223.594 239.53 223.424 239.15C223.255 238.771 223.076 238.428 223.027 238.388C222.82 238.221 222.03 237.12 221.827 236.716C221.707 236.477 221.359 235.921 221.054 235.481C220.517 234.707 220.349 234.174 220.642 234.174C220.792 234.174 221.368 234.633 222.73 235.839C223.185 236.242 223.983 236.946 224.503 237.403C225.023 237.861 225.715 238.472 226.04 238.761C227.066 239.673 227.771 240.131 228.15 240.131C228.634 240.131 229.697 239.601 230.374 239.024L230.915 238.563L230.435 237.64C230.171 237.132 229.889 236.618 229.808 236.498C229.726 236.378 229.588 236.117 229.501 235.917C229.415 235.717 229.149 235.227 228.911 234.828C228.674 234.428 228.377 233.872 228.253 233.593C228.128 233.313 227.949 232.953 227.855 232.793C227.4 232.023 226.667 230.7 226.407 230.178C226.247 229.858 226.054 229.499 225.977 229.379C225.9 229.259 225.724 228.932 225.586 228.652C225.269 228.008 224.866 227.287 224.408 226.545C224.211 226.226 224.048 225.855 224.048 225.721C224.044 225.428 223.368 224.875 223.012 224.875ZM271.964 226.657C271.862 226.662 271.768 226.706 271.633 226.78C271.422 226.896 271.157 227.186 271.044 227.423C270.932 227.66 270.747 227.959 270.633 228.089C270.342 228.419 269.438 229.912 269.334 230.234C269.286 230.382 269.116 230.62 268.955 230.763C268.795 230.905 268.663 231.105 268.663 231.207C268.663 231.308 268.504 231.576 268.31 231.803C268.117 232.029 267.847 232.443 267.712 232.722C267.281 233.607 266.922 234.195 266.606 234.526C266.438 234.702 266.299 234.956 266.299 235.091C266.299 235.226 266.166 235.467 266.004 235.626C265.841 235.786 265.708 235.971 265.708 236.037C265.708 236.157 265.239 236.906 264.27 238.332C263.992 238.741 263.731 239.33 263.689 239.64C263.619 240.159 263.653 240.225 264.107 240.482C264.378 240.635 264.819 240.946 265.086 241.172C265.353 241.399 265.637 241.584 265.718 241.584C265.799 241.584 266.544 242.041 267.375 242.601C268.561 243.4 269 243.618 269.421 243.618C269.94 243.618 269.967 243.59 270.284 242.757C270.652 241.788 270.599 241.413 270.058 241.171C269.854 241.079 269.606 240.937 269.508 240.855C269.409 240.774 268.867 240.415 268.304 240.057C267.741 239.7 267.233 239.334 267.175 239.242C267.025 239.003 267.275 238.25 267.626 237.882C267.79 237.71 267.925 237.508 267.925 237.433C267.925 237.358 268.157 236.975 268.441 236.581C268.726 236.188 268.959 235.792 268.959 235.701C268.959 235.61 269.258 235.097 269.623 234.56C269.989 234.024 270.288 233.548 270.288 233.502C270.288 233.456 270.59 232.951 270.958 232.38C272.63 229.785 273.55 228.131 273.508 227.792C273.478 227.549 273.24 227.304 272.742 227.004C272.321 226.75 272.133 226.649 271.964 226.657ZM210.306 235.198C209.874 235.198 209.44 235.262 209.229 235.392C209.049 235.503 208.653 235.637 208.35 235.689C207.67 235.806 206.637 236.697 205.892 237.806L205.355 238.605V240.519C205.355 242.304 205.378 242.456 205.688 242.781C205.871 242.972 206.02 243.17 206.02 243.222C206.02 243.356 207.8 245.659 208.23 246.082C208.428 246.276 209.026 246.764 209.558 247.164C210.091 247.564 210.692 248.042 210.894 248.225C211.097 248.408 211.315 248.558 211.379 248.558C211.444 248.558 211.672 248.673 211.885 248.813C212.098 248.953 212.71 249.207 213.246 249.378V249.382C213.782 249.554 214.514 249.701 214.873 249.709C215.624 249.726 217.21 249.152 217.955 248.593C218.691 248.041 219.398 246.878 219.746 245.646C220.056 244.549 220.056 244.545 219.772 243.481C219.615 242.894 219.364 242.245 219.215 242.037C219.066 241.83 218.853 241.486 218.743 241.273C218.496 240.797 216.243 238.35 215.57 237.828C213.915 236.543 212.763 235.818 212.192 235.701C211.926 235.647 211.561 235.51 211.382 235.398C211.171 235.266 210.739 235.2 210.306 235.2V235.198ZM283.567 235.656C283.473 235.656 283.362 235.671 283.218 235.694C282.892 235.745 282.455 235.947 282.247 236.143C282.04 236.339 281.799 236.498 281.711 236.498C281.624 236.498 281.47 236.596 281.369 236.716C281.269 236.835 280.712 237.191 280.133 237.506C279.554 237.821 278.946 238.199 278.784 238.346C278.621 238.493 278.163 238.808 277.766 239.046C276.859 239.588 276.123 240.025 275.459 240.417C275.175 240.585 274.344 241.114 273.612 241.592C272.881 242.071 272.078 242.555 271.828 242.668C271.578 242.782 271.29 242.974 271.188 243.094C271.087 243.214 270.776 243.387 270.499 243.477C269.931 243.661 269.939 243.64 270.144 244.365C270.311 244.957 271.488 246.023 271.832 245.893C271.943 245.851 272.464 245.522 272.989 245.161L273.944 244.504L274.375 244.824C275.059 245.331 276.05 246.461 276.05 246.733C276.05 247.031 275.335 248.267 275.162 248.267C275.094 248.267 274.962 248.499 274.867 248.782C274.674 249.356 274.761 249.558 275.572 250.411C275.819 250.671 276.058 250.883 276.103 250.883C276.422 250.883 276.996 250.458 277.265 250.022C277.442 249.736 277.623 249.47 277.669 249.43C277.819 249.297 278.625 248.209 279.335 247.178C279.721 246.619 280.269 245.866 280.554 245.507C280.84 245.147 281.156 244.69 281.256 244.49C281.357 244.29 281.526 244.06 281.632 243.979C281.738 243.898 281.905 243.691 282.003 243.519C282.102 243.347 282.481 242.826 282.847 242.359C283.213 241.893 283.777 241.119 284.101 240.64C284.424 240.16 284.939 239.464 285.245 239.094C285.885 238.319 285.953 237.802 285.467 237.417C285.283 237.272 284.835 236.803 284.472 236.377C283.991 235.811 283.851 235.658 283.567 235.656ZM210.1 238.009C210.656 238.028 211.25 238.219 211.807 238.623C212.069 238.813 212.345 238.969 212.422 238.969C212.571 238.969 214.392 240.54 215.082 241.265C215.911 242.135 216.028 242.275 216.495 242.943C216.756 243.316 217.042 243.963 217.131 244.382C217.277 245.064 217.26 245.209 216.97 245.767C216.792 246.11 216.433 246.518 216.172 246.674C215.404 247.135 214.106 246.985 213.147 246.325C212.843 246.116 212.284 245.73 211.905 245.466C211.001 244.839 208.538 242.305 208.534 242.001C208.534 241.871 208.432 241.683 208.309 241.583C208.187 241.483 207.997 241.1 207.888 240.731C207.436 239.207 208.496 238.084 209.864 238.011C209.942 238.007 210.021 238.006 210.1 238.007V238.009ZM280.839 240.271C280.995 240.291 280.882 240.551 280.517 241.091C280.295 241.419 279.93 241.958 279.705 242.29C279.481 242.621 279.236 242.892 279.161 242.892C279.087 242.892 278.985 243.014 278.937 243.165C278.888 243.315 278.651 243.643 278.409 243.892C278.167 244.141 277.877 244.344 277.765 244.344C277.522 244.344 276.789 243.435 276.789 243.134C276.789 242.915 277.393 242.366 278.333 241.729C278.629 241.53 279.035 241.245 279.237 241.098C279.439 240.951 279.901 240.675 280.265 240.485C280.555 240.333 280.746 240.259 280.839 240.271ZM201.879 243.328C201.736 243.328 201.531 243.556 201.389 243.872C201.254 244.172 201.045 244.581 200.924 244.781C200.714 245.128 200.507 245.528 199.8 246.953C199.624 247.308 199.19 248.082 198.835 248.672C198.48 249.262 198.19 249.833 198.19 249.942C198.19 250.051 198.13 250.176 198.056 250.221C197.983 250.265 197.713 250.668 197.457 251.114C196.797 252.265 196.907 252.667 198.014 253.149C198.471 253.348 198.979 253.492 199.143 253.468C199.422 253.428 199.846 252.808 200.512 251.464C200.976 250.527 201.08 250.46 201.726 250.678C202.039 250.784 202.545 251.037 202.849 251.24C203.153 251.443 203.484 251.61 203.583 251.61C203.683 251.61 203.923 251.73 204.117 251.879C204.311 252.027 204.711 252.226 205.006 252.321C205.3 252.415 205.654 252.615 205.792 252.765C205.93 252.914 206.213 253.078 206.421 253.13C206.629 253.181 207.006 253.378 207.259 253.567C207.512 253.757 207.899 253.956 208.12 254.01C208.34 254.064 208.597 254.2 208.692 254.312C208.786 254.424 208.945 254.515 209.045 254.515C209.144 254.515 209.519 254.71 209.876 254.949C210.234 255.187 210.626 255.385 210.748 255.385C210.87 255.385 211.169 255.549 211.413 255.746C211.657 255.943 212.039 256.105 212.262 256.108C212.723 256.114 213.26 255.663 213.26 255.27C213.26 255.125 213.357 254.88 213.477 254.725C213.596 254.57 213.695 254.341 213.698 254.216C213.704 253.97 212.621 253.158 212.058 252.986C211.866 252.927 211.535 252.759 211.324 252.612C211.112 252.466 210.107 251.93 209.091 251.421C208.075 250.912 207.051 250.362 206.817 250.2C206.582 250.037 206.223 249.855 206.02 249.794C205.817 249.734 205.558 249.611 205.445 249.521C205.213 249.337 204.012 248.706 203.176 248.329C202.862 248.187 202.622 247.974 202.622 247.838C202.622 247.55 203.304 246.155 203.683 245.669C204.009 245.249 204.032 244.521 203.732 244.101C203.519 243.802 202.383 243.328 201.879 243.328ZM290.209 243.909C289.952 243.909 288.491 244.614 288.379 244.793C288.325 244.879 288.005 245.079 287.669 245.237C287.332 245.395 286.858 245.637 286.614 245.774C285.233 246.552 284.646 246.906 284.237 247.206C283.985 247.39 283.698 247.541 283.598 247.541C283.499 247.541 283.206 247.697 282.947 247.887C282.531 248.192 281.982 248.507 279.553 249.832C279.22 250.014 278.845 250.251 278.718 250.36C278.592 250.469 278.348 250.6 278.178 250.651C278.007 250.702 277.585 250.992 277.24 251.296L276.614 251.848L276.992 252.418C277.721 253.52 277.84 253.643 278.17 253.643C278.352 253.643 278.632 253.546 278.791 253.426C279.384 252.978 280.221 252.471 280.682 252.282C280.944 252.174 281.666 251.783 282.287 251.412C282.909 251.041 283.476 250.738 283.549 250.738C283.622 250.738 283.837 250.574 284.028 250.374C284.219 250.174 284.481 250.01 284.609 250.01C284.737 250.01 285.051 249.884 285.307 249.73C285.563 249.577 285.808 249.485 285.851 249.527C286.03 249.703 284.675 251.267 282.219 253.717C280.116 255.814 279.596 256.41 279.596 256.727C279.596 257.132 280.347 258.745 280.748 259.201C281.071 259.568 281.411 259.519 282.508 258.947C283.044 258.667 283.545 258.438 283.622 258.438C283.699 258.438 283.938 258.317 284.153 258.169C284.369 258.021 284.737 257.854 284.971 257.799C285.205 257.743 285.636 257.537 285.929 257.341C286.222 257.146 286.547 256.985 286.651 256.985C286.756 256.985 287.553 256.626 288.42 256.187C289.288 255.747 290.102 255.387 290.229 255.387C290.356 255.387 290.692 255.233 290.975 255.044C291.258 254.856 291.656 254.651 291.859 254.588C292.062 254.526 292.386 254.354 292.58 254.205C292.774 254.056 293.101 253.934 293.306 253.934C293.698 253.934 295.257 252.875 295.257 252.608C295.257 252.361 294.317 250.903 294.103 250.817C293.996 250.775 293.663 250.867 293.364 251.023C292.393 251.527 290.88 252.19 290.699 252.19C290.602 252.19 290.274 252.353 289.969 252.551C289.665 252.749 289.205 252.952 288.946 253.003C288.687 253.054 288.363 253.219 288.224 253.37C288.085 253.52 287.889 253.643 287.788 253.643C287.687 253.643 287.225 253.84 286.762 254.08C285.792 254.581 285.21 254.648 285.21 254.258C285.21 254.116 285.958 253.247 286.872 252.328C289.8 249.383 291.632 247.393 291.825 246.946C291.995 246.553 291.973 246.443 291.604 245.813C290.895 244.607 290.384 243.909 290.209 243.909ZM252.022 244.344C252.478 244.344 254.626 244.888 254.834 245.056C254.924 245.13 255.263 245.236 255.589 245.293C255.914 245.35 256.279 245.479 256.401 245.579C256.523 245.678 256.888 245.842 257.213 245.942C257.949 246.169 259.578 246.905 260.084 247.239C260.293 247.377 260.774 247.697 261.153 247.951C261.532 248.204 261.88 248.412 261.927 248.412C262.214 248.412 264.684 250.35 265.935 251.558C268.099 253.647 269.138 254.872 270.398 256.814C270.622 257.16 270.921 257.618 271.062 257.831C271.203 258.044 271.381 258.317 271.458 258.437C271.535 258.557 271.841 259.178 272.137 259.818C272.434 260.457 272.803 261.242 272.958 261.561C273.294 262.251 273.807 263.654 274.02 264.467C274.104 264.786 274.333 265.592 274.528 266.256C274.678 266.764 274.798 267.261 274.842 267.529L254.676 264.121L254.62 264.438C254.6 264.169 254.453 263.322 254.27 262.431C254.073 261.473 253.868 260.134 253.814 259.454C253.76 258.775 253.589 257.718 253.433 257.105C253.278 256.493 253.151 255.767 253.151 255.494C253.151 254.844 252.751 252.23 252.619 252.021C252.563 251.931 252.4 250.903 252.258 249.735C252.115 248.568 251.884 247.044 251.744 246.348C251.447 244.87 251.52 244.344 252.022 244.344ZM240.6 244.423L237.57 264.118L237.617 264.125C237.473 264.153 237.31 264.219 237.19 264.327C237.026 264.472 236.413 264.595 235.405 264.683C234.561 264.756 233.305 264.949 232.616 265.112C231.927 265.274 230.764 265.451 230.031 265.504C229.298 265.557 228.457 265.684 228.162 265.785C227.867 265.887 226.969 266.047 226.167 266.141C225.365 266.236 224.111 266.413 223.38 266.535C221.272 266.888 219.401 267.124 219.274 267.052C219.209 267.015 218.835 267.1 218.442 267.239C217.684 267.507 217.249 267.453 217.249 267.09C217.249 266.813 218 264.2 218.442 262.942C218.946 261.506 220.69 258.072 221.57 256.783C221.712 256.575 221.945 256.231 222.087 256.019C222.229 255.807 222.445 255.488 222.567 255.31C223.583 253.821 227.364 250.155 228.893 249.177C229.488 248.797 230.195 248.305 230.465 248.086C230.734 247.866 231.018 247.686 231.097 247.686C231.176 247.686 231.504 247.498 231.828 247.267C232.151 247.037 232.622 246.804 232.874 246.749C233.126 246.695 233.408 246.56 233.501 246.45C233.594 246.339 234.015 246.138 234.435 246.001C234.855 245.865 235.332 245.668 235.495 245.564C235.657 245.461 236.09 245.331 236.456 245.276C236.821 245.221 237.418 245.006 237.781 244.799C238.362 244.469 238.608 244.424 239.808 244.424C240.152 244.424 240.401 244.43 240.6 244.423ZM196.452 255.14C196.177 255.136 196.038 255.24 195.709 255.574C195.398 255.89 195.193 256.27 195.135 256.635C195.086 256.948 194.897 257.497 194.716 257.857C194.457 258.371 194.382 258.791 194.364 259.819C194.342 261.05 194.371 261.182 194.849 262.071C195.128 262.59 195.518 263.113 195.717 263.233C195.915 263.353 196.244 263.568 196.449 263.71C197.029 264.111 198.503 264.317 199.339 264.111C200.337 263.864 201.52 263.167 202.587 262.195C203.851 261.043 204.979 260.224 205.467 260.105C206.193 259.927 206.844 260.147 207.289 260.72C207.667 261.207 207.698 261.345 207.675 262.423C207.653 263.488 207.594 263.701 207.051 264.726C206.393 265.967 206.401 266.066 207.199 266.645C207.789 267.073 208.38 267.114 208.794 266.756C209.385 266.247 210.458 263.186 210.454 262.019C210.45 261.274 210.012 259.909 209.563 259.255C209.017 258.459 207.955 257.774 206.934 257.559C205.892 257.339 204.113 257.566 203.567 257.989C203.351 258.156 203.114 258.293 203.042 258.293C202.97 258.293 202.397 258.781 201.769 259.376C199.385 261.638 198.464 261.979 197.508 260.953C196.849 260.245 196.852 259.652 197.522 257.773C197.805 256.98 198.039 256.186 198.039 256.008C198.043 255.611 197.574 255.301 196.785 255.176C196.651 255.155 196.544 255.141 196.452 255.14ZM295.848 256.853C295.437 256.861 294.962 256.938 294.592 257.079C294.267 257.204 293.602 257.4 293.115 257.514C292.627 257.628 291.729 257.878 291.12 258.07C290.51 258.261 289.748 258.46 289.426 258.513C289.104 258.565 288.663 258.699 288.447 258.808C288.231 258.918 287.618 259.077 287.085 259.161C286.552 259.245 285.806 259.444 285.428 259.603C285.05 259.762 284.465 259.931 284.126 259.977C283.374 260.081 281.4 260.911 281.301 261.166C281.261 261.267 281.351 261.66 281.503 262.038C281.654 262.415 281.859 263.117 281.958 263.596C282.248 265.001 282.931 266.822 283.354 267.317C283.57 267.57 284.027 267.966 284.368 268.199C284.969 268.608 285.037 268.62 286.466 268.572C287.5 268.537 288.088 268.447 288.424 268.271C288.688 268.134 289.401 267.959 290.01 267.883C290.619 267.807 291.381 267.613 291.704 267.451C292.026 267.289 292.425 267.156 292.59 267.156C292.755 267.156 293.24 267.022 293.667 266.857C294.094 266.692 294.786 266.466 295.203 266.355C296.445 266.023 297.244 265.394 297.777 264.329C298.333 263.218 298.374 262.342 297.925 261.221C297.758 260.803 297.621 260.265 297.621 260.024C297.621 259.784 297.52 259.393 297.396 259.157C297.272 258.922 297.105 258.392 297.026 257.98C296.946 257.569 296.807 257.144 296.716 257.036C296.604 256.904 296.259 256.844 295.848 256.853ZM294.16 260.079C294.317 260.075 294.46 260.09 294.581 260.119C294.854 260.187 294.997 260.357 295.106 260.742C295.324 261.515 295.29 262.603 295.033 263.092C294.79 263.555 294.131 263.96 293.622 263.96C293.446 263.96 293.061 264.087 292.765 264.242C292.47 264.398 291.736 264.629 291.134 264.757C290.533 264.886 289.924 265.052 289.78 265.127C289.637 265.203 288.833 265.396 287.993 265.556C287.153 265.716 286.466 265.842 286.466 265.834C286.466 265.826 286.219 265.721 285.917 265.599C285.476 265.421 285.32 265.245 285.117 264.705C284.978 264.335 284.805 263.955 284.732 263.861C284.66 263.767 284.622 263.44 284.647 263.135C284.691 262.615 284.731 262.572 285.284 262.461C285.609 262.396 286.407 262.186 287.057 261.995C289.711 261.212 290.783 260.926 291.415 260.829C291.781 260.774 292.313 260.614 292.597 260.475C293.092 260.232 293.689 260.087 294.16 260.079ZM254.578 264.683L254.547 264.86L275.186 268.347C275.567 268.49 276.246 268.617 277.085 268.689C277.175 268.697 277.224 268.699 277.3 268.705L299.156 272.398C299.048 272.42 298.947 272.439 298.821 272.471C298.001 272.676 296.97 272.718 292.45 272.733C286.607 272.752 247.191 272.6 247.13 272.558C246.944 272.429 247.251 271.987 248.09 271.176C253.289 266.16 254.373 265.094 254.577 264.684L254.578 264.683ZM196.822 272.857C197.66 272.865 198.065 272.903 198.202 272.975C198.452 273.107 204.017 273.144 221.629 273.13L244.728 273.111V273.461C244.728 273.725 243.811 274.719 241.034 277.467C238.729 279.748 237.686 280.846 237.42 281.283L237.446 281.133L217.189 277.723L217.173 277.55L216.583 277.431C216.258 277.366 215.411 277.277 214.7 277.232C214.482 277.218 214.299 277.212 214.135 277.21L206.984 276.006C207.127 276.01 207.209 275.978 207.162 275.932C207.138 275.908 207.094 275.894 207.043 275.892C206.992 275.889 206.932 275.9 206.879 275.92C206.822 275.943 206.802 275.962 206.815 275.977L198.153 274.519C198.163 274.507 198.166 274.494 198.153 274.479C198.128 274.454 198.084 274.441 198.032 274.439C197.981 274.435 197.922 274.447 197.869 274.467C197.865 274.467 197.865 274.471 197.863 274.471L189.678 273.093C189.773 273.076 189.872 273.058 189.918 273.045C190.04 273.011 191.88 272.942 194.008 272.893C194.723 272.876 195.328 272.865 195.837 272.86C196.218 272.855 196.545 272.855 196.825 272.856L196.822 272.857ZM188.34 273.629L213.322 277.833C213.354 277.919 213.396 278.015 213.448 278.122C213.576 278.385 213.756 279.148 213.849 279.817C213.943 280.485 214.139 281.327 214.286 281.686C214.433 282.046 214.601 282.666 214.659 283.064C214.717 283.462 214.891 283.963 215.046 284.177C215.202 284.392 215.37 284.786 215.421 285.052C215.471 285.319 215.703 285.871 215.937 286.281C216.17 286.69 216.361 287.143 216.361 287.286C216.361 287.43 216.462 287.657 216.585 287.791C216.708 287.925 217.059 288.519 217.365 289.11C217.671 289.702 218.191 290.545 218.522 290.985C218.852 291.424 219.235 291.981 219.373 292.221C219.742 292.861 220.267 293.55 220.743 294.016C220.974 294.242 221.96 295.229 222.935 296.21C224.659 297.945 225.818 298.959 226.923 299.703C227.219 299.902 227.65 300.213 227.879 300.393C228.109 300.573 228.365 300.72 228.449 300.72C228.533 300.72 228.793 300.88 229.028 301.074C229.264 301.269 229.629 301.471 229.841 301.523C230.053 301.575 230.335 301.735 230.467 301.879C230.6 302.023 231.219 302.353 231.845 302.612C232.47 302.871 233.393 303.271 233.896 303.5C234.399 303.729 234.932 303.916 235.08 303.916C235.229 303.916 235.609 304.053 235.927 304.22C236.244 304.388 236.941 304.591 237.476 304.673C238.011 304.754 238.625 304.91 238.842 305.02C239.058 305.129 239.6 305.261 240.045 305.312C240.491 305.364 240.938 305.457 241.041 305.519C241.15 305.586 241.272 306.132 241.336 306.845C241.396 307.512 241.577 308.711 241.74 309.511C241.902 310.31 242.08 311.549 242.135 312.263C242.191 312.978 242.327 313.778 242.439 314.042C242.552 314.306 242.689 315.095 242.745 315.794C242.801 316.494 242.976 317.752 243.134 318.592C243.293 319.431 243.451 320.346 243.486 320.626C243.521 320.906 243.623 321.723 243.712 322.442C243.802 323.161 243.962 324.077 244.069 324.476C244.175 324.876 244.338 325.963 244.43 326.893C244.522 327.823 244.686 328.915 244.795 329.321C244.961 329.933 244.961 330.086 244.799 330.218C244.533 330.436 243.845 330.461 241.331 330.345C239.267 330.25 237.954 330.084 236.987 329.796C236.735 329.721 236.064 329.626 235.495 329.585C234.926 329.544 233.929 329.343 233.279 329.138C232.629 328.934 231.839 328.764 231.523 328.764C231.208 328.764 230.738 328.633 230.478 328.475C230.219 328.318 229.546 328.085 228.983 327.958C228.421 327.83 227.82 327.637 227.649 327.528C227.478 327.42 227.08 327.284 226.763 327.227C226.447 327.17 225.873 326.97 225.49 326.781C225.107 326.592 224.69 326.438 224.564 326.438C224.439 326.438 223.982 326.242 223.55 326.002C223.119 325.762 222.648 325.566 222.504 325.566C222.361 325.566 222.067 325.444 221.852 325.296C221.636 325.147 221.216 324.947 220.917 324.852C220.619 324.757 220.298 324.587 220.204 324.476C220.11 324.364 219.788 324.196 219.49 324.102C219.192 324.008 218.748 323.792 218.505 323.621C218.261 323.451 217.762 323.154 217.396 322.961C216.762 322.628 216.458 322.44 214.843 321.38C214.455 321.125 214.088 320.917 214.027 320.917C213.966 320.917 213.471 320.573 212.927 320.154C212.383 319.734 211.459 319.031 210.873 318.592C210.287 318.152 209.701 317.695 209.571 317.575C209.441 317.455 209.104 317.185 208.821 316.976C208.17 316.493 202.818 311.187 202.495 310.703C202.362 310.504 201.917 309.986 201.506 309.552C201.095 309.118 200.563 308.455 200.324 308.079C200.085 307.702 199.557 306.976 199.15 306.467C198.744 305.957 198.079 305.006 197.673 304.355C197.267 303.703 196.774 302.929 196.579 302.635C196.384 302.341 196.102 301.831 195.953 301.502C195.804 301.173 195.581 300.822 195.458 300.722C195.336 300.621 195.235 300.426 195.235 300.287C195.235 300.148 195.069 299.793 194.866 299.499C194.663 299.204 194.496 298.916 194.496 298.857C194.496 298.798 194.229 298.236 193.902 297.607C193.575 296.978 193.179 296.078 193.021 295.607C192.864 295.136 192.6 294.581 192.434 294.374C192.268 294.166 192.132 293.826 192.128 293.617C192.124 293.408 191.926 292.846 191.685 292.369C191.444 291.892 191.246 291.322 191.246 291.102C191.246 290.883 191.118 290.456 190.963 290.154C190.807 289.852 190.634 289.253 190.577 288.823C190.521 288.393 190.315 287.689 190.121 287.257C189.927 286.826 189.765 286.197 189.765 285.859C189.761 285.522 189.693 284.984 189.608 284.664C188.876 281.889 188.133 275.1 188.341 273.629H188.34ZM246.341 273.856C246.477 273.842 246.677 273.993 246.995 274.324C247.251 274.59 248.872 276.241 250.597 277.993C252.286 279.708 253.753 281.228 253.954 281.468L250.512 302.946C250.434 303.342 250.364 303.717 250.278 304.11C250.159 304.653 250.114 305.02 250.142 305.257L246.398 328.627C246.378 328.272 246.331 327.87 246.257 327.528C246.067 326.647 246.039 322.997 246.053 300.388C246.062 286.021 246.107 274.17 246.153 274.053C246.201 273.931 246.26 273.864 246.341 273.856ZM302.738 274.188C303.145 274.178 303.412 274.206 303.456 274.277C303.645 274.575 303.643 277.1 303.456 277.69C303.355 278.01 303.192 279.22 303.095 280.378C302.999 281.537 302.796 282.877 302.644 283.357C302.492 283.836 302.323 284.65 302.267 285.165C302.211 285.68 302.043 286.452 301.893 286.881C301.743 287.31 301.549 288.048 301.461 288.521C301.374 288.994 301.174 289.661 301.016 290.002C300.859 290.343 300.726 290.812 300.726 291.045C300.722 291.277 300.566 291.736 300.374 292.062C300.181 292.389 299.98 292.899 299.925 293.196C299.87 293.493 299.662 294.016 299.463 294.358C299.264 294.701 299.1 295.152 299.1 295.361C299.1 295.57 298.974 295.897 298.823 296.087C298.672 296.278 298.497 296.598 298.434 296.797C298.371 296.997 298.129 297.559 297.896 298.046C297.664 298.533 297.471 298.991 297.471 299.063C297.471 299.135 297.303 299.348 297.101 299.537C296.899 299.725 296.734 300.027 296.734 300.209C296.734 300.39 296.626 300.628 296.493 300.736C296.36 300.845 296.125 301.196 295.971 301.517C295.467 302.566 294.684 303.913 294.264 304.451C294.038 304.741 293.72 305.193 293.558 305.456C293.094 306.205 290.889 309.171 290.428 309.666C290.199 309.912 289.546 310.626 288.978 311.254C286.25 314.265 283.791 316.547 281.071 318.592C280.486 319.031 279.865 319.524 279.691 319.687C279.517 319.85 278.9 320.262 278.32 320.602C277.74 320.942 277.148 321.348 277.005 321.504C276.861 321.66 276.637 321.79 276.507 321.794C276.378 321.798 276.042 321.994 275.76 322.23C275.479 322.467 275.172 322.66 275.077 322.66C274.982 322.66 274.821 322.759 274.719 322.88C274.617 323.001 274.26 323.227 273.926 323.384C273.591 323.541 273.218 323.726 273.096 323.795C272.974 323.863 272.658 324.028 272.394 324.161C272.13 324.295 271.731 324.498 271.507 324.612C271.284 324.727 270.702 324.993 270.214 325.204C269.727 325.415 268.929 325.781 268.441 326.017C267.954 326.253 267.438 326.446 267.294 326.442C267.15 326.438 266.784 326.591 266.481 326.779C266.178 326.966 265.667 327.168 265.346 327.227C265.025 327.286 264.526 327.451 264.238 327.595C263.95 327.739 263.315 327.938 262.827 328.036C262.34 328.135 261.708 328.327 261.424 328.463C261.139 328.599 260.375 328.794 259.725 328.897C259.075 329 258.37 329.172 258.159 329.279C257.947 329.386 257.134 329.539 256.351 329.618C255.567 329.696 254.871 329.794 254.803 329.836C254.735 329.877 254.019 330.01 253.213 330.131C252.407 330.251 250.638 330.38 249.284 330.417C247.784 330.458 247.19 330.464 246.888 330.391L250.88 305.475C251.139 305.417 251.562 305.35 251.959 305.307C252.482 305.25 253.082 305.117 253.292 305.01C253.502 304.903 254.057 304.745 254.527 304.66C254.996 304.575 255.685 304.372 256.057 304.21C256.429 304.049 256.842 303.916 256.975 303.916C257.107 303.916 257.527 303.753 257.909 303.553C258.29 303.353 258.682 303.19 258.778 303.19C258.933 303.19 260.32 302.536 262.012 301.665C262.322 301.505 262.704 301.26 262.861 301.12C263.018 300.98 263.249 300.865 263.375 300.865C263.501 300.865 263.692 300.761 263.8 300.633C263.908 300.505 264.531 300.051 265.184 299.625C267.071 298.394 271.07 294.426 272.435 292.43C272.686 292.065 273.07 291.535 273.288 291.253C273.507 290.971 273.686 290.672 273.686 290.589C273.686 290.507 273.787 290.357 273.909 290.257C274.032 290.157 274.264 289.806 274.423 289.477C274.583 289.148 274.78 288.78 274.861 288.66C274.942 288.541 275.316 287.794 275.692 287.002C276.328 285.664 276.639 284.889 277.171 283.32C277.286 282.981 277.485 282.392 277.614 282.013C277.743 281.633 277.944 280.702 278.059 279.943C278.187 279.106 278.377 278.419 278.542 278.199C278.89 277.737 280.166 277.396 282.078 277.255C282.854 277.197 283.759 277.057 284.088 276.943C284.418 276.828 285.354 276.667 286.168 276.585C286.982 276.503 288.479 276.28 289.495 276.089C290.511 275.897 291.807 275.709 292.376 275.671C292.944 275.633 294.004 275.465 294.73 275.297C295.456 275.129 296.653 274.935 297.39 274.864C298.126 274.794 299.261 274.639 299.911 274.521C300.993 274.323 302.062 274.204 302.74 274.188L302.738 274.188ZM205.527 277.241C204.827 277.263 204.091 277.382 203.618 277.587C203.262 277.742 202.511 277.917 201.947 277.975C201.384 278.034 200.573 278.239 200.144 278.431C199.715 278.623 199.22 278.78 199.045 278.78C198.87 278.78 198.456 278.902 198.126 279.05C197.795 279.199 197.226 279.403 196.86 279.503C196.494 279.603 196.021 279.807 195.808 279.955C195.595 280.104 195.252 280.29 195.045 280.367C194.812 280.454 194.51 280.803 194.255 281.278C193.897 281.946 193.841 282.216 193.837 283.299C193.833 284.094 193.9 284.628 194.018 284.768C194.12 284.889 194.275 285.373 194.364 285.844C194.505 286.599 195.151 288.693 195.333 288.987C195.508 289.27 197.152 288.983 198.044 288.514C198.182 288.442 198.753 288.31 199.314 288.222C199.874 288.134 200.532 287.965 200.775 287.845C201.019 287.725 201.67 287.533 202.221 287.418C202.773 287.303 203.418 287.11 203.655 286.99C203.891 286.87 204.293 286.771 204.548 286.771C204.802 286.771 205.52 286.599 206.143 286.387C206.766 286.175 207.609 285.918 208.015 285.815C208.834 285.607 210.13 285.156 210.416 284.98C210.638 284.842 210.657 284.241 210.452 283.864C210.37 283.713 210.21 283.113 210.095 282.529C209.981 281.946 209.782 281.272 209.654 281.032C209.526 280.792 209.42 280.443 209.42 280.255C209.42 279.868 209 278.925 208.829 278.925C208.767 278.925 208.631 278.723 208.527 278.477C208.423 278.23 208.199 277.965 208.029 277.886C207.859 277.807 207.497 277.621 207.224 277.473C206.893 277.293 206.227 277.218 205.527 277.241ZM221.226 278.217C221.174 278.213 221.116 278.224 221.063 278.245C220.945 278.291 220.98 278.326 221.152 278.333C221.308 278.339 221.395 278.305 221.346 278.257C221.321 278.232 221.277 278.219 221.226 278.217ZM274.398 278.371C274.787 278.34 274.734 278.778 274.375 280.088C274.254 280.527 274.086 281.149 274.003 281.468C273.736 282.489 273.162 283.949 272.537 285.196C272.204 285.863 271.862 286.587 271.778 286.806C271.694 287.024 271.336 287.646 270.982 288.186C270.629 288.727 270.217 289.363 270.067 289.601C269.916 289.838 269.737 290.1 269.668 290.182C269.599 290.264 269.118 290.854 268.6 291.494C267.349 293.039 264.558 295.676 263.219 296.579C262.627 296.979 261.863 297.502 261.522 297.742C261.182 297.981 260.372 298.436 259.722 298.751C259.073 299.067 258.442 299.402 258.32 299.496C258.198 299.59 257.832 299.75 257.507 299.852C257.182 299.954 256.765 300.134 256.58 300.253C256.394 300.372 255.947 300.523 255.585 300.589C255.223 300.656 254.61 300.855 254.223 301.032C253.298 301.454 252.174 301.611 251.56 301.404C251.55 301.4 251.542 301.399 251.533 301.396L254.702 281.615L254.78 281.572C255.127 281.377 255.813 281.233 256.916 281.124C257.81 281.036 259.074 280.838 259.724 280.685C260.374 280.532 261.489 280.363 262.202 280.311C262.916 280.259 263.766 280.125 264.092 280.012C264.418 279.898 265.364 279.737 266.194 279.653C267.023 279.569 268.233 279.399 268.883 279.277C269.533 279.155 270.797 278.992 271.691 278.914C272.585 278.836 273.559 278.668 273.857 278.542C274.09 278.442 274.268 278.381 274.398 278.371ZM217.26 278.496L237.317 281.872L237.358 281.639C237.395 281.956 237.507 282.588 237.644 283.234C237.811 284.021 237.975 284.893 238.009 285.173C238.043 285.453 238.144 286.336 238.235 287.135C238.326 287.934 238.492 288.882 238.604 289.242C238.802 289.879 238.87 290.351 239.044 292.293C239.09 292.812 239.218 293.5 239.329 293.822C239.44 294.144 239.573 294.961 239.625 295.638C239.735 297.08 239.953 298.458 240.239 299.507C240.493 300.439 240.5 301.22 240.258 301.412C240.004 301.613 238.621 301.404 237.753 301.033C237.37 300.869 236.805 300.69 236.497 300.635C236.189 300.58 235.638 300.381 235.273 300.192C234.908 300.003 234.549 299.848 234.476 299.848C234.295 299.848 232.114 298.817 232.022 298.687C231.981 298.631 231.782 298.5 231.579 298.397C230.99 298.099 228.751 296.642 228.131 296.153C226.405 294.793 223.328 291.638 222.381 290.259C222.244 290.059 221.934 289.634 221.692 289.314C221.451 288.995 221.116 288.472 220.949 288.152C220.782 287.832 220.406 287.146 220.114 286.626C219.822 286.107 219.513 285.485 219.428 285.246C219.343 285.006 219.199 284.718 219.109 284.606C218.908 284.355 218.228 282.418 217.837 280.985C217.677 280.4 217.506 279.855 217.455 279.775C217.404 279.694 217.32 279.161 217.268 278.589L217.26 278.496ZM283.844 278.941C283.256 278.947 282.699 279.21 282.699 279.63C282.699 279.768 282.564 280.14 282.399 280.456C281.525 282.135 281.415 284.736 282.157 286.226C282.84 287.6 284.215 288.375 285.949 288.363C287.743 288.351 288.903 287.804 290.547 286.201C292.336 284.454 292.672 284.251 293.554 284.381C294.084 284.459 294.274 284.576 294.583 285.015C294.791 285.311 294.961 285.75 294.961 285.992C294.961 286.512 294.461 288.234 294.105 288.939C293.714 289.713 293.988 290.454 294.718 290.594C295.707 290.785 295.959 290.709 296.426 290.085C296.677 289.749 296.882 289.307 296.882 289.102C296.882 288.897 297.025 288.468 297.2 288.15C297.443 287.708 297.532 287.242 297.58 286.19C297.642 284.83 297.635 284.795 297.112 283.841C296.46 282.654 295.479 281.94 294.172 281.703C292.348 281.371 291.286 281.905 288.248 284.682C287.163 285.675 287.026 285.755 286.402 285.771C285.43 285.796 285.326 285.767 284.899 285.372C283.962 284.5 283.995 282.608 284.976 280.962C285.56 279.982 285.542 279.784 284.822 279.227C284.561 279.025 284.197 278.937 283.844 278.941ZM231.727 279.961C231.66 279.961 231.594 279.971 231.543 279.991C231.441 280.032 231.524 280.065 231.727 280.065C231.93 280.065 232.014 280.031 231.912 279.991C231.861 279.971 231.794 279.961 231.727 279.961ZM205.461 280.147C205.576 280.144 205.667 280.147 205.727 280.161C206.396 280.305 206.885 280.768 206.998 281.366C207.055 281.662 207.194 282.123 207.308 282.392C207.49 282.821 207.487 282.91 207.28 283.135C207.15 283.276 206.746 283.432 206.382 283.481C206.017 283.53 205.523 283.67 205.283 283.792C205.043 283.914 204.348 284.108 203.74 284.223C203.131 284.337 202.495 284.503 202.327 284.592C202.158 284.681 201.53 284.845 200.932 284.958C200.334 285.071 199.589 285.289 199.276 285.443C198.648 285.752 197.468 285.944 197.199 285.781C197.105 285.723 196.917 285.2 196.782 284.617C196.586 283.768 196.572 283.474 196.711 283.144C196.926 282.632 197.409 282.188 197.895 282.053C198.098 281.997 198.674 281.793 199.176 281.601C199.677 281.408 200.227 281.25 200.398 281.25C200.569 281.25 201.084 281.121 201.542 280.962C202.656 280.577 204.656 280.173 205.461 280.147ZM210.933 286.515C210.604 286.473 210.141 286.604 209.504 286.904C209.01 287.137 207.941 287.634 207.129 288.01C206.316 288.385 205.112 288.946 204.452 289.257C203.793 289.568 203.187 289.823 203.106 289.823C203.024 289.823 202.799 289.944 202.605 290.091C202.411 290.239 202.059 290.406 201.822 290.463C201.584 290.52 201.228 290.692 201.031 290.845C200.833 290.998 200.45 291.164 200.179 291.214C199.909 291.263 199.572 291.429 199.432 291.582C199.292 291.734 198.906 291.929 198.573 292.014C197.695 292.241 196.86 292.841 196.86 293.247C196.86 293.671 197.726 295.054 197.991 295.054C198.101 295.054 198.439 294.923 198.743 294.763C199.046 294.603 199.369 294.472 199.461 294.472C199.553 294.472 199.787 294.349 199.982 294.198C200.177 294.047 200.583 293.857 200.884 293.775C201.185 293.693 201.616 293.497 201.842 293.339C202.068 293.182 202.501 292.985 202.805 292.903C203.108 292.821 203.532 292.617 203.748 292.451C203.963 292.284 204.28 292.147 204.452 292.147C204.624 292.146 205.062 291.952 205.425 291.715C205.788 291.478 206.286 291.243 206.532 291.191C206.779 291.139 207.064 291.031 207.166 290.95C207.267 290.87 207.35 290.847 207.35 290.9C207.35 291.13 206.753 291.856 205.725 292.876C204.757 293.837 203.042 295.619 200.871 297.92C199.936 298.911 199.875 299.16 200.345 300.045C200.56 300.45 200.945 301.027 201.199 301.329C201.701 301.924 201.967 301.998 202.41 301.669C202.567 301.551 202.807 301.455 202.943 301.451C203.079 301.448 203.388 301.283 203.63 301.083C203.871 300.884 204.129 300.72 204.203 300.72C204.278 300.72 204.563 300.557 204.838 300.357C205.114 300.157 205.438 299.993 205.559 299.993C205.681 299.993 205.924 299.861 206.099 299.699C206.393 299.428 206.875 299.144 208.237 298.443C208.521 298.297 208.777 298.124 208.806 298.06C208.834 297.995 209.2 297.783 209.619 297.588C210.037 297.393 210.678 297.037 211.044 296.798C211.409 296.558 211.941 296.257 212.224 296.127C212.508 295.998 212.929 295.736 213.159 295.545C213.389 295.355 213.634 295.198 213.701 295.198C213.958 295.198 215.032 294.412 215.112 294.165C215.214 293.849 214.745 292.918 214.26 292.472L213.902 292.144L213.175 292.522C212.775 292.73 212.235 293.057 211.977 293.25C211.718 293.443 211.377 293.6 211.219 293.6C211.061 293.6 210.843 293.706 210.735 293.835C210.549 294.055 209.996 294.368 208.597 295.044C208.267 295.203 207.874 295.466 207.725 295.629C207.575 295.792 207.377 295.925 207.285 295.925C207.192 295.925 206.856 296.056 206.538 296.216C205.98 296.495 205.577 296.586 205.577 296.433C205.577 296.393 206.391 295.55 207.387 294.56C212.82 289.153 212.788 289.197 212.038 288.122C211.826 287.818 211.608 287.389 211.553 287.167C211.455 286.773 211.262 286.557 210.933 286.515ZM279.574 289.849C279.071 289.897 279.01 289.972 278.465 291.189L278.211 291.756L278.793 292.241C279.113 292.507 279.607 292.798 279.892 292.888C280.176 292.977 280.641 293.192 280.926 293.365C281.908 293.964 282.04 294.034 283.437 294.719C284.209 295.096 285.029 295.555 285.259 295.738C285.489 295.921 285.762 296.07 285.866 296.07C285.971 296.07 286.216 296.192 286.41 296.34C286.603 296.488 287.004 296.688 287.3 296.782C287.596 296.877 288.029 297.115 288.261 297.312C288.493 297.508 288.757 297.668 288.849 297.668C288.94 297.668 289.092 297.758 289.184 297.868C289.388 298.109 289.004 299.079 288.315 300.063C288.07 300.413 287.87 300.826 287.87 300.981C287.87 301.377 288.427 302.027 288.965 302.257C289.216 302.364 289.632 302.454 289.889 302.458C290.333 302.463 290.394 302.393 291.053 301.12C291.436 300.381 291.908 299.449 292.103 299.049C292.298 298.649 292.522 298.225 292.602 298.105C292.682 297.985 292.827 297.723 292.925 297.523C293.023 297.324 293.256 296.975 293.442 296.749C293.628 296.523 293.779 296.217 293.779 296.068C293.779 295.919 293.847 295.756 293.93 295.705C294.013 295.655 294.276 295.235 294.514 294.771C295.083 293.664 294.983 293.219 294.066 292.774C293.705 292.599 293.19 292.451 292.921 292.446C292.475 292.439 292.402 292.503 292.064 293.201C291.001 295.399 291.026 295.366 290.416 295.259C290.113 295.205 289.743 295.058 289.594 294.93C289.313 294.687 288.297 294.144 287.094 293.593C286.708 293.416 286.392 293.219 286.392 293.156C286.392 293.093 286.143 292.963 285.839 292.867C285.534 292.771 285.182 292.604 285.057 292.498C284.932 292.391 284.533 292.168 284.171 292.001C283.224 291.565 280.921 290.362 280.456 290.06C280.222 289.908 279.862 289.822 279.574 289.849ZM215.766 295.083C215.195 295.135 214.458 296.094 212.738 298.54C211.791 299.888 211.36 300.459 211.034 300.802C210.877 300.967 210.748 301.157 210.748 301.224C210.748 301.348 210.257 302.03 209.194 303.38C208.868 303.795 208.284 304.592 207.898 305.151C207.511 305.711 206.965 306.486 206.682 306.875C206.399 307.263 206.168 307.691 206.168 307.826C206.168 307.961 206.659 308.578 207.259 309.197C208.254 310.226 208.387 310.315 208.773 310.222C209.006 310.166 209.385 309.967 209.614 309.779C209.844 309.592 210.089 309.438 210.157 309.438C210.226 309.438 210.484 309.271 210.732 309.066C210.979 308.861 211.5 308.529 211.889 308.328C212.277 308.128 212.827 307.784 213.112 307.565C213.569 307.212 214.208 306.813 217.179 305.019C217.587 304.772 218.111 304.423 218.344 304.244C218.576 304.064 218.816 303.916 218.877 303.916C218.938 303.916 219.4 303.639 219.903 303.299C221.814 302.009 221.837 302.017 221.451 303.873C221.365 304.289 221.406 304.369 221.85 304.633C222.378 304.946 222.392 304.955 223.527 305.702C223.934 305.97 224.381 306.23 224.521 306.281C224.943 306.436 225.015 307.082 224.66 307.525C224.49 307.738 224.045 308.436 223.671 309.075C223.298 309.714 222.768 310.597 222.495 311.036C222.222 311.476 221.723 312.293 221.387 312.852C221.05 313.412 220.512 314.295 220.19 314.814C219.869 315.334 219.505 315.954 219.381 316.194C219.258 316.434 218.993 316.852 218.794 317.124C218.398 317.662 218.325 318.203 218.615 318.441C218.717 318.524 218.966 318.72 219.169 318.877C219.372 319.034 219.748 319.164 220.004 319.168C220.426 319.172 220.532 319.071 221.169 318.047C221.555 317.428 221.977 316.763 222.108 316.571C222.239 316.379 222.479 316.002 222.642 315.733C222.804 315.464 223.219 314.79 223.565 314.234C223.91 313.679 224.193 313.18 224.193 313.126C224.193 312.969 225.186 311.541 225.439 311.335C225.566 311.231 225.67 311.001 225.67 310.823C225.67 310.645 225.801 310.383 225.962 310.24C226.122 310.098 226.296 309.85 226.347 309.69C226.399 309.53 226.801 308.856 227.241 308.193C227.681 307.529 228.136 306.721 228.252 306.398C228.457 305.827 228.452 305.8 228.095 305.552C227.893 305.412 227.489 305.117 227.196 304.897C226.903 304.678 226.589 304.498 226.498 304.498C226.408 304.498 225.847 304.138 225.253 303.699C224.659 303.259 224.104 302.9 224.02 302.9C223.935 302.9 223.669 302.736 223.427 302.536C223.146 302.304 222.806 302.173 222.482 302.173C222.069 302.173 221.976 302.118 221.976 301.873C221.976 301.708 221.907 301.444 221.821 301.287C221.562 300.811 220.593 300.001 220.278 299.998C220.115 299.994 219.611 300.248 219.156 300.558C217.831 301.463 217.807 301.461 216.805 300.405C215.761 299.304 215.712 298.995 216.437 298.061C216.911 297.451 217.249 296.808 217.249 296.517C217.249 296.454 217 296.098 216.695 295.728C216.387 295.353 216.146 295.117 215.878 295.084C215.841 295.08 215.804 295.079 215.766 295.084V295.083ZM277.184 296.205C274.46 296.166 272.116 298.49 272.037 301.307C272.013 302.164 272.074 302.382 272.696 303.63C273.352 304.946 273.565 305.217 275.633 307.352C275.932 307.66 276.415 308.076 276.706 308.276C276.997 308.475 277.445 308.819 277.703 309.038C277.961 309.258 278.223 309.438 278.286 309.438C278.349 309.438 278.634 309.593 278.919 309.784C279.205 309.974 279.723 310.174 280.071 310.227C280.42 310.28 280.871 310.419 281.074 310.536H281.07C281.273 310.652 281.606 310.718 281.809 310.682C282.796 310.505 284.037 310.102 284.279 309.88C284.428 309.744 284.729 309.517 284.948 309.375C285.167 309.234 285.659 308.652 286.041 308.081L286.737 307.045L286.741 305.517C286.745 304.046 286.724 303.957 286.241 303.118C285.258 301.411 283.803 299.74 282.328 298.624C279.937 296.814 278.688 296.227 277.182 296.205H277.184ZM276.812 299.018C277.703 299.009 278.722 299.325 279.148 299.771C279.342 299.973 279.561 300.139 279.636 300.139C279.85 300.139 280.565 300.724 281.407 301.588C281.833 302.025 282.425 302.613 282.723 302.895C283.021 303.177 283.372 303.637 283.503 303.916C283.634 304.196 283.837 304.588 283.956 304.788C284.075 304.988 284.174 305.453 284.174 305.822C284.174 306.353 284.082 306.609 283.721 307.057C283.47 307.368 283.155 307.666 283.019 307.72C282.646 307.87 281.353 307.836 280.852 307.664C280.608 307.58 280.271 307.389 280.104 307.24C279.936 307.09 279.735 306.967 279.656 306.967C279.578 306.967 279.083 306.596 278.557 306.141C275.387 303.4 274.32 301.627 274.934 300.117C275.251 299.338 275.499 299.161 276.441 299.043C276.561 299.028 276.685 299.019 276.812 299.018ZM214.146 301.615C214.348 301.615 214.556 301.756 214.798 302.039C215.288 302.611 215.28 302.912 214.767 303.348C214.198 303.83 212.983 304.643 212.83 304.643C212.761 304.643 212.623 304.74 212.523 304.858C212.424 304.976 212.139 305.173 211.892 305.294C211.016 305.724 210.9 305.491 211.528 304.568C212.396 303.292 212.464 303.203 212.826 302.843C213.024 302.647 213.34 302.285 213.529 302.039C213.747 301.756 213.943 301.615 214.146 301.615ZM268.89 302.679C268.464 302.662 267.724 302.991 267.397 303.374C266.932 303.918 266.936 304.498 267.408 304.934C267.611 305.122 267.777 305.357 267.777 305.457C267.777 305.557 267.944 305.833 268.148 306.072C268.353 306.31 268.618 306.736 268.737 307.017C268.857 307.299 269.017 307.567 269.093 307.614C269.21 307.684 269.666 308.394 270.779 310.236C270.875 310.395 271.103 310.71 271.286 310.937C271.64 311.376 271.721 311.762 271.458 311.762C271.297 311.762 270.181 310.927 269.615 310.384C269.448 310.223 268.788 309.634 268.149 309.075C267.51 308.516 266.659 307.763 266.258 307.404C265.221 306.475 264.09 305.66 263.837 305.66C263.464 305.66 262.111 306.346 261.578 306.806L261.067 307.245L261.32 307.765C261.459 308.051 261.572 308.358 261.572 308.448C261.572 308.538 261.726 308.814 261.915 309.061C262.256 309.507 262.488 309.911 262.964 310.891C263.099 311.171 263.302 311.563 263.415 311.762C263.528 311.962 263.93 312.726 264.309 313.46C264.689 314.194 265.125 314.907 265.28 315.045C265.434 315.183 265.561 315.386 265.561 315.498C265.561 315.61 265.804 316.14 266.1 316.675C266.397 317.21 266.768 317.909 266.925 318.229C267.081 318.548 267.272 318.908 267.348 319.028C267.425 319.148 267.648 319.566 267.844 319.957C268.04 320.349 268.288 320.724 268.395 320.791C268.738 321.004 269.133 320.926 269.793 320.517C270.538 320.053 270.631 319.593 270.15 318.737C269.992 318.458 269.725 317.967 269.557 317.647C269.389 317.328 268.853 316.347 268.367 315.468C267.88 314.589 267.34 313.559 267.167 313.18C266.993 312.8 266.8 312.489 266.739 312.489C266.624 312.489 266.152 311.434 266.152 311.178C266.152 310.791 266.806 311.136 267.791 312.044C268.393 312.598 269.845 313.848 271.02 314.822C272.194 315.796 273.272 316.739 273.416 316.918C273.559 317.098 273.876 317.326 274.121 317.426C274.523 317.589 274.63 317.567 275.246 317.191C275.621 316.963 276.188 316.623 276.507 316.437C277.475 315.872 277.595 315.199 276.85 314.512C276.654 314.33 276.493 314.095 276.493 313.988C276.493 313.881 276.36 313.682 276.198 313.545C276.035 313.409 275.902 313.248 275.902 313.189C275.902 313.131 275.553 312.56 275.127 311.92C274.7 311.28 274.152 310.423 273.908 310.014C273.664 309.606 273.222 308.965 272.926 308.59C272.629 308.215 272.23 307.61 272.039 307.245C271.848 306.88 271.247 305.921 270.704 305.115C270.161 304.308 269.615 303.455 269.491 303.219C269.367 302.983 269.169 302.753 269.051 302.709C269.005 302.692 268.951 302.682 268.89 302.679ZM231.408 307.465C230.606 307.479 229.579 307.733 228.956 308.112C228.087 308.64 227.324 309.775 227.124 310.836C226.934 311.851 226.934 312.048 227.124 312.998C227.347 314.105 227.52 314.452 228.392 315.527C228.834 316.072 229.472 316.936 229.81 317.446C230.366 318.287 230.417 318.441 230.356 319.092C230.302 319.662 230.2 319.881 229.863 320.154C229.485 320.459 229.34 320.487 228.551 320.408C227.337 320.286 226.559 320.051 226.072 319.66C225.846 319.478 225.419 319.285 225.123 319.23C224.674 319.148 224.54 319.185 224.318 319.454C224.172 319.632 223.986 320.013 223.905 320.3C223.706 321.011 223.96 321.494 224.727 321.861C225.061 322.021 225.436 322.235 225.56 322.337C225.769 322.511 226.303 322.684 228.107 323.165C229.144 323.441 229.392 323.429 230.341 323.059C232.038 322.397 233.059 320.911 233.053 319.11C233.049 317.631 232.22 316.033 230.117 313.45C229.728 312.971 229.657 312.763 229.657 312.083C229.657 309.952 231.712 309.417 234.144 310.917C235.601 311.815 235.947 311.811 236.421 310.891C236.607 310.532 236.74 310.076 236.717 309.879C236.671 309.483 235.475 308.502 234.85 308.348C234.648 308.298 234.319 308.131 234.119 307.976C233.912 307.816 233.524 307.694 233.221 307.694C232.927 307.694 232.427 307.622 232.111 307.535C231.917 307.482 231.676 307.46 231.408 307.465ZM258.737 308.296C258.119 308.279 256.877 308.503 255.766 308.863C255.037 309.099 254.266 309.296 254.054 309.296C253.605 309.3 252.398 309.808 252.233 310.063C252.069 310.318 252.092 311.215 252.277 311.737C252.497 312.358 253.173 312.486 254.012 312.066C254.344 311.899 254.773 311.762 254.965 311.762C255.157 311.762 255.63 311.656 256.017 311.527C257.147 311.148 257.73 311.601 257.73 312.857C257.73 313.128 257.839 313.575 257.972 313.85C258.249 314.422 258.158 315.021 257.769 315.177C257.626 315.234 257.083 315.37 256.562 315.48C255.556 315.693 254.516 316.15 254.238 316.502C254.108 316.665 254.14 316.919 254.372 317.588C254.773 318.744 255.007 318.854 256.055 318.382C256.509 318.178 257.036 318.01 257.228 318.01C257.419 318.01 257.845 317.905 258.172 317.776C258.875 317.499 259.131 317.629 259.291 318.342C259.347 318.594 259.444 318.9 259.507 319.023C260.258 320.494 260.232 321.25 259.419 321.584C259.146 321.696 258.717 321.788 258.468 321.788C258.218 321.788 257.768 321.909 257.466 322.057C257.165 322.204 256.503 322.409 255.996 322.512C255.489 322.615 255.016 322.772 254.945 322.861C254.574 323.324 254.738 324.473 255.263 325.106C255.357 325.22 255.58 325.269 255.801 325.224C257.238 324.937 257.734 324.806 258.321 324.564C258.687 324.412 259.352 324.242 259.799 324.184C260.246 324.126 260.871 323.949 261.188 323.79C261.506 323.632 261.983 323.503 262.248 323.503C262.563 323.503 262.843 323.384 263.055 323.162C263.334 322.87 263.366 322.725 263.278 322.145C263.221 321.773 263.013 321.185 262.816 320.838C262.619 320.491 262.456 319.99 262.452 319.726C262.448 319.462 262.345 318.984 262.222 318.664C262.001 318.089 261.377 316.01 261.089 314.887C261.007 314.567 260.812 313.913 260.654 313.434C260.497 312.954 260.301 312.3 260.219 311.981C260.137 311.661 260 311.203 259.915 310.964C259.83 310.724 259.639 310.084 259.49 309.542C259.34 308.999 259.173 308.484 259.119 308.397C259.079 308.334 258.943 308.302 258.737 308.296ZM238.825 309.331C238.13 309.288 237.959 309.586 237.651 310.9C237.481 311.626 237.342 312.403 237.342 312.627C237.342 312.85 237.203 313.449 237.033 313.959C236.863 314.469 236.691 315.312 236.649 315.831C236.607 316.351 236.418 317.299 236.229 317.938C236.041 318.577 235.84 319.525 235.784 320.045C235.727 320.564 235.562 321.288 235.416 321.653C235.27 322.019 235.105 322.839 235.048 323.475C234.929 324.822 234.979 324.899 236.091 325.099C236.608 325.192 236.909 325.181 237.11 325.061C237.433 324.867 237.875 323.267 238.297 320.771C238.438 319.932 238.61 319.141 238.679 319.014C238.749 318.886 238.878 318.2 238.968 317.488C239.057 316.777 239.258 315.769 239.413 315.25C239.569 314.73 239.766 313.782 239.851 313.143C239.937 312.504 240.104 311.662 240.223 311.273C240.593 310.07 240.294 309.537 239.157 309.368C239.035 309.35 238.925 309.337 238.825 309.331Z" fill="currentcolor"/>

</svg>
