<svg  viewBox="0 0 1180 580" fill="currentcolor" xmlns="http://www.w3.org/2000/svg">
<path d="M178.993 335.046C178.66 334.393 178.387 333.683 178.387 333.468C178.387 333.253 178.072 332.652 177.688 332.131C177.304 331.611 176.77 330.517 176.503 329.7C175.592 326.919 172.468 324.15 169.008 323.058C166.78 322.355 166.193 321.746 166.193 320.141C166.193 319.288 166.428 318.787 167.259 317.867C167.846 317.218 168.692 316.499 169.138 316.268C170.414 315.609 175.987 314.506 178.387 314.437C179.942 314.393 181.27 314.126 183.032 313.504C187.15 312.05 192.951 309.743 194.711 308.86C195.624 308.401 196.491 308.025 196.637 308.025C196.783 308.025 196.995 308.645 197.109 309.403C197.222 310.16 197.629 311.553 198.013 312.498C198.397 313.442 198.711 314.704 198.711 315.302C198.711 316.293 198.795 316.407 199.655 316.595C200.174 316.709 201.105 317.292 201.724 317.892L202.851 318.983L202.16 319.414C201.78 319.651 200.489 320.407 199.292 321.094C196.874 322.481 192.18 326.843 189.492 330.201C185.748 334.876 184.514 335.776 181.449 336.062L179.6 336.234L178.993 335.046ZM256.616 334.543C255.059 333.776 253.655 332.427 252.021 330.126C251.147 328.896 249.28 326.764 247.872 325.387C245.778 323.341 244.728 322.581 242.117 321.218C240.361 320.301 238.76 319.421 238.56 319.262C237.906 318.742 238.175 318.106 239.747 316.46C241.402 314.727 242.077 313.285 243.014 309.475C243.308 308.279 243.577 307.254 243.612 307.199C243.647 307.143 245.154 307.813 246.961 308.688C252.832 311.53 260.006 313.535 264.306 313.535C266.139 313.535 267.161 313.666 267.605 313.956C268.017 314.226 268.863 314.357 269.951 314.319C271.623 314.261 271.672 314.282 272.732 315.51C273.324 316.197 274.014 317.397 274.263 318.176C274.803 319.863 274.714 319.987 272.098 321.162C269.459 322.347 266.149 324.8 265.387 326.135C265.018 326.781 264.335 328.332 263.869 329.582C262.295 333.805 259.288 335.861 256.616 334.543ZM304.543 334.709C304.216 334.18 304.913 333.635 305.846 333.69C307.47 333.786 307.355 334.479 305.657 334.836C305.1 334.954 304.664 334.904 304.543 334.709ZM232.971 334.159C232.971 333.506 234.027 333.141 234.248 333.718C234.333 333.937 234.154 334.249 233.85 334.411C233.088 334.818 232.971 334.785 232.971 334.159ZM300.336 333.818C299.779 333.509 298.978 333.255 298.556 333.255C297.561 333.255 296.967 332.597 297.536 332.125C298.2 331.575 302.895 333.5 302.489 334.157C302.239 334.559 301.441 334.434 300.336 333.818ZM239.499 332.956C239.181 332.443 239.78 332.04 240.703 332.145C241.87 332.278 241.807 333.084 240.62 333.199C240.116 333.248 239.611 333.138 239.499 332.956ZM293.066 331.943C292.864 331.7 292.768 331.433 292.851 331.349C293.143 331.058 294.524 331.58 294.524 331.981C294.524 332.522 293.526 332.496 293.066 331.943ZM231.343 329.896C231.44 329.644 231.52 329.399 231.52 329.351C231.52 329.136 233.472 327.808 234.06 327.622C235.114 327.29 234.862 328.124 233.551 329.306C232.342 330.397 231.015 330.752 231.343 329.896ZM215.027 318.83C213.606 318.705 213.602 318.698 213.437 316.144C213.246 313.185 213.19 313.236 216.794 313.062C219.664 312.924 219.907 312.953 219.918 313.441C219.926 313.732 219.994 314.838 220.072 315.898C220.242 318.202 219.873 318.755 218.167 318.755C217.553 318.755 216.876 318.797 216.663 318.847C216.451 318.898 215.714 318.89 215.027 318.83ZM221.265 318.55C221.048 318.199 220.869 313.345 221.067 313.164C221.147 313.092 222.337 312.944 223.712 312.837L226.211 312.641L226.398 313.999C226.654 315.864 226.624 317.663 226.329 318.127C226.03 318.599 221.528 318.976 221.265 318.55ZM209.744 317.272C208.866 316.793 208.041 316.115 207.912 315.765C207.782 315.416 207.735 314.217 207.807 313.1C207.923 311.315 208.003 311.082 208.478 311.17C208.775 311.225 209.149 311.366 209.309 311.483C209.468 311.6 210.203 311.918 210.942 312.19C212.14 312.632 212.303 312.801 212.463 313.763C212.561 314.355 212.643 315.59 212.644 316.508C212.648 318.049 212.598 318.174 211.994 318.16C211.635 318.151 210.622 317.752 209.744 317.272ZM228.193 317.523C228.131 317.323 227.996 316.089 227.893 314.779L227.708 312.398L229.654 311.517C232.706 310.134 232.718 310.142 232.619 313.318L232.536 316L230.794 316.934C228.89 317.955 228.367 318.074 228.193 317.523ZM204.097 314.322C203.22 313.408 202.657 312.393 201.971 310.492C201.374 308.836 201.139 307.804 201.317 307.626C201.496 307.447 202.253 307.689 203.42 308.296C206.286 309.787 206.26 309.744 206.26 312.855C206.26 316.083 205.973 316.278 204.097 314.322ZM234.592 314.043C234.519 313.684 234.395 312.456 234.315 311.315C234.197 309.606 234.257 309.169 234.66 308.835C235.398 308.222 238.824 306.524 238.989 306.689C239.068 306.768 238.966 307.975 238.756 309.37C238.384 311.867 238.355 311.928 236.909 313.295C235.269 314.845 234.786 315 234.592 314.043ZM147.02 310.944C147.196 310.614 147.468 310.345 147.623 310.345C147.778 310.345 148.115 309.823 148.37 309.185C149.177 307.171 149.896 307.884 149.247 310.055C148.884 311.268 148.78 311.367 147.778 311.451C146.768 311.537 146.719 311.504 147.02 310.944ZM211.858 310.317C210.226 309.674 207.222 308.144 205.183 306.918C200.588 304.156 200.106 303.503 200.224 300.195L200.3 298.02L198.997 297.831C197.024 297.544 193.511 296.827 191.924 296.387C190.681 296.043 190.363 295.781 189.331 294.253C188.683 293.294 187.153 291.205 185.93 289.61C184.707 288.015 183.534 286.384 183.323 285.985C183.112 285.586 182.405 284.592 181.752 283.775C181.099 282.958 180.425 282.054 180.256 281.766C180.022 281.369 179.81 281.307 179.385 281.51C179.076 281.658 177.973 281.779 176.935 281.779C175.754 281.779 175.048 281.9 175.048 282.1C175.048 282.276 175.506 282.942 176.066 283.58C176.626 284.218 178.259 286.343 179.695 288.303C181.131 290.263 182.829 292.51 183.468 293.297C186.644 297.209 186.678 297.565 183.764 296.445C181.168 295.446 174.593 293.525 173.772 293.525C173.333 293.525 172.345 293.311 171.577 293.05C170.355 292.634 169.821 292.618 167.284 292.925C164.422 293.272 164.378 293.268 163.669 292.603C162.964 291.942 162.859 291.932 157.741 292.032C154.215 292.1 152.406 292.028 152.143 291.812C151.843 291.563 151.817 291.15 152.03 289.985C152.331 288.328 152.964 286.951 154.536 284.535C155.554 282.969 155.573 282.888 155.557 280.03C155.541 276.905 155.436 276.576 153.708 274.192C152.722 272.833 152.692 272.711 152.703 270.18C152.715 267.209 153.112 266.082 153.979 266.545C154.4 266.77 154.75 266.646 155.603 265.969C156.202 265.494 156.967 265.106 157.305 265.106C157.642 265.106 158.858 264.829 160.006 264.489C161.155 264.149 162.265 263.937 162.474 264.019C162.683 264.1 163.364 265.911 163.988 268.044C164.612 270.176 165.408 272.377 165.757 272.935C166.106 273.493 166.583 274.537 166.816 275.255C167.154 276.293 167.469 276.673 168.355 277.111C169.248 277.553 169.578 277.595 170.015 277.322C170.762 276.856 171.667 277.37 172.055 278.479C172.404 279.481 174.132 280.761 174.873 280.567C175.155 280.493 175.754 280.116 176.205 279.729C176.656 279.342 177.201 279.025 177.416 279.025C177.933 279.025 177.908 278.67 177.321 277.647C176.719 276.6 176.974 275.835 177.925 275.835C178.766 275.835 179.171 275.343 178.71 274.882C178.165 274.338 178.33 273.227 178.991 272.983C179.324 272.86 180.303 271.925 181.168 270.905L182.74 269.05L181.994 268.272C181.299 267.548 181.246 267.292 181.21 264.535C181.179 262.049 181.09 261.518 180.653 261.213C180.243 260.926 180.131 260.429 180.118 258.845C180.11 257.742 180.075 256.329 180.043 255.705L179.984 254.57L178.605 254.563C177.449 254.557 177.226 254.467 177.226 254.008C177.226 253.574 177.42 253.472 178.169 253.513C178.688 253.541 179.276 253.551 179.476 253.535C179.969 253.495 179.934 252.582 179.412 251.893C179.167 251.569 178.982 250.684 178.977 249.808C178.969 248.474 178.895 248.285 178.378 248.285C178.053 248.285 177.715 248.094 177.624 247.859C177.445 247.392 178.487 245.872 178.784 246.169C178.885 246.269 178.968 246.251 178.968 246.128C178.968 246.005 178.641 245.647 178.242 245.334C177.496 244.747 177.23 243.276 177.806 242.92C177.969 242.82 178.096 241.439 178.096 239.773C178.096 236.836 178.112 236.774 179.431 234.062C180.165 232.554 181.47 230.394 182.331 229.262C183.866 227.244 187.408 223.847 189.42 222.462C189.979 222.077 190.763 221.478 191.162 221.131C192.577 219.9 201.696 215.604 205.098 214.564C210.979 212.768 211.645 212.616 213.689 212.605C214.879 212.599 215.992 212.426 216.422 212.18C217.272 211.695 219.252 211.622 220.344 212.036C220.764 212.196 222.373 212.348 223.919 212.374C225.465 212.399 227.121 212.574 227.6 212.762C228.079 212.951 228.994 213.2 229.632 213.316C233.527 214.024 239.853 216.745 246.645 220.632C249.99 222.547 250.427 222.65 251.984 221.898C252.703 221.55 253.41 221.31 253.556 221.363C254.054 221.546 257.518 225.59 258.093 226.659L258.667 227.726L257.943 228.273C257.247 228.798 257.242 228.828 257.798 229.027C259.249 229.546 259.715 230.595 258.495 230.595C257.506 230.595 257.505 231.433 258.495 232.452C259.077 233.051 259.48 233.817 259.591 234.535C259.688 235.16 259.944 236.023 260.161 236.454C260.705 237.532 260.658 240.968 260.07 243.078C259.721 244.333 259.673 244.91 259.9 245.137C260.127 245.364 260.356 245.179 260.717 244.476C260.992 243.94 261.324 243.431 261.454 243.346C262.293 242.801 266.943 238.294 266.942 238.027C266.942 237.59 268.199 235.235 268.434 235.235C268.536 235.235 268.837 235.694 269.103 236.254C269.592 237.284 269.516 237.845 268.886 237.846C268.696 237.846 267.005 239.39 265.128 241.276C262.787 243.63 261.717 244.913 261.717 245.364C261.717 246.419 262.788 247.662 263.872 247.865C265.078 248.091 269.041 246.777 271.153 245.45C272.521 244.591 272.999 244.609 272.655 245.506C272.572 245.721 271.548 246.271 270.378 246.729C269.208 247.186 267.674 248 266.968 248.538C266.262 249.076 265.25 249.697 264.717 249.919C263.773 250.313 263.457 250.971 264.04 251.33C264.588 251.669 264.329 252.086 263.301 252.514C261.88 253.108 261.715 253.731 262.757 254.571C263.466 255.142 263.533 255.299 263.169 255.535C262.929 255.69 262.276 255.82 261.717 255.825C261.158 255.83 260.564 255.93 260.397 256.047C259.793 256.47 258.781 258.148 258.958 258.433C259.057 258.594 259.823 258.725 260.66 258.725H262.181L262.066 259.714C261.952 260.688 261.978 260.713 263.706 261.343C264.672 261.695 265.668 262.21 265.921 262.488C266.354 262.966 266.207 262.994 263.241 262.994C259.808 262.994 258.774 263.312 257.678 264.704C256.35 266.39 257.11 268.732 260.483 273.336L262.369 275.912L261.924 276.842C261.415 277.91 258.111 282.711 254.333 287.874C252.975 289.731 252.929 289.852 253.445 290.228C254.3 290.853 256.852 290.736 257.749 290.032C258.574 289.383 262.515 284.044 263.365 282.422C264.143 280.938 265.618 279.424 268.7 276.946C273.472 273.109 274.604 271.12 275.344 265.267C275.632 262.986 276.136 262.374 277.541 262.594C283.304 263.496 283.996 263.763 285.445 265.651C286.879 267.519 287.113 268.778 286.39 270.711C286.062 271.587 285.406 272.79 284.933 273.384C284.46 273.979 284.073 274.648 284.073 274.872C284.073 275.095 283.804 275.807 283.474 276.452C282.95 277.478 282.913 277.806 283.184 279.065C283.581 280.913 284.148 281.992 285.508 283.481C286.79 284.884 287.156 285.53 287.718 287.378C288.55 290.115 288.874 289.934 282.694 290.173C279.7 290.288 276.27 290.507 275.073 290.661C273.875 290.814 271.85 291.051 270.573 291.188C267.236 291.546 261.8 293.04 259.382 294.264C258.356 294.784 255.287 295.845 254.812 295.845C254.182 295.845 254.687 294.67 255.83 293.479C256.845 292.421 256.896 291.785 255.966 291.785C255.696 291.785 254.78 291.521 253.932 291.199C253.083 290.877 252.264 290.691 252.112 290.785C251.96 290.879 251.521 291.575 251.137 292.332C250.3 293.982 250.156 294.109 247.647 295.415C246.461 296.032 245.318 296.421 244.77 296.394C244.27 296.369 243.469 296.514 242.99 296.717C242.511 296.919 241.662 297.167 241.103 297.267L240.086 297.448L239.896 299.764C239.725 301.841 239.284 304.169 239.023 304.381C238.969 304.424 237.749 305.093 236.312 305.867C234.875 306.641 232.698 307.88 231.475 308.62C230.252 309.36 228.654 310.132 227.924 310.336C227.194 310.541 226.448 310.887 226.265 311.106C225.743 311.735 221.424 311.654 220.703 311.002C220.174 310.523 220.127 310.523 219.777 311.002C219.48 311.408 218.964 311.504 217.117 311.497C215.137 311.489 214.425 311.33 211.86 310.318L211.858 310.317ZM218.164 296.425C218.927 295.787 219.76 295.265 220.015 295.265C220.27 295.265 220.905 295.726 221.426 296.29C222.049 296.964 222.73 297.372 223.413 297.48C224.352 297.629 224.566 297.525 225.66 296.382C226.324 295.688 226.869 295.003 226.871 294.86C226.871 294.717 226.434 293.934 225.896 293.12C225.358 292.306 224.622 291.053 224.259 290.335C223.897 289.617 223.215 288.467 222.743 287.78C222.271 287.092 221.49 285.658 221.007 284.593L220.127 282.656L219.277 283.668C218.809 284.225 217.506 286.499 216.381 288.723C215.256 290.946 214.023 293.224 213.642 293.784C213.196 294.441 213.059 294.871 213.258 294.994C213.429 295.099 213.527 295.236 213.476 295.298C213.316 295.493 214.215 296.58 214.962 297.092C216.035 297.829 216.635 297.703 218.164 296.425ZM202.767 284.98C205.476 284.051 208.605 282.476 210.116 281.28C211.673 280.049 212.724 278.538 213.771 276.026C214.492 274.295 214.604 273.738 214.404 272.854C214.101 271.514 212.858 270.012 211.341 269.155C210.702 268.794 209.983 268.339 209.744 268.144C209.043 267.573 205.207 266.224 201.113 265.108C196.936 263.969 193.984 264.587 190.976 267.232L189.71 268.344V271.292C189.714 274.813 190.143 278.912 190.719 280.91C191.305 282.944 192.726 285.063 193.849 285.576C195.301 286.239 200.009 285.925 202.765 284.98H202.767ZM246.152 284.837C247.047 284.497 248.94 280.86 248.94 279.481C248.94 278.901 249.146 277.941 249.398 277.348C249.776 276.458 249.82 275.613 249.653 272.5C249.422 268.225 249.27 267.663 247.979 266.312C246.413 264.674 244.631 263.945 242.2 263.947C239.564 263.951 238.828 264.147 233.292 266.342C229.368 267.898 228.611 268.309 227.105 269.702C224.597 272.021 224.081 273.281 224.967 274.92C225.196 275.344 225.7 276.408 226.087 277.285C227.456 280.387 230.867 282.845 235.875 284.337C237.232 284.741 238.669 285.137 239.068 285.217C240.086 285.421 245.359 285.138 246.152 284.837ZM179.073 247.56C179.186 247.264 179.057 247.125 178.668 247.125C178.098 247.125 177.924 247.436 178.29 247.802C178.604 248.115 178.894 248.025 179.073 247.56ZM150.224 302.805C150.224 302.361 150.417 302.225 151.05 302.225C151.928 302.225 152.647 301.608 152.957 300.589C153.136 300.001 154.081 299.505 154.405 299.828C154.727 300.15 153.667 301.625 152.498 302.483C151.07 303.533 150.224 303.653 150.224 302.805ZM155.218 300.036C154.906 299.683 154.914 299.58 155.263 299.446C155.497 299.356 155.84 298.914 156.028 298.462C156.387 297.595 157.021 297.306 158.571 297.299C159.09 297.295 159.514 297.166 159.514 297.009C159.514 296.852 160.051 296.369 160.707 295.935C161.868 295.168 161.885 295.135 161.325 294.682C160.507 294.021 160.227 292.988 160.805 292.766C161.388 292.543 162.128 293.143 162.128 293.839C162.128 294.133 162.422 294.65 162.781 294.989L163.434 295.605L162.303 296.59C161.681 297.132 160.719 297.66 160.164 297.764C159.574 297.874 158.565 298.477 157.729 299.219C156.198 300.577 155.808 300.704 155.218 300.036ZM290.53 300.002C290.33 299.922 290.236 299.742 290.321 299.603C290.51 299.299 291.33 299.57 291.33 299.936C291.33 300.215 291.105 300.234 290.53 300.002ZM261.845 280.556C261.933 280.326 262.006 279.822 262.006 279.436C262.006 278.46 262.822 278.536 263.041 279.533C263.137 279.971 263.253 280.461 263.298 280.62C263.345 280.78 263 280.924 262.533 280.942C261.906 280.965 261.727 280.864 261.845 280.556ZM261.124 267.734C261.504 267.026 261.503 266.845 261.116 266.845C260.947 266.845 260.896 266.985 261.002 267.157C261.135 267.372 261.029 267.382 260.656 267.188C260.36 267.034 259.775 266.773 259.356 266.61C258.896 266.429 258.516 265.998 258.396 265.518C258.105 264.36 258.789 264.068 259.491 265.05C259.798 265.479 260.554 266.069 261.171 266.362C262.334 266.911 262.547 267.348 261.946 267.947C261.356 268.537 260.775 268.387 261.124 267.734ZM266.845 268.102C266.599 267.856 266.591 266.422 266.837 266.179C267.151 265.865 268.105 266.549 268.105 267.087C268.105 267.903 267.299 268.553 266.847 268.102H266.845ZM148.675 265.492C148.371 265.188 148.449 263.945 148.772 263.945C148.932 263.945 149.062 264.337 149.062 264.815C149.062 265.716 149.003 265.82 148.675 265.492ZM272.748 261.809C272.748 260.836 272.863 260.465 273.164 260.465C273.893 260.465 273.998 261.566 273.349 262.391L272.748 263.153V261.809ZM264.081 258.888C264.459 258.485 267.228 257.905 267.405 258.191C267.502 258.346 267.534 258.518 267.479 258.572C267.275 258.767 263.898 259.082 264.081 258.888ZM270.902 258.116C270.277 257.224 270.301 256.985 271.015 256.985C271.72 256.985 272.031 257.631 271.652 258.308C271.407 258.746 271.33 258.727 270.902 258.116ZM159.418 248.672C159.311 248.566 159.224 248.305 159.224 248.092C159.224 247.624 160.559 247.571 160.841 248.028C161.171 248.561 159.888 249.142 159.418 248.672ZM168.982 247.247C168.885 246.994 168.805 246.689 168.805 246.568C168.805 246.224 171.032 245.576 171.542 245.772C172.083 245.979 172.144 246.865 171.651 247.357C171.127 247.88 169.195 247.8 168.982 247.247ZM170.088 244.186C169.965 243.987 169.85 243.393 169.833 242.865C169.792 241.628 170.703 241.517 171.158 242.703C171.59 243.829 170.662 245.114 170.088 244.186ZM289.372 241.411C288.621 241.266 286.412 238.572 285.908 237.188C285.269 235.428 285.44 233.975 286.467 232.45C287.554 230.836 288.916 229.837 291.339 228.876C293.386 228.064 294.123 228.253 296.003 230.075C298.478 232.475 298.994 235.544 297.393 238.341C296.895 239.21 295.961 240.303 295.317 240.768C294.267 241.528 293.935 241.611 292.085 241.576C290.951 241.554 289.73 241.48 289.372 241.411ZM269.84 233.924C269.531 233.553 269.762 233.177 271.312 231.532C273.68 229.018 274.219 228.578 274.926 228.58C275.426 228.58 275.38 228.691 274.594 229.371C274.092 229.805 273.46 230.514 273.189 230.946C272.918 231.379 272.442 231.813 272.13 231.912C271.818 232.011 271.358 232.603 271.108 233.228C270.61 234.471 270.394 234.59 269.84 233.924ZM168.225 233.077C168.225 232.529 168.352 232.001 168.507 231.906C168.85 231.694 169.224 233.033 168.991 233.64C168.687 234.431 168.225 234.092 168.225 233.077ZM171.419 223.925C171.419 223.544 171.612 223.345 171.982 223.345C172.707 223.345 173.064 223.915 172.545 224.243C171.876 224.666 171.419 224.537 171.419 223.925ZM179.601 222.983C179.652 222.624 179.824 222.33 179.984 222.33C180.144 222.33 180.316 222.624 180.367 222.983C180.431 223.432 180.312 223.635 179.984 223.635C179.656 223.635 179.537 223.432 179.601 222.983ZM176.843 220.317C176.339 219.936 176.344 219.908 176.944 219.717C177.643 219.496 178.271 219.928 177.967 220.42C177.715 220.827 177.489 220.807 176.843 220.317ZM276.232 220.2C276.232 220.065 276.505 219.709 276.838 219.408C277.171 219.106 277.973 218.042 278.621 217.043C279.699 215.377 280.588 214.713 280.588 215.572C280.588 215.939 279.563 217.548 278.177 219.358C277.436 220.326 276.232 220.848 276.232 220.2ZM187.776 218.542C187.68 218.292 187.756 217.749 187.945 217.335C188.258 216.649 188.33 216.622 188.747 217.039C189.053 217.344 189.143 217.745 189.016 218.246C188.809 219.072 188.049 219.254 187.776 218.542ZM184.882 215.615C184.649 214.686 185.073 213.92 185.822 213.92C186.234 213.92 186.395 214.166 186.465 214.905C186.61 216.416 185.238 217.032 184.882 215.615ZM188.601 214.573C188.662 214.144 188.894 213.92 189.275 213.92C189.656 213.92 189.887 214.144 189.948 214.573C190.025 215.108 189.903 215.225 189.275 215.225C188.646 215.225 188.525 215.108 188.601 214.573Z" fill="currentcolor"/>

</svg>
