<svg  viewBox="0 0 1180 580" fill="currentcolor" xmlns="http://www.w3.org/2000/svg">
<path d="M261.675 336.982C261.595 336.696 261.527 334.82 261.524 332.814C261.51 325.243 260.867 323.018 258.691 323.018C258.406 323.018 257.837 322.878 257.427 322.707C256.749 322.424 256.693 322.427 256.811 322.733C257.025 323.288 257.219 331.823 257.039 332.716L256.872 333.543L256.579 332.606C256.418 332.09 256.198 329.98 256.09 327.916C255.773 321.842 255.406 321.017 252.552 319.958C251.921 319.724 251.244 319.464 251.047 319.38C250.725 319.243 250.695 319.397 250.734 320.967C250.81 323.977 250.683 327.072 250.492 326.864C250.393 326.755 250.155 325.389 249.964 323.829C249.368 318.952 248.684 317 247.097 315.643C246.141 314.825 245.565 314.659 245.753 315.255C246.075 316.279 246.29 318.043 246.277 319.556L246.263 321.247L245.771 319.163C244.851 315.261 243.852 312.995 242.305 311.299C241.754 310.695 241.299 310.309 241.294 310.44C241.289 310.572 241.646 311.463 242.089 312.42C243.321 315.085 244.057 317.373 243.588 317.084C243.469 317.01 243.371 316.827 243.371 316.676C243.371 316.526 242.751 315.382 241.993 314.135C239.375 309.828 238.973 308.806 238.887 306.241C238.815 304.094 238.58 303.39 236.971 300.494C235.068 297.07 235.005 296.784 234.809 290.714C234.583 283.711 234.28 282.265 232.643 280.373L231.959 279.583L231.562 280.191C231.023 281.014 231.071 282.991 231.684 285.295C232.2 287.235 232.513 291.13 232.152 291.13C231.893 291.13 231.588 289.878 231.162 287.066C230.166 280.488 228.937 278.424 226.01 278.412C225.371 278.408 224.528 278.237 224.014 278.004C222.738 277.426 221.006 275.702 220.297 274.305C219.617 272.964 219.577 272.239 219.94 267.892C220.107 265.886 220.161 265.67 220.37 266.162C220.501 266.472 220.661 267.973 220.725 269.497C220.869 272.916 221.239 273.871 222.713 274.625C223.552 275.053 223.891 275.098 225.895 275.041C227.129 275.007 228.139 275.041 228.139 275.12C228.138 275.197 227.616 275.413 226.977 275.598C226.1 275.853 225.833 276.021 225.884 276.285C225.984 276.807 227.447 276.976 229.776 276.735C235.603 276.132 237.141 276.254 239.78 277.529C240.9 278.07 244.765 281.471 244.529 281.707C244.474 281.761 243.769 281.348 242.963 280.789C240.427 279.03 239.342 278.423 237.976 277.997C236.632 277.578 234.398 277.433 234.398 277.764C234.398 277.997 235.629 278.792 237.199 279.573C238.426 280.184 239.615 281.172 239.615 281.58C239.615 281.697 239.263 281.576 238.832 281.316C237.064 280.237 236.178 279.876 235.302 279.876C234.805 279.876 234.398 279.952 234.398 280.045C234.398 280.459 235.712 281.377 237.7 282.354C238.885 282.936 240.12 283.602 240.445 283.833C241.004 284.23 241.03 284.318 240.928 285.451C240.835 286.483 240.924 286.916 241.574 288.573C241.988 289.631 242.33 290.662 242.334 290.865C242.339 291.193 242.368 291.188 242.591 290.818C242.752 290.549 242.842 289.387 242.845 287.536C242.849 285.96 242.911 284.67 242.986 284.67C243.293 284.666 243.818 286.761 243.932 288.439C244.067 290.421 243.662 292.782 242.964 294.083L242.569 294.819L243.137 295.945C243.45 296.564 243.786 297.103 243.884 297.143C244.199 297.272 245.428 295.076 246.131 293.127C246.775 291.341 246.817 291.279 246.879 292.023C246.963 293.035 246.448 294.792 245.539 296.594L244.821 298.019L245.979 299.035L246.689 297.531C247.515 295.783 247.714 295.948 247.248 297.996C246.802 299.955 246.821 300.45 247.349 300.618C247.586 300.693 248.093 301.029 248.476 301.364L249.171 301.974L249.594 300.564C249.826 299.789 250.138 298.732 250.286 298.217C250.54 297.334 250.56 297.316 250.621 297.904C250.656 298.248 250.553 299.406 250.391 300.477C250.05 302.741 250.116 303.309 250.683 303.005C251.464 302.588 252.701 302.945 253.732 303.886C254.268 304.374 254.121 304.743 255.073 300.509C256.087 295.999 256.36 296.042 255.788 300.621C255.617 301.993 255.476 303.516 255.475 304.008C255.471 304.87 255.49 304.892 255.943 304.648C257.097 304.025 259.945 304.519 261.021 305.528L261.461 305.941L261.702 304.488C261.834 303.688 261.943 302.771 261.945 302.449C261.949 301.995 261.994 301.934 262.151 302.177C262.262 302.349 262.354 303.264 262.356 304.211L262.36 305.933L263.191 305.41C264.574 304.537 265.604 304.212 266.684 304.308C267.233 304.356 267.855 304.473 268.068 304.567C268.435 304.73 268.448 304.635 268.312 302.676C268.173 300.67 267.881 298.332 267.663 297.487C267.56 297.09 267.569 297.088 267.86 297.449C268.24 297.921 268.948 300.513 269.279 302.645C269.417 303.534 269.606 304.261 269.699 304.261C269.792 304.261 270.299 303.932 270.825 303.531C271.415 303.082 272.016 302.802 272.392 302.802C272.943 302.802 273.001 302.736 272.993 302.124C272.988 301.752 272.817 300.532 272.613 299.415C272.41 298.297 272.313 297.383 272.399 297.383C272.618 297.383 273.324 299.342 273.619 300.77C273.757 301.44 273.978 301.968 274.121 301.968C274.262 301.968 274.737 301.588 275.178 301.124C275.618 300.659 276.252 300.225 276.586 300.158C277.176 300.04 277.189 300.01 277.06 299.074C276.928 298.109 276.626 296.783 276.411 296.223C276.348 296.059 276.404 295.924 276.536 295.924C276.836 295.924 277.796 297.945 277.799 298.581C277.803 299.214 277.974 299.169 278.925 298.287L279.735 297.534L279.286 293.759C279.038 291.683 278.841 289.749 278.847 289.463C278.866 288.513 279.197 289.457 279.675 291.827C280.207 294.466 280.678 296.135 280.887 296.126C280.969 296.122 281.333 295.85 281.697 295.519L282.358 294.918L281.866 293.701C281.198 292.048 280.906 289.55 281.153 287.588C281.581 284.191 282.279 283.551 282.058 286.758C281.931 288.606 281.952 288.833 282.241 288.722C282.634 288.572 283.119 287.415 283.33 286.128C283.575 284.63 283.732 284.461 284.871 284.461C286.032 284.461 286.315 284.217 286.854 282.756C287.195 281.834 287.287 281.755 288.547 281.303C290.829 280.486 291.134 279.965 289.312 279.997C288.222 280.015 287.34 280.409 286.255 281.36C285.763 281.791 285.522 281.902 285.522 281.697C285.522 281.079 286.374 280.341 288.219 279.363C290.602 278.099 290.807 277.875 289.749 277.696C288.391 277.467 286.09 278.142 284.751 279.163C283.7 279.963 283.928 279.378 285.157 278.118C285.95 277.305 286.511 276.925 287.191 276.743C288.418 276.412 291.238 276.413 294.535 276.746C299.045 277.2 300.668 276.806 300.635 275.267C300.627 274.879 300.546 274.398 300.456 274.198C300.315 273.883 300.41 273.833 301.16 273.833C303.032 273.833 303.808 272.832 304.144 269.984C304.418 267.669 304.715 266.149 304.919 266.023C305.171 265.867 305.414 270.255 305.238 271.788C305.008 273.79 304.384 275.23 303.257 276.355C301.993 277.618 300.961 278.126 299.38 278.263C297.913 278.39 297.137 278.739 296.203 279.693C295.076 280.845 294.519 282.693 293.857 287.484C293.636 289.089 293.391 290.684 293.313 291.028L293.172 291.653L293.019 291.132C292.716 290.095 292.836 288.014 293.359 285.227C293.652 283.664 293.863 281.984 293.827 281.495L293.762 280.607L293.04 282.013C292.643 282.787 292.25 283.42 292.166 283.42C292.082 283.42 291.982 282.975 291.944 282.43L291.875 281.44L291.308 282.602C290.57 284.116 290.342 285.394 290.217 288.716L290.115 291.444L290.691 289.256C291.008 288.052 291.38 286.88 291.518 286.651C291.769 286.234 291.769 286.234 291.774 286.651C291.786 287.755 291.136 295.292 290.969 295.987C290.664 297.251 289.703 299.037 289.124 299.416C288.83 299.608 288.323 300.134 287.995 300.586C287.429 301.367 287.4 301.516 287.4 303.63C287.4 306.381 287.146 307.277 285.367 310.822C284.618 312.315 283.883 313.865 283.734 314.266L283.465 314.996L283.45 314.247C283.442 313.835 283.753 312.569 284.142 311.433C284.862 309.331 285.252 307.597 285.004 307.597C284.835 307.597 283.06 311.333 282.19 313.519C281.837 314.406 281.276 316.18 280.943 317.461L280.336 319.789L280.321 318.315C280.311 317.306 280.471 316.289 280.83 315.092C281.118 314.13 281.329 313.275 281.299 313.192C281.207 312.938 279.675 315.63 278.924 317.364C278.535 318.264 278.015 319.835 277.77 320.854C277.113 323.589 276.997 323.758 276.981 322.008C276.966 320.397 277.325 318.678 278.006 317.09C278.23 316.568 278.366 316.142 278.308 316.142C277.906 316.142 276.497 317.085 275.922 317.739C274.475 319.385 273.22 323.353 273.214 326.302C273.21 327.741 272.921 328.046 272.719 326.823C272.467 325.3 272.699 322.647 273.32 319.946C273.41 319.554 273.34 319.477 272.895 319.477C271.497 319.477 269.904 320.756 269.136 322.496C268.434 324.086 268.014 326.247 267.691 329.928C267.53 331.767 267.358 333.312 267.31 333.36C267.183 333.487 266.951 330.508 266.953 328.772C266.957 327.396 267.208 324.553 267.487 322.779L267.607 322.017L265.453 322.735C264.269 323.129 263.124 323.584 262.909 323.746C262.551 324.016 262.503 324.542 262.335 329.939C262.147 335.988 261.959 338 261.676 336.984L261.675 336.982ZM260.255 321.577C260.649 321.183 260.718 320.817 261.01 317.579L261.134 316.204L259.086 315.865C257.96 315.678 256.78 315.465 256.464 315.392C255.94 315.27 255.891 315.31 255.895 315.856C255.903 317.127 256.327 319.32 256.705 320.058C257.593 321.786 259.31 322.521 260.255 321.577ZM266.178 321.293C267.254 320.473 267.88 319.041 267.885 317.391C267.891 315.325 267.828 315.251 266.493 315.76C265.327 316.204 263.886 316.336 262.948 316.083C262.401 315.935 262.386 315.956 262.242 317.109C262.011 318.955 262.258 321.386 262.712 321.726C263.344 322.2 265.309 321.955 266.178 321.293ZM271.618 319.161C271.933 318.955 272.385 318.405 272.623 317.939C273.072 317.06 273.358 314.882 273.138 314.009L273.013 313.51L271.096 313.981C270.041 314.24 269.099 314.574 269 314.723C268.824 314.992 268.993 319.204 269.195 319.552C269.36 319.836 270.988 319.574 271.618 319.161ZM254.934 319.349C255.366 319.183 255.366 318.04 254.931 315.682L254.597 313.869L252.621 313.233C251.534 312.884 250.593 312.598 250.529 312.598C250.466 312.598 250.455 313.465 250.505 314.525C250.602 316.597 250.994 317.681 251.981 318.6C252.732 319.3 254.133 319.656 254.933 319.349H254.934ZM276.532 315.944C277.78 315.056 278.5 312.427 277.834 311.196L277.582 310.732L276.643 311.448C276.127 311.841 275.378 312.225 274.979 312.3L274.253 312.436V314.358C274.253 315.415 274.323 316.35 274.41 316.437C274.663 316.692 275.878 316.409 276.532 315.944ZM249.497 314.525C249.568 314.096 249.627 313.158 249.628 312.441C249.632 311.326 249.577 311.139 249.256 311.139C249.049 311.139 248.228 310.71 247.43 310.186L245.979 309.233L245.916 310.649C245.816 312.903 246.739 314.625 248.296 315.091C249.277 315.384 249.361 315.344 249.497 314.525ZM260.347 314.866C261.006 314.566 261.095 314.142 261.247 310.588L261.372 307.641L260.666 306.763C259.8 305.686 259.093 305.303 257.977 305.303C255.943 305.303 254.954 306.704 254.956 309.585C254.956 311.061 255.04 311.431 255.647 312.662C256.506 314.405 257.417 315.099 258.85 315.099C259.392 315.099 260.066 314.994 260.347 314.866ZM266.181 314.657C266.432 314.528 266.942 314.135 267.315 313.782C269.212 311.989 269.384 307.215 267.608 305.638C266.732 304.86 264.001 305.552 262.776 306.863C262.302 307.372 262.255 307.584 262.262 309.228C262.271 311.655 262.899 314.45 263.489 314.688C264.124 314.944 265.654 314.927 266.181 314.657ZM271.35 313.165C272.774 312.206 273.734 309.428 273.594 306.667C273.463 304.073 272.458 303.235 271.005 304.51C269.6 305.741 269.43 306.434 269.589 310.286C269.724 313.558 269.739 313.64 270.186 313.64C270.438 313.64 270.962 313.426 271.35 313.165ZM253.9 308.846C253.909 305.463 253.645 304.513 252.534 303.939C251.669 303.492 251.391 303.555 250.444 304.409L249.587 305.183L249.672 307.275C249.794 310.269 250.621 311.69 252.582 312.274C253.383 312.513 253.515 312.505 253.691 312.207C253.801 312.02 253.895 310.508 253.9 308.846ZM280.67 311.92C281.031 311.548 281.472 310.894 281.65 310.468C282.052 309.505 282.07 307.807 281.683 307.278C281.404 306.898 281.357 306.913 280.54 307.65C280.072 308.073 279.447 308.479 279.152 308.553C278.62 308.686 278.616 308.704 278.752 310.174C278.892 311.687 279.266 312.598 279.746 312.598C279.893 312.598 280.309 312.293 280.67 311.92ZM245.045 310.178L245.276 309.064L244.48 308.271C244.042 307.835 243.449 307.166 243.162 306.783L242.64 306.087L242.753 308.248C242.87 310.505 243.063 311.108 243.842 311.653C244.269 311.952 244.331 311.95 244.561 311.636C244.7 311.447 244.917 310.791 245.045 310.178ZM276.038 310.591C276.308 310.415 276.744 309.833 277.008 309.298C277.45 308.401 277.487 308.055 277.487 304.851C277.487 302.941 277.422 301.312 277.342 301.232C277.262 301.152 276.786 301.285 276.285 301.528C274.529 302.376 274.063 304.111 274.352 308.726L274.505 311.173L275.027 311.042C275.314 310.97 275.769 310.767 276.038 310.591ZM248.703 308.295C248.913 306.332 248.706 303.635 248.275 302.728C247.873 301.883 247.207 301.59 246.52 301.958C246.12 302.172 246.083 302.373 246.083 304.335C246.083 306.962 246.461 308.392 247.355 309.143C248.348 309.978 248.535 309.86 248.703 308.295ZM283.231 307.335C283.651 306.411 283.784 303.758 283.452 302.911C283.299 302.518 283.277 302.523 283.005 303.015C282.71 303.546 282.429 308.221 282.692 308.221C282.767 308.221 283.01 307.822 283.231 307.335ZM241.905 304.265C241.79 303.633 241.512 302.937 241.282 302.707C240.867 302.293 240.867 302.295 240.868 304.058C240.872 305.849 241.132 307.252 241.567 307.785C241.923 308.222 242.166 305.7 241.905 304.265ZM245.226 302.781C245.248 300.503 245.01 299.05 244.616 299.05C244.521 299.05 244.227 299.353 243.963 299.723C243.017 301.049 243.226 304.489 244.383 306.644L244.936 307.673L245.07 306.436C245.143 305.755 245.214 304.111 245.226 302.781ZM279.632 306.498C279.876 306.239 280.234 305.653 280.427 305.196C280.839 304.222 281.039 301.053 280.775 299.676C280.615 298.844 280.537 298.744 280.084 298.796C279.804 298.828 279.339 299.088 279.052 299.373C278.585 299.839 278.531 300.061 278.534 301.504C278.538 303.544 278.858 306.97 279.046 306.97C279.124 306.97 279.388 306.758 279.632 306.498ZM282.492 302.229C283.528 301.12 283.982 298.181 283.351 296.672C282.915 295.631 282.686 295.618 282.019 296.597C281.506 297.35 281.442 297.584 281.605 298.113C281.71 298.456 281.813 299.652 281.833 300.769C281.853 301.887 281.889 302.801 281.913 302.801C281.937 302.801 282.198 302.544 282.492 302.229ZM242.5 300.433C242.806 298.774 242.812 297.429 242.517 296.583C242.326 296.038 242.226 295.964 241.907 296.134C241.325 296.445 241.005 297.692 241.15 299.08C241.285 300.366 241.764 301.76 242.072 301.76C242.173 301.76 242.365 301.163 242.5 300.433ZM235.372 299.832C233.827 297.775 233.289 295.531 232.736 288.838C232.503 286.029 232.258 283.474 232.191 283.159C232.018 282.341 232.249 282.45 232.634 283.367C233.158 284.614 233.55 286.785 233.998 290.922C234.477 295.337 235.022 297.903 235.761 299.224C236.044 299.731 236.276 300.227 236.276 300.327C236.276 300.71 235.86 300.482 235.372 299.832ZM244.421 295.214C244.417 294.995 244.611 293.789 244.851 292.534C245.153 290.956 245.266 289.678 245.216 288.398C245.177 287.379 245.173 286.545 245.208 286.545C245.243 286.545 245.476 286.991 245.725 287.535C246.63 289.516 246.154 293.544 244.826 295.134C244.461 295.572 244.427 295.578 244.421 295.214ZM251.926 292.033C251.926 291.955 252.077 291.088 252.261 290.106C252.479 288.945 252.568 287.605 252.514 286.28L252.432 284.241L252.809 284.974C253.355 286.037 254.033 286.412 255.173 286.284C256.159 286.173 257.086 285.65 259.143 284.044C260.215 283.207 260.461 283.106 261.428 283.106C262.324 283.106 262.948 283.319 265.046 284.336C269.117 286.31 270.076 286.19 270.56 283.647C270.797 282.402 271.123 281.931 271.123 282.835C271.123 283.268 271.159 283.258 271.801 282.649C272.174 282.295 272.855 281.819 273.314 281.591C274.174 281.165 276.327 280.627 276.496 280.796C276.549 280.849 275.824 281.277 274.886 281.748C273.494 282.447 273.125 282.736 272.882 283.318C272.442 284.37 272.499 284.734 273.446 286.937C273.92 288.04 274.354 289.364 274.411 289.88L274.513 290.818L272.958 289.207C270.861 287.035 269.342 286.47 267.773 287.281L267.157 287.599L267.289 289.417C267.435 291.439 267.238 291.513 266.674 289.649C266.21 288.113 265.335 286.841 264.232 286.102C262.908 285.214 262.404 285.345 261.816 286.732L261.586 287.275L261.253 286.493C260.89 285.643 260.572 285.546 259.667 286.014C258.745 286.49 257.838 287.668 257.338 289.037C257.085 289.73 256.794 290.297 256.691 290.297C256.586 290.297 256.567 289.696 256.646 288.921C256.799 287.43 256.666 287.18 255.713 287.174C254.276 287.164 253.19 288.435 252.465 290.974C252.168 292.013 251.926 292.489 251.926 292.033ZM247.008 285.059C246.822 284.7 246.583 283.785 246.478 283.027C246.258 281.45 245.764 280.634 244.971 280.54C244.551 280.49 244.328 280.263 244.025 279.579C243.558 278.525 242.657 277.799 241.075 277.203C239.955 276.782 239.945 276.771 240.666 276.761C242.558 276.733 245.548 277.917 247.037 279.284C248.627 280.743 249.005 282.272 248.139 283.738C247.892 284.155 247.698 284.77 247.707 285.104C247.73 285.896 247.432 285.877 247.008 285.059ZM279.848 285.388C279.257 284.483 279.102 279.075 279.639 278.073C279.809 277.757 280.163 277.6 280.948 277.496C281.678 277.4 282.909 276.894 284.779 275.922C286.295 275.134 288.091 274.327 288.771 274.127C290.309 273.676 293.754 273.639 295.954 274.05L297.519 274.342L294.806 274.481C290.289 274.713 287.154 275.752 284.854 277.778C284.248 278.312 283.452 278.765 282.767 278.966C280.785 279.548 280.317 280.354 280.121 283.523C280.049 284.67 279.927 285.509 279.848 285.388ZM254.325 284.46C253.598 283.055 253.56 279.423 254.232 275.612C254.564 273.731 255.87 268.719 256.461 267.058C257.085 265.305 258.612 262.297 259.317 261.431C259.74 260.912 259.892 260.845 260.206 261.036C260.415 261.163 260.73 261.654 260.906 262.127C261.287 263.15 261.656 263.577 261.916 263.296C262.017 263.187 262.259 262.606 262.455 262.004C262.662 261.365 262.933 260.91 263.106 260.91C263.692 260.91 265.12 262.638 265.921 264.315C267.484 267.588 269.289 274.798 269.704 279.428C269.969 282.388 269.839 283.764 269.219 284.551C268.466 285.508 267.665 285.217 264.875 282.975C262.465 281.037 261.97 280.814 260.998 281.219C260.585 281.392 259.573 282.147 258.749 282.898C256.344 285.09 254.913 285.596 254.325 284.46ZM252.432 276.02C252.654 272.785 253.268 270.205 255.172 264.496C256.974 259.092 257.774 255.884 257.762 254.104L257.755 253.094L257.262 253.654C256.99 253.962 256.712 254.158 256.644 254.09C256.576 254.022 256.579 253.473 256.65 252.87C256.808 251.526 256.624 250.697 256.167 250.697C255.98 250.697 255.469 251.072 255.033 251.53C254.442 252.151 254.13 252.749 253.812 253.875C253.576 254.707 253.242 255.87 253.068 256.461C252.615 258.001 250.901 260.512 249.594 261.55C247.476 263.232 244.315 264.339 241.002 264.56C240.067 264.622 238.809 264.718 238.206 264.773C236.258 264.951 237.044 264.522 239.557 264.036C242.115 263.541 245.4 262.578 246.292 262.061C246.761 261.789 246.39 261.757 242.64 261.749C238.152 261.74 236.553 261.572 234.342 260.88L232.93 260.438L231.68 261.209C229.746 262.401 228.789 262.246 227.722 260.565C227.393 260.048 226.868 258.921 226.554 258.062C226.077 256.755 225.948 256.561 225.77 256.879C225.455 257.441 225.539 259.578 225.936 261.089C226.127 261.818 226.241 262.458 226.188 262.511C226.008 262.69 224.757 260.671 224.374 259.583C223.695 257.653 223.484 255.792 223.615 252.9C223.759 249.722 224.286 247.151 225.834 242.078C226.424 240.146 226.874 238.467 226.834 238.348C226.721 238.009 225.471 239.704 224.926 240.937C224.469 241.97 223.964 243.803 223.3 246.842L223.026 248.092L222.963 246.751C222.876 244.915 223.389 242.573 224.607 239.234C225.172 237.687 225.634 236.288 225.634 236.125C225.634 235.962 225.47 235.644 225.269 235.42C224.915 235.023 224.92 235.015 225.426 235.157C227.584 235.764 230.001 237.445 233.694 240.906C235.057 242.183 236.782 243.688 237.528 244.249C238.965 245.329 240.834 246.423 240.986 246.272C241.035 246.222 240.888 245.447 240.658 244.55C240.429 243.653 240.241 242.395 240.241 241.754V240.589L241.379 242.646C243.483 246.45 245.53 248.715 248.053 250.031C248.933 250.489 249.387 250.582 250.778 250.587C252.213 250.592 252.547 250.523 253.152 250.091C254.052 249.451 254.618 248.165 254.785 246.387L254.916 244.984L255.62 246.531C256.007 247.381 256.465 248.232 256.637 248.423C256.928 248.744 257.004 248.741 257.717 248.378C258.138 248.164 258.63 247.988 258.81 247.988C258.989 247.988 259.336 247.848 259.581 247.677C260.012 247.375 260.029 247.396 260.164 248.374C260.499 250.804 259.606 255.223 257.863 259.764C254.742 267.896 254.172 269.704 253.171 274.665C252.812 276.441 252.467 277.941 252.404 277.999C252.34 278.057 252.353 277.167 252.432 276.02ZM270.706 277.187C270.706 275.879 269.844 271.657 269.12 269.418C268.701 268.12 267.715 265.436 266.93 263.452C264.346 256.926 263.467 253.587 263.253 249.473L263.129 247.101L264.775 248.864L265.51 248.557C266.395 248.188 267.682 246.741 268.01 245.747L268.249 245.026L268.616 245.845C269.447 247.7 272.666 247.919 274.009 246.214L274.462 245.639V246.17C274.462 246.714 273.786 247.416 272.577 248.129C271.817 248.578 271.8 248.891 272.495 249.586C272.952 250.043 273.168 250.108 273.937 250.021C275.742 249.818 278.29 248.108 279.998 245.954C280.956 244.745 282.808 241.325 282.808 240.764C282.808 240.597 282.902 240.518 283.017 240.589C283.132 240.66 283.226 241.324 283.226 242.064V243.411L283.799 243.281C285.054 242.999 286.253 242.038 287.608 240.231C289.064 238.288 289.465 238.137 288.51 239.89C287.869 241.068 286.801 242.23 284.06 244.733L282.287 246.352L283.539 245.708C285.335 244.784 286.937 243.532 289.889 240.745C292.829 237.97 294.896 236.201 295.979 235.532C296.591 235.154 296.839 235.11 297.414 235.274C298.558 235.602 299.91 235.052 299.925 234.252C299.931 233.963 299.959 233.967 300.14 234.277C300.254 234.473 300.288 234.871 300.216 235.16C300.064 235.765 298.813 236.942 298.322 236.942C297.929 236.942 297.928 236.936 299.089 239.964C300.563 243.805 300.99 245.791 301.084 249.239C301.181 252.778 300.994 252.5 300.338 248.129C299.581 243.09 298.717 240.317 297.594 239.32L297.146 238.922L297.288 240.018C297.366 240.621 297.661 241.887 297.944 242.832C299.899 249.353 300.267 252.214 299.625 255.887C299.259 257.975 298.178 261.486 297.71 262.101C297.45 262.444 297.428 262.429 297.421 261.917C297.418 261.611 297.562 260.788 297.741 260.088C297.921 259.388 298.037 258.56 297.999 258.248C297.946 257.803 297.806 258.043 297.359 259.347C296.663 261.376 296.082 262.369 295.591 262.369C295.387 262.369 294.376 262.133 293.344 261.845C291.343 261.287 289.259 261.162 288.026 261.528C287.116 261.798 285.712 261.806 285.027 261.546C284.617 261.39 284.392 261.439 283.966 261.773C283.498 262.141 283.334 262.166 282.751 261.959C282.381 261.828 280.904 261.664 279.47 261.594C277.143 261.482 276.89 261.503 277.125 261.787C277.829 262.638 283.249 264.235 285.456 264.243C285.823 264.246 286.189 264.353 286.271 264.485C286.382 264.664 285.656 264.694 283.414 264.602C278.516 264.401 275.915 263.426 273.313 260.814C271.623 259.118 270.557 257.246 269.868 254.762C269.323 252.796 268.853 251.816 268.136 251.148C267.29 250.359 266.857 250.606 266.781 251.923C266.746 252.537 266.809 253.302 266.921 253.623C267.206 254.44 266.955 254.566 266.407 253.881C266.152 253.563 265.879 253.367 265.799 253.446C265.599 253.645 266.053 256.924 266.56 258.93C266.792 259.847 267.582 262.437 268.316 264.686C270.265 270.656 270.705 272.502 270.85 275.343C270.919 276.69 270.915 277.792 270.841 277.792C270.767 277.792 270.706 277.52 270.706 277.187ZM304.927 265.495C304.927 265.38 305.021 265.287 305.135 265.287C305.25 265.287 305.344 265.38 305.344 265.495C305.344 265.61 305.25 265.704 305.135 265.704C305.021 265.704 304.927 265.61 304.927 265.495ZM224.529 263.356C223.593 261.948 222.996 260.182 222.808 258.266C222.679 256.944 222.825 254.7 223.028 254.902C223.069 254.943 223.302 255.96 223.546 257.162C224.021 259.507 224.375 260.873 225.045 262.955C225.278 263.679 225.424 264.316 225.369 264.371C225.314 264.426 224.936 263.969 224.529 263.356ZM299.926 260.685C299.922 260.618 300.236 259.399 300.625 257.975C301.525 254.676 302.004 252.544 302.012 251.803C302.021 250.962 302.335 251.595 302.51 252.805C302.794 254.778 301.715 258.641 300.448 260.18C300.165 260.524 299.93 260.751 299.926 260.685ZM219.57 249.343C219.069 248.299 219.169 243.795 219.758 240.892L220.247 238.485L219.57 237.766C217.532 235.6 217.356 231.337 219.193 228.67C219.754 227.856 219.791 227.699 219.594 226.99C219.109 225.245 219.577 220.138 220.261 219.716C220.407 219.625 220.44 219.701 220.352 219.93C220.277 220.126 220.154 221.294 220.079 222.525C219.938 224.848 220.11 225.625 220.912 226.29C221.361 226.662 222.169 226.081 222.878 224.876C223.393 224.001 223.441 223.74 223.415 221.936C223.393 220.345 223.219 219.312 222.529 216.686C221.59 213.114 221.554 212.901 221.913 213.02C222.133 213.094 222.562 214.045 224.396 218.528C224.731 219.348 225.285 221.259 225.628 222.775C226.355 225.996 227.376 228.27 228.97 230.22C229.556 230.937 229.98 231.523 229.913 231.523C229.846 231.523 229.443 231.344 229.017 231.124C227.854 230.526 226.608 229.374 225.517 227.89C224.56 226.588 224.526 226.565 223.899 226.783C222.949 227.114 221.501 228.674 220.892 230.023C220.111 231.751 219.986 234.265 220.616 235.565C220.884 236.118 221.372 236.694 221.796 236.955C222.27 237.248 222.486 237.52 222.423 237.745C222.37 237.934 222.265 238.416 222.19 238.818C222.115 239.219 221.74 240.579 221.356 241.84C220.274 245.391 220.17 245.871 220.015 247.988C219.875 249.904 219.86 249.948 219.57 249.343ZM304.933 249.318C304.921 248.125 304.319 245.171 303.576 242.658C303.172 241.291 302.688 239.582 302.5 238.861L302.159 237.55L303.048 236.789C304.179 235.823 304.511 235.016 304.504 233.249C304.496 230.868 303.211 228.334 301.404 227.135L300.44 226.495L299.404 227.706C297.808 229.573 296.662 230.639 295.755 231.101C294.584 231.698 294.513 231.632 295.37 230.741C297.147 228.896 298.038 226.861 299.797 220.635C301.001 216.372 302.319 212.765 302.673 212.765C302.959 212.765 302.724 214.407 301.98 217.624C300.859 222.464 300.983 224.401 302.508 225.877C303.211 226.557 303.255 226.57 303.75 226.246C304.527 225.738 304.795 224.643 304.648 222.576C304.578 221.593 304.47 220.555 304.408 220.268C304.338 219.944 304.45 220.062 304.703 220.58C305.41 222.024 305.611 223.808 305.245 225.384C304.755 227.493 304.817 227.966 305.744 229.207C307.594 231.684 307.383 234.961 305.219 237.354L304.487 238.164L305.038 241.461C305.625 244.978 305.694 248.7 305.188 249.551C304.959 249.934 304.939 249.916 304.933 249.318ZM261.892 240.068C261.817 239.781 261.656 237.999 261.533 236.108C261.305 232.601 260.945 230.536 260.365 229.416C259.578 227.896 258.002 226.632 254.534 224.74C252.764 223.774 251.047 222.198 250.473 221.013C249.719 219.457 249.965 219.309 251.132 220.616C254.721 224.64 257.148 226.095 260.281 226.102C263.797 226.109 267.648 223.804 269.931 220.325C270.655 219.222 270.822 219.067 270.88 219.445C271.089 220.813 269.645 222.8 266.95 224.855C263.878 227.196 262.808 228.801 262.459 231.588C262.377 232.25 262.245 234.546 262.168 236.69C262.09 238.835 261.966 240.355 261.892 240.068ZM245.04 236.955C243.427 236.463 241.406 235.136 239.221 233.134C237.036 231.132 236.776 231.04 234.635 231.517C233.318 231.81 232.737 231.851 232.158 231.691C230.696 231.288 228.566 228.562 227.6 225.86C227.423 225.364 227.008 223.692 226.678 222.144C226.347 220.597 225.93 218.917 225.749 218.412C225.569 217.907 225.461 217.454 225.51 217.405C225.753 217.162 227.22 219.839 228.155 222.231C229.394 225.403 229.662 225.95 230.482 226.993C231.407 228.168 232.628 228.784 234.705 229.119C235.702 229.28 236.767 229.575 237.071 229.774C237.375 229.974 238.612 231.13 239.819 232.344C241.528 234.063 242.499 234.839 244.202 235.851C246.187 237.03 246.459 237.388 245.04 236.955ZM280.319 234.831C281.94 231.784 282.801 231.106 285.05 231.106C286.312 231.106 286.747 230.916 287.921 229.849C288.607 229.225 289.455 228.911 291.051 228.693C293.162 228.403 294.955 227.04 296.023 224.913C296.298 224.364 296.928 222.837 297.423 221.519C298.84 217.745 298.947 217.968 297.935 222.586C297.094 226.425 295.872 228.931 294.009 230.637C292.944 231.613 292.583 231.683 291.031 231.212C289.614 230.783 289.008 230.819 287.865 231.398C287.231 231.719 286.319 231.95 285.321 232.041C283.017 232.25 282.594 232.54 280.774 235.169C280.229 235.957 279.672 236.636 279.538 236.679C279.403 236.722 279.755 235.89 280.319 234.831Z" fill="currentcolor"/>

</svg>
