<svg  viewBox="0 0 1180 580" fill="currentcolor" xmlns="http://www.w3.org/2000/svg">
<path d="M250.468 339.44C250.366 339.274 250.476 338.675 250.713 338.108C251.372 336.533 251.279 334.834 250.495 334.153C249.853 333.596 249.85 333.561 250.195 330.94C250.387 329.482 250.554 327.72 250.566 327.024C250.601 325.072 250.842 324.451 251.526 324.549C252.599 324.704 252.775 325.661 252.793 331.446C252.804 334.767 252.938 337.315 253.134 337.907C253.347 338.55 253.362 338.98 253.179 339.162C252.762 339.579 250.686 339.791 250.468 339.44ZM235 336.673C234.894 336.567 234.892 334.991 234.995 333.172C235.154 330.36 235.113 329.758 234.718 329.157C234.134 328.265 234.127 327.35 234.7 326.718C235.07 326.309 235.112 325.802 234.948 323.705C234.839 322.319 234.67 321.069 234.573 320.928C234.475 320.787 233.002 320.249 231.299 319.733C226.698 318.338 222.095 316.049 217.084 312.664C212.246 309.396 204.258 300.245 201.763 295.112C199.091 289.613 198.342 287.873 197.225 284.56C195.529 279.534 194.866 276.076 194.561 270.676C194.242 265.038 194.557 260.724 195.499 257.858C198.245 249.492 199.993 245.184 202.287 241.129C203.424 239.119 204.946 236.292 205.668 234.847C206.865 232.452 208.662 229.705 210.63 227.261C211.676 225.962 214.868 223.691 216.46 223.114C218.828 222.255 223.381 220.131 224.255 219.477C224.855 219.027 225.609 218.806 226.814 218.724C228.011 218.642 228.795 218.413 229.437 217.956C230.167 217.437 230.573 217.34 231.442 217.479C232.072 217.58 232.606 217.533 232.709 217.367C232.806 217.21 233.36 216.84 233.94 216.544C235.184 215.91 235.657 216.103 236.103 217.427C236.533 218.703 237.26 218.78 237.757 217.603C237.974 217.089 238.613 216.225 239.176 215.684L240.2 214.7C245.83 213.093 250.284 212.353 255.176 212.384C260.067 212.415 269.548 214.888 269.548 214.888L271.677 215.733C275.047 217.07 280.325 219.853 283.235 221.828C286.531 224.064 291.542 228.196 293.105 229.967C296.909 234.278 301.541 243.733 303.599 251.391C305.943 260.114 306.839 264.482 306.964 267.793C307.033 269.624 306.962 271.623 306.806 272.237C306.607 273.022 306.616 273.558 306.838 274.044C307.08 274.574 307.056 275.108 306.735 276.337C306.506 277.218 306.318 278.364 306.318 278.885C306.318 281.499 301.186 293.123 298.037 297.641C296.255 300.198 293.648 303.165 289.869 306.938C286.555 310.247 284.884 311.667 282.228 313.434C275.208 318.104 270.486 320.187 263.249 321.804C257.974 322.982 256.21 323.164 249.726 323.196L243.381 323.229L242.17 324.187C240.878 325.209 240.461 325.096 240.452 323.721C240.445 322.687 239.451 321.918 238.25 322.018L237.21 322.104L237.251 323.601C237.284 324.821 237.453 325.3 238.166 326.185C239.173 327.438 239.288 328.314 238.477 328.571C237.484 328.886 237.31 329.664 237.514 332.881C237.681 335.52 237.644 335.97 237.227 336.387C236.751 336.862 235.368 337.04 235 336.673ZM256.782 316.327C260.292 315.895 267.343 314.015 270.492 312.673C277.684 309.607 283.808 304.902 289.69 297.924C292.291 294.838 293.164 293.493 295.331 289.231C297.771 284.43 298.471 282.185 299.581 275.588C300.587 269.608 300.589 270.296 299.548 260.81C299.061 256.361 295.793 247.481 292.439 241.491C291.42 239.671 291.086 239.33 285.61 234.522C283.937 233.053 281.61 230.915 280.438 229.772C277.324 226.732 275.835 225.63 272.76 224.089C269.359 222.384 267.014 221.493 263.586 220.603C259.349 219.503 251.531 218.495 247.238 218.495C245.183 218.495 244.973 218.557 242.834 219.797C239.649 221.642 239.606 221.692 239.587 223.53C239.56 226.162 239.257 227.34 238.582 227.437C237.872 227.539 237.632 226.665 237.632 223.98V222.224L235.451 222.084C234.251 222.006 233.105 222.006 232.903 222.082C232.702 222.159 232.069 222.917 231.496 223.767C229.557 226.646 229.503 226.799 229.661 228.993C229.838 231.436 229.484 232.553 228.535 232.553C227.875 232.553 227.865 232.511 227.687 228.79C227.587 226.721 227.428 224.823 227.331 224.573C227.207 224.249 226.798 224.119 225.902 224.119C224.238 224.119 223.631 224.486 223.099 225.816C222.777 226.62 222.154 227.28 220.821 228.23C215.02 232.364 209.667 238.717 206.397 245.346C204.483 249.228 203.117 253.011 202.439 256.312C201.846 259.198 202.311 267.169 203.49 274.306C203.719 275.698 204.029 277.659 204.178 278.664C204.677 282.039 206.711 288.328 208.368 291.619C209.581 294.029 212.952 298.63 215.535 301.402C216.464 302.398 218.704 304.398 220.512 305.846C224.72 309.214 225.468 310.14 225.582 312.12C225.683 313.862 226.08 314.15 226.972 313.125C227.771 312.207 228.624 312.208 229.49 313.128C230.037 313.711 230.337 313.818 231.016 313.675C233.483 313.155 233.802 313.186 235.521 314.116C236.676 314.74 238.368 315.275 240.87 315.806C244.036 316.477 245.195 316.585 249.463 316.602C252.176 316.612 255.47 316.489 256.782 316.327ZM239.811 306.621C235.408 305.857 234.339 305.425 234.092 304.315C233.745 302.756 233.656 302.615 232.907 302.433C231.838 302.173 229.975 300.908 230.101 300.528C230.243 300.103 231.923 299.518 233.077 299.492C234.417 299.461 235.099 299.912 235.099 300.828C235.099 301.537 235.314 301.696 237.562 302.652C239.356 303.414 240.421 303.697 241.479 303.693C242.986 303.688 250.538 305.249 250.963 305.655C251.342 306.015 250.187 306.494 247.872 306.937C245.143 307.458 244.478 307.432 239.811 306.621ZM244.318 297.01C244.047 296.949 243.825 296.734 243.825 296.532C243.825 296.33 243.645 296.016 243.425 295.833C243.101 295.564 243.007 295.622 242.932 296.133C242.844 296.735 242.818 296.741 242.348 296.269C242.077 295.997 241.855 295.658 241.855 295.514C241.855 295.206 244.391 295.167 244.831 295.468C245.735 296.086 245.35 297.242 244.318 297.01ZM247.309 296.809C246.946 295.865 247.347 295.721 250.597 295.625C252.414 295.571 254.31 295.355 254.945 295.129C255.564 294.909 256.86 294.534 257.826 294.295C262.163 293.222 267.1 289.572 270.603 284.85C272.726 281.989 277.886 269.384 277.886 267.061C277.886 265.813 278.516 265.635 279.745 266.536C281.663 267.944 282.193 268.691 282.222 270.034C282.238 270.754 282.026 271.672 281.705 272.267C281.181 273.24 281.178 273.347 281.635 275.237C282.249 277.778 282.258 279.468 281.658 279.698C281.143 279.895 280.712 279.356 280.706 278.507C280.7 277.772 279.977 276.764 279.673 277.067C279.547 277.193 279.448 277.857 279.455 278.543C279.465 279.668 279.401 279.789 278.803 279.789C278.313 279.789 278.033 279.536 277.736 278.824C277.282 277.739 276.833 277.354 276.458 277.729C275.806 278.381 274.858 283.523 274.797 286.748C274.792 286.972 274.362 287.099 273.604 287.099C272.534 287.099 272.281 287.246 271.001 288.612C268.886 290.869 262.174 295.281 259.73 296.021C255.886 297.185 247.654 297.707 247.309 296.809ZM217.063 295.214C216.886 294.884 216.801 294.22 216.874 293.738C217.061 292.514 216.899 292.221 215.689 291.604C214.632 291.066 213.96 290.055 213.539 288.369L213.33 287.531L214.01 288.016C217.189 290.282 218.724 290.607 221.05 289.507C221.914 289.098 223.104 288.269 223.696 287.664L224.771 286.565L224.285 285.294C224.018 284.595 223.457 283.657 223.038 283.209C222.317 282.438 222.198 282.407 220.736 282.608C219.888 282.725 218.45 283.15 217.541 283.554C215.636 284.399 215.351 284.445 215.572 283.872C215.856 283.132 218.342 281.566 219.843 281.182C220.858 280.922 221.306 280.666 221.306 280.346C221.306 279.72 219.877 277.615 218.645 276.425L217.637 275.452L216.471 275.863C214.041 276.721 212.945 279.398 213.224 283.795C213.3 284.994 213.281 285.967 213.182 285.959C213.083 285.95 212.698 285.56 212.328 285.092C211.342 283.847 211.09 282.059 211.593 279.889C212.393 276.444 213.579 274.81 216.678 272.881C217.83 272.164 218.769 271.495 218.766 271.395C218.763 271.295 218.589 269.605 218.381 267.639C217.96 263.665 218.025 262.875 218.871 261.669C219.296 261.063 219.437 260.47 219.393 259.468C219.356 258.616 219.494 257.868 219.757 257.493C219.989 257.161 220.18 256.4 220.18 255.801C220.18 254.949 220.057 254.681 219.617 254.566C218.983 254.4 218.904 253.895 219.37 252.99C220.367 251.057 222.022 250.505 222.883 251.819C223.406 252.615 223.29 255.208 222.544 259.404C221.794 263.625 222.18 272.996 223.265 276.88C224.853 282.57 227.313 286.448 231.382 289.678C233.888 291.667 235.376 292.553 237.998 293.619C239.885 294.386 240.433 294.775 240.443 295.355C240.45 295.73 237.974 295.272 236.089 294.55C233.929 293.722 230.396 291.729 228.11 290.049L226.329 288.74L225.295 289.451C224.727 289.842 223.704 290.548 223.022 291.021C222.34 291.494 221.045 292.149 220.144 292.477C219.244 292.805 218.449 293.279 218.379 293.53C218.309 293.782 218.168 294.399 218.067 294.901C217.854 295.96 217.518 296.065 217.063 295.214ZM273.383 292.291C273.383 289.427 273.401 289.339 273.939 289.626C274.785 290.078 275.059 290.808 275.256 293.13L275.436 295.253H273.383V292.291ZM232.333 257.581L231.632 257.315C231.247 257.169 230.84 256.901 230.728 256.721C230.604 256.52 231.617 255.284 233.335 253.54C237.49 249.325 237.782 248.749 235.924 248.436C235.115 248.299 234.713 248.065 234.554 247.638C234.229 246.767 234.465 246.378 235.697 245.75C236.914 245.13 236.913 245.131 236.472 244.274C235.81 242.987 234.735 242.113 233.814 242.113C232.8 242.113 232.448 241.783 232.166 240.567C232.059 240.103 231.655 239.112 231.268 238.364C230.437 236.758 230.543 236.542 232.595 235.66C234.789 234.718 235.334 234.909 236.168 236.912C237.855 240.96 239.123 243.674 239.413 243.854C239.917 244.169 240.364 243.59 240.56 242.368C240.806 240.828 242.183 237.895 243.012 237.146C243.721 236.504 246.564 235.831 247.416 236.103C248.552 236.465 249.13 236.873 249.424 237.518C249.932 238.63 249.79 239.245 248.87 239.925C247.892 240.647 247.875 241.243 248.768 243.526C249.208 244.654 249.219 244.894 248.865 245.635C248.641 246.102 248.202 246.509 247.868 246.556C247.391 246.625 247.235 246.456 247.09 245.713C246.861 244.539 245.526 242.114 244.895 241.725C244.061 241.212 243.982 241.787 244.617 243.756C244.956 244.807 245.233 245.742 245.233 245.833C245.233 245.923 244.663 246.584 243.966 247.3C243.27 248.016 242.7 248.789 242.7 249.018C242.7 249.248 243.009 249.907 243.387 250.484C244.788 252.618 246.605 257.109 246.797 258.913C246.98 260.63 246.969 260.67 246.312 260.67C245.162 260.67 244.416 259.872 243.202 257.345C241.951 254.741 240.608 252.793 240.072 252.804C239.892 252.807 239.364 253.325 238.899 253.954C238.435 254.582 237.259 255.796 236.286 256.65C233.766 258.863 233.636 259.203 233.743 263.294L233.832 266.715L232.143 266.881L232.333 257.581ZM270.286 264.962C269.435 264.903 268.625 264.743 268.487 264.607C268.342 264.463 268.543 263.996 268.968 263.491C269.914 262.368 269.704 261.72 268.47 261.951L267.564 262.121L267.261 259.968C267.095 258.784 266.897 257.753 266.821 257.677C266.587 257.444 263.972 258.889 263.021 259.776C262.457 260.303 262.123 260.886 262.123 261.345C262.123 262.204 262.181 262.189 260.908 261.658C259.962 261.263 259.896 261.271 259.727 261.803C259.629 262.112 259.699 262.821 259.883 263.379C260.259 264.517 259.996 264.875 258.779 264.883C258.131 264.887 258.116 264.839 258.324 263.411C258.628 261.313 258.542 260.649 257.869 259.934C257.158 259.178 257.352 258.783 258.709 258.223C260.457 257.502 266.624 253.609 266.934 253.03C267.096 252.728 267.211 252.078 267.189 251.585C267.168 251.092 267.163 250.119 267.18 249.423C267.196 248.727 267.064 247.55 266.886 246.807C266.709 246.064 266.609 245.412 266.666 245.356C266.722 245.301 267.243 245.42 267.823 245.62C268.876 245.982 268.879 245.981 268.879 245.207C268.879 244.041 268.272 243.696 266.605 243.917L265.18 244.106L265.27 243.32C265.337 242.739 265.726 242.29 266.768 241.591C268.099 240.699 268.279 240.655 270.095 240.782C271.151 240.856 272.128 241.028 272.265 241.165C272.41 241.31 272.403 243.175 272.248 245.619C272.099 247.97 272.088 249.93 272.224 250.065C272.433 250.274 274.319 248.348 276.126 246.079C276.85 245.17 278.125 245.418 279.991 246.83C281.851 248.238 282.762 249.598 282.552 250.653C282.463 251.098 282.391 252.209 282.391 253.122C282.391 254.371 282.281 254.825 281.949 254.952C281.271 255.212 281.02 254.766 280.815 252.934C280.684 251.772 280.361 250.837 279.772 249.915C278.92 248.583 278.525 248.199 278.834 249.005C278.962 249.338 278.847 249.393 278.301 249.256C277.736 249.114 277.605 249.186 277.605 249.64C277.605 249.947 277.332 250.379 276.998 250.601C276.449 250.965 276.267 251.81 276.492 252.946C276.67 253.846 276.439 254.203 275.681 254.203C275.197 254.203 274.254 254.652 273.288 255.343L271.694 256.483V258.517C271.694 259.636 271.9 261.306 272.152 262.227C272.971 265.223 273.019 265.151 270.286 264.962ZM234.573 229.672C234.447 229.324 234.317 228.373 234.285 227.559C234.223 225.989 234.697 225.403 235.494 226.064C236.038 226.515 236.365 229.375 235.931 229.897C235.436 230.494 234.836 230.394 234.573 229.672ZM241.573 331.014C241.573 328.685 241.981 327.64 242.773 327.944C243.013 328.036 243.29 328.531 243.388 329.044C243.486 329.557 243.709 330.532 243.884 331.211C244.167 332.307 244.144 332.488 243.679 332.827C243.391 333.038 242.799 333.21 242.364 333.21H241.573V331.014Z" fill="currentcolor"/>
<path d="M213.181 283.517L211.584 283.576C211.664 284.207 212.359 286.004 212.594 286.739C212.758 287.252 214.19 290.091 214.19 290.091L214.913 288.647C213.98 287.84 213.913 287.462 213.634 286.727C213.254 285.727 213.305 285.328 213.181 283.517Z" fill="currentcolor"/>

</svg>
