<svg  viewBox="0 0 1180 580" fill="currentcolor" xmlns="http://www.w3.org/2000/svg">
<path d="M263.156 334.161C261.46 334.047 259.676 333.83 257.85 333.515C256.755 333.327 255.663 333.141 255.422 333.102C255.182 333.063 254.465 333.129 253.83 333.248C250.222 333.928 247.35 334.158 243.522 334.072C240.86 334.013 240.045 333.945 238.548 333.66C236.295 333.231 234.833 332.789 233.295 332.071C230.866 330.938 229.478 329.733 227.972 327.451C225.81 324.177 225.049 320.811 225.387 316.011C225.473 314.785 225.636 313.394 225.75 312.921C225.864 312.447 225.97 311.674 225.985 311.204L226.012 310.348L224.578 309.614C222.739 308.672 221.794 307.976 220.308 306.471C218.659 304.801 217.753 303.123 217.245 300.797C216.987 299.617 216.946 297.051 217.174 296.327C217.249 296.089 217.409 295.566 217.528 295.165C218.001 293.585 219.122 291.799 220.189 290.925C220.5 290.67 220.758 290.372 220.762 290.263C220.766 290.153 220.566 289.85 220.318 289.589C217.998 287.144 217.94 283.63 220.18 281.142C220.901 280.341 221.725 279.744 222.297 279.608C223.847 279.239 224.057 279.135 224.12 278.708C224.185 278.269 223.866 277.834 223.154 277.387C222.968 277.27 222.134 276.631 221.299 275.967C220.051 274.974 219.701 274.76 219.326 274.76C218.739 274.76 216.811 275.776 213.978 277.58C212.789 278.336 211.734 279.004 211.632 279.064C211.329 279.241 210.68 279.165 210.411 278.922C210.124 278.663 210.085 278.018 210.329 277.595C210.829 276.731 211.575 276.121 213.873 274.697C217.076 272.712 217.057 272.728 217.057 272.055C217.057 271.891 216.563 270.927 215.96 269.913C215.356 268.898 214.78 267.907 214.681 267.711C214.581 267.514 214.329 267.19 214.121 266.991C213.779 266.665 213.653 266.631 212.843 266.646C212.301 266.656 211.523 266.793 210.885 266.992C210.303 267.173 209.568 267.388 209.251 267.471C207.898 267.824 206.975 267.552 206.975 266.8C206.975 266.02 208.053 265.346 210.49 264.601C211.293 264.355 212.099 264.045 212.281 263.912C212.724 263.588 212.764 262.978 212.427 261.68C212.279 261.112 212.063 260.141 211.945 259.522C211.658 258.011 211.335 256.973 211.09 256.777C210.785 256.533 208.814 256.571 206.179 256.872C203.195 257.213 202.673 257.213 202.332 256.872C201.647 256.188 202.303 255.138 203.658 254.749C204.442 254.524 207.214 254.117 209.031 253.959C210.003 253.874 210.82 253.74 210.904 253.651C210.989 253.561 211.119 252.446 211.208 251.042C211.519 246.145 212.692 241.888 215.017 237.22C215.883 235.482 215.965 235.151 215.725 234.345C215.65 234.091 215.339 232.809 215.035 231.498C214.485 229.121 214.483 229.103 214.476 226.396C214.471 224.069 214.514 223.464 214.775 222.174C215.225 219.959 215.648 218.714 216.605 216.79C217.948 214.091 219.064 212.897 220.696 212.412C221.513 212.17 223.689 212.166 224.95 212.405C228.258 213.03 232.603 214.545 236.072 216.282C238.168 217.332 238.424 217.362 241.068 216.863C244.141 216.284 249.258 215.924 254.401 215.924C256.006 215.924 257.383 215.881 257.462 215.827C257.54 215.774 257.851 215.372 258.151 214.935C258.452 214.498 258.866 213.956 259.07 213.73C259.274 213.505 259.623 213.117 259.844 212.869C260.972 211.603 262.654 210.481 264.217 209.952C265.014 209.683 267.487 209.712 268.424 210.001C269.968 210.478 272.285 212.333 273.572 214.123C273.841 214.497 274.115 214.736 274.275 214.736C274.419 214.736 275.117 214.378 275.826 213.941C279.482 211.684 283.939 210.193 287.035 210.19C288.183 210.19 288.465 210.236 289.127 210.535C290.097 210.974 290.996 211.89 291.802 213.263C292.497 214.448 292.764 215.112 293.327 217.055C293.739 218.474 294.398 222.437 294.398 223.492V224.131L295.519 224.656C297.281 225.481 298.311 226.749 298.641 228.501C298.84 229.559 298.803 231.995 298.568 233.353C298.141 235.809 297.374 237.821 295.994 240.103C295.194 241.426 295.193 241.456 295.845 243.257C296.358 244.674 296.691 246.196 297.043 248.733C297.341 250.877 297.492 251.315 297.979 251.443C298.162 251.49 299.724 251.568 301.451 251.614C304.17 251.688 304.708 251.738 305.469 251.987C306.38 252.286 307 252.815 307 253.295C307 253.43 306.836 253.672 306.635 253.832C306.274 254.121 306.235 254.123 302.755 254.049C299.163 253.972 298.101 254.04 297.781 254.368C297.596 254.557 297.322 256.398 297.044 259.319L296.893 260.906L297.214 261.181C297.458 261.391 297.932 261.512 299.183 261.686C301.647 262.029 303.399 262.569 304.002 263.171C304.301 263.47 304.276 264.118 303.958 264.288C303.62 264.468 302.592 264.464 299.336 264.268C296.165 264.078 296.396 263.985 295.649 265.753C294.536 268.385 294 269.795 294 270.087C294 270.561 294.502 270.936 296.355 271.846C298.472 272.885 300.347 273.975 300.717 274.382C301.291 275.014 301.276 275.931 300.688 276.199C300.127 276.454 299.184 276.159 296.388 274.856C295.84 274.602 294.83 274.143 294.142 273.837C292.371 273.05 292.325 273.065 290.418 275.016C288.998 276.469 287.364 277.897 286.106 278.784C283.883 280.353 282.533 281.062 278.512 282.775C278.202 282.907 277.948 283.059 277.948 283.111C277.948 283.164 278.381 283.433 278.91 283.709C280.821 284.707 282.565 285.905 285.398 288.169C286.716 289.221 286.866 289.304 287.587 289.387C288.665 289.51 290.18 289.917 290.85 290.263C293.626 291.697 294.618 294.578 293.513 297.997C293.336 298.545 293.33 298.726 293.475 299.19C294.44 302.284 292.755 306.857 289.816 309.117C288.552 310.089 286.313 311.021 284.672 311.257C284.065 311.345 284.037 311.367 284.106 311.705C284.59 314.05 284.732 318.761 284.38 320.82C283.775 324.361 282.358 327.483 280.393 329.603C279.105 330.992 276.782 332.338 274.432 333.057C271.402 333.983 266.968 334.418 263.156 334.161ZM247.834 330.875C251.315 330.74 252.682 330.327 253.227 329.249C253.509 328.692 253.512 328.605 253.443 323.882C253.405 321.242 253.319 319.023 253.252 318.952C253.176 318.87 251.656 318.836 249.189 318.86C246.181 318.889 244.361 318.834 241.503 318.624C237.802 318.352 232.445 317.748 230.389 317.37C229.805 317.263 229.119 317.157 228.864 317.135L228.399 317.094L228.362 318.905C228.304 321.797 228.802 323.603 230.283 325.866C231.71 328.046 233.801 329.282 237.625 330.207C239.531 330.668 243.831 331.101 245.38 330.989C245.672 330.967 246.776 330.916 247.834 330.875ZM270.417 330.746C273.897 330.273 276.816 329.014 278.595 327.219C280.32 325.479 281.556 322.209 281.744 318.889C281.861 316.833 281.931 316.885 279.636 317.339C276.779 317.905 274.097 318.34 271.738 318.621C270.52 318.766 268.957 318.953 268.263 319.036C266.427 319.256 259.502 319.225 257.819 318.988C257.073 318.884 256.398 318.838 256.319 318.886C256.22 318.947 256.189 320.491 256.217 323.931C256.254 328.472 256.278 328.921 256.502 329.291C257.042 330.181 258.086 330.544 260.835 330.8C261.674 330.878 262.569 330.966 262.824 330.996C263.838 331.114 268.951 330.946 270.417 330.746ZM268.396 316.242C269.016 316.159 270.628 315.946 271.978 315.77C274.874 315.392 279.19 314.601 280.766 314.16C281.473 313.963 281.543 313.379 281.13 311.092C279.839 303.926 276.083 292.91 272.618 286.121C271.836 284.588 271.499 284.201 271.085 284.36C270.969 284.404 269.977 284.587 268.88 284.767C267.782 284.947 266.836 285.143 266.776 285.203C266.716 285.263 266.578 285.82 266.469 286.442C265.884 289.792 264.621 292.366 262.684 294.157C260.7 295.992 258.563 296.755 255.413 296.755C252.737 296.755 250.774 296.227 248.966 295.019C246.557 293.409 244.64 290.432 244.029 287.352C243.556 284.967 243.44 284.825 242.674 285.696C241.781 286.711 241.784 286.697 242.337 287.686C243.452 289.677 243.469 292.18 242.378 293.998C241.845 294.886 240.92 295.855 240.106 296.378C239.76 296.601 239.476 296.856 239.476 296.946C239.476 297.302 241.985 301.19 243.955 303.888C245.358 305.807 245.489 306.07 245.489 306.958C245.489 308.301 244.615 309.614 243.363 310.15C242.141 310.673 240.42 310.35 239.227 309.374C238.639 308.894 237.56 307.505 236.037 305.269C235.578 304.594 235.153 304.043 235.093 304.043C234.958 304.043 234.893 304.248 234.636 305.5C234.111 308.052 232.413 309.832 229.846 310.521C229.346 310.656 229.283 310.724 229.072 311.363C228.946 311.746 228.809 312.514 228.769 313.07L228.695 314.081L229.144 314.224C230.828 314.761 235.637 315.44 240.14 315.777C243.025 315.994 252.473 316.197 253.039 316.055C253.335 315.981 253.385 315.88 253.464 315.208C253.647 313.644 253.968 313.186 254.883 313.186C255.266 313.186 255.446 313.274 255.715 313.593C256.083 314.029 256.143 314.217 256.235 315.22C256.268 315.574 256.383 315.952 256.492 316.06C256.604 316.172 257.112 316.305 257.668 316.367C259.03 316.521 267.026 316.427 268.396 316.242ZM242.865 307.8C243.044 307.607 243.191 307.378 243.191 307.29C243.191 307.083 242.337 305.769 241.3 304.38C240.844 303.771 240.174 302.804 239.811 302.233C239.238 301.33 238.779 300.569 237.172 297.862C236.904 297.409 236.754 297.297 236.326 297.225C236.039 297.176 235.345 296.912 234.782 296.638C234.219 296.364 233.726 296.192 233.686 296.257C233.592 296.409 234.474 298.239 235.508 300.037C237.07 302.751 240.242 307.264 241.014 307.871C241.547 308.29 242.443 308.256 242.865 307.8ZM229.875 307.539C231.235 306.972 231.789 306.143 232.13 304.167C232.406 302.561 232.325 301.035 231.917 300.169C231.601 299.497 230.857 298.75 230.484 298.731C230.359 298.724 229.6 298.709 228.797 298.698C227.408 298.677 227.289 298.653 226.306 298.184C224.541 297.343 223.169 295.62 222.957 293.982C222.816 292.888 222.773 292.78 222.471 292.78C222.07 292.78 221.121 293.813 220.631 294.782C220.116 295.802 219.71 297.37 219.71 298.342C219.71 300.607 220.623 302.919 222.117 304.434C222.848 305.177 224.631 306.554 225.338 306.923C226.793 307.682 228.858 307.963 229.875 307.539ZM286.601 307.373C288.68 306.644 290.255 304.751 290.75 302.387C291.02 301.095 290.998 300.636 290.609 299.406L290.269 298.332L290.623 297.132C291.258 294.974 291.07 293.899 289.932 293.177C289.287 292.769 287.854 292.383 286.984 292.383C286.322 292.383 285.892 292.221 285.022 291.645C284.645 291.395 284.247 291.19 284.138 291.19C283.872 291.19 280.07 295.342 280.07 295.632C280.07 295.718 280.222 296.2 280.408 296.703C281.323 299.18 281.842 300.911 282.785 304.632C283.19 306.231 283.596 307.591 283.686 307.654C283.952 307.838 285.777 307.663 286.601 307.373ZM230.124 296.111C230.811 295.799 231.73 294.858 232.301 293.884C232.55 293.459 232.842 292.967 232.949 292.792L233.143 292.472L233.917 293.336C236.035 295.703 239.194 295.326 240.566 292.544C241.587 290.473 240.867 288.333 238.714 287.041C238.33 286.811 238.017 286.59 238.017 286.55C238.017 286.51 238.363 286.313 238.785 286.113C240.662 285.222 242.043 283.09 241.816 281.432C241.633 280.099 240.549 278.77 239.41 278.484C237.927 278.111 236.584 278.454 235.117 279.582C234.579 279.995 234.284 280.15 234.252 280.035C234.225 279.939 234.143 279.474 234.071 279C233.689 276.513 231.608 274.607 229.765 275.056C228.918 275.263 227.493 276.253 227.023 276.962C226.366 277.954 226.194 279.513 226.561 281.166L226.644 281.544L225.516 281.45C224.631 281.377 224.219 281.405 223.61 281.582C222.398 281.934 221.832 282.402 221.206 283.571C220.91 284.125 220.851 284.407 220.845 285.294C220.839 286.228 220.884 286.438 221.229 287.06C221.678 287.869 222.118 288.276 223.079 288.772C223.667 289.075 223.915 289.121 224.974 289.119L226.191 289.115L225.873 289.742C225.481 290.514 225.016 292.152 225.016 292.76C225.016 294.201 225.924 295.56 227.277 296.147C227.931 296.43 229.462 296.41 230.124 296.109V296.111ZM230.905 288.856C230.153 288.589 229.313 287.838 229.122 287.26C229.03 286.981 228.99 286.405 229.027 285.885C229.078 285.176 229.171 284.878 229.475 284.447C230.493 283.004 232.851 283.001 233.895 284.441C234.809 285.701 234.706 287.057 233.613 288.149C233.116 288.645 232.264 289.068 231.782 289.057C231.6 289.053 231.205 288.962 230.905 288.856ZM232.58 287.897C233.999 287.144 233.997 285.113 232.575 284.4C231.118 283.668 229.634 284.796 229.825 286.49C229.901 287.163 230.166 287.522 230.853 287.885C231.45 288.201 232.001 288.205 232.58 287.897ZM257.158 294.048C260.151 293.562 262.302 291.542 263.376 288.209C263.682 287.258 263.971 285.666 263.858 285.553C263.813 285.508 262.473 285.545 260.88 285.633C258.046 285.79 250.568 285.737 247.713 285.54L246.465 285.453L246.546 286.314C246.749 288.483 248.101 291.025 249.8 292.433C251.571 293.9 254.333 294.506 257.158 294.048ZM280.245 290.858C281.215 289.824 281.537 289.393 281.506 289.175C281.429 288.647 279.244 287.041 277.295 286.08C275.962 285.423 275.56 285.285 275.56 285.485C275.56 285.61 276.36 287.424 277.801 290.564C278.028 291.058 278.213 291.507 278.213 291.561C278.213 291.752 278.627 292.25 278.784 292.248C278.871 292.248 279.529 291.622 280.245 290.858ZM260.636 282.842C266.083 282.561 270.368 281.911 274.901 280.676C278.434 279.714 282.019 278.006 284.994 275.867C286.175 275.017 288.097 273.093 288.302 272.554C288.457 272.147 288.271 271.881 287.508 271.415C286.63 270.88 286.335 270.307 286.638 269.723C286.89 269.236 287.541 269.095 288.565 269.307C288.973 269.391 289.553 269.46 289.855 269.46C290.322 269.46 290.451 269.395 290.718 269.029C291.143 268.445 292.209 266.26 292.538 265.298C293.003 263.937 292.873 263.565 291.811 263.231C290.418 262.792 290.002 262.381 290.298 261.732C290.508 261.273 291.112 261.052 292.07 261.083C293.274 261.123 293.598 261.02 293.799 260.536C294.045 259.943 294.292 257.418 294.241 256.011L294.198 254.818L293.668 254.775C293.376 254.751 292.35 254.831 291.387 254.951C289.906 255.137 289.58 255.144 289.266 254.993C288.767 254.755 288.485 254.162 288.673 253.75C288.953 253.136 289.526 252.925 292.461 252.36C294.041 252.055 294.265 251.891 294.265 251.031C294.265 250.115 294.025 248.519 293.659 247.008C293.191 245.073 292.95 244.417 292.707 244.417C292.592 244.417 292.194 244.646 291.822 244.926C291.45 245.207 290.942 245.541 290.694 245.67C289.26 246.41 287.27 246.708 285.751 246.41C283.162 245.902 280.467 243.405 279.133 240.279L278.81 239.521L277.351 239.602C275.005 239.731 273.451 239.338 271.783 238.192C271.183 237.779 269.591 236.214 269.59 236.036C269.59 235.899 268.876 235.91 268.721 236.05C268.522 236.229 266.424 236.839 264.992 237.134C263.662 237.408 261.42 237.509 260.563 237.333C259.554 237.125 258.367 236.706 257.663 236.307C256.101 235.424 254.757 233.651 254.055 231.547C253.715 230.527 253.561 227.465 253.784 226.122C254.006 224.779 254.568 222.45 254.941 221.332C255.129 220.769 255.263 220.172 255.239 220.007L255.196 219.705L252.344 219.735C247.22 219.789 242.25 220.181 240.246 220.688C238.211 221.205 237.497 221.149 236.16 220.369C234.062 219.146 231.361 217.84 229.659 217.225C229.258 217.08 228.038 216.697 226.948 216.374C225.373 215.907 224.679 215.771 223.565 215.707C222.31 215.635 222.094 215.657 221.485 215.919C220.632 216.286 220.166 216.775 219.392 218.119C217.68 221.092 216.905 225.752 217.58 229.018C217.72 229.695 217.966 230.521 218.127 230.853C218.396 231.409 218.452 231.451 218.832 231.394C219.06 231.36 219.429 231.256 219.653 231.163C220.511 230.806 221.292 231.477 221.097 232.402C221.048 232.633 220.348 233.855 219.542 235.117C217.04 239.031 215.217 243.842 214.614 248.127C214.327 250.167 214.169 252.58 214.282 253.211C214.393 253.833 214.526 253.924 215.464 254.021C216.7 254.149 218.897 254.599 219.363 254.82C219.75 255.003 220.108 255.473 220.108 255.799C220.108 255.858 219.962 256.063 219.783 256.256L219.457 256.607H217.283C214.541 256.607 214.595 256.571 214.706 258.361C214.792 259.741 215.525 262.273 216.02 262.901L216.305 263.264L218.128 263.17C219.866 263.08 219.965 263.089 220.229 263.353C220.867 263.99 220.363 264.629 218.875 265.07C217.628 265.44 217.322 265.655 217.322 266.16C217.322 267.008 219.368 270.191 220.193 270.627C220.684 270.887 221.42 270.846 222.164 270.517C223.741 269.82 224.828 269.743 225.219 270.299C225.686 270.966 225.384 271.467 224.02 272.286C222.808 273.013 222.783 273.2 223.783 274.054C224.602 274.755 225.154 275.157 225.294 275.157C225.342 275.157 225.791 274.82 226.293 274.408C226.795 273.996 227.653 273.444 228.2 273.182C229.115 272.744 229.292 272.706 230.389 272.706C231.525 272.706 231.631 272.731 232.561 273.227C233.583 273.773 234.384 274.596 235.128 275.865C235.542 276.57 235.663 276.596 236.69 276.203C237.295 275.971 237.617 275.934 238.563 275.986C239.529 276.04 239.862 276.124 240.703 276.528C242.483 277.383 243.693 279.081 244 281.153C244.083 281.718 244.191 282.18 244.239 282.18C244.287 282.18 245.041 282.266 245.914 282.372C250.493 282.926 255.76 283.094 260.636 282.842ZM252.83 270.066C251.633 269.712 250.886 269.229 250.32 268.442C249.998 267.993 249.91 267.716 249.858 266.984C249.802 266.196 249.841 265.983 250.158 265.315C250.591 264.404 251.445 263.606 252.318 263.296C253.267 262.96 255.153 262.892 256.172 263.159C257.531 263.514 258.756 264.447 259.189 265.456C259.457 266.081 259.467 267.396 259.209 268.012C258.371 270.009 255.628 270.893 252.83 270.066ZM256.235 268.643C256.515 268.573 256.957 268.32 257.219 268.081C257.631 267.703 257.695 267.565 257.695 267.043C257.695 265.634 256.842 264.895 254.909 264.629C254.036 264.509 252.811 264.839 252.173 265.364C251.633 265.808 251.313 266.792 251.527 267.346C251.995 268.556 254.176 269.157 256.235 268.643ZM274.396 263.289C273.156 262.671 272.509 261.395 272.509 259.57C272.509 257.478 273.657 255.687 275.127 255.485C276.642 255.277 277.761 256.007 278.307 257.56C278.93 259.334 278.421 261.923 277.257 262.904C276.305 263.706 275.462 263.819 274.396 263.289ZM231.387 263.199C230.502 262.748 230.087 262.133 229.834 260.904C229.654 260.029 229.643 259.68 229.767 258.822C230.02 257.072 230.636 256.032 231.716 255.533C233.101 254.892 234.776 255.659 235.348 257.194C235.904 258.688 235.818 260.557 235.132 261.907C234.385 263.374 232.801 263.921 231.387 263.199ZM288.356 244.081C290.477 243.529 292.206 241.983 294.099 238.948C295.098 237.344 295.644 236.052 296.152 234.082C296.484 232.796 296.549 232.277 296.566 230.769C296.584 229.173 296.555 228.916 296.296 228.384C295.736 227.235 295.105 226.796 293.535 226.464C291.673 226.07 289.683 226.061 287.683 226.437C285.752 226.8 285.041 227.071 284.932 227.487C284.861 227.757 285.126 229.147 285.303 229.432C285.351 229.509 285.73 229.67 286.146 229.79C286.562 229.909 287.119 230.116 287.383 230.25C287.904 230.512 288.86 231.522 289.19 232.157C289.451 232.661 289.744 233.878 289.75 234.488C289.765 236.071 288.239 238.143 286.675 238.662C285.641 239.005 284.343 238.876 283.222 238.318C282.337 237.878 282.322 237.876 281.86 238.096C280.89 238.558 280.936 239.305 282.037 240.99C283.102 242.619 284.737 243.853 286.216 244.146C287.07 244.314 287.51 244.301 288.356 244.081ZM277.53 237.255C279.781 236.89 281.733 235.184 282.478 232.929C282.794 231.971 282.816 229.67 282.518 228.669C281.829 226.35 279.833 224.652 277.356 224.277C274.896 223.904 272.63 224.963 271.261 227.125C270.523 228.29 270.36 228.856 270.29 230.504C270.234 231.824 270.264 232.142 270.513 232.889C271.394 235.525 273.563 237.154 276.488 237.377C276.598 237.385 277.067 237.33 277.53 237.255ZM286.305 236.036C287.162 235.451 287.471 234.289 287.021 233.342C286.67 232.603 285.606 232.103 285.282 232.524C284.971 232.93 284.156 235.415 284.233 235.723C284.388 236.338 285.594 236.521 286.305 236.036ZM265.541 234.675C267.922 234.057 268.103 233.915 267.934 232.788C267.778 231.749 267.686 231.634 266.603 231.12C265.368 230.535 264.545 229.721 263.967 228.516C263.594 227.739 263.554 227.532 263.554 226.396C263.554 225.482 263.623 224.956 263.805 224.475C265.107 221.046 268.878 219.92 271.631 222.138C271.915 222.367 272.219 222.554 272.308 222.554C272.732 222.554 274.28 221.794 274.375 221.54C274.595 220.944 273.194 217.571 271.962 215.732C270.594 213.689 268.427 212.165 266.655 212C265.576 211.9 264.25 212.274 263.145 212.99C261.315 214.174 258.908 217.344 257.768 220.069C257.195 221.441 256.394 224.268 256.124 225.874C255.821 227.674 255.904 230.079 256.308 231.213C257.041 233.27 258.388 234.473 260.498 234.955C261.636 235.215 263.957 235.086 265.541 234.675ZM268.322 227.562C268.492 227.073 268.816 226.387 269.041 226.038C269.864 224.763 270.007 224.426 269.851 224.135C269.427 223.343 267.425 223.485 266.654 224.361C266.278 224.79 265.996 225.463 265.925 226.105C265.868 226.614 265.925 226.861 266.23 227.456C266.69 228.349 267.38 228.872 267.761 228.617C267.899 228.525 268.151 228.05 268.322 227.562ZM284.745 224.884C286.128 224.313 287.532 224.019 289.555 223.875C290.431 223.813 291.171 223.758 291.199 223.754C291.433 223.718 290.359 217.888 289.886 216.625C289.244 214.91 288.646 214.116 287.778 213.826C286.169 213.289 282.441 214.35 278.236 216.54C275.643 217.891 275.797 217.78 275.868 218.247C276.024 219.261 276.722 221.657 276.894 221.766C276.999 221.833 277.269 221.888 277.495 221.889C277.72 221.889 278.287 222.016 278.755 222.168C280.231 222.649 281.36 223.329 282.375 224.348C282.895 224.871 283.394 225.307 283.485 225.317C283.575 225.328 284.142 225.133 284.745 224.884Z" fill="currentcolor"/>

</svg>
