<svg  viewBox="0 0 1180 580" fill="currentcolor" xmlns="http://www.w3.org/2000/svg">
<path d="M256.228 332.097C250.376 330.868 247.355 327.337 246.95 321.25L246.809 319.122L243.771 318.85C242.1 318.7 240.707 318.605 240.676 318.639C240.644 318.672 240.703 319.222 240.805 319.861C241.035 321.288 240.764 322.24 240.032 322.573C238.408 323.312 231.668 324.783 228.732 325.04C227.361 325.159 227.095 325.127 226.831 324.808C226.389 324.274 226.449 312.649 226.931 305.403C227.597 295.396 227.827 291.475 227.755 291.385C227.652 291.256 225.801 292.139 223.145 293.584C221.865 294.281 220.322 295.079 219.717 295.358L218.616 295.865L217.677 295.096C216.7 294.296 215.641 292.497 215.641 291.636C215.641 290.184 216.507 289.236 219.927 286.942C221.962 285.577 222.308 285.263 222.37 284.72C222.468 283.874 222.052 282.052 221.407 280.499C220.778 278.986 220.698 276.798 221.217 275.328C221.401 274.805 221.553 274.268 221.555 274.135C221.558 273.992 221.012 273.832 220.237 273.748C213.894 273.056 207.724 270.447 203.857 266.821C201.411 264.528 200.859 262.731 202.09 261.06C202.833 260.05 206.063 256.91 206.708 256.571C207.395 256.209 208.257 256.637 210.256 258.334C214.745 262.144 218.025 263.531 222.655 263.579C223.898 263.592 224.97 263.548 225.037 263.48C225.105 263.413 225.045 262.507 224.902 261.468L224.645 259.579L223.436 259.011C221.255 257.988 220.771 256.244 222.108 254.226C222.932 252.982 222.886 252.311 221.451 244.698C220.812 241.312 220.29 238.22 220.29 237.827C220.29 237.433 220.447 236.872 220.639 236.58C221.041 235.965 221.057 236.079 219.516 228.156C217.698 218.803 216.268 210.836 216.135 209.309L216 207.768L218.899 207.895L219.175 208.844C219.327 209.367 219.596 210.934 219.772 212.327C219.948 213.72 220.286 215.513 220.522 216.312L220.953 217.764L222.259 217.655C222.977 217.594 224.257 217.376 225.103 217.169C226.126 216.919 226.712 216.863 226.852 217.003C226.968 217.119 227.118 217.682 227.186 218.254L227.31 219.295L225.649 220.222C223.219 221.577 222.396 222.123 222.264 222.468C221.895 223.428 222.989 224.566 224.696 224.999C225.562 225.219 225.665 225.317 225.911 226.146C226.058 226.645 226.381 228.23 226.627 229.668C227.134 232.63 227.375 233.413 228.281 235.033C229.076 236.453 229.82 239.041 231.493 246.202C232.211 249.278 232.845 251.87 232.902 251.962C232.958 252.054 233.192 251.769 233.42 251.329C233.897 250.41 233.863 249.86 233.173 247.362C232.551 245.114 232.482 240.271 233.04 238.181C233.996 234.61 235.439 232.12 237.028 231.299C238.78 230.394 244.207 231.543 249.218 233.879L251.204 234.805L254.078 234.385C255.659 234.154 258.426 233.862 260.227 233.736C265.057 233.399 264.642 233.537 265.615 231.939C267.808 228.337 271.115 226.67 274.399 227.51C276.309 227.999 278.154 229.473 279.207 231.353C279.37 231.644 279.483 231.634 280.216 231.262C281.491 230.616 284.96 229.565 286.983 229.213C290.41 228.616 292.213 228.862 293.151 230.053C294.378 231.612 295.317 234.567 295.724 238.154L295.948 240.131L296.989 241.066C299.651 243.456 300.009 247.527 297.91 251.517L297.143 252.976L297.82 255.378C298.193 256.699 298.599 258.665 298.722 259.747C298.846 260.829 298.974 261.819 299.008 261.947C299.048 262.093 300.128 262.236 301.889 262.328C305.105 262.497 306.063 262.695 306.614 263.303C306.982 263.709 306.984 263.752 306.641 264.095C306.328 264.408 305.812 264.458 302.915 264.459C300.947 264.459 299.473 264.547 299.362 264.67C299.258 264.786 299.054 265.96 298.909 267.279C298.686 269.307 298.691 269.724 298.94 269.974C299.103 270.136 300.228 270.509 301.442 270.802C303.875 271.391 304.602 271.752 304.602 272.374C304.602 273.001 303.791 273.096 300.992 272.793C298.139 272.484 298.052 272.513 297.645 273.901C297.5 274.395 297.135 275.356 296.833 276.035C296.431 276.941 296.341 277.359 296.498 277.607C296.615 277.793 297.789 278.519 299.107 279.222C300.476 279.951 301.692 280.755 301.944 281.096L302.384 281.694L301.869 282.112C301.216 282.641 300.933 282.572 297.786 281.119C296.42 280.487 295.203 279.971 295.082 279.971C294.962 279.971 294.152 280.719 293.283 281.634C291.339 283.68 288.622 285.653 286.132 286.828L284.249 287.717L287.505 289.894C291.634 292.653 294.236 293.903 297.524 294.706C300.567 295.449 301.745 295.974 303.105 297.196C304.608 298.546 305.097 299.722 304.981 301.715C304.788 305.055 302.69 307.236 298.808 308.136C298.029 308.316 297.054 308.464 296.641 308.464C296.117 308.464 295.589 308.684 294.895 309.193C293.644 310.111 292.388 310.413 291.035 310.123C290.48 310.004 289.972 309.82 289.906 309.713C289.84 309.606 289.708 309.519 289.612 309.519C289.517 309.519 289.809 310.673 290.261 312.083C291.196 315.001 291.534 316.794 291.276 317.472C290.982 318.243 290.232 318.56 288.12 318.805C284.386 319.238 284.74 319.062 284.74 320.485C284.74 323.703 283.602 326.888 281.757 328.837C280.441 330.227 279.062 331.047 276.921 331.714C275.547 332.142 274.916 332.206 272.167 332.197C269.213 332.187 268.897 332.147 267.518 331.601C266.705 331.279 265.944 331.016 265.827 331.016C265.711 331.016 264.951 331.273 264.137 331.587C262.855 332.081 262.292 332.166 259.911 332.225C258.4 332.263 256.743 332.205 256.229 332.097H256.228ZM262.813 329.375L263.602 329.129L263.068 328.109C261.985 326.039 262.023 323.464 263.174 320.99L263.778 319.692L260.787 319.571C259.143 319.505 255.859 319.404 253.489 319.346L249.182 319.242L249.328 320.871C249.518 322.981 249.77 324.079 250.346 325.304C251.296 327.324 253.416 328.813 256.265 329.46C257.788 329.806 261.585 329.756 262.813 329.375ZM275.195 329.471C278.971 328.678 281.059 326.812 281.878 323.501C282.25 321.999 282.39 319.33 282.097 319.342C281.981 319.346 278.445 319.43 274.239 319.527L266.593 319.703L265.731 321.417C264.755 323.358 264.511 324.628 264.863 325.934C265.139 326.959 266.113 328.164 267.073 328.669C269.085 329.728 272.41 330.056 275.195 329.471ZM233.992 321.558C234.954 321.312 236.258 320.918 236.89 320.682L238.04 320.253V319.261C238.04 318.181 237.15 312.692 236.162 307.673C235.511 304.367 235.125 303.366 234.025 302.132C232.855 300.82 232.677 300.296 232.586 297.906C232.53 296.425 232.614 295.083 232.841 293.879C233.376 291.023 233.433 291.157 231.694 291.157C230.692 291.157 230.18 291.243 230.121 291.421C229.805 292.385 229.059 317.432 229.265 320.177L229.42 322.24L230.831 322.122C231.608 322.057 233.03 321.803 233.992 321.558ZM286.218 316.502C287.438 316.372 288.546 316.226 288.68 316.178C289.258 315.971 286.226 307.584 282.304 298.544C280.917 295.347 278.311 289.931 278.018 289.638C277.937 289.557 277.173 289.608 276.32 289.752C274.838 290.001 274.737 290.055 274.081 290.954C270.983 295.197 265.148 296.601 260.463 294.23C259.149 293.565 257.191 291.776 256.513 290.621C256.008 289.761 255.92 289.709 254.566 289.476C253.786 289.342 252.933 289.18 252.67 289.116C252.239 289.011 252.097 289.2 251.272 290.975C247.546 298.994 241.386 315.754 242.02 316.146C242.173 316.241 249.04 316.661 252.303 316.775C257.006 316.94 284.159 316.721 286.218 316.502ZM265.692 311.091L265.66 308.991L265.503 310.638C265.327 312.48 265.086 313.039 265.083 311.612C265.083 311.099 265.016 310.157 264.935 309.519L264.789 308.358L264.633 309.202C264.546 309.667 264.469 310.474 264.46 310.996C264.437 312.385 264.037 312.878 264.031 311.524C264.027 310.944 263.965 309.685 263.89 308.728C263.763 307.092 263.726 306.986 263.27 306.986C263.003 306.986 262.646 307.184 262.477 307.426C262.021 308.076 261.196 307.898 261.108 307.132C261.069 306.806 261.148 306.409 261.28 306.25C261.462 306.031 261.433 305.793 261.157 305.262C260.672 304.325 260.51 301.925 260.871 301.03C261.321 299.916 262.124 298.986 263.164 298.375C264.002 297.883 264.366 297.806 265.825 297.808C267.677 297.812 268.385 298.074 269.469 299.156C270.511 300.197 270.791 301.038 270.791 303.128C270.791 305.073 270.399 306.88 269.772 307.831L269.425 308.358L269.315 307.619C269.224 307.002 269.119 306.881 268.679 306.881C268.226 306.881 268.085 307.061 267.687 308.147C267.373 309.004 267.218 309.925 267.208 310.996C267.188 312.834 266.898 313.602 266.72 312.281C266.657 311.808 266.689 310.78 266.789 309.995C267.055 307.935 267.052 307.885 266.682 308.26C266.475 308.471 266.346 309.234 266.277 310.652C266.138 313.542 265.729 313.849 265.69 311.091H265.692ZM265.509 306.974C265.509 306.438 265.866 306.446 266.038 306.986C266.236 307.61 266.566 307.499 266.566 306.808C266.566 306.476 266.377 306.037 266.144 305.825C265.736 305.457 265.706 305.457 265.298 305.825C264.869 306.214 264.773 306.685 265.003 307.284C265.169 307.714 265.509 307.505 265.509 306.974ZM264.64 305.486C265.191 305.294 265.266 305.197 265.06 304.948C264.729 304.55 262.632 303.329 261.759 303.026C261.09 302.793 261.072 302.803 261.072 303.381C261.072 304.122 261.783 305.048 262.639 305.42C263.447 305.771 263.787 305.783 264.64 305.486ZM269.267 305.391C269.823 305.002 270.37 304.019 270.37 303.409C270.37 302.881 270.414 302.882 269.11 303.395C267.943 303.854 266.355 304.836 266.355 305.097C266.355 305.332 267.4 305.684 268.157 305.703C268.509 305.713 269.008 305.572 269.267 305.391ZM252.725 302.972C251.548 302.609 250.518 301.347 250.202 299.881C249.89 298.429 250.995 296.385 252.408 295.8C253.354 295.409 255.143 295.622 255.957 296.223C257.543 297.395 257.911 299.77 256.773 301.488C255.903 302.8 254.197 303.426 252.725 302.972ZM255.314 300.755C255.884 300.1 255.953 298.778 255.455 298.02C255.024 297.362 253.916 296.986 253.206 297.256C251.987 297.719 251.43 299.268 252.069 300.42C252.726 301.603 254.424 301.778 255.314 300.755ZM275.797 302.891C274.752 302.506 274.281 302.066 273.756 300.982C272.526 298.445 274.193 295.578 276.91 295.557C278.224 295.547 279.127 296.039 279.956 297.218C280.46 297.934 280.567 298.296 280.558 299.269C280.534 301.908 278.119 303.746 275.797 302.891ZM278.452 300.652C278.852 300.214 279.033 299.786 279.033 299.283C279.033 298.374 278.144 297.325 277.237 297.163C276.352 297.005 275.34 297.678 275.023 298.634C274.811 299.277 274.832 299.51 275.16 300.179C275.875 301.638 277.358 301.851 278.452 300.652ZM240.56 311.792C240.922 310.547 241.283 309.36 241.362 309.154C241.466 308.882 241.317 308.938 240.812 309.361C240.431 309.68 239.878 310.002 239.583 310.076C239.09 310.199 239.056 310.281 239.167 311.078C239.332 312.272 239.757 314.206 239.836 314.124C239.871 314.087 240.197 313.038 240.56 311.792ZM293.908 306.751C294.694 306.06 294.989 305.931 295.783 305.931C298.163 305.931 300.813 304.959 301.738 303.747C302.021 303.377 302.371 302.632 302.516 302.092C302.747 301.227 302.731 301.004 302.382 300.231C301.76 298.853 299.962 297.809 297.311 297.289C293.297 296.5 289.785 294.681 282.731 289.738C281.915 289.166 281.086 288.739 280.882 288.784C280.679 288.829 280.512 288.894 280.512 288.929C280.512 288.963 281.221 290.452 282.086 292.237C282.951 294.023 284.317 297 285.12 298.853L286.581 302.222L288.141 303.08C289.663 303.917 289.704 303.961 289.839 304.902C290.031 306.24 290.567 307.181 291.321 307.497C292.217 307.874 292.833 307.696 293.908 306.751ZM239.328 307.349C239.835 306.963 240.364 305.821 240.364 305.115C240.364 304.06 240.571 303.828 242.261 302.979L243.892 302.159L245.422 298.309C246.263 296.191 247.559 293.128 248.301 291.501C249.044 289.875 249.618 288.51 249.576 288.468C249.534 288.427 247.581 289.686 245.234 291.266C241.03 294.098 237.787 295.881 235.576 296.577L234.447 296.933V297.851C234.447 299.145 234.865 299.971 236.123 301.16C237.483 302.446 237.819 303.087 238.056 304.851C238.454 307.809 238.53 307.957 239.328 307.349ZM238.251 292.682C239.836 291.85 246.281 287.605 246.28 287.394C246.28 287.316 245.602 286.975 244.774 286.636C242.856 285.85 240.216 284.267 238.777 283.039C237.399 281.863 236.879 281.781 237.062 282.767C237.132 283.145 237.251 284.17 237.325 285.047C237.475 286.812 237.145 287.844 236.351 288.096C235.631 288.324 235.452 288.958 235.608 290.72C235.72 291.982 235.677 292.528 235.417 293.15C235.232 293.591 235.081 293.987 235.081 294.03C235.081 294.17 236.845 293.42 238.251 292.682ZM267.099 293.038C268.606 292.759 270.471 291.846 271.289 290.984L271.892 290.35L267.275 290.384C264.735 290.403 261.754 290.34 260.649 290.244L258.642 290.07L259.382 290.844C260.297 291.801 261.867 292.634 263.397 292.974C264.896 293.307 265.576 293.319 267.099 293.038ZM221.746 291.629C222.661 291.17 224.467 290.106 225.759 289.264L228.108 287.734V286.28C228.108 285.48 228.057 284.825 227.994 284.825C227.61 284.825 224.077 287.031 219.386 290.2C218.519 290.786 218.089 291.603 218.299 292.265C218.494 292.878 219.699 292.655 221.746 291.629ZM275.018 287.266C279.522 286.587 283.314 285.436 286.006 283.931C288.593 282.484 291.712 279.81 291.712 279.038C291.712 278.868 291.43 278.562 291.084 278.358C290.331 277.914 290.16 277.546 290.452 277.001C290.686 276.564 290.805 276.54 292.51 276.592L293.626 276.625L294.465 274.837C295.489 272.654 295.539 272.05 294.71 271.885C293.8 271.703 293.111 271.058 293.275 270.542C293.385 270.195 293.649 270.085 294.599 269.987C295.252 269.919 295.874 269.777 295.981 269.67C296.228 269.423 296.618 266.658 296.531 265.766L296.466 265.091H292.029L291.966 264.553C291.874 263.769 292.438 263.391 294.308 262.98C296.459 262.507 296.623 262.332 296.454 260.689C296.327 259.455 295.567 255.772 295.371 255.434C295.32 255.347 294.76 255.696 294.128 256.211C291.625 258.247 289.019 258.916 286.648 258.129C285.241 257.662 283.399 255.966 282.345 254.165C281.579 252.858 281.502 252.792 280.608 252.691C278.777 252.485 276.58 251.064 275.319 249.27L274.88 248.646L272.889 249.257C270.502 249.991 268.675 250.062 266.996 249.487C265.432 248.952 263.847 247.367 263.175 245.667C262.341 243.56 262.509 239.26 263.529 236.605C263.63 236.342 263.462 236.282 262.627 236.284C261.293 236.288 256.81 236.82 254.522 237.248C250.901 237.926 251.044 237.941 248.589 236.636C244.869 234.659 242.116 233.749 239.855 233.749C238.681 233.749 238.401 233.828 237.808 234.327C236.999 235.007 235.864 237.353 235.511 239.079C235.052 241.317 235.282 245.597 235.914 246.607C236.074 246.862 236.185 246.852 236.658 246.543C237.364 246.081 237.996 246.272 238.18 247.004C238.286 247.425 238.153 247.861 237.65 248.731C234.528 254.145 232.818 259.664 233.01 263.713L233.074 265.071L235.081 265.356C237.335 265.675 238.046 266.085 237.644 266.835C237.354 267.376 236.553 267.575 235.379 267.399C233.991 267.191 233.39 267.404 233.394 268.103C233.398 268.83 234.082 271.48 234.435 272.138C234.686 272.607 234.777 272.627 236.118 272.495C237.375 272.371 237.579 272.404 237.922 272.782C238.436 273.349 238.128 273.717 236.758 274.171C236.187 274.361 235.666 274.604 235.599 274.711C235.427 274.989 236.517 276.913 237.424 277.934L238.192 278.797L239.796 278.295C241.12 277.88 241.458 277.84 241.728 278.063C242.213 278.465 242.125 279.058 241.516 279.486C241.22 279.695 240.769 280.033 240.513 280.237L240.047 280.608L240.874 281.345C242.066 282.405 245.785 284.231 248.605 285.14C252.416 286.369 254.732 286.806 261.917 287.652C263.661 287.858 272.9 287.585 275.018 287.266ZM261.862 276.925C260.468 276.429 259.804 275.535 259.804 274.157C259.804 272.399 261.206 271.318 263.486 271.318C265.185 271.318 266.322 271.823 266.967 272.866C268.616 275.531 265.315 278.156 261.862 276.925ZM265.338 275.12C265.841 274.5 265.821 274.201 265.233 273.518C264.145 272.255 261.495 272.777 261.495 274.255C261.495 275.278 262.347 275.776 263.911 275.666C264.68 275.612 265.055 275.469 265.338 275.12ZM280.114 273.717C279.425 273.235 279.033 272.168 279.033 270.773C279.033 268.041 281.15 266.585 282.878 268.127C283.501 268.683 283.567 268.863 283.643 270.218C283.742 271.961 283.439 273.046 282.687 273.636C282.028 274.154 280.795 274.193 280.114 273.717ZM245.764 268.521C244.923 267.68 244.694 266.625 245.016 265.076C245.442 263.027 246.792 262.075 248.275 262.778C249.181 263.207 249.661 264.265 249.661 265.83C249.661 267.309 249.216 268.372 248.39 268.859C247.438 269.421 246.549 269.307 245.764 268.521ZM277.444 267.549C277.388 267.494 277.343 267.234 277.343 266.972C277.343 266.623 277.497 266.465 277.924 266.378C279.259 266.104 285.775 264.991 286.799 264.861C287.892 264.722 287.908 264.729 287.908 265.275C287.908 265.58 287.885 265.832 287.855 265.835C287.828 265.839 285.495 266.247 282.674 266.745C279.853 267.243 277.5 267.605 277.444 267.549ZM250.909 263.051C246.591 257.892 246.975 258.442 247.45 258.095C247.669 257.935 247.913 257.829 247.992 257.86C248.071 257.89 249.635 259.709 251.468 261.902C254.087 265.037 254.755 265.959 254.592 266.216C254.479 266.396 254.288 266.576 254.17 266.615C254.051 266.655 252.584 265.051 250.909 263.051ZM227.245 279.918C227.237 279.541 227.116 278.284 226.981 277.125L226.735 275.017L225.784 275.087C224.282 275.196 223.508 275.61 223.299 276.414C223.147 276.999 223.35 279.496 223.567 279.724C223.603 279.762 223.865 279.642 224.148 279.457C224.625 279.145 224.699 279.149 225.17 279.515C225.737 279.955 226.86 280.583 227.104 280.596C227.191 280.6 227.255 280.295 227.245 279.918ZM225.905 270.526C225.644 267.854 225.657 267.88 224.648 268.031C222.695 268.324 222.499 266.864 224.395 266.141C225.254 265.813 225.684 265.408 225.172 265.408C224.317 265.408 218.802 264.723 217.565 264.463C214.722 263.866 212.185 262.607 210.009 260.714C208.366 259.285 208.255 259.244 206.997 259.618C205.753 259.987 204.613 260.897 204.226 261.83C203.626 263.277 204.847 265.094 207.676 266.962C211.243 269.319 215.073 270.863 218.714 271.413C221.744 271.871 221.885 271.884 224.065 271.919L226.044 271.951L225.905 270.526ZM227.157 257.366C227.981 257.141 231.212 255.614 231.555 255.287C231.945 254.916 227.658 237.379 227.098 237.055C226.965 236.978 222.89 237.823 222.281 238.054C222.022 238.152 222.277 240.313 223.159 245.463C224.502 253.322 224.504 253.361 223.776 254.729C223.486 255.275 223.248 256.046 223.248 256.443C223.248 257.076 223.333 257.189 223.935 257.363C224.888 257.638 226.157 257.638 227.157 257.366ZM290.993 255.48C292.644 254.684 295.096 252.082 296.069 250.093C296.847 248.503 296.889 248.315 296.889 246.397C296.889 244.508 296.849 244.326 296.295 243.599C295.379 242.398 294.247 241.917 292.134 241.834C290.812 241.782 290.059 241.862 289.282 242.136L288.225 242.508L288.241 243.534C288.253 244.25 288.359 244.617 288.599 244.752C289.407 245.203 290.282 246.103 290.689 246.899C291.489 248.466 290.785 250.646 289.242 251.378C288.63 251.668 288.134 251.719 286.872 251.624C285.507 251.521 285.177 251.565 284.586 251.93C284.205 252.165 283.894 252.425 283.894 252.509C283.894 252.89 285.187 254.642 285.827 255.126C287.273 256.223 289.181 256.353 290.995 255.48H290.993ZM283.245 250.008C284.846 249.192 286.218 246.879 286.218 244.996C286.218 243.333 285.006 241.411 283.493 240.676C282.387 240.139 280.576 240.095 279.438 240.579C277.846 241.257 276.497 243.509 276.497 245.493C276.497 247.314 277.867 249.393 279.545 250.123C280.523 250.549 282.293 250.493 283.245 250.008ZM288.619 249.563C289.292 249.035 289.355 248.157 288.772 247.439C288.549 247.165 288.326 246.988 288.275 247.046C288.108 247.236 287.063 249.625 287.063 249.815C287.063 250.163 288.061 250.002 288.619 249.563ZM272.563 247.039C274.666 246.39 274.93 245.609 273.414 244.522C272.88 244.139 272.265 243.532 272.047 243.174C270.7 240.962 271.888 237.848 274.361 237.108C275.424 236.79 276.394 236.979 277.589 237.736C279.417 238.894 279.762 237.779 278.407 235.093C276.226 230.772 273.539 229.095 270.868 230.387C267.745 231.897 264.667 238.229 264.924 242.614C265.062 244.954 265.922 246.395 267.624 247.132C268.682 247.59 270.911 247.548 272.563 247.039ZM274.807 242.653C274.807 242.559 275.192 241.844 275.662 241.066C276.132 240.287 276.466 239.567 276.404 239.467C276.194 239.128 275.17 238.999 274.592 239.239C273.455 239.709 273.111 241.393 273.966 242.302C274.461 242.827 274.807 242.972 274.807 242.653ZM288.542 239.761C289.181 239.588 290.536 239.385 291.553 239.31C293.683 239.153 293.574 239.341 293.072 236.699C292.657 234.513 292.059 232.902 291.399 232.191C290.936 231.692 290.736 231.639 289.344 231.639C286.689 231.639 280.556 233.596 280.798 234.365C280.855 234.549 281.143 235.364 281.436 236.176L281.969 237.654L283.512 238.244C284.361 238.569 285.388 239.11 285.795 239.447C286.65 240.155 286.959 240.19 288.542 239.761Z" fill="currentcolor" stroke="currentcolor" stroke-width="0.576797"/>

</svg>
