<svg viewBox="0 0 1180 580" fill="Currentcolor" xmlns="http://www.w3.org/2000/svg">
<path d="M223.56 328.16C216.751 327.527 212.269 325.736 210.929 323.112C210.044 321.378 209.388 317.27 209.532 314.356C209.759 309.771 210.964 306.402 214.63 300.103C217 296.03 217.957 294.014 218.463 292.032C219.618 287.504 220.087 280.242 219.663 273.446C219.497 270.767 219.089 266.694 218.893 265.754L218.777 265.197L218.008 265.905C216.733 267.079 214.731 269.695 214.068 271.055C213.523 272.174 213.451 272.452 213.493 273.268C213.531 274.014 213.486 274.236 213.266 274.377C212.484 274.877 212.005 273.02 211.985 269.412C211.973 267.161 212.033 266.457 212.396 264.605C213.176 260.629 214.511 257.743 216.573 255.575C217.072 255.051 217.112 254.923 217.275 253.319C217.687 249.248 219.06 245.994 221.787 242.629C223.163 240.931 225.398 238.918 227.377 237.595C228.165 237.069 228.835 236.613 228.868 236.583C229.071 236.393 225.554 237.745 224.47 238.274C223.093 238.946 221.51 240.267 220.722 241.402C220.489 241.738 219.953 242.799 219.531 243.76C218.305 246.554 216.738 248.745 214.916 250.215C213.874 251.055 211.851 251.817 210.902 251.726C210.044 251.643 209.048 250.948 208.908 250.333C208.858 250.115 208.753 249.678 208.674 249.362C208.595 249.046 207.964 247.938 207.271 246.899C205.991 244.98 205.79 244.722 202.01 240.157C198.531 235.955 198.214 235.536 197.598 234.343C197.092 233.363 197.037 233.154 197.197 232.834C197.299 232.63 197.604 231.39 197.874 230.08C198.145 228.769 198.493 227.447 198.648 227.141C199.003 226.443 200.686 225.158 202.274 224.375C203.615 223.712 205.711 223.129 207.849 222.825C209.674 222.565 215.733 222.572 218.074 222.836C220.987 223.164 228.405 224.539 228.895 224.842C228.979 224.893 229.047 224.799 229.047 224.632C229.047 224.465 229.387 223.883 229.803 223.338C230.392 222.565 230.873 222.16 231.99 221.493C233.545 220.566 234.682 220.231 235.885 220.346C236.768 220.431 238.104 221.036 238.219 221.403C238.263 221.545 238.41 221.927 238.547 222.253C238.854 222.988 239.243 223.083 241.506 222.972C243.213 222.888 245.146 222.369 247.224 221.437C248.406 220.906 252.098 218.641 253.205 217.767C253.639 217.424 254.411 216.882 254.92 216.562C255.429 216.242 256.096 215.743 256.402 215.453C257.097 214.794 259.356 213.429 260.348 213.069C260.758 212.92 261.488 212.633 261.969 212.432C262.75 212.105 264.603 211.732 265.445 211.732C265.618 211.732 266.303 212.096 266.969 212.54C267.847 213.127 268.357 213.611 268.831 214.308C270.534 216.814 271.918 221.024 272.448 225.314C272.535 226.013 272.654 228.193 272.713 230.159C272.812 233.424 272.791 233.912 272.468 235.798C272.274 236.934 272.049 237.933 271.969 238.018C271.747 238.252 270.853 238.33 268.41 238.326C266.421 238.322 266.031 238.275 264.752 237.876C263.965 237.631 263.178 237.39 263.003 237.341C262.795 237.283 263.003 237.598 263.604 238.247C264.537 239.257 265.827 241.062 266.338 242.073C266.493 242.379 267.135 243.165 267.765 243.82C269.234 245.347 270.859 247.4 271.151 248.097C271.384 248.652 271.235 249.38 270.888 249.38C270.804 249.38 270.405 249.095 270.002 248.746C269.241 248.089 268.649 247.709 268.649 247.878C268.649 248.121 270.545 252.399 271.672 254.702C275.457 262.429 280.247 269.495 284.295 273.322C285.9 274.839 287.324 275.807 290.914 277.821C296.357 280.873 298.153 282.141 300.779 284.785C303.382 287.407 305.286 290.361 306.577 293.78C307.482 296.177 306.957 298.303 304.787 301.028C300.273 306.697 287.597 314.342 273.35 319.988C269.178 321.642 267.46 322.236 263.66 323.343C255.883 325.609 248.278 326.996 238.431 327.945C235.336 328.243 225.921 328.379 223.56 328.16ZM234.538 326.87C234.59 326.818 234.55 326.178 234.448 325.448C234.179 323.527 234.209 319.938 234.508 318.243C234.799 316.591 235.359 314.797 236.136 313.033C236.436 312.351 236.681 311.772 236.681 311.745C236.681 311.719 235.711 311.646 234.526 311.585C232.142 311.462 229.807 311.149 228.338 310.756C226.903 310.372 224.894 309.367 224.18 308.675C223.503 308.018 222.929 306.991 223.056 306.661C223.099 306.549 223.659 306.065 224.301 305.584C227.87 302.91 234.728 299.566 242.779 296.572C245.993 295.377 252.371 293.243 253.813 292.881C254.455 292.719 254.607 292.595 254.408 292.397C254.304 292.293 252.739 292.753 248.53 294.124C230.393 300.035 215.725 308.87 212.177 316.019C210.325 319.751 211.409 322.568 215.449 324.525C218.302 325.906 221.375 326.56 226.9 326.963C228.143 327.053 234.431 326.977 234.538 326.87ZM262.463 322.05C274.797 318.536 286.431 313.474 294.493 308.114C297.181 306.327 298.84 305.008 300.828 303.08C302.853 301.115 303.88 299.784 304.706 298.056C305.271 296.873 305.307 296.707 305.307 295.289C305.307 293.914 305.266 293.704 304.837 292.931C303.352 290.253 299.565 288.579 293.046 287.721C290.185 287.344 282.539 287.344 278.589 287.721C274.821 288.081 270.685 288.664 267.058 289.348C262.747 290.16 261.974 290.351 262.064 290.583C262.122 290.735 262.97 290.62 265.593 290.104C269.838 289.27 274.821 288.544 278.509 288.224C281.373 287.975 286.368 287.912 287.495 288.11L288.131 288.223L288.179 289.228C288.208 289.847 288.129 290.527 287.972 290.997C287.082 293.676 282.804 297.533 277.396 300.535C276.565 300.996 275.864 301.389 275.839 301.408C275.814 301.426 276.007 301.791 276.268 302.217C277.47 304.181 277.854 306.904 277.259 309.252C276.019 314.151 271.1 317.318 266.244 316.343C264.143 315.922 262.753 315.172 261.251 313.653C259.862 312.248 259.15 311.026 258.684 309.249L258.416 308.231L252.118 309.81L253.36 311.087C256.173 313.977 257.947 317.262 258.98 321.491C259.173 322.281 259.342 322.928 259.355 322.928C259.368 322.928 260.767 322.532 262.463 322.049V322.05ZM270.136 314.894C271.491 314.545 272.852 313.787 273.892 312.803L274.772 311.971L274.135 312.23C270.913 313.542 267.88 312.948 265.46 310.531C264.333 309.405 263.559 307.351 263.559 305.486C263.559 302.686 265.776 299.662 268.488 298.762C268.725 298.683 267.981 298.652 266.661 298.685C264.743 298.733 264.281 298.797 263.331 299.15L262.227 299.56L261.558 298.891C261.008 298.342 260.811 297.969 260.453 296.797C260.214 296.013 259.906 295.201 259.769 294.992L259.519 294.612L259.352 295.102C259.124 295.775 258.884 295.975 258.329 295.959L257.855 295.946L261.343 301.455L260.793 302.462C259.9 304.1 259.693 305.063 259.78 307.189C259.888 309.797 260.359 311.023 261.799 312.445C264.086 314.702 267.261 315.634 270.136 314.894ZM220.152 306.127C228.333 300.102 239.783 294.876 252.625 291.305C253.653 291.02 254.494 290.72 254.494 290.641C254.494 290.345 252.8 288.062 251.736 286.924C250.472 285.572 248.562 283.998 246.914 282.949L245.774 282.225L243.83 277.121C239.478 265.695 237.554 259.875 235.869 253.034L235.693 252.319L235.179 253.749C234.293 256.208 233.636 257.648 233.088 258.331C230.474 261.588 227.739 266.646 226.803 269.952C226.39 271.413 226.363 275.337 226.761 276.106C227.093 276.746 227.112 277.643 226.799 277.873C226.61 278.012 226.529 278.541 226.446 280.198C226.314 282.838 225.972 285.994 225.535 288.617C225.206 290.591 225.198 290.612 224.13 292.27C220.237 298.316 217.67 304.002 217.035 307.986L216.923 308.689L217.776 307.968C218.246 307.572 219.315 306.743 220.152 306.127ZM303.897 290.086C302.605 287.591 298.722 283.894 294.412 281.054C292.513 279.802 288.025 277.153 287.943 277.235C287.921 277.257 288.091 277.735 288.321 278.299C288.91 279.747 288.97 280.638 288.538 281.529C287.84 282.968 286.266 283.606 281.054 284.564C279.348 284.877 277.277 285.312 276.451 285.529C274.993 285.913 271.853 287.264 272.023 287.433C272.069 287.48 272.563 287.445 273.121 287.356C277.854 286.604 286.642 286.198 290.914 286.534C296.306 286.959 300.299 288.025 302.849 289.721C303.501 290.155 304.055 290.513 304.079 290.517C304.103 290.521 304.021 290.327 303.897 290.086ZM226.235 276.032C225.853 275.182 225.79 274.846 225.81 273.758C225.853 271.282 226.63 268.527 228.189 265.326C229.209 263.23 231.191 260.024 232.354 258.589C233.802 256.8 235.009 253.576 235.977 248.904L236.587 245.965L236.591 241.835C236.591 238.497 236.54 237.461 236.316 236.434L236.039 235.163L237.109 233.06L236.22 232.764C235.731 232.601 235.246 232.444 235.142 232.415C235.037 232.386 234.865 232.656 234.756 233.018C234.648 233.378 234.447 233.733 234.309 233.807C234.172 233.882 233.58 234.296 232.995 234.728C232.411 235.16 231.722 235.6 231.465 235.707L230.997 235.9L231.077 238.311C231.124 239.732 231.084 241.189 230.979 241.858C230.765 243.225 229.807 246.604 229.347 247.618C229.165 248.019 228.908 248.598 228.777 248.904L228.539 249.46L228.974 249.063C229.513 248.571 230.605 246.898 231.346 245.428C231.653 244.819 231.978 244.275 232.068 244.219C232.421 244.001 232.39 244.623 232.001 245.544C231.777 246.076 231.594 246.603 231.595 246.715C231.599 247.074 229.487 251.18 228.878 252.001C228.555 252.438 228.131 253.117 227.937 253.51L227.585 254.225L228.49 253.352C229.703 252.181 230.581 250.933 231.732 248.742C232.916 246.49 233.992 242.912 234.296 240.216C234.431 239.026 234.568 238.411 234.71 238.356C234.828 238.311 234.962 238.337 235.009 238.413C235.163 238.662 234.796 244.022 234.531 245.409C233.728 249.6 232.003 253.077 228.347 257.878C227.034 259.602 225.513 262.479 224.833 264.526C224.546 265.389 224.352 266.49 224.203 268.101C224.084 269.381 223.937 270.553 223.877 270.706C223.572 271.476 223.211 270.727 222.624 268.106C221.869 264.737 222.2 260 223.266 258.888C223.654 258.484 223.668 258.435 223.393 258.436C222.84 258.44 221.376 259.225 220.288 260.103C218.782 261.319 216.561 263.814 215.258 265.754C213.897 267.782 213.69 268.18 213.548 269.038C213.433 269.726 213.071 269.96 212.882 269.468C212.75 269.125 213.097 266.55 213.481 265.027C214.278 261.857 217.036 257.51 219.998 254.754C220.929 253.888 222.381 252.71 223.225 252.137C224.913 250.99 226.447 249.427 227.286 248C227.584 247.492 228.099 246.648 228.431 246.124C229.211 244.89 229.418 244.376 229.92 242.437C230.284 241.027 230.888 236.232 230.722 236.066C230.688 236.032 230.458 236.072 230.212 236.155L229.765 236.306L229.816 237.72C229.937 241.027 228.965 243.516 225.989 247.526C225.09 248.737 222.23 251.419 219.163 253.926C216.659 255.973 215.786 256.945 214.858 258.713C213.804 260.721 213.239 262.475 212.748 265.267C212.357 267.485 212.325 267.954 212.418 270.013C212.52 272.268 212.735 273.768 212.977 273.917C213.045 273.959 213.093 273.58 213.083 273.074C213.068 272.295 213.167 271.952 213.731 270.815C214.443 269.381 216.671 266.471 217.796 265.505C218.843 264.606 220.547 263.518 220.909 263.518C221.342 263.518 221.475 263.998 221.249 264.75C220.946 265.761 221.527 268.751 222.462 270.996C223.325 273.064 223.844 273.944 225.448 276.052C226.696 277.694 226.981 277.687 226.237 276.032L226.235 276.032ZM262.218 258.236C262.058 253.513 261.349 248.326 260.629 246.606C260.491 246.276 260.378 245.828 260.378 245.611C260.378 245.269 260.432 245.229 260.776 245.315C260.995 245.37 261.514 245.457 261.929 245.509C263.223 245.67 266.426 246.518 267.928 247.097C268.803 247.435 269.659 247.899 270.12 248.287C270.662 248.743 270.875 248.85 270.875 248.664C270.875 247.613 267.206 243.591 263.384 240.453C260.061 237.724 256.269 235.206 251.552 232.593L249.166 231.272L246.144 231.291L247.576 231.835C249.855 232.703 251.651 233.603 254.971 235.543C260.771 238.931 263.238 240.769 266.789 244.343C268.172 245.734 269.268 246.908 269.225 246.951C269.182 246.994 268.478 246.533 267.661 245.928C265.103 244.033 262.864 242.81 259.822 241.647C258.203 241.028 256.196 240.442 256.272 240.611C256.3 240.672 256.592 241.195 256.92 241.772C257.529 242.842 258.941 246.656 258.945 247.24C258.945 247.503 260.003 252.358 260.464 254.225C260.716 255.244 260.363 254.42 259.273 251.447C257.904 247.713 256.971 245.932 255.084 243.454C252.29 239.786 247.253 235.083 243.6 232.731C242.9 232.281 242.427 231.911 242.548 231.909C243.487 231.896 247.597 233.453 250.558 234.945C251.061 235.198 251.472 235.376 251.472 235.339C251.472 235.272 250.767 234.735 248.782 233.288C247.109 232.069 245.076 231.113 243.444 230.778L242.009 230.483L241.734 230.837C241.583 231.032 241.458 231.241 241.456 231.301C241.456 231.361 241.021 231.676 240.495 232.001L239.537 232.591L240.137 232.932C241.889 233.926 245.346 236.497 247.417 238.345C250.541 241.133 253.506 244.55 255.868 248.084C257.921 251.155 260.956 257.333 261.84 260.243C262.042 260.907 262.234 261.451 262.267 261.451C262.301 261.451 262.278 260.006 262.218 258.236ZM209.882 250.022C210.021 249.388 208.76 246.945 207.275 244.974C206.668 244.167 205.722 242.887 205.175 242.13C204.627 241.372 203.814 240.317 203.366 239.784C202.919 239.252 201.912 237.995 201.129 236.991C200.345 235.986 199.596 235.056 199.464 234.923C198.971 234.429 198.495 233.651 198.59 233.496C198.754 233.231 198.887 233.314 199.386 233.991C199.649 234.347 200.543 235.227 201.374 235.946C203.007 237.359 203.415 237.659 203.203 237.292C203.132 237.17 203.282 237.259 203.536 237.491C204.32 238.206 206.992 239.801 208.664 240.552C209.539 240.945 211.206 241.558 212.368 241.914C213.531 242.271 214.52 242.602 214.568 242.65C214.673 242.757 212.152 242.594 210.201 242.368C208.988 242.228 208.175 241.989 206.639 241.323C206.516 241.27 206.707 241.655 207.063 242.178C207.904 243.414 209.426 246.445 209.563 247.156C209.622 247.462 209.741 247.988 209.827 248.325L209.984 248.938L210.307 248.325C210.812 247.366 212.786 244.821 214.098 243.439C215.693 241.758 219.325 238.571 220.664 237.677C221.99 236.793 226.114 234.863 227.386 234.532C228.01 234.37 229.063 234.289 230.564 234.289C232.795 234.289 232.814 234.285 233.533 233.811C234.065 233.459 234.284 233.196 234.36 232.819C234.416 232.537 234.397 232.284 234.318 232.258C234.239 232.232 233.575 231.757 232.843 231.203C230.261 229.248 228.893 227.419 228.89 225.916C228.886 225.141 229.231 225.281 225.31 224.461C216.213 222.558 208.011 222.526 203.334 224.373C201.934 224.926 199.784 226.318 199.252 227.015C198.927 227.441 198.712 228.148 198.269 230.248C197.894 232.026 197.734 233.132 197.799 233.513C197.965 234.494 198.394 235.071 203.924 241.754C207.219 245.736 209.167 248.615 209.167 249.502C209.167 249.998 209.463 250.684 209.632 250.579C209.713 250.529 209.825 250.278 209.882 250.022ZM231.009 232.734C230.733 232.585 229.807 231.827 228.953 231.051C228.085 230.261 227.044 229.476 226.593 229.271C225.607 228.82 222.517 228.013 220.557 227.693C216.427 227.02 210.638 227.09 207.259 227.855C204.164 228.556 203.421 228.824 202.41 229.608C201.686 230.17 201.365 230.323 200.987 230.286C199.251 230.117 202.748 227.75 206.21 226.751C208.277 226.155 210.212 225.97 214.451 225.962C217.802 225.955 218.128 225.933 217.365 225.76C215.96 225.441 211.426 224.786 209.829 224.67C208.993 224.61 208.405 224.503 208.482 224.426C208.558 224.35 209.368 224.203 210.282 224.099C213.229 223.765 219.581 224.253 225.331 225.257C227.442 225.625 228.093 225.932 228.093 226.559C228.093 226.751 228.234 227.157 228.407 227.461C228.579 227.765 228.938 228.409 229.204 228.891C229.844 230.049 231.613 231.877 232.705 232.507L233.58 233.011L232.546 233.007C231.879 233.004 231.334 232.909 231.009 232.734ZM220.857 226.347C220.803 226.259 220.602 226.189 220.41 226.19C220.127 226.194 220.106 226.221 220.3 226.347C220.613 226.549 220.982 226.549 220.857 226.347ZM272.232 230.17C272.074 223.873 271.29 220.013 269.405 216.259C268.477 214.411 267.926 213.722 266.72 212.899L265.645 212.165L264.184 212.352C263.381 212.455 262.507 212.651 262.241 212.788C261.975 212.926 261.364 213.173 260.882 213.339C259.735 213.733 257.712 214.925 256.761 215.767C256.345 216.135 255.719 216.606 255.369 216.814C255.019 217.021 254.296 217.532 253.764 217.95C252.679 218.8 249.341 220.888 247.915 221.609C247.402 221.869 246.113 222.373 245.052 222.73C243.381 223.292 242.873 223.391 241.258 223.473L239.393 223.567L239.892 224.332C240.258 224.894 240.631 225.218 241.293 225.552C241.79 225.802 242.415 226.257 242.683 226.561C243.183 227.131 243.468 228.141 243.288 228.708C243.2 228.985 243.343 229.054 244.633 229.356C246.215 229.727 246.478 229.711 248.603 229.11C249.698 228.8 250.318 228.729 251.943 228.729C260.848 228.729 271.742 232.626 271.849 235.85C271.862 236.262 271.935 236.06 272.097 235.163C272.273 234.181 272.304 233.045 272.232 230.17ZM271.138 231.562C270.911 229.193 270.706 227.851 270.32 226.196C269.619 223.19 269.499 223.086 269.576 225.552C269.627 227.195 269.58 227.962 269.358 228.956C269.202 229.661 269.025 230.296 268.964 230.366C268.903 230.437 268.861 229.15 268.87 227.507L268.887 224.52L268.277 222.852C267.941 221.934 267.414 220.703 267.106 220.115C266.39 218.75 264.944 217.172 263.876 216.592C262.62 215.909 261.773 216.037 259.259 217.291C258.169 217.835 256.695 218.629 255.983 219.057C255.271 219.484 254.635 219.834 254.57 219.834C254.506 219.834 253.516 220.305 252.371 220.882C249.909 222.123 248.805 222.576 248.582 222.438C248.493 222.383 249.196 221.957 250.145 221.493C251.093 221.029 252.349 220.269 252.934 219.805C253.52 219.34 255.13 218.047 256.513 216.93C258.277 215.506 259.501 214.656 260.617 214.08C262.097 213.317 262.302 213.256 263.569 213.193C264.79 213.133 265.013 213.168 265.736 213.533C266.661 214.002 267.71 215.118 268.282 216.242C270.153 219.923 271.319 225.088 271.363 229.892C271.385 232.306 271.282 233.066 271.138 231.562ZM236.819 231.52C237.181 231.333 237.511 230.881 238.07 229.802C238.487 228.997 239.131 228.024 239.502 227.642C240.13 226.992 240.215 226.953 240.774 227.056L241.373 227.167L240.953 226.717C240.722 226.47 240.39 225.981 240.214 225.632C240.039 225.282 239.582 224.567 239.198 224.043C238.315 222.837 237.795 221.947 237.795 221.644C237.795 221.255 236.548 220.794 235.489 220.791C234.331 220.787 233.492 221.004 232.996 221.433C232.628 221.752 232.63 221.752 233.295 221.429C234.197 220.992 235.822 220.984 236.664 221.413C237.242 221.708 237.903 222.63 238.804 224.401C239.46 225.69 239.594 225.899 239.878 226.076C240.386 226.392 240.222 226.506 239.266 226.498C237.999 226.488 237.152 226.018 236.394 224.903C236.067 224.421 235.696 223.708 235.571 223.32C235.285 222.435 235.163 222.349 234.375 222.469C233.288 222.636 230.834 224.227 230.22 225.163C230.004 225.493 229.99 225.639 230.144 225.976C230.528 226.819 231.493 227.78 232.677 228.501C233.349 228.909 234.092 229.378 234.329 229.542C235.312 230.224 236.287 229.836 237.568 228.252C238.062 227.641 238.49 227.141 238.52 227.141C238.653 227.141 238.047 228.875 237.715 229.444C237.044 230.595 236.357 231.12 235.392 231.217C234.588 231.299 234.474 231.264 233.568 230.658C232.075 229.658 229.993 227.209 229.615 226.008L229.397 225.314L229.381 226.009C229.37 226.51 229.497 226.933 229.834 227.519C230.487 228.651 232.955 230.979 234.252 231.684C234.789 231.976 236.098 231.892 236.819 231.52Z" fill="Currentcolor"/>

</svg>
