<svg  viewBox="0 0 1180 580" fill="currentcolor" xmlns="http://www.w3.org/2000/svg">
<path d="M232.702 325.852C229.715 325.769 222.943 325.751 217.654 325.812C208.055 325.923 203.823 325.738 200.269 325.05C198.463 324.701 198.262 324.403 198.052 321.773C197.866 319.433 198.176 317.562 199.661 312.069C200.347 309.529 200.909 307.192 200.909 306.876C200.909 306.197 199.51 304.352 198.704 303.965C198.386 303.813 197.232 303.714 196.068 303.74C192.521 303.817 192.31 303.485 192.31 297.814V293.8L191.462 292.028C190.679 290.394 190.613 290.098 190.613 288.227C190.613 285.428 191.365 283.82 193.882 281.235C194.884 280.206 195.705 279.243 195.706 279.095C195.706 278.948 194.969 277.221 194.065 275.258C192.428 271.7 192.423 271.684 192.378 269.544C192.347 268.072 192.239 267.344 192.038 267.228C191.877 267.135 190.087 266.568 188.062 265.968C182.094 264.2 179.102 262.871 175.6 260.435C171.999 257.929 169.705 255.085 166.812 249.538C164.004 244.155 163.37 243.016 162.586 241.95C162.214 241.444 160.833 240.064 159.516 238.884C155.618 235.388 153.171 232.818 152.701 231.729C152.223 230.621 152.136 228.821 152.494 227.463C152.993 225.573 155.643 224.249 159.387 224.02C162.249 223.845 167.172 224.57 175.905 226.453C179.888 227.312 184.826 228.375 186.88 228.816C188.933 229.256 192.059 230.001 193.826 230.47C195.593 230.939 197.236 231.322 197.477 231.322C197.718 231.322 201.21 229.616 205.238 227.531C215.062 222.445 217.046 221.696 223.943 220.468C228.332 219.687 230.273 219.769 235.98 220.978C243.688 222.61 249.963 225.465 255.391 229.809C258.067 231.95 259.662 232.35 263.249 231.781C263.996 231.662 271.226 231.463 279.315 231.338C287.405 231.214 296.282 230.984 299.043 230.829C303.857 230.557 304.094 230.564 304.81 231.005C306.033 231.757 306.877 233.243 306.984 234.833C307.179 237.744 305.668 240.292 300.297 246.11C298.314 248.257 295.583 251.354 294.227 252.991C287.083 261.619 283.82 263.449 269.585 266.813C267.843 267.225 266.33 267.648 266.223 267.755C266.117 267.861 266.6 268.065 267.298 268.208C267.996 268.352 269.112 268.58 269.778 268.716C271.458 269.06 272.265 269.951 272.179 271.369C271.988 274.525 272.113 274.948 274.023 277.656C275.372 279.569 275.062 281.882 273.216 283.673C272.444 284.421 271.94 284.688 270.884 284.906C270.144 285.06 269.428 285.257 269.293 285.344C269.159 285.431 268.638 286.822 268.135 288.435C267.06 291.879 266.138 293.571 264.338 295.406C262.214 297.57 260.489 298.441 256.913 299.152L254.877 299.558L254.889 305.027C254.9 309.084 255.009 311.204 255.313 313.235C256.009 317.878 255.775 322.39 254.789 323.329C253.883 324.191 249.112 325.428 245.064 325.849C242.636 326.102 241.774 326.102 232.699 325.853L232.702 325.852ZM240.519 322.981C243.979 322.692 249.197 321.746 249.685 321.32C250.088 320.968 250.111 317.82 249.775 308.711C249.501 301.266 249.155 297.913 248.652 297.813C248.387 297.76 248.19 298.349 247.779 300.43C247.228 303.219 246.898 304.129 246.153 304.913C245.469 305.633 245.26 305.473 245.26 304.23C245.26 302.57 245.623 300.67 246.611 297.162C247.757 293.089 248.041 291.575 248.059 289.423C248.087 286.289 247.849 286.404 245.86 290.488C243.74 294.841 241.682 297.808 239.377 299.834C237.53 301.457 235.417 302.758 234.628 302.758C233.927 302.758 232.815 301.865 232.815 301.303C232.815 300.953 233.201 300.651 234.322 300.121C237.772 298.492 241.171 295.346 243.562 291.566C245.091 289.152 248.717 281.535 248.464 281.27C248.048 280.832 244.127 282.673 242.215 284.203C241.587 284.705 240.259 285.771 239.263 286.57C237.042 288.355 234.725 289.583 232.928 289.928C232.181 290.072 231.349 290.231 231.079 290.282C230.509 290.39 230.486 290.477 229.877 294.858C229.353 298.633 228.306 321.923 228.645 322.272C228.939 322.574 233.467 323.181 235.654 323.211C236.656 323.225 238.846 323.121 240.519 322.981ZM218.262 321.51C218.188 320.822 218.008 319.295 217.862 318.116C217.493 315.137 217.734 307.562 218.33 303.398C218.588 301.589 219.252 298.216 219.804 295.902C220.356 293.588 220.735 291.623 220.645 291.534C220.555 291.446 219.006 291.336 217.201 291.291L213.92 291.209L213.121 294.543C212.263 298.119 211.53 299.879 210.405 301.062C209.391 302.129 209.022 302.19 206.234 301.756C205.85 301.696 205.683 302.051 205.029 304.305C204.082 307.57 203.848 309.039 204.113 310.05C204.508 311.553 205.247 311.86 207.078 311.283C207.682 311.093 208.67 310.33 210.046 308.992C212.513 306.594 213.545 305.736 213.73 305.931C214.057 306.275 213.131 307.77 211.55 309.449C210.176 310.91 209.096 311.728 205.955 313.69C203.814 315.027 202.011 316.302 201.948 316.523C201.732 317.287 201.725 321.094 201.941 321.303C202.164 321.521 207.511 322.465 209.283 322.599C209.843 322.642 212.123 322.695 214.349 322.718L218.398 322.76L218.262 321.51ZM226.328 322.537C226.976 322.277 226.964 322.44 227.382 309.306C227.636 301.373 228.079 294.885 228.503 292.92C228.639 292.289 228.699 291.686 228.636 291.579C228.526 291.392 223.925 291.486 222.942 291.696C222.522 291.786 222.34 292.31 221.523 295.79C221.007 297.985 220.437 300.848 220.255 302.151C219.769 305.643 219.58 312.86 219.895 315.903C220.169 318.542 220.906 321.936 221.319 322.46C221.603 322.819 225.472 322.879 226.328 322.537ZM202.765 302.317C203.359 301.735 203.651 301.269 203.567 301.039C203.408 300.603 201.466 299.424 200.907 299.424C200.183 299.424 200.03 300.929 200.613 302.32C201.104 303.491 201.571 303.491 202.765 302.317ZM198.596 300.075C199.21 298.722 199.151 298.548 197.366 296.466C196.701 295.691 196.157 294.968 196.157 294.859C196.157 294.751 196.063 294.662 195.948 294.662C195.159 294.662 194.865 299.533 195.584 300.689C195.951 301.278 196.113 301.344 197.039 301.281C198.037 301.213 198.102 301.163 198.596 300.075ZM207.659 299.445C209.625 298.389 211.313 296.006 212.035 293.267C212.627 291.02 212.616 287.218 212.015 286.586C211.56 286.108 208.365 285.237 207.841 285.449C207.604 285.544 207.509 286.818 207.408 291.247C207.313 295.419 207.185 297.239 206.925 298.114C206.553 299.36 206.481 299.9 206.687 299.9C206.754 299.9 207.191 299.695 207.658 299.445H207.659ZM204.98 297.721C206.049 296.169 205.915 295.546 204.239 294.278C202.814 293.201 200.981 292.287 200.23 292.279C199.307 292.27 199.038 291.923 198.855 290.503C198.729 289.526 198.32 288.472 197.367 286.67C196.644 285.303 195.979 284.184 195.888 284.184C195.569 284.184 195.026 286.665 195.026 288.119C195.026 290.119 195.972 292.084 197.948 294.188C199.519 295.86 203.237 298.673 203.906 298.696C204.123 298.704 204.606 298.265 204.98 297.721ZM259.239 294.387C261.559 293.221 263.827 289.944 264.178 287.251C264.356 285.884 264.01 285.537 262.694 285.758C261.934 285.886 261.389 286.264 259.922 287.681C258.918 288.652 257.936 289.413 257.739 289.373C257.126 289.249 256.315 283.518 256.415 280.017C256.46 278.446 256.575 276.972 256.673 276.743C256.995 275.981 256.46 276.311 254.825 277.88C252.694 279.927 252.048 281.309 252.048 283.824C252.048 285.598 252.033 285.644 251.355 286.041C250.737 286.402 250.675 286.537 250.785 287.28C250.983 288.621 252.226 292.571 252.712 293.399C253.916 295.452 256.38 295.825 259.239 294.387ZM205.806 289.723C206.175 286.415 206.182 285.017 205.83 284.71C205.08 284.056 199.681 281.308 199.271 281.373C198.457 281.501 197.886 282.596 197.915 283.97C197.951 285.631 198.808 287.399 200.376 289.05C202.017 290.777 204.966 292.868 205.285 292.532C205.414 292.396 205.649 291.132 205.806 289.723ZM227.474 287.981C231.169 287.129 233.316 286.3 237.445 284.127C239.68 282.951 243.613 281.044 246.184 279.89C252.351 277.121 254.408 276.015 255.029 275.131C255.308 274.734 256.63 273.668 257.965 272.764C260.734 270.888 261.218 270.219 261.037 268.522C260.971 267.906 260.732 267.261 260.466 266.982C260.009 266.501 260.008 266.501 259.366 266.975C258.284 267.773 255.248 268.659 252.274 269.044C246.926 269.737 242.2 270.134 239.263 270.137C236.132 270.141 232.349 270.523 227.384 271.338C225.704 271.613 223.311 271.994 222.066 272.183C219.53 272.57 217.933 273.271 217.442 274.215C217.147 274.781 217.19 275.244 217.886 278.977C218.684 283.264 218.846 286.034 218.335 286.682C218.128 286.944 217.593 287.042 216.368 287.042C215.443 287.042 214.74 287.135 214.806 287.248C214.923 287.447 218.757 288.352 220.369 288.561C221.834 288.751 225.398 288.46 227.474 287.981ZM260.606 285.22C262.4 283.675 265.148 282.339 267.562 281.839L269.567 281.424L269.888 279.841C270.064 278.97 270.15 278.097 270.079 277.902C270.008 277.706 269.442 277.356 268.823 277.125C266.8 276.369 266.579 275.876 267.907 275.078C268.907 274.477 268.76 273.549 267.548 272.811C265.926 271.822 263.721 272.506 261.431 274.709C260.102 275.987 259.974 276.259 260.59 276.489C261.324 276.763 261.778 277.349 261.778 278.022C261.778 278.963 261.161 279.242 259.51 279.045L258.158 278.884V281.033C258.158 282.523 258.299 283.664 258.619 284.755C258.873 285.62 259.135 286.327 259.2 286.327C259.266 286.327 259.898 285.829 260.606 285.22ZM216.928 285.172C217.162 285.016 217.097 284.36 216.608 281.902C215.547 276.575 215.79 273.239 217.366 271.507C217.693 271.148 217.91 270.802 217.85 270.739C217.789 270.675 216.065 270.725 214.019 270.851C211.974 270.977 208.619 271.109 206.566 271.143L202.832 271.207L200.87 269.835C199.791 269.081 198.652 268.143 198.339 267.752C197.591 266.816 197.198 266.854 196.723 267.906C195.049 271.619 200.367 279.136 207.132 282.616C209.757 283.967 212.576 284.901 214.712 285.128C215.645 285.227 216.46 285.322 216.522 285.338C216.584 285.354 216.767 285.28 216.928 285.172ZM233.946 268.359C236.622 268.161 239.315 267.931 239.931 267.848L241.051 267.696L240.27 267.259C239.362 266.75 239.173 266.776 243.676 266.794C250.771 266.823 255.418 265.399 258.394 262.282C260.619 259.952 261.425 257.171 260.898 253.645C260.301 249.651 260.307 249.349 261.012 247.954C261.866 246.264 264.28 243.769 265.977 242.823C268.726 241.29 273.525 239.985 278.071 239.535C281.516 239.193 290.872 238.773 291.055 238.952C291.303 239.195 290.181 239.693 288.253 240.198C286.183 240.739 284.389 241.013 280.15 241.434C272.653 242.18 270.081 243.202 266.324 246.932C264.09 249.15 263.188 251.085 262.901 254.274C262.717 256.313 262.523 257.027 261.327 260.052C260.576 261.95 260.026 263.613 260.105 263.747C260.393 264.237 268.896 263.357 273.337 262.378C278.592 261.22 282.661 259.47 285.693 257.066C287.405 255.709 288.475 254.541 291.116 251.149C291.806 250.263 294.376 247.387 296.826 244.757C301.331 239.923 302.696 238.13 303.44 236.07C303.774 235.145 303.795 234.89 303.553 234.679C303.34 234.493 297.206 234.53 281.669 234.811C266.387 235.087 259.676 235.13 258.694 234.955C257.599 234.76 256.435 234.195 253.151 232.262C244.076 226.922 239.1 224.884 232.815 223.934C226.297 222.949 221.223 223.741 214.146 226.849C210.612 228.401 209.992 228.736 204.756 231.936C202.329 233.418 199.863 234.765 199.275 234.929C197.852 235.326 195.796 234.96 191.571 233.556C187.832 232.314 180.366 230.7 169.569 228.8C160.461 227.197 158.849 227.1 156.937 228.043C155.381 228.81 155.38 228.951 156.898 231.203C157.915 232.71 158.008 232.805 161.774 236.241C163.088 237.439 164.425 238.78 164.745 239.221C165.065 239.663 166.374 242.111 167.653 244.662C170.481 250.298 171.524 252.025 173.324 254.049C177.678 258.948 183.706 261.871 192.762 263.477C196.736 264.182 197.996 264.31 198.258 264.034C198.336 263.952 198.214 263.497 197.988 263.022C197.539 262.079 197.584 261.515 198.094 261.721C198.272 261.793 199.065 262.778 199.856 263.91C201.627 266.445 202.421 267.272 203.797 268.012C204.744 268.521 205.154 268.586 207.357 268.573C209.504 268.56 210.372 268.42 213.671 267.55C217.983 266.412 218.942 266.493 216.453 267.785C215.633 268.21 215.024 268.661 215.098 268.788C215.283 269.102 227.738 268.819 233.946 268.359ZM233.154 265.576C232.532 265.456 229.833 265.275 227.157 265.174C222.323 264.991 222.298 264.988 223.142 264.583C224.744 263.814 226.939 263.41 228.742 263.551C230.827 263.714 233.154 264.453 234.059 265.241C234.802 265.888 234.794 265.891 233.154 265.576ZM208.998 260.629C205.247 259.768 201.839 257.539 200.731 255.22C199.68 253.023 200.001 250.664 201.596 248.842C203.165 247.051 206.918 245.623 210.082 245.613C214.328 245.6 219.303 248.816 220.576 252.396C221.632 255.367 221.002 257.726 218.779 259.13C215.976 260.899 212.498 261.432 208.998 260.629ZM207.804 250.61C207.967 250.61 208.327 250.416 208.605 250.179C209.079 249.775 209.087 249.725 208.727 249.346C207.818 248.39 204.621 249.221 205.402 250.211C205.698 250.587 206.656 250.842 207.207 250.692C207.372 250.647 207.641 250.61 207.804 250.61ZM238.811 259.977C236.024 259.085 234.869 257.134 235.334 254.098C235.628 252.172 236.477 250.6 238.029 249.103C242.101 245.174 247.561 243.931 251.695 245.99C252.359 246.321 253.134 246.853 253.419 247.172C254.125 247.962 254.396 247.902 253.977 247.048C253.473 246.022 251.777 244.759 250.128 244.181C248.638 243.66 246.122 243.513 244.425 243.847C243.451 244.04 240.668 245.206 239.868 245.757C239.07 246.308 239.009 245.969 239.712 244.901C241.088 242.811 243.336 241.894 246.591 242.095C250.792 242.354 255.282 245.436 256.852 249.139C257.354 250.323 257.271 250.779 256.531 250.889C256.042 250.962 256.001 251.098 255.895 252.991C255.81 254.511 255.669 255.174 255.33 255.652C254.21 257.23 250.393 259.178 246.961 259.923C244.431 260.472 240.441 260.499 238.811 259.977ZM243.344 250.741C244.722 250.135 244.222 249.181 242.524 249.181C241.207 249.181 240.235 249.857 240.701 250.449C240.964 250.782 241.423 250.959 242.269 251.053C242.429 251.071 242.912 250.931 243.344 250.741ZM195.876 258.17C195.359 257.34 194.822 255.153 194.45 252.364C194.015 249.1 193.953 248.847 193.196 247.251C191.428 243.524 187.529 240.634 180.883 238.124C179.265 237.513 176.567 236.471 174.887 235.808C170.701 234.156 165.524 231.322 166.691 231.322C167.095 231.322 172.844 233.11 177.489 234.681C188.319 238.342 189.535 238.784 191.007 239.591C193.607 241.016 196.214 244.127 196.995 246.737C197.367 247.976 197.36 248.154 196.797 252.349C196.477 254.732 196.263 257.137 196.323 257.694C196.445 258.84 196.354 258.938 195.876 258.17ZM225.612 258.293C224.238 257.868 223.859 257.253 224.108 255.853C224.297 254.793 225.633 253.428 226.86 253.042C230.249 251.973 233.762 254.048 233.12 256.74C232.944 257.48 231.207 258.523 230.1 258.554C228.538 258.597 228.613 258.071 230.299 257.172C230.889 256.857 231.515 256.419 231.69 256.197C231.97 255.841 231.924 255.716 231.288 255.119C230.013 253.919 228.059 253.704 226.413 254.582C225.549 255.042 225.211 256.009 225.71 256.59C225.917 256.83 226.302 257.096 226.565 257.18C227.2 257.383 227.837 257.987 227.837 258.386C227.837 258.795 227.137 258.766 225.612 258.293ZM198.676 248.954C199.026 247.9 201.295 245.484 202.832 244.53C203.579 244.067 205.005 243.403 206 243.055C207.588 242.501 208.187 242.421 210.865 242.409C213.867 242.395 213.947 242.409 215.504 243.183C217.334 244.095 217.922 244.607 218.817 246.073C219.979 247.973 219.551 247.999 216.822 246.193C212.945 243.627 211.244 243.073 208.5 243.482C206.441 243.788 204.835 244.711 201.716 247.378C198.844 249.832 198.29 250.12 198.676 248.954ZM219.731 239.07C217.593 236.849 215.843 234.954 215.843 234.86C215.843 234.766 216.173 234.788 216.575 234.91C219.236 235.713 221.84 238.014 223.066 240.646C224.492 243.706 223.943 243.447 219.731 239.07ZM235.078 242.231C235.078 242.063 235.703 240.45 236.467 238.648C237.532 236.136 237.955 235.37 238.277 235.37C238.779 235.37 238.802 235.772 238.391 237.394C238.003 238.927 237.565 239.804 236.536 241.105C235.595 242.296 235.078 242.695 235.078 242.231ZM228.515 242.015C228.515 241.947 228.312 240.725 228.063 239.299C227.814 237.873 227.613 236.219 227.617 235.622L227.625 234.537L228.18 235.2C229.377 236.632 229.829 240.757 228.897 241.738C228.687 241.959 228.515 242.084 228.515 242.015Z" fill="currentcolor"/>

</svg>
