<svg  viewBox="0 0 1180 580" fill="currentcolor" xmlns="http://www.w3.org/2000/svg">
<path d="M282.1 335.077C280.399 334.581 278.939 332.497 278.184 329.488C277.945 328.536 277.399 327.18 276.702 325.807C276.096 324.61 275.254 322.823 274.833 321.834C274.412 320.845 273.307 318.648 272.377 316.953C270.609 313.728 269.96 312.332 269.632 311.045C269.154 309.174 268.706 308.819 266.822 308.819C264.78 308.819 264.704 308.912 263.055 313.442C261.468 317.802 260.651 319.461 259.196 321.279C258.555 322.08 258.316 322.541 258.224 323.155C257.911 325.246 255.411 329.026 254.342 329.026C253.711 329.026 254.069 328.275 255.354 326.906C256.252 325.949 256.465 325.412 256.322 324.46C256.221 323.79 256.244 323.718 256.56 323.718C256.898 323.718 257.621 322.989 257.621 322.648C257.621 322.551 257.379 322.526 257.043 322.589C256.551 322.681 256.422 322.633 256.181 322.266C256.026 322.028 255.79 321.834 255.657 321.834C255.32 321.834 254.878 321.355 254.878 320.989C254.878 320.714 254.949 320.702 255.579 320.87C256.477 321.109 256.68 320.866 256.841 319.372C257.006 317.828 257.389 317.287 258.557 316.948C259.08 316.796 259.507 316.572 259.507 316.451C259.507 315.975 258.626 315.344 257.82 315.24C256.872 315.119 256.506 314.947 256.506 314.623C256.506 314.458 256.849 314.342 257.616 314.248C259.503 314.015 259.914 313.359 259.825 310.718L259.764 308.904L260.695 308.811C261.207 308.76 261.658 308.623 261.696 308.508C261.925 307.824 262.241 307.752 264.638 307.831C266.902 307.906 268.667 308.238 269.296 308.708C269.441 308.816 269.934 309.776 270.391 310.842C270.848 311.908 271.914 314.027 272.76 315.551C274.462 318.617 275.023 319.786 275.404 321.063C275.545 321.534 276.198 322.993 276.856 324.305C278.262 327.109 278.592 327.968 278.95 329.753C279.249 331.243 279.6 332.018 280.529 333.239C281.529 334.554 282.186 334.918 283.039 334.631C283.611 334.439 284.196 333.664 284.196 333.097C284.196 332.869 283.926 332.303 283.595 331.839C283.043 331.066 282.997 330.908 283.038 329.934C283.094 328.589 282.951 328.433 281.91 328.695C280.775 328.98 280.596 328.861 280.596 327.824C280.596 326.89 280.86 326.223 281.436 325.703C282.042 325.154 281.866 323.444 281.088 322.327C280.916 322.08 280.351 321.67 279.831 321.417C279.312 321.163 278.84 320.878 278.781 320.783C278.719 320.683 278.397 320.658 278.01 320.723C277.302 320.842 276.138 320.556 276.138 320.263C276.138 320.167 276.253 319.884 276.393 319.634C276.533 319.384 276.759 318.871 276.895 318.494C277.031 318.118 277.316 317.341 277.53 316.768L277.918 315.726L277.141 314.113C276.713 313.226 276.198 311.954 275.997 311.286C275.544 309.788 275.153 309.276 274.021 308.703C273.535 308.457 272.899 308.075 272.609 307.854C272.318 307.632 271.817 307.401 271.494 307.34C270.782 307.205 270.309 306.976 270.309 306.767C270.309 306.681 270.868 306.346 271.551 306.022C275.219 304.285 274.982 304.438 275.662 303.365C276.05 302.753 276.519 302.252 276.858 302.088C277.515 301.77 277.676 301.843 277.281 302.279C276.829 302.778 276.277 304.553 276.365 305.222C276.526 306.436 277.169 307.733 278.2 308.918C278.766 309.57 279.39 310.45 279.587 310.874C280.982 313.878 281.721 315.199 282.559 316.183C283.08 316.795 283.507 317.464 283.508 317.67C283.512 318.344 283.819 318.873 284.418 319.243C285.146 319.693 285.661 319.701 286.766 319.282C287.86 318.867 287.869 319.043 286.786 319.65C285.697 320.261 284.869 320.259 283.823 319.643C282.788 319.035 282.195 318.274 281.192 316.268C280.441 314.767 280.081 314.311 280.081 314.86C280.081 315.237 280.933 317.702 281.462 318.855C281.74 319.462 281.968 319.99 281.968 320.028C281.968 320.066 282.202 320.602 282.487 321.219C283.012 322.351 283.793 324.781 284.391 327.142C284.57 327.849 284.917 329.178 285.163 330.096C285.558 331.573 285.586 331.856 285.408 332.562C284.871 334.693 283.737 335.555 282.1 335.077ZM259.006 318.252C259.195 317.795 258.982 317.431 258.65 317.638C258.405 317.789 257.791 319.186 257.797 319.579C257.801 319.923 258.741 318.893 259.006 318.252ZM216.363 333.174C216.258 333.006 216.079 332.293 215.965 331.59C215.851 330.886 215.69 330.041 215.607 329.711C215.434 329.025 214.436 322.512 213.901 318.58C213.703 317.12 213.43 315.155 213.296 314.213C213.163 313.271 212.819 310.574 212.534 308.219C210.814 294.044 208.862 282.186 208.063 281.066C207.699 280.555 207.684 280.551 207.247 280.837C206.32 281.443 200.691 286.108 196.325 289.887C195.288 290.785 194.054 291.715 193.582 291.954L192.725 292.388L192.673 290.2C192.609 287.544 192.864 284.238 193.337 281.589C193.53 280.506 193.866 278.618 194.085 277.394C194.302 276.169 194.448 275.11 194.407 275.039C194.173 274.632 186.405 275.027 178.58 275.843C175.734 276.14 174.014 276.18 173.873 275.952C173.772 275.788 174.996 273.924 177.035 271.143C178.22 269.524 178.956 268.306 179.166 267.61C179.244 267.351 179.189 267.21 178.971 267.125C178.089 266.777 172.362 266.5 164.435 266.421C155.401 266.331 154.342 266.281 154.45 265.951C154.58 265.553 156.838 263.803 158.308 262.96C159.132 262.489 160.667 261.673 161.721 261.148C163.578 260.223 164.101 259.843 163.704 259.711C163.314 259.581 160.714 257.945 160.047 257.41C159.667 257.105 158.862 256.205 158.257 255.409L157.157 253.962L158.099 253.579C159.277 253.101 160.291 252.279 161.273 251.007C161.692 250.464 162.247 249.808 162.506 249.549C162.834 249.221 162.977 248.902 162.977 248.499C162.977 247.353 164.813 245.24 166.544 244.393L167.35 243.999L167.392 242.15C167.436 240.243 167.986 237.643 168.793 235.522C169.347 234.064 170.844 231.401 171.973 229.862C173.138 228.274 176.183 225.286 178.019 223.929C180.341 222.213 183.698 220.749 187.581 219.761C189.678 219.227 189.984 219.193 192.725 219.195C195.227 219.199 195.846 219.253 197.097 219.592C197.899 219.809 198.685 220.053 198.843 220.134C199.386 220.41 200.044 219.938 202.119 217.781C205.017 214.768 206.859 213.441 209.947 212.14C212.438 211.091 213.867 210.796 216.471 210.795C220.016 210.795 222.254 211.5 225.916 213.776C227.924 215.025 228.648 215.62 230.631 217.654L232.359 219.428L235.088 219.321C241.798 219.058 247.76 220.543 253.291 223.855C256.737 225.919 260.966 231.224 262.73 235.694C263.64 238.002 264.799 241.557 265.39 243.853C265.912 245.881 266.03 246.157 266.569 246.63C267.352 247.317 268.073 248.698 268.86 251.021C270.004 254.393 270.815 255.673 272.159 256.229C272.448 256.349 272.728 256.561 272.782 256.701C272.95 257.138 272.014 258.507 270.694 259.755C269.826 260.575 269.461 261.034 269.538 261.21C269.599 261.352 270.653 262.199 271.879 263.094C274.632 265.103 279.634 269.038 279.706 269.251C279.737 269.338 279.601 269.568 279.406 269.762C278.891 270.277 277.404 270.224 272.194 269.508C261.76 268.073 258.296 267.657 254.502 267.385C251.096 267.14 250.076 267.149 250.076 267.424C250.076 267.696 251.517 269.096 253.763 271.006C254.706 271.808 255.826 272.841 256.252 273.302C257.075 274.191 258.121 276.009 257.923 276.207C257.764 276.365 254.747 275.998 246.476 274.812C242.156 274.193 237.721 273.665 237.628 273.758C237.426 273.961 238.337 280.273 239.279 285.198C239.865 288.262 239.902 289.047 239.501 289.889C239.033 290.869 238.86 290.788 235.674 288.095C231.26 284.364 228.984 282.611 226.683 281.171C225.452 280.4 225.109 280.254 224.941 280.429C224.27 281.13 222.679 288.342 221.928 294.091C221.836 294.797 221.575 296.685 221.348 298.287C220.603 303.538 219.347 313.335 218.867 317.638C218.677 319.334 218.296 322.532 218.02 324.745C217.744 326.959 217.434 329.656 217.332 330.739C217.23 331.822 217.109 332.882 217.062 333.094C216.962 333.556 216.626 333.595 216.363 333.174ZM215.082 268.825C215.797 268.012 215.824 267.155 215.143 266.893C214.304 266.569 211.971 265.991 211.877 266.084C211.744 266.218 212.166 267.933 212.407 268.233C212.866 268.805 213.778 269.43 214.152 269.43C214.393 269.43 214.76 269.191 215.082 268.825ZM219.037 268.835C219.731 268.397 220.072 267.714 220.072 266.762C220.072 266.452 220.151 265.99 220.248 265.736C220.345 265.481 220.384 265.233 220.336 265.184C220.211 265.06 218.913 265.664 218.666 265.961C218.554 266.095 218.163 266.326 217.797 266.472C217.009 266.787 216.771 267.28 216.92 268.286C217.103 269.518 217.705 269.675 219.037 268.835ZM210.128 265.688C210.128 265.42 210.041 264.952 209.935 264.649C209.761 264.15 209.787 264.052 210.211 263.61L210.679 263.122L210.379 262.209C210.214 261.707 209.747 260.632 209.342 259.822C207.881 256.898 207.221 255.127 206.349 251.791C206.063 250.696 206.128 250.421 206.672 250.421C206.94 250.421 207.297 250.572 207.464 250.757C207.779 251.105 208.045 251.287 211.742 253.691L213.956 255.131L215.27 255.19C217.389 255.286 219.43 254.385 222.785 251.87C223.852 251.07 224.991 250.305 225.314 250.17C225.889 249.93 226.132 249.394 225.665 249.394C225.248 249.394 225.024 248.973 225.266 248.643C225.53 248.281 225.949 248.414 226.236 248.95C226.417 249.288 226.382 249.472 225.99 250.244C224.673 252.84 223.225 256.438 222.542 258.812C222.122 260.272 221.654 261.818 221.503 262.247C221.25 262.965 221.251 263.07 221.507 263.568C221.743 264.023 221.755 264.227 221.586 264.859C221.476 265.272 221.437 265.746 221.502 265.913C221.603 266.178 221.662 266.186 221.972 265.981C222.423 265.681 223.008 264.629 225.525 259.583C226.183 258.265 226.981 256.723 227.299 256.158C228.83 253.433 230.043 250.143 229.618 249.868C229.506 249.796 229.204 249.781 228.946 249.835C228.55 249.918 228.444 249.858 228.27 249.449C228.156 249.183 227.932 248.811 227.772 248.623C227.583 248.401 227.456 247.887 227.413 247.167C227.363 246.344 227.242 245.914 226.948 245.517C226.685 245.161 226.588 244.861 226.662 244.628C226.836 244.081 228.256 243.341 229.158 243.327C229.897 243.314 229.945 243.282 230.311 242.543C230.879 241.399 230.788 241.181 229.586 240.801C228.282 240.389 227.754 240.375 226.598 240.722C225.517 241.047 224.38 241.083 223.784 240.812C223.301 240.592 222.89 239.863 223.193 239.763C223.322 239.72 223.284 239.442 223.076 238.898C222.691 237.892 222.871 237.37 223.942 236.384C224.685 235.7 224.686 235.696 224.259 235.589C223.612 235.427 222.335 236.284 221.846 237.209C221.475 237.913 221.467 237.99 221.714 238.579C221.857 238.923 222.164 239.401 222.394 239.641C223.107 240.385 222.894 241.307 221.92 241.692C220.911 242.092 220.901 242.124 221.382 243.372C221.623 243.999 221.814 244.802 221.804 245.156C221.785 245.869 222.244 246.482 222.796 246.482C223.157 246.482 223.369 246.863 223.221 247.246C223.169 247.384 222.596 247.75 221.95 248.06C221.088 248.473 220.747 248.734 220.668 249.041C220.61 249.27 220.413 249.667 220.231 249.923C219.592 250.82 219.857 250.98 221.036 250.41C221.626 250.125 221.837 250.094 222.133 250.252C222.486 250.441 222.488 250.461 222.194 250.785C222.026 250.971 221.46 251.384 220.937 251.703C220.413 252.022 219.893 252.434 219.781 252.618C219.506 253.069 217.91 253.949 217.113 254.09C216.405 254.216 216.369 254.145 216.461 252.837C216.502 252.266 216.493 252.258 215.942 252.367C215.506 252.455 215.156 252.362 214.37 251.954C212.046 250.746 211.223 250.057 210.251 248.507C210.093 248.256 209.808 248 209.617 247.939C209.334 247.85 209.302 247.768 209.447 247.498C209.659 247.102 211.11 246.337 212.184 246.055C212.955 245.852 212.955 245.852 212.921 245.12C212.901 244.717 212.76 244.248 212.606 244.078C212.345 243.79 212.353 243.732 212.714 243.244C213.025 242.823 213.118 242.43 213.179 241.262C213.278 239.369 213.117 239.129 212.153 239.737C211.775 239.975 211.345 240.124 211.197 240.067C210.971 239.981 210.995 239.892 211.351 239.499C212.159 238.605 212.257 238.433 211.956 238.433C211.807 238.433 211.424 238.703 211.103 239.033C210.783 239.362 210.466 239.632 210.4 239.632C210.334 239.632 210.014 239.813 209.688 240.033C209.155 240.395 208.891 240.437 206.997 240.463C204.097 240.502 201.382 239.803 201.382 239.018C201.382 238.891 201.536 238.705 201.725 238.605C202.172 238.366 202.157 238.205 201.639 237.646C201.403 237.392 201.21 237.078 201.21 236.948C201.21 236.819 201.403 236.639 201.639 236.55C202.155 236.353 202.194 235.946 201.725 235.653C201.374 235.435 201.242 234.666 201.556 234.666C201.651 234.666 201.881 234.76 202.067 234.876C202.335 235.044 202.517 235.039 202.964 234.854C205.091 233.976 205.317 233.937 206.515 234.235C207.134 234.389 208.284 234.861 209.07 235.285C209.857 235.708 210.564 236.031 210.643 236.002C210.722 235.974 210.567 235.488 210.299 234.923C210.03 234.357 209.544 233.317 209.219 232.611C208.53 231.115 207.558 229.926 206.744 229.587C205.926 229.245 205.088 229.54 203.673 230.666C202.135 231.89 201.912 231.867 202.583 230.554C203.454 228.848 204.888 227.825 206.598 227.688L207.686 227.601L208.505 228.35C209.659 229.405 210.638 230.785 211.551 232.641C211.983 233.519 212.61 234.53 212.944 234.887C213.459 235.438 213.603 235.509 213.894 235.353C214.083 235.252 214.274 234.998 214.318 234.789C214.363 234.58 214.485 233.967 214.589 233.427C214.779 232.444 215.033 232.057 215.255 232.415C215.32 232.52 215.308 233.276 215.227 234.095C215.088 235.547 215.065 235.606 214.319 236.402C213.898 236.852 213.553 237.307 213.553 237.413C213.553 237.519 213.788 238.191 214.074 238.906C214.633 240.3 214.633 240.423 214.063 242.212C213.833 242.933 213.795 243.35 213.906 243.925C214.125 245.06 214.096 246.082 213.827 246.725C213.598 247.273 213.551 247.297 212.841 247.226C211.796 247.123 211.62 247.298 211.599 248.464L211.583 249.452L212.404 249.663C212.91 249.794 213.589 250.175 214.18 250.662C215.183 251.486 215.675 251.636 215.854 251.172C215.925 250.985 216.098 250.922 216.386 250.977C216.886 251.072 216.903 250.997 216.544 250.278C216.276 249.741 216.161 248.789 216.342 248.608C216.395 248.555 216.673 248.633 216.96 248.781C217.247 248.93 217.669 249.051 217.898 249.051C218.126 249.051 218.41 249.167 218.527 249.308C218.876 249.728 219.502 249.63 219.627 249.135C219.747 248.656 219.188 247.245 218.83 247.125C218.711 247.085 218.309 247.188 217.937 247.354C217.305 247.636 217.246 247.637 217.042 247.369C216.922 247.211 216.819 246.966 216.813 246.825C216.809 246.683 216.607 246.183 216.369 245.712C216.131 245.241 215.891 244.41 215.836 243.865C215.748 243.001 215.783 242.823 216.111 242.474C216.395 242.173 216.459 241.96 216.371 241.61C216.307 241.355 216.155 241.108 216.034 241.062C215.639 240.91 215.617 240.234 215.96 238.798C216.195 237.818 216.298 236.782 216.298 235.426C216.298 233.266 216.453 233 216.986 234.241C217.168 234.667 217.428 235.058 217.563 235.109C217.965 235.263 219.245 234.513 220.07 233.64C220.495 233.191 221.266 232.112 221.785 231.242C222.99 229.221 223.847 228.248 224.887 227.722C226.182 227.067 226.732 227.148 227.839 228.158C229.106 229.315 229.491 229.311 228.857 228.149C228.598 227.673 228.146 227.001 227.853 226.656C227.391 226.111 227.22 226.027 226.567 226.023C226.153 226.019 225.448 226.08 225 226.156C224.252 226.284 224.185 226.267 224.185 225.95C224.185 225.761 224.277 225.403 224.39 225.157C224.549 224.809 224.549 224.634 224.39 224.38C224.277 224.2 224.185 223.932 224.185 223.785C224.185 223.487 225.427 222.859 226.028 222.853C226.478 222.849 226.467 222.923 226.226 221.541C226.074 220.67 225.906 220.312 225.354 219.686C224.391 218.593 224.111 218.633 222.2 220.132C221.124 220.977 220.13 222.151 219.318 223.534C218.73 224.537 217.841 226.389 217.841 226.613C217.841 226.89 218.408 226.819 219.366 226.421C220.988 225.748 220.596 226.473 218.842 227.389C217.667 228.002 216.265 228.187 215.643 227.809C215.1 227.479 213.546 225.621 212.284 223.791C211.214 222.241 210.439 221.43 209.244 220.612C207.882 219.68 206.994 219.345 206.533 219.591C205.607 220.086 203.447 223.64 202.417 226.36C202.203 226.925 201.931 227.619 201.811 227.901C201.565 228.484 201.391 229.259 200.851 232.183C200.547 233.827 200.469 234.905 200.458 237.577C200.442 241.906 200.603 242.704 201.699 243.683L202.496 244.394L203.062 243.967C203.377 243.729 203.744 243.585 203.892 243.642C204.118 243.729 204.093 243.852 203.727 244.476C203.186 245.399 202.909 246.838 203.123 247.614C203.298 248.246 203.175 248.601 202.598 249.122C202.022 249.642 202.11 251.047 202.852 253.176C203.627 255.397 204.066 256.262 206.412 260.179C207.458 261.923 208.548 263.89 208.837 264.549C209.493 266.049 209.574 266.176 209.879 266.176C210.036 266.176 210.126 265.999 210.126 265.688L210.128 265.688ZM213.985 253.781C213.608 253.662 212.787 253.241 212.161 252.845C210.952 252.083 209.417 250.572 209.74 250.465C209.977 250.386 214.348 252.659 214.9 253.149C215.651 253.815 215.161 254.154 213.985 253.781ZM205.314 249.95C205.408 249.785 205.68 249.469 205.92 249.247C206.16 249.026 206.356 248.775 206.356 248.691C206.356 248.422 206.829 248.526 206.941 248.819C207.001 248.974 207.028 249.112 207.002 249.127C206.975 249.142 206.736 249.248 206.467 249.363C206.198 249.479 205.938 249.726 205.89 249.912C205.84 250.1 205.656 250.25 205.472 250.25C205.208 250.25 205.177 250.191 205.314 249.95ZM211.428 230.366C211.175 230.167 210.499 229.3 209.925 228.439C209.352 227.578 208.647 226.625 208.359 226.32C207.799 225.727 207.818 225.487 208.411 225.675C209.091 225.89 209.952 226.816 210.459 227.876C210.736 228.455 211.238 229.25 211.574 229.641C212.456 230.67 212.369 231.105 211.428 230.366ZM218.358 230.213C218.499 230.122 218.73 230.052 218.872 230.057C219.042 230.063 219.012 230.116 218.786 230.213C218.315 230.416 218.044 230.416 218.358 230.213ZM212.558 227.901C210.845 226.614 209.737 225.418 210.258 225.418C210.379 225.418 213.68 228.057 214.237 228.599C214.456 228.813 214.445 228.843 214.15 228.843C213.964 228.843 213.248 228.419 212.558 227.901ZM215.73 265.389C215.888 264.978 215.476 264.812 214.294 264.809C212.856 264.805 212.387 264.571 212.265 263.796C212.038 262.363 211.8 261.724 211.493 261.724C211.213 261.724 211.205 261.791 211.404 262.537C211.738 263.796 212.321 264.946 212.744 265.182C213.069 265.363 214.014 265.53 215.32 265.638C215.488 265.652 215.672 265.539 215.73 265.389ZM218.743 265.382C219.098 265.282 219.127 265.089 218.824 264.838C218.567 264.625 216.794 264.522 216.501 264.703C216.39 264.771 216.3 265.022 216.3 265.261C216.3 265.693 216.308 265.695 217.371 265.582C217.961 265.518 218.578 265.429 218.743 265.382ZM266.879 261.311C267.999 261.038 269.814 260.254 270 259.962C270.072 259.848 270.133 259.539 270.134 259.275C270.134 259.011 270.252 258.573 270.393 258.3C270.555 257.987 270.587 257.766 270.479 257.699C270.251 257.558 269.966 257.748 269.966 258.042C269.966 258.468 269.603 258.514 269.247 258.132C268.942 257.805 268.789 257.773 268.034 257.877L267.17 257.996L267.272 257.131C267.329 256.656 267.53 255.964 267.719 255.593L268.063 254.919L267.643 254.349C267.412 254.036 267.222 253.703 267.222 253.61C267.222 253.517 267.071 253.279 266.885 253.082C266.54 252.715 266.376 251.847 266.587 251.506C266.786 251.184 266.327 250.965 264.688 250.601C262.992 250.224 261.648 250.147 261.48 250.418C261.423 250.51 261.512 250.968 261.678 251.435C261.966 252.246 261.966 252.298 261.678 252.618C261.386 252.94 261.394 252.995 261.872 254.042C262.146 254.641 262.646 255.458 262.983 255.858C263.32 256.259 263.647 256.819 263.71 257.104C263.774 257.397 264.079 257.826 264.41 258.089C265.118 258.654 265.148 258.935 264.524 259.171C263.842 259.428 263.281 260.011 263.281 260.459C263.281 260.92 263.414 261.016 264.459 261.304C265.486 261.586 265.747 261.587 266.881 261.311L266.879 261.311ZM210.829 259.67C210.29 258.251 209.27 256.678 209.27 257.265C209.27 257.498 210.231 259.624 210.569 260.14C211.015 260.821 211.165 260.551 210.829 259.67ZM198.553 259.094C199.395 258.841 199.606 258.302 198.867 258.293C198.255 258.285 197.844 258.05 196.879 257.158C195.632 256.004 195.554 255.829 195.556 254.193C195.56 251.908 196.402 249.767 197.852 248.363C198.641 247.6 198.872 246.996 198.376 246.996C197.866 246.996 196.698 247.721 195.863 248.555C193.458 250.957 192.958 255.914 194.909 258.008C196.053 259.237 197.071 259.54 198.553 259.094ZM166.945 258.78C167.221 258.344 167.086 257.937 166.568 257.649C165.127 256.848 164.987 256.737 165.182 256.542C165.288 256.436 165.617 256.345 165.914 256.339C166.627 256.326 167.107 255.678 167.207 254.594C167.341 253.148 167.428 252.968 168.537 251.883L169.62 250.822L169.701 249.637C169.745 248.985 169.751 248.366 169.713 248.261C169.51 247.691 167.951 247.515 166.712 247.922C166.308 248.055 165.726 248.215 165.42 248.278C164.788 248.409 164.791 248.401 165.065 249.159C165.266 249.713 165.255 249.732 163.967 251.078C163.252 251.826 162.537 252.636 162.378 252.878C162.024 253.419 162.141 254.09 162.729 254.886C163.501 255.932 163.113 256.239 161.985 255.473C161.267 254.986 160.405 254.896 160.405 255.309C160.405 255.979 162.298 257.633 164.317 258.727C165.045 259.122 166.706 259.156 166.945 258.78ZM237.32 258.671C238.707 257.666 239.438 255.97 239.444 253.745C239.448 252.217 238.584 249.915 237.706 249.111C237.064 248.524 234.839 247.465 234.511 247.591C234.274 247.681 234.363 247.818 234.99 248.33C236.798 249.805 237.704 251.211 238.082 253.127C238.342 254.448 238.135 255.079 236.776 257.12C236.265 257.887 235.846 258.608 235.846 258.721C235.846 259.312 236.465 259.291 237.32 258.671ZM171.384 256.937C172.329 256.593 173.072 256.149 174.126 255.299C175.921 253.851 178.488 252.182 180.679 251.037C182.303 250.189 182.626 249.878 182.095 249.674C181.645 249.502 181.812 249.092 182.773 248.017C183.919 246.734 184.557 246.243 187.5 244.372C188.771 243.565 190.218 242.545 190.717 242.105C191.559 241.364 192.467 239.962 192.467 239.405C192.467 238.761 187.699 237.073 185.86 237.066C184.155 237.06 181.541 238.135 179.463 239.698C178.836 240.17 177.082 241.6 175.566 242.877C174.049 244.153 172.523 245.429 172.174 245.712L171.538 246.226L171.9 247.159C172.223 247.996 172.238 248.174 172.043 248.872C171.802 249.734 171.138 250.971 170.013 252.652C168.817 254.443 168.467 255.324 168.465 256.563V257.653L169.278 257.531C169.724 257.464 170.673 257.197 171.386 256.937H171.384ZM215.065 257.014C215.092 256.99 215.131 256.758 215.151 256.499C215.182 256.091 215.09 255.992 214.469 255.762C213.877 255.543 213.705 255.536 213.483 255.72C212.982 256.136 213.282 256.863 214.071 257.148C214.293 257.228 214.913 257.144 215.065 257.014ZM261.736 257.217C261.736 256.825 261.066 255.144 260.54 254.217C259.726 252.783 259.163 251.175 259.167 250.298C259.167 249.906 259.371 249.286 259.681 248.724C259.963 248.215 260.193 247.78 260.193 247.759C260.193 247.695 256.446 244.572 254.963 243.4C253.395 242.16 250.358 240.124 249.22 239.549C248.043 238.954 246.602 238.717 244.933 238.842C242.349 239.036 239.747 239.783 239.51 240.4C239.343 240.835 240.106 242.196 241.023 243.096C241.719 243.78 242.676 244.375 245.104 245.638L248.276 247.287L248.198 248.805L249.436 249.188C251.958 249.97 254.113 251.235 254.814 252.344C255.665 253.692 257.834 255.504 259.933 256.623C260.953 257.166 261.733 257.424 261.733 257.217H261.736ZM217.805 256.834C218.218 256.545 218.317 255.936 217.972 255.816C217.854 255.775 217.488 255.8 217.158 255.871C216.513 256.011 216.297 256.427 216.65 256.852C216.917 257.173 217.328 257.167 217.805 256.834ZM220.199 255.559C220.279 255.092 219.968 254.82 219.49 254.94C219.061 255.047 218.883 255.514 219.165 255.795C219.376 256.005 220.153 255.828 220.199 255.559ZM212.7 255.633C212.7 255.364 212.315 254.874 212.104 254.874C211.747 254.874 211.612 255.196 211.848 255.481C212.046 255.719 212.7 255.836 212.7 255.633ZM233.145 249.626C233.91 249.5 233.944 249.318 233.325 248.673C232.903 248.232 232.877 248.132 233.036 247.539C233.131 247.181 233.179 246.797 233.142 246.685C233.066 246.46 232.442 246.417 232.129 246.616C231.848 246.795 230.874 248.678 230.874 249.043C230.874 249.602 231.82 249.845 233.145 249.626ZM201.029 249.062C201.237 248.931 201.219 248.794 200.915 248.166C200.312 246.922 200.121 246.429 199.929 245.626L199.746 244.856L198.872 244.908C198.205 244.949 197.974 244.898 197.896 244.694C197.748 244.308 197.049 244.339 197.156 244.727C197.201 244.892 197.287 245.316 197.347 245.669C197.44 246.219 197.522 246.314 197.919 246.332C198.174 246.343 198.455 246.338 198.543 246.321C198.923 246.248 199.502 246.513 199.677 246.84C199.823 247.113 199.804 247.325 199.596 247.763C199.242 248.508 199.238 248.489 199.883 248.882C200.505 249.261 200.673 249.287 201.029 249.062ZM264.102 246.468C264.498 246.177 264.822 245.842 264.822 245.722C264.822 245.272 263.914 241.923 263.659 241.431L263.393 240.917L263.278 241.345C263.214 241.58 263.111 242.622 263.048 243.66C262.986 244.698 262.86 245.807 262.769 246.125C262.471 247.162 262.979 247.292 264.102 246.468ZM234.234 246.389C234.362 245.881 234.254 245.715 233.882 245.857C233.537 245.989 233.528 246.825 233.87 246.825C234.01 246.825 234.174 246.629 234.234 246.389ZM170.864 241.092C170.864 240.962 170.718 240.099 170.538 239.174C170.359 238.249 170.159 237.165 170.095 236.765C169.959 235.922 169.699 235.679 169.43 236.14C168.876 237.092 168.205 240.202 168.396 240.933C168.476 241.24 168.633 241.286 169.676 241.305C170.581 241.322 170.864 241.271 170.864 241.092ZM231.164 240.305C231.409 239.603 231.453 237.809 231.23 237.671C231.092 237.586 230.128 238.631 229.776 239.247C229.668 239.435 229.968 240.149 230.426 240.794C230.666 241.132 230.938 240.951 231.164 240.305ZM259.592 240.189C260.479 238.994 261.42 237.027 261.517 236.166C261.609 235.349 261.408 234.86 259.88 232.183C259.053 230.735 257.441 228.451 257.095 228.237C256.94 228.142 256.915 228.339 256.993 229.033C257.049 229.541 257.18 231.151 257.282 232.611C257.723 238.869 257.767 239.254 258.147 240.136C258.352 240.613 258.626 241.002 258.755 241.002C258.883 241.002 259.26 240.636 259.592 240.189ZM209.689 239.575C210.294 238.783 210.416 238.041 210.039 237.451C209.637 236.82 208.912 236.221 208.542 236.213C208.093 236.205 208.175 236.475 208.842 237.212C209.492 237.932 209.563 238.287 209.185 238.947C208.904 239.437 208.848 240.146 209.09 240.146C209.18 240.146 209.449 239.889 209.689 239.575ZM204.812 238.428C204.812 237.245 205.14 237.152 206.075 238.068C206.805 238.784 207.384 238.986 207.384 238.524C207.384 238.265 205.754 235.766 205.471 235.591C205.201 235.425 204.104 236.39 203.838 237.028C203.431 237.999 203.849 239.29 204.568 239.29C204.747 239.29 204.812 239.061 204.812 238.428ZM225.688 238.303C225.78 238.028 224.654 236.892 224.29 236.892C223.802 236.892 223.972 237.663 224.569 238.157C225.138 238.628 225.561 238.683 225.688 238.303ZM228.302 238.004C228.302 237.172 227.058 235.522 226.432 235.522C226.146 235.522 226.197 235.651 226.802 236.458C227.108 236.867 227.49 237.44 227.651 237.732C227.96 238.294 228.302 238.436 228.302 238.004ZM241.966 235.34C242.184 234.64 242.564 232.989 242.81 231.671C243.208 229.545 243.248 228.985 243.169 226.704C243.111 225.043 242.953 223.558 242.723 222.507C242.526 221.612 242.365 220.864 242.364 220.844C242.356 220.709 240.76 220.442 239.018 220.284C237.084 220.107 235.16 220.182 235.16 220.432C235.16 220.494 235.349 220.821 235.579 221.159C236.456 222.448 237.734 225.259 238.568 227.73C239.357 230.069 240.647 234.774 240.647 235.313C240.647 235.761 241.163 236.749 241.362 236.683C241.476 236.645 241.748 236.041 241.966 235.34ZM251.753 235.993C252.129 235.534 252.815 233.555 253.147 231.966C254.541 225.301 254.444 225.964 254.087 225.564C252.827 224.155 246.564 220.945 245.515 221.17C245.335 221.209 245.542 221.746 246.291 223.197C247.549 225.632 248.375 227.661 249.034 229.93C249.656 232.072 250.153 233.21 250.602 233.524C250.889 233.725 250.926 233.881 250.832 234.47C250.646 235.635 251.24 236.619 251.753 235.993ZM176.347 235.16C175.949 233.72 175.876 227.882 176.244 226.96C176.301 226.818 176.276 226.593 176.192 226.459C176.059 226.251 175.98 226.253 175.637 226.478C174.893 226.966 173.762 228.237 172.849 229.614C171.175 232.139 170.907 232.964 171.491 233.796C171.647 234.018 171.824 234.44 171.884 234.733C171.993 235.264 171.997 235.265 173.186 235.291C173.901 235.307 174.757 235.457 175.322 235.665C175.841 235.856 176.321 235.958 176.39 235.891C176.459 235.824 176.44 235.495 176.347 235.16ZM227.465 234.216C227.947 234.553 228.793 234.582 228.915 234.265C228.964 234.139 228.835 233.587 228.63 233.038C228.287 232.123 228.279 232.024 228.536 231.836C229.005 231.494 228.855 231.113 228.028 230.544L227.24 230.003L226.772 230.493C226.515 230.763 226.137 231.118 225.932 231.282C225.686 231.478 225.558 231.771 225.558 232.138C225.558 232.445 225.399 232.957 225.205 233.274C224.803 233.932 224.865 234.266 225.426 234.48C225.709 234.588 225.988 234.534 226.441 234.283C227.026 233.96 227.093 233.956 227.465 234.216ZM230.702 232.621C230.702 231.967 230.627 231.386 230.535 231.329C230.343 231.211 229.33 231.905 229.33 232.154C229.33 232.462 230.273 233.809 230.488 233.809C230.639 233.81 230.702 233.458 230.702 232.621ZM183.883 229.723C183.977 229.547 184.179 228.795 184.332 228.053C184.608 226.715 185.275 224.829 186.285 222.53C186.962 220.991 186.957 220.923 186.18 221.068C185.203 221.251 181.551 222.777 180.27 223.537C178.919 224.339 178.466 224.849 178.507 225.526C178.522 225.796 178.546 226.186 178.558 226.391C178.602 227.133 179.048 227.351 180.283 227.232L181.409 227.123L182.077 228.369C182.445 229.054 182.82 229.71 182.913 229.828C183.16 230.145 183.687 230.088 183.883 229.723ZM194.294 227.717C194.551 225.492 195.095 223.257 195.729 221.814C196.557 219.928 196.319 219.767 192.706 219.767C190.261 219.767 190.216 219.774 189.778 220.212C189.336 220.653 189.333 220.671 189.434 222.652C189.545 224.825 189.731 225.69 190.206 226.237C190.881 227.014 193.764 229.52 193.925 229.47C194.019 229.44 194.185 228.651 194.294 227.717ZM232.853 227.409C232.912 227.091 232.935 225.569 232.903 224.027C232.859 221.943 232.778 221.106 232.588 220.768C232.447 220.517 231.29 219.246 230.019 217.943C228.343 216.225 227.69 215.655 227.648 215.873C227.617 216.039 227.741 216.424 227.925 216.729C228.406 217.524 229.742 220.931 230.878 224.258C232.138 227.946 232.611 228.699 232.853 227.409ZM201.107 226.006C201.164 225.858 201.367 224.97 201.558 224.032C201.946 222.134 202.577 220.023 203.211 218.509C203.442 217.958 203.607 217.392 203.579 217.251C203.498 216.855 202.701 217.558 201.907 218.725C201.195 219.773 200.232 220.71 199.723 220.85C199.552 220.897 199.122 220.985 198.769 221.044C198.415 221.104 198.126 221.186 198.126 221.227C198.126 221.268 198.399 221.729 198.734 222.251C199.432 223.341 199.913 224.402 200.096 225.254C200.3 226.208 200.867 226.63 201.107 226.006ZM211.765 220.548C211.916 220.318 212.226 219.605 212.454 218.964C213.041 217.311 214.449 211.885 214.354 211.639C214.246 211.357 212.872 211.561 211.721 212.029C210.098 212.689 207.714 213.951 207.618 214.201C207.527 214.438 207.854 215.104 209.132 217.284C210.01 218.782 210.252 219.246 210.628 220.152C211.006 221.062 211.35 221.182 211.765 220.548ZM222.309 218.868C223.124 218.028 224.03 216.025 224.139 214.825L224.231 213.807L223.566 213.368C222.246 212.496 218.043 211.274 217.671 211.654C217.589 211.738 217.829 212.516 218.217 213.423C218.975 215.194 219.266 215.714 219.834 216.305C220.232 216.72 221.018 218.266 221.201 218.992C221.346 219.572 221.66 219.537 222.309 218.868ZM173.188 330.272C172.623 330.128 171.604 329.412 171.248 328.907C170.606 327.999 170.043 326.709 169.317 324.487C168.917 323.263 168.289 321.589 167.92 320.768C167.551 319.946 167.105 318.674 166.929 317.942C165.842 313.427 165.534 312.038 165.397 311.04C165.067 308.647 164.594 307.911 163.021 307.35C161.495 306.807 161.101 307.035 159.655 309.3C158.703 310.792 158.425 311.703 158.589 312.797C158.695 313.5 158.821 313.687 159.601 314.306C160.846 315.295 160.949 315.536 160.575 316.599C159.613 319.34 158.106 321.472 156.077 322.965C154.066 324.443 152.725 324.5 150.799 323.186C149.326 322.182 149.349 322.723 150.477 315.861C151.105 312.046 151.25 311.456 152.161 309.011C153.221 306.164 153.719 304.422 153.719 303.554C153.719 303.05 153.356 302.482 153.034 302.482C152.643 302.482 151.347 303.708 150.89 304.51C150.607 305.007 149.83 306.199 149.163 307.159C147.755 309.186 147.654 309.406 147.909 309.883C148.16 310.352 149.655 312.314 149.816 312.385C150.15 312.535 149.079 314.034 147.048 316.26C146.426 316.941 145.507 317.974 145.005 318.555C144.174 319.518 142.777 320.598 141.529 321.243C140.774 321.633 139.986 321.547 139.087 320.977C138.641 320.695 138.221 320.461 138.153 320.458C137.932 320.447 137.136 319.701 136.938 319.319C136.408 318.294 136.833 316.178 138.06 313.731C138.58 312.693 139.182 311.149 139.43 310.22C139.915 308.398 140.679 306.76 142.32 304.023C143.485 302.081 144.572 299.796 144.408 299.633C144.353 299.578 143.903 299.629 143.41 299.747C142.622 299.936 142.293 300.173 140.701 301.703C139.191 303.152 138.573 303.61 137.002 304.443C135.965 304.994 134.769 305.633 134.345 305.864L133.573 306.283L134.087 305.822C135.273 304.758 136.789 303.233 136.939 302.953C137.137 302.584 137.431 302.561 137.431 302.916C137.431 303.06 137.553 303.225 137.703 303.282C137.891 303.354 138.437 302.935 139.46 301.934C141.318 300.118 142.294 299.431 144.031 298.719C144.786 298.41 145.556 298.052 145.741 297.922C146.213 297.594 146.459 297.626 147.086 298.097C147.387 298.322 148.34 298.859 149.205 299.291C150.07 299.722 150.819 300.142 150.871 300.225C150.966 300.379 149.39 301.712 148.128 302.544C147.741 302.8 147.34 303.192 147.238 303.417C146.995 303.95 147.246 304.873 147.823 305.556C148.298 306.12 148.271 306.521 147.721 307.017C147.411 307.298 146.888 307.412 145.796 307.438C145.338 307.448 144.629 308.024 144.635 308.38C144.638 308.666 146.451 309.387 146.746 309.219C147.432 308.831 150.755 304.344 151.397 302.94C151.619 302.453 151.993 301.825 152.226 301.545L152.65 301.036L153.57 301.817C154.901 302.947 155.707 303.437 157.062 303.943C158.314 304.409 159.71 305.149 159.733 305.358C159.741 305.425 159.772 305.606 159.801 305.761C159.84 305.956 159.698 306.074 159.34 306.146C158.807 306.252 156.476 308.523 156.467 308.945C156.463 309.061 156.777 309.364 157.161 309.618C158.026 310.19 158.076 310.163 159.983 308.138C161.285 306.753 161.386 306.684 162.161 306.634C162.691 306.6 163.227 306.696 163.704 306.911C164.106 307.092 165.005 307.377 165.702 307.544C166.793 307.807 167.079 307.819 167.76 307.63C168.194 307.51 168.665 307.4 168.807 307.387C169.27 307.343 169.177 308.06 168.558 309.292C168.106 310.192 167.95 310.721 167.95 311.352C167.95 312.869 168.098 313.223 169.043 313.974C170.283 314.959 170.341 315.117 169.661 315.671C169.115 316.116 169.1 316.163 169.195 317.091C169.28 317.906 169.905 319.613 170.743 321.32C170.859 321.555 171.292 321.911 171.706 322.11L172.458 322.471L171.34 323.289L171.426 324.745C171.529 326.488 172.03 327.927 172.826 328.771C173.471 329.453 173.746 329.503 174.317 329.041C174.963 328.518 174.863 326.629 174.045 323.889C173.427 321.823 172.949 318.689 173.165 318.128C173.222 317.978 173.424 317.894 173.65 317.926C173.982 317.973 174.033 318.077 174.013 318.666C173.961 320.17 174.306 322.445 174.879 324.376C175.211 325.495 175.533 326.731 175.596 327.122C175.747 328.063 175.311 329.193 174.534 329.875C173.94 330.395 173.817 330.432 173.188 330.272ZM154.575 323.204C155.507 322.734 156.805 321.657 156.805 321.353C156.805 321.283 156.246 321.137 155.562 321.028C153.929 320.767 152.176 319.97 152.176 319.487C152.176 319.249 153.433 316.846 153.927 316.139C154.248 315.68 154.804 315.515 154.994 315.822C155.046 315.907 155.687 316.189 156.419 316.45C157.15 316.71 157.902 317.055 158.091 317.216C158.593 317.646 159.19 317.925 159.369 317.814C159.616 317.662 160.097 315.828 159.996 315.426C159.946 315.227 159.65 314.817 159.339 314.516C158.89 314.082 158.575 313.945 157.81 313.856C156.895 313.748 156.818 313.769 156.286 314.277C155.835 314.707 155.58 314.812 154.986 314.812C154.34 314.812 154.157 314.905 153.543 315.54C153.157 315.94 152.606 316.676 152.32 317.174C152.034 317.673 151.577 318.245 151.305 318.445C150.7 318.892 150.471 319.544 150.441 320.905C150.417 321.96 150.641 322.636 151.116 322.947C152.542 323.881 153.143 323.926 154.575 323.204ZM139.689 319.931C140.517 319.4 140.525 319.399 141.634 319.608C142.737 319.816 142.754 319.813 143.39 319.331C144.335 318.615 145.489 317.531 145.489 317.359C145.489 317.277 145.27 317.21 145.001 317.21C144.213 317.21 142.611 316.581 141.703 315.915C140.791 315.246 140.615 314.687 141.111 314.032C141.724 313.222 141.311 313.257 140.239 314.104C139.779 314.468 139.158 314.89 138.859 315.043C138.036 315.463 137.608 316.192 137.459 317.426C137.303 318.721 137.448 319.392 138.02 320.008C138.555 320.585 138.677 320.579 139.689 319.931ZM157.993 319.421C158.431 318.642 158.4 318.579 157.359 318.178C156.956 318.022 156.339 317.714 155.987 317.492C154.874 316.79 154.678 316.787 154.351 317.471C153.885 318.447 153.965 318.9 154.656 319.188C154.983 319.324 155.389 319.436 155.559 319.436C155.729 319.436 156.136 319.586 156.465 319.769C157.332 320.252 157.554 320.201 157.993 319.421ZM146.611 315.198C146.936 314.844 147.202 314.431 147.203 314.279C147.203 314.123 146.624 313.622 145.875 313.13C145.144 312.65 144.372 312.129 144.16 311.973C143.847 311.741 143.726 311.728 143.515 311.903C143.237 312.133 142.574 313.519 142.574 313.869C142.574 313.985 142.911 314.209 143.324 314.367C143.736 314.524 144.449 314.92 144.909 315.246C145.369 315.573 145.807 315.84 145.883 315.84C145.959 315.84 146.287 315.551 146.611 315.198ZM148.574 312.931C148.828 312.457 148.28 311.43 147.35 310.635C146.209 309.659 145.083 309.865 145.581 310.959C145.863 311.581 146.047 311.799 146.99 312.629C147.803 313.345 148.301 313.44 148.574 312.931ZM157.546 311.773C157.638 310.951 157.616 310.873 157.298 310.873C156.842 310.873 155.906 311.816 155.98 312.2C156.039 312.509 157.149 312.985 157.34 312.784C157.399 312.722 157.492 312.267 157.546 311.773ZM251.961 328.298C251.07 326.84 251.301 325.529 253.355 320.379L254.106 318.496L254.158 319.308C254.198 319.934 254.067 320.463 253.585 321.619C252.904 323.252 252.313 325.509 252.318 326.457C252.322 326.988 252.481 327.566 252.901 328.555C253.144 329.128 252.332 328.906 251.961 328.298ZM287.968 318.198C287.968 318.067 287.737 317.788 287.454 317.579C287.083 317.306 286.939 317.058 286.939 316.691C286.939 316.015 287.249 316.038 288.14 316.782C288.535 317.111 288.922 317.342 289.001 317.293C289.079 317.245 289.237 316.923 289.351 316.577C289.554 315.961 289.547 315.94 288.902 315.424C288.541 315.135 287.972 314.602 287.637 314.24C287.078 313.638 286.973 313.592 286.366 313.689C286.001 313.747 285.484 313.908 285.216 314.047C284.947 314.185 284.492 314.299 284.205 314.299C283.357 314.299 283.499 313.635 284.582 312.535C285.077 312.032 285.667 311.416 285.893 311.166L286.304 310.713L285.684 310.029C285.344 309.653 284.86 309.019 284.609 308.622C284.18 307.943 284.138 307.919 283.917 308.22C283.788 308.397 283.682 308.673 283.682 308.833C283.682 309.258 283.218 309.367 282.651 309.074C281.998 308.737 281.932 308.744 280.827 309.266L279.881 309.713L279.281 309.138C278.346 308.239 276.652 305.615 276.652 305.064C276.652 304.732 276.971 304.195 277.687 303.319C278.713 302.064 278.718 302.052 278.367 301.765C278.105 301.551 278.041 301.362 278.122 301.039C278.201 300.724 278.153 300.572 277.956 300.496C277.566 300.346 277.614 299.947 278.1 299.311C278.33 299.01 278.83 298.09 279.21 297.268L279.901 295.773L279.559 295.103C279.097 294.198 278.669 294.217 278.302 295.161C277.893 296.213 276.371 298.159 275.28 299.027C274.005 300.04 271.124 301.631 270.917 301.436C270.828 301.352 270.151 301.283 269.413 301.283C268.303 301.283 267.963 301.352 267.433 301.685C266.412 302.326 264.086 302.989 263.902 302.691C263.709 302.379 264.317 301.826 264.977 301.714C265.686 301.595 266.304 301.087 266.114 300.78C265.93 300.483 265.449 300.569 264.244 301.114C262.018 302.123 260.193 302.318 260.193 301.549C260.193 301.227 260.401 301.098 261.557 300.707C262.308 300.453 263.521 299.94 264.253 299.566C264.985 299.192 265.675 298.886 265.786 298.886C265.898 298.886 266.479 298.61 267.077 298.274C268.179 297.654 268.728 297.136 269.206 296.265C269.351 296.001 269.62 295.635 269.803 295.452C270.212 295.043 270.237 294.604 269.852 294.604C269.696 294.604 268.84 294.996 267.95 295.475C266.444 296.287 266.213 296.358 264.591 296.512C262.486 296.712 261.736 296.613 261.736 296.134C261.736 295.823 261.873 295.733 262.89 295.376C263.372 295.208 262.859 294.84 261.887 294.655C259.945 294.286 257.621 292.781 257.621 291.891C257.621 291.43 257.794 291.429 258.688 291.884C259.797 292.449 261.403 292.926 261.833 292.818C262.091 292.754 262.261 292.546 262.336 292.207C262.416 291.84 262.58 291.658 262.907 291.573C263.507 291.415 264.542 291.425 265.538 291.597C266.748 291.807 267.159 291.643 267.342 290.881L267.497 290.237H268.61C269.573 290.237 269.799 290.174 270.286 289.766C270.596 289.507 271.055 289.293 271.307 289.29L271.766 289.284L271.318 288.904C271.071 288.695 270.628 288.393 270.332 288.233C269.652 287.864 269.615 287.409 270.266 287.417C270.525 287.421 270.928 287.529 271.162 287.658C271.523 287.858 271.657 287.857 272.054 287.652C272.31 287.519 272.736 287.411 273 287.41C273.264 287.41 273.677 287.306 273.918 287.181C274.158 287.056 274.839 286.903 275.432 286.841C276.025 286.779 276.581 286.685 276.667 286.631C276.754 286.578 276.776 286.23 276.717 285.859C276.613 285.214 276.629 285.185 277.071 285.185C277.326 285.185 277.875 285.384 278.292 285.628C279.145 286.128 280.064 286.113 280.867 285.588C281.167 285.392 281.685 285.292 282.446 285.283C283.49 285.271 283.597 285.304 283.796 285.698C284.035 286.172 284.305 286.216 288.577 286.477C290.86 286.617 291.68 286.414 292.182 285.587C292.316 285.366 292.547 284.987 292.695 284.745L292.963 284.306L293.699 284.983C294.648 285.857 294.829 285.947 296.492 286.371C298.543 286.894 301.441 286.871 302.961 286.32C306.058 285.197 307.203 282.643 305.452 280.766C305.19 280.486 305.021 280.441 304.646 280.551C303.783 280.805 301.113 281.96 300.197 282.476C298.896 283.21 298.608 283.11 298.145 281.764C297.695 280.457 297.756 280.331 298.969 280.04C299.917 279.813 300.134 279.929 300.139 280.668C300.143 281.161 300.537 281.454 301.025 281.327C301.703 281.152 303.31 280.125 303.367 279.832C303.407 279.624 303.258 279.54 302.767 279.495L302.113 279.435L302.616 279.22C303.291 278.93 304.475 278.78 305.013 278.915C305.357 279.001 305.618 279.362 306.226 280.592C306.652 281.455 307 282.341 307 282.563C307 283.56 304.901 285.882 303.244 286.718C301.839 287.426 300.059 287.872 298.051 288.019C296.602 288.126 296.29 288.092 294.965 287.689C293.287 287.177 292.595 287.142 291.14 287.493C290.526 287.641 289.222 287.744 287.903 287.747L285.695 287.753L285.811 288.481C286.064 290.081 287.767 291.823 292.542 295.367C295.762 297.756 297.765 300.449 298.349 303.175C298.682 304.722 298.655 305.327 298.218 306.202C297.826 306.985 297.194 307.447 296.517 307.447C296.183 307.447 296.167 307.419 296.396 307.233C296.854 306.861 297.398 305.799 297.398 305.277C297.398 304.391 297.039 304.108 295.911 304.108C294.973 304.108 294.909 304.082 294.861 303.68C294.785 303.034 294.466 302.312 294.248 302.29C293.718 302.236 293.293 302.409 292.059 303.181C290.388 304.227 290.132 304.257 290.318 303.38C290.393 303.027 290.441 302.103 290.425 301.326C290.401 300.227 290.299 299.706 289.965 298.977C289.092 297.073 287.174 295.117 286.179 295.117C285.752 295.117 285.866 295.359 286.455 295.707C287.796 296.498 289.34 298.316 289.34 299.104C289.34 299.701 288.448 300.844 287.774 301.109C286.49 301.615 285.754 301.976 285.643 302.156C285.458 302.456 288.267 305.076 289.425 305.683C291.062 306.541 293.971 307.446 295.118 307.454L296.112 307.461L295.611 307.732C294.783 308.18 293.282 307.957 291.655 307.145C290.9 306.768 289.712 306.299 289.015 306.103C287.413 305.654 286.66 305.155 285.717 303.919C285.305 303.378 284.871 302.905 284.754 302.866C284.329 302.726 284.556 303.303 285.449 304.635C286.677 306.466 287.313 307.621 287.973 309.217C288.277 309.955 289.059 311.363 289.71 312.346C291.181 314.566 291.295 314.85 291.038 315.65C290.661 316.829 289.838 317.592 288.097 318.378C288.026 318.41 287.968 318.33 287.968 318.198ZM280.358 307.106C280.768 306.729 281.529 306.212 282.049 305.957C282.57 305.702 282.996 305.388 282.996 305.259C282.996 304.836 281.552 303.147 280.902 302.811C280.209 302.452 279.381 302.386 278.887 302.65C278.713 302.743 278.326 303.129 278.025 303.508L277.479 304.197L277.782 305.162C278.049 306.008 279.219 307.791 279.509 307.791C279.567 307.791 279.949 307.483 280.358 307.106ZM283.363 303.291C283.038 302.766 282.136 302.14 282.141 302.443C282.145 302.637 283.541 304.05 283.636 303.955C283.683 303.908 283.56 303.61 283.363 303.291ZM285.548 299.332C286.101 298.824 286.795 298.356 287.09 298.291C287.926 298.107 287.784 297.825 286.261 296.65C284.956 295.643 283.346 295.915 282.709 297.25C282.45 297.793 282.455 297.865 282.805 298.569C283.088 299.139 284.08 300.12 284.498 300.243C284.521 300.25 284.995 299.84 285.548 299.332ZM271.851 295.387C271.851 295.045 271.394 294.929 271.159 295.212C271.047 295.346 271.002 295.576 271.058 295.723C271.139 295.933 271.234 295.95 271.506 295.805C271.696 295.703 271.851 295.515 271.851 295.387ZM272.452 293.606C272.452 293.296 272.116 293.352 272.049 293.673C272.01 293.852 272.077 293.93 272.221 293.882C272.348 293.84 272.452 293.715 272.452 293.606ZM172.954 316.225C172.844 315.684 172.671 314.855 172.569 314.384C172.464 313.902 172.369 311.36 172.352 308.562C172.325 304.103 172.289 303.536 172.007 303.019C171.551 302.183 171.89 301.909 172.572 302.561L173.082 303.05L173.406 302.295C173.584 301.88 173.789 301.348 173.862 301.112C174.017 300.609 174.589 299.596 175.634 297.971C176.591 296.483 177.943 293.607 178.326 292.244C178.526 291.533 178.584 290.946 178.506 290.425C178.359 289.452 176.897 286.479 176.199 285.733C175.427 284.91 174.061 284.351 172.298 284.137C171.462 284.035 170.648 283.882 170.49 283.798C170.331 283.713 169.736 283.644 169.167 283.644C167.815 283.644 163.001 284.433 161.711 284.866C159.87 285.484 159.756 284.997 161.379 283.45C163.344 281.578 164.016 280.833 164.124 280.407C164.303 279.7 164.033 275.885 163.747 275.076C163.385 274.052 162.611 273.285 161.238 272.59C159.83 271.877 156.715 271.206 155.238 271.297C154.906 271.317 154.486 272.28 154.316 273.411C154.25 273.85 154.106 274.333 153.996 274.484C153.709 274.875 153.276 274.644 153.092 274.001C152.885 273.279 152.239 273.142 152.078 273.786C151.937 274.345 151.771 274.338 151 273.743C150.233 273.15 149.053 272.725 148.166 272.72C147.799 272.72 147.323 272.622 147.107 272.507C146.776 272.33 146.625 272.353 146.137 272.655C145.819 272.851 145.27 273.332 144.918 273.725C144.318 274.392 144.256 274.421 143.969 274.161C143.585 273.814 143.326 273.807 143.198 274.14C143.084 274.438 141.888 274.504 141.888 274.212C141.888 274.111 141.575 273.718 141.193 273.34C140.203 272.361 140.347 272.143 141.804 272.417C142.507 272.548 142.596 272.291 142.076 271.631C141.897 271.403 141.574 270.872 141.36 270.452C140.781 269.314 139.169 267.058 138.79 266.855C138.303 266.595 138.353 267.14 138.888 267.926C139.439 268.737 139.428 268.917 138.825 268.917C138.365 268.917 138.302 268.83 137.87 267.59C136.993 265.073 136.882 264.843 136.257 264.243C135.518 263.534 134.419 262.923 133.881 262.923C133.209 262.923 132.315 263.886 132.008 264.941C131.365 267.151 132.461 271.577 134.319 274.274C135.06 275.351 136.265 275.95 137.914 276.062C138.65 276.112 139.531 276.068 139.912 275.962C140.557 275.783 140.622 275.801 141.142 276.305C141.496 276.648 141.864 276.836 142.176 276.835C142.854 276.831 143.029 277.026 143.262 278.045C143.489 279.034 145.107 282.553 145.657 283.251C146.208 283.951 147.216 284.604 148.061 284.808C149.367 285.125 151.331 285.216 152.947 285.035C154.478 284.864 154.493 284.866 154.846 285.29C155.199 285.713 155.514 285.807 159.176 286.593C159.979 286.765 160.153 286.883 160.622 287.572C161.246 288.489 161.39 288.605 161.906 288.608C162.195 288.608 162.291 288.512 162.291 288.217C162.291 288 162.199 287.731 162.086 287.618C161.768 287.3 162.226 287.354 162.82 287.705C163.347 288.015 164.063 289.313 163.968 289.784C163.909 290.075 163.753 290.087 162.334 289.91L161.606 289.819V290.419C161.606 290.789 161.702 291.056 161.858 291.116C162.252 291.267 164.541 290.827 165.204 290.472C165.948 290.074 166.064 290.073 166.064 290.465C166.064 291.294 164.788 291.842 161.777 292.306C160.787 292.459 159.912 292.645 159.832 292.72C159.753 292.795 159.821 293.061 159.987 293.311C160.379 293.909 160.164 294.117 158.995 294.269C157.901 294.411 156.001 294.197 154.147 293.723C152.03 293.18 148.147 292.596 147.718 292.755C147.512 292.831 147.207 293.061 147.041 293.267C146.822 293.537 146.527 293.65 145.984 293.672C145.57 293.689 145.164 293.713 145.081 293.725C144.998 293.738 144.972 294.006 145.022 294.32C145.134 295.007 144.964 295.335 144.527 295.276C144.086 295.216 143.26 295.634 143.26 295.917C143.26 296.043 143.414 296.3 143.603 296.489C143.979 296.864 144.059 297.45 143.749 297.553C143.64 297.59 143.081 297.52 142.506 297.4C141.082 297.102 141.14 297.089 140.42 297.849C140.067 298.22 139.408 298.683 138.953 298.879C138.499 299.074 137.604 299.699 136.965 300.269C136.01 301.119 135.721 301.289 135.349 301.216C134.962 301.141 134.764 301.28 133.991 302.168C133.493 302.74 132.779 303.43 132.403 303.701C131.79 304.145 131.586 304.195 130.382 304.195C129.216 304.195 128.996 304.145 128.685 303.812C128.382 303.487 128.304 303.467 128.167 303.684C127.865 304.16 127.99 304.806 128.472 305.264C129.114 305.875 130.848 306.763 131.404 306.766C132.083 306.77 132.369 306.996 132.04 307.269C131.74 307.518 130.78 307.393 130.036 307.009C129.781 306.878 129.175 306.383 128.69 305.911C128.204 305.438 127.733 305.051 127.643 305.051C127.554 305.051 127.351 304.779 127.192 304.447C126.759 303.54 127.081 301.3 127.933 299.295C128.751 297.37 129.238 296.704 130.124 296.303C130.998 295.906 132.85 295.87 133.718 296.232C134.589 296.595 134.67 296.576 135.842 295.724C136.421 295.304 137.111 294.906 137.377 294.84C138.628 294.531 139.602 293.526 141.918 290.152C142.997 288.579 144.978 284.325 144.976 283.584C144.976 283.083 142.781 279.536 141.907 278.622C140.924 277.593 140.394 277.309 139.454 277.306C137.933 277.302 135.186 276.243 134.2 275.28C133.028 274.136 131.886 271.978 131.33 269.859C130.881 268.147 130.888 265.372 131.346 264.135C131.98 262.414 133.778 261.76 135.505 262.621C136.355 263.045 138.214 264.939 139.971 267.17C142.965 270.972 143.519 271.468 145.272 271.916C146.256 272.167 146.432 272.166 147.501 271.904C148.14 271.747 149.251 271.363 149.971 271.051C152.221 270.075 154.596 269.865 157.556 270.383C160.618 270.917 162.954 272.041 165.024 273.976C165.856 274.754 166.711 275.483 166.922 275.596C167.539 275.926 168.348 275.836 169.051 275.36C169.779 274.866 170.351 274.978 170.351 275.613C170.351 275.808 170.895 276.539 171.595 277.283C172.278 278.011 173.003 278.806 173.205 279.05C173.517 279.429 173.674 279.482 174.27 279.413C175.313 279.293 176.078 279.627 176.931 280.574C177.572 281.287 178.67 282.948 178.904 283.559C178.939 283.653 179.067 283.846 179.187 283.987C179.307 284.128 179.65 284.726 179.948 285.315C180.635 286.673 180.894 288.237 180.655 289.582C180.412 290.946 179.009 293.66 177.528 295.632C176.244 297.343 175.986 297.839 175.069 300.354C174.758 301.208 174.218 302.451 173.87 303.116L173.236 304.324L173.208 310.767C173.193 314.31 173.173 317.21 173.168 317.21C173.16 317.21 173.066 316.767 172.956 316.225L172.954 316.225ZM132.315 302.873C132.643 302.617 133.051 302.225 133.22 302.001C133.604 301.493 133.491 301.367 131.944 300.584C131.331 300.274 130.446 299.766 129.978 299.455C129.428 299.09 129.068 298.95 128.961 299.057C128.731 299.286 128.17 301.141 128.277 301.315C128.325 301.392 128.546 301.41 128.767 301.355C129.277 301.227 130.744 301.858 130.744 302.204C130.744 302.743 131.087 303.338 131.398 303.338C131.574 303.338 131.986 303.129 132.315 302.873ZM129.72 302.663C129.508 302.268 129.076 302.096 128.922 302.346C128.784 302.569 129.505 303.211 129.733 303.07C129.823 303.015 129.818 302.845 129.722 302.663H129.72ZM134.958 299.988C135.115 299.152 134.946 298.068 134.6 297.686C133.785 296.786 132.056 296.559 131.07 297.222C130.751 297.437 130.465 297.739 130.435 297.892C130.348 298.344 131.568 299.404 132.873 300.011C134.503 300.77 134.812 300.767 134.958 299.988ZM160.28 291.248C160.493 291.035 160.181 290.666 159.787 290.666C159.401 290.666 159.237 290.982 159.491 291.237C159.633 291.378 160.142 291.386 160.28 291.248ZM159.72 288.967C159.72 288.671 159.512 288.268 159.359 288.268C159.274 288.268 159.205 288.461 159.205 288.696C159.205 288.963 159.303 289.124 159.462 289.124C159.604 289.124 159.72 289.054 159.72 288.967ZM254.151 316.904C254.102 316.716 254.116 315.995 254.187 315.302C254.312 314.038 255.022 312.277 255.731 311.473C256.534 310.561 256.259 308.851 254.959 306.678C254.451 305.83 253.526 303.865 252.902 302.311C251.392 298.549 251.018 297.921 248.851 295.522C247.795 294.353 247.171 293.261 247.146 292.539C247.107 291.443 247.516 286.548 247.682 286.112C247.773 285.873 247.896 285.124 247.956 284.447C248.116 282.655 248.15 282.617 249.583 282.617C250.789 282.617 250.795 282.613 251.532 281.857C252.063 281.311 252.457 281.067 252.931 280.989C253.294 280.93 253.823 280.84 254.105 280.79C254.847 280.659 256.834 279.276 257.698 278.29C258.494 277.38 258.539 277.302 259.274 275.546C259.614 274.733 259.864 274.364 260.105 274.32C260.294 274.285 261.182 274.169 262.078 274.061C262.974 273.952 264.479 273.703 265.422 273.506C267.51 273.071 269.048 273.061 271.08 273.472C272.322 273.723 273.308 273.776 276.139 273.746L279.656 273.708L280.905 274.306C282.511 275.075 283.498 275.757 284.894 277.064C286.238 278.323 286.391 278.41 288.387 279.058C290.146 279.628 291.868 279.828 292.804 279.57C293.343 279.421 293.628 279.464 294.69 279.856C295.914 280.307 295.941 280.33 295.941 280.91V281.503L295.039 281.455C294.309 281.416 294.017 281.489 293.505 281.837C292.967 282.202 292.833 282.232 292.606 282.036C292.112 281.61 291.472 281.565 291.137 281.934C290.778 282.331 290.154 282.378 289.865 282.031C289.754 281.897 289.339 281.737 288.944 281.675C288.549 281.614 287.91 281.421 287.526 281.247C286.886 280.957 285.395 280.654 283.562 280.441C282.876 280.361 282.841 280.328 282.791 279.732C282.743 279.154 282.697 279.106 282.196 279.106C281.506 279.106 281.444 279.036 281.331 278.135C281.279 277.727 281.078 277.218 280.883 277.005C280.372 276.443 278.994 275.595 278.593 275.595C278.188 275.595 277.776 276.008 277.525 276.666C277.288 277.288 277.101 277.259 276.673 276.534C276.277 275.863 275.939 275.693 274.664 275.518C273.788 275.399 272.762 275.601 271.032 276.233C270.436 276.451 270.213 276.463 269.844 276.295C268.757 275.8 265.798 275.421 264.388 275.596C263.478 275.709 263.136 275.838 262.73 276.223C262.271 276.659 262.229 276.784 262.32 277.458C262.412 278.141 262.367 278.268 261.821 278.872C261.177 279.584 261.146 279.664 261.377 280.028C261.469 280.174 261.435 280.485 261.288 280.836C260.887 281.796 260.975 282.022 262.036 282.743C262.578 283.112 263.314 283.793 263.672 284.257C264.491 285.318 265.507 287.098 265.507 287.471C265.507 287.985 264.815 287.775 263.915 286.988C263.433 286.567 262.841 286.154 262.6 286.07C261.975 285.852 261.396 286.124 261.163 286.745C260.969 287.264 260.941 287.276 260.106 287.187C259.635 287.136 258.986 286.962 258.664 286.798C258.164 286.546 258 286.534 257.549 286.718C256.865 286.998 256.479 286.981 256.156 286.658C255.976 286.479 255.56 286.398 254.828 286.402C254.242 286.406 253.437 286.29 253.04 286.148C252.534 285.967 251.94 285.916 251.068 285.976C249.082 286.115 249.072 286.119 248.584 287.182C248.206 288.007 248.144 288.387 248.133 289.958C248.125 291.203 248.21 292.076 248.405 292.72C248.795 294.003 250.86 297.173 251.307 297.173C251.384 297.173 251.448 296.865 251.448 296.488C251.448 295.762 251.669 295.597 251.946 296.115C252.221 296.629 252.762 298.323 253.405 300.684C254.427 304.439 255.283 306.645 256.278 308.089C256.702 308.706 256.77 308.923 256.633 309.22C256.539 309.423 256.372 310.077 256.26 310.674C256.149 311.27 255.951 312.003 255.821 312.301C255.48 313.08 254.878 315.15 254.871 315.569C254.867 315.765 254.725 316.222 254.553 316.585C254.292 317.137 254.226 317.189 254.151 316.904ZM149.947 311.949C149.947 311.749 149.69 311.248 149.375 310.837C148.35 309.496 148.354 309.542 149.166 308.484C149.965 307.442 151.785 304.689 151.939 304.29C152.019 304.08 153.074 303.339 153.292 303.339C153.331 303.339 153.253 303.55 153.125 303.809C152.996 304.068 152.714 304.897 152.498 305.65C152.022 307.315 150.325 311.924 150.105 312.149C150.007 312.25 149.947 312.174 149.947 311.949ZM158.863 300.267C157.983 299.999 157.026 299.399 155.776 298.333C154.267 297.046 153.286 296.363 152.047 295.738C151.195 295.308 150.791 294.728 151.447 294.875C151.612 294.912 152.866 295.227 154.233 295.574C156.423 296.13 156.978 296.206 158.893 296.218C161.064 296.231 161.068 296.231 161.584 295.737C161.897 295.439 162.122 295.032 162.154 294.71C162.205 294.184 162.218 294.177 163.082 294.212C163.655 294.235 164.606 294.507 165.826 294.998C167.762 295.778 169.01 296.201 169.962 296.399C170.268 296.463 170.561 296.586 170.615 296.673C170.759 296.904 169.419 296.865 168.008 296.597C166.701 296.348 166.336 296.425 166.433 296.93C166.527 297.417 167.787 297.692 170.118 297.735C171.263 297.756 172.164 297.832 172.121 297.904C171.703 298.592 168.75 298.79 166.064 298.31C165.262 298.167 164.193 297.998 163.689 297.935C162.849 297.831 162.779 297.848 162.861 298.14C162.911 298.315 163.005 298.72 163.07 299.04L163.187 299.622L162.525 299.493C161.316 299.257 161.02 299.288 160.949 299.657C160.914 299.845 160.805 300.095 160.709 300.213C160.519 300.446 159.544 300.475 158.863 300.267ZM279.681 279.763C279.519 279.601 279.539 278.715 279.708 278.611C279.969 278.451 280.94 279.176 280.94 279.532C280.94 279.809 280.827 279.877 280.368 279.877C280.054 279.877 279.745 279.826 279.682 279.763H279.681ZM139.407 270.637C139.351 270.546 139.539 270.352 139.825 270.204C140.338 269.939 140.345 269.941 140.345 270.368C140.345 270.712 140.26 270.801 139.927 270.801C139.697 270.801 139.463 270.727 139.407 270.637Z" fill="currentcolor"/>

</svg>
