<svg  viewBox="0 0 1180 580" fill="currentcolor" xmlns="http://www.w3.org/2000/svg">
<path d="M224.828 333.018C224.344 332.755 224.157 332.407 224.157 331.766C224.157 330.637 224.875 329.722 229.308 325.205C233.952 320.472 236.16 317.731 238.12 314.268C239.768 311.356 240.798 308.606 241.461 305.341C241.641 304.455 241.919 303.557 242.12 303.211C242.447 302.648 242.454 302.591 242.244 302.27C242.044 301.966 242.037 301.644 242.18 299.315C242.439 295.08 242.043 290.67 241.091 287.202C240.593 285.386 239.728 283.509 239.133 282.951L238.792 282.631L236.502 283.135C232.12 284.1 229.214 284.497 226.557 284.494C223.494 284.49 221.504 283.886 220.431 282.633C219.514 281.563 219.35 280.351 219.877 278.536C220.118 277.709 220.137 276.772 219.923 276.303C219.834 276.108 219.468 275.822 219.066 275.634C218.206 275.232 217.969 274.913 217.969 274.16C217.969 273.5 218.323 272.953 218.966 272.621C219.493 272.349 219.482 272.197 218.919 271.913C218.344 271.624 217.446 270.779 217.184 270.282C216.902 269.746 216.929 268.724 217.235 268.347C217.372 268.177 217.824 267.87 218.238 267.664C219.001 267.285 219.622 266.542 219.279 266.419C218.809 266.25 217.908 265.447 217.542 264.871C216.574 263.346 216.842 262.607 218.743 261.56C220.549 260.565 222.133 259.248 223.149 257.895C223.624 257.263 223.548 257.155 222.559 257.053C221.317 256.926 220.48 256.612 219.846 256.034C219.367 255.597 219.345 255.552 219.657 255.633C220.755 255.918 220.752 255.925 219.897 255.023C219.138 254.223 218.405 252.972 218.588 252.789C218.632 252.745 218.808 252.892 218.98 253.117C219.531 253.839 220.37 254.552 221.04 254.866C221.857 255.25 223.549 255.522 223.766 255.306C223.874 255.197 223.851 254.683 223.684 253.496C223.555 252.585 223.451 251.672 223.452 251.469C223.452 251.266 223.112 250.425 222.694 249.6C221.376 246.996 220.785 244.587 220.76 241.716C220.752 240.794 220.793 239.613 220.85 239.092C220.989 237.838 220.787 237.859 220.17 239.162C219.465 240.65 219.304 241.473 219.312 243.551C219.32 245.589 219.574 247.134 220.24 249.213C220.472 249.937 220.626 250.566 220.581 250.611C220.435 250.757 219.788 250.036 219.161 249.029C218.485 247.945 217.796 246.043 217.538 244.551C217.262 242.954 217.439 239.351 217.875 237.69C218.717 234.475 219.94 232.277 222.118 230.062C224.191 227.953 225.987 226.869 228.565 226.169C229.513 225.911 230.084 225.856 231.856 225.855C233.036 225.855 234.001 225.819 234.001 225.778C234.001 225.737 233.783 225.168 233.517 224.514C232.809 222.773 232.37 221.141 232.04 219.022C231.615 216.287 231.542 215.974 231.099 214.967C230.746 214.163 230.698 213.887 230.697 212.649C230.697 211.336 230.726 211.184 231.167 210.308C231.425 209.794 231.783 209.236 231.96 209.069L232.283 208.766L232.64 209.233C233.124 209.868 233.527 210.844 233.731 211.875C233.886 212.665 233.943 212.756 234.441 213.01C235.721 213.662 235.982 215.411 234.957 216.47C234.522 216.919 234.522 216.92 234.779 217.313C235.24 218.019 236.585 219.343 237.415 219.908C239.026 221.004 240.749 221.549 242.86 221.63C243.485 221.653 244.015 221.697 244.038 221.726C244.061 221.756 244.315 222.137 244.601 222.575C245.166 223.438 245.798 223.988 246.622 224.331C247.822 224.832 250.037 224.237 251.37 223.056L251.931 222.559L251.632 222.31C251.094 221.861 250.844 221.316 250.844 220.593C250.844 219.269 251.806 218.373 253.073 218.515C253.682 218.584 253.682 218.584 254.094 217.856C254.702 216.779 255.908 215.8 256.396 215.987C256.705 216.106 256.97 217.19 256.996 218.44L257.02 219.595L257.626 220.132C258.176 220.62 258.238 220.741 258.297 221.451C258.343 222.009 258.292 222.378 258.12 222.741C257.858 223.292 257.144 223.816 256.656 223.816C256.131 223.816 256.172 224.195 256.795 225.081C257.373 225.905 258.281 226.681 259.05 227.008C260.13 227.467 261.567 227.345 262.946 226.677L263.694 226.314L264.672 227.374C266.17 228.998 267.556 229.53 269.329 229.162C270.244 228.973 270.545 228.726 270.205 228.445C269.536 227.891 269.37 226.506 269.875 225.691C270.39 224.858 271.243 224.613 272.408 224.961C272.934 225.119 272.965 225.108 273.568 224.552C274.389 223.796 275.024 223.468 275.271 223.672C275.54 223.895 275.818 225.551 275.722 226.362C275.615 227.264 275.001 228.378 274.307 228.928C273.376 229.667 271.971 231.24 271.971 231.545C271.971 231.643 273.833 232.806 273.991 232.806C274.031 232.806 274.557 232.451 275.162 232.018C277.194 230.56 279.455 229.598 282.292 228.984C283.505 228.722 284.167 228.676 286.807 228.67C289.5 228.664 290.11 228.706 291.512 228.989C299.063 230.513 303.823 234.431 305.997 240.912C307.134 244.303 307.32 249.06 306.475 253.171C305.933 255.809 304.557 259.497 303.32 261.627C302.404 263.204 301.258 264.89 300.847 265.265C300.385 265.689 300.379 265.711 301.415 263.076C302.397 260.579 303.241 257.703 303.702 255.28C304.182 252.763 304.306 249.097 303.98 247.111C303.412 243.654 301.924 240.696 299.789 238.778C298.92 237.998 297.856 237.245 297.759 237.341C297.722 237.378 298.007 237.787 298.392 238.25C302.27 242.904 303.7 248.957 302.407 255.242C301.202 261.101 297.324 267.196 289.828 275.015C285.677 279.344 284.112 281.325 282.828 283.877C281.754 286.012 281.258 288.314 281.538 289.858C281.967 292.222 283.425 293.663 285.772 294.04C288.542 294.486 290.675 292.656 290.675 289.834C290.675 287.523 289.365 285.88 287.165 285.432C286.691 285.335 286.301 285.196 286.299 285.122C286.283 284.67 289.557 284.474 290.949 284.844C293.636 285.558 295.297 287.283 295.964 290.054C296.274 291.342 296.271 293.432 295.957 294.61C295.162 297.592 292.563 300.14 289.032 301.4C287.837 301.826 287.709 301.843 285.542 301.843C283.624 301.843 283.115 301.795 282.096 301.518C278.843 300.631 275.889 298.555 274.089 295.892C270.175 290.101 270.136 282.156 273.976 272.908C274.329 272.058 275.453 269.593 276.474 267.43C279.108 261.848 280.103 259.218 280.751 256.123C281.233 253.82 281.299 253.081 281.113 252.056C280.928 251.037 280.359 249.802 280.074 249.802C279.955 249.802 279.817 250.128 279.703 250.68C278.828 254.903 275.994 261.716 273.775 264.926C272.479 266.803 270.765 268.817 269.108 270.411C266.513 272.908 264.425 274.343 260.153 276.566C256.172 278.638 255.577 279.091 255.207 280.324C254.922 281.275 254.974 287.44 255.281 289.192C255.552 290.737 256.226 293.492 256.571 294.468C256.777 295.05 256.776 295.141 256.56 295.62C256.271 296.258 256.354 296.512 256.885 296.618C257.146 296.67 257.354 296.836 257.466 297.081C257.678 297.545 257.517 297.695 256.804 297.698C256.457 297.698 256.206 297.826 255.855 298.178C255.591 298.44 255.376 298.754 255.376 298.875C255.376 299.501 256.83 299.522 257.474 298.905C257.933 298.466 257.994 298.46 258.197 298.839C258.324 299.075 258.306 299.231 258.11 299.594C257.792 300.183 257.917 300.509 258.46 300.509C258.985 300.509 258.976 300.499 260.159 302.581C262.364 306.465 265.043 310.044 268.806 314.134C270.066 315.503 269.997 315.682 268.502 314.93C267.973 314.664 267.197 314.345 266.777 314.22C265.809 313.933 264.04 313.929 262.92 314.211C260.727 314.764 257.353 316.848 254.156 319.625C246.971 325.863 236.674 331.378 229.289 332.942C227.611 333.297 225.413 333.335 224.828 333.018ZM243.068 307.93C243.489 307.738 244.046 306.91 243.94 306.634C243.823 306.329 242.939 306.232 242.385 306.463C241.914 306.66 241.454 307.283 241.454 307.726C241.454 308.079 242.46 308.207 243.068 307.93ZM246.549 306.413C246.743 306.262 246.983 305.94 247.083 305.698C247.312 305.145 247.142 305.009 246.215 305.006C245.642 305.002 245.508 305.065 245.125 305.501C244.71 305.973 244.579 306.392 244.783 306.596C244.997 306.81 246.203 306.685 246.549 306.413ZM243.891 305.13C244.357 304.918 244.879 303.986 244.656 303.764C244.414 303.522 243.327 303.564 242.919 303.831C242.415 304.161 242.091 304.825 242.307 305.084C242.504 305.323 243.411 305.349 243.891 305.13ZM249.751 304.879C249.945 304.74 250.198 304.454 250.314 304.245C250.508 303.895 250.503 303.848 250.252 303.662C250.102 303.55 249.732 303.459 249.429 303.459C248.989 303.459 248.782 303.556 248.391 303.947C248.065 304.273 247.918 304.539 247.948 304.749C248.03 305.315 249.044 305.388 249.751 304.879ZM247.295 303.68C247.46 303.572 247.699 303.272 247.825 303.015C248.039 302.58 248.039 302.533 247.821 302.37C247.507 302.135 246.733 302.148 246.249 302.398C245.829 302.615 245.372 303.386 245.486 303.684C245.628 304.052 246.73 304.049 247.295 303.68ZM253.096 303.521C253.268 303.4 253.508 303.111 253.628 302.878C253.928 302.3 253.706 302.054 252.884 302.054C252.356 302.054 252.178 302.131 251.777 302.532C251.33 302.978 251.174 303.429 251.392 303.646C251.573 303.827 252.786 303.738 253.096 303.521ZM245.216 301.976C245.749 301.417 245.79 301.143 245.372 300.92C244.842 300.636 243.964 300.854 243.524 301.378C243.06 301.93 243.075 302.356 243.564 302.492C244.159 302.659 244.737 302.478 245.216 301.976ZM250.467 302.155C251.025 301.78 251.304 301.161 251.038 300.895C250.941 300.799 250.585 300.72 250.246 300.72C249.756 300.72 249.541 300.804 249.2 301.131C248.635 301.672 248.519 302.05 248.847 302.289C249.233 302.571 249.935 302.513 250.467 302.155ZM256.456 301.84C256.633 301.725 256.881 301.43 257.008 301.185C257.224 300.767 257.223 300.729 256.984 300.555C256.844 300.452 256.482 300.369 256.18 300.369C255.163 300.369 254.205 301.727 254.99 302.055C255.377 302.217 256.026 302.122 256.456 301.84ZM248.069 300.998C248.518 300.766 248.972 300.036 248.855 299.732C248.737 299.425 247.889 299.337 247.323 299.574C246.836 299.777 246.376 300.393 246.376 300.843C246.376 301.226 247.439 301.323 248.069 300.998ZM253.595 300.88C254.427 300.532 254.842 299.501 254.216 299.334C253.382 299.11 252.726 299.345 252.275 300.027C251.921 300.563 251.931 300.771 252.318 300.926C252.771 301.108 253.073 301.097 253.595 300.88ZM251.471 299.39C251.665 299.238 251.905 298.917 252.005 298.675C252.232 298.127 252.063 297.986 251.179 297.983C250.669 297.979 250.487 298.061 250.089 298.458C249.603 298.943 249.468 299.445 249.787 299.573C250.23 299.752 251.137 299.653 251.471 299.39ZM254.678 298.049C255.121 297.82 255.582 297.087 255.469 296.793C255.383 296.569 254.729 296.434 254.218 296.535C253.439 296.688 252.668 297.834 253.143 298.134C253.447 298.327 254.224 298.283 254.678 298.049ZM251.176 274.948C251.628 273.764 251.678 272.501 251.315 271.412C251.15 270.917 250.851 270.271 250.651 269.977L250.287 269.443L249.963 269.747C249.785 269.914 249.459 270.441 249.238 270.918C248.887 271.678 248.837 271.948 248.837 273.119C248.837 274.286 248.887 274.558 249.231 275.292C249.447 275.754 249.731 276.249 249.862 276.394C250.093 276.649 250.113 276.642 250.49 276.19C250.705 275.933 251.014 275.374 251.176 274.948ZM250.886 268.044C251.244 267.343 251.168 266.701 250.66 266.131L250.315 265.745L249.893 266.203C249.383 266.757 249.33 267.48 249.75 268.168C250.14 268.806 250.517 268.765 250.886 268.044ZM263.616 225.469C263.29 224.969 263.102 223.919 263.248 223.41C263.58 222.254 264.372 221.55 264.754 222.072C264.977 222.376 265.219 223.194 265.22 223.645C265.22 224.321 264.628 225.358 264.067 225.658C263.883 225.756 263.774 225.711 263.616 225.469ZM243.985 220.726C243.716 220.56 243.619 218.885 243.846 218.336C244.042 217.864 244.875 217.074 245.178 217.074C245.438 217.074 245.557 217.284 245.687 217.976C245.835 218.764 245.592 219.629 245.072 220.16C244.516 220.729 244.23 220.877 243.985 220.726Z" fill="currentcolor"/>

</svg>
