<svg  viewBox="0 0 1180 580" fill="currentcolor" xmlns="http://www.w3.org/2000/svg">
<path d="M257.753 335.162C257.753 333.907 257.274 331.923 256.588 330.334C255.557 327.944 253.725 325.69 251.216 323.723C246.884 320.327 246 319.546 243.698 317.075C241.989 315.241 238.879 311.168 238.879 310.765C238.879 310.704 238.582 310.04 238.218 309.29C236.744 306.243 236.183 303.889 236.183 300.748C236.183 298.293 236.024 298.078 234.82 298.896C233.877 299.537 232.716 301.25 232.716 302C232.716 302.836 232.373 302.416 231.024 299.925C229.719 297.516 228.816 295.675 228.574 294.926C228.438 294.507 228.05 293.315 227.712 292.276C226.348 288.088 226.17 282.376 227.294 278.866C227.68 277.662 228.676 275.159 229.078 274.387C229.473 273.625 231.134 271.044 231.36 270.839C231.848 270.396 232.713 269.098 232.619 268.949C232.284 268.418 229.948 269.287 228.862 270.345C228.477 270.721 228.112 271.028 228.051 271.028C227.801 271.028 228.304 266.659 228.865 263.945C229.107 262.777 229.561 261.352 230.009 260.357C230.196 259.941 230.507 259.176 230.701 258.657C231.194 257.336 233.266 253.422 233.534 253.305C233.614 253.271 233.679 253.132 233.679 252.998C233.679 252.863 233.809 252.648 233.968 252.518C234.396 252.17 234.324 251.704 233.653 250.492C232.901 249.132 232.417 247.775 232.244 246.539C231.984 244.685 232.754 241.324 233.995 238.902C234.399 238.113 234.577 237.957 235.275 237.78C235.721 237.666 236.39 237.494 236.76 237.397C237.706 237.151 241.614 237.176 242.665 237.436C244.139 237.8 244.143 237.731 242.928 232.781C242.52 231.119 241.955 228.782 241.671 227.587C241.387 226.392 240.77 223.843 240.298 221.921C239.137 217.192 238.992 216.594 238.209 213.327C237.835 211.769 237.436 210.212 237.32 209.866C237.205 209.521 237.163 209.186 237.228 209.123C237.292 209.06 237.93 209.597 238.646 210.317C240.533 212.219 243.205 214.535 245.531 216.286C247.523 217.786 251.081 219.478 252.745 219.717C253.4 219.811 253.436 220.235 252.845 220.861C251.359 222.433 250.824 224.98 251.772 225.97C252.031 226.241 252.724 226.694 253.312 226.977C254.272 227.44 254.59 227.493 256.405 227.491C258.201 227.487 258.545 227.433 259.486 226.985C261.217 226.161 261.46 225.893 261.561 224.704C261.69 223.175 260.88 221.792 258.44 219.376L256.527 217.482L258.404 217.35C260.447 217.207 261.442 216.853 262.03 216.063C262.359 215.62 262.363 215.522 262.092 214.646C261.519 212.791 261.886 211.222 263.264 209.639C264.125 208.649 266.21 207 266.599 207C266.991 207 268.539 208.178 269.541 209.24C271.063 210.852 271.327 211.484 271.287 213.422C271.269 214.305 271.218 215.197 271.172 215.405C271.051 215.965 271.614 216.782 272.283 217.018C272.607 217.131 273.676 217.274 274.659 217.334C275.642 217.395 276.481 217.499 276.523 217.566C276.565 217.633 275.671 218.622 274.536 219.764C272.369 221.945 271.884 222.676 271.692 224.046C271.506 225.379 271.94 225.974 273.703 226.8C275.047 227.43 275.331 227.493 276.819 227.493C278.374 227.493 280.671 226.989 280.671 226.647C280.671 226.574 280.889 226.417 281.156 226.298C282.629 225.64 282.208 222.72 280.346 220.667C279.995 220.28 279.708 219.904 279.708 219.831C279.708 219.758 280.191 219.639 280.781 219.567C281.371 219.494 282.173 219.305 282.562 219.147C283.803 218.641 286.227 217.419 286.879 216.971C288.574 215.805 292.222 212.69 293.615 211.22C293.797 211.028 294.218 210.617 294.552 210.305C295.159 209.739 295.159 209.739 295.045 210.211C294.982 210.471 294.835 211.15 294.719 211.722C294.367 213.444 293.815 215.971 292.992 219.639C292.562 221.553 292.044 223.933 291.84 224.928C291.332 227.408 290.792 229.831 290.322 231.742C289.594 234.698 289.156 237.117 289.319 237.277C289.408 237.364 290.148 237.344 290.964 237.233C293.531 236.883 296.346 237.021 298.607 237.607C299.192 237.759 299.37 237.935 299.698 238.685C300.996 241.654 301.048 245.532 299.835 249C299.658 249.506 299.482 250.058 299.444 250.227C299.406 250.397 299.269 250.8 299.139 251.123C298.928 251.648 298.952 251.778 299.367 252.35C301.917 255.862 304.754 262.291 305.692 266.684C305.791 267.151 305.998 268.086 306.151 268.761C306.304 269.437 306.529 271.136 306.651 272.539C306.774 273.941 306.917 275.486 306.969 275.972C307.087 277.055 306.865 277.234 306.313 276.502C306.083 276.197 305.366 275.392 304.72 274.715C303.511 273.447 302.716 273.092 302.915 273.908C304.163 279.044 304.812 286.865 304.386 291.637C303.822 297.95 301.584 304.656 298.603 308.961C296.883 311.444 293.735 315.035 293.278 315.035C293.097 315.035 293 313.906 292.886 310.455C292.802 307.936 292.719 305.79 292.702 305.686C292.684 305.582 292.657 305.391 292.641 305.261C292.578 304.757 292.243 305.065 291.92 305.922C291.734 306.415 291.524 306.904 291.454 307.008C291.383 307.112 291.034 307.919 290.678 308.802C290.322 309.685 289.788 310.863 289.492 311.419C289.195 311.974 288.952 312.509 288.952 312.605C288.952 312.914 286.64 316.567 285.058 318.757C282.949 321.677 279.894 324.904 277.204 327.054C276.834 327.35 276.444 327.689 276.338 327.806C276.232 327.924 275.322 328.551 274.315 329.201C273.309 329.851 272.258 330.536 271.98 330.725C269.648 332.301 259.954 336 258.156 336C257.807 336 257.753 335.887 257.753 335.162ZM265.767 327.642C267.219 326.103 268.085 323.954 267.894 322.364C267.617 320.048 265.849 317.207 263.327 315.021C262.556 314.354 261.562 313.489 261.118 313.099C260.673 312.71 260.124 312.391 259.898 312.391C259.368 312.391 259.379 312.542 259.952 313.136C260.502 313.707 262.314 317.025 263.114 318.926C263.956 320.93 264.517 323.538 264.592 325.799C264.629 326.891 264.665 327.89 264.672 328.02C264.697 328.437 265.172 328.273 265.767 327.642ZM260.908 327.642C261.522 326.695 261.854 324.572 261.751 322.258C261.666 320.351 261.568 319.835 261.053 318.579C260.491 317.206 259.364 315.056 259.097 314.846C259.03 314.794 258.925 314.615 258.862 314.448C258.8 314.28 258.058 313.303 257.215 312.275C255.694 310.424 254.564 309.308 252.551 307.669C250.212 305.766 249.69 305.247 248.754 303.892C246.61 300.788 245.957 298.681 245.927 294.774C245.904 291.765 245.653 291.673 244.742 294.343C243.824 297.031 243.422 299.6 243.57 301.821C243.719 304.053 244.05 305.17 245.229 307.413C246.232 309.321 247.209 310.572 248.967 312.195C254.244 317.068 258.154 322.391 259.968 327.17C260.35 328.176 260.51 328.257 260.908 327.642ZM271.757 326.732C272.201 326.309 272.618 325.799 272.683 325.598C272.748 325.398 272.875 325.234 272.967 325.234C273.235 325.234 273.587 323.202 273.453 322.425C273.288 321.467 272.679 320.52 271.416 319.257C270.084 317.924 267.888 316.46 267.462 316.621C267.197 316.721 267.255 316.869 267.83 317.557C268.205 318.006 268.703 318.791 268.935 319.301C269.168 319.812 269.432 320.375 269.523 320.553C270.088 321.662 270.513 324.383 270.38 326.037C270.273 327.359 270.295 327.501 270.606 327.501C270.794 327.501 271.313 327.155 271.757 326.732ZM279.54 314.995C280.638 314.36 282.276 312.627 282.874 311.467C283.564 310.127 283.911 308.154 283.728 306.611C283.569 305.278 283.264 303.903 282.978 303.231C282.89 303.023 282.739 302.598 282.643 302.286C282.547 301.975 282.34 301.695 282.183 301.665C281.959 301.623 281.844 302.01 281.65 303.46C280.983 308.459 279.596 312.24 277.285 315.356C276.557 316.339 277.466 316.193 279.54 314.995ZM283.875 314.516C285.309 312.701 287.004 309.617 287.585 307.764C287.814 307.036 288.094 306.155 288.209 305.804C288.543 304.78 288.704 302.227 288.543 300.485C288.36 298.501 287.458 295.772 286.39 293.976C285.43 292.361 283.935 290.483 283.608 290.482C283.3 290.479 283.305 290.64 283.644 291.582C284.029 292.651 284.807 295.874 285.226 298.131C285.49 299.559 285.574 300.942 285.57 303.797C285.564 307.299 285.524 307.726 285.026 309.652C284.73 310.795 284.236 312.353 283.927 313.113C283.619 313.874 283.367 314.576 283.367 314.672C283.367 314.945 283.589 314.877 283.875 314.516ZM271.448 309.983C271.603 307.565 271.476 306.669 270.758 305.119C269.86 303.18 267.588 301.03 265.556 300.198C264.705 299.849 264.743 299.772 265.861 299.584C266.885 299.413 267.141 298.874 266.288 298.687C265.432 298.499 264.601 298.089 264.202 297.656C263.658 297.067 264.09 296.906 265.933 297.01C267.617 297.105 271.697 296.821 272.775 296.534C276.045 295.664 276.815 295.291 278.071 293.969C278.495 293.523 278.95 292.813 279.082 292.39C279.367 291.479 279.398 289.84 279.139 289.365C278.627 288.426 273.418 285.595 269.766 284.271C267.277 283.368 265.898 283.262 264.53 283.871C264.074 284.074 263.337 284.335 262.893 284.45C261.243 284.88 254.26 288.435 253.756 289.102C253.453 289.504 253.445 291.234 253.742 292.254C254.412 294.549 257.43 297.04 260.786 298.067C261.236 298.205 261.604 298.372 261.604 298.438C261.604 298.59 260.94 298.819 260.079 298.964C259.149 299.121 259.158 299.403 260.109 299.891C264.16 301.967 268.716 306.165 270.344 309.322C270.847 310.297 271.406 310.632 271.448 309.983ZM241.989 298.934C241.892 295.892 242.42 292.518 243.4 289.915C243.576 289.448 243.788 288.806 243.871 288.488C244.054 287.786 245.927 284.082 246.308 283.667C246.891 283.034 246.322 282.617 245.636 283.175C244.751 283.893 241.713 287.002 241.56 287.345C241.463 287.564 241.307 287.871 241.213 288.026C240.436 289.32 239.716 291.499 239.56 293.031C239.442 294.193 239.805 296.889 240.222 297.942C240.346 298.254 240.428 298.509 240.405 298.509C240.382 298.509 240.549 298.867 240.776 299.304C241.004 299.741 241.19 300.226 241.19 300.381C241.19 300.622 241.662 301.035 241.96 301.053C242.013 301.057 242.026 300.103 241.989 298.934ZM238.019 289.112C238.139 288.714 238.891 287.146 239.263 286.515C241.513 282.707 241.602 282.586 243.79 280.318C245.064 278.998 246.812 277.558 247.715 277.084C248.45 276.698 248.186 276.35 246.851 275.946C243.669 274.982 241.326 275.942 239.575 278.927C238.869 280.13 238.782 280.389 238.099 283.293C237.781 284.643 237.339 288.085 237.338 289.207C237.338 289.686 237.867 289.613 238.019 289.112ZM293.041 288.262C293.33 287.939 294.177 286.418 294.276 286.043C294.303 285.939 294.469 285.344 294.644 284.721C295.038 283.32 294.938 280.847 294.427 279.338C293.715 277.234 291.459 273.335 290.493 272.539C290.43 272.487 290.181 272.168 289.941 271.831C289.535 271.261 288.952 270.998 288.952 271.385C288.952 271.477 289.245 272.136 289.603 272.849C289.96 273.561 290.317 274.442 290.395 274.805C290.473 275.169 290.603 275.551 290.682 275.655C290.761 275.759 290.875 276.057 290.935 276.316C290.995 276.576 291.139 277.128 291.256 277.544C291.372 277.959 291.511 278.587 291.563 278.939C291.616 279.291 291.751 279.971 291.864 280.45C292.02 281.11 292.263 286.369 292.23 288.357C292.224 288.701 292.697 288.646 293.041 288.262ZM297.318 286.515C298.348 285.132 298.663 284.24 298.74 282.481C298.807 280.98 298.759 280.679 298.274 279.554C297.977 278.864 297.489 277.917 297.191 277.45C296.588 276.506 293.626 273.294 293.359 273.294C293.062 273.294 293.184 273.939 293.574 274.428C293.782 274.687 293.953 275.001 293.955 275.125C293.959 275.249 294.127 275.631 294.332 275.975C295.579 278.07 296.504 282.006 296.453 285.004C296.435 286.095 296.43 287.058 296.442 287.145C296.481 287.429 296.817 287.188 297.318 286.515ZM281.653 286.273C282.275 285.863 282.311 285.778 282.365 284.582C282.414 283.494 282.354 283.223 281.931 282.596C281.622 282.137 281.177 281.776 280.725 281.615L280.009 281.361L281.018 281.108C283.015 280.607 283.668 279.996 282.741 279.495C281.889 279.034 280.362 278.593 279.183 278.469C278.524 278.4 278.023 278.282 278.069 278.207C278.116 278.133 278.758 278.022 279.495 277.962C281.406 277.805 282.404 277.216 282.095 276.426C281.982 276.137 280.605 275.183 280.301 275.183C279.866 275.183 279.931 274.774 280.488 273.999C281.213 272.991 281.408 271.874 280.995 271.106C280.662 270.486 279.369 269.139 279.108 269.139C278.35 269.139 280.548 267.444 281.826 267.042C282.974 266.682 285.729 266.866 287.405 267.415C288.09 267.64 289.489 268.289 290.515 268.859C292.406 269.909 292.804 270.054 292.804 269.695C292.804 268.829 289.097 264.04 288.427 264.04C288.277 264.04 287.533 264.406 286.772 264.855C285.62 265.534 285.069 265.723 283.463 265.991C281.122 266.381 277.796 266.406 276.561 266.041C275.52 265.734 273.902 264.724 272.825 263.709C271.926 262.862 270.586 260.978 270.158 259.958C269.988 259.554 269.731 258.968 269.587 258.657C269.442 258.345 269.155 257.483 268.949 256.742C268.328 254.507 267.886 254.029 266.44 254.029C265.513 254.029 264.879 254.421 264.879 254.994C264.879 255.181 264.801 255.529 264.706 255.767C264.611 256.006 264.421 256.584 264.284 257.051C263.385 260.107 260.74 263.816 258.25 265.51L257.496 266.023L253.436 266.019C249.709 266.015 249.275 265.981 248.161 265.589C245.839 264.771 244.778 263.827 244.153 262.02C243.619 260.477 242.974 256.967 242.816 254.734C242.743 253.72 242.612 252.846 242.523 252.792C242.228 252.613 241.702 253.671 240.749 256.364C239.24 260.626 238.892 261.887 238.293 265.267C237.729 268.445 237.824 268.693 238.961 267.014C240.716 264.421 242.145 262.717 242.563 262.717C242.917 262.717 242.731 263.324 241.669 265.644C241.527 265.956 241.234 266.855 241.019 267.641C240.804 268.428 240.549 269.278 240.452 269.53C240.054 270.565 239.579 274.406 239.785 274.932C239.95 275.354 240.326 275.215 241.02 274.474C243.656 271.661 248.078 269.369 251.493 269.046C252.129 268.985 253.039 268.89 253.516 268.834L254.382 268.731L253.478 269.643C251.942 271.194 251.774 272.304 252.842 273.86C253.212 274.401 253.516 274.875 253.516 274.914C253.516 274.954 253.147 275.167 252.697 275.389C252.247 275.611 251.727 275.924 251.542 276.084C250.714 276.797 251.505 277.604 253.419 277.999C254.055 278.13 254.792 278.288 255.056 278.349L255.538 278.461L255.056 278.526C252.529 278.866 250.218 279.484 249.963 279.888C249.781 280.177 250.613 280.63 251.768 280.872C253.011 281.133 253.352 281.346 252.826 281.535C252.229 281.749 251.407 282.755 251.194 283.533C250.452 286.232 252.832 287.105 256.501 285.477C256.819 285.337 257.56 285.045 258.149 284.829C259.182 284.451 262.681 282.567 264.146 281.601C264.538 281.343 265.038 280.778 265.258 280.346C265.714 279.451 266.084 276.913 265.996 275.274L265.938 274.168L264.879 273.606C264.296 273.297 263.774 272.978 263.719 272.897C263.546 272.645 262.57 272.349 261.908 272.349C261.544 272.349 260.962 272.556 260.543 272.835C259.258 273.69 258.138 273.018 258.138 271.391C258.138 269.615 259.48 268.855 263.612 268.292C266.668 267.875 267.281 267.899 271.427 268.596C273.466 268.939 275.278 270.123 275.278 271.113C275.278 271.643 274.757 272.445 274.233 272.72C273.785 272.955 273.654 272.939 272.987 272.571C271.728 271.878 270.979 272.007 269.159 273.23C268.201 273.875 267.523 274.469 267.458 274.722C267.399 274.953 267.379 276.235 267.415 277.57C267.505 281.014 267.588 281.144 270.671 282.7C271.987 283.364 274.494 284.532 276.241 285.296C279.8 286.85 280.567 286.989 281.653 286.273ZM300.387 259.167C300.53 258.94 299.803 256.912 299.227 255.933C298.684 255.011 297.827 253.788 296.611 252.203C296.006 251.413 295.901 251.161 296.064 250.881C296.437 250.24 297.003 248.278 297.243 246.799C297.521 245.081 297.403 243.032 296.931 241.382C296.496 239.86 296.311 239.789 293.141 239.939C290.651 240.056 289.768 240.201 287.711 240.834C286.216 241.294 286.217 241.294 285.139 240.534C283.409 239.315 280.15 237.832 277.916 237.247C276.98 237.002 276.722 237.414 277.456 237.98C277.851 238.285 278.938 239.892 278.938 240.171C278.938 240.349 278.359 240.207 277.577 239.836C274.661 238.453 270.933 237.614 267.044 237.466C263.022 237.313 259.054 237.899 255.1 239.229C253.099 239.903 252.79 239.762 254.076 238.764C254.649 238.319 255.295 237.833 255.512 237.683C256.325 237.125 255.579 237.036 253.802 237.48C251.304 238.103 248.869 239.32 247.891 240.433L247.104 241.328L246.025 240.812C244.29 239.982 242.53 239.644 239.944 239.642C237.679 239.638 237.631 239.649 237.231 240.141C236.194 241.417 235.668 245.187 236.242 247.23C236.565 248.379 236.994 249.539 237.15 249.685C237.205 249.737 237.405 250.018 237.594 250.309L237.938 250.838L236.988 252.103C236.465 252.799 235.978 253.559 235.904 253.793C235.831 254.027 235.706 254.218 235.626 254.218C235.413 254.218 233.872 257.634 233.872 258.106C233.872 258.588 234.403 258.386 234.785 257.76C235.294 256.922 237.133 254.949 239.967 252.199C243.038 249.219 244.854 247.971 243.779 249.58C243.571 249.891 243.545 250.067 243.692 250.156C243.808 250.227 245.018 250.139 246.381 249.963C248.334 249.709 249.81 249.659 253.354 249.729C258.029 249.821 258.449 249.878 261.701 250.866C263.355 251.368 263.993 251.46 266.225 251.523C268.748 251.593 268.884 251.577 270.943 250.944C274.858 249.742 276.111 249.589 281.923 249.606C284.905 249.615 287.654 249.714 288.369 249.839C289.767 250.082 290.164 249.93 289.766 249.305C289.248 248.493 289.564 248.399 290.252 249.162C290.649 249.601 291.134 250.133 291.329 250.343C291.524 250.552 292.217 251.353 292.87 252.121C295.352 255.046 299.618 259.318 300.057 259.318C300.186 259.318 300.335 259.25 300.387 259.167Z" fill="currentcolor"/>

</svg>
