<svg  viewBox="0 0 1180 580" fill="currentcolor" xmlns="http://www.w3.org/2000/svg">
<path d="M289.233 209.766L289.342 210.889C289.532 212.836 290.15 213.883 291.665 214.822C293.146 215.739 294.081 217.263 293.512 217.832C292.875 218.468 290.511 217.606 289.004 216.188L288.246 215.475L288.381 216.381C288.586 217.758 289.391 219.262 290.636 220.6C292.027 222.092 292.068 222.453 290.885 222.783C289.357 223.211 287.709 222.926 285.601 221.869C283.314 220.723 283.461 220.779 283.461 221.044C283.461 221.468 285.685 223.613 287.032 224.488C289.36 226.001 289.448 226.182 288.073 226.62C287.393 226.837 285.777 228.062 285.777 228.361C285.777 228.444 286.45 228.502 287.273 228.49C288.549 228.472 288.862 228.535 289.397 228.916C290.629 229.794 290.12 230.461 288.041 230.694C286.19 230.901 285.674 231.035 284.545 231.598C283.389 232.176 283.259 232.273 281.996 233.51C279.784 235.676 279.196 237.163 281.073 235.842C282.647 234.735 284.53 234.179 285.482 234.541C285.931 234.711 286.094 234.666 286.616 234.227C287.763 233.26 289.164 232.912 289.634 233.477C289.95 233.858 289.377 234.784 287.714 236.581C285.883 238.559 285.845 238.618 285.096 240.569C284.044 243.314 283.817 243.79 282.868 245.243C281.991 246.586 279.861 248.688 278.612 249.443C278.1 249.753 278.235 249.55 279.237 248.505C280.658 247.023 282.281 244.964 282.765 244.03C283.267 243.06 283.373 241.81 282.986 241.423C282.807 241.245 282.499 241.099 282.3 241.099C281.741 241.099 281.662 240.762 282.082 240.173C282.293 239.878 282.684 239.14 282.953 238.534C283.355 237.626 283.383 237.464 283.113 237.613C282.249 238.088 277.09 243.731 277.09 244.202C277.09 244.438 277.57 244.422 278.457 244.156C279.026 243.986 279.327 243.991 279.783 244.18C280.107 244.314 280.372 244.504 280.372 244.602C280.372 245.041 279.106 245.851 275.997 247.4C274.156 248.317 272.65 249.141 272.65 249.229C272.65 249.318 272.554 249.39 272.437 249.39C272.319 249.39 271.907 249.639 271.52 249.943C269.524 251.511 267.769 252.09 265.009 252.09C262.93 252.09 262.31 252.35 260.759 253.873C259.166 255.438 258.878 255.492 256.055 254.755C252.075 253.718 251.714 253.638 250.981 253.635C250.583 253.635 250.259 253.697 250.262 253.777C250.266 253.908 255.368 256.108 258.633 257.387C260.965 258.3 263.576 258.255 264.453 257.288C264.757 256.952 264.768 256.823 264.547 256.155C264.063 254.69 264.611 254.045 266.485 253.875C268.516 253.691 269.452 254.106 268.982 254.982C268.877 255.179 268.117 255.92 267.294 256.629C266.471 257.338 265.145 258.544 264.349 259.31C259.9 263.588 258.568 264.532 257.318 264.294C256.829 264.201 253.974 262.893 252.5 262.087C252.106 261.872 250.193 261.344 250.109 261.428C250.081 261.456 250.222 261.687 250.421 261.942C250.621 262.197 251.307 263.186 251.946 264.141C253.354 266.242 253.694 266.57 255.18 267.257C256.164 267.712 256.649 267.803 258.413 267.867C260.644 267.949 261.026 267.772 259.733 267.255C258.871 266.91 258.386 266.393 259.155 266.639C260.34 267.017 262.381 266.962 265.331 266.472C270.608 265.596 271.293 265.722 273.517 267.979C275.092 269.577 276.38 270.579 277.524 271.094C278.472 271.522 279.773 271.337 280.324 270.697C280.609 270.366 280.73 270.043 280.655 269.81C280.556 269.496 280.639 269.443 281.227 269.443C281.869 269.443 281.916 269.403 281.916 268.844C281.916 268.364 281.98 268.27 282.239 268.369C282.416 268.437 282.922 268.573 283.364 268.672C283.806 268.771 284.312 268.907 284.49 268.975C284.667 269.043 284.812 269.023 284.812 268.93C284.812 268.741 282.082 267.005 280.758 266.353C280.28 266.118 279.86 265.899 279.823 265.867C279.726 265.781 280.739 260.509 281.169 258.868C281.547 257.423 281.82 256.782 282.783 255.078C283.502 253.807 284.069 253.043 285.51 251.407C286.808 249.932 288.866 246.973 288.866 246.581C288.866 246.447 288.939 246.308 289.028 246.273C289.118 246.237 289.81 244.95 290.568 243.413C292.097 240.308 294.262 237.234 296.147 235.494C296.77 234.918 298.285 233.693 299.514 232.772C302.29 230.691 303.515 229.192 303.782 227.552C303.846 227.159 304.13 226.095 304.413 225.187C305.15 222.826 305.061 220.878 304.133 219.053C303.437 217.683 303.315 217.534 301.498 215.819C300.054 214.456 299.401 213.671 298.747 212.514C298.202 211.552 297.746 211.319 297.746 212.004C297.746 212.227 298.224 213.606 298.808 215.069C299.392 216.531 299.869 217.988 299.869 218.306C299.869 218.956 299.459 219.222 298.909 218.928C298.558 218.74 297.36 216.958 297.36 216.623C297.36 216.1 295.443 214.619 293.552 213.681C291.431 212.629 290.315 211.713 289.613 210.45L289.233 209.766ZM165.66 210.254C165.432 210.268 165.667 211.256 166.326 212.755C167.781 216.068 169.803 219.61 171.772 222.299C172.906 223.848 174.479 225.929 174.673 226.136C174.783 226.253 175.624 227.216 176.543 228.276C177.461 229.337 179.394 231.363 180.838 232.779C182.282 234.194 183.463 235.383 183.463 235.421C183.463 235.545 181.842 234.996 180.283 234.344C177.863 233.332 176.085 232.292 172.386 229.729C168.295 226.893 161.892 220.85 156.643 214.868C155.111 213.122 153.774 211.661 153.672 211.621C153.08 211.388 155.028 215.496 157.027 218.7C158.498 221.055 161.101 224.36 163.386 226.77C165.685 229.195 167.623 230.875 171.37 233.693C171.993 234.161 172.395 234.543 172.265 234.543C172.134 234.543 170.948 234.184 169.627 233.746C166.007 232.543 160.845 229.933 155.857 226.784C153.707 225.426 148.854 222.185 148.715 222.014C148.56 221.824 147.412 221.046 147.285 221.046C146.347 221.046 151.268 225.927 156.423 230.108C157.696 231.141 161.05 233.497 162.131 234.119C162.662 234.424 163.661 235.021 164.351 235.446C165.915 236.409 168.339 237.675 170.691 238.757C171.682 239.213 172.464 239.612 172.428 239.643C172.292 239.762 169.609 239.353 167.932 238.957C163.956 238.019 157.703 235.645 153.541 233.493C153.275 233.356 151.696 232.538 150.031 231.676C148.367 230.814 146.955 230.108 146.894 230.108C146.577 230.108 146.926 230.574 148.28 231.956C150.546 234.268 151.989 235.346 155.568 237.397C159.798 239.821 163.718 241.666 168.405 243.437C169.52 243.858 170.706 244.329 171.041 244.483C171.375 244.637 171.809 244.774 172.006 244.789C172.202 244.803 171.661 244.883 170.802 244.966C169.944 245.049 168.613 245.308 167.844 245.542C165.583 246.228 163.857 245.8 162.683 244.262C162.215 243.649 162.109 243.605 161.069 243.605C160.456 243.605 159.228 243.399 158.34 243.148C157.452 242.896 156.469 242.629 156.154 242.555C155.839 242.481 155.214 242.253 154.765 242.049C154.316 241.845 153.859 241.677 153.75 241.677C153.641 241.677 153.078 241.46 152.497 241.195C151.917 240.93 151.378 240.713 151.3 240.713C151.223 240.713 150.564 240.44 149.838 240.105C149.111 239.771 148.453 239.563 148.374 239.642C147.866 240.161 154.55 244.649 157.305 245.639C157.836 245.83 158.357 246.05 158.464 246.128C158.88 246.434 162.84 247.661 165.22 248.221C167.653 248.794 171.501 249.385 172.813 249.388C173.821 249.392 173.469 249.799 171.865 250.489C169.701 251.421 168.367 251.704 166.145 251.704C165.052 251.704 164.158 251.774 164.158 251.859C164.158 252.02 166.798 253.168 168.076 253.563C170.05 254.173 174.538 252.485 176.768 250.295C177.461 249.614 177.684 249.265 177.609 248.978C177.512 248.608 177.561 248.595 178.506 248.744C179.953 248.972 180.906 248.89 183.027 248.354C185.775 247.66 186.868 247.459 187.773 247.484C188.216 247.497 188.405 247.545 188.193 247.591C183.398 248.643 179.839 250.318 175.934 253.359C174.425 254.535 171.293 256.052 169.371 256.539C168.202 256.835 166.952 256.977 165.027 257.03C163.541 257.072 162.301 257.176 162.271 257.264C162.183 257.525 163.126 257.86 164.601 258.09C166.608 258.403 168.76 258.195 170.819 257.487C171.774 257.159 173.142 256.839 173.859 256.776C175.083 256.668 175.162 256.685 175.162 257.059C175.162 257.481 174.115 258.393 173.154 258.808C172.741 258.986 172.65 259.106 172.81 259.265C172.969 259.425 173.496 259.252 174.818 258.608C176.875 257.606 177.849 256.849 179.269 255.142C181.468 252.501 183.205 251.438 188.096 249.747C190.646 248.866 196.165 248.026 196.783 248.426C197.01 248.572 196.959 248.613 196.552 248.616C195.698 248.621 192.934 249.566 191.288 250.417C189.745 251.214 187.263 252.948 185.983 254.123C184.957 255.065 179.561 259.431 178.638 260.066C177.55 260.815 177.888 261.184 179.052 260.517C179.853 260.058 183.001 259.224 183.933 259.224C184.201 259.224 184.742 258.858 185.318 258.287C186.085 257.527 186.557 257.254 187.828 256.835C190.209 256.049 192.156 254.622 191.869 253.873C191.72 253.486 194.307 252.344 196.359 251.89C198.257 251.471 199.201 251.412 198.038 251.784C196.594 252.247 194.507 253.657 193.086 255.13C192.119 256.133 189.521 258.19 188.579 258.7C188.26 258.873 187.499 259.241 186.888 259.519C186.248 259.81 185.568 260.298 185.285 260.669C184.726 261.4 184.003 263.226 184.219 263.359C184.298 263.408 184.672 263.193 185.05 262.882C186.394 261.775 187.647 261.647 189.88 262.389C192.174 263.152 192.139 263.153 193.454 262.294C194.961 261.311 195.496 260.668 196.458 258.683C197.292 256.965 197.732 256.544 199.1 256.154C199.577 256.018 201.445 255.358 203.25 254.686C206.359 253.53 207.98 253.061 207.98 253.319C207.98 253.382 207.668 253.564 207.288 253.723C206.88 253.893 205.472 255.145 203.861 256.77C202.357 258.287 200.562 259.993 199.872 260.561C199.182 261.128 198.574 261.651 198.521 261.722C198.467 261.793 197.57 262.443 196.527 263.165C195.484 263.888 194.339 264.779 193.982 265.146C193.235 265.914 192.243 267.804 191.943 269.031C191.83 269.493 191.536 270.057 191.289 270.284C191.042 270.511 189.333 271.458 187.49 272.389C184.531 273.884 183.077 274.784 183.077 275.122C183.077 275.345 183.684 275.21 184.664 274.768C185.646 274.326 188.644 273.315 193.308 271.852C194.529 271.47 196.697 270.901 198.124 270.589C201.146 269.928 201.62 269.658 203.154 267.72C204.356 266.2 204.764 265.968 206.363 265.891C207.815 265.82 209.331 265.271 211.213 264.132C212.036 263.634 212.753 263.172 212.806 263.105C212.859 263.038 213.327 262.643 213.845 262.227C214.364 261.81 215.317 260.986 215.964 260.395C217.22 259.248 217.133 259.593 215.723 261.342C213.989 263.494 210.684 266.091 208.634 266.914C208.115 267.123 207.343 267.465 206.919 267.676L206.148 268.058L206.917 268.202C208.731 268.542 211.337 267.434 215.615 264.505C216.682 263.774 218.115 262.794 218.8 262.326C221.848 260.244 224.432 257.925 226.769 255.174L227.506 254.307L227.066 255.078C226.657 255.795 224.826 258.428 224.586 258.645C224.527 258.698 223.774 259.566 222.911 260.573C221.179 262.597 218.214 265.462 216.253 267.005C215.237 267.806 213.143 269.072 211.809 269.693C209.668 270.69 203.554 272.645 200.866 273.19C197.335 273.907 196.266 274.506 194.224 276.913C193.358 277.934 193.52 278.226 194.528 277.46C195.518 276.708 197.08 275.999 197.746 275.999C198.454 275.999 199.312 276.448 199.657 276.999C200.015 277.572 199.61 278.534 198.633 279.434C197.713 280.281 195.243 281.552 194.181 281.724C193.524 281.83 193.323 282.036 193.668 282.249C194.245 282.606 200.065 280.938 200.065 280.416C200.065 280.32 200.166 280.241 200.289 280.241C200.412 280.241 201.163 279.742 201.958 279.132C203.88 277.657 204.128 277.516 206.459 276.577C209.979 275.16 211.999 274.06 213.009 273.01C213.519 272.48 214.312 271.654 214.771 271.176C216.349 269.529 218.028 268.6 222.941 266.651C226.49 265.244 228.296 264.391 229.636 263.487C230.569 262.858 232.112 261.291 232.486 260.593C232.615 260.352 232.758 260.192 232.803 260.237C233.004 260.438 231.575 262.781 230.773 263.567C229.675 264.644 228.392 265.42 225.547 266.728C222.126 268.301 219.534 269.618 218.79 270.163C216.944 271.515 216.053 272.657 215.38 274.534C215.015 275.555 214.836 276.963 215.072 276.963C215.394 276.963 216.102 276.132 217.042 274.649C217.547 273.854 218.342 272.824 218.809 272.362C219.809 271.372 222.402 269.623 223.737 269.037C224.933 268.512 226.589 267.888 226.469 268.008C226.419 268.058 225.387 268.838 224.176 269.741C219.065 273.554 217.39 275.948 216.841 280.23C216.5 282.884 216.891 286.846 217.651 288.436C218.704 290.641 218.6 291.513 217.167 292.491C215.122 293.885 211.257 297.462 211.516 297.72C211.59 297.794 212.019 297.576 212.47 297.236C213.483 296.47 215.799 295.37 217.232 294.974C220.672 294.021 223.026 292.686 223.637 291.341C224.401 289.662 223.974 288.515 222.321 287.801C220.633 287.073 219.563 285.536 219.563 283.84C219.563 282.756 219.985 282.216 221.443 281.44C222.659 280.793 223.019 280.462 223.469 279.583C223.735 279.063 223.75 279.193 223.665 281.318C223.552 284.16 223.72 284.941 224.463 285.027C224.879 285.076 225.131 284.934 225.61 284.38C228.013 281.598 230.429 279.543 232.979 278.113L234.137 277.464L233.634 278.129C231.389 281.098 228.829 285.211 228.829 285.848C228.829 286.211 229.299 286 230.542 285.079C232.315 283.766 233.86 282.102 237.363 277.734C240.19 274.209 243.307 270.834 243.307 271.298C243.307 271.412 243.126 271.668 242.904 271.869C242.214 272.492 240.545 274.832 238.925 277.445C235.52 282.938 234.206 284.586 231.091 287.264C229.971 288.226 229.764 288.686 230.264 289.1C230.482 289.281 230.615 289.256 230.896 288.979C231.091 288.786 231.564 288.463 231.946 288.26C232.592 287.918 232.692 287.913 233.389 288.191C233.883 288.388 234.137 288.611 234.137 288.848C234.137 289.321 234.57 289.585 234.899 289.312C235.042 289.194 235.211 288.818 235.276 288.477C235.603 286.742 238.738 281.688 240.505 280.048C240.952 279.632 240.916 279.743 240.243 280.851C239.813 281.558 239.403 282.382 239.331 282.683C239.259 282.984 239.134 283.316 239.054 283.422C238.733 283.847 237.317 290.137 237.177 291.763C237.066 293.043 237.368 292.988 238.191 291.579C238.51 291.034 238.879 290.552 239.012 290.508C239.446 290.364 239.284 292.992 238.75 294.75C238.398 295.911 240.281 293.508 241.055 291.81C241.528 290.771 242.292 287.964 242.421 286.79C242.631 284.888 243.25 282.294 243.885 280.655C244.541 278.961 246.211 276.294 247.528 274.838L248.31 273.974L247.445 275.71C246.365 277.877 245.878 279.782 245.524 283.229C245.297 285.445 245.088 286.412 244.359 288.628C243.323 291.78 243.073 293.414 243.597 293.615C244.057 293.792 244.351 293.346 244.855 291.713C245.73 288.874 246.963 286.041 247.749 285.061L248.136 284.579L247.821 285.35C247.093 287.137 246.506 289.704 246.199 292.444C245.983 294.378 245.412 296.721 244.897 297.787C244.586 298.431 244.569 298.44 244.515 297.98C244.356 296.638 244.222 296.247 243.759 295.784C243.463 295.489 243.038 295.281 242.731 295.281C242.023 295.281 240.852 296.432 240.692 297.287C240.524 298.183 241.106 299.431 242.118 300.342C242.834 300.986 243.033 301.065 243.935 301.061C244.992 301.056 246.222 300.607 247.259 299.845C247.58 299.609 248.202 299.186 248.639 298.905L249.434 298.393L249.141 299.556C248.892 300.545 248.888 300.743 249.117 300.884C249.589 301.176 250.017 300.763 254.405 295.787L255.368 294.695L255.52 295.229C256.137 297.405 256.27 298.677 256.305 302.704L256.341 306.946L256.985 308.778C258.213 312.27 260.611 315.651 262.882 317.09C264.902 318.37 265.12 318.03 263.349 316.361C262.693 315.743 261.756 314.845 261.267 314.365C259.695 312.822 257.918 308.504 258.369 307.32C258.462 307.077 259.548 305.897 260.783 304.698C262.947 302.598 264.004 301.225 265.49 298.58C266.259 297.211 266.758 296.946 267.302 297.618C267.856 298.3 268.659 299.982 269.363 301.933C270.715 305.675 273.525 310.331 274.271 310.065C274.62 309.941 274.448 309.048 273.848 307.865C272.013 304.254 271.484 303.083 269.99 299.33C268.879 296.54 268.346 294.951 268.36 294.472C268.401 293.13 269.177 292.015 272.696 288.243C275.721 285.002 275.801 284.962 279.214 284.999C282.238 285.033 283.525 285.492 286.806 287.708C289.785 289.719 290.502 290.75 289.815 292.034C289.625 292.387 289.649 292.411 290.056 292.287C291.127 291.961 291.762 290.926 291.762 289.506C291.762 288.97 291.842 288.532 291.941 288.532C292.182 288.532 292.599 286.473 292.441 286.063C292.333 285.781 292.27 285.801 291.958 286.214L291.599 286.689L291.663 286.02C291.698 285.652 291.745 285.264 291.767 285.158C291.789 285.052 291.797 284.686 291.784 284.345C291.767 283.876 291.69 283.751 291.47 283.835C291.31 283.897 291.129 284.146 291.068 284.39C290.969 284.784 290.89 284.814 290.346 284.663C290.01 284.57 289.428 284.144 289.053 283.717C288.29 282.846 287.8 282.73 287.596 283.373C287.322 284.235 287.474 284.95 288.034 285.431L288.576 285.898L287.997 285.761C287.083 285.544 286.742 284.988 286.742 283.714C286.742 283.102 286.876 282.282 287.039 281.891C287.335 281.184 287.334 281.179 286.704 280.591C286.154 280.078 285.063 279.488 283.75 278.995C283.538 278.916 283.06 278.807 282.688 278.754L282.013 278.658L282.545 279.079C282.837 279.31 283.177 279.688 283.3 279.918C283.489 280.272 283.481 280.303 283.251 280.117C282.832 279.778 281.541 279.084 281.331 279.084C281.01 279.084 281.126 279.586 281.53 279.952C281.961 280.341 282.036 281.009 281.688 281.356C281.297 281.746 281.652 281.827 282.721 281.591C284.157 281.274 284.682 281.508 285.067 282.638C285.232 283.122 285.295 283.519 285.207 283.519C285.119 283.519 285 283.4 284.945 283.254C284.788 282.847 283.228 282.169 282.448 282.169C282.064 282.169 280.636 282.421 279.275 282.729C275.341 283.62 275.526 283.593 276.434 283.133C278.099 282.289 278.65 281.169 277.536 280.89C276.959 280.745 274.868 281.285 274.025 281.797C273.688 282.002 273.363 282.169 273.303 282.169C273.109 282.169 274.229 280.369 275.004 279.434C275.416 278.938 276.01 278.418 276.325 278.279C276.64 278.14 276.897 277.955 276.897 277.869C276.897 277.652 275.411 277.022 274.502 276.855L273.748 276.716L274.258 276.449C274.813 276.159 274.961 275.777 275.023 274.477C275.062 273.654 275.038 273.617 274.194 273.181C273.561 272.853 273.439 272.731 273.744 272.727C274.993 272.711 275.047 272.268 274.017 270.507C272.555 268.008 272.053 267.68 269.701 267.678C268.423 267.678 268.069 267.754 267.325 268.189C266.589 268.62 266.459 268.783 266.509 269.217C266.555 269.61 266.797 269.857 267.534 270.258L268.499 270.784L267.791 270.788C267.274 270.792 266.855 270.975 266.246 271.465C263.204 273.911 259.861 275.131 255.662 275.328L253.828 275.414L254.793 275.112C257.148 274.375 259.689 273.352 260.488 272.819C261.565 272.1 261.745 271.379 260.974 270.874C260.555 270.6 260.167 270.563 258.667 270.652C257.031 270.749 256.767 270.716 255.844 270.288C253.664 269.279 251.733 267.597 249.675 264.912C246.793 261.154 244.413 258.722 242.196 257.273C241.161 256.596 240.228 255.971 240.122 255.884C240.016 255.797 239.19 255.26 238.288 254.691C230.305 249.659 227.184 247.5 224.195 244.942C223.085 243.991 220.21 242.06 218.887 241.377C218.462 241.157 217.376 240.608 216.474 240.155C215.571 239.703 214.613 239.216 214.345 239.074C213.18 238.454 207.808 236.579 207.65 236.736C207.588 236.799 207.89 237.231 208.321 237.699C209.435 238.906 209.808 239.685 209.547 240.258C209.332 240.728 208.933 240.827 207.594 240.738C206.27 240.651 205.46 240.301 204.267 239.303C201.842 237.276 198.601 234.929 198.227 234.929C198.013 234.929 198.17 235.445 198.52 235.893C198.958 236.452 199.029 237.243 198.641 237.243C197.948 237.243 195.244 236.153 192.536 234.782C189.652 233.322 186.752 231.716 186.552 231.468C186.498 231.403 185.847 230.924 185.104 230.406C184.36 229.887 183.44 229.196 183.059 228.87C180.369 226.57 179.413 225.689 177.185 223.462C175.803 222.08 173.926 220.125 173.014 219.118C171.563 217.514 167.299 212.298 166.143 210.713C165.909 210.393 165.749 210.249 165.66 210.254ZM279.793 229.061C278.3 229.055 278.038 229.113 276.897 229.702C276.084 230.122 274.996 230.974 273.808 232.122C272.8 233.096 271.714 234.058 271.395 234.261C270.658 234.729 268.029 234.852 267.259 234.454C266.81 234.222 266.56 234.246 265.149 234.654C262.955 235.289 260.366 235.577 258.202 235.428C256.783 235.331 256.416 235.357 256.48 235.55C256.626 235.996 260.217 236.691 263.094 236.832C266.251 236.987 266.64 236.96 268.693 236.44C270.734 235.923 271.798 235.371 274.001 233.689C276.901 231.475 279.816 230.301 282.412 230.301C283.98 230.301 284.005 229.989 282.483 229.444C281.765 229.187 280.916 229.066 279.793 229.061ZM280.416 237.595C280.261 237.576 279.741 237.741 279.162 237.999C277.596 238.698 276.039 238.985 272.843 239.162C270.763 239.277 270.057 239.391 269.345 239.73C268.45 240.155 267.476 241.008 267.667 241.199C267.723 241.255 268.324 241.039 269.003 240.718C270.362 240.076 271.126 239.985 271.49 240.422C272.179 241.251 270.476 242.785 267.82 243.727C266.943 244.039 266.28 244.384 266.28 244.53C266.28 244.725 266.497 244.755 267.197 244.656C271.731 244.013 274.964 242.741 277.452 240.62C279.207 239.124 280.558 237.774 280.46 237.615C280.453 237.604 280.439 237.598 280.416 237.595ZM243.24 242.871C241.906 242.863 240.529 242.962 240.471 243.135C240.43 243.26 241.286 243.472 242.666 243.679C243.966 243.873 245.556 244.258 246.402 244.584C247.841 245.138 253.404 247.882 253.867 248.265C254.287 248.614 256.883 249.795 257.583 249.956C258.43 250.151 259.115 250.023 259.619 249.576C260.986 248.366 263.69 247.461 266.81 247.168C267.58 247.096 268.21 246.968 268.21 246.884C268.21 246.558 265.453 246.26 262.033 246.214C258.125 246.163 256.706 245.94 252.187 244.667C249.814 243.999 247.27 243.387 245.3 243.011C244.825 242.92 244.04 242.876 243.24 242.871ZM289.72 274.13C289.712 274.13 289.706 274.13 289.702 274.136C289.669 274.168 290.035 274.995 290.515 275.973C291.494 277.972 292.259 279.86 292.928 281.935C293.365 283.292 293.369 283.36 293.044 283.91C292.725 284.449 292.725 284.517 293.037 285.174C293.317 285.763 293.326 285.894 293.096 286.036C292.869 286.177 292.887 286.32 293.21 286.921C293.738 287.904 293.685 289.596 293.092 290.649C292.852 291.075 292.581 291.424 292.49 291.424C292.399 291.424 292.133 291.604 291.899 291.823C291.664 292.042 291.06 292.447 290.555 292.721C289.709 293.182 289.422 293.651 289.771 294C289.933 294.161 289.794 294.228 291.724 293.063C293.101 292.233 293.387 291.966 293.79 291.135C294.323 290.037 294.358 289.526 294.164 285.64C294.004 282.408 293.556 280.554 292.342 278.099C291.666 276.731 289.959 274.157 289.72 274.13ZM237.763 296.902C237.659 296.894 237.546 296.943 237.421 297.048C237.254 297.19 237.011 297.395 236.882 297.504C235.228 298.908 230.853 300.882 226.995 301.964C224.366 302.701 220.808 303.506 219.08 303.753C218.23 303.875 217.099 304.059 216.566 304.163C213.833 304.696 210.86 304.876 205.616 304.828C201.504 304.79 199.781 304.7 198.617 304.464C196.723 304.079 196.59 304.078 196.59 304.437C196.59 304.97 198.093 305.677 200.485 306.269C201.794 306.592 203.081 306.95 203.346 307.064L203.828 307.27L202.918 308.006L204.194 308.031C205.739 308.06 205.787 308.066 205.969 308.247C206.049 308.327 204.514 308.395 202.558 308.399C200.003 308.404 198.875 308.477 198.548 308.658L198.093 308.91L198.623 309.326C199.246 309.816 200.706 310.279 202.169 310.451C202.998 310.548 203.151 310.617 202.917 310.788C202.755 310.906 202.623 311.245 202.623 311.542C202.623 311.861 202.416 312.296 202.116 312.609C201.837 312.9 201.609 313.237 201.609 313.359C201.609 313.678 202.816 313.858 203.985 313.715L204.988 313.591L204.505 313.976C204.24 314.188 203.957 314.363 203.878 314.365C203.798 314.369 203.733 314.49 203.733 314.637C203.733 314.832 204.089 314.924 205.036 314.978C205.866 315.025 206.623 315.2 207.124 315.46C207.835 315.83 207.968 315.844 208.545 315.601C209.382 315.25 210.489 315.248 210.489 315.597C210.489 315.743 209.946 316.219 209.283 316.656L208.076 317.451L208.848 317.447C209.698 317.447 212.566 316.992 213.487 316.715C214.45 316.425 215.538 315.802 216.763 314.839C218.887 313.17 221.493 312.256 221.493 313.18C221.493 313.663 221.011 314.062 219.706 314.659C219.1 314.936 218.561 315.234 218.507 315.321C218.391 315.509 219.057 315.71 219.809 315.714C221.373 315.721 225.12 313.489 226.968 311.45C229.04 309.163 229.388 308.849 230.391 308.356C232.19 307.474 232.745 307.271 234.234 306.947C236.217 306.516 237.421 305.928 238.682 304.775C240.502 303.11 241.327 300.829 240.408 299.998C240.029 299.656 240.001 299.658 239.439 300.073C238.777 300.562 238.815 300.62 238.485 298.615C238.297 297.47 238.073 296.923 237.763 296.899V296.902ZM245.026 302.712C245.01 302.712 244.994 302.712 244.975 302.712C244.653 302.744 243.764 303.278 241.436 304.798C238.725 306.568 237.83 307.021 235.428 307.833C233.733 308.406 232.714 308.95 232.076 309.623C231.511 310.219 230.523 312.244 230.644 312.558C230.759 312.857 232.465 311.902 234.329 310.496C235.348 309.728 235.938 309.591 236.808 309.922C237.187 310.066 237.355 310.025 237.631 309.72C237.954 309.364 238.651 308.987 239.525 308.696C239.761 308.617 240.175 308.762 240.683 309.101C241.226 309.464 241.715 309.627 242.245 309.621C243.175 309.611 244.997 309.275 245.193 309.077C245.346 308.923 245.277 303.019 245.119 302.764C245.1 302.734 245.071 302.716 245.026 302.712ZM267.857 302.813C267.743 302.821 267.624 303.058 267.5 303.523C267.124 304.945 267.326 306.013 268.251 307.476C269.089 308.803 269.499 308.637 268.904 307.211C268.756 306.853 268.523 305.714 268.388 304.68C268.224 303.422 268.047 302.799 267.857 302.813ZM247.176 303.234C246.494 303.279 245.727 307.392 245.862 310.433C245.971 312.915 246.097 313.285 246.604 312.614C246.892 312.233 246.971 312.206 247.067 312.458C247.131 312.624 247.093 312.998 246.983 313.289C246.703 314.025 246.732 314.807 247.058 315.249C247.33 315.618 247.335 315.618 247.459 315.237C247.528 315.025 247.708 314.621 247.859 314.34C248.01 314.058 248.133 313.533 248.133 313.173C248.133 312.292 248.475 311.956 248.941 312.378C249.418 312.809 249.397 314.084 248.893 315.221C248.311 316.536 248.454 316.855 249.291 316.107C249.736 315.709 249.949 315.359 249.917 315.081C249.841 314.424 250.172 314.035 250.589 314.293C251.108 314.614 251.135 315.606 250.636 316.07C250.408 316.282 250.251 316.595 250.287 316.766C250.342 317.025 250.474 316.99 251.089 316.551C251.627 316.168 252.086 315.519 252.796 314.138C253.68 312.419 253.817 312.248 254.316 312.248C254.693 312.248 254.902 312.368 254.986 312.633C255.148 313.141 254.962 313.405 254.442 313.405C254.099 313.405 253.745 313.881 252.619 315.855C251.136 318.454 251.027 318.887 251.533 320.15C251.88 321.016 252.076 321.107 252.38 320.54C252.643 320.049 253.272 320.042 253.532 320.527C253.642 320.732 253.732 321.29 253.732 321.768C253.732 322.756 254.055 323.775 254.286 323.512C254.371 323.415 254.592 322.922 254.778 322.417C255.073 321.617 255.527 321.118 255.96 321.118C256.032 321.118 256.029 321.443 255.954 321.841C255.619 323.601 255.517 324.773 255.645 325.38C255.781 326.021 255.787 326.012 255.923 325.015C256.092 323.786 256.355 323.046 256.622 323.046C256.731 323.046 256.821 323.285 256.823 323.576C256.827 324.642 257.075 325.588 257.379 325.702C257.823 325.866 258.238 326.499 258.461 327.351C258.67 328.146 259.002 328.318 259.102 327.682C259.202 327.047 259.871 327.201 260.321 327.963C260.54 328.334 260.794 328.638 260.884 328.638C261.046 328.638 261.45 327.432 261.452 326.945C261.452 326.809 261.671 326.183 261.936 325.553C262.731 323.667 262.572 322.724 260.75 318.515L259.916 316.587L259.893 318.804C259.865 321.562 259.65 322.55 259.473 320.732C259.279 318.751 258.634 316.902 258.041 316.632C257.595 316.429 257.498 316.464 257.071 316.979L256.598 317.551L256.724 316.876C256.793 316.505 256.986 315.829 257.153 315.375C257.399 314.706 257.415 314.41 257.237 313.815C256.765 312.243 255.183 310.718 254.311 310.995C253.882 311.131 253.595 310.662 252.962 308.787C252.67 307.921 252.586 307.342 252.676 306.813C252.855 305.754 252.372 305.029 251.59 305.185C251.165 305.27 251.029 305.225 251.029 305C251.029 304.837 250.934 304.526 250.818 304.309C250.614 303.928 250.586 303.936 249.934 304.563C248.831 305.624 248.451 306.875 248.693 308.653C248.87 309.958 248.727 309.868 248.123 308.296C247.817 307.5 247.644 306.541 247.568 305.226C247.502 304.08 247.371 303.284 247.242 303.242C247.22 303.235 247.198 303.232 247.176 303.234ZM264.011 304.345C263.595 304.354 263.099 304.469 262.712 304.724C261.93 305.239 260.296 306.86 260.296 307.121C260.296 307.237 260.77 307.852 261.351 308.489C261.931 309.125 262.462 309.896 262.53 310.201C262.638 310.689 264.656 313.002 264.802 312.805C264.832 312.764 264.938 312.383 265.038 311.959C265.189 311.313 265.296 311.188 265.7 311.188C266.147 311.188 266.579 311.779 267.112 313.116C267.154 313.222 267.38 313.139 267.614 312.932C268.213 312.4 268.493 312.643 269.438 314.514C269.877 315.384 270.355 316.098 270.499 316.101C270.673 316.105 270.727 315.958 270.661 315.671C270.346 314.305 270.325 314.012 270.534 313.883C270.934 313.636 271.324 314.29 271.814 316.032C272.079 316.974 272.469 318.026 272.682 318.372C273.067 318.996 273.56 319.054 273.326 318.448C273.259 318.273 273.069 317.088 272.905 315.816C272.741 314.543 272.44 313.058 272.238 312.516C271.844 311.461 271.114 310.617 270.965 311.043C270.78 311.573 268.752 311.169 267.878 310.429C267.583 310.179 266.865 309.173 266.282 308.194C265.17 306.326 264.628 305.791 264.064 306.007C263.771 306.119 263.754 306.082 263.942 305.732C264.061 305.509 264.341 305.199 264.564 305.043C265.179 304.613 264.705 304.331 264.011 304.345ZM274.872 306.507C274.864 306.506 274.858 306.507 274.855 306.511C274.713 306.653 279.647 311.333 281.463 312.779C282.328 313.467 283.368 314.217 283.773 314.444C284.723 314.976 285.19 315.746 284.827 316.183C284.525 316.546 283.797 316.583 283.282 316.262C283 316.086 282.741 316.086 282.152 316.262C281.732 316.388 281.302 316.49 281.197 316.49C281.092 316.49 280.677 315.996 280.276 315.392C279.875 314.789 279.232 313.955 278.849 313.54L278.152 312.786L278.055 313.431C277.917 314.354 277.38 314.392 276.958 313.509C276.543 312.641 275.916 312.451 275.034 312.925C274.678 313.117 274.382 313.325 274.376 313.387C274.37 313.45 274.332 314.391 274.292 315.478C274.226 317.279 274.361 317.917 274.65 317.165C274.85 316.644 275.329 316.855 275.521 317.55C275.76 318.414 276.728 319.945 277.042 319.954C277.174 319.958 277.283 319.939 277.281 319.913C277.281 319.886 277.15 319.387 276.993 318.804C276.652 317.533 276.661 317.647 276.899 317.647C277.006 317.647 277.361 318.081 277.688 318.612C278.469 319.881 279.019 320.032 279.865 319.213C280.435 318.662 280.521 318.634 280.865 318.894C281.408 319.304 282.113 319.253 282.633 318.766C283.061 318.364 283.113 318.358 283.61 318.652C283.9 318.822 284.484 319.025 284.908 319.102C285.996 319.299 287.707 319.954 287.707 320.173C287.707 320.274 287.447 320.408 287.128 320.472C286.713 320.555 286.549 320.698 286.549 320.979C286.549 321.474 287.442 322.66 287.814 322.66C287.968 322.66 288.094 322.728 288.094 322.81C288.094 322.891 288.376 323.111 288.721 323.298C289.066 323.485 289.816 324.071 290.388 324.601C290.96 325.131 291.473 325.519 291.528 325.464C291.583 325.409 291.485 324.919 291.309 324.376C290.93 323.204 290.894 322.1 291.23 321.995C292.95 321.456 294.419 321.126 295.534 321.029C296.748 320.922 296.965 320.958 297.556 321.356C298.831 322.213 299.059 323.463 298.041 324.008C297.44 324.328 297.414 324.898 297.972 325.492C298.517 326.071 298.904 326.062 298.904 325.469C298.904 324.691 299.214 324.114 300.061 323.32C300.504 322.904 300.995 322.319 301.152 322.019C301.406 321.537 301.406 321.424 301.152 321.036C300.994 320.796 300.576 320.492 300.223 320.36C299.219 319.988 299.006 319.847 298.939 319.509C298.903 319.322 299.06 319.123 299.326 319.02C300.181 318.688 303.887 317.987 304.098 318.117C304.215 318.189 304.31 318.533 304.31 318.881C304.31 319.453 304.385 319.537 305.086 319.747C305.513 319.874 305.936 319.934 306.025 319.878C306.115 319.823 306.234 319.19 306.29 318.471C306.345 317.753 306.449 317.025 306.52 316.854C306.61 316.636 306.468 316.428 306.05 316.163C305.022 315.514 302.761 315.856 301.995 316.778C301.853 316.949 301.57 317.178 301.367 317.287C301.041 317.461 301.023 317.44 301.203 317.104C301.712 316.153 303.332 315.159 304.44 315.119C305.638 315.074 305.796 315.115 306.419 315.64C307.11 316.221 307.21 315.969 306.578 315.238C305.961 314.523 304.816 314.306 303.513 314.658C301.716 315.143 301.607 315.182 301.607 315.337C301.607 315.42 301.343 315.581 301.02 315.693C300.578 315.847 300.415 315.84 300.362 315.664C300.324 315.535 300.25 315.294 300.198 315.129C299.981 314.442 297.494 314.14 296.429 314.671C295.401 315.183 295.525 315.333 296.972 315.333C298.54 315.333 299.405 315.678 299.685 316.416C299.978 317.184 299.923 317.518 299.532 317.352C298.275 316.815 297.349 316.707 296.404 316.988C295.263 317.326 294.432 317.982 294.005 318.881C293.722 319.475 293.592 319.552 292.679 319.664C291.048 319.864 290.246 320.291 290.107 321.032C290.041 321.379 290.046 321.844 290.116 322.065C290.272 322.556 290.063 322.572 289.156 322.14C288.309 321.737 288.13 321.154 288.606 320.349C288.955 319.76 288.953 319.734 288.544 318.987C288.077 318.137 288.091 318.13 289.671 318.456C290.926 318.715 291.516 318.539 292.685 317.557C293.671 316.728 293.448 316.385 292.428 317.163C291.655 317.752 291.44 317.823 290.641 317.757C290.142 317.716 289.36 317.533 288.905 317.351C288.161 317.054 288.113 316.997 288.424 316.783C288.614 316.652 289.096 316.439 289.494 316.31C290.144 316.099 290.494 315.719 290.039 315.719C289.94 315.719 289.18 315.625 288.35 315.509C286.968 315.317 286.684 315.195 285.006 314.071C282.917 312.672 280.409 310.759 278.556 309.153C277.387 308.14 275.11 306.51 274.872 306.507ZM265.13 318.63C264.779 318.634 264.557 319.005 264.379 319.723C263.422 323.579 263.361 324.03 263.586 325.517C263.839 327.181 264.103 327.867 264.492 327.867C264.698 327.867 264.733 327.719 264.634 327.269C264.441 326.387 264.862 325.104 265.467 324.738C265.936 324.453 266.026 324.456 266.658 324.778C267.491 325.203 268.571 326.506 268.811 327.376C269.066 328.296 268.79 328.846 267.329 330.333C266.63 331.045 265.975 331.777 265.875 331.96C265.609 332.442 265.868 333.295 266.431 333.796C266.91 334.222 267.631 334.385 267.631 334.068C267.631 333.98 267.363 333.669 267.035 333.377C266.341 332.76 266.377 332.238 267.183 331.18C267.82 330.343 267.914 330.479 267.406 331.505C267.108 332.107 267.056 332.383 267.214 332.541C267.372 332.698 267.522 332.671 267.778 332.439C268.408 331.87 269.576 331.502 270.585 331.556C271.375 331.598 271.597 331.538 271.766 331.239C272.765 329.468 272.856 329.371 273.388 329.503C273.672 329.573 274.634 329.971 275.524 330.388C276.415 330.804 277.208 331.145 277.286 331.145C277.365 331.145 277.385 330.758 277.332 330.286C277.24 329.47 277.262 329.422 277.79 329.291C278.095 329.215 278.759 328.869 279.266 328.522C280.59 327.615 282.06 326.96 283.837 326.485C285.187 326.124 285.493 326.1 286.185 326.308C286.623 326.439 287.176 326.756 287.415 327.013C287.653 327.27 287.988 327.481 288.157 327.481C288.506 327.481 288.877 328.075 289.049 328.912C289.251 329.89 289.64 329.747 289.623 328.702C289.604 327.471 289.307 326.713 288.439 325.677C287.742 324.845 287.692 324.822 286.614 324.83C286.004 324.834 285.067 324.954 284.531 325.096C283.995 325.239 283.166 325.351 282.688 325.345C281.924 325.336 282.098 325.255 284.129 324.673C285.399 324.308 286.596 324.01 286.791 324.01C286.985 324.01 287.49 324.187 287.914 324.403C288.668 324.787 288.68 324.787 288.449 324.417C288.318 324.209 287.9 323.864 287.519 323.65C286.948 323.33 286.69 323.292 286.06 323.438C285.018 323.679 284.812 323.668 284.812 323.367C284.812 323.225 284.212 322.531 283.479 321.824C281.525 319.94 280.964 320.03 279.118 322.523C278.821 322.925 278.191 323.646 277.718 324.125L276.858 324.996L274.723 324.88C272.378 324.753 272.421 324.717 273.539 325.867C273.953 326.293 274.999 326.902 275.316 326.902C275.413 326.902 275.808 326.688 276.194 326.426C276.581 326.164 277.02 325.998 277.172 326.056C277.337 326.119 277.588 325.944 277.8 325.616C278.631 324.329 279.72 323.122 280.468 322.661C281.273 322.164 282.329 322.014 282.768 322.335C283.057 322.546 282.953 322.609 281.978 322.81C280.584 323.098 279.965 323.644 279.197 325.268C278.617 326.494 277.602 327.532 276.178 328.355C275.557 328.714 275.555 328.714 275.053 328.243C274.042 327.296 271.651 327.84 270.373 329.308C269.415 330.409 269.299 329.326 270.228 327.958C270.842 327.053 270.841 326.994 270.172 326.326L269.624 325.779L270.076 325.573C270.612 325.329 270.654 324.859 270.189 324.335C269.861 323.965 269.866 323.957 270.386 324.053C271.284 324.218 271.142 323.931 269.84 322.949C269.155 322.432 268.021 321.33 267.318 320.498C266.249 319.232 265.582 318.626 265.13 318.63Z" fill="currentcolor"/>

</svg>
