<svg  viewBox="0 0 1180 580" fill="currentcolor" xmlns="http://www.w3.org/2000/svg">
<path d="M163.658 310.754C163.208 310.671 161.934 310.308 160.829 309.946C158.854 309.299 158.786 309.298 156.868 309.882C154.39 310.637 145.179 310.748 143.503 310.043C141.76 309.31 140.846 308.175 140.846 306.743C140.846 302.676 147.172 302.185 156.692 305.513C160.785 306.944 160.998 306.955 162.867 305.833C167.111 303.287 170.33 299.364 174.912 291.155C178.626 284.5 178.797 284.056 178.764 281.112C178.746 279.446 178.86 278.338 179.083 278.019C179.614 277.259 179.914 277.729 179.914 279.32C179.914 280.114 180.03 280.763 180.172 280.763C180.314 280.763 181.169 279.484 182.072 277.921C185.275 272.376 190.13 265.967 192.891 263.64L193.711 262.95L192.922 261.968C191.824 260.603 188.813 258.791 186.28 257.973C183.454 257.06 177.048 256.991 173.767 257.838C163.339 260.528 153.986 267.961 149.418 277.19C147.194 281.684 146.402 285.367 146.887 288.963C147.964 296.944 154.561 298.738 161.786 293.013C165.518 290.056 168.632 286.407 172.24 280.763C175.896 275.042 177.529 270.271 176.575 268.098C175.32 265.24 171.28 265.8 166.637 269.474C163.109 272.266 160.306 276.054 158.286 280.763C157.594 282.374 156.931 283.523 156.692 283.523C156.068 283.523 156.293 282.211 157.361 279.617C161.317 270.01 171.226 262.569 176.087 265.557C178.4 266.979 179.116 269.38 178.417 273.365C177.581 278.134 175.263 282.703 171.09 287.808C165.438 294.723 159.243 298.306 153.679 297.879C150.139 297.607 147.753 295.745 146.347 292.157C145.382 289.693 145.332 285.281 146.232 281.899C147.003 278.999 148.996 274.918 151.091 271.95C153.184 268.985 157.513 264.69 160.596 262.521L162.998 260.83L161.826 260.161C160.349 259.318 160.156 258.264 161.206 256.781C163.232 253.92 173.823 250.261 180.134 250.242C183.771 250.232 185.511 251.171 185.33 253.049C185.261 253.773 184.963 254.145 183.945 254.783C182.461 255.712 182.312 256.082 183.422 256.082C185.787 256.082 190.775 258.298 193.028 260.349C194.876 262.032 194.841 262.023 196.098 261.156C198.457 259.528 200.58 258.901 203.819 258.875C206.558 258.853 206.97 258.931 208.464 259.757C211.505 261.439 212.962 263.82 213.183 267.472C213.337 270.032 212.813 272.447 211.617 274.683C210.809 276.195 210.124 276.836 209.767 276.412C209.671 276.298 210.042 275.147 210.591 273.856C211.974 270.608 212.285 268.91 211.895 266.742C210.744 260.35 204.438 258.108 198.055 261.823C195.835 263.116 195.812 263.195 196.883 265.912C197.775 268.174 197.809 268.404 197.809 272.174C197.809 276.046 197.798 276.114 196.778 278.567C194.097 285.016 188.465 288.643 183.488 287.127C182.55 286.842 181.691 286.608 181.579 286.608C181.468 286.608 180.785 287.637 180.063 288.894C175.423 296.966 169.855 303.366 164.683 306.571C163.894 307.06 163.249 307.573 163.249 307.711C163.249 308.21 165.633 308.733 168.713 308.909C172.702 309.137 175.572 308.394 179.522 306.108C183.236 303.959 186.035 301.412 189.558 296.979C192.029 293.869 192.707 292.78 193.73 290.275C195.052 287.041 195.792 286.108 196.618 286.633C197.43 287.149 197.53 288.401 196.867 289.737C196.018 291.449 196.382 291.681 198.956 291.07C201.273 290.521 201.982 290.727 201.495 291.808C201.35 292.13 200.048 293.905 198.601 295.752C193.897 301.756 190.813 306.96 191.216 308.211C191.431 308.876 192.578 308.811 193.809 308.065C196.622 306.359 201.813 300.488 205.333 295.029C206.728 292.867 208.138 291.029 208.656 290.698C209.754 289.998 211.426 290.1 211.549 290.875C211.596 291.168 209.944 294.09 207.878 297.37C202.556 305.821 202.044 306.732 202.044 307.749C202.044 309.999 204.555 308.878 208.679 304.785C210.131 303.345 212.335 300.831 213.579 299.198C219.575 291.326 220.679 290.203 222.685 289.934C223.68 289.801 223.965 289.904 224.562 290.613C225.112 291.267 225.266 291.773 225.266 292.926C225.266 293.738 225.332 294.402 225.412 294.402C225.493 294.402 226.359 293.673 227.337 292.782C230.134 290.234 231.303 289.674 232.656 290.235C233.642 290.643 234.008 291.373 234.008 292.93C234.008 294.553 233.108 296.506 230.185 301.221C227.316 305.849 226.838 306.826 226.957 307.82C227.023 308.373 227.252 308.549 227.998 308.619C228.732 308.689 229.335 308.411 230.593 307.424C232.806 305.689 236.644 301.477 239.848 297.267C241.299 295.359 243.225 293.214 244.126 292.498C247.27 290.002 251.052 288.907 252.805 289.984C254.308 290.909 254.3 293.385 252.79 294.392C251.723 295.104 251.107 294.554 250.998 292.79C250.914 291.43 250.898 291.41 250.064 291.608C247.774 292.152 241.851 299.724 240.637 303.658C239.89 306.081 240.078 308.033 241.123 308.698C243.453 310.18 248.04 306.713 253.483 299.354C257.061 294.517 258.525 293.012 261.157 291.467C263.984 289.807 265.8 289.498 266.862 290.496C268.386 291.929 267.536 294.959 264.814 297.79C263.563 299.092 260.22 301.275 256.883 302.968C255.712 303.563 255.319 304.471 255.319 306.578C255.319 308.449 256.302 309.493 257.77 309.181C261.239 308.445 266.496 303.738 272.044 296.4C275.765 291.478 276.845 289.701 277.335 287.696C277.786 285.853 278.255 285.196 279 285.367C279.812 285.553 280.048 286.969 279.497 288.349L279.016 289.555L279.939 291.897C280.775 294.015 280.863 294.52 280.863 297.163C280.863 301.03 280.123 302.981 277.452 306.156C276.398 307.408 275.536 308.491 275.536 308.561C275.536 308.906 278.513 307.277 280.257 305.977C283.272 303.73 285.507 301.323 289.219 296.324C293.16 291.017 294.026 289.581 294.425 287.698C294.789 285.982 295.587 285.027 296.247 285.518C296.861 285.976 296.974 287.11 296.556 288.616C296.238 289.763 296.277 290.004 297.145 292.205C297.961 294.275 298.075 294.885 298.075 297.169C298.075 299.475 297.969 300.031 297.146 302.017C296.531 303.502 295.621 304.958 294.451 306.329C293.479 307.467 292.742 308.468 292.813 308.552C293.062 308.848 297.822 305.768 299.636 304.137C300.645 303.229 302.56 301.106 303.893 299.419C305.225 297.731 306.459 296.351 306.635 296.351C307.537 296.351 306.752 297.927 304.427 300.784C301.182 304.771 299.009 306.717 295.616 308.673C292.258 310.609 291.035 310.964 287.73 310.964C285.358 310.964 285.071 310.895 284.319 310.144C283.354 309.178 283.074 307.983 283.45 306.439C283.6 305.826 283.675 305.268 283.617 305.199C283.56 305.131 282.906 305.592 282.164 306.225C280.426 307.709 276.902 309.789 275.008 310.448C272.79 311.22 268.556 311.15 267.415 310.324C266.198 309.442 265.9 307.423 266.67 305.283C266.844 304.798 266.563 304.941 265.55 305.853C262.001 309.05 259.071 310.64 256.732 310.64C254.231 310.64 252.588 308.491 252.587 305.219C252.587 304.292 252.482 303.456 252.353 303.362C252.225 303.268 251.825 303.572 251.465 304.038C250.179 305.703 246.685 308.807 245.073 309.715C240.833 312.105 237.562 309.997 237.561 304.875C237.561 303.759 237.468 302.847 237.355 302.848C237.243 302.848 236.287 303.763 235.233 304.878C231.271 309.066 229.013 310.62 226.877 310.633C225.06 310.643 224.173 309.606 224.173 307.471C224.173 305.398 224.949 303.614 227.878 298.949C230.639 294.55 231.336 293.092 230.991 292.433C230.785 292.041 230.538 292.095 229.44 292.772C227.685 293.854 221.28 301.482 218.585 305.699C216.217 309.403 214.723 310.756 213.192 310.58C211.411 310.376 211.429 310.341 218.847 299.111C222.288 293.902 222.866 292.719 222.298 292.043C221.743 291.383 220.259 292.597 218.006 295.556C213.812 301.062 210.628 304.876 208.601 306.825C206.36 308.978 203.707 310.639 202.508 310.639C200.447 310.639 199.282 308.635 199.861 306.082C200.029 305.337 200.108 304.659 200.036 304.573C199.964 304.488 199.048 305.27 198 306.311C195.043 309.249 193.235 310.418 191.405 310.575C189.917 310.703 189.813 310.661 189.083 309.629C188.393 308.654 188.332 308.372 188.457 306.729C188.534 305.728 188.844 304.332 189.147 303.626C190.15 301.288 192.233 298.317 194.225 296.383C196.759 293.921 197.058 293.501 196.472 293.234C196.228 293.123 195.579 293.132 195.029 293.255C194.207 293.438 193.32 294.328 190.045 298.26C185.706 303.468 183.271 305.647 179.295 307.882C175.202 310.181 173.31 310.698 168.576 310.809C166.322 310.862 164.109 310.837 163.658 310.754ZM155.542 308.847C156.66 308.421 156.024 307.919 152.779 306.667C146.438 304.222 142.212 304.333 142.212 306.947C142.212 307.779 143.124 308.486 144.867 309.004C146.016 309.346 154.56 309.22 155.542 308.847ZM271.176 308.357C274.842 305.561 278.273 299.2 278.321 295.11C278.347 292.832 278.055 291.155 277.631 291.155C277.455 291.155 276.312 292.58 275.09 294.321C273.869 296.062 271.677 298.984 270.219 300.813C267.81 303.837 267.645 304.121 268.41 303.939C268.917 303.818 269.413 303.899 269.661 304.144C270.39 304.863 270.127 305.683 268.913 306.479C267.776 307.225 267.417 307.943 267.718 308.872C267.985 309.7 269.762 309.436 271.176 308.357ZM287.852 308.678C289.263 307.822 291.77 304.831 293.146 302.361C294.834 299.332 295.558 296.642 295.404 293.973C295.334 292.755 295.129 291.585 294.95 291.375C294.589 290.952 294.768 290.742 290.835 296.205C289.558 297.979 287.724 300.418 286.76 301.625C285.272 303.489 285.1 303.82 285.617 303.82C287.505 303.82 287.814 305.367 286.147 306.475C284.718 307.425 284.317 308.127 284.805 308.826C285.298 309.532 286.544 309.471 287.852 308.678ZM259.56 299.943C263.196 297.983 266.416 294.443 266.189 292.655C266.081 291.802 265.376 291.343 264.551 291.589C263.671 291.851 260.392 295.455 258.609 298.119C256.559 301.18 256.714 301.477 259.56 299.943ZM187.753 284.842C192.666 282.123 196.687 272.744 195.487 266.801C195.301 265.878 194.958 265.038 194.724 264.931C194.165 264.676 191.807 267.672 189.476 271.598C186.838 276.042 182.647 284.094 182.646 284.717C182.646 285.871 185.756 285.948 187.753 284.842ZM170.762 257.36C172.415 256.852 174.566 256.344 175.543 256.232C177.791 255.973 180.464 254.967 181.268 254.076C181.848 253.435 181.857 253.367 181.405 253.067C181.114 252.873 179.599 252.817 177.617 252.926C173.942 253.129 169.156 254.397 166.286 255.928C164.45 256.908 163.466 257.916 164.099 258.167C165.527 258.733 166.793 258.579 170.762 257.36ZM212.207 287.193C211.628 286.504 211.824 285.083 212.599 284.359C213.458 283.555 214.145 283.502 214.728 284.196C215.345 284.929 215.258 285.869 214.487 286.785C213.767 287.641 212.738 287.825 212.207 287.193ZM159.605 255.053C158.816 254.528 151.76 243.953 152.005 243.662C152.131 243.511 153.68 244.052 155.446 244.864C157.213 245.675 158.817 246.339 159.012 246.339C159.63 246.339 159.716 245.38 159.526 240.607C159.359 236.396 159.384 235.947 159.794 235.947C160.043 235.947 161.664 237.579 163.396 239.574C165.287 241.751 166.644 243.081 166.791 242.902C166.927 242.739 167.364 240.414 167.763 237.737C168.161 235.06 168.55 232.749 168.627 232.601C168.869 232.137 169.686 233.275 171.982 237.27C173.207 239.4 174.315 241.143 174.446 241.143C174.577 241.143 175.064 239.938 175.529 238.464C176.723 234.68 178.056 231.401 178.4 231.401C178.645 231.401 180.564 236.413 181.54 239.601C181.69 240.092 181.972 240.494 182.167 240.494C182.361 240.494 183.683 239.105 185.105 237.409C187.382 234.69 188.383 233.815 188.383 234.542C188.383 234.663 187.778 237.33 187.038 240.469C186.299 243.608 185.552 246.816 185.38 247.597L185.065 249.018L182.831 248.858C176.525 248.406 168.393 250.403 162.685 253.806C160.719 254.978 159.957 255.287 159.605 255.053ZM147.5 243.107C146.03 242.371 145.525 239.406 146.595 237.789C147.334 236.672 148.805 236.338 149.749 237.073C150.641 237.767 151.31 239.631 151.092 240.811C150.763 242.592 148.878 243.797 147.5 243.107ZM156.065 234.643C154.483 233.164 154.54 230.277 156.17 229.275C158.339 227.942 160.582 229.964 160.128 232.843C159.781 235.039 157.547 236.029 156.065 234.643ZM188.557 231.844C187.984 231.162 187.837 230.677 187.837 229.465C187.837 227.588 188.622 226.56 190.256 226.3C191.225 226.145 191.465 226.246 192.195 227.113C192.871 227.917 193.026 228.368 193.019 229.508C193.014 230.281 192.861 231.146 192.678 231.429C191.705 232.935 189.649 233.142 188.557 231.844ZM166.09 229.647C164.83 228.149 164.779 226.284 165.96 224.881C166.975 223.674 168.1 223.634 169.229 224.763C170.732 226.267 170.709 229.005 169.183 230.111C167.918 231.027 167.155 230.913 166.09 229.647ZM177.326 228.714C175.64 226.71 176.117 224.012 178.294 223.237C179.266 222.891 179.469 222.92 180.129 223.502C181.183 224.433 181.595 225.519 181.448 226.983C181.291 228.549 180.595 229.414 179.29 229.666C178.405 229.837 178.177 229.726 177.326 228.714Z" fill="currentcolor"/>

</svg>
