<svg  viewBox="0 0 1180 580" fill="currentcolor" xmlns="http://www.w3.org/2000/svg">
<path d="M209.168 331.099C208.965 330.155 208.923 330.117 208.359 330.374C207.917 330.575 207.81 330.546 207.444 330.122C207.217 329.858 206.882 329.67 206.701 329.705C206.52 329.74 206.194 329.674 205.978 329.558C205.66 329.388 205.604 329.401 205.69 329.625C205.839 330.011 205.056 330.232 204.671 329.912C204.504 329.774 204.071 329.686 203.709 329.717C203.259 329.756 203.015 329.68 202.937 329.477C202.874 329.314 202.525 329.005 202.161 328.79C201.797 328.575 201.499 328.281 201.499 328.136C201.499 327.953 201.321 327.899 200.917 327.958C200.25 328.056 199.664 327.503 199.452 326.576C199.355 326.153 199.239 326.048 198.952 326.123C198.36 326.278 197.512 325.42 197.218 324.37C197.075 323.861 196.779 323.299 196.56 323.122C195.794 322.502 195.942 317.856 196.768 316.597C197.051 316.165 197.084 316.159 197.433 316.473C197.716 316.729 197.754 316.889 197.602 317.173C197.389 317.57 196.969 320.825 197.112 320.968C197.16 321.016 197.326 320.813 197.481 320.518L197.763 319.98L197.914 320.452C197.996 320.712 198.08 321.622 198.1 322.475C198.122 323.471 198.247 324.233 198.448 324.607L198.761 325.188L198.895 324.549C198.996 324.066 199.21 323.817 199.77 323.532L200.512 323.154L200.634 323.88C200.818 324.978 201.121 325.867 201.311 325.867C201.404 325.867 201.558 325.728 201.653 325.559C201.755 325.376 202.011 325.277 202.282 325.316C202.748 325.384 202.857 325.632 203.139 327.272C203.207 327.672 203.356 327.999 203.47 327.999C203.586 327.999 203.63 327.808 203.57 327.563C203.512 327.323 203.41 326.903 203.343 326.63C203.246 326.229 203.314 326.092 203.699 325.917C204.167 325.704 204.182 325.725 204.493 326.995C204.902 328.666 205.19 329.377 205.402 329.246C205.495 329.189 205.444 328.838 205.289 328.466C205.014 327.809 205.019 327.786 205.497 327.604C206.147 327.357 206.108 327.337 206.254 327.999C206.324 328.319 206.42 328.581 206.466 328.581C206.513 328.581 206.799 328.303 207.103 327.964L207.655 327.346L207.791 328.25C207.956 329.354 208.211 329.555 208.532 328.834C208.665 328.535 208.928 328.121 209.115 327.914C209.303 327.707 209.456 327.468 209.456 327.381C209.456 327.295 209.544 327.224 209.65 327.224C209.759 327.224 209.845 327.747 209.845 328.407V329.59L210.531 328.988C211.261 328.348 211.579 328.259 211.919 328.598C212.071 328.75 212.285 328.614 212.685 328.113C213.277 327.372 213.802 327.219 213.998 327.729C214.108 328.016 214.157 328.016 214.594 327.729C215.202 327.332 215.6 327.334 215.825 327.735C215.98 328.011 216.086 327.973 216.649 327.436C217.444 326.677 218.048 326.697 218.188 327.487L218.287 328.042L218.674 327.613C218.888 327.377 219.309 327.057 219.61 326.901C220.281 326.554 220.708 326.818 220.721 327.587C220.729 328.056 220.828 327.992 221.962 326.788C223.252 325.418 223.437 325.312 223.794 325.742C224.292 326.341 220.77 329.841 219.306 330.201C218.657 330.361 218.635 330.172 219.162 328.968L219.544 328.096L218.624 329.092C218.118 329.639 217.464 330.238 217.171 330.422C216.537 330.82 216.513 330.709 216.913 329.211C217.062 328.651 217.157 328.193 217.123 328.193C217.09 328.193 216.843 328.564 216.575 329.017C216.307 329.47 215.763 330.146 215.367 330.519L214.646 331.198L214.777 330.325C214.85 329.846 214.958 329.235 215.017 328.968C215.113 328.536 215.076 328.554 214.668 329.135C214.417 329.494 213.952 330.094 213.635 330.469L213.059 331.151L212.885 330.496C212.73 329.91 212.688 329.878 212.491 330.192C212.37 330.386 212.035 330.811 211.746 331.137L211.222 331.73L211.095 331.222C211.024 330.942 211.026 330.473 211.099 330.18C211.212 329.722 211.095 329.797 210.272 330.712L209.314 331.777L209.168 331.099ZM224.078 327.477C223.553 327.375 223.518 327.443 226.021 323.665C227.833 320.93 227.956 320.791 228.468 320.893C228.948 320.989 229.046 320.917 229.349 320.246C229.536 319.831 229.894 319.299 230.144 319.064C230.521 318.711 230.65 318.68 230.896 318.884C231.149 319.094 231.238 319.019 231.503 318.379C231.953 317.29 232.326 316.935 232.873 317.072C233.251 317.167 233.589 316.945 234.761 315.833C237.038 313.673 239.313 312.292 240.581 312.301C240.808 312.304 241.212 312.414 241.479 312.55C241.911 312.77 242.054 312.736 242.793 312.24C245.748 310.255 247.883 309.807 247.883 311.173C247.883 311.365 247.913 311.522 247.949 311.522C247.986 311.522 249.492 310.995 251.297 310.35C256.339 308.548 258.497 308.048 258.84 308.601C258.905 308.706 259.174 308.666 259.482 308.506C260.292 308.084 260.828 308.165 261.281 308.777C261.687 309.324 261.692 309.325 262.674 309.071C263.748 308.793 264.486 308.882 264.65 309.311C264.815 309.738 265.063 309.642 265.919 308.821C266.357 308.401 266.892 308.001 267.109 307.932C267.545 307.794 268.067 308.126 268.067 308.541C268.067 308.909 268.198 308.882 269.158 308.32C269.67 308.021 270.495 307.178 271.295 306.139C273.084 303.814 273.137 303.779 273.52 304.638L273.83 305.333L274.332 304.212C274.609 303.595 275.07 302.436 275.357 301.636C276.058 299.683 276.402 299.451 276.936 300.57C277.114 300.943 277.315 301.249 277.382 301.249C277.606 301.249 278.112 299.985 278.354 298.821C278.501 298.11 278.544 297.135 278.464 296.262C278.394 295.486 278.378 294.852 278.429 294.852C278.479 294.852 278.895 295.51 279.353 296.314C280.005 297.458 280.216 297.7 280.323 297.428C280.542 296.875 280.484 294.325 280.21 292.429C280.071 291.469 279.985 290.652 280.018 290.613C280.052 290.574 280.407 290.812 280.806 291.141C281.206 291.47 281.569 291.704 281.612 291.661C281.655 291.618 281.594 290.701 281.477 289.623C281.36 288.546 281.264 287.434 281.264 287.153V286.643L282.261 287.578L282.135 285.351C282.066 284.126 281.973 283.008 281.928 282.866C281.867 282.673 281.992 282.641 282.429 282.736C282.975 282.856 283.011 282.828 283.011 282.281C283.011 281.596 282.651 278.83 282.493 278.297C282.409 278.015 282.457 277.958 282.697 278.055C283.727 278.469 283.662 278.552 283.543 276.976C283.477 276.099 283.24 275.036 282.953 274.326L282.473 273.141H283.324C283.792 273.141 284.175 273.054 284.175 272.948C284.175 272.842 283.989 271.704 283.762 270.42C283.535 269.137 283.394 268.041 283.45 267.985C283.505 267.93 283.867 268.016 284.252 268.177C284.941 268.465 284.952 268.462 284.86 268.043C284.672 267.189 284.367 264.55 284.447 264.469C284.492 264.424 284.758 264.537 285.038 264.72C285.317 264.903 285.586 265.012 285.635 264.962C285.685 264.913 285.592 263.799 285.43 262.487C285.267 261.174 285.18 260.055 285.236 259.999C285.292 259.943 285.563 259.999 285.838 260.124C286.279 260.325 286.326 260.312 286.24 260.01C285.986 259.122 284.951 255.121 284.951 255.026C284.951 254.968 285.122 254.92 285.331 254.92C285.689 254.92 285.678 254.845 285.137 253.642C284.822 252.939 284.563 252.328 284.563 252.285C284.563 252.241 284.782 252.206 285.048 252.206C285.483 252.206 285.534 252.127 285.534 251.445C285.534 250.712 285.664 250.559 289.122 247.229C291.095 245.329 292.907 243.708 293.149 243.627C293.39 243.546 294.668 243.128 295.988 242.697C299.907 241.419 302.124 240.112 303.753 238.118C304.615 237.064 305.717 234.984 305.717 234.413C305.717 234.163 305.766 234.149 305.96 234.344C306.12 234.504 306.196 235.158 306.183 236.272C306.167 237.629 306.06 238.21 305.638 239.244C305.349 239.951 304.921 240.708 304.687 240.928C304.128 241.452 301.247 243.092 299.895 243.655C298.192 244.365 295.244 245.97 293.926 246.907C292.617 247.836 290.669 249.704 289.141 251.494L288.189 252.611L289.287 256.549C289.891 258.714 290.385 260.552 290.385 260.631C290.385 260.711 290.257 260.727 290.1 260.667C289.89 260.587 289.945 260.848 290.307 261.664C291.054 263.343 291.711 265.781 291.86 267.43L291.994 268.909L291.093 268.774C290.008 268.611 290.047 268.344 290.579 272.269C290.793 273.844 290.968 275.171 290.968 275.218C290.968 275.265 290.727 275.252 290.434 275.187L289.9 275.07L290.031 281.527L289.421 281.093C289.085 280.854 288.776 280.693 288.733 280.736C288.691 280.778 288.738 281.376 288.838 282.065C289.044 283.491 289.055 286.957 288.855 287.672C288.775 287.959 288.533 288.194 288.248 288.261C287.806 288.366 287.77 288.47 287.709 289.819C287.641 291.347 287.097 293.986 286.614 295.142C286.365 295.737 286.259 295.815 285.842 295.711L285.359 295.59L285.473 296.943C285.608 298.553 285.2 300.463 284.408 301.927C283.949 302.777 283.794 302.908 283.154 302.993C282.471 303.084 282.349 303.21 281.286 304.932C280.301 306.527 280.083 306.768 279.653 306.738C279.234 306.709 279.037 306.905 278.386 307.998C277.633 309.263 276.169 310.941 275.819 310.941C275.722 310.941 275.586 310.701 275.516 310.408C275.446 310.114 275.352 309.81 275.308 309.732C275.264 309.654 274.527 310.264 273.67 311.089C271.988 312.707 271.754 312.871 271.754 312.431C271.754 311.723 270.299 312.023 269.51 312.893C269.08 313.368 268.914 313.365 268.787 312.879C268.644 312.332 267.994 312.387 266.821 313.044C265.846 313.591 265.831 313.593 265.447 313.224C264.967 312.762 263.781 312.885 262.405 313.54L261.498 313.971L261.296 313.528C261.059 313.009 260.422 312.809 259.336 312.912C258.605 312.982 258.546 312.949 258.349 312.351C258.234 312.002 258.105 311.716 258.063 311.716C258.021 311.716 257.644 311.895 257.225 312.113C256.114 312.691 255.135 312.809 254.701 312.417C254.368 312.117 254.276 312.139 253.213 312.779C252.048 313.479 251.427 313.605 250.797 313.268C250.522 313.121 250.143 313.216 249.208 313.663C248.298 314.099 247.754 314.238 247.107 314.201C246.43 314.162 246.049 314.269 245.413 314.678C244.447 315.298 243.614 315.354 243.139 314.83C242.806 314.461 242.785 314.469 242.072 315.217C241.291 316.037 240.831 316.157 240.303 315.68C240 315.406 239.865 315.434 238.781 316.002C237.739 316.548 237.535 316.595 237.137 316.382C236.751 316.175 236.563 316.199 235.889 316.543C234.884 317.055 233.748 318.205 233.38 319.082C233.223 319.455 232.875 320.053 232.605 320.41C232.199 320.946 232.021 321.041 231.58 320.953C231.088 320.854 231.036 320.903 230.927 321.563C230.863 321.958 230.629 322.574 230.409 322.931C230.091 323.448 229.912 323.564 229.536 323.492C229.14 323.416 228.962 323.56 228.438 324.375C227.759 325.432 227.01 326.255 226.727 326.255C226.629 326.255 226.447 326.064 226.322 325.831C226.102 325.421 226.083 325.433 225.71 326.17C225.297 326.988 224.8 327.628 224.613 327.585C224.549 327.571 224.308 327.522 224.078 327.477ZM215.968 320.492C215.761 320.439 215.237 320.17 214.804 319.893L214.017 319.39L214.696 319.271C215.07 319.205 215.664 319.001 216.015 318.817L216.655 318.481L216.161 317.895C215.889 317.572 215.667 317.194 215.667 317.055C215.667 316.707 215.113 316.586 212.853 316.441C211.142 316.332 210.728 316.229 209.359 315.575C208.505 315.166 207.326 314.724 206.739 314.593C206.152 314.461 205.626 314.287 205.57 314.207C205.513 314.127 205.077 313.885 204.599 313.669C203.461 313.153 202.067 313.16 199.922 313.692L198.208 314.117L197.693 313.644C197.085 313.084 196.463 311.818 196.46 311.135C196.456 310.376 197.302 308.805 198.283 307.746C198.861 307.122 199.134 306.677 199.055 306.486C197.997 303.949 197.773 301.996 198.294 299.841C198.916 297.263 198.914 297.263 200.311 299.431L201.526 301.318L202.017 300.459C203.318 298.183 204.077 295.418 204.409 291.741C204.73 288.183 204.723 288.135 203.836 287.683C203.414 287.468 202.32 287.118 201.406 286.905C199.149 286.379 198.439 286.055 197.472 285.11L196.647 284.303V285.766C196.647 287.737 197.226 289.91 198.344 292.138C198.852 293.151 199.295 294.041 199.329 294.115C199.442 294.364 196.968 293.307 196.21 292.782C193.288 290.76 191.326 286.742 191.425 282.986C191.45 282.04 191.38 281.372 191.242 281.234C190.877 280.868 190.985 280.701 191.589 280.701C192.275 280.701 193.188 280.375 193.39 280.059C193.733 279.519 193.469 278.626 192.274 276.295C190.446 272.726 190.009 271.434 189.991 269.555C189.983 268.622 190.077 267.819 190.229 267.539L190.482 267.074L193.419 267.246C195.035 267.341 197.117 267.419 198.047 267.42L199.737 267.424L199.022 267.855C198.108 268.406 196.951 268.575 195.214 268.414C194.455 268.343 193.205 268.232 192.437 268.167L191.04 268.048L190.903 268.593C190.526 270.095 191.625 273.332 192.949 274.616L193.635 275.282L194.063 274.015L194.482 274.96C194.712 275.48 194.901 275.982 194.901 276.075C194.901 276.411 195.224 276.23 195.947 275.49C196.677 274.744 196.681 274.731 196.35 274.226C196.035 273.747 196.035 273.666 196.342 272.863C196.931 271.321 198.651 270.504 199.451 271.386C199.729 271.693 199.885 271.726 200.305 271.566C201.097 271.266 201.389 270.92 202.151 269.38C203.146 267.37 204.993 265.789 204.993 266.947C204.993 267.165 204.833 267.666 204.637 268.062C204.441 268.458 204.175 269.271 204.047 269.869C203.724 271.368 203.087 272.252 201.272 273.724C197.663 276.65 196.454 278.931 197.316 281.186C197.9 282.713 200.319 284.391 202.942 285.089C204.288 285.447 206.881 285.421 208.423 285.034L209.7 284.714L208.899 284.049C208.458 283.684 208.098 283.321 208.098 283.244C208.098 283.167 208.866 283.14 209.805 283.185C211.845 283.282 213.97 282.772 217.694 281.29C220.527 280.162 224.024 278.958 224.466 278.958C224.88 278.958 224.885 278.595 224.473 278.438C223.934 278.231 221.323 278.732 217.219 279.83C212.573 281.074 210.573 281.42 209.796 281.115C208.76 280.709 209.179 280.422 211.446 279.983C212.646 279.751 215.245 279.039 217.219 278.401C224.636 276.007 226.927 275.466 230.222 275.332C233.029 275.218 234.555 275.491 236.453 276.449C237.634 277.044 239.926 279.058 239.926 279.501C239.926 279.864 239.159 279.768 237.888 279.245C236.667 278.743 236.044 278.641 236.044 278.945C236.044 279.045 235.805 279.154 235.512 279.188C235.22 279.221 234.955 279.382 234.924 279.544C234.894 279.706 235.406 280.663 236.063 281.669C237.473 283.829 237.974 284.925 238.124 286.179C238.21 286.905 238.174 287.1 237.951 287.1C237.609 287.1 236.842 286.29 236.256 285.31C235.776 284.508 234.978 283.804 234.549 283.804C234.337 283.804 234.367 283.928 234.672 284.315C234.995 284.725 235.074 285.103 235.074 286.23C235.074 287.798 235.373 288.701 236.212 289.661C236.518 290.011 236.949 290.655 237.171 291.09C237.796 292.323 238.675 297.777 238.201 297.484C238.05 297.391 237.985 297.761 237.985 298.709C237.985 299.683 237.907 300.112 237.709 300.223C237.557 300.308 237.163 301.207 236.834 302.219C236.285 303.909 236.128 304.174 234.927 305.428C232.098 308.383 230.257 310.666 229.572 312.068C229.24 312.747 229.09 312.881 228.771 312.783C228.555 312.716 228.255 312.646 228.104 312.626C227.724 312.576 225.64 315.085 225.119 316.219C224.858 316.786 224.597 317.111 224.449 317.051C224.315 316.996 224.087 316.903 223.942 316.844C223.583 316.699 222.565 317.586 222.267 318.305C222.118 318.664 221.882 318.89 221.658 318.89C221.456 318.89 220.564 319.283 219.676 319.762C218.074 320.627 217.185 320.803 215.968 320.494L215.968 320.492ZM215.916 311.818C216.293 311.661 216.793 311.29 217.027 310.994C217.581 310.295 217.471 309.246 216.634 307.258C215.555 304.694 214.7 302.139 214.698 301.475C214.694 300.684 214.384 300.733 213.784 301.617C212.935 302.869 212.232 306.473 212.459 308.418C212.824 311.561 213.929 312.647 215.916 311.818ZM211.552 310.132C211.586 309.954 211.232 309.411 210.766 308.925C210.017 308.143 209.886 308.075 209.631 308.33C209.375 308.585 209.267 308.541 208.69 307.946L208.038 307.274L206.969 308.034L206.418 307.162C205.678 305.992 205.535 306.006 205.308 307.267C205.184 307.953 205.186 307.956 206.703 308.871C207.538 309.376 208.652 309.959 209.179 310.167C210.327 310.62 211.463 310.603 211.552 310.132ZM229.248 306.65C229.252 306.542 228.055 306.281 227.951 306.367C227.929 306.385 227.85 306.784 227.775 307.253L227.638 308.106L228.441 307.44C228.883 307.073 229.247 306.718 229.248 306.65ZM204.093 307.633C204.137 307.587 204.232 307.025 204.305 306.385L204.437 305.222L203.308 304.356C202.227 303.527 200.651 301.894 199.871 300.796C199.669 300.512 199.429 300.279 199.337 300.279C199.049 300.279 199.154 303.449 199.48 304.557C199.936 306.108 200.697 307.407 201.284 307.633C201.76 307.818 203.921 307.818 204.093 307.633ZM231.041 304.403C231.627 303.681 232.421 302.545 232.807 301.879C233.418 300.825 233.463 300.667 233.151 300.667C232.953 300.667 232.297 301.231 231.685 301.927C231.076 302.62 230.423 303.187 230.233 303.187C229.962 303.187 229.862 303.405 229.766 304.205C229.516 306.282 229.518 306.282 231.041 304.403ZM215.132 294.028C214.335 291.912 213.657 289.335 213.322 287.15L213.081 285.577L210.004 287.165L210.137 288.052C210.32 289.275 211.054 291.011 212.006 292.469C212.907 293.851 214.671 295.558 215.328 295.684C215.568 295.73 215.773 295.78 215.785 295.795C215.797 295.809 215.503 295.014 215.132 294.028ZM196.487 290.728C195.818 288.945 195.447 286.743 195.516 284.979L195.58 283.345L192.608 282.3L192.514 282.788C192.369 283.548 192.706 285.759 193.145 286.932C193.754 288.557 194.808 290.209 195.813 291.115C196.313 291.565 196.758 291.899 196.801 291.855C196.844 291.812 196.703 291.305 196.487 290.728ZM236.617 311.116C236.24 310.413 236.649 309.779 238.542 308.14C240.596 306.361 241.074 305.857 241.982 304.513L242.593 303.61L243.338 304.606L244.34 303.606C245.344 302.603 245.77 302.45 246.622 302.786C246.927 302.906 247.23 302.738 248.044 301.997C249.146 300.993 249.441 300.885 249.821 301.343C250.031 301.595 250.122 301.583 250.551 301.246C251.204 300.732 251.864 300.76 252.286 301.318L252.631 301.776L253.373 301.181C254.235 300.488 254.656 300.604 254.916 301.604C255.118 302.386 255.521 302.394 256.636 301.64C257.105 301.322 257.585 301.06 257.702 301.058C258.052 301.052 258.544 301.717 258.675 302.371C258.889 303.438 259.163 303.441 260.208 302.391C260.987 301.608 261.277 301.435 261.736 301.482C262.334 301.543 262.539 301.786 262.722 302.654C262.784 302.947 262.901 303.187 262.984 303.187C263.066 303.187 263.523 302.835 263.999 302.404C265.122 301.387 265.688 301.417 266.201 302.52L266.568 303.307L267.456 302.358C268.691 301.04 269.888 300.357 270.487 300.629C270.899 300.817 270.993 300.759 271.474 300.025C272.076 299.106 273.067 298.147 273.415 298.147C273.543 298.147 273.758 298.281 273.894 298.444C274.229 298.847 273.922 299.835 272.714 302.238C271.882 303.894 271.709 304.117 271.166 304.225C270.782 304.302 270.217 304.705 269.65 305.304C268.051 306.997 266.616 307.669 265.972 307.026C265.793 306.847 265.617 306.913 265.195 307.317C264.54 307.944 264.25 307.968 263.686 307.438L263.259 307.038L262.761 307.535C262.486 307.809 262.141 308.033 261.992 308.033C261.683 308.033 261.199 307.521 261.011 306.996C260.895 306.67 260.822 306.692 260.199 307.239C259.822 307.569 259.392 307.839 259.244 307.839C258.879 307.839 258.169 306.91 258.169 306.432C258.169 306.124 258.115 306.092 257.897 306.273C257.363 306.715 256.391 306.868 255.513 306.647C254.819 306.472 254.602 306.486 254.33 306.719C253.764 307.204 252.16 307.884 251.858 307.768C251.691 307.704 251.57 307.41 251.57 307.067V306.477L250.799 306.987C249.977 307.53 249.436 307.499 249.436 306.91C249.436 306.62 249.322 306.566 248.852 306.635C248.53 306.682 248.141 306.616 247.987 306.488C247.765 306.304 247.613 306.32 247.266 306.562C247.024 306.732 246.651 306.87 246.438 306.87C246.224 306.87 245.769 307.184 245.427 307.568C244.792 308.281 244.39 308.307 244.39 307.634C244.39 306.815 243.77 307.308 242.705 308.976C241.544 310.794 240.699 311.346 240.129 310.66C239.932 310.424 239.8 310.419 239.28 310.633C238.942 310.772 238.247 311.019 237.738 311.182C236.864 311.461 236.8 311.457 236.617 311.116ZM259.643 299.193C259.58 299.027 259.528 298.685 259.528 298.433C259.528 297.773 259.217 297.678 258.569 298.138L258.002 298.542L257.697 298.108C257.53 297.869 257.393 297.522 257.393 297.337C257.393 297.037 257.287 297.051 256.374 297.476C255.247 298 254.836 298.053 254.267 297.749C253.949 297.579 253.718 297.677 252.891 298.334C251.527 299.419 250.548 299.607 250.305 298.83C250.254 298.668 250.171 298.404 250.121 298.244C250.049 298.012 249.849 298.08 249.145 298.575L248.261 299.198L246.455 297.394L247.121 296.081C247.487 295.358 248.151 294.271 248.597 293.665C249.445 292.512 249.464 292.332 248.735 292.332C248.493 292.332 248.251 292.262 248.199 292.178C248.04 291.921 248.761 290.512 249.453 289.724C250.096 288.994 250.099 288.979 249.714 288.682C249.33 288.385 249.338 288.356 250.249 286.842C251.158 285.332 251.243 284.966 250.686 284.966C250.532 284.966 250.406 284.929 250.406 284.884C250.406 284.839 250.836 284.059 251.361 283.15C252.166 281.759 252.273 281.463 252.04 281.27C251.855 281.116 251.765 280.637 251.765 279.805C251.765 278.623 251.744 278.569 251.289 278.569C250.853 278.569 250.81 278.486 250.756 277.551C250.705 276.671 250.639 276.525 250.269 276.473C249.889 276.419 249.835 276.28 249.784 275.228C249.752 274.562 249.63 274.012 249.506 273.971C249.384 273.931 249.088 274.216 248.848 274.603C248.347 275.413 248.163 275.28 247.964 273.965C247.81 272.951 247.324 272.858 246.767 273.737L246.389 274.333L245.887 273.737C245.414 273.175 245.307 273.141 244.014 273.141H242.643V270.59L241.329 271.401L240.248 268.924L239.608 269.191C238.682 269.577 238.449 269.527 238.182 268.883C237.929 268.273 237.855 268.234 236.336 267.906C235.802 267.79 235.033 267.608 234.626 267.5L233.887 267.305L235.469 265.574C236.924 263.982 237.075 263.869 237.363 264.157C237.652 264.445 237.698 264.438 237.942 264.071L238.207 263.672L238.906 264.084C239.575 264.478 239.614 264.481 239.814 264.143C240.516 262.959 240.405 262.938 242.934 264.732C244.515 265.853 245.319 266.551 245.436 266.903C245.774 267.916 247.399 269.928 247.72 269.73C247.81 269.674 247.884 269.394 247.886 269.107C247.89 268.375 248.169 267.957 248.394 268.343C248.567 268.64 250.038 269.458 250.398 269.458C250.509 269.458 250.6 269.245 250.6 268.984C250.6 268.529 250.695 268.564 252.947 269.856C254.238 270.597 255.364 271.203 255.449 271.203C255.9 271.203 255.963 269.733 255.568 268.423C255.32 267.598 255.324 267.52 255.622 267.52C255.801 267.52 256.148 267.659 256.392 267.83C256.636 268.001 256.863 268.11 256.897 268.072C256.931 268.035 256.853 267.285 256.724 266.405C256.594 265.525 256.539 264.797 256.601 264.785C256.663 264.774 256.952 264.781 257.244 264.799L257.774 264.834L257.504 264.093C256.988 262.671 256.575 261.797 256.148 261.219C255.757 260.69 255.729 260.494 255.842 259.035C255.954 257.587 256.024 257.371 256.568 256.805C257.235 256.111 258.945 253.419 258.945 253.062C258.945 252.937 259.069 252.732 259.221 252.606C259.437 252.427 259.535 252.447 259.676 252.7C259.832 252.977 259.914 252.986 260.274 252.761C260.504 252.617 260.692 252.454 260.692 252.397C260.692 252.341 261.097 251.603 261.592 250.758L262.492 249.222L262.948 249.793C263.313 250.25 263.469 250.323 263.729 250.16C264.052 249.957 265.179 247.957 265.44 247.122C265.562 246.732 265.611 246.781 265.865 247.553C266.276 248.804 266.27 251.441 265.851 253.126L265.502 254.532H264.782C264.084 254.532 264.053 254.562 263.74 255.552C263.539 256.189 263.463 256.846 263.537 257.304C263.633 257.892 263.574 258.124 263.235 258.484C262.902 258.839 262.851 259.029 262.993 259.4C263.227 260.015 263.746 262.669 263.908 264.079C264.033 265.169 264.026 265.193 263.557 265.193C263.09 265.193 263.075 265.239 262.946 267.074C262.873 268.108 262.778 268.99 262.734 269.033C262.691 269.077 262.392 268.925 262.07 268.697L261.486 268.281L261.208 268.821C261.056 269.118 260.788 270.059 260.614 270.912C260.328 272.313 259.981 272.947 259.499 272.947C259.418 272.947 259.292 273.274 259.219 273.674C259.004 274.86 258.536 275.913 257.945 276.544L257.389 277.137L257.977 278.219C258.956 280.025 259.787 282.833 259.342 282.833C259.231 282.833 258.974 282.668 258.773 282.467C258.413 282.108 258.402 282.109 258.198 282.556C258.084 282.806 257.932 283.455 257.86 283.997C257.753 284.8 257.633 285.032 257.213 285.249C256.833 285.445 256.633 285.77 256.448 286.49C256.31 287.026 255.871 287.931 255.472 288.5C254.751 289.528 254.747 289.542 255.018 290.352C255.168 290.801 255.352 291.168 255.426 291.168C255.501 291.168 255.72 290.902 255.913 290.576C256.387 289.775 257.535 288.648 257.878 288.648C258.031 288.648 258.274 288.873 258.418 289.147L258.68 289.645L259.217 288.87C260.077 287.631 260.718 287.643 260.998 288.904C261.133 289.511 261.143 289.501 261.608 288.261C262.053 287.074 262.525 286.322 262.826 286.322C263.047 286.322 263.369 287.185 263.522 288.187L263.667 289.133L263.992 288.402C264.172 287.999 264.475 286.756 264.667 285.639C265.01 283.638 265.204 283.231 265.448 283.999C265.516 284.214 265.653 284.339 265.752 284.278C266.031 284.106 265.959 281.712 265.634 280.333C265.473 279.652 265.377 279.058 265.42 279.015C265.464 278.972 265.759 279.251 266.077 279.636L266.655 280.337L266.774 279.594C266.839 279.185 266.859 278.635 266.819 278.37C266.778 278.106 266.689 276.92 266.621 275.735L266.497 273.58L267.088 273.462C267.593 273.361 267.683 273.253 267.708 272.709C267.725 272.36 267.758 271.987 267.783 271.881C267.808 271.774 267.838 270.662 267.85 269.409L267.873 267.132H268.843V261.889L269.871 262.561L269.739 260.921C269.666 260.019 269.556 258.91 269.494 258.457C269.391 257.707 269.419 257.633 269.8 257.633C270.165 257.633 270.206 257.551 270.116 257.003C269.91 255.75 269.619 253.33 269.619 252.87C269.619 252.581 269.732 252.399 269.91 252.399C270.071 252.399 270.202 252.374 270.202 252.342C270.202 252.31 269.852 251.246 269.425 249.976C268.998 248.707 268.649 247.642 268.649 247.611C268.649 247.579 268.779 247.553 268.937 247.553C269.12 247.553 268.656 246.721 267.668 245.276C266.614 243.736 266.141 242.875 266.207 242.62C266.323 242.17 265.765 240.862 265.172 240.195L264.749 239.718L265.608 239.071L265.155 237.933C264.394 236.018 263.414 234.171 262.221 232.399C261.551 231.404 261.096 230.524 261.116 230.262C261.135 230.001 260.493 228.755 259.563 227.248C258.691 225.835 258.027 224.68 258.089 224.68C258.15 224.68 258.686 225.002 259.281 225.396C261.497 226.865 264.247 230.024 266.451 233.633C268.097 236.326 270.005 240.402 270.136 241.501C270.227 242.27 270.357 242.516 270.855 242.863C272.732 244.17 274.477 246.275 274.328 247.053C274.252 247.448 274.434 247.791 275.176 248.659C276.327 250.005 276.8 251.011 276.8 252.113C276.8 252.572 277.058 253.631 277.373 254.467C278.177 256.595 278.176 256.565 277.413 256.496C276.861 256.446 276.779 256.49 276.869 256.793C276.927 256.988 277.159 257.882 277.385 258.778C277.716 260.096 277.745 260.437 277.54 260.568C277.4 260.656 277.212 260.73 277.123 260.732C277.034 260.736 277.023 261.681 277.098 262.837C277.217 264.676 277.195 264.955 276.92 265.061C276.705 265.143 276.606 265.419 276.606 265.934C276.606 266.348 276.55 267.223 276.481 267.878C276.363 269.014 276.332 269.07 275.831 269.07C275.308 269.07 275.303 269.083 275.053 271.112C274.914 272.235 274.728 273.199 274.64 273.253C274.552 273.308 274.303 273.258 274.087 273.143C273.712 272.942 273.695 272.989 273.692 274.249C273.688 275.825 273.548 276.436 273.187 276.436C273.04 276.436 272.919 276.545 272.92 276.678C272.924 276.978 273.274 279.282 273.409 279.877C273.492 280.241 273.427 280.313 273.011 280.313C272.448 280.313 272.442 280.134 273.11 283.463C273.435 285.082 273.435 285.159 273.11 285.159C272.813 285.159 272.75 285.437 272.629 287.291C272.528 288.841 272.421 289.424 272.237 289.424C272.075 289.424 271.901 289.925 271.751 290.829C271.477 292.473 271.415 292.612 271.087 292.34C270.898 292.183 270.651 292.571 270.015 294.027C269.561 295.067 269.114 295.998 269.021 296.097C268.921 296.205 268.689 296.128 268.441 295.903C268.028 295.53 268.026 295.531 267.223 296.452L266.419 297.373L265.72 296.143L263.442 298.394L263.307 297.495C263.233 297 263.1 296.596 263.012 296.596C262.924 296.596 262.388 297.126 261.821 297.774C260.615 299.153 259.827 299.666 259.645 299.192L259.643 299.193ZM245.118 280.556C244.838 280.262 244.393 279.425 244.128 278.694C243.603 277.244 243.049 276.555 241.746 275.732C241.279 275.437 240.896 275.133 240.896 275.057C240.896 274.777 239.573 274.11 239.018 274.11C238.631 274.11 238.262 273.916 237.876 273.511C237.279 272.882 235.687 271.978 235.178 271.978C234.983 271.978 234.88 271.794 234.879 271.445C234.879 271.025 234.709 270.816 234.086 270.461C232.458 269.532 231.434 268.313 231.895 267.852C231.961 267.786 232.638 268.148 233.399 268.656C234.16 269.165 235.831 270.176 237.112 270.904C241.949 273.652 244.487 275.618 246.071 277.844L246.589 278.572L246.152 279.037C245.797 279.415 245.754 279.575 245.926 279.895C246.215 280.434 246.191 281.089 245.882 281.089C245.741 281.089 245.398 280.849 245.118 280.556ZM207.252 278.951C206.592 278.753 205.93 278.197 206.076 277.961C206.133 277.869 206.41 277.793 206.691 277.793C206.971 277.793 207.816 277.423 208.567 276.97C209.916 276.156 209.954 276.146 211.587 276.188C212.902 276.222 213.519 276.136 214.599 275.768C215.347 275.513 216.382 275.242 216.9 275.167C217.791 275.037 217.831 275.05 217.64 275.406C217.529 275.613 217.051 276.139 216.577 276.576C215.792 277.298 215.594 277.381 214.381 277.495C213.647 277.564 212.173 277.913 211.106 278.27C208.833 279.032 208.011 279.177 207.252 278.951ZM190.619 277.135C188.944 275.907 186.773 273.091 187.015 272.46C187.24 271.874 187.733 272.208 188.665 273.577C189.522 274.834 190.31 275.647 191.779 276.787C192.085 277.024 192.205 277.263 192.125 277.472C191.946 277.939 191.615 277.865 190.619 277.135ZM206.605 275.732C206.436 275.29 206.752 274.847 207.512 274.459C208.708 273.849 209.408 274.826 208.363 275.647C207.744 276.133 206.777 276.18 206.605 275.732ZM211.854 273.525C211.184 273.263 211.102 272.928 211.612 272.539C212.922 271.54 217.967 269.487 220.3 269.005C221.499 268.757 221.848 268.751 222.567 268.967C223.121 269.133 223.976 269.187 225.028 269.122C226.342 269.04 226.687 269.077 226.893 269.325C227.111 269.588 227.031 269.689 226.307 270.067C225.634 270.419 225.024 270.529 223.236 270.622C221.088 270.734 220.898 270.781 218.215 271.86C214.25 273.455 212.706 273.859 211.854 273.525ZM225.176 273.586C224.745 273.428 224.012 272.719 224.012 272.46C224.012 272.189 224.9 271.914 227.09 271.505C229.754 271.009 231.261 271.167 232.292 272.053L232.809 272.498L231.611 272.623C230.952 272.692 229.459 272.967 228.294 273.235C226.152 273.728 225.704 273.778 225.176 273.586ZM188.021 269.989C186.484 268.393 186 266.962 186.989 266.941C187.067 266.937 187.344 267.352 187.603 267.859C187.863 268.365 188.476 269.168 188.965 269.644C189.919 270.57 190.045 270.894 189.529 271.092C189.295 271.182 188.869 270.87 188.021 269.989ZM209.396 269.58C209.235 269.16 209.973 268.118 211.486 266.627C213.142 264.996 214.554 264.244 217.316 263.521C218.955 263.092 219.696 263.01 222.071 262.995C224.306 262.981 225.035 263.043 225.613 263.3C226.013 263.478 226.341 263.736 226.341 263.875C226.341 264.069 225.743 264.131 223.769 264.143C220.764 264.161 220.085 264.338 217.637 265.743C216.714 266.273 215.346 266.887 214.598 267.107C213.206 267.517 211.795 268.3 210.663 269.289C209.966 269.897 209.554 269.992 209.396 269.58ZM187.535 266.039C186.665 265.088 186.543 264.856 186.594 264.246C186.64 263.695 186.735 263.546 187.041 263.546C187.337 263.546 187.443 263.695 187.49 264.177C187.532 264.616 187.816 265.077 188.424 265.693C189.131 266.409 189.254 266.631 189.067 266.855C188.941 267.007 188.769 267.132 188.686 267.132C188.603 267.132 188.085 266.64 187.535 266.039ZM207.776 262.954C207.436 262.068 210.237 260.573 216.336 258.386C218.169 257.729 218.483 257.665 218.627 257.921C218.718 258.084 219.159 258.41 219.607 258.645C220.605 259.167 222.622 259.201 225.273 258.738C226.234 258.57 227.544 258.405 228.185 258.372L229.349 258.312V258.951C229.349 259.569 229.393 259.605 230.701 260.046C232.23 260.562 233.135 261.379 233.13 262.24C233.125 263.14 232.861 263.339 232.438 262.762C231.95 262.097 230.6 261.42 229.173 261.125C227.955 260.874 226.47 260.95 223.236 261.429C220.496 261.835 219.428 261.789 218.302 261.219C216.92 260.518 216.064 260.588 213.189 261.635C210.45 262.632 208.519 263.251 208.14 263.254C208.003 263.254 207.84 263.12 207.776 262.954ZM242.142 261.957C241.981 261.702 241.594 261.608 240.492 261.559C237.84 261.439 237.645 261.242 239.103 260.153C241.383 258.45 243.619 256.883 244.731 256.208C245.397 255.804 245.942 255.399 245.942 255.309C245.942 255.219 245.995 255.007 246.06 254.839C246.255 254.332 245.609 254.473 243.446 255.407C242.34 255.886 241.312 256.277 241.162 256.277C241.011 256.277 240.788 256.058 240.666 255.79C240.328 255.049 241.035 254.426 242.828 253.881C243.744 253.603 244.293 253.334 244.293 253.164C244.293 253.015 244.572 252.716 244.914 252.501C245.255 252.285 245.522 252.022 245.506 251.915C245.491 251.808 245.544 251.526 245.625 251.288C245.777 250.842 245.827 250.823 250.542 249.421L252.133 248.948L252.619 250.431C253.353 252.674 253.705 254.204 253.705 255.151C253.705 256.05 253.441 256.506 253.016 256.343C252.819 256.267 252.77 256.572 252.797 257.706C252.824 258.83 252.759 259.24 252.516 259.484C252.226 259.775 252.153 259.776 251.6 259.491C250.897 259.127 250.681 258.779 250.507 257.727C250.175 255.726 249.976 254.92 249.813 254.92C249.562 254.92 249.123 256.042 248.853 257.373C248.727 257.996 248.469 258.775 248.279 259.103C248.09 259.432 247.823 260.042 247.687 260.46C247.364 261.449 247.115 261.586 246.567 261.072C246.044 260.581 245.615 260.739 245.204 261.577C244.977 262.039 244.844 262.092 243.91 262.092C243.337 262.092 242.753 262.137 242.61 262.191C242.468 262.245 242.257 262.14 242.142 261.957ZM193.452 260.548C193.11 260.171 193.137 260.127 194.632 258.59C196.484 256.687 197.647 255.807 198.762 255.467C199.345 255.289 199.658 255.063 199.786 254.73C200.376 253.195 202.316 254.074 202.87 256.127C203.108 257.012 203.189 258.724 203.002 258.912C202.939 258.974 202.718 258.972 202.511 258.906C202.213 258.812 202.113 258.552 202.033 257.663C201.925 256.478 201.193 254.756 200.918 255.042C200.829 255.135 200.727 255.426 200.691 255.69C200.637 256.09 200.485 256.194 199.781 256.314C198.51 256.529 197.404 257.276 195.512 259.197C193.826 260.908 193.796 260.928 193.452 260.548ZM188.504 260.311C188.014 259.785 188.012 259.526 188.484 258.153C188.859 257.067 190.442 253.804 190.939 253.093C191.083 252.888 191.658 252.496 192.218 252.221C192.977 251.848 193.282 251.573 193.417 251.14C193.716 250.178 194.27 249.551 195.253 249.062C196.074 248.653 196.17 248.542 196.059 248.124C195.991 247.864 195.974 247.321 196.022 246.917C196.089 246.354 196.237 246.118 196.661 245.899C198.378 245.012 200.387 241.947 200.912 239.412L201.173 238.152L204.144 235.223C205.779 233.611 207.163 232.339 207.219 232.396C207.276 232.452 207.322 232.906 207.322 233.404C207.322 234.582 206.443 236.355 205.171 237.745C204.398 238.589 204.217 238.921 204.217 239.485C204.217 240.294 204.521 240.473 206.878 241.047C208.513 241.446 208.522 241.46 208.515 243.745C208.509 245.872 207.991 247.266 206.739 248.524C205.097 250.172 204.4 250.388 204.012 249.369C203.825 248.876 203.443 248.791 202.847 249.11C202.348 249.377 201.523 248.946 200.76 248.021L200.179 247.317L200.239 249.132C200.276 250.232 200.421 251.229 200.608 251.667C201.027 252.642 201.018 252.661 200.205 252.529C199.748 252.455 199.229 252.156 198.76 251.699L198.028 250.985L197.898 251.502C197.73 252.169 196.937 252.787 196.247 252.787C195.501 252.787 195.395 253.478 196.033 254.182L196.506 254.705L195.961 254.842C195.66 254.917 195.172 254.887 194.875 254.775C194.357 254.58 194.316 254.61 193.898 255.473C193.454 256.391 189.562 260.673 189.135 260.713C189.006 260.725 188.722 260.544 188.504 260.311ZM203.751 246.188C203.381 245.864 202.949 245.231 202.789 244.783L202.5 243.967L202.485 244.897C202.473 245.638 202.566 245.923 202.946 246.302C203.208 246.564 203.648 246.778 203.923 246.778C204.424 246.778 204.424 246.778 203.751 246.188ZM205.769 243.979C205.769 243.6 205.393 243.393 205.148 243.638C205.038 243.747 205.007 243.932 205.079 244.047C205.269 244.355 205.769 244.305 205.769 243.979ZM209.005 258.33C208.893 258.038 209.327 257.579 209.915 257.37C210.114 257.299 211.218 257.029 212.368 256.77C213.518 256.51 215.183 256.019 216.069 255.678L217.679 255.058L217.147 254.601C216.168 253.76 214.407 254.052 210.936 255.629C209.623 256.225 208.873 256.463 208.556 256.384C208.119 256.275 208.11 256.244 208.394 255.812C208.763 255.248 211.085 254.173 214.364 253.045C216.578 252.284 216.9 252.218 217.355 252.441C218.124 252.818 218.651 253.655 218.673 254.534C218.69 255.202 218.839 255.46 219.729 256.361C220.429 257.068 220.727 257.51 220.647 257.719C220.412 258.33 219.948 258.243 218.701 257.354L217.446 256.459L215.149 257.157C213.265 257.73 209.749 258.587 209.235 258.6C209.166 258.6 209.063 258.48 209.005 258.33ZM229.349 257.452C228.484 257.242 227.567 256.721 227.239 256.253C226.932 255.815 226.362 255.808 222.549 256.198C221.643 256.29 221.322 256.252 221.139 256.032C220.95 255.804 220.961 255.697 221.195 255.503C221.598 255.169 221.563 254.679 221.094 254.083L220.699 253.581L221.148 253.287C221.396 253.125 222.503 252.814 223.609 252.596C226.813 251.966 227.552 251.717 231.149 250.061C233.683 248.894 234.163 248.823 239.15 248.879C241.658 248.907 244.033 249.015 244.428 249.119C245.077 249.29 245.942 250.07 245.942 250.485C245.942 250.83 244.41 251.623 242.449 252.293C240.429 252.984 239.732 253.459 239.732 254.146C239.732 255.001 236.945 256.618 235.414 256.652C235.074 256.66 234.88 256.77 234.88 256.955C234.88 257.18 234.627 257.246 233.763 257.246C233.148 257.246 232.358 257.163 232.006 257.063C231.475 256.91 231.301 256.944 230.988 257.256C230.592 257.652 230.309 257.686 229.349 257.452ZM235.459 254.129C236.584 253.62 236.965 253.263 237.115 252.578C237.278 251.84 237.144 251.673 236.472 251.771C236.01 251.839 235.926 251.931 235.995 252.293C236.054 252.601 235.924 252.854 235.557 253.142C234.771 253.76 233.854 253.865 232.987 253.437C232.358 253.126 232.181 253.111 231.732 253.326C231.138 253.61 231.192 254.076 231.85 254.342C232.629 254.656 234.545 254.544 235.459 254.129ZM203.953 254.774C203.887 254.375 203.832 253.731 203.83 253.345C203.826 252.392 203.622 251.43 203.421 251.43C203.33 251.43 203.12 251.693 202.954 252.013C202.663 252.575 202.637 252.585 202.181 252.287L201.709 251.978L202.157 251.268C202.403 250.878 202.832 250.43 203.109 250.272C203.576 250.008 203.649 250.02 204.092 250.436C204.629 250.94 204.993 252.541 204.993 254.402C204.993 255.429 204.963 255.501 204.533 255.501C204.152 255.501 204.052 255.376 203.953 254.774ZM217.44 251.044C217.081 250.819 216.819 250.603 216.858 250.566C216.897 250.528 217.703 250.314 218.651 250.089C219.598 249.865 220.867 249.483 221.469 249.239C222.409 248.86 222.684 248.826 223.396 248.999C223.853 249.11 224.23 249.245 224.234 249.298C224.238 249.351 224.132 249.636 223.998 249.93C223.678 250.63 221.802 251.251 219.645 251.369C218.309 251.442 218.002 251.397 217.44 251.044ZM221.182 247.927C220.334 247.681 219.862 247.102 220.014 246.496C220.082 246.225 220.602 245.546 221.169 244.986C221.833 244.331 222.246 243.742 222.326 243.334C222.64 241.743 224.423 239.024 225.153 239.024C225.336 239.024 225.591 239.129 225.719 239.256C226.032 239.569 226.745 238.87 228.521 236.51C230.886 233.369 231.488 232.893 231.967 233.786C232.133 234.096 232.097 234.216 231.779 234.414C231.47 234.607 231.386 234.866 231.386 235.63C231.382 237.687 230.462 239.277 229.126 239.527C228.471 239.65 227.86 240.289 227.229 241.513C226.726 242.488 226.934 242.774 228.063 242.666C228.846 242.591 229.043 242.639 229.241 242.956C229.611 243.548 230.83 243.29 232.188 242.334C233.514 241.4 234.107 241.339 234.691 242.077C235.225 242.754 235.121 243.736 234.329 245.481L233.769 246.715H231.753C230.644 246.715 229.363 246.821 228.906 246.949C228.168 247.157 228.017 247.141 227.546 246.807C226.504 246.065 225.634 246.188 224.313 247.262C223.178 248.186 222.542 248.321 221.182 247.927ZM257.003 247.372C256.045 247.081 255.292 246.584 254.208 245.527C253.602 244.936 252.938 244.452 252.733 244.452C252.528 244.452 252.061 244.715 251.695 245.036L251.029 245.62L250.814 244.39C250.532 242.769 250.541 242.576 250.933 241.914C251.208 241.449 251.395 241.351 252.007 241.351C252.414 241.351 253.05 241.477 253.42 241.631C254.202 241.958 254.205 241.947 253.825 240.333C253.68 239.72 253.616 239.208 253.682 239.196C253.748 239.183 254.193 239.161 254.671 239.147L255.54 239.121L255.844 237.038L254.483 235.608C253.735 234.821 253.123 234.079 253.123 233.959C253.123 233.817 253.362 233.779 253.802 233.85C254.176 233.911 254.48 233.9 254.479 233.827C254.475 233.754 252.965 232.189 251.117 230.35C247.857 227.106 247.776 227.006 248.402 227.006C248.757 227.006 249.044 226.941 249.039 226.861C249.035 226.781 248.689 226.327 248.271 225.851C247.853 225.376 247.549 224.949 247.594 224.904C247.738 224.761 250.058 225.277 251.456 225.763C252.942 226.279 254.56 227.137 255.743 228.035C257.891 229.666 260.141 232.573 259.965 233.491C259.898 233.84 260.113 234.384 260.704 235.361C261.335 236.405 261.558 236.991 261.623 237.784C261.716 238.901 261.645 238.973 260.886 238.54C260.042 238.058 259.866 238.158 260.015 239.037C260.17 239.954 259.765 240.575 259.012 240.575C258.39 240.575 258.44 240.893 259.117 241.242C259.799 241.595 261.018 242.953 261.627 244.04C262.004 244.713 262.03 244.86 261.788 244.953C261.629 245.014 261.271 244.914 260.993 244.732C260.325 244.295 260.234 244.432 260.604 245.317C260.773 245.719 260.864 246.169 260.807 246.316C260.689 246.623 259.902 246.665 259.016 246.411C258.464 246.253 258.419 246.272 258.514 246.634C258.58 246.886 258.487 247.126 258.259 247.292C257.864 247.581 257.719 247.59 257.003 247.372ZM237.594 245.994C237.368 245.45 237.394 245.349 237.931 244.686C238.457 244.037 238.604 243.967 239.447 243.967C240.216 243.967 240.48 243.869 240.936 243.413C241.317 243.033 241.432 242.788 241.303 242.633C241.2 242.509 240.935 241.332 240.714 240.018C240.481 238.628 240.077 237.07 239.75 236.291C239.441 235.556 239.236 234.954 239.296 234.954C239.599 234.954 241.762 236.777 243.197 238.242C245.296 240.382 246.122 241.932 245.166 241.932C244.647 241.932 244.677 242.17 245.289 242.897L245.8 243.503L245.22 244.22C244.324 245.327 243.661 245.616 241.538 245.826C240.491 245.929 239.248 246.142 238.776 246.299C238.303 246.456 237.899 246.584 237.877 246.584C237.856 246.584 237.728 246.319 237.594 245.994ZM282.083 243.82C281.857 243.578 281.495 242.985 281.281 242.5C280.881 241.598 280.293 238.676 280.294 237.594V236.989L282.477 236.963C284.016 236.945 286.365 236.67 290.445 236.031C293.627 235.532 296.419 235.151 296.649 235.184C296.988 235.233 296.715 235.527 295.226 236.722C290.661 240.386 288.211 241.586 286.51 240.994C286.059 240.837 285.921 240.846 285.921 241.032C285.921 241.521 284.664 242.514 284.044 242.514C283.529 242.514 283.43 242.598 283.325 243.125C283.201 243.741 282.885 244.258 282.632 244.258C282.557 244.258 282.31 244.061 282.083 243.82ZM276.121 240.603C272.69 237.555 270.858 235.084 268.626 230.499C267.873 228.951 266.905 227.217 266.476 226.647C265.478 225.321 264.037 224.619 261.478 224.213C259.416 223.886 258.689 223.487 258.588 222.626C258.552 222.317 258.421 222 258.297 221.921C257.99 221.726 256.741 221.736 256.192 221.938C255.945 222.029 255.503 222.161 255.209 222.232C254.732 222.347 254.676 222.308 254.676 221.864C254.676 220.917 253.962 220.487 252.141 220.337C250.041 220.164 249.141 219.897 249.442 219.536C249.562 219.391 250.102 219.127 250.643 218.947C252.785 218.237 256.473 218.926 262.463 221.157C267.563 223.056 274.5 226.512 273.729 226.769C273.37 226.888 273.462 227.68 273.901 228.237C274.121 228.516 274.35 229.051 274.411 229.426C274.51 230.032 274.475 230.107 274.096 230.107C273.05 230.107 272.637 230.785 273.216 231.55C273.373 231.757 273.501 232.316 273.501 232.793C273.501 233.96 274.445 235.895 276.21 238.346C277.828 240.592 278.4 241.621 278.316 242.134C278.268 242.424 277.818 242.111 276.121 240.603ZM213.719 236.902C212.492 236.671 212.455 236.578 213.061 235.244C213.504 234.27 214.014 233.611 215.502 232.091C217.147 230.41 218.605 229.592 219.41 229.898C219.679 230 219.947 230.162 220.006 230.258C220.204 230.577 219.567 231.223 218.144 232.148C216.273 233.363 216.067 233.633 216.312 234.55C216.764 236.242 215.638 237.264 213.719 236.902ZM219.996 236.101C220.402 235.76 221.303 234.753 221.998 233.864C223.284 232.22 224.67 230.883 225.09 230.883C225.218 230.883 225.427 231.008 225.554 231.161C225.853 231.521 225.573 232.066 224.909 232.421C224.422 232.681 224.42 232.689 224.778 233.143C224.987 233.408 225.095 233.768 225.035 233.997C224.787 234.944 221.983 236.453 220.13 236.637L219.257 236.723L219.996 236.101ZM277.77 235.795C277.29 235.514 276.618 235.231 276.277 235.167L275.658 235.051L276.083 234.217C276.78 232.853 278.819 231.023 280.947 229.853L281.892 229.334L283.082 229.647C283.766 229.826 285.139 229.97 286.31 229.985C288.031 230.007 288.493 230.082 289.285 230.472L290.222 230.932L293.846 229.947C299.833 228.319 302.516 227.919 304.57 228.346C305.783 228.598 306.735 229.404 306.963 230.372C307.112 231.005 306.787 232.806 306.436 233.284C306.239 233.553 306.197 233.477 306.171 232.798C306.064 230.008 302.061 230.325 293.976 233.763L291.453 234.835L287.086 234.951C282.81 235.065 282.683 235.08 280.95 235.689C279.976 236.031 279.059 236.31 278.912 236.308C278.764 236.304 278.251 236.076 277.77 235.795ZM245.144 234.432C245.132 234.346 245.135 234.13 245.153 233.952C245.171 233.774 245.022 233.577 244.822 233.514C244.623 233.451 244.26 233.129 244.016 232.799C243.328 231.87 242.076 231.419 239.928 231.325C238.633 231.269 237.879 231.138 237.403 230.887C236.586 230.457 234.796 230.108 233.406 230.108C232.492 230.108 232.342 230.045 231.896 229.478C231.277 228.69 231.059 228.472 230.27 227.854C229.923 227.581 229.688 227.279 229.748 227.182C229.808 227.085 230.441 227.004 231.156 227.002C232.743 226.998 234.79 226.714 235.836 226.354C236.573 226.101 236.706 226.12 238.319 226.724C239.256 227.074 240.35 227.422 240.751 227.496C241.26 227.59 241.479 227.732 241.479 227.967C241.479 228.41 242.086 228.945 242.589 228.945C242.81 228.945 243.196 229.161 243.447 229.426C243.699 229.69 244.095 229.909 244.327 229.91C244.559 229.914 244.928 230.14 245.145 230.416C245.51 230.879 245.517 230.953 245.239 231.376C244.897 231.899 245.02 232.24 245.552 232.24C245.759 232.24 245.976 232.428 246.054 232.676C246.13 232.916 246.359 233.23 246.563 233.373C246.78 233.525 246.91 233.809 246.875 234.052C246.826 234.393 246.664 234.48 245.991 234.529C245.537 234.561 245.156 234.518 245.144 234.432ZM228.059 232.011C227.303 231.81 226.42 231.031 226.607 230.729C226.669 230.628 227.093 230.483 227.549 230.405L228.379 230.263L227.603 229.985C227.176 229.832 226.7 229.58 226.544 229.425C226.297 229.177 226.309 229.107 226.641 228.856C227.238 228.405 228.739 228.487 229.81 229.029C230.857 229.559 231.969 230.709 231.969 231.262C231.969 232.149 231.805 232.241 230.25 232.22C229.434 232.209 228.448 232.115 228.059 232.011ZM210.909 231.266C210.624 230.805 211.102 229.796 212.051 228.854C213.144 227.77 215.176 226.643 217.84 225.642C219.134 225.157 219.543 224.915 219.587 224.612C219.68 223.977 220.678 223.553 222.639 223.314C223.948 223.155 224.625 222.975 225.029 222.677C225.852 222.068 228.54 222.008 231.145 222.538C232.219 222.756 233.149 222.935 233.212 222.935C233.276 222.935 233.327 223.374 233.327 223.909C233.327 224.787 233.276 224.903 232.809 225.08C232.173 225.322 231.384 225.165 230.18 224.559C229.056 223.993 228.867 223.991 226.401 224.514C224.545 224.908 224.393 224.914 223.933 224.613C223.336 224.222 222.085 224.195 221.582 224.562C221.268 224.791 221.251 224.879 221.472 225.144C221.766 225.498 222.631 225.546 223.618 225.263C224.149 225.111 224.322 225.129 224.447 225.352C224.533 225.506 224.913 226.037 225.292 226.532C225.67 227.027 225.949 227.462 225.912 227.499C225.876 227.535 224.765 227.712 223.444 227.892C221.202 228.197 221.007 228.197 220.495 227.896C220.01 227.61 219.885 227.605 219.408 227.85C219.112 228.003 217.908 228.404 216.734 228.742C214.462 229.395 213.726 229.753 213.726 230.203C213.726 230.936 211.277 231.86 210.909 231.266ZM246.347 228.82C245.911 228.326 245.554 227.848 245.554 227.76C245.554 227.671 245.052 227.46 244.438 227.292C242.505 226.76 241.591 226.388 241.09 225.927C240.338 225.233 239.57 225.02 238.325 225.157C237.268 225.274 237.198 225.255 236.988 224.795C236.722 224.212 236.382 224.119 235.402 224.358C234.116 224.673 233.901 223.755 235.097 223.05C235.581 222.764 235.901 222.721 236.698 222.833C237.773 222.985 237.784 222.985 239.284 222.818C240.151 222.721 240.454 222.787 241.446 223.291C242.081 223.613 243.069 223.964 243.641 224.069C244.213 224.175 245.11 224.421 245.634 224.616C246.557 224.96 246.597 225.006 246.916 226.138C247.27 227.394 247.756 228.456 248.217 228.981C248.596 229.413 248.379 229.72 247.694 229.72C247.278 229.72 246.942 229.496 246.347 228.82ZM250.018 224.073C249.493 223.388 248.345 223.147 245.554 223.135C244.113 223.128 242.847 223.059 242.74 222.981C242.633 222.902 242.45 222.664 242.332 222.451C242.163 222.145 241.88 222.051 240.997 222.004C240.381 221.972 239.503 222.025 239.046 222.122C238.278 222.286 238.197 222.264 237.963 221.827C237.823 221.567 237.537 221.262 237.326 221.15C237.009 220.98 236.872 221.033 236.535 221.455C236.299 221.75 235.932 221.966 235.664 221.966C235.41 221.966 235.058 222.096 234.881 222.256C234.596 222.514 234.477 222.506 233.798 222.182C232.167 221.403 229.75 221.185 227.36 221.601C225.896 221.856 225.454 221.654 226.046 221.001C226.241 220.786 226.5 220.609 226.621 220.609C226.742 220.609 227.178 220.438 227.59 220.228C228.002 220.018 228.397 219.882 228.469 219.926C228.54 219.97 228.942 219.884 229.362 219.735C230.276 219.41 231.464 219.37 231.983 219.647C232.248 219.789 232.698 219.779 233.501 219.613C234.478 219.411 234.766 219.423 235.49 219.692C235.955 219.865 236.556 219.961 236.826 219.906C237.161 219.837 237.426 219.926 237.661 220.185C237.986 220.543 238.058 220.549 238.917 220.276C239.544 220.078 240.849 219.974 243.095 219.943C245.85 219.906 246.457 219.95 246.976 220.227C247.315 220.408 248.076 220.696 248.668 220.867C250.143 221.294 250.675 221.894 250.675 223.134C250.675 224.271 250.434 224.615 250.018 224.073ZM213.728 222.976C212.787 222.215 213.064 220.104 214.633 216.084C215.339 214.272 215.667 213.801 215.667 214.594C215.667 215.762 217.433 219.433 218.624 220.742L219.009 221.165L218.274 221.303C217.823 221.387 217.227 221.727 216.736 222.179C215.478 223.337 214.496 223.597 213.728 222.976Z" fill="currentcolor"/>

</svg>
