<svg viewBox="0 0 1180 580" fill="currentcolor" xmlns="http://www.w3.org/2000/svg">
<path d="M266.762 331.924C265.956 328.817 264.633 325.545 263.353 323.489C262.905 322.77 261.794 321.296 261.7 321.296C261.659 321.296 261.451 321.722 261.239 322.242C260.563 323.892 259.089 326.184 257.733 327.691C257.22 328.262 257.217 328.274 257.947 326.778C259.156 324.299 259.744 320.963 259.747 316.568V314.824L260.119 315.089C261.275 315.91 264.706 319.486 266.175 321.398C267.02 322.499 268.144 324.658 268.308 325.499C268.347 325.7 268.547 325.55 269.448 324.646C273.458 320.618 275.223 316.633 275.666 310.607C275.712 309.988 275.791 309.481 275.842 309.481C275.893 309.481 276.542 310.058 277.284 310.764C279.053 312.444 280.123 313.957 281.096 316.15L281.558 317.191L281.868 316.168C282.72 313.355 283.381 308.654 283.418 305.156C283.425 304.486 283.466 303.64 283.51 303.275L283.589 302.612L284.093 303.214C284.864 304.136 286.882 307.272 288.231 309.646C289.644 312.131 289.55 312.165 289.694 309.115C289.828 306.298 289.445 303.065 288.723 300.916C288.549 300.398 288.407 299.935 288.407 299.888C288.407 299.741 290.708 302.07 291.342 302.86C291.673 303.271 292.251 304.121 292.627 304.748L293.311 305.887L293.235 304.989C293.035 302.639 291.957 299.081 290.48 295.899C290.293 295.497 289.972 294.794 289.765 294.336C288.628 291.822 284.593 285.036 282.437 282.012L281.916 281.282L281.998 282.012C282.138 283.254 282.787 285.71 283.431 287.433C284.396 290.017 285.359 291.97 286.972 294.613C287.609 295.656 287.394 295.489 285.487 293.463C282.6 290.396 278.481 284.118 276.737 280.127C276.516 279.623 276.335 279.267 276.334 279.335C276.326 280.034 277.456 285.822 278.118 288.468C278.802 291.205 280.666 297.118 281.099 297.927C281.171 298.062 281.202 298.202 281.167 298.237C280.96 298.444 276.176 290.003 271.506 281.192C270.841 279.937 270.247 278.909 270.186 278.908C269.972 278.904 269.147 279.885 268.715 280.657C267.486 282.851 266.214 287.537 265.484 292.56C265.11 295.134 265.107 295.149 264.989 295.031C264.776 294.819 264.272 293.299 264.082 292.294C263.606 289.793 263.61 286.715 264.096 281.377C264.213 280.09 264.27 278.999 264.223 278.951C264.076 278.805 262.797 279.768 261.535 280.976C257.207 285.117 253.583 291.869 251.275 300.09C250.638 302.359 249.974 305.22 249.618 307.227C249.475 308.031 249.331 308.716 249.296 308.75C249.079 308.964 249.879 302.285 250.37 299.797C250.502 299.127 250.637 298.414 250.67 298.213C250.93 296.624 252.173 292.268 253.031 289.941C256.209 281.321 261.053 274.667 267.834 269.606C268.09 269.415 268.28 269.238 268.255 269.214C268.23 269.189 267.692 269.112 267.058 269.042C265.689 268.89 264.123 268.579 262.128 268.061C258.646 267.157 256.041 265.766 255.432 264.486C254.733 263.014 255.941 261.297 258.065 260.746C258.382 260.663 260.773 260.572 264.137 260.514C271.15 260.393 273.224 260.176 278.162 259.043C281.03 258.385 282.185 258.026 283.345 257.431C284.488 256.846 285.843 255.569 286.368 254.584C286.781 253.809 287.187 252.271 287.187 251.481V250.893L286.546 251.301C282.506 253.881 275.773 255.398 267.491 255.595C263.98 255.678 263.229 255.579 261.698 254.832C259.956 253.981 258.498 252.122 257.807 249.871C257.666 249.411 257.475 248.42 257.382 247.668C257.195 246.15 257.054 245.797 256.373 245.14C255.594 244.389 254.37 244.025 251.149 243.587C246.687 242.981 244.895 242.561 243.161 241.714L242.124 241.208L244.076 241.128C246.004 241.048 247.753 240.813 250.722 240.235C254.73 239.455 255.205 239.397 257.674 239.388L260.052 239.379L261.393 239.838C263.379 240.519 266.48 242.103 270.052 244.263C277.53 248.783 278.081 249.026 281.501 249.316C282.838 249.43 283.345 249.42 284.58 249.258C287.219 248.912 288.303 248.407 288.535 247.418C288.597 247.15 288.64 245.972 288.629 244.799C288.611 242.867 288.633 242.613 288.866 242.089C289.008 241.771 289.19 241.51 289.271 241.51C289.351 241.51 289.972 241.904 290.65 242.385C292.848 243.945 293.822 244.584 294.443 244.875L295.053 245.16L295.152 244.645C295.207 244.361 295.225 243.472 295.191 242.668C295.089 240.221 294.574 238.25 293.409 235.846C291.428 231.761 287.946 227.892 282.674 223.919C281.137 222.761 278.261 220.803 278.096 220.803C278.056 220.803 277.794 220.645 277.513 220.453C276.767 219.942 273.874 218.358 271.693 217.267C264.309 213.574 255.848 210.629 249.47 209.531C247.557 209.202 243.891 208.973 243.895 209.183C243.895 209.243 244.788 209.617 245.877 210.014C246.966 210.412 248.324 210.97 248.895 211.256C249.912 211.763 250.604 212.313 250.436 212.481C250.345 212.571 248.937 212.368 245.661 211.793C244.375 211.567 243.157 211.428 242.453 211.426C241.358 211.422 241.078 211.548 241.788 211.723C242.522 211.903 246.332 214.002 246.332 214.226C246.332 214.262 245.714 214.244 244.96 214.188C243.081 214.046 236.603 214.174 234.075 214.403C224.591 215.26 216.996 217.363 213.439 220.117C213.09 220.388 212.821 220.626 212.842 220.647C212.863 220.668 213.258 220.63 213.721 220.564C214.835 220.403 217.675 220.405 219.295 220.568C220.685 220.708 222.082 221.043 222.153 221.255C222.177 221.326 222.025 221.444 221.816 221.516C220.724 221.897 213.922 225.903 209.671 228.669C206.841 230.511 204.167 232.447 204.287 232.566C204.314 232.593 204.657 232.503 205.049 232.365C206.752 231.767 210.128 231.309 211.854 231.442C213.294 231.553 213.356 231.654 212.292 232.168C208.407 234.043 201.219 239.726 198.599 242.994C197.818 243.968 196.94 245.355 196.94 245.613C196.94 245.716 197.2 245.665 197.763 245.452C200.116 244.563 203.272 244.191 204.748 244.629L205.405 244.824L204.97 245.086C204.731 245.23 204.108 245.677 203.586 246.079C199.759 249.022 196.129 253.018 194.687 255.876C194.308 256.625 193.992 257.468 194.089 257.468C194.124 257.468 194.52 257.252 194.968 256.989C196.072 256.339 197.225 255.966 197.898 256.041C198.965 256.161 198.924 256.272 197.144 258.078C195.273 259.976 194.291 261.364 193.153 263.716C192.738 264.573 192.419 265.295 192.444 265.319C192.469 265.344 192.928 265.09 193.464 264.757C195.388 263.56 197.023 262.883 198.404 262.713C198.84 262.659 199.212 262.628 199.232 262.645C199.252 262.662 198.959 263.106 198.581 263.633C198.203 264.159 197.67 264.972 197.397 265.438C196.83 266.408 195.214 269.712 194.95 270.441C194.853 270.709 194.514 271.613 194.198 272.45C193.881 273.288 193.517 274.272 193.389 274.637L193.156 275.301L193.543 274.942C193.756 274.744 194.022 274.496 194.133 274.391C194.599 273.95 195.981 273.039 196.591 272.77C197.439 272.395 198.895 271.993 199.745 271.9C200.114 271.86 200.539 271.802 200.69 271.771C201.044 271.699 201.041 271.819 200.654 273.149C199.956 275.549 199.186 280.183 198.837 284.083C198.491 287.958 198.443 292.793 198.751 292.793C198.797 292.793 198.935 292.505 199.058 292.153C199.5 290.889 202.459 283.224 202.62 282.926L202.784 282.622L202.79 282.926C202.809 283.994 203.242 288.223 203.701 291.818C204.317 296.66 206.181 304.368 207.601 307.951C207.838 308.55 208.011 309.061 207.984 309.088C207.875 309.197 206.632 307.262 206.086 306.131C205.247 304.395 204.21 301.282 203.772 299.188C203 295.488 202.655 293.406 202.395 290.874C202.318 290.121 202.223 289.504 202.184 289.504C202.146 289.504 202.02 289.847 201.904 290.265C200.471 295.479 199.257 301.177 198.941 304.182L198.851 305.035L198.691 304.426C196.449 295.923 195.787 286.181 197.004 279.606C197.225 278.415 197.59 276.985 197.911 276.055C198.048 275.66 198.159 275.31 198.159 275.277C198.159 275.159 197.076 275.372 196.41 275.621C194.392 276.375 192.2 278.65 191.068 281.166C190.843 281.665 190.621 282.073 190.575 282.073C190.274 282.073 190.196 278.24 190.465 276.714C191.088 273.186 193.13 268.448 195.202 265.72C195.495 265.335 195.708 265.02 195.675 265.02C195.581 265.02 191.957 267.198 191.147 267.741C190.292 268.314 189.573 268.853 189.109 269.268L188.778 269.564L188.848 269.089C188.966 268.288 189.585 266.552 190.159 265.411C190.913 263.91 192.156 262.098 193.808 260.087C194.579 259.149 195.194 258.365 195.174 258.345C195.101 258.269 193.184 259.467 192.184 260.212C191.614 260.636 190.902 261.234 190.603 261.54C190.304 261.846 190.01 262.097 189.949 262.097C189.605 262.097 190.437 259.349 191.334 257.521C193.3 253.518 197.399 248.644 200.588 246.519C201.416 245.967 201.562 245.827 201.342 245.795C200.95 245.737 198.787 246.22 197.839 246.576C197.001 246.891 194.859 247.927 194.159 248.356C193.937 248.492 193.724 248.571 193.684 248.531C193.573 248.42 193.975 247.429 194.704 246.018C196.222 243.075 199.191 239.826 203.221 236.696C204.89 235.399 206.948 234.013 208.197 233.344C208.72 233.063 209.129 232.815 209.106 232.792C209.021 232.707 206.595 233.118 205.416 233.418C204.745 233.588 203.723 233.916 203.144 234.147C202.566 234.378 202.059 234.567 202.017 234.567C201.888 234.567 202.33 233.561 202.755 232.889C203.996 230.924 207.767 227.824 212.367 224.985C213.977 223.991 216.61 222.522 217.479 222.134L217.957 221.92L217.418 221.849C215.503 221.599 212.426 221.394 211.123 221.43L209.592 221.473L210.529 220.601C215.276 216.186 223.533 213.438 234.258 212.703C235.767 212.599 237.87 212.483 238.931 212.443C241.252 212.357 241.246 212.341 238.495 211.342C237.473 210.972 236.584 210.619 236.52 210.558C236.362 210.408 239.684 210.418 241.649 210.573C243.019 210.681 244.731 210.917 245.721 211.135C246.152 211.23 244.182 210.038 242.796 209.366L241.639 208.804L244.077 208.77C247.692 208.719 251.011 209.154 255.112 210.215C263.465 212.378 273.037 216.851 281.821 222.697C290.253 228.309 295.615 235.021 297.003 241.702C297.272 243 297.467 245.417 297.377 246.345L297.304 247.099L297.885 247.492C298.766 248.088 301.422 250.82 302.241 251.973C304.633 255.339 306.157 258.924 306.777 262.645C307.074 264.428 307.074 267.751 306.777 269.466C306.063 273.597 304.425 277.141 301.569 280.734C301.117 281.303 300.618 281.889 300.46 282.036L300.174 282.303L300.215 280.826C300.383 274.805 297.541 271.397 291.694 270.608C290.322 270.422 287.45 270.547 285.983 270.857C284.794 271.107 283.954 271.52 283.027 272.308C282.356 272.879 281.998 273.569 281.767 274.736C281.576 275.699 281.578 275.788 281.807 276.751C282.281 278.743 283.591 281.408 286.54 286.376C293.261 297.699 295.748 304.247 295.916 311.064L295.968 313.196L295.741 312.587C295.366 311.584 294.524 309.994 293.681 308.696C292.889 307.478 291.087 305.056 291.021 305.122C291.002 305.141 291.058 305.432 291.145 305.769C291.749 308.092 292.055 311.702 291.844 314.018C291.709 315.514 291.213 317.81 290.974 318.049C290.785 318.238 290.108 317.052 287.53 312.018C286.122 309.267 284.86 306.845 284.726 306.635L284.482 306.253L284.55 307.106C284.963 312.326 284.603 318.687 283.705 322.007C283.292 323.533 282.24 325.688 282.031 325.436C282.004 325.404 281.803 324.857 281.585 324.22C280.75 321.791 278.686 318.061 277.34 316.551L276.857 316.008L276.771 316.765C276.613 318.163 275.757 321.097 274.916 323.124C274.445 324.26 273.181 326.649 272.496 327.699C271.573 329.113 270.614 330.272 269.424 331.412C268.582 332.219 267.319 333.234 267.157 333.234C267.125 333.234 266.947 332.645 266.76 331.925L266.762 331.924ZM302.189 277.14C303.365 274.584 304.367 271.215 304.634 268.918C304.84 267.145 304.717 263.861 304.387 262.308C303.674 258.955 302.117 255.802 299.726 252.867C298.162 250.948 295.134 248.149 293.042 246.69C292.673 246.432 292.152 246.049 291.883 245.838C291.615 245.627 291.24 245.358 291.05 245.239C290.86 245.121 290.48 244.823 290.206 244.577C289.74 244.158 289.713 244.149 289.794 244.434C290.324 246.296 290.432 248.956 290.058 250.95C289.273 255.13 287.189 258.635 284.844 259.717C282.127 260.971 278.511 261.312 269.026 261.209C260.223 261.113 257.853 261.294 257.021 262.123C256.73 262.413 256.684 262.537 256.749 262.861C257.164 264.932 261.562 266.958 267.493 267.809C268.432 267.943 269.996 268.124 270.968 268.211C273.029 268.393 281.263 268.424 283.103 268.255L284.322 268.144L281.883 267.867C280.542 267.715 278.648 267.504 277.676 267.397C273.086 266.892 266.511 265.918 264.017 265.372C261.629 264.85 260.236 264.325 260.236 263.949C260.236 263.833 260.307 263.803 260.45 263.86C260.964 264.062 262.867 264.411 264.383 264.581C266.695 264.84 269.642 265.005 274.383 265.139C283.534 265.398 289.983 266.071 293.835 267.171C297.45 268.202 300.717 270.45 301.458 272.416C301.905 273.601 301.969 275.438 301.64 277.597C301.591 277.915 301.587 278.175 301.632 278.175C301.676 278.175 301.927 277.709 302.189 277.14ZM291.335 258.92C291.335 258.846 291.991 258.117 292.794 257.299C294.798 255.257 295.011 254.686 293.854 254.451L293.347 254.347L294.187 254.065C295.692 253.559 297.199 253.752 297.537 254.495C297.742 254.944 297.703 255.51 297.423 256.125C297.047 256.953 296.865 257.102 296.224 257.105C294.479 257.112 293.206 257.531 292.035 258.484C291.65 258.797 291.335 258.993 291.335 258.92ZM267.852 253.816C268.856 253.338 269.806 252.412 270.296 251.434C270.609 250.809 270.659 250.571 270.659 249.733C270.659 248.743 270.411 247.998 269.955 247.62C269.806 247.497 269.763 247.547 269.693 247.933C269.561 248.662 269.087 249.593 268.603 250.077C267.91 250.769 267.265 251.044 266.18 251.108C265.304 251.161 265.173 251.136 264.448 250.779C262.186 249.667 261.232 246.784 262.369 244.495C262.649 243.932 262.656 243.874 262.467 243.733C262.148 243.495 261.678 243.552 260.96 243.916C260.239 244.282 259.762 244.865 259.448 245.765C259.189 246.51 259.194 248.853 259.457 249.775C260.281 252.659 262.876 254.405 266.107 254.249C266.842 254.213 267.212 254.121 267.852 253.816ZM231.679 326.629C228.478 322.836 226.015 317.831 224.463 311.967L224.046 310.394L223.914 310.882C223.462 312.551 222.718 316.908 222.427 319.591C222.35 320.294 222.271 321.007 222.251 321.175C222.231 321.342 222.174 322.027 222.125 322.697C222.076 323.367 222.019 324.052 221.999 324.22C221.979 324.387 221.957 324.963 221.949 325.499L221.936 326.473L221.57 326.047C217.968 321.849 214.971 315.603 213.239 308.689C212.783 306.866 212.275 304.357 212.348 304.285C212.372 304.26 212.514 304.666 212.664 305.186C213.629 308.537 216.438 313.809 218.879 316.85L219.563 317.703L219.65 317.033C219.768 316.119 220.075 315.129 222.156 308.972L223.953 303.652L224.105 304.709C224.343 306.363 225.053 309.044 226.079 312.161L227.021 315.023L227.11 313.866C227.507 308.699 229.703 301.484 232.924 294.768C234.287 291.927 235.642 289.756 235.897 290.004C235.939 290.045 235.775 290.538 235.532 291.1C232.5 298.134 230.893 306.942 230.978 316.059C231.002 318.556 231.205 321.647 231.46 323.367C231.644 324.609 232.016 326.396 232.181 326.825C232.255 327.019 232.294 327.198 232.268 327.224C232.243 327.25 231.977 326.982 231.679 326.629ZM208.405 287.01C208.405 286.979 208.619 286.307 208.879 285.518C211.571 277.368 215.595 272.183 221.669 269.037C222.224 268.749 222.662 268.499 222.643 268.481C222.588 268.426 218.962 269.558 217.369 270.127C213.638 271.459 209.836 273.18 208.178 274.286C207.783 274.549 207.433 274.765 207.4 274.765C207.299 274.765 207.558 273.539 207.863 272.576C208.28 271.258 209.699 268.47 210.758 266.888C212.964 263.594 215.803 260.664 218.571 258.823C219.03 258.518 219.356 258.251 219.294 258.23C219.147 258.181 214.003 259.487 211.515 260.205C210.442 260.515 208.439 261.143 207.064 261.6C205.689 262.058 204.543 262.414 204.518 262.391C204.434 262.316 205.887 260.378 207.012 259.064C209.755 255.861 213.225 253.158 216.868 251.386C218.471 250.606 221.422 249.476 221.542 249.597C221.571 249.626 221.154 249.879 220.615 250.159C219.339 250.822 217.001 252.356 215.845 253.29C215.341 253.696 214.461 254.515 213.888 255.109C212.851 256.185 211.373 258.036 211.472 258.135C211.501 258.164 211.934 258.081 212.434 257.952C213.824 257.592 215.562 257.365 217.979 257.229C219.186 257.161 220.64 257.07 221.209 257.026C222.422 256.933 222.483 256.738 220.679 258.736C217.98 261.726 216.136 264.086 215.467 265.41C215.171 265.994 214.503 267.631 214.503 267.771C214.503 267.794 214.741 267.711 215.031 267.587C216.942 266.768 222.324 265.226 226.085 264.418C230.216 263.531 235.549 262.715 238.467 262.525L239.565 262.454L238.342 262.87C230.594 265.507 222.199 270.81 216.149 276.887C213.199 279.85 210.386 283.498 208.977 286.184C208.568 286.965 208.405 287.2 208.405 287.01ZM207.064 245.767C211.992 241.815 217.751 239.38 224.381 238.446C226.096 238.204 230.813 238.24 232.369 238.507C233.886 238.766 235.46 239.18 236.858 239.687C238.064 240.124 238.188 240.278 237.109 239.999C234.887 239.425 231.382 239.139 228.744 239.316C224.882 239.575 221.53 240.339 217.674 241.838C216.136 242.436 212.483 244.162 212.571 244.25C212.601 244.28 213.309 244.245 214.144 244.172C216.087 244.004 220.42 244.112 221.942 244.367C223.683 244.659 225.845 245.309 225.845 245.541C225.845 245.598 225.776 245.621 225.692 245.593C225.403 245.496 222.36 245.281 219.629 245.166C215.639 244.997 210.449 245.312 207.674 245.892C206.831 246.068 206.718 246.045 207.064 245.767ZM282.919 234.891C280.681 233.397 276.737 231.092 274.399 229.912C273.1 229.257 272.084 228.722 272.143 228.724C272.201 228.728 274.17 229.347 276.517 230.104C279.821 231.169 280.795 231.44 280.827 231.306C280.932 230.869 280.328 229.278 279.568 227.989C279.272 227.489 279.269 227.469 279.527 227.758C280.39 228.725 282.564 231.508 283.302 232.59C284.697 234.636 285.045 235.663 284.344 235.663C284.197 235.663 283.556 235.316 282.919 234.891Z" fill="currentcolor"/>

</svg>
