<svg  viewBox="0 0 1180 580" fill="currentcolor" xmlns="http://www.w3.org/2000/svg">
<path d="M249.363 318.003C249.821 317.803 249.826 317.787 249.459 317.634C249.248 317.546 248.212 317.338 247.156 317.171C244.234 316.709 242.881 316.126 241.242 314.619C238.936 312.501 237.129 311.411 235.074 310.9C230.821 309.843 228.648 307.498 229.389 304.768C229.687 303.672 230.216 303.096 231.473 302.499C232.453 302.033 232.789 301.977 234.587 301.973C240.518 301.962 246.007 305.051 249.248 310.225C252.062 314.716 254.365 316.258 258.798 316.619C260.788 316.781 264.083 316.282 268.649 315.129C271.944 314.296 272.759 314.157 274.406 314.144C276.275 314.129 277.065 314.282 278.491 314.933C279.373 315.335 279.481 315.088 278.75 314.341C277.488 313.05 275.581 312.436 272.199 312.23C266.308 311.871 263.858 309.949 264.696 306.345C265.333 303.608 267.891 300.242 269.705 299.754C270.922 299.426 272.562 299.484 274.79 299.932C281.274 301.239 286.383 300.827 290.91 298.633C294.044 297.113 296.342 294.873 297.442 292.262C297.593 291.904 297.802 291.559 297.906 291.496C298.215 291.307 298.545 289.853 298.329 289.638C298.204 289.515 298.025 289.811 297.805 290.502C297.375 291.854 296.982 292.066 294.955 292.044C293.74 292.03 292.864 291.866 290.91 291.283C288.522 290.572 288.3 290.54 285.724 290.54C283.081 290.54 283.011 290.55 281.778 291.152C281.088 291.489 280.249 292.063 279.914 292.428C279.536 292.839 278.995 293.173 278.487 293.307C278.037 293.425 277.15 293.696 276.517 293.908C274.908 294.447 272.276 294.586 271.473 294.174C270.211 293.528 269.957 292.096 270.808 290.431C271.438 289.199 272.704 288.187 274.367 287.586C275.704 287.103 279.175 286.452 280.436 286.447C281.233 286.444 282.014 286.198 281.789 286.019C281.45 285.75 279.719 285.278 278.39 285.092C274.781 284.586 271.219 285.767 268.516 288.367C266.598 290.212 265.907 290.499 263.372 290.506C261.117 290.513 260.065 290.186 259.112 289.183C257.939 287.947 257.726 286.417 258.438 284.347C259.448 281.408 261.467 279.2 264.427 277.793C267.105 276.521 268.186 276.306 271.144 276.455C275.569 276.678 280.006 276.124 282.082 275.09C282.399 274.932 283.262 274.312 284.001 273.712C288.051 270.425 293.87 267.092 297.803 265.81C300.695 264.866 304.142 264.203 306.212 264.191C307.814 264.182 306.901 263.847 304.119 263.424C299.921 262.785 294.661 263.031 292.839 263.951C292.517 264.114 291.863 264.605 291.387 265.043C289.834 266.471 287.748 267.641 286.069 268.025C285.214 268.22 284.857 268.181 282.611 267.646C281.233 267.318 279.673 267.05 279.144 267.05C277.151 267.05 275.039 268.056 273.351 269.809C270.689 272.574 267.128 274.387 265.313 273.903C264.262 273.623 263.347 272.595 263.246 271.583C263.129 270.403 263.476 269.906 264.959 269.132C265.672 268.76 266.707 268.078 267.26 267.616C268.448 266.623 269.608 265.369 269.467 265.229C269.412 265.175 268.973 265.393 268.492 265.715C266.587 266.99 264.602 267.481 263.044 267.065C261.307 266.601 259.584 264.676 259.392 262.983C259.249 261.726 259.746 261.315 261.933 260.885C263.75 260.527 265.1 259.97 265.097 259.581C265.093 259.452 264.754 259.205 264.337 259.031C263.383 258.634 262.798 257.721 262.797 256.627C262.793 255.472 263.233 254.77 264.422 254.016C267.335 252.17 271.463 252.16 276.035 253.99C278.246 254.876 277.81 254.22 275.27 252.84C273.472 251.864 272.285 251.556 270.376 251.571C268.429 251.586 266.881 251.961 265.313 252.796C264.595 253.179 264.376 253.241 264.596 253C264.77 252.81 265.408 252.419 266.013 252.132C266.619 251.845 267.246 251.543 267.408 251.461C268.055 251.133 270.59 250.842 271.762 250.961C273.336 251.121 274.52 251.588 276.948 253.007C279.844 254.7 281.815 255.283 285.057 255.408C286.953 255.481 287.493 255.552 287.072 255.671C286.322 255.884 283.511 255.927 282.226 255.745C280.804 255.544 280.952 255.877 282.514 256.393C286.298 257.643 290.067 256.789 293.115 253.992C294.403 252.81 295.52 251.49 295.363 251.334C295.306 251.278 294.583 251.692 293.757 252.255C291.202 253.992 290.612 254.211 288.496 254.211C286.766 254.211 286.615 254.179 285.933 253.663C284.676 252.713 284.335 251.037 285.234 250.23C285.433 250.052 286.347 249.701 287.265 249.451C289.271 248.904 290.701 248.138 291.466 247.202C292.157 246.356 292.043 246.173 291.149 246.696C288.851 248.04 285.916 248.685 282.178 248.668C278.384 248.651 277.333 248.364 274.214 246.49C272.085 245.21 270.771 244.797 268.835 244.797C267.94 244.797 266.913 244.917 266.461 245.076C265.836 245.294 265.695 245.301 265.813 245.106C266.092 244.643 268.449 242.581 269.801 241.617C272.564 239.645 274.637 238.876 280.451 237.663C285.517 236.606 286.426 236.377 286.251 236.204C286.163 236.117 285.059 236.13 283.799 236.233C282.538 236.337 281.204 236.417 280.835 236.412C280.062 236.4 279.999 236.436 282.658 235.39C284.241 234.768 289.11 232.135 290.238 231.292C290.998 230.724 290.559 230.659 289.472 231.179C287.285 232.224 283.857 232.974 280.355 233.172C278.878 233.256 277.323 233.301 276.901 233.273C276.479 233.245 275.961 233.214 275.75 233.204C275.442 233.19 275.537 233.045 276.224 232.477C278.531 230.57 280.074 228.314 280.548 226.157L280.694 225.491L279.252 226.848C278.007 228.02 275.46 229.771 275.001 229.771C274.918 229.771 275.185 229.364 275.594 228.867C277.459 226.603 278.612 224.473 278.823 222.902C278.885 222.443 278.979 221.789 279.031 221.449C279.162 220.59 278.783 220.667 278.544 221.548C278.301 222.442 277.252 224.186 276.226 225.399C274.631 227.288 271.597 229.137 268.298 230.231C266.64 230.781 263.196 231.55 263.04 231.405C263.016 231.382 263.631 230.927 264.405 230.394C265.18 229.86 266.116 229.052 266.485 228.598C268.03 226.7 268.085 226.088 266.615 227.143C266.156 227.473 265.174 228.02 264.432 228.358C263.142 228.948 262.594 229.081 259.342 229.593C257.892 229.822 255.845 230.413 254.476 230.998C254.069 231.172 253.707 231.286 253.672 231.251C253.533 231.114 254.979 230.277 256.119 229.837C258.192 229.036 258.766 228.767 258.766 228.598C258.766 228.42 258.164 228.489 255.12 229.018C251.338 229.675 247.26 231.136 243.798 233.074C241.066 234.604 240.048 235.065 237.945 235.728C235.551 236.483 233.069 237.078 232.922 236.934C232.868 236.88 233.221 236.274 233.705 235.587C234.19 234.899 234.587 234.251 234.587 234.146C234.587 233.899 234.261 233.899 234.106 234.146C234.04 234.251 233.72 234.474 233.393 234.642C232.744 234.975 230.317 235.682 230.205 235.571C230.166 235.533 230.523 234.961 230.997 234.3C232.186 232.642 233.082 230.952 232.848 230.809C232.742 230.744 232.335 230.971 231.942 231.313C231.179 231.979 228.41 233.792 228.309 233.692C228.276 233.659 228.648 233.042 229.137 232.32C231.443 228.911 233.052 224.659 233.052 221.971C233.052 220.505 232.751 220.701 232.385 222.405C231.57 226.2 229.767 229.718 227.32 232.29C226.518 233.132 226.219 233.21 226.592 232.48C227.1 231.486 227.188 229.96 226.737 229.96C226.663 229.96 226.412 230.351 226.178 230.828C225.35 232.518 223.55 234.085 220.523 235.751C219.626 236.244 219.088 236.431 218.796 236.35C217.979 236.122 213.942 235.3 212.184 235.004C207.379 234.192 200.385 233.688 196.096 233.844C182.499 234.337 171.983 238.497 165.055 246.121C164.402 246.839 163.62 247.62 163.318 247.855C162.597 248.418 162.24 249.307 162.24 250.543V251.548L160.826 251.892C160.048 252.081 158.904 252.45 158.283 252.711C157.663 252.973 156.993 253.237 156.795 253.299C156.597 253.361 155.258 254.006 153.82 254.733C152.382 255.46 150.277 256.43 149.142 256.89C145.795 258.246 144.037 259.538 142.576 261.716C141.035 264.013 140.847 264.83 140.846 269.237C140.846 272.686 140.886 273.165 141.284 274.372C142.342 277.582 144.07 280.094 146.358 281.751C147.194 282.356 147.661 282.837 147.744 283.177C147.812 283.46 148.251 284.477 148.719 285.438C149.701 287.452 151.173 289.157 152.582 289.913C153.503 290.407 155.674 291.119 155.82 290.974C155.862 290.933 155.707 290.518 155.474 290.053C155.168 289.44 155.022 288.71 154.941 287.401C154.88 286.407 154.844 285.571 154.861 285.542C154.878 285.514 155.487 285.629 156.215 285.797C157.96 286.199 160.333 286.105 161.376 285.591C161.95 285.308 162.323 284.903 162.862 283.977C164.162 281.742 165.662 280.544 167.777 280.052C168.714 279.834 168.984 279.84 169.77 280.096C170.32 280.275 170.829 280.602 171.061 280.925C171.607 281.685 172.03 283.471 172.008 284.92C171.979 286.808 171.869 287.038 170.854 287.331C169.659 287.677 168.343 288.868 167.817 290.079C167.583 290.618 167.224 291.884 167.02 292.891C166.338 296.257 166.032 297.378 165.466 298.578C164.814 299.961 164.243 300.424 163.414 300.244C162.626 300.072 160.644 298.219 159.163 296.269C158.436 295.312 157.782 294.634 157.584 294.632C157.179 294.627 156.485 295.685 156.484 296.308C156.48 296.915 156.073 296.751 155.716 296.001C155.557 295.669 155.365 295.395 155.288 295.393C155.001 295.385 154.897 296.445 155.007 298.242C155.14 300.408 155.744 302.136 156.79 303.348L157.456 304.119L156.784 304.243C155.699 304.445 155.593 304.741 156.195 305.895C158.441 310.202 162.806 313.478 168.285 314.966C171.447 315.824 173.264 316.019 178.168 316.022C181.923 316.026 183.323 315.952 185.124 315.658C186.365 315.456 187.379 315.233 187.379 315.163C187.379 315.093 186.653 314.985 185.766 314.923C184.117 314.808 182.101 314.335 181.902 314.016C181.838 313.913 182.337 313.838 183.098 313.838C183.817 313.838 185.082 313.71 185.909 313.553C186.736 313.396 187.449 313.268 187.492 313.268C187.536 313.268 187.571 313.192 187.571 313.099C187.571 313.006 187.291 312.877 186.948 312.813C185.929 312.622 185.103 312 184.655 311.086C184.196 310.15 184.292 309.789 184.865 310.302C185.497 310.869 188.339 311.496 188.339 311.069C188.339 311.011 188.074 310.636 187.75 310.237C186.95 309.25 186.427 307.184 186.423 304.99C186.417 301.953 187.387 299.602 188.525 299.897C189.297 300.097 190.515 301.993 191.403 304.375C191.846 305.566 193.039 309.782 193.268 310.971C193.475 312.042 193.84 312.182 194.015 311.255C194.227 310.138 193.967 307.63 193.427 305.584C193.155 304.549 192.959 303.621 192.992 303.521C193.101 303.198 194.22 304.507 194.746 305.572C195.386 306.868 196.332 309.711 196.705 311.458C196.974 312.721 197.339 313.495 197.374 312.878C197.522 310.272 196.706 306.625 195.402 304.072C195.197 303.67 195.073 303.297 195.127 303.243C195.338 303.034 196.437 304.029 197.233 305.149C198.279 306.621 198.902 307.901 199.752 310.32C200.494 312.43 200.873 312.874 200.698 311.429C200.522 309.964 199.933 307.82 199.093 305.582C198.665 304.441 198.356 303.466 198.407 303.416C198.613 303.211 199.931 304.442 200.576 305.441C200.955 306.029 201.537 307.301 201.868 308.269C202.199 309.237 202.525 310.083 202.592 310.149C202.855 310.411 202.972 309.117 202.871 307.065L202.763 304.908L204.618 303.559L205.927 304.047C206.646 304.315 208.088 304.669 209.13 304.833C210.867 305.105 211.168 305.104 212.754 304.816C214.649 304.473 215.552 304.085 217.03 302.979C220.404 300.454 221.706 301.493 222.888 307.657C223.677 311.77 224.811 313.708 227.083 314.829C227.921 315.242 228.143 315.262 231.38 315.205C233.318 315.172 235.434 315.241 236.274 315.365C237.672 315.573 240.309 316.391 243.318 317.551C244.418 317.975 245.045 318.082 246.773 318.141C248.055 318.184 249.072 318.131 249.363 318.003ZM256.697 315.17C254.408 314.305 252.389 312.544 250.373 309.655C247.996 306.249 247.081 305.159 245.912 304.347C243.898 302.946 240.942 301.844 237.479 301.201C236.589 301.036 235.819 300.859 235.768 300.808C235.549 300.591 239.283 300.74 240.846 301.009C245.58 301.827 248.171 303.347 250.375 306.6C252.72 310.062 254.742 312.32 256.416 313.345C258.227 314.453 260.701 314.677 263.881 314.019C266.848 313.405 268.966 313.044 269.06 313.137C269.198 313.274 262.558 315.395 261.261 315.627C260.275 315.805 257.69 315.546 256.697 315.17ZM234.491 314.312C229.128 313.871 227.643 313.446 226.155 311.927C225.201 310.952 224.605 309.682 224.376 308.133C223.69 303.507 223.469 302.769 222.386 301.493C221.575 300.538 221.993 300.589 223.057 301.575C224.193 302.628 224.947 304.083 225.209 305.729C225.822 309.575 226.644 311.05 228.756 312.098C229.529 312.481 232.486 313.126 234.587 313.369C236.198 313.556 238.569 314.189 239.605 314.71C240.117 314.967 240.536 315.207 240.536 315.243C240.536 315.28 239.953 315.149 239.24 314.953C238.528 314.757 236.391 314.468 234.491 314.312ZM170.492 314.518C168.065 314.02 166.806 313.598 164.417 312.483C163.156 311.895 161.081 310.369 160.015 309.247C158.482 307.634 158.35 307.117 159.81 308.443C163.398 311.701 167.85 313.688 173.85 314.707L175.385 314.968L173.658 314.891C172.708 314.848 171.283 314.68 170.492 314.518ZM169.34 307.809C168.984 307.713 169.264 307.622 170.424 307.457C172.25 307.196 173.47 306.513 173.979 305.465C174.155 305.102 174.609 304.151 174.986 303.351C175.832 301.562 176.916 300.438 179.987 298.162C184.077 295.133 186.036 292.7 186.036 290.65C186.036 289.55 185.667 289.243 182.284 287.526C180.706 286.726 179.027 285.723 178.552 285.299C177.567 284.419 177.551 284.417 179.606 285.382C180.45 285.779 181.875 286.346 182.772 286.643C186.701 287.945 187.632 288.789 187.634 291.051C187.638 293.555 185.366 296.344 180.765 299.49C177.571 301.673 176.358 302.87 175.381 304.8C174.892 305.766 174.359 306.511 173.896 306.875C172.892 307.664 170.572 308.14 169.34 307.809ZM200.03 303.048C199.405 302.291 198.893 301.622 198.893 301.561C198.893 301.386 199.917 302.154 200.604 302.845C201.338 303.582 201.864 304.539 202.048 305.47L202.18 306.136L201.673 305.28C201.395 304.809 200.656 303.805 200.03 303.048ZM165.885 303.663C164.926 303.328 163.775 302.334 163.775 301.842C163.775 301.666 164.032 301.417 164.346 301.288C165.795 300.693 166.541 299.327 167.414 295.675C168.176 292.486 168.814 290.847 169.748 289.676C170.927 288.198 171.148 288.355 170.985 290.551C170.81 292.924 170.264 294.935 169.287 296.816C168.671 298.001 168.08 298.749 166.616 300.197C165.581 301.22 164.735 302.139 164.735 302.239C164.735 302.561 166.144 303.352 167.134 303.585C168.895 304.001 169.137 304.149 167.899 304.053C167.265 304.004 166.359 303.829 165.885 303.663ZM162.624 303.75C162.254 303.662 161.328 303.532 160.564 303.46C159.801 303.388 159.094 303.231 158.993 303.111C158.892 302.991 158.589 302.22 158.318 301.399C157.952 300.289 157.827 299.51 157.829 298.361C157.834 296.135 157.986 296.054 159.078 297.705C160.538 299.909 162.099 301.867 163.27 302.961C163.865 303.516 164.351 304.01 164.351 304.058C164.351 304.143 164.038 304.088 162.624 303.75ZM263.948 302.375C264.907 299.297 266.894 297.609 270.28 296.995C272.261 296.636 273.872 296.658 277.878 297.1C279.768 297.308 281.891 297.479 282.596 297.48C286.163 297.485 289.747 296.499 292.9 294.647C293.467 294.314 293.967 294.077 294.012 294.121C294.202 294.31 291.628 296.37 290.367 297.038C286.503 299.085 283.663 299.674 279.875 299.213C279.189 299.129 276.998 298.862 275.005 298.62C271.454 298.187 271.347 298.185 269.632 298.509C268.669 298.69 267.529 299.042 267.098 299.291C265.982 299.935 264.947 301.146 264.295 302.57C263.986 303.246 263.694 303.761 263.646 303.713C263.598 303.665 263.734 303.063 263.948 302.375ZM156.368 300.43C156.125 299.907 155.867 299.115 155.796 298.671C155.678 297.933 155.702 297.862 156.075 297.862C156.381 297.862 156.483 297.98 156.483 298.331C156.483 298.722 156.942 300.31 157.53 301.952C157.794 302.689 156.835 301.433 156.368 300.43ZM214.033 296.198C219.738 290.543 222.591 285.784 223.272 280.785C223.672 277.853 223.153 275.364 221.442 271.996C220.247 269.645 217.764 263.959 217.124 262.109C216.473 260.227 215.982 257.915 215.991 256.779C215.999 255.861 216.256 256.524 216.434 257.92C217.04 262.676 219.891 267.294 223.169 268.832C227.839 271.024 236.346 269.917 243.778 266.151C244.875 265.595 245.817 265.184 245.871 265.237C245.924 265.29 245.631 265.649 245.219 266.035C242.446 268.633 237.869 270.153 230.404 270.954C229.627 271.037 229.221 271.162 229.267 271.302C229.418 271.757 231.01 272.765 232.057 273.069C233.588 273.513 233.005 273.602 230.997 273.231C228.699 272.805 227.158 272.289 225.846 271.506C223.893 270.341 224.35 271.191 226.492 272.71C228.467 274.109 231.378 275.112 234.875 275.596C236.194 275.779 236.184 275.781 234.299 275.7C232.313 275.614 229.418 275.101 227.812 274.551C227.305 274.377 226.846 274.279 226.792 274.332C226.507 274.614 229.258 276.693 231.653 278.004C232.686 278.57 233.423 279.033 233.29 279.033C232.973 279.033 229.806 277.793 228.364 277.103C226.871 276.39 226.697 276.418 227.497 277.241C228.422 278.194 229.659 279.063 231.228 279.862C231.967 280.238 232.505 280.548 232.424 280.55C232.018 280.561 229.897 279.557 228.467 278.677C227.582 278.133 226.761 277.724 226.644 277.769C226.289 277.905 229.072 280.44 230.64 281.408C231.447 281.907 232.072 282.349 232.029 282.391C231.987 282.434 230.887 281.997 229.587 281.421C228.286 280.844 227.181 280.413 227.132 280.461C227.083 280.51 227.467 280.909 227.984 281.349C229.041 282.246 231.938 285.102 232.679 285.976C233.773 287.268 233.371 286.949 231.397 284.96C229.945 283.497 229.027 282.733 228.382 282.45C227.872 282.227 227.408 282.09 227.35 282.147C227.293 282.204 227.785 282.832 228.444 283.542C230.587 285.852 231.96 288.174 232.189 289.874C232.289 290.612 232.214 290.498 231.64 289.041C230.823 286.966 229.445 284.929 228.199 283.953C226.754 282.82 226.567 282.931 227.575 284.323C228.625 285.771 229.596 287.967 229.699 289.127L229.791 290.159L229.343 288.828C228.464 286.217 227.099 284.229 225.582 283.348C225.009 283.015 224.984 283.015 224.868 283.348C223.414 287.504 221.524 290.315 217.918 293.684C215.944 295.528 212.07 298.612 211.717 298.62C211.645 298.624 212.688 297.532 214.033 296.198ZM170.576 296.714C171.047 295.428 171.477 293.362 171.84 290.635C171.958 289.746 172.216 288.657 172.412 288.215C173.295 286.226 176.047 286.079 177.593 287.939C178.248 288.726 178.203 288.924 177.478 288.453C175.992 287.488 174.605 287.719 173.737 289.076C173.422 289.567 173.081 290.269 172.978 290.635C171.586 295.601 171.084 297.02 170.44 297.819C170.084 298.262 170.121 297.956 170.576 296.714ZM257.784 290.585C255.461 288.829 255.089 284.703 256.959 281.44C257.954 279.703 260.405 277.304 262.086 276.422C262.946 275.97 265.511 275.148 266.652 274.957C267.031 274.894 269.234 274.76 271.546 274.66C277.315 274.409 280.305 273.885 282.643 272.716C283.908 272.083 284.404 271.74 286.592 269.989C288.675 268.322 290.365 267.331 293.308 266.051C295.189 265.234 295.567 265.324 293.788 266.166C290.966 267.502 288.248 269.306 286.335 271.115C285.333 272.062 284.562 272.612 283.426 273.19C280.08 274.893 277.62 275.371 271.048 275.595C267.02 275.732 266.154 275.816 265.003 276.176C261.931 277.139 259.277 279.095 257.612 281.623C256.536 283.257 256.184 284.653 256.309 286.79C256.414 288.593 256.931 289.652 258.158 290.578C258.614 290.923 258.902 291.205 258.796 291.205C258.691 291.205 258.235 290.926 257.784 290.585ZM151.665 287.962C150.877 287.167 150.435 286.503 150.01 285.475C149.433 284.078 149.112 283.027 149.263 283.027C149.661 283.027 152.099 283.918 152.549 284.228C153.399 284.813 153.483 285.048 153.508 286.925C153.521 287.867 153.636 288.826 153.762 289.056C153.986 289.464 153.976 289.469 153.366 289.261C153.022 289.144 152.257 288.559 151.665 287.962ZM191.425 281.688C187.947 278.254 184.953 276.14 180.348 273.865C178.832 273.116 177.62 272.475 177.654 272.441C177.839 272.258 183.212 274.992 185.237 276.3C188.631 278.491 191.728 281.214 193.862 283.883C195.23 285.594 195.522 286.049 194.47 284.834C194.018 284.311 192.648 282.895 191.425 281.688ZM199.021 280.184C198.585 279.958 198.338 279.95 197.634 280.137C197.162 280.262 195.979 280.354 195.004 280.342C194.03 280.329 193.405 280.282 193.616 280.235C195.505 279.819 197.112 279.35 197.311 279.156C197.504 278.968 197.214 278.669 195.872 277.672C189.084 272.628 182.725 269.775 176.239 268.861C174.033 268.55 169.808 268.473 169.641 268.741C169.532 268.915 170.941 270.283 171.23 270.283C171.37 270.283 171.835 271.517 171.835 271.889C171.835 271.964 171.481 271.724 171.048 271.357C170.072 270.529 168.665 269.843 167.038 269.402C165.361 268.948 161.442 268.949 159.074 269.406C157.386 269.731 154.273 270.486 153.509 270.756C153.201 270.865 153.182 270.851 153.413 270.686C154.002 270.267 156.651 269.524 158.882 269.154C161.605 268.702 168.425 268.193 171.762 268.193C180.577 268.193 189.088 271.324 196.656 277.35L198.544 278.854L199.246 278.434C200.808 277.5 201.575 276.91 202.323 276.068C202.755 275.582 203.068 275.118 203.018 275.038C202.778 274.654 197.557 271.921 194.698 270.682C191.554 269.32 186.604 267.811 184.28 267.506C183.768 267.438 183.349 267.321 183.349 267.246C183.349 267.105 186.534 267.6 188.243 268.006C192.939 269.123 198.688 271.472 202.15 273.69C203.136 274.322 203.426 274.43 203.611 274.236C204.013 273.815 204.464 271.872 204.586 270.04L204.703 268.272L202.965 267.472C195.871 264.205 187.906 262.494 179.769 262.489C176.641 262.485 172.252 262.849 170.588 263.246C169.609 263.479 169.299 263.469 169.916 263.223C171.111 262.747 174.962 262.11 177.87 261.906C182.396 261.589 188.542 262.084 191.985 263.042C192.354 263.145 193.304 263.408 194.096 263.627C195.746 264.084 198.966 265.207 200.236 265.769C200.711 265.979 201.825 266.482 202.71 266.887C203.596 267.291 204.39 267.622 204.476 267.622C204.562 267.622 204.685 267.302 204.749 266.909C205.526 262.129 208.066 257.77 211.058 256.078C211.65 255.743 212.134 255.51 212.134 255.56C212.134 255.61 211.789 256.085 211.366 256.615C209.319 259.181 208.013 262.658 207.532 266.821C207.234 269.396 207.176 269.225 208.68 270.217C209.419 270.703 210.023 271.134 210.023 271.174C210.023 271.271 209.105 270.776 208.392 270.296C208.076 270.082 207.719 269.907 207.6 269.906C207.477 269.906 207.28 270.565 207.143 271.436C206.995 272.38 206.655 273.48 206.256 274.304C205.553 275.758 205.483 276.093 205.85 276.232C206.378 276.433 209.845 279.418 211.607 281.188C213.71 283.303 214.188 284.18 212.182 282.244C210.356 280.482 209.562 279.792 207.643 278.298C205.095 276.316 205.263 276.356 203.967 277.402C202.714 278.414 201.613 279.073 200.572 279.433C200.177 279.569 199.853 279.76 199.853 279.857C199.853 279.954 200.608 280.817 201.532 281.777C204.634 284.998 205.024 285.689 202.239 283.029C200.761 281.616 199.313 280.337 199.021 280.186V280.184ZM155.767 280.249C155.831 280.186 155.997 280.179 156.135 280.234C156.288 280.295 156.243 280.34 156.019 280.349C155.817 280.357 155.704 280.312 155.767 280.249ZM156.483 280.084C156.483 280.035 156.98 279.855 157.586 279.684C161.905 278.471 165.493 276.835 167.232 275.285C167.737 274.836 168.2 274.468 168.261 274.468C168.322 274.468 168.272 274.703 168.149 274.991C167.49 276.534 165.047 278.045 161.627 279.024C158.644 279.879 156.483 280.324 156.483 280.084ZM154.084 277.623C158.618 276.117 161.042 274.95 162.727 273.461C163.304 272.952 163.775 272.611 163.775 272.703C163.775 273.144 162.57 274.676 161.826 275.181C160.108 276.348 158.534 276.962 154.852 277.904C151.648 278.724 151.23 278.571 154.084 277.623ZM142.112 274.507C141.649 273.65 141.311 268.236 141.684 267.665C141.759 267.552 142.25 267.559 143.003 267.684C144.29 267.898 145.4 267.706 147.656 266.879C150.233 265.934 151.686 266.701 151.686 269.008C151.686 269.738 151.579 270.181 151.331 270.484L150.977 270.918L150.275 270.387C148.25 268.856 145.817 269.984 143.426 273.562C142.956 274.266 142.509 274.844 142.433 274.846C142.358 274.849 142.213 274.695 142.112 274.507ZM176.633 272.185C176.282 271.961 176.585 271.961 177.112 272.185C177.365 272.293 177.398 272.352 177.208 272.359C177.05 272.365 176.791 272.287 176.633 272.185ZM174.234 271.234C174.169 271.13 174.207 271.044 174.318 271.044C174.43 271.044 174.522 271.13 174.522 271.234C174.522 271.339 174.484 271.425 174.437 271.425C174.391 271.425 174.299 271.339 174.234 271.234ZM173.23 270.929C173.294 270.866 173.46 270.859 173.598 270.914C173.751 270.975 173.706 271.02 173.482 271.029C173.28 271.037 173.167 270.992 173.23 270.929ZM260.05 267.833C259.321 267.386 258.766 266.582 258.766 265.97C258.766 265.727 258.934 265.833 259.361 266.346C260.155 267.301 261.25 267.839 262.988 268.128L264.427 268.366L262.597 268.319C261.072 268.28 260.647 268.199 260.05 267.833ZM191.653 266.935C191.717 266.872 191.882 266.865 192.021 266.92C192.174 266.981 192.128 267.026 191.905 267.035C191.702 267.043 191.589 266.998 191.653 266.935ZM181.382 266.924C181.514 266.871 181.73 266.871 181.862 266.924C181.994 266.977 181.886 267.02 181.622 267.02C181.358 267.02 181.25 266.977 181.382 266.924ZM171.349 266.849C171.137 266.51 169.292 265.757 167.792 265.398C166.66 265.127 165.554 265.056 162.432 265.055C160.268 265.051 158.07 265.118 157.546 265.198C156.948 265.288 156.663 265.275 156.779 265.162C157.098 264.85 160.313 264.522 163.104 264.516C168.738 264.505 181.412 264.943 183.829 265.233C186.536 265.558 189.644 266.156 190.786 266.572C191.626 266.878 191.414 266.944 190.462 266.674C189.353 266.358 185.665 265.745 183.541 265.523C180.797 265.236 170.75 265.078 170.6 265.319C170.536 265.422 170.684 265.703 170.929 265.945C171.622 266.628 171.908 267.05 171.678 267.05C171.566 267.05 171.418 266.96 171.349 266.849ZM226.393 262.968C222.71 261.814 220.113 259.111 218.635 254.894C218.437 254.327 218.31 253.829 218.354 253.785C218.397 253.742 218.774 254.163 219.191 254.72C219.607 255.277 220.632 256.38 221.469 257.17C223.999 259.561 225.541 260.458 227.687 260.788C231.562 261.384 236.796 259.314 242.82 254.802C245.545 252.761 245.442 252.83 245.245 253.166C244.526 254.388 242.129 256.93 239.965 258.765C235.262 262.754 230.459 264.241 226.393 262.968ZM152.857 260.139C154.071 259.226 155.313 258.801 156.327 258.953C156.782 259.022 157.963 259.125 158.95 259.184C160.721 259.289 160.764 259.281 162.152 258.601C163.876 257.756 165.269 256.309 166.368 254.219C167.707 251.675 169.214 250.298 171.372 249.649C173.07 249.139 175.049 249.419 176.932 250.436C178.723 251.403 181.71 252.821 182.961 253.298C184.618 253.928 187.084 254.296 188.339 254.1C190.273 253.797 191.021 252.962 191.985 250.027C192.614 248.113 193.737 245.984 194.67 244.936C195.839 243.624 196.384 243.418 195.439 244.646C194.292 246.135 193.566 247.799 192.951 250.347C192.612 251.752 192.211 252.907 191.902 253.37C189.697 256.672 184.648 256.319 177.378 252.353C174.614 250.845 172.878 250.535 171.195 251.25C169.934 251.786 168.937 252.77 167.51 254.888C166.122 256.948 164.871 258.281 163.663 258.985C161.794 260.074 159.531 260.292 157.166 259.611C155.84 259.229 155.718 259.224 154.723 259.511C154.148 259.677 153.38 260.021 153.017 260.277C152.022 260.977 151.892 260.865 152.857 260.139ZM171.903 260.177C171.19 259.996 169.598 258.934 169.775 258.758C169.814 258.719 170.175 258.854 170.578 259.057C172.516 260.036 174.612 259.731 178.353 257.924C180.583 256.847 181.299 256.593 182.639 256.405C184.879 256.089 186.943 256.449 189.131 257.537C190.851 258.392 191.462 258.824 190.641 258.606C188.996 258.169 186.115 257.731 184.884 257.731C183.155 257.731 181.667 258.138 178.999 259.342C176.343 260.541 174.286 260.783 171.903 260.177ZM171.973 257.855C171.633 257.714 171.226 257.443 171.068 257.252C170.799 256.928 170.813 256.914 171.259 257.046C172.092 257.293 173.456 257.374 173.725 257.193C173.868 257.097 173.984 256.716 173.984 256.347C173.984 254.96 172.934 253.854 171.382 253.608C170.661 253.494 170.642 253.475 171.079 253.312C171.337 253.216 172.122 253.136 172.825 253.135C175.182 253.13 177.016 254.396 177.016 256.028C177.016 256.841 176.501 257.401 175.377 257.809C174.405 258.161 172.766 258.184 171.973 257.855ZM165.306 250.762C164.881 250.381 164.576 250.026 164.63 249.973C164.683 249.92 165.115 250.232 165.59 250.665C166.065 251.099 166.369 251.454 166.266 251.454C166.163 251.454 165.731 251.142 165.306 250.762ZM255.27 248.116C258.276 247.328 260.992 245.789 264.14 243.091C267.489 240.22 269.599 238.927 272.311 238.085C274.138 237.518 276.303 237.125 277.093 237.217C277.528 237.268 277.136 237.436 275.493 237.903C271.244 239.114 269.785 239.904 265.781 243.168C263.289 245.199 261.262 246.496 259.3 247.313C257.59 248.026 255.508 248.555 254.353 248.571C253.596 248.581 253.709 248.525 255.27 248.116ZM243.87 244.882C242.108 243.678 241.306 243.432 238.809 243.334C236.776 243.253 236.382 243.299 233.819 243.913C232.289 244.28 230.116 244.683 228.99 244.808C225.188 245.231 221.881 244.372 219.235 242.273L218.755 241.892L219.235 242C219.499 242.059 220.492 242.295 221.441 242.525C223.78 243.092 226.858 243.095 229.501 242.533C236.524 241.041 238.79 241.006 241.621 242.348C242.825 242.92 244.493 244.36 245.336 245.558C245.763 246.164 245.769 246.198 245.401 245.938C245.18 245.781 244.49 245.306 243.87 244.882ZM172.255 244.749C172.891 243.59 174.632 241.948 175.973 241.241C177.839 240.258 182.165 239.338 182.488 239.856C182.552 239.958 182.403 240.042 182.157 240.042C181.393 240.042 179.014 240.77 177.533 241.458C176.053 242.144 173.485 243.939 172.519 244.961C172.209 245.289 171.923 245.558 171.883 245.558C171.843 245.558 172.01 245.194 172.255 244.749ZM253.733 232.139C254.527 231.587 256.361 231.079 259.556 230.523C261.31 230.218 262.886 229.915 263.059 229.85C263.231 229.784 263.372 229.787 263.372 229.857C263.372 230.219 260.936 230.973 258.386 231.4C256.827 231.661 255.173 231.992 254.712 232.135C253.55 232.497 253.215 232.498 253.733 232.139Z" fill="currentcolor"/>

</svg>
