<svg  viewBox="0 0 1180 580" fill="currentcolor" xmlns="http://www.w3.org/2000/svg">
<path d="M198.748 231.421C198.695 231.418 198.622 231.436 198.518 231.465C198.327 231.517 197.581 232.006 196.861 232.55C191.872 236.318 189.55 239.943 189.591 243.9C189.602 245.05 189.919 246.699 190.204 247.092C190.385 247.341 190.492 247.364 190.996 247.263C191.842 247.092 193.313 246.349 194.348 245.57C196.789 243.731 198.155 241.079 198.623 237.265C198.848 235.441 199.012 232.533 198.929 231.874C198.887 231.541 198.865 231.429 198.748 231.421ZM283.182 231.987C283.048 232 283.021 232.157 282.956 232.806C282.788 234.492 283.146 237.951 283.703 240.025C284.663 243.603 286.779 246.115 289.885 247.367C290.977 247.807 291.653 247.932 291.888 247.737C292.165 247.507 292.453 245.155 292.366 243.828C292.173 240.864 290.825 238.285 288.126 235.712C286.97 234.61 283.661 232.066 283.294 231.997C283.25 231.989 283.213 231.984 283.182 231.987ZM183.074 237.624C183.07 237.625 183.066 237.626 183.063 237.628C182.855 237.747 182.218 239.971 181.852 241.855C181.06 245.93 181.387 249.658 182.737 251.956C183.331 252.969 184.502 254.329 185.415 255.07C185.865 255.434 186.284 255.722 186.346 255.71C186.474 255.684 187.77 253.553 188.024 252.949C189.335 249.838 188.859 246.272 186.608 242.347C185.678 240.724 183.342 237.609 183.074 237.624ZM298.826 237.999C298.663 237.968 296.833 240.489 295.818 242.143C294.945 243.566 294.189 245.203 293.756 246.611C292.903 249.383 293.339 252.348 294.978 254.924C295.354 255.515 295.732 256.012 295.819 256.028C295.905 256.045 296.316 255.811 296.731 255.51C297.637 254.852 298.985 253.093 299.774 251.539C300.268 250.567 300.332 250.345 300.539 248.906C300.803 247.062 300.734 245.489 300.288 243.232C299.878 241.158 299.005 238.032 298.826 237.999ZM199.229 244.727C198.868 244.715 196.025 246.511 194.291 247.856C191.501 250.021 189.655 252.394 189.113 254.513C188.8 255.735 188.64 257.683 188.749 258.937C188.803 259.557 188.861 259.727 189.067 259.863C189.592 260.211 192.094 259.425 193.568 258.45C195.198 257.371 196.803 255.436 197.556 253.643C198.033 252.507 198.709 249.992 199.032 248.151C199.315 246.536 199.426 244.847 199.257 244.734C199.25 244.73 199.241 244.727 199.229 244.727ZM282.858 245.385C282.845 245.385 282.833 245.386 282.823 245.389C282.768 245.403 282.747 245.452 282.734 245.524C282.599 246.243 283.252 250.129 283.863 252.245C284.942 255.98 287.194 258.627 290.327 259.844C291.512 260.304 293.206 260.629 293.334 260.42C293.478 260.187 293.559 258.275 293.472 257.164C293.166 253.258 290.398 249.788 284.999 246.541C283.562 245.677 283.052 245.383 282.858 245.385ZM178.707 253.142C178.647 253.147 178.604 253.192 178.552 253.268C178.26 253.702 178.115 257.104 178.291 259.403C178.475 261.813 179.234 264.508 180.136 265.953C180.849 267.096 183.111 269 184.562 269.678C184.869 269.822 185.194 269.925 185.283 269.907C185.645 269.834 186.256 268.371 186.605 266.744C186.772 265.967 186.758 265.77 186.38 263.665C186.126 262.245 185.873 261.175 185.694 260.761C185.539 260.401 184.935 259.487 184.352 258.731C183.29 257.352 180.258 254.218 179.245 253.452C178.974 253.247 178.831 253.151 178.734 253.142C178.725 253.141 178.716 253.141 178.707 253.142ZM303.529 253.624C303.519 253.624 303.508 253.624 303.496 253.625C303.179 253.654 302.456 254.235 301.18 255.478C298.763 257.831 297.498 259.453 296.625 261.317C296.155 262.321 296.057 262.663 295.86 263.976C295.697 265.067 295.667 265.74 295.75 266.409C295.898 267.602 296.433 269.508 296.767 270.033C296.956 270.329 297.109 270.437 297.318 270.422C298.029 270.372 300.817 268.154 301.806 266.851C303.294 264.891 304.104 261.323 304.021 257.094C303.981 255.036 303.831 253.782 303.608 253.646C303.586 253.632 303.56 253.625 303.529 253.624ZM194.782 259.115C194.543 259.075 193.093 260.49 191.88 261.947C190.761 263.291 188.804 266.388 188.314 267.591C187.577 269.398 187.519 271.381 188.125 273.979C188.406 275.182 188.56 275.625 188.799 275.913C189.091 276.265 189.14 276.277 189.627 276.12C189.912 276.029 190.557 275.632 191.06 275.24C193.759 273.133 195.215 270.758 195.547 267.92C195.763 266.066 195.656 263.756 195.211 260.659C195.022 259.352 194.965 259.146 194.782 259.115ZM287.475 259.686C287.467 259.687 287.458 259.689 287.451 259.691C287.116 259.821 286.656 263.726 286.697 266.105C286.729 267.965 286.965 269.626 287.345 270.682C287.711 271.697 289.38 274.124 290.213 274.853C290.566 275.162 291.28 275.686 291.799 276.019C292.318 276.351 292.86 276.646 293.004 276.674C293.663 276.803 294.162 275.868 294.538 273.8C294.86 272.029 294.812 270.801 294.353 269.084C293.981 267.693 293.653 266.946 292.884 265.74C291.393 263.402 288.019 259.634 287.475 259.686ZM176.198 269.239C176.135 269.238 176.094 269.249 176.085 269.273C175.983 269.55 177.412 273.848 178.049 275.179C180.261 279.801 183.06 282.195 186.892 282.743C188.338 282.949 188.67 282.762 188.742 281.703C188.796 280.917 188.248 278.388 187.794 277.326C186.359 273.963 183.215 271.712 176.642 269.34C176.466 269.277 176.302 269.241 176.198 269.239ZM306.104 269.571C306.098 269.569 306.088 269.57 306.075 269.572C305.668 269.631 302.077 271.133 300.895 271.745C299.734 272.345 297.835 273.625 297.117 274.29C296.339 275.011 295.402 276.252 294.98 277.119C294.284 278.551 293.676 282.044 293.964 282.955C294.04 283.193 294.139 283.237 294.669 283.273C295.937 283.358 298.112 282.69 299.511 281.785C300.834 280.93 302.277 279.381 303.261 277.76C304.65 275.471 306.662 269.675 306.104 269.571ZM198.683 273.189C198.294 273.189 195.732 276.115 194.295 278.202C193.164 279.844 192.204 282.299 191.938 284.23C191.814 285.133 191.823 285.499 191.993 286.479C192.223 287.798 192.851 289.858 193.155 290.289C193.401 290.638 193.476 290.641 194.095 290.326C195.446 289.637 197.607 287.554 198.459 286.117C199.484 284.39 199.75 282.857 199.657 279.217C199.564 275.571 199.179 273.189 198.683 273.189ZM285.542 273.21C285.389 273.218 285.292 273.372 285.214 273.665C284.711 275.543 284.368 279.784 284.564 281.708C284.954 285.54 286.509 288.055 289.674 289.972C290.106 290.234 290.564 290.448 290.692 290.448C291.014 290.448 291.336 289.87 291.817 288.433C292.571 286.178 292.477 283.613 291.552 281.213C290.741 279.111 288.917 276.482 286.491 273.919C286.029 273.43 285.739 273.199 285.542 273.21ZM306.827 282.064C306.185 282.048 303.92 282.388 302.6 282.72C299.011 283.622 296.052 285.155 294.687 286.818C294.012 287.642 293.268 288.952 292.823 290.1C292.397 291.202 292.021 292.813 292.144 293.012C292.273 293.22 296.172 293.058 297.084 292.807C298.126 292.521 299.572 291.823 300.511 291.153C301.661 290.334 303.242 288.598 304.31 286.983C305.345 285.418 307.108 282.207 306.995 282.094C306.977 282.076 306.918 282.066 306.827 282.064ZM177.534 282.076C177.319 282.078 177.205 282.105 177.205 282.156C177.205 282.391 178.866 285.358 179.68 286.578C181.283 288.979 182.718 290.46 184.702 291.76C185.642 292.376 186.868 292.858 187.806 292.98C188.959 293.131 191.545 293.132 191.825 292.982C192.19 292.787 192.138 292.191 191.622 290.614C191.05 288.869 190.356 287.7 189.222 286.568C186.972 284.322 183.765 282.918 179.398 282.267C178.532 282.137 177.892 282.073 177.534 282.076ZM201.379 285.79C201.181 285.826 200.178 287.163 198.936 289.052C197.907 290.618 196.744 293.006 196.308 294.446C196.002 295.46 195.963 295.793 195.962 297.428C195.96 299.104 195.992 299.365 196.316 300.347C196.7 301.514 197.582 303.313 197.948 303.679C198.272 304.002 198.49 303.855 200.138 302.198C202.12 300.205 202.806 298.914 203.146 296.54C203.324 295.288 203.201 292.663 202.877 290.829C202.46 288.468 201.703 285.893 201.396 285.79C201.391 285.789 201.386 285.789 201.379 285.79ZM282.84 286.006C282.739 286.006 282.596 286.163 282.522 286.355C282.271 287.006 281.521 289.851 281.326 290.889C280.886 293.234 280.881 296.554 281.315 298.191C281.933 300.522 282.632 301.519 284.52 302.762C285.259 303.248 285.97 303.646 286.099 303.646C286.575 303.646 287.549 301.93 288.023 300.258C288.411 298.89 288.414 296.559 288.03 295.008C287.508 292.899 286.57 290.917 284.947 288.496C283.952 287.011 283.102 286.006 282.84 286.006ZM180.433 293.75C179.846 293.753 179.718 293.8 179.676 293.911C179.579 294.163 180.283 295.207 181.909 297.227C184.821 300.842 187.53 302.781 190.229 303.184C190.438 303.215 191.496 303.23 192.579 303.218C195.049 303.19 195.314 303.093 195.304 302.228C195.298 301.777 195.124 301.295 194.55 300.138C193.873 298.773 193.69 298.522 192.588 297.428C191.162 296.014 190.099 295.366 188.132 294.711C186.316 294.106 184.804 293.875 182.069 293.786C181.304 293.761 180.786 293.747 180.433 293.75ZM303.101 293.753C302.163 293.755 300.931 293.818 299.942 293.934C295.278 294.48 292.237 296.056 290.342 298.908C289.247 300.555 288.573 302.672 289.048 302.97C289.135 303.024 289.464 303.11 289.778 303.159C290.84 303.328 293.955 303.173 295.006 302.901C297.591 302.229 299.965 300.319 302.9 296.548C304.34 294.697 304.746 294.017 304.504 293.864C304.383 293.788 303.831 293.752 303.101 293.753ZM277.155 293.838L276.903 294.142C276.581 294.53 275.069 297.677 274.546 299.046C273.876 300.802 273.753 301.436 273.68 303.52C273.604 305.669 273.734 306.884 274.162 308.029C274.499 308.929 275.543 310.493 276.39 311.368C277.196 312.2 277.252 312.182 278.41 310.721C280.195 308.466 280.567 307.213 280.47 303.793C280.417 301.936 280.351 301.342 280.082 300.321C279.553 298.31 278.045 294.792 277.43 294.132L277.155 293.838ZM207.123 294.026C206.828 294.051 206.474 294.557 205.898 295.75C205.107 297.386 204.111 300.403 203.821 302.038C203.527 303.696 203.612 305.989 204.014 307.263C204.521 308.873 205.676 310.76 206.67 311.605C206.852 311.76 207.093 311.888 207.207 311.891C207.662 311.901 209.227 309.816 209.99 308.181C210.788 306.47 210.948 303.51 210.37 301.134C209.909 299.238 207.697 294.217 207.246 294.044C207.206 294.029 207.165 294.023 207.123 294.026ZM270.796 301.108C270.574 301.108 267.64 304.257 266.34 305.89C265.117 307.427 264.2 309.009 263.928 310.05C263.699 310.932 263.66 314.224 263.863 315.626C264.003 316.595 264.364 317.516 264.776 317.954C264.925 318.112 265.165 318.241 265.31 318.24C265.962 318.237 268.027 316.66 269.144 315.314C269.83 314.486 270.772 312.629 271.038 311.578C271.48 309.837 271.606 306.645 271.353 303.596C271.21 301.875 271.038 301.108 270.796 301.108ZM213.422 301.172C213.09 301.172 212.9 302.438 212.823 305.169C212.75 307.764 212.894 310.307 213.181 311.5C213.391 312.37 214.223 314.095 214.871 315.001C215.634 316.07 216.914 317.22 217.96 317.777C218.97 318.315 219.13 318.334 219.484 317.955C220.478 316.891 221.024 312.89 220.477 310.69C220.149 309.376 219.256 307.626 218.194 306.218C217.099 304.766 213.7 301.172 213.422 301.172ZM292.093 304.806C291.744 304.807 291.379 304.814 290.985 304.827C288.355 304.912 287.217 305.163 285.352 306.069C284.284 306.588 283.845 306.894 283.002 307.706C281.936 308.731 280.669 310.542 280.602 311.136C280.572 311.404 280.671 311.503 281.265 311.8C281.65 311.992 282.507 312.293 283.171 312.468C284.83 312.907 286.895 312.857 288.507 312.339C290.689 311.638 292.769 310.38 295.208 308.284C296.766 306.945 297.656 306.023 297.656 305.746C297.656 305.359 297.08 305.183 295.115 304.97C294.038 304.853 293.139 304.802 292.093 304.806ZM192.452 304.856C189.767 304.855 187.629 305.029 186.895 305.308C186.341 305.518 186.532 305.95 187.656 307.027C191.276 310.495 193.839 312.019 197.232 312.721C197.727 312.823 198.449 312.874 198.897 312.839C199.84 312.766 201.758 312.295 202.811 311.878C203.803 311.486 203.831 311.267 203.061 309.958C201.981 308.122 200.19 306.531 198.324 305.75C196.544 305.006 195.57 304.857 192.452 304.856ZM261.792 310.299C260.923 310.297 257.23 311.378 254.973 312.329C251.961 313.597 249.671 315.919 248.727 318.66C248.336 319.793 247.93 321.87 248.057 322.076C248.108 322.159 248.805 322.183 249.994 322.143C252.081 322.073 253.028 321.846 254.447 321.075C256.908 319.739 258.719 317.599 260.729 313.654C261.808 311.535 262.177 310.546 261.967 310.336C261.942 310.311 261.882 310.3 261.792 310.299ZM222.662 310.375C222.441 310.369 222.308 310.402 222.263 310.474C222.149 310.658 222.758 312.18 223.617 313.862C225.083 316.732 226.434 318.542 228.127 319.903C229.186 320.755 231.062 321.734 232.129 321.993C232.941 322.189 235.576 322.224 235.914 322.044C236.252 321.863 236.232 321.263 235.835 319.7C234.778 315.537 232.239 313.185 226.948 311.467C224.77 310.76 223.324 310.392 222.662 310.375ZM204.931 313.679C204.002 313.68 203.055 313.719 202.36 313.798C200.466 314.015 195.883 315.489 195.883 315.881C195.883 316.113 196.318 316.476 197.57 317.286C200.258 319.025 203.76 320.537 205.666 320.782C207.621 321.032 209.779 320.621 211.956 319.584C214.004 318.608 214.079 318.242 212.539 316.708C211.001 315.175 209.354 314.175 207.843 313.855C207.289 313.738 206.126 313.677 204.931 313.679ZM278.527 313.695C277.768 313.697 277.118 313.723 276.769 313.778C275.106 314.038 272.967 315.323 271.423 316.988C270.478 318.008 270.415 318.298 271.024 318.824C271.546 319.275 273.208 320.115 274.255 320.458C274.628 320.579 275.371 320.751 275.907 320.839C277.016 321.022 277.555 320.986 279.169 320.623C281.596 320.076 284.142 318.942 286.729 317.254C288.295 316.232 288.505 316.026 288.242 315.766C287.907 315.436 284.902 314.382 283.108 313.966C282.399 313.801 280.198 313.691 278.527 313.695ZM218.533 319.913C216.853 319.906 215.113 320.32 213.369 321.153C211.051 322.261 207.318 324.699 207.318 325.105C207.318 325.262 207.538 325.412 208.049 325.603C209.2 326.036 211.83 326.733 213.29 326.993C215.746 327.431 218.032 327.291 220.151 326.574C221.663 326.062 222.427 325.556 224.137 323.937C225.195 322.936 225.463 322.616 225.354 322.485C225.101 322.18 223.294 321.117 222.316 320.698C221.109 320.18 219.839 319.919 218.533 319.913ZM265.039 320.029C263.58 320.032 262.969 320.2 261.76 320.766C260.249 321.473 259.157 322.242 259.157 322.599C259.157 323.324 261.067 325.082 262.926 326.069C263.809 326.537 265.212 326.99 266.336 327.168C267.31 327.322 270.435 327.152 271.735 326.874C274.188 326.349 276.945 325.449 276.945 325.172C276.945 324.834 275.293 323.635 272.84 322.193C269.821 320.42 268.944 320.137 266.202 320.05C265.757 320.036 265.375 320.028 265.039 320.029ZM242.156 322.27C241.78 322.279 241.408 322.399 241.035 322.631C240.109 323.206 239.652 323.852 239.665 324.566C239.676 325.197 240.031 326.021 240.458 326.407C240.601 326.535 240.935 326.719 241.202 326.814C242.671 327.337 244.282 326.538 244.485 325.185C244.662 324.007 244.249 323.1 243.298 322.576C242.912 322.363 242.532 322.261 242.156 322.27ZM231.48 324.384C230.525 324.383 229.593 324.485 228.867 324.691C226.664 325.317 224.154 326.788 221.633 328.93C220.43 329.953 220.083 330.38 220.272 330.608C220.439 330.808 222.663 331.369 224.026 331.556C225.443 331.749 230.865 331.632 231.747 331.389C233.284 330.966 235.071 329.753 236.697 328.03C237.568 327.108 237.82 326.611 237.599 326.248C237.386 325.899 235.448 325.008 234.222 324.695C233.41 324.488 232.434 324.384 231.48 324.384ZM252.696 324.464C251.695 324.464 250.68 324.508 250.191 324.597C249.417 324.738 247.633 325.503 246.958 325.983C246.749 326.132 246.579 326.368 246.579 326.507C246.579 326.882 247.27 327.822 248.353 328.918C249.184 329.759 249.504 329.98 250.771 330.589C252.322 331.335 252.88 331.519 254.124 331.696C256.469 332.029 263.446 331.264 263.986 330.614C264.197 330.36 263.881 329.946 262.803 329.065C260.095 326.852 256.827 324.953 255.117 324.599C254.684 324.509 253.698 324.464 252.696 324.464Z" fill="currentcolor"/>
<path d="M212.793 214.223C212.725 214.223 212.591 214.407 212.495 214.631C210.636 218.953 208.954 223.136 208.954 223.434C208.954 223.523 209.292 223.74 209.908 224.049C210.432 224.312 211.447 224.86 212.162 225.267C212.878 225.674 213.946 226.25 214.536 226.546C215.127 226.842 215.697 227.086 215.804 227.087C215.942 227.089 216.035 227.008 216.123 226.811C216.191 226.657 216.64 225.702 217.122 224.688C218.139 222.545 218.915 220.698 218.916 220.418C218.916 220.222 218.495 219.746 216.601 217.797C215.244 216.4 212.924 214.223 212.793 214.223ZM244.592 214.234C244.523 214.235 244.452 214.237 244.38 214.242C243.631 214.29 242.962 214.576 242.41 215.084C241.943 215.514 241.637 215.979 241.706 216.157C241.811 216.431 242.004 216.369 242.459 215.914C243.014 215.36 243.601 215.124 244.265 215.188C244.79 215.238 245.093 215.449 245.344 215.941C245.717 216.67 245.571 217.613 244.877 218.962C244.221 220.234 243.211 221.639 241.699 223.382C241.312 223.829 241.158 224.076 241.158 224.247C241.158 224.38 241.184 224.513 241.215 224.545C241.299 224.629 246.677 224.612 246.81 224.528C246.929 224.452 247.441 222.464 247.371 222.351C247.265 222.18 246.982 222.313 246.769 222.635C246.375 223.228 246.229 223.269 244.357 223.301C243.026 223.323 242.704 223.306 242.705 223.215C242.707 223.152 243.115 222.657 243.614 222.115C245.484 220.078 246.156 219.123 246.662 217.783C247.081 216.672 247.108 216.109 246.775 215.441C246.37 214.629 245.63 214.221 244.592 214.234ZM253.218 214.308C252.88 214.319 252.169 215.408 250.681 217.588C248.628 220.598 248.5 220.808 248.5 221.171V221.557L252.193 221.643L252.215 223.015C252.227 223.77 252.255 224.436 252.277 224.495C252.332 224.644 253.3 224.639 253.425 224.489C253.482 224.42 253.529 223.839 253.543 223.009L253.567 221.643L254.378 221.591L254.546 221.016C254.936 219.679 254.94 219.627 254.646 219.627C254.552 219.627 254.446 219.732 254.381 219.887C254.255 220.191 253.913 220.485 253.684 220.485C253.531 220.485 253.524 220.356 253.524 217.493C253.524 215.363 253.557 214.296 253.218 214.308ZM231.381 214.313C231.288 214.318 231.201 214.338 231.147 214.375C231.096 214.409 230.886 214.689 230.679 214.995C230.328 215.516 229.482 216.425 228.942 216.862C228.779 216.994 228.706 217.133 228.706 217.311C228.706 217.452 228.747 217.569 228.798 217.569C228.917 217.569 229.791 216.893 230.117 216.548C230.605 216.033 230.595 215.965 230.595 219.759C230.595 223.651 230.587 223.714 230.042 223.974C229.752 224.112 229.633 224.385 229.794 224.545C229.825 224.576 230.458 224.602 231.2 224.602C232.289 224.602 232.57 224.577 232.655 224.474C232.796 224.305 232.709 224.103 232.455 224.007C232.342 223.964 232.167 223.824 232.066 223.696C231.885 223.466 231.883 223.426 231.883 218.989C231.883 215.624 231.858 214.489 231.78 214.412C231.709 214.341 231.536 214.306 231.381 214.313ZM236.242 214.328C235.302 214.331 234.614 214.349 234.571 214.376C234.459 214.449 234.24 216.635 234.324 216.852C234.352 216.927 234.454 216.969 234.566 216.953C234.725 216.93 234.769 216.853 234.818 216.509C234.902 215.92 234.936 215.86 235.271 215.721C235.642 215.566 238.878 215.537 238.972 215.687C239.003 215.738 238.208 217.704 237.205 220.057C236.171 222.485 235.404 224.393 235.433 224.469C235.474 224.574 235.63 224.602 236.172 224.602C236.793 224.602 236.872 224.583 236.98 224.409C237.046 224.303 237.726 222.142 238.49 219.606C239.465 216.371 239.872 214.9 239.853 214.674L239.827 214.352L237.25 214.331C236.896 214.328 236.555 214.327 236.242 214.328ZM267.874 214.799C267.404 215.305 266.413 216.353 265.371 217.44C264.106 218.761 262.953 219.99 262.809 220.171L262.547 220.5L263.091 221.586C263.39 222.183 263.934 223.328 264.3 224.13C265.133 225.955 265.627 226.944 265.745 227.018C265.853 227.087 266.363 226.835 268.423 225.697C270.869 224.346 272.588 223.308 272.588 223.182C272.588 222.968 271.283 219.598 270.397 217.526C269.872 216.297 269.519 215.486 269.268 214.942L267.874 214.799ZM252.13 216.541C252.216 216.54 252.234 216.959 252.216 218.491L252.193 220.442L250.84 220.466C249.894 220.482 249.488 220.461 249.488 220.394C249.488 220.229 252.016 216.543 252.13 216.541ZM230.361 225.803C225.502 225.803 225.003 225.816 224.954 225.942C224.871 226.158 225.433 228.593 227.881 238.63C229.265 244.306 231.067 252.344 231.659 255.481C232.318 258.976 232.884 264.113 232.613 264.153C232.363 264.189 230.568 259.963 228.613 254.734C225.757 247.098 222.246 236.904 220.766 231.957C220.615 231.45 220.5 231.207 220.414 231.207C220.243 231.207 219.59 232.23 219.133 233.212C218.148 235.333 216.383 240.453 216.452 240.992C216.474 241.166 217.449 243.152 218.704 245.581C222.978 253.852 225.946 259.926 227.334 263.243C228.29 265.529 228.808 267.232 228.548 267.232C228.33 267.232 226.178 264.456 224.158 261.571C222.813 259.648 219.73 255.049 217.288 251.321C215.004 247.833 214.966 247.781 214.868 247.957C214.772 248.128 214.479 250.482 214.363 252.007C214.224 253.843 214.148 259.012 214.258 259.215C214.308 259.307 215.014 260.348 215.826 261.528C219.014 266.154 221.372 269.824 222.179 271.416C222.845 272.727 222.835 272.856 222.109 272.363C221.199 271.744 220.394 271.002 218.326 268.874C216.315 266.806 215.077 265.688 214.797 265.688C214.709 265.688 214.696 265.808 214.74 266.224C214.901 267.764 216.092 272.738 216.851 275.037C217.356 276.57 217.529 276.954 217.729 276.992C217.808 277.008 219.875 276.009 222.323 274.773C224.771 273.537 228.165 271.824 229.865 270.966C231.565 270.108 233.401 269.22 233.944 268.991C234.84 268.614 234.991 268.577 235.576 268.583C237.059 268.598 238.566 269.247 239.092 270.097C239.465 270.7 239.253 271.106 238.133 271.937C237.201 272.629 237.009 272.824 237.052 273.037C237.079 273.175 237.175 273.193 237.897 273.188C238.651 273.183 238.757 273.16 239.354 272.872C240.026 272.549 240.402 272.22 242.004 270.559C243.14 269.381 243.898 268.944 245.044 268.81C245.671 268.736 246.205 268.864 247.634 269.431C250.593 270.605 260.722 275.372 263.614 276.953C264.086 277.211 264.516 277.426 264.57 277.43C264.734 277.445 265.415 275.694 266.316 272.936C267.227 270.148 267.656 268.175 267.351 268.175C267.261 268.175 266.795 268.453 264.902 269.634C262.825 270.93 261.184 271.654 259.897 271.843C259.004 271.974 259.058 271.836 260.409 270.53C260.944 270.013 262.637 268.544 264.172 267.266C267.213 264.735 268.236 263.751 268.325 263.278C268.511 262.284 268.658 254.999 268.5 254.587C268.471 254.513 268.4 254.451 268.343 254.451C268.189 254.451 265.521 257.193 264.167 258.74C263.527 259.471 262.272 260.918 261.377 261.956C258.748 265.002 256.924 266.9 255.293 268.285C254.326 269.106 254.254 269.072 254.868 268.087C255.728 266.706 260.742 259.771 265.739 253.049C267.616 250.523 268.037 249.799 268.037 249.089C268.037 248.581 267.713 247.065 267.048 244.459C266.099 240.744 265.008 237.039 264.862 237.039C264.821 237.039 264.467 237.705 264.075 238.519C261.311 244.26 254.903 256.849 252.17 261.908C250.721 264.589 250.066 265.687 249.969 265.594C249.905 265.533 250.803 262.672 251.637 260.284C253.22 255.751 254.67 252.049 258.527 242.7C261.47 235.565 262.742 232.352 262.685 232.202C262.662 232.143 261.874 230.997 260.934 229.655C259.993 228.313 259.026 226.922 258.783 226.563C258.541 226.204 258.279 225.886 258.202 225.857C258.124 225.827 257.333 225.803 256.443 225.803C254.639 225.803 254.619 225.809 254.516 226.378C254.222 228.005 252.077 237.841 250.853 243.172C247.629 257.225 245.018 266.715 245.177 263.801C245.239 262.651 245.563 259.104 245.798 256.982C246.446 251.151 247.126 246.62 249.057 235.281C250.607 226.174 250.639 225.964 250.505 225.878C250.352 225.782 240.033 225.784 239.879 225.881C239.779 225.945 239.775 226.286 239.858 228.088C239.912 229.261 239.994 231.61 240.041 233.308C240.088 235.006 240.166 237.824 240.215 239.57C240.31 243.015 240.388 244.806 240.643 249.477C240.735 251.151 240.854 253.641 240.909 255.009C241.055 258.65 240.935 264.255 240.678 265.771C240.594 266.266 240.5 265.934 240.177 264.008C239.159 257.925 238.432 251.732 237.294 239.441C236.372 229.485 236.004 226.026 235.854 225.91C235.746 225.827 234.513 225.803 230.361 225.803ZM272.054 228.873C272.045 228.873 272.035 228.873 272.024 228.874C271.828 228.89 271.301 229.164 269.717 230.042C268.252 230.853 267.436 231.353 267.436 231.438C267.436 231.512 267.644 232.136 267.899 232.826C270.154 238.929 271.598 245.402 272.198 252.093C272.804 258.853 272.319 265.773 270.861 271.177C269.575 275.945 267.223 280.84 264.422 284.583C258.385 292.649 250.277 296.822 240.642 296.822C236.073 296.822 232.221 295.959 228.405 294.079C225.999 292.894 224.207 291.687 222.095 289.828C218.905 287.02 216.389 283.474 214.491 279.112C209.136 266.808 209.068 248.92 214.314 232.622C214.526 231.962 214.673 231.394 214.639 231.361C214.551 231.273 211.598 230.07 210.905 229.84C210.584 229.734 210.27 229.666 210.207 229.691C210.068 229.744 208.503 232.844 207.775 234.509C204.749 241.426 202.847 248.553 202.006 256.124C201.668 259.166 201.612 260.337 201.615 264.23C201.619 268.348 201.72 270.075 202.135 273.15C203.211 281.113 206.038 288.32 210.38 294.175C212.804 297.443 216.015 300.604 219.29 302.946C219.661 303.211 220 303.428 220.044 303.428C220.158 303.428 221.039 302.047 222.706 299.259C223.504 297.925 224.196 296.808 224.244 296.779C224.292 296.749 224.707 296.917 225.166 297.152C228.169 298.689 231.962 299.679 236.778 300.185C238.231 300.338 244.251 300.338 245.709 300.186C250.634 299.671 254.476 298.708 257.629 297.198C258.162 296.943 258.633 296.754 258.674 296.78C258.715 296.805 258.892 297.086 259.067 297.404C260.114 299.305 262.336 302.914 262.459 302.914C262.69 302.914 264.064 301.95 265.289 300.93C266.705 299.749 269.166 297.3 270.277 295.967C272.822 292.909 274.806 289.804 276.377 286.417C278.784 281.231 280.153 275.949 280.762 269.505C280.939 267.631 280.911 261.096 280.718 259.127C279.869 250.477 277.814 242.866 273.305 231.679C272.716 230.216 272.18 228.966 272.116 228.899C272.101 228.885 272.082 228.875 272.054 228.873ZM274.851 243.89C274.903 243.892 274.936 243.9 274.95 243.912C275.08 244.035 276.956 252.681 276.873 252.772C276.833 252.816 276.376 252.869 275.858 252.89C274.922 252.929 274.915 252.928 274.867 252.725C274.46 251.003 273.018 244.464 273.018 244.342C273.018 244.201 273.148 244.153 273.941 244.005C274.377 243.923 274.696 243.883 274.851 243.89ZM208.116 243.942C208.306 243.942 208.737 244.012 209.534 244.168C209.821 244.224 209.985 244.3 209.985 244.376C209.985 244.554 208.117 252.803 208.054 252.906C207.997 252.998 207.121 253.004 206.464 252.916C206.115 252.87 206.08 252.844 206.099 252.65C206.138 252.264 207.943 244.031 208.003 243.965C208.017 243.95 208.053 243.942 208.116 243.942ZM276.738 260.211C277.056 260.213 277.2 260.242 277.239 260.302C277.358 260.49 277.329 267.952 277.208 268.072C277.064 268.217 275.603 268.213 275.547 268.068C275.525 268.009 275.516 266.224 275.529 264.101L275.551 260.241L276.36 260.216C276.507 260.212 276.632 260.21 276.738 260.211ZM206.593 260.27C206.998 260.27 207.404 260.32 207.442 260.42C207.471 260.494 207.494 262.243 207.494 264.305C207.494 267.108 207.468 268.081 207.391 268.158C207.328 268.221 207.019 268.261 206.593 268.261C206.166 268.261 205.857 268.221 205.794 268.158C205.717 268.081 205.691 267.108 205.691 264.305C205.691 262.243 205.715 260.494 205.743 260.42C205.782 260.32 206.187 260.27 206.593 260.27ZM275.073 276.464C275.422 276.484 276.548 276.848 276.599 276.981C276.62 277.036 276.185 278.406 275.632 280.026C275.079 281.646 274.493 283.367 274.33 283.851C274.109 284.505 273.996 284.728 273.89 284.723C273.676 284.713 272.435 284.271 272.345 284.172C272.265 284.085 274.81 276.644 274.976 276.478C274.989 276.465 275.023 276.461 275.073 276.464ZM207.909 276.527C207.958 276.525 207.993 276.53 208.006 276.543C208.133 276.67 210.683 284.051 210.653 284.205C210.637 284.29 210.362 284.423 209.898 284.571C209.014 284.851 208.988 284.854 208.915 284.665C208.466 283.501 206.371 277.152 206.406 277.062C206.462 276.916 207.561 276.544 207.909 276.527ZM258.285 297.596C258.214 297.596 257.742 297.784 257.236 298.015C253.971 299.499 250.007 300.439 245.194 300.87C243.367 301.034 238.823 301.009 236.95 300.825C232.438 300.382 228.676 299.49 225.64 298.142C225.158 297.928 224.696 297.766 224.612 297.782C224.435 297.816 219.946 305.246 219.946 305.505C219.946 305.628 220.152 305.764 220.784 306.058C225.659 308.326 231.347 309.732 237.207 310.116C238.821 310.222 243.341 310.149 244.916 309.992C250.84 309.401 256.044 308.036 261.338 305.685C262.562 305.141 262.653 305.083 262.6 304.88C262.579 304.799 261.693 303.252 260.631 301.443C259.569 299.634 258.636 298.028 258.557 297.875C258.479 297.721 258.356 297.596 258.285 297.596ZM257.053 299.338C257.275 299.334 257.378 299.471 257.44 299.797C257.484 300.034 257.459 300.128 257.313 300.263C257.213 300.357 257.131 300.441 257.131 300.451C257.131 300.461 257.224 300.734 257.338 301.058C257.505 301.536 257.527 301.695 257.455 301.904C257.36 302.174 257.45 302.307 257.732 302.314C257.979 302.32 258.243 302.618 258.489 303.171C258.876 304.04 259.141 304.843 259.086 304.985C259.015 305.172 258.253 305.447 258.09 305.345C258.019 305.3 257.827 304.908 257.663 304.475C257.318 303.561 257.08 303.257 256.709 303.257C256.414 303.257 256.041 303.407 255.987 303.548C255.967 303.6 256.138 304.126 256.369 304.715C256.599 305.305 256.769 305.836 256.746 305.897C256.723 305.957 256.527 306.082 256.31 306.175C255.889 306.356 255.705 306.385 255.642 306.281C255.527 306.092 253.524 300.912 253.524 300.803C253.524 300.672 253.946 300.458 254.376 300.372C254.608 300.326 254.627 300.349 254.89 300.997C255.485 302.46 255.467 302.441 255.969 302.213C256.3 302.063 256.326 301.776 256.077 301.036C255.947 300.65 255.876 300.287 255.903 300.147C255.96 299.851 256.347 299.519 256.788 299.387C256.891 299.356 256.979 299.339 257.053 299.338ZM225.465 299.53C225.541 299.534 225.646 299.562 225.806 299.617C226.448 299.835 226.458 299.878 226.088 300.874C225.869 301.463 225.79 301.785 225.842 301.869C225.937 302.019 226.718 302.337 226.859 302.282C226.915 302.261 227.108 301.85 227.289 301.37C227.469 300.889 227.671 300.475 227.738 300.45C227.875 300.397 228.469 300.574 228.685 300.732C228.815 300.827 228.761 301.015 228.111 302.754C227.717 303.809 227.242 305.068 227.056 305.551C226.81 306.191 226.679 306.429 226.574 306.426C226.293 306.417 225.658 306.124 225.633 305.992C225.619 305.918 225.783 305.387 225.997 304.811C226.212 304.235 226.387 303.691 226.387 303.602C226.387 303.368 225.467 303.024 225.297 303.194C225.232 303.258 225.005 303.772 224.792 304.335C224.578 304.898 224.354 305.409 224.293 305.47C224.203 305.561 224.107 305.551 223.764 305.417C223.533 305.326 223.31 305.199 223.269 305.133C223.189 305.006 225.099 299.79 225.299 299.589C225.343 299.546 225.389 299.526 225.465 299.53ZM252.448 301.037C252.53 301.04 252.57 301.07 252.612 301.127C252.665 301.2 253.017 302.504 253.395 304.024C254.057 306.688 254.076 306.792 253.92 306.906C253.717 307.054 253.021 307.164 252.922 307.063C252.881 307.022 252.708 306.428 252.536 305.744C252.251 304.608 252.129 304.276 252.031 304.378C252.012 304.398 251.914 305.06 251.814 305.848C251.714 306.636 251.609 307.34 251.582 307.412C251.554 307.485 251.371 307.585 251.175 307.636C250.979 307.686 250.757 307.745 250.681 307.767C250.605 307.789 250.501 307.757 250.45 307.695C250.399 307.634 250.044 306.336 249.662 304.811C249.149 302.763 248.991 302.008 249.06 301.926C249.194 301.764 249.995 301.585 250.103 301.693C250.15 301.74 250.323 302.314 250.488 302.968C250.768 304.08 250.883 304.38 250.988 304.274C251.012 304.251 251.125 303.59 251.239 302.806C251.353 302.022 251.47 301.342 251.499 301.295C251.528 301.248 251.768 301.162 252.033 301.102C252.243 301.056 252.366 301.033 252.448 301.037ZM231.032 301.383C231.142 301.389 231.312 301.427 231.604 301.501L232.27 301.67L232.345 304.693C232.405 307.077 232.398 307.743 232.313 307.845C232.189 307.994 232.225 307.994 231.677 307.844C231.174 307.706 231.113 307.626 231.112 307.1C231.111 306.879 231.067 306.671 231.015 306.639C230.846 306.535 229.783 306.286 229.67 306.324C229.609 306.344 229.479 306.521 229.379 306.717C229.279 306.913 229.161 307.097 229.116 307.126C229 307.201 228.256 307.035 228.118 306.904C228.021 306.812 228.228 306.356 229.348 304.189C230.088 302.756 230.749 301.528 230.817 301.458C230.87 301.403 230.921 301.377 231.032 301.383ZM247.671 302.091C247.808 302.087 247.88 302.111 247.922 302.162C248.005 302.263 248.715 307.35 248.715 307.844C248.715 308.002 248.652 308.088 248.495 308.148C248.22 308.253 247.624 308.258 247.562 308.156C247.536 308.114 247.46 307.687 247.392 307.206C247.325 306.725 247.246 306.308 247.217 306.279C247.189 306.25 246.983 306.292 246.759 306.372C245.924 306.671 245.231 306.466 244.919 305.829C244.762 305.508 244.366 302.837 244.445 302.631C244.504 302.478 245.43 302.344 245.557 302.47C245.604 302.517 245.711 303.07 245.796 303.699C245.881 304.329 245.979 304.914 246.013 305C246.175 305.405 246.885 305.321 247.001 304.884C247.032 304.765 246.992 304.166 246.911 303.555C246.829 302.943 246.781 302.393 246.804 302.334C246.826 302.275 246.927 302.209 247.028 302.189C247.331 302.128 247.534 302.095 247.671 302.091ZM235.291 302.287C235.968 302.291 238.428 302.565 238.537 302.668C238.617 302.744 238.032 308.422 237.927 308.592C237.883 308.662 237.32 308.667 236.971 308.6C236.719 308.552 236.72 308.412 236.998 305.957C237.119 304.888 237.205 303.911 237.191 303.787C237.168 303.588 237.113 303.552 236.744 303.49C236.489 303.448 236.29 303.453 236.24 303.503C236.195 303.548 236.085 304.177 235.997 304.901C235.792 306.573 235.708 306.97 235.441 307.518C235.273 307.865 235.145 308.001 234.858 308.14C234.462 308.332 234.001 308.367 233.649 308.234C233.466 308.164 233.429 308.096 233.43 307.826C233.432 307.254 233.498 307.141 233.864 307.083C234.432 306.992 234.507 306.757 234.841 304.029C234.952 303.123 235.079 302.347 235.122 302.304C235.134 302.292 235.194 302.287 235.291 302.287ZM240.627 302.67C240.824 302.675 240.979 302.701 241.02 302.741C241.072 302.793 241.134 303.268 241.158 303.797L241.201 304.758L241.931 304.823C242.883 304.908 243.342 305.136 243.69 305.7C243.925 306.079 243.949 306.184 243.949 306.853C243.949 307.441 243.913 307.649 243.772 307.888C243.568 308.237 243.155 308.537 242.714 308.659C242.543 308.707 241.87 308.746 241.219 308.746C240.281 308.746 240.026 308.721 239.99 308.626C239.964 308.56 239.936 307.199 239.928 305.602L239.912 302.699L240.419 302.673C240.491 302.67 240.561 302.669 240.627 302.67ZM231.028 303.686C230.941 303.686 230.251 304.976 230.251 305.14C230.251 305.187 230.377 305.262 230.531 305.306C231.05 305.458 231.065 305.438 231.092 304.521C231.108 303.992 231.084 303.686 231.028 303.686ZM241.625 305.914C241.471 305.911 241.337 305.943 241.261 306.019C241.199 306.081 241.158 306.381 241.158 306.774C241.158 307.166 241.199 307.466 241.261 307.528C241.401 307.668 241.887 307.658 242.176 307.509C242.561 307.31 242.737 306.728 242.529 306.34C242.399 306.097 241.964 305.921 241.625 305.914Z" fill="currentcolor"/>

</svg>
