<svg  viewBox="0 0 1180 580" fill="currentcolor" xmlns="http://www.w3.org/2000/svg">
<path d="M255.907 334.783C255.711 334.567 255.559 334.045 255.556 333.581C255.544 331.793 254.047 329.928 251.645 328.717C248.578 327.17 244.226 326.528 233.071 325.975C225.943 325.622 219.613 325.141 217.486 324.791C211.362 323.783 208.48 321.669 207.062 317.141C206.749 316.14 206.714 311.541 206.66 263.825C206.606 215.307 206.625 211.578 206.95 211.22C207.288 210.848 208.962 210.835 256.744 210.835C306.004 210.835 306.19 210.835 306.609 211.256C307.029 211.675 307.03 211.817 306.975 264.487L306.921 317.299L306.442 318.48C305.169 321.626 302.743 323.329 297.693 324.619C295.543 325.169 292.968 325.4 283.804 325.868C272.385 326.451 267.927 326.923 264.838 327.876C260.867 329.101 259.1 330.662 258.774 333.231C258.582 334.75 258.236 335.165 257.157 335.165C256.547 335.165 256.141 335.041 255.907 334.783ZM258.732 328.642C260.251 327.14 262.901 325.939 266.244 325.236C269.378 324.578 272.902 324.25 281.92 323.775C293.807 323.15 295.39 323.011 297.607 322.392C301.065 321.427 302.997 320.224 304.002 318.411L304.619 317.299L304.727 213.134H208.699V263.028C208.699 296.314 208.771 313.499 208.917 314.655C209.357 318.167 210.513 319.965 213.174 321.278C215.927 322.637 219.022 323.014 234.536 323.881C242.656 324.335 244.925 324.54 247.474 325.051C251.458 325.848 253.953 327.065 255.834 329.126C257.111 330.526 257.134 330.54 257.433 330.087C257.599 329.834 258.184 329.184 258.732 328.642ZM227.352 317.916C226.822 316.755 227.242 315.67 228.444 315.09C229.369 314.644 229.62 314.597 229.62 314.871C229.62 314.972 229.335 315.172 228.986 315.316C228.012 315.719 227.454 316.641 227.587 317.628C227.716 318.59 227.679 318.634 227.352 317.916ZM228.166 317.546C228.15 316.693 228.481 316.205 229.391 315.741C230.278 315.29 230.456 315.349 230.456 316.094C230.456 316.496 230.375 316.57 230.049 316.467C229.623 316.332 229.186 316.664 228.532 317.617L228.177 318.135L228.166 317.546ZM269.431 317.66C268.433 316.876 268.371 315.522 269.283 314.425C269.866 313.723 270.134 314.022 269.691 314.879C269.276 315.68 269.278 316.972 269.694 317.566C270.084 318.121 270.039 318.137 269.431 317.66ZM278.704 317.187C278.035 316.393 277.997 315.514 278.59 314.555C279.044 313.822 279.574 313.57 279.3 314.217C278.807 315.382 278.729 316.313 279.068 316.992C279.526 317.908 279.378 317.987 278.704 317.187ZM270.075 317.081C269.785 316.639 269.766 316.417 269.959 315.771C270.088 315.343 270.315 314.826 270.463 314.624C270.706 314.291 270.774 314.286 271.149 314.57C271.556 314.878 271.551 314.896 270.912 315.407C270.311 315.888 270.271 315.995 270.413 316.771C270.594 317.755 270.546 317.799 270.075 317.081ZM229.933 317.183C229.58 317.022 229.612 317 230.137 317.041C230.65 317.082 230.794 316.987 230.966 316.501C231.228 315.762 230.838 314.995 229.869 314.342C228.991 313.751 229.31 313.553 230.859 313.728C231.886 313.844 232.138 313.801 232.617 313.424C232.924 313.183 233.176 312.851 233.176 312.687C233.176 312.271 233.015 312.311 232.315 312.899C231.789 313.341 231.622 313.38 231.076 313.19C229.835 312.758 228.155 313.583 228.155 314.626C228.155 314.862 227.833 314.918 226.638 314.891C225.804 314.872 224.644 314.923 224.061 315.004C223.048 315.144 222.976 315.121 222.44 314.485C221.725 313.637 221.734 313.371 222.484 313.088C223.256 312.797 223.779 312 223.828 311.039C223.859 310.415 223.939 310.296 224.285 310.344C224.518 310.377 224.842 310.701 225.017 311.078C225.311 311.71 225.399 311.753 226.417 311.757C227.014 311.761 227.568 311.867 227.648 311.997C227.743 312.15 228.197 312.191 228.945 312.113C230.129 311.991 231.772 311.161 232.207 310.466C232.589 309.854 232.153 309.781 231.552 310.355C230.822 311.054 229.63 311.553 228.69 311.553C228.102 311.553 227.774 311.37 227.03 310.627C226.52 310.117 225.72 309.506 225.253 309.268C224.786 309.03 224.306 308.653 224.187 308.431C223.908 307.91 223.91 306.833 224.191 306.306C224.409 305.9 224.418 305.901 224.783 306.352C225.371 307.077 226.153 306.752 226.849 305.491C227.476 304.355 227.905 304.2 228.572 304.866C229.042 305.335 229.142 306.74 228.775 307.705C228.593 308.183 228.634 308.353 229.036 308.785C230.679 310.551 232.776 309.201 234.873 305.026C235.891 303 235.906 302.983 236.385 303.297C236.923 303.649 237.15 303.538 237.15 302.924C237.15 302.584 237.31 302.662 238.087 303.377C239.102 304.312 239.66 304.474 239.66 303.834C239.66 303.301 239.999 303.103 240.166 303.538C240.248 303.753 239.721 304.859 238.731 306.543C237.294 308.989 237.182 309.264 237.361 309.887C237.468 310.26 237.705 310.731 237.888 310.933C238.205 311.282 238.267 311.274 239.145 310.784C240.064 310.271 240.921 310.201 241.061 310.627C241.101 310.75 240.903 310.974 240.62 311.125C239.581 311.681 239.304 313.681 240.248 313.815C240.639 313.87 240.684 313.94 240.484 314.181C240.161 314.569 239.449 314.557 238.422 314.147C236.893 313.536 234.404 314.339 232.57 316.035C231.621 316.913 230.857 317.418 230.521 317.389C230.428 317.38 230.162 317.288 229.932 317.183L229.933 317.183ZM279.614 316.867C279.502 316.573 279.41 316.146 279.41 315.92C279.41 315.378 279.967 314.06 280.196 314.06C280.538 314.06 281.195 314.71 280.956 314.812C280.214 315.129 280.001 315.482 279.987 316.421C279.971 317.542 279.902 317.623 279.614 316.867ZM271.513 316.674C270.662 316.305 270.651 316.045 271.474 315.758C272.01 315.571 272.105 315.439 272.049 314.959C272 314.54 271.755 314.256 271.145 313.912C270.138 313.344 269.409 313.305 269.021 313.799C268.766 314.124 268.74 314.074 268.789 313.35C268.868 312.18 269.559 311.729 271.514 311.569C272.98 311.449 273.111 311.395 274.247 310.425C275.422 309.422 275.81 308.735 275.563 308.092C275.386 307.633 275.016 307.925 275.016 308.523C275.016 309.062 273.063 310.885 272.633 310.746C272.505 310.705 271.506 310.488 270.413 310.263C268.782 309.928 268.306 309.739 267.755 309.209C267.048 308.528 266.34 307.068 266.97 307.59C267.491 308.021 268.258 307.53 268.516 306.6C268.832 305.464 268.792 304.919 268.373 304.665C268.081 304.488 268.171 304.454 268.823 304.498C269.845 304.566 270.379 305.219 270.584 306.651L270.731 307.677L272.231 307.981C273.901 308.318 274.388 308.158 274.388 307.272C274.388 306.187 271.556 303.359 267.798 300.691L266.543 299.799L268.642 299.928C270.625 300.049 273.234 300.581 274.03 301.026C274.229 301.137 275.029 302.07 275.809 303.099C277.461 305.279 278.838 306.329 280.044 306.329C280.758 306.329 280.854 306.264 280.978 305.704C281.167 304.843 282.001 304.239 283.001 304.239C283.743 304.239 283.797 304.276 283.6 304.643C283.217 305.358 283.343 306.427 283.868 306.919C284.448 307.464 284.791 307.489 285.303 307.028C285.661 306.704 285.685 306.708 285.685 307.101C285.685 307.377 285.333 307.738 284.654 308.16C284.086 308.513 283.476 309.083 283.297 309.429C283.007 309.988 283.006 310.151 283.282 310.935C283.736 312.223 283.687 313.883 283.174 314.535C282.799 315.011 280.928 315.857 280.717 315.646C280.67 315.599 280.818 315.502 281.046 315.429C281.527 315.277 281.75 314.827 281.573 314.366C281.407 313.935 280.479 313.476 279.44 313.31C278.641 313.182 278.583 313.208 278.446 313.755C278.309 314.3 278.283 314.312 278.017 313.949C277.581 313.353 277.677 312.822 278.362 312.043C279.17 311.123 279.203 310.084 278.459 308.989C277.94 308.226 277.525 307.982 277.525 308.438C277.525 308.564 277.699 308.917 277.912 309.222C278.908 310.651 278.527 311.718 276.739 312.508C275.223 313.177 274.805 313.564 274.805 314.297C274.805 314.622 274.659 315.253 274.48 315.699C273.989 316.925 272.907 317.28 271.51 316.674H271.513ZM242.19 314.86C242.159 314.27 241.133 313.224 240.584 313.224C240.068 313.224 239.947 312.921 240.264 312.422C240.408 312.195 240.596 312.221 241.265 312.562C242.248 313.062 242.638 313.777 242.386 314.616C242.288 314.942 242.2 315.052 242.19 314.86ZM243.012 314.245C243.008 313.367 242.429 312.532 241.486 312.045C240.861 311.722 240.852 311.698 241.243 311.412C241.614 311.14 241.724 311.194 242.538 312.053C243.452 313.018 243.693 313.952 243.218 314.687C243.066 314.921 243.014 314.81 243.012 314.245ZM221.509 312.049C221.13 311.618 220.887 311.525 220.316 311.592C219.777 311.654 219.65 311.613 219.806 311.425C220.207 310.943 221.039 310.905 221.992 311.326C222.97 311.758 223.087 311.934 222.674 312.347C222.302 312.718 222.037 312.65 221.509 312.049ZM222.51 310.902C221.62 310.421 220.269 310.392 219.572 310.84C219.205 311.075 219.254 310.984 219.738 310.527C220.252 310.04 220.614 309.882 221.202 309.884C222.369 309.888 222.844 310.07 223.143 310.63C223.508 311.311 223.372 311.369 222.51 310.902ZM267.073 306.858C266.759 306.481 265.56 306.436 264.909 306.777C264.459 307.013 264.458 307.01 264.84 306.58C265.322 306.038 266.198 305.833 267.268 306.014C267.995 306.136 268.069 306.202 267.924 306.595C267.712 307.167 267.407 307.261 267.073 306.858ZM284.112 306.313C283.927 305.732 284.037 305.658 285.26 305.541C286.026 305.467 286.453 305.536 286.852 305.797C287.557 306.258 287.455 306.329 286.372 306.131C285.644 305.997 285.427 306.037 285.137 306.358C284.675 306.868 284.283 306.851 284.112 306.313ZM264.431 305.743C264.893 304.849 266.099 304.478 267.277 304.866C267.737 305.018 268.113 305.221 268.113 305.317C268.113 305.414 267.467 305.493 266.677 305.493C265.523 305.493 265.128 305.581 264.667 305.943L264.094 306.394L264.431 305.743ZM225.132 305.734C224.985 305.273 224.171 304.867 223.386 304.863C222.944 304.859 222.889 304.815 223.134 304.657C223.639 304.331 224.553 304.416 225.448 304.872C226.173 305.242 226.251 305.35 226.06 305.708C225.782 306.227 225.293 306.241 225.132 305.734ZM243.278 305.743C242.202 305.31 241.313 304.527 240.578 303.364L240.023 302.486L239.561 303.023C238.996 303.679 238.702 303.556 237.699 302.245C236.977 301.3 236.732 301.333 236.732 302.375C236.732 302.917 236.389 302.882 236.06 302.306C235.864 301.964 235.791 300.632 235.791 297.411V292.986L236.314 292.683C236.685 292.468 237.871 292.342 240.393 292.249C248.146 291.961 249.83 291.849 250.494 291.579C251.025 291.363 251.449 291.349 252.376 291.519C253.922 291.801 254.68 292.272 256.659 294.181C257.837 295.317 258.278 295.634 258.271 295.342C258.252 294.503 257.678 293.364 256.69 292.21C255.801 291.17 255.735 291.035 256.189 291.172C257.946 291.706 259.865 293.164 261.355 295.098C261.894 295.798 262.37 296.269 262.412 296.143C262.508 295.854 261.464 293.775 260.103 291.543C259.524 290.594 259.094 289.775 259.146 289.722C259.268 289.601 262.069 291.515 265.37 293.974C268.182 296.069 268.741 296.422 268.741 296.107C268.741 295.535 268.157 294.773 267.295 294.22C265.218 292.886 262.464 289.408 262.464 288.117C262.464 287.677 262.516 287.695 263.249 288.39C263.681 288.799 264.469 289.426 265 289.782C266.617 290.867 270.643 292.297 270.613 291.777C270.609 291.678 269.831 291.016 268.887 290.306C267.944 289.596 266.611 288.514 265.927 287.903L264.682 286.791L265.507 286.687C266.228 286.595 266.346 286.503 266.44 285.958C266.582 285.131 267.113 285.054 268.077 285.721C268.501 286.015 269.167 286.366 269.558 286.502L270.269 286.749L269.505 287.141C269.084 287.356 268.748 287.601 268.756 287.684C268.78 287.917 273.342 291.462 274.563 292.196C275.157 292.554 275.644 292.907 275.644 292.98C275.644 293.145 274.537 293.373 273.735 293.373C273.404 293.373 273.134 293.458 273.134 293.561C273.134 293.862 275.318 295.772 276.087 296.144C276.723 296.451 276.749 296.499 276.374 296.652C276.145 296.745 275.243 296.817 274.369 296.812L272.779 296.802L273.343 297.69C273.934 298.621 274.701 300.445 274.561 300.585C274.515 300.63 273.862 300.444 273.108 300.17C271.612 299.628 268.2 299.155 266.544 299.261C265.527 299.327 265.496 299.348 265.431 300.027C265.372 300.643 265.307 300.71 264.874 300.602C264.436 300.492 264.369 300.567 264.243 301.314C264.165 301.773 264.026 302.149 263.933 302.149C263.841 302.149 263.228 301.57 262.572 300.863C261.649 299.867 261.337 299.642 261.193 299.87C261.091 300.032 261.005 300.225 261.003 300.299C260.999 300.373 260.859 300.487 260.686 300.553C260.468 300.637 260.22 300.376 259.866 299.687C259.188 298.368 258.705 297.788 258.564 298.127C258.323 298.705 257.851 298.319 257.243 297.047C256.495 295.482 255.142 294.166 253.411 293.319C252.767 293.004 252.187 292.746 252.122 292.746C252.057 292.746 252.004 293.44 252.004 294.287C252.004 295.722 252.295 296.999 252.878 298.127C253.011 298.385 253.06 298.657 252.986 298.731C252.802 298.914 251.053 298.232 250.74 297.855C250.602 297.688 250.371 297.552 250.228 297.552C249.699 297.552 250.511 300.304 251.415 301.575L251.823 302.149H251.042C250.555 302.149 249.829 301.906 249.118 301.505L247.976 300.862L248.114 301.453C248.191 301.779 248.515 302.582 248.834 303.239C249.489 304.584 249.443 304.657 247.943 304.657C247.423 304.657 246.648 304.451 246.074 304.161C245.534 303.888 245.051 303.732 245 303.815C244.867 304.03 245.287 305.454 245.527 305.602C245.638 305.67 245.728 305.815 245.728 305.923C245.728 306.238 244.237 306.128 243.278 305.743ZM242.57 301.784C242.236 300.905 241.204 299.168 240.218 297.823C239.729 297.157 238.973 296.024 238.539 295.306C238.104 294.588 237.699 294 237.64 294C237.581 294 237.592 294.354 237.664 294.786C237.75 295.298 237.683 295.843 237.473 296.347C237.123 297.182 237.031 299.335 237.336 299.524C237.439 299.587 237.588 299.382 237.667 299.067C237.982 297.81 238.688 297.61 239.138 298.649C239.641 299.809 240.23 300.549 241.378 301.461C242.687 302.501 242.86 302.548 242.568 301.784H242.57ZM246.017 300.843C245.712 300.24 245.176 299.323 244.825 298.806C244.097 297.732 241.151 294.627 240.86 294.627C240.591 294.627 241.814 296.759 243.025 298.402C243.949 299.655 246.162 301.94 246.452 301.94C246.518 301.94 246.323 301.447 246.017 300.843ZM247.359 297.923C245.989 296.244 245.743 295.354 246.718 295.598C247.282 295.739 247.285 295.734 246.959 295.236C246.497 294.533 245.134 293.816 243.947 293.654L242.946 293.517L243.343 294.211C243.873 295.136 247.756 299.148 247.942 298.963C248.023 298.882 247.76 298.415 247.359 297.923ZM251.585 296.664C251.585 296.521 251.19 295.886 250.709 295.254C250.227 294.622 249.777 293.775 249.707 293.373L249.58 292.642L249.268 293.269C248.995 293.816 248.851 293.892 248.13 293.867L247.304 293.839L248.137 294.552C248.933 295.232 251.335 296.925 251.505 296.925C251.549 296.925 251.585 296.808 251.585 296.664ZM287.406 305.581C286.829 305.028 286.065 304.855 284.893 305.012C283.934 305.14 283.842 305.066 284.341 304.567C284.721 304.188 286.059 304.132 286.793 304.466C287.233 304.666 288.145 305.861 287.956 305.989C287.916 306.016 287.668 305.832 287.406 305.581ZM225.443 304.315C224.425 303.776 223.772 303.701 223.068 304.043C222.706 304.218 222.733 304.153 223.198 303.729C223.87 303.117 224.498 303.059 225.583 303.512C226.593 303.934 226.899 304.207 226.76 304.568C226.62 304.932 226.601 304.929 225.443 304.315ZM277.841 291.887C276.182 291.322 276.081 291.196 276.728 290.501C277.023 290.185 277.431 289.662 277.635 289.341L278.007 288.756L278.58 289.305C278.896 289.607 279.499 289.973 279.921 290.117C280.343 290.262 280.707 290.429 280.729 290.488C280.768 290.589 279.262 292.336 279.149 292.321C279.122 292.317 278.531 292.122 277.841 291.887ZM280.446 291.929C280.564 291.71 281 291.32 281.415 291.064L282.169 290.598L283.902 292.328H282.067C280.326 292.328 280.243 292.308 280.446 291.929ZM235.378 291.488C233.681 291.189 232.688 290.71 231.718 289.723C230.904 288.895 230.847 288.776 231.204 288.661C232.996 288.084 234.487 286.848 234.775 285.7C234.841 285.438 234.924 285.224 234.96 285.224C234.995 285.224 235.619 285.376 236.344 285.561C238.447 286.1 240.496 285.892 242.387 284.95C243.231 284.53 243.96 284.224 244.006 284.27C244.169 284.432 243.584 286.798 243.15 287.731C242.532 289.062 240.81 290.682 239.546 291.12C238.209 291.584 236.685 291.719 235.378 291.488ZM285.059 291.614C285.059 291.54 285.414 291.031 285.849 290.481L286.64 289.482L287.261 289.86C287.603 290.067 288.048 290.237 288.249 290.238C288.902 290.242 288.638 290.575 287.621 291.034C286.587 291.5 285.059 291.846 285.059 291.614ZM283.18 290.629C282.276 289.384 282.003 288.352 282.307 287.338C282.648 286.202 282.909 286.036 283.947 286.3C284.722 286.496 284.874 286.649 285.477 287.836L286.147 289.154L285.659 289.813C285.391 290.175 284.866 290.704 284.493 290.988L283.815 291.505L283.18 290.629ZM246.536 290.397C247.153 290.155 248.155 289.502 248.762 288.948C250.128 287.701 250.673 287.639 250.874 288.706C250.953 289.127 250.926 289.62 250.813 289.803C250.469 290.361 248.679 290.848 246.983 290.843L245.414 290.838L246.536 290.397ZM274.389 290.263C273.871 289.936 273.273 289.473 273.06 289.234C272.679 288.807 272.685 288.787 273.405 288.046C273.808 287.632 274.255 287.01 274.399 286.664L274.659 286.036L275.309 286.651C275.666 286.99 276.288 287.43 276.69 287.63C277.093 287.83 277.454 288.02 277.492 288.053C277.694 288.228 275.794 290.871 275.474 290.862C275.395 290.858 274.907 290.59 274.389 290.263ZM242.515 289.796C243.652 288.575 244.674 286.068 244.68 284.487C244.684 283.908 244.799 283.803 246.058 283.256C246.829 282.92 247.934 282.2 248.575 281.614C249.203 281.041 249.783 280.637 249.863 280.716C249.942 280.796 250.042 281.819 250.084 282.99C250.149 284.802 250.092 285.303 249.695 286.354C248.78 288.783 246.713 290.116 243.46 290.375L241.858 290.503L242.515 289.796ZM251.877 289.455C251.815 289.254 251.642 288.751 251.495 288.337C251.228 287.591 251.231 287.583 251.904 287.34C252.959 286.959 254.262 285.924 254.996 284.884L255.665 283.936L256.234 284.617C256.941 285.462 257.438 286.49 257.589 287.417C257.696 288.079 257.639 288.167 256.727 288.745C255.222 289.698 252.095 290.156 251.877 289.455ZM280.344 289.544C278.867 288.973 278.159 288.007 278.156 286.561C278.152 285.793 278.499 284.388 278.688 284.388C278.728 284.388 279.17 284.663 279.669 285C280.168 285.336 280.856 285.678 281.196 285.76C282.105 285.978 282.129 286.013 281.803 286.638C281.454 287.306 281.408 288.836 281.719 289.417C281.904 289.763 281.867 289.819 281.457 289.805C281.194 289.796 280.693 289.679 280.344 289.544ZM288.056 289.496C287.21 289.126 285.986 287.873 285.717 287.102C285.524 286.549 285.556 286.491 286.171 286.277C286.535 286.15 287.17 285.717 287.583 285.315L288.333 284.583L288.84 285.583C289.119 286.132 289.793 287.021 290.338 287.558L291.329 288.535L290.454 289.178C289.499 289.88 289.064 289.937 288.056 289.496ZM229.096 288.145C228.636 288.077 227.883 287.841 227.423 287.621C226.557 287.206 224.17 285.042 224.193 284.691C224.201 284.582 224.6 284.207 225.082 283.857C225.564 283.508 226.323 282.734 226.769 282.137L227.58 281.053L228.269 281.922C229.236 283.142 231.102 284.305 232.793 284.74C234.061 285.066 234.206 285.155 234.089 285.531C233.541 287.3 231.304 288.471 229.096 288.145ZM271.399 287.728C270.64 287.132 269.996 286.013 269.996 285.291C269.996 284.44 270.962 283.551 272.043 283.406C272.762 283.31 272.901 283.356 273.02 283.73C273.096 283.97 273.428 284.421 273.759 284.733L274.359 285.299L273.933 286.149C273.445 287.121 272.546 288.149 272.182 288.149C272.046 288.149 271.694 287.96 271.399 287.728ZM290.921 287.286C290.315 286.681 289.04 284.689 289.036 284.342C289.032 284.259 289.501 283.99 290.073 283.744C290.645 283.498 291.22 283.168 291.351 283.011C291.546 282.776 291.811 282.898 292.822 283.691C293.5 284.223 294.054 284.767 294.054 284.9C294.054 285.491 292.182 287.94 291.73 287.94C291.646 287.94 291.281 287.646 290.921 287.286ZM258.28 287.213C258.28 286.558 257.849 285.672 256.89 284.355L256.181 283.382L256.91 282.932C257.311 282.684 258.214 281.855 258.917 281.089L260.194 279.696L260.605 280.214C261.366 281.175 262.069 282.743 262.188 283.749C262.414 285.652 261.646 286.876 259.954 287.307C259.436 287.439 258.848 287.595 258.647 287.653C258.364 287.735 258.28 287.635 258.28 287.213ZM250.231 286.955C250.596 286.099 250.958 284.448 250.958 283.64C250.958 282.832 250.67 280.957 250.426 280.184C250.35 279.942 250.486 279.812 250.9 279.729C251.725 279.563 252.874 278.74 253.364 277.963C253.594 277.598 253.846 277.296 253.923 277.292C254.286 277.271 255.143 280.927 255.143 282.501C255.143 283.329 255.015 283.685 254.462 284.404C253.541 285.603 252.537 286.367 251.195 286.89C250.159 287.293 250.084 287.298 250.231 286.955ZM276.639 286.837C274.848 285.754 274.701 284.218 276.213 282.364L276.586 281.906L278.15 283.722L277.83 284.628C277.654 285.127 277.502 285.935 277.492 286.424C277.481 286.913 277.461 287.313 277.449 287.312C277.433 287.312 277.07 287.098 276.639 286.837ZM262.566 286.066C262.74 285.729 262.883 285.11 262.883 284.689C262.883 283.96 262.91 283.931 263.457 284.069C264.139 284.24 264.557 284.554 264.557 284.897C264.557 285.254 263.506 286.204 262.827 286.46L262.249 286.679L262.566 286.066ZM283.908 285.568C283.119 285.207 282.674 284.69 282.366 283.775C282.114 283.027 282.278 282.727 282.942 282.72C283.101 282.716 283.534 282.529 283.904 282.301L284.577 281.885L285.437 282.702C285.909 283.151 286.631 283.64 287.04 283.788C287.933 284.11 287.898 284.311 286.817 285.072C285.822 285.773 284.755 285.954 283.908 285.568ZM236.994 285.086C236.62 285.032 236.317 284.924 236.321 284.845C236.325 284.766 236.737 284.419 237.236 284.075C238.445 283.241 239.912 281.488 240.747 279.88L241.425 278.573L241.998 278.869C242.833 279.3 244.645 279.243 245.552 278.757L246.312 278.351L246.044 279.366C245.128 282.836 242.561 284.941 239.034 285.115C238.286 285.152 237.368 285.139 236.994 285.086ZM280.67 284.754C279.54 284.177 278.908 283.352 278.908 282.452C278.908 281.094 279.09 281.004 280.033 281.9C280.505 282.349 281.008 282.716 281.149 282.716C281.291 282.716 281.508 283.116 281.631 283.604C281.754 284.093 281.927 284.657 282.015 284.858C282.236 285.365 281.801 285.331 280.67 284.754ZM274.017 284.086C273.762 283.761 273.553 283.285 273.553 283.027C273.553 282.277 274.123 281.12 274.726 280.646C275.408 280.11 275.644 280.094 275.644 280.585C275.644 280.792 275.756 281.073 275.893 281.209C276.084 281.4 276.043 281.565 275.71 281.93C275.155 282.538 274.768 283.288 274.608 284.062L274.482 284.676L274.017 284.086ZM232.65 284.012C232.073 283.813 231.171 283.398 230.645 283.09C229.711 282.544 228.155 281.018 228.155 280.649C228.155 280.548 228.508 280.399 228.94 280.319C230.07 280.109 231.922 279.069 233.201 277.926L234.307 276.936L235.258 277.521C236.567 278.326 238.467 278.795 239.738 278.626L240.756 278.491L240.096 279.729C239.255 281.304 237.744 283.033 236.541 283.795C235.431 284.498 234.248 284.564 232.65 284.012ZM264.766 283.97C264.478 283.745 264.104 283.559 263.934 283.557C263.762 283.553 263.983 283.257 264.431 282.888C264.875 282.522 265.398 281.866 265.595 281.429L265.951 280.635L266.629 281.135C267.542 281.808 267.89 282.3 267.894 282.925C267.898 283.563 267.729 283.835 267.133 284.148C266.444 284.51 265.352 284.428 264.766 283.97ZM293.841 283.694C293.551 283.444 293.059 283.039 292.747 282.794C292.195 282.361 292.186 282.322 292.428 281.308L292.676 280.266L293.409 280.572C293.98 280.81 294.306 280.829 294.873 280.655C295.274 280.532 295.621 280.452 295.644 280.477C295.734 280.575 294.727 283.8 294.553 283.969C294.449 284.072 294.14 283.953 293.841 283.694ZM222.873 283.176C221.592 281.243 220.678 278.771 220.327 276.297C220.212 275.484 220.248 275.391 220.794 275.109L221.386 274.803L222.417 276.382C223.579 278.161 225.11 279.646 226.18 280.033C226.967 280.317 227.017 280.431 226.659 281.111C226.102 282.169 224.143 283.97 223.549 283.97C223.466 283.97 223.162 283.613 222.873 283.176ZM287.113 283.061C286.805 282.924 286.251 282.543 285.881 282.214L285.21 281.616L285.847 281.349C286.197 281.202 286.686 280.808 286.933 280.474C287.375 279.877 287.403 279.87 288.539 280.075C289.315 280.216 290.035 280.215 290.732 280.072C291.304 279.955 291.808 279.919 291.854 279.993C291.993 280.217 291.606 281.65 291.267 282.167C290.59 283.199 288.46 283.658 287.113 283.061ZM245.614 282.153C246.276 281.185 246.983 278.99 246.983 277.904C246.983 277.372 247.148 276.91 247.477 276.516C247.748 276.191 248.133 275.609 248.331 275.223L248.691 274.522L249.322 275.119C249.931 275.695 249.95 275.769 249.863 277.193C249.707 279.696 248.707 281.108 246.184 282.384L245.07 282.948L245.614 282.153ZM262.581 282.376C262.426 281.76 261.162 279.706 260.799 279.483C260.651 279.391 260.917 279.026 261.515 278.501C262.038 278.041 262.523 277.438 262.593 277.161C262.769 276.458 263.015 276.524 264.043 277.551C265.497 279.004 265.57 280.855 264.226 282.197C263.345 283.077 262.773 283.139 262.581 282.376ZM255.77 281.87C255.77 280.696 255.179 278.149 254.721 277.354L254.341 276.693L254.952 276.44C255.288 276.301 255.85 275.861 256.2 275.462C256.987 274.567 257.514 274.638 258.672 275.793C259.891 277.011 259.975 278.506 258.914 280.104C258.497 280.733 256.232 282.716 255.931 282.716C255.842 282.716 255.77 282.335 255.77 281.87ZM277.684 282.188C277.173 281.503 277.227 280.984 277.876 280.335C278.64 279.573 278.926 279.912 278.502 281.079C278.321 281.577 278.146 282.141 278.112 282.332C278.061 282.618 277.987 282.593 277.684 282.188ZM282.275 281.706C282.217 281.4 282.105 280.951 282.028 280.708C281.919 280.367 281.989 280.239 282.339 280.148C282.67 280.062 282.949 280.207 283.384 280.694C284.043 281.431 283.959 281.713 282.976 282.055C282.43 282.245 282.373 282.217 282.275 281.706ZM267.43 281.034C266.709 280.319 266.516 280.015 266.734 279.932C266.899 279.868 267.29 279.38 267.603 278.846C268.034 278.114 268.173 277.599 268.173 276.744C268.173 276.121 268.265 275.612 268.377 275.612C268.489 275.612 268.938 275.968 269.374 276.404C270.244 277.273 270.582 278.519 270.323 279.899C270.177 280.677 269.073 282.113 268.667 282.055C268.535 282.036 267.978 281.576 267.43 281.034ZM280.486 281.429C279.795 280.754 279.867 280.429 280.706 280.421C281.119 280.417 281.711 281.181 281.711 281.718C281.711 282.277 281.242 282.166 280.486 281.429ZM270.91 280.784C270.979 280.525 271.038 279.82 271.039 279.216L271.043 278.119H271.961C272.536 278.119 273.055 278.261 273.347 278.497C273.796 278.861 273.801 278.901 273.475 279.531C273.051 280.35 271.889 281.254 271.26 281.254C270.87 281.254 270.807 281.17 270.911 280.784H270.91ZM276.421 280.706C276.155 280.44 276.263 279.269 276.598 278.793C277.015 278.198 277.402 278.202 277.677 278.804C277.86 279.205 277.79 279.403 277.232 280.067C276.868 280.5 276.503 280.788 276.421 280.706ZM284.054 280.47C283.555 280.039 283.244 279.164 283.591 279.164C283.719 279.164 284.082 279.297 284.396 279.46C284.711 279.622 285.335 279.824 285.784 279.908L286.598 280.061L286.119 280.448C285.516 280.936 284.605 280.946 284.054 280.47ZM293.263 279.674L292.797 279.348L293.371 278.596C294.138 277.592 294.298 275.297 293.683 274.12L293.286 273.359L293.827 273.551C294.991 273.965 295.351 274.441 295.643 275.946C296.078 278.196 296.029 279.285 295.472 279.675C294.876 280.091 293.86 280.09 293.263 279.674ZM226.514 279.484C225.313 278.941 224.235 277.944 223.254 276.471C221.807 274.296 221.8 274.358 223.486 274.358C225.071 274.358 226.899 273.953 228.119 273.332L228.906 272.93L229.406 273.871C230.02 275.027 231.312 276.108 232.502 276.461C232.994 276.607 233.371 276.794 233.338 276.877C233.21 277.212 231.359 278.603 230.388 279.094C229.093 279.75 227.464 279.913 226.514 279.484ZM265.63 278.755C265.382 277.929 264.393 276.713 263.629 276.296C263.243 276.085 263.25 276.054 263.793 275.582C264.161 275.263 264.377 274.85 264.407 274.411C264.43 274.037 264.54 273.732 264.647 273.732C265.145 273.732 266.688 274.663 267.066 275.192C267.538 275.855 267.636 277.437 267.25 278.185C266.971 278.726 266.216 279.582 266.018 279.582C265.941 279.582 265.766 279.21 265.63 278.755ZM288.565 279.444L287.993 279.346L288.409 278.532C288.675 278.01 288.824 277.303 288.824 276.56V275.403H289.48C290.257 275.403 291.366 274.763 291.931 273.989C292.273 273.519 292.386 273.475 292.661 273.704C293.522 274.418 293.662 277.133 292.89 278.168C292.667 278.467 292.24 278.858 291.939 279.037C291.357 279.384 289.515 279.606 288.565 279.444ZM250.401 278.694C250.464 278.435 250.58 277.738 250.657 277.145L250.798 276.066L251.454 276.465C251.814 276.684 252.321 276.864 252.58 276.865C252.839 276.865 253.05 276.984 253.05 277.129C253.05 277.548 252.009 278.557 251.249 278.874C250.328 279.258 250.265 279.245 250.401 278.694ZM284.811 278.946C284.496 278.763 284.491 278.679 284.757 278.169C284.922 277.854 285.057 277.444 285.057 277.258C285.057 277.028 285.312 276.878 285.848 276.793C286.282 276.724 286.965 276.425 287.365 276.129L288.092 275.59L288.161 276.156C288.268 277.027 288.021 278.02 287.548 278.62C287.195 279.07 286.951 279.163 286.142 279.158C285.603 279.154 285.005 279.059 284.811 278.946ZM242.22 278.213L241.756 277.889L242.278 277.327C242.565 277.017 242.901 276.459 243.024 276.086C243.245 275.418 243.257 275.413 243.85 275.719C245.151 276.39 246.285 275.811 246.102 274.569C246.035 274.109 246.071 273.991 246.234 274.153C246.554 274.473 246.503 276.723 246.162 277.36C245.592 278.424 243.246 278.931 242.22 278.213ZM273.698 278.008C273.375 277.725 272.964 277.492 272.786 277.492C272.544 277.492 272.494 277.359 272.592 276.97C272.665 276.682 272.782 276.022 272.853 275.502C272.995 274.467 273.093 274.445 274.494 275.141C276.681 276.227 277.035 277.215 275.54 278.058C274.5 278.645 274.42 278.643 273.698 278.008ZM260.37 277.915C260.492 277.687 260.533 277.268 260.462 276.984C260.337 276.487 260.363 276.472 261.137 276.592C261.579 276.66 261.974 276.742 262.013 276.775C262.235 276.959 261.72 277.751 261.205 278.017C260.354 278.457 260.097 278.425 260.37 277.915ZM283.404 277.858C283.262 277.478 283.307 277.375 283.638 277.319C284.175 277.228 284.29 277.366 284.122 277.895C283.942 278.462 283.625 278.446 283.404 277.858ZM237.617 277.795C237.011 277.632 236.213 277.343 235.844 277.153L235.174 276.806L236.529 276.366C238.149 275.839 239.508 275.067 240.832 273.922C241.37 273.458 241.88 273.154 241.965 273.248C242.051 273.341 242.232 273.764 242.367 274.188C242.876 275.778 241.889 277.412 240.125 277.901C239.158 278.17 238.982 278.162 237.617 277.795ZM270.833 277.204C270.833 276.681 269.668 275.507 268.73 275.085C267.901 274.711 267.868 274.661 267.986 273.951C268.053 273.543 268.11 272.619 268.111 271.899L268.115 270.589L268.69 270.721C269.006 270.794 269.734 271.111 270.306 271.426C271.765 272.229 272.374 273.382 272.229 275.069C272.165 275.813 271.966 276.513 271.728 276.832C271.249 277.472 270.834 277.645 270.834 277.204H270.833ZM276.642 275.937C276.327 275.559 275.527 274.978 274.863 274.647C274.2 274.316 273.624 274.028 273.584 274.007C273.544 273.986 273.845 273.532 274.253 272.999C274.661 272.465 275.102 271.705 275.232 271.309L275.47 270.59L276.324 271.063C278.119 272.059 278.899 274.42 277.948 275.977C277.72 276.351 277.461 276.65 277.373 276.642C277.286 276.633 276.956 276.316 276.642 275.937ZM282.856 276.343C282.802 276.171 282.714 275.89 282.661 275.72C282.607 275.549 282.756 275.306 282.992 275.18C283.228 275.054 283.566 274.606 283.743 274.185C284.038 273.484 284.08 273.456 284.231 273.86C284.323 274.104 284.461 274.73 284.54 275.252C284.663 276.075 284.625 276.232 284.256 276.429C283.652 276.752 282.97 276.711 282.856 276.343ZM278.874 275.692C278.95 275.391 279.066 274.874 279.133 274.543C279.199 274.211 279.34 273.94 279.446 273.94C279.756 273.94 280.665 274.937 280.665 275.277C280.665 275.694 279.855 276.239 279.236 276.239C278.803 276.239 278.755 276.167 278.874 275.692ZM285.202 275.194C285.134 274.62 284.891 273.726 284.661 273.208L284.244 272.266L285.05 271.855C285.899 271.422 286.732 270.527 286.732 270.046C286.732 269.489 287.141 269.774 287.695 270.718C288.752 272.52 288.343 274.691 286.742 275.768C285.634 276.514 285.346 276.406 285.202 275.194ZM232.226 275.65C231.47 275.295 229.62 273.487 229.62 273.103C229.62 273.02 230.255 272.906 231.031 272.85C232.568 272.74 233.807 272.224 234.619 271.354L235.121 270.817L235.929 271.734C236.794 272.716 238.566 273.727 239.441 273.738L239.975 273.745L239.452 274.187C239.164 274.429 238.324 274.913 237.585 275.261C235.832 276.087 233.517 276.255 232.226 275.65ZM247.121 274.83C247.047 274.37 246.845 273.877 246.672 273.733C245.97 273.151 246.511 272.898 247.496 273.347C248.142 273.641 248.203 274.433 247.637 275.169L247.255 275.666L247.121 274.83ZM251.964 275.29C251.655 275.122 250.691 274.475 249.822 273.852C248.1 272.619 247.037 272.17 246.21 272.327C245.691 272.427 245.681 272.407 245.804 271.507C245.97 270.3 246.683 268.665 247.294 268.093C247.757 267.658 247.853 267.648 249.365 267.877C250.237 268.009 251.156 268.087 251.405 268.051C251.784 267.996 251.918 268.158 252.21 269.03C252.548 270.036 252.592 270.077 253.418 270.138C254.145 270.192 254.522 270.424 255.912 271.676C258.218 273.754 260.561 274.825 261.178 274.083C261.466 273.735 261.15 273.265 259.641 271.79C258.813 270.981 258.487 270.489 258.373 269.878C257.935 267.531 260.354 266.799 263.618 268.29C266.107 269.426 268.195 269.334 267.804 268.105C267.721 267.844 267.192 267.121 266.628 266.499C265.815 265.603 265.603 265.218 265.603 264.644C265.603 263.369 266.14 263.196 270.477 263.073C274.065 262.971 274.236 262.947 274.608 262.487C275.171 261.793 274.794 261.133 273.32 260.24C272.42 259.694 272.057 259.329 271.881 258.797C271.549 257.792 271.81 256.692 272.524 256.092C273.078 255.626 274.69 255.134 275.663 255.134C276.834 255.134 278.992 253.305 278.992 252.313C278.992 251.614 278.543 251.438 276.481 251.33C274.403 251.222 273.588 250.869 273.033 249.839C272.683 249.189 272.669 249.009 272.908 248.203C273.325 246.802 274.63 245.709 277.631 244.252C280.389 242.913 281.293 242.147 281.293 241.15C281.293 240.533 280.735 239.88 280.207 239.88C280.03 239.88 279.52 240.172 279.073 240.528C277.142 242.065 275.548 242.473 274.136 241.79C273.074 241.277 272.506 240.432 272.506 239.367C272.506 238.175 272.943 237.589 275.301 235.616C277.747 233.57 278.688 232.422 278.473 231.745C278.35 231.356 278.17 231.313 276.676 231.313C274.642 231.313 274.18 230.99 274.18 229.568C274.18 228.491 274.728 227.663 276.692 225.776C278.996 223.56 280.254 221.147 280.615 218.247C280.752 217.151 280.83 216.991 281.261 216.93C281.917 216.837 282.716 217.612 282.884 218.504C283.165 220.003 281.654 222.347 278.262 225.671C276.195 227.697 275.542 229.139 276.467 229.634C277.266 230.061 277.949 229.88 278.807 229.014C279.67 228.144 280.15 227.998 280.703 228.44C281.203 228.839 281.306 229.613 281.058 231.104C280.769 232.835 280.373 233.404 278.286 235.085C276.143 236.812 275.019 238.248 275.018 239.264C275.014 240.164 275.322 240.507 276.125 240.507C277.064 240.507 278.063 239.93 278.689 239.028C279.82 237.398 281.326 236.925 282.137 237.947C282.537 238.452 282.581 238.715 282.502 240.104C282.442 241.171 282.258 242.004 281.94 242.661C281.528 243.512 281.288 243.72 280.073 244.285C276.797 245.806 276.03 246.232 275.563 246.787C274.887 247.589 274.687 248.755 275.114 249.405C275.589 250.13 276.613 250.062 278.573 249.179C279.465 248.776 280.489 248.447 280.849 248.447C281.489 248.447 281.502 248.468 281.502 249.441C281.502 250.99 280.775 253.266 280.079 253.897C279.752 254.193 278.588 254.782 277.494 255.206C275.293 256.057 273.762 257.176 273.762 257.932C273.762 258.98 275.687 260.149 277.412 260.149C278.477 260.149 278.573 260.188 278.572 260.619C278.568 261.292 277.897 262.304 276.987 262.998C276.206 263.593 276.181 263.597 272.503 263.701C268.574 263.812 268.269 263.892 267.884 264.904C267.647 265.525 268.095 266.653 268.763 267.12C269.03 267.307 269.701 267.52 270.254 267.593C270.808 267.667 271.308 267.804 271.367 267.899C271.563 268.215 270.875 269.515 270.319 269.879C269.573 270.367 267.64 270.182 264.791 269.35C262.272 268.615 261.216 268.549 260.719 269.098C260.11 269.771 260.329 270.223 262.047 271.841C263.538 273.245 263.722 273.5 263.721 274.169C263.717 275.291 263.171 275.687 261.779 275.572C260.48 275.464 258.179 274.455 256.932 273.446C255.479 272.269 254.436 271.642 253.937 271.642C252.751 271.642 253.315 273.263 254.835 274.223C255.349 274.548 255.77 274.85 255.77 274.894C255.77 274.938 255.492 275.118 255.153 275.293C254.378 275.693 252.705 275.692 251.964 275.29ZM243.899 274.523C242.754 273.61 242.203 272.875 241.729 271.627C241.204 270.249 241.235 269.043 241.827 267.776C242.64 266.036 244.429 264.757 247.67 263.601C248.973 263.136 250.589 261.847 251.029 260.923C251.522 259.885 251.464 259.185 250.763 257.704C250.239 256.598 250.001 256.334 249.133 255.895C247.847 255.244 246.454 253.745 246.164 252.701C245.671 250.929 246.075 248.783 247.393 246.168C249.766 241.461 253.23 238.411 262.36 232.99C271.682 227.456 276.303 223.645 279.722 218.671L280.297 217.835L280.149 218.88C279.951 220.277 278.918 222.717 278.037 223.87C277.643 224.384 276.591 225.395 275.699 226.116C273.513 227.881 270.775 230.536 269.691 231.94C269.204 232.572 268.03 234.443 267.083 236.099C263.697 242.018 262.068 244.003 256.56 248.925C253.656 251.52 252.855 253.605 252.845 258.597C252.837 261.994 252.123 263.37 249.013 265.964C247.169 267.503 246.07 268.91 245.732 270.167C245.44 271.25 245.328 272.95 245.524 273.32C245.769 273.782 245.454 275.076 245.079 275.148C244.904 275.182 244.373 274.9 243.899 274.523ZM281.005 274.345C280.796 273.992 280.398 273.6 280.119 273.474C279.619 273.246 279.618 273.237 280.01 272.808C280.593 272.169 281.054 271.173 281.207 270.216C281.33 269.446 281.38 269.392 281.792 269.579C283.033 270.144 283.769 272.592 283.092 273.899C282.465 275.111 281.57 275.301 281.005 274.345ZM288.913 273.018C288.929 271.364 288.89 271.203 288.258 270.307L287.586 269.355L288.426 269.129C288.888 269.004 289.633 268.572 290.08 268.169L290.894 267.434L291.295 268.232C292.25 270.13 292.372 272.481 291.566 273.454C291.056 274.068 289.863 274.774 289.332 274.775C288.926 274.775 288.899 274.663 288.913 273.018ZM255.456 274.117C254.397 273.525 253.684 272.477 254.34 272.477C254.768 272.477 256.626 273.777 256.545 274.02C256.436 274.349 255.949 274.392 255.456 274.117ZM259.013 273.547C258.667 273.331 257.726 272.574 256.921 271.864C255.309 270.443 254.169 269.761 253.404 269.761C253.016 269.761 252.832 269.575 252.576 268.925L252.247 268.089H252.866C253.848 268.089 254.894 268.773 256.994 270.787C258.184 271.927 259.312 272.811 259.871 273.04C260.376 273.248 260.79 273.535 260.79 273.679C260.794 274.072 259.727 273.993 259.013 273.547ZM220.96 273.34C220.606 272.947 220.589 272.781 220.799 271.738C221.198 269.753 221.753 268.747 222.655 268.375C223.091 268.195 223.747 267.822 224.114 267.546C224.48 267.27 224.826 267.045 224.882 267.045C224.938 267.045 225.048 267.35 225.127 267.724C225.393 268.986 226.473 270.959 227.317 271.72C227.778 272.136 228.155 272.517 228.155 272.566C228.155 272.616 227.614 272.864 226.952 273.118C226.091 273.448 225.124 273.607 223.552 273.679C221.518 273.771 221.327 273.746 220.96 273.34ZM266.126 273.187C265.781 272.909 265.154 272.625 264.734 272.556L263.97 272.431L264.273 271.707C264.439 271.31 264.518 270.803 264.447 270.581C264.293 270.098 264.307 270.096 265.257 270.492C265.67 270.665 266.295 270.806 266.647 270.806C267.451 270.806 267.766 271.47 267.47 272.542C267.168 273.635 266.863 273.782 266.126 273.187ZM272.658 272.785C272.31 272.121 271.205 271.008 270.519 270.631C270.107 270.404 270.107 270.4 270.542 270.394C270.786 270.39 271.233 270.193 271.536 269.955C272.229 269.41 272.275 268.384 271.643 267.582L271.199 267.017L271.998 267.351C273.18 267.844 274.076 268.598 274.473 269.434C274.772 270.063 274.787 270.303 274.572 271.018C274.433 271.482 274.018 272.209 273.651 272.633L272.983 273.405L272.658 272.785ZM293.794 272.9C292.806 272.583 292.801 272.578 292.795 271.642C292.791 271.124 292.703 270.331 292.598 269.879L292.407 269.056L292.909 269.67C293.43 270.306 294.985 273.104 294.858 273.177C294.819 273.2 294.34 273.075 293.794 272.9ZM238.023 272.56C237.111 272.106 235.896 270.96 235.896 270.553C235.896 270.494 236.325 270.281 236.85 270.08C237.376 269.88 238.235 269.388 238.761 268.988C239.736 268.244 240.068 268.287 240.077 269.158C240.08 269.344 240.25 269.72 240.457 269.994C241.241 271.029 241.43 272.532 240.827 272.944C240.363 273.262 239.078 273.086 238.023 272.56ZM278.783 272.76C278.783 272.348 277.255 270.782 276.456 270.375C275.651 269.965 275.644 269.951 275.945 269.368C276.114 269.043 276.374 268.108 276.524 267.289L276.797 265.801L277.842 266.292C280.659 267.615 281.367 270.557 279.325 272.462C279.027 272.74 278.783 272.875 278.783 272.76ZM257.805 271.045C256.858 270.143 255.647 269.075 255.114 268.673L254.144 267.941L255.779 267.59C257.361 267.251 258.468 266.592 258.717 265.84C258.781 265.649 259.887 265.922 262.736 266.833C264.897 267.524 266.803 268.089 266.971 268.089C267.139 268.089 267.276 268.244 267.276 268.432C267.276 268.995 265.331 268.666 263.516 267.795C261.631 266.89 260.262 266.795 259.121 267.49C258.72 267.734 258.276 268.086 258.134 268.273C257.472 269.141 258.201 271.289 259.481 272.243C259.799 272.479 259.939 272.676 259.792 272.68C259.646 272.684 258.751 271.948 257.805 271.045ZM228.668 271.975C227.507 271.47 226.134 269.365 225.748 267.499L225.604 266.804L226.242 267.133C227.06 267.556 228.988 267.557 229.992 267.137C230.71 266.837 230.786 266.839 230.979 267.166C231.984 268.871 232.533 269.479 233.54 270.001L234.636 270.57L233.854 271.215C233.423 271.569 232.742 271.951 232.339 272.063C231.31 272.349 229.424 272.303 228.668 271.975ZM262.061 271.135C260.713 269.763 261.146 269.218 263.144 269.772C263.773 269.946 263.929 270.089 263.929 270.492C263.929 271.147 263.509 272.06 263.207 272.06C263.077 272.06 262.561 271.643 262.061 271.135ZM283.708 270.771C283.482 270.258 282.975 269.673 282.419 269.281C281.464 268.609 281.346 268.419 281.733 268.18C282.089 267.961 282.748 266.382 282.753 265.739C282.757 265.42 282.874 265.164 283.019 265.165C283.531 265.165 284.637 265.999 285.251 266.846C286.496 268.562 286.242 270.744 284.727 271.355C284.091 271.611 284.076 271.603 283.708 270.771ZM233.653 269.349C232.933 268.911 231.711 267.375 231.711 266.909C231.711 266.721 231.979 266.627 232.511 266.627C233.465 266.627 235.143 266.089 235.49 265.671C235.84 265.25 236.003 265.297 236.277 265.898C236.551 266.498 238.285 267.671 238.898 267.671C239.294 267.671 239.295 267.685 238.929 268.089C238.721 268.319 237.985 268.789 237.294 269.134C235.812 269.874 234.629 269.944 233.653 269.349ZM240.75 268.413C240.429 267.71 240.424 267.74 240.917 267.611C241.362 267.495 241.446 267.837 241.153 268.579C241.018 268.924 240.975 268.906 240.75 268.413ZM274.474 268.319C274.075 267.642 272.457 266.418 271.962 266.418C271.569 266.418 271.358 265.565 271.7 265.354C272.087 265.113 273.851 264.746 274.619 264.746C275.138 264.746 275.3 264.872 275.551 265.471C276.014 266.579 275.939 267.758 275.363 268.426L274.873 268.996L274.474 268.319ZM286.457 267.668C286.241 267.059 285.727 266.249 285.262 265.785L284.446 264.97L285.066 264.604C285.407 264.403 285.686 264.164 285.686 264.074C285.686 263.984 285.804 263.91 285.948 263.909C286.276 263.909 289.451 266.049 289.969 266.62C290.342 267.032 290.342 267.057 289.957 267.484C289.427 268.069 288.691 268.428 287.676 268.597L286.839 268.735L286.459 267.668H286.457ZM279.956 267.125C279.508 266.602 278.708 265.973 278.178 265.726C277.647 265.479 277.185 265.262 277.15 265.244C277.114 265.225 277.339 264.941 277.648 264.613C277.957 264.284 278.348 263.692 278.516 263.297C278.912 262.364 279.809 261.194 280.128 261.194C280.958 261.194 282.131 263.446 282.128 265.034C282.124 265.883 281.261 268.096 280.937 268.082C280.845 268.079 280.404 267.648 279.956 267.125ZM222.739 266.992C222.986 266.504 223.378 265.836 223.61 265.507L224.032 264.91L224.315 265.583C224.471 265.954 224.599 266.331 224.599 266.422C224.599 266.609 222.74 267.88 222.466 267.88C222.369 267.88 222.49 267.481 222.739 266.992ZM248.918 267.534C248.544 267.48 248.238 267.357 248.238 267.26C248.238 267.163 248.69 266.706 249.241 266.245L250.244 265.407L253.007 265.348C255.958 265.286 256.532 265.438 255.96 266.129C255.322 266.9 253.458 267.499 251.483 267.567C250.446 267.603 249.292 267.588 248.918 267.534ZM262.674 266.49C260.66 265.849 258.873 265.283 258.703 265.232C258.531 265.181 258.93 264.921 259.594 264.652C261.116 264.034 261.741 263.624 262.179 262.956C262.509 262.453 262.504 262.395 262.077 261.817L261.627 261.209L262.064 260.975C262.786 260.59 264.138 259.285 264.138 258.975C264.138 258.635 264.63 258.599 265.191 258.899C265.409 259.016 265.963 259.752 266.421 260.536C266.879 261.319 267.403 262.083 267.585 262.234C267.872 262.472 267.77 262.557 266.816 262.88C265.497 263.326 264.894 263.97 265.08 264.733C265.152 265.027 265.628 265.809 266.138 266.47C266.85 267.391 266.981 267.67 266.701 267.663C266.5 267.659 264.688 267.131 262.674 266.49ZM238.074 266.649C237.417 266.25 236.523 265.256 236.523 264.927C236.523 264.827 236.688 264.744 236.889 264.742C237.091 264.738 237.746 264.468 238.347 264.137L239.438 263.536L239.971 264.444C240.275 264.963 240.882 265.578 241.384 265.877L242.264 266.401L241.492 266.723C240.428 267.167 238.868 267.133 238.074 266.649ZM226.377 266.506C224.982 265.78 224.345 264.67 224.817 263.79C225.055 263.344 227.073 261.888 227.199 262.07C227.223 262.105 227.416 262.604 227.626 263.179C227.867 263.837 228.409 264.627 229.089 265.314L230.169 266.404L229.55 266.62C228.641 266.936 227.096 266.881 226.377 266.506ZM230.104 265.4C229.271 264.794 228.357 263.502 228.062 262.511C227.933 262.08 227.966 262.064 228.614 262.25C229.557 262.52 230.618 262.483 231.562 262.147L232.353 261.865L232.752 262.646C233.197 263.518 234.49 264.746 234.961 264.746C235.514 264.746 235.283 265.109 234.483 265.496C234.052 265.704 233.087 265.911 232.339 265.956C231.091 266.03 230.908 265.984 230.104 265.4ZM241.509 265.225C240.835 264.807 239.909 263.284 240.328 263.282C240.479 263.282 240.849 263.152 241.151 262.995L241.699 262.71L241.962 263.884C242.107 264.531 242.27 265.177 242.325 265.321C242.461 265.674 242.18 265.641 241.509 265.225ZM251.513 264.026C252.166 263.238 252.784 263.003 255.422 262.539C257.405 262.191 259.296 262.154 259.745 262.456C260.008 262.633 259.958 262.75 259.431 263.188C258.348 264.089 255.463 264.743 252.559 264.745H250.917L251.513 264.025V264.026ZM282.846 264.188C282.78 263.978 282.599 263.453 282.445 263.022C282.176 262.272 282.183 262.239 282.614 262.239C283.114 262.239 285.268 263.264 285.268 263.502C285.268 263.752 284.364 264.264 283.643 264.422C283.092 264.543 282.944 264.499 282.846 264.188ZM235.381 264.177C234.694 264 234.041 263.483 233.598 262.767C233.034 261.855 233.066 261.612 233.751 261.607C234.068 261.603 234.717 261.425 235.193 261.209L236.061 260.816L236.553 261.566C236.825 261.979 237.446 262.526 237.934 262.782L238.822 263.247L237.934 263.665C236.92 264.142 235.977 264.331 235.381 264.177ZM246.293 262.917C247.917 261.469 248.408 260.023 247.723 258.7C247.554 258.374 246.701 257.449 245.827 256.645L244.239 255.183L245.176 251.96L245.505 252.786C246.028 254.103 246.897 255.2 248.352 256.379C249.096 256.982 249.906 257.757 250.151 258.101C251.046 259.356 250.536 261.138 248.976 262.205C248.402 262.598 245.859 263.702 245.532 263.701C245.467 263.7 245.809 263.348 246.293 262.917ZM285.631 262.143L285.052 261.417L285.673 261.096C286.415 260.713 287.389 260.68 287.736 261.026C287.875 261.164 287.988 261.587 287.988 261.967C287.988 262.589 287.928 262.656 287.377 262.656C287.041 262.656 286.641 262.704 286.488 262.762C286.334 262.821 285.95 262.544 285.631 262.143ZM238.5 262.374C237.801 262.057 236.669 260.838 236.831 260.576C236.887 260.486 237.204 260.358 237.536 260.291C237.867 260.225 238.424 259.931 238.772 259.639L239.405 259.106L240.241 259.941C240.701 260.4 241.276 260.776 241.52 260.776C242.097 260.776 242.083 261.239 241.484 261.934C240.905 262.606 239.478 262.817 238.5 262.374ZM252.697 262.37C252.764 262.196 252.92 261.678 253.043 261.218C253.172 260.742 253.424 260.338 253.63 260.279C256.427 259.477 257.404 259.141 258.941 258.45C260.438 257.777 260.845 257.672 261.294 257.842C261.941 258.088 261.969 258.362 261.436 259.236C260.597 260.609 258.808 261.529 255.875 262.094C252.698 262.706 252.563 262.718 252.697 262.37ZM267.954 262.076C267.613 261.757 267.029 260.957 266.657 260.299C266.285 259.64 265.731 258.9 265.425 258.655L264.87 258.208L265.599 258.347C266.455 258.51 267.565 259.207 269.159 260.584C269.792 261.131 270.734 261.82 271.251 262.114L272.193 262.65L270.384 262.654C268.694 262.658 268.535 262.619 267.954 262.077V262.076ZM271.766 262.021C271.302 261.793 270.129 260.95 269.16 260.149C267.22 258.543 266.366 258.065 265.155 257.903C264.267 257.784 264.045 257.432 264.857 257.432C265.566 257.432 268.104 257.98 269.862 258.513C270.852 258.814 271.491 259.147 271.816 259.533C272.081 259.847 272.774 260.41 273.354 260.782C274.152 261.293 274.395 261.567 274.348 261.901C274.26 262.517 272.904 262.58 271.766 262.021ZM228.887 261.633C227.808 261.36 227.318 260.999 227.318 260.477C227.318 260.084 227.46 259.959 228.029 259.852C228.42 259.779 228.967 259.541 229.245 259.322L229.75 258.925L230.145 259.658C230.362 260.061 230.804 260.612 231.127 260.883C231.449 261.154 231.642 261.42 231.555 261.473C231.219 261.68 229.484 261.784 228.887 261.633ZM226.377 261.402C226.448 261.287 226.548 261.193 226.598 261.193C226.649 261.193 226.691 261.287 226.691 261.402C226.691 261.517 226.591 261.611 226.469 261.611C226.347 261.611 226.306 261.517 226.377 261.402ZM280.261 260.461L280.677 259.962C281.195 259.341 281.339 259.467 281.255 260.466L281.188 261.244L280.261 260.461ZM281.816 260.284C281.832 259.617 281.932 259.422 282.327 259.276C283.019 259.02 283.548 259.244 283.91 259.943C284.437 260.96 284.337 261.087 283.007 261.1L281.795 261.111L281.815 260.284L281.816 260.284ZM231.68 260.513C231.375 260.255 230.965 259.785 230.767 259.469L230.408 258.894H231.12C231.512 258.894 232.182 258.716 232.609 258.498L233.387 258.103L233.7 258.76C233.872 259.121 234.295 259.605 234.64 259.835C235.428 260.36 235.425 260.47 234.608 260.754C233.509 261.137 232.3 261.037 231.68 260.513ZM284.639 260.636C284.639 260.425 284.456 259.953 284.232 259.586L283.825 258.92L284.557 258.678C285.78 258.275 286.941 258.825 286.941 259.806C286.941 260.172 286.753 260.326 286.052 260.532C285.563 260.676 285.045 260.845 284.902 260.906C284.747 260.973 284.64 260.862 284.639 260.636ZM288.133 260.641C287.966 260.474 288.156 260.148 288.418 260.148C288.526 260.148 288.615 260.289 288.615 260.462C288.615 260.785 288.368 260.877 288.133 260.641ZM240.723 259.607C240.042 259.034 239.901 258.686 240.353 258.686C240.503 258.686 240.946 258.45 241.337 258.161C242.19 257.533 242.353 257.716 242.221 259.156C242.112 260.336 241.729 260.452 240.723 259.607ZM253.259 259.051V258.163L255.404 257.034C256.583 256.413 258.36 255.348 259.352 254.667C260.723 253.725 261.3 253.445 261.758 253.497C262.286 253.558 262.368 253.661 262.424 254.341C262.559 255.961 260.015 257.858 255.903 259.204C254.666 259.608 253.565 259.939 253.457 259.939C253.348 259.939 253.259 259.54 253.259 259.051ZM287.463 259.517C287.4 259.32 287.163 258.991 286.936 258.785C286.346 258.252 286.414 258.108 287.387 257.817C288.196 257.575 288.277 257.589 288.642 258.041C289.27 258.814 289.15 259.383 288.305 259.647C287.678 259.843 287.561 259.825 287.463 259.517ZM235.104 259.404C234.698 259.12 234.013 258.085 234.013 257.756C234.013 257.693 234.304 257.641 234.661 257.641C235.018 257.641 235.616 257.496 235.991 257.318C236.66 257.001 236.684 257.007 237.387 257.684C237.78 258.062 238.288 258.477 238.516 258.604C238.905 258.823 238.886 258.863 238.197 259.283C237.319 259.817 235.781 259.878 235.104 259.404ZM227.946 259.14C227.946 259.05 228.163 258.682 228.428 258.323C228.899 257.686 228.916 257.681 229.177 258.098C229.324 258.334 229.366 258.591 229.271 258.671C228.932 258.952 227.946 259.301 227.946 259.14ZM281.502 258.952C281.502 258.641 282.196 258.097 282.463 258.2C282.932 258.379 282.807 258.627 282.13 258.863C281.784 258.983 281.502 259.024 281.502 258.952ZM283.001 258.06C282.46 257.33 282.575 256.931 283.429 256.578C284.2 256.259 284.998 256.604 285.416 257.438C285.661 257.927 285.639 257.961 285.001 258.072C284.63 258.137 284.129 258.297 283.888 258.428C283.509 258.634 283.388 258.583 283.001 258.06ZM269.054 257.928C268.134 257.65 266.482 257.316 265.384 257.185L263.386 256.947L263.978 256.301C264.304 255.946 264.727 255.303 264.918 254.872C265.249 254.125 265.311 254.089 266.26 254.089C266.807 254.089 268.131 254.365 269.201 254.703C270.271 255.041 271.407 255.372 271.725 255.439L272.303 255.561L271.866 256.151C271.626 256.475 271.377 257.131 271.313 257.609C271.249 258.086 271.091 258.467 270.962 258.455C270.834 258.444 269.975 258.207 269.054 257.928ZM230.119 258.063C229.457 257.796 229.344 257.271 229.889 256.991C230.144 256.86 230.555 256.568 230.803 256.343L231.254 255.933L232 256.735C232.41 257.176 232.749 257.598 232.752 257.673C232.76 257.863 231.532 258.271 231.001 258.254C230.759 258.247 230.362 258.161 230.119 258.063ZM238.359 257.733C237.69 257.37 237.185 256.596 237.618 256.596C237.768 256.596 238.229 256.366 238.643 256.085L239.395 255.575L239.624 256.076C239.75 256.351 240.2 256.755 240.624 256.972L241.394 257.367L240.899 257.713C240.292 258.138 239.123 258.147 238.359 257.733ZM286.105 257.669C286.105 257.556 285.854 257.166 285.547 256.802C284.904 256.039 285.094 255.769 286.278 255.763C286.782 255.76 287.155 255.941 287.632 256.418L288.29 257.076L287.437 257.327C286.967 257.466 286.476 257.645 286.344 257.727C286.212 257.808 286.105 257.782 286.105 257.669ZM253.259 256.85C253.259 255.937 253.655 255.511 258.12 251.61C260.67 249.383 260.825 249.283 261.729 249.283C262.607 249.283 262.674 249.321 262.674 249.826C262.674 250.985 261.378 252.745 259.42 254.245C258.577 254.89 253.716 257.64 253.417 257.641C253.33 257.641 253.259 257.285 253.259 256.85ZM288.824 257.327C288.824 257.155 288.918 257.014 289.034 257.014C289.149 257.014 289.243 257.155 289.243 257.327C289.243 257.5 289.149 257.641 289.034 257.641C288.918 257.641 288.824 257.5 288.824 257.327ZM232.941 256.804C232.755 256.695 232.45 256.373 232.263 256.088C231.926 255.574 231.931 255.566 232.836 255.166C233.338 254.944 233.814 254.658 233.893 254.53C234.111 254.179 234.388 254.25 234.529 254.693C234.598 254.91 234.977 255.403 235.37 255.787C236.086 256.487 236.086 256.487 235.625 256.743C235.078 257.047 233.422 257.084 232.941 256.804ZM287.893 256.015C287.299 255.32 287.291 255.283 287.672 255.004C288.26 254.575 288.773 254.653 289.15 255.228C289.567 255.862 289.48 256.398 288.929 256.591C288.61 256.702 288.363 256.565 287.893 256.015ZM240.43 255.932L239.766 255.269L240.355 255.111C240.678 255.024 241.067 254.851 241.218 254.726C241.424 254.554 241.652 254.648 242.146 255.109C242.863 255.778 242.98 256.273 242.468 256.469C241.736 256.75 241.073 256.575 240.43 255.932ZM230.375 255.649C230.566 255.358 230.764 255.162 230.815 255.213C230.96 255.358 230.467 256.178 230.235 256.178C230.121 256.178 230.184 255.94 230.375 255.649ZM283.176 256.051C283.176 256.021 283.272 255.743 283.391 255.433C283.598 254.887 283.618 254.881 284.018 255.243C284.582 255.752 284.539 255.906 283.804 256.014C283.458 256.064 283.176 256.081 283.176 256.051ZM235.77 255.259C234.798 254.288 234.847 253.965 235.989 253.809C236.827 253.694 236.983 253.744 237.542 254.303C237.885 254.645 238.337 254.927 238.547 254.931C238.864 254.936 238.829 255.026 238.342 255.453C237.495 256.198 236.646 256.134 235.77 255.259ZM284.394 255.041C283.854 254.403 283.848 254.37 284.234 254.129C284.845 253.749 285.845 253.83 286.314 254.298C286.956 254.939 286.851 255.342 286.042 255.342C285.662 255.342 285.262 255.423 285.153 255.523C285.036 255.629 284.724 255.431 284.394 255.041ZM253.394 254.886C253.841 252.487 254.795 250.84 256.71 249.16C260.451 245.88 260.4 245.915 261.305 245.982C261.981 246.031 262.164 246.132 262.214 246.484C262.303 247.106 261.199 248.463 259.117 250.291C258.139 251.15 256.422 252.691 255.302 253.716C253.332 255.517 253.269 255.555 253.394 254.886ZM271.147 255.004C270.916 254.945 270.069 254.65 269.264 254.349C268.42 254.033 267.267 253.78 266.544 253.75C265.493 253.706 265.289 253.637 265.289 253.321C265.289 252.594 267.502 252.463 271.925 252.929C274.971 253.25 276.779 253.124 277.974 252.507C278.66 252.153 278.729 252.309 278.214 253.05C277.635 253.88 277.073 254.271 275.965 254.61C274.878 254.944 271.866 255.19 271.147 255.004ZM231.293 254.405C231.293 253.699 232.608 253.102 233.322 253.484C233.898 253.792 233.794 253.978 232.752 254.509C231.653 255.069 231.293 255.043 231.293 254.405ZM242.632 254.674C242.257 254.299 242.323 254.148 242.916 254.035C243.323 253.957 243.423 254.006 243.334 254.237C243.27 254.404 243.218 254.627 243.218 254.733C243.218 255.001 242.93 254.972 242.632 254.674ZM286.671 254.035C286.153 253.463 286.122 253.355 286.4 253.078C286.882 252.595 287.987 252.684 288.438 253.241C288.997 253.93 288.927 254.298 288.238 254.298C287.916 254.298 287.563 254.384 287.454 254.489C287.332 254.606 287.03 254.431 286.671 254.035ZM238.713 254.308C238.478 254.213 238.162 253.985 238.009 253.801C237.773 253.517 237.79 253.446 238.121 253.326C238.335 253.248 238.746 253.028 239.034 252.836C239.545 252.495 239.573 252.505 240.336 253.284C241.064 254.026 241.09 254.093 240.716 254.293C240.246 254.544 239.314 254.551 238.713 254.308ZM283.804 253.13C283.804 252.576 283.89 252.417 284.189 252.417C284.542 252.417 285.45 253.182 285.249 253.31C285.202 253.341 284.857 253.473 284.483 253.604L283.804 253.843V253.13ZM241.176 253.185C240.916 253.041 240.558 252.715 240.38 252.461C240.081 252.035 240.085 251.999 240.44 251.999C240.651 251.999 241.031 251.854 241.286 251.676C241.722 251.37 241.788 251.393 242.489 252.094C242.898 252.501 243.346 252.838 243.486 252.841C243.626 252.845 243.558 252.986 243.335 253.155C242.842 253.527 241.819 253.541 241.176 253.185ZM233.9 253.03C233.824 252.907 233.795 252.785 233.835 252.758C234.435 252.354 235.102 251.981 235.129 252.035C235.149 252.072 235.392 252.362 235.671 252.678L236.178 253.253H235.107C234.519 253.253 233.975 253.152 233.9 253.03ZM288.778 252.73C288.483 252.337 288.47 252.228 288.706 252.138C288.89 252.067 289.044 252.221 289.129 252.56C289.307 253.267 289.213 253.313 288.778 252.73ZM285.477 252.832C285.477 252.715 285.187 252.444 284.833 252.228L284.188 251.837L284.67 251.5C285.281 251.073 286.294 251.068 286.895 251.488C287.417 251.854 287.505 252.208 287.074 252.208C286.917 252.208 286.549 252.396 286.257 252.626C285.661 253.094 285.477 253.143 285.477 252.832ZM232.13 252.614C232.13 252.492 232.224 252.45 232.339 252.521C232.454 252.592 232.548 252.692 232.548 252.743C232.548 252.793 232.454 252.835 232.339 252.835C232.224 252.835 232.13 252.735 232.13 252.614ZM236.607 252.541C235.712 252.146 235.56 251.658 236.275 251.479C236.584 251.403 237.003 251.19 237.206 251.007C237.537 250.71 237.603 250.708 237.834 250.993C237.976 251.168 238.304 251.451 238.563 251.622C239.009 251.917 239.014 251.951 238.668 252.264C238.12 252.757 237.334 252.863 236.607 252.541ZM264.717 252.591C264.839 252.469 265.062 252.411 265.213 252.461C265.369 252.513 265.274 252.608 264.992 252.682C264.644 252.773 264.562 252.746 264.717 252.591ZM271.147 252.492C269.996 252.333 268.254 252.245 267.276 252.296C266.142 252.356 265.743 252.328 266.174 252.221C266.546 252.129 267.911 251.989 269.208 251.911C270.504 251.832 272.049 251.632 272.64 251.466C273.593 251.199 273.804 251.202 274.497 251.491C274.928 251.671 275.715 251.803 276.247 251.785C278.789 251.7 278.978 251.945 276.803 252.51C275.339 252.891 274.01 252.887 271.147 252.492ZM264.792 251.251C265.123 250.595 265.393 249.844 265.393 249.582C265.393 248.988 266.079 248.437 267.993 247.497C269.303 246.853 272.007 246.148 273.166 246.148C273.575 246.148 273.575 246.156 273.186 246.723C272.171 248.196 272.084 249.537 272.946 250.452L273.377 250.911L272.631 251.157C272.222 251.292 270.59 251.484 269.006 251.583C266.399 251.746 265.571 251.879 264.532 252.303C264.272 252.409 264.334 252.16 264.793 251.251H264.792ZM232.699 251.947C232.606 251.686 233.091 250.536 233.294 250.536C233.354 250.536 233.676 250.738 234.01 250.985L234.618 251.434L234.125 251.821C233.56 252.265 232.836 252.329 232.699 251.947ZM243.045 251.724C242.795 251.458 242.59 251.183 242.59 251.113C242.59 250.973 243.809 250.327 244.073 250.327C244.386 250.327 244.484 251.12 244.237 251.662C243.929 252.335 243.634 252.35 243.045 251.724ZM287.578 251.598C287.452 251.363 287.106 251.043 286.808 250.888L286.266 250.604L286.841 250.152C287.398 249.715 288.498 249.538 288.68 249.857C288.729 249.943 288.831 250.355 288.906 250.772C289.017 251.386 288.972 251.555 288.672 251.66C288.468 251.732 288.19 251.843 288.054 251.907C287.918 251.972 287.704 251.832 287.578 251.598ZM238.866 250.95C238.225 250.56 238.12 250.118 238.667 250.118C238.796 250.118 239.096 249.943 239.334 249.728C239.76 249.343 239.776 249.349 240.524 250.153C241.214 250.896 241.248 250.986 240.903 251.17C240.316 251.484 239.62 251.409 238.866 250.95ZM283.804 250.527C283.804 249.961 283.895 249.701 284.094 249.701C284.414 249.701 285.435 250.458 285.268 250.571C285.21 250.609 284.857 250.801 284.483 250.997L283.804 251.353V250.527ZM234.866 250.69C234.099 250.299 234.158 250.057 235.136 249.572L236.029 249.13L236.485 249.642C237.067 250.295 237.059 250.416 236.409 250.712C235.74 251.016 235.499 251.013 234.866 250.69ZM241.05 249.777C240.405 249.133 240.352 248.865 240.87 248.865C241.075 248.865 241.44 248.726 241.683 248.556C242.091 248.271 242.18 248.301 242.881 248.961L243.639 249.675L243.173 250.001C242.477 250.487 241.676 250.403 241.05 249.777ZM284.607 249.12L285.089 248.784C285.638 248.399 286.57 248.345 287.165 248.663C287.738 248.97 287.676 249.139 286.769 249.732L285.968 250.255L284.607 249.12ZM244.577 249.91C244.506 249.795 244.546 249.701 244.67 249.701C244.792 249.701 244.891 249.795 244.891 249.91C244.891 250.024 244.85 250.118 244.799 250.118C244.749 250.118 244.649 250.024 244.577 249.91ZM236.984 249.241C236.58 248.838 236.699 248.573 237.444 248.225C238.111 247.914 238.168 247.921 238.712 248.389C239.177 248.788 239.236 248.935 239.028 249.185C238.721 249.554 237.335 249.592 236.984 249.241ZM234.091 248.461C234.421 247.344 234.514 247.295 235.127 247.907L235.659 248.438L235.121 248.86C234.826 249.093 234.418 249.283 234.216 249.283C233.886 249.283 233.873 249.198 234.091 248.461ZM243.399 248.483L242.737 247.892L243.465 247.443C244.177 247.003 244.21 247.002 244.928 247.367C245.54 247.679 245.635 247.815 245.498 248.185C245.337 248.62 244.715 249.074 244.281 249.074C244.16 249.074 243.763 248.808 243.399 248.483ZM283.916 248.456C283.555 248.057 283.56 248.035 284.076 247.801C284.379 247.663 284.864 247.622 285.197 247.705C285.749 247.844 285.76 247.866 285.369 248.074C285.141 248.196 284.805 248.425 284.622 248.582C284.337 248.827 284.237 248.809 283.916 248.456ZM264.589 248.471C264.39 248.345 264.833 247.989 266.121 247.243C268.043 246.128 270.911 244.948 275.836 243.242C277.495 242.667 279.307 241.914 279.863 241.569C280.722 241.036 280.875 240.996 280.875 241.304C280.875 242.061 280.134 242.651 277.823 243.74C276.511 244.359 275.163 245.059 274.829 245.297C274.494 245.535 273.988 245.73 273.705 245.73C273.421 245.73 272.353 245.875 271.331 246.053C269.341 246.399 267.853 246.986 266.356 248.014C265.381 248.684 265.058 248.768 264.589 248.471ZM287.412 248.401C286.832 248.121 286.801 247.82 287.353 247.82C287.578 247.82 287.864 248.008 287.988 248.238C288.236 248.702 288.111 248.737 287.412 248.401ZM239.085 247.778L238.626 247.319L239.278 246.775C239.906 246.252 239.957 246.243 240.61 246.555C240.983 246.733 241.405 247.061 241.546 247.282C241.76 247.618 241.74 247.731 241.424 247.961C240.824 248.4 239.613 248.305 239.085 247.778ZM235.719 247.675C235.542 247.604 235.766 247.376 236.321 247.061C237.009 246.671 237.27 246.613 237.497 246.802C237.745 247.007 237.736 247.102 237.437 247.432C237.101 247.803 236.318 247.913 235.719 247.675ZM285.634 247.435C284.938 247.015 284.908 246.695 285.524 246.264C286.342 245.691 287.174 245.978 287.457 246.932C287.57 247.31 287.515 247.402 287.177 247.402C286.946 247.402 286.699 247.496 286.628 247.611C286.462 247.879 286.333 247.856 285.634 247.435ZM283.29 247.053C283.126 246.399 283.29 246.195 283.749 246.484C284.252 246.801 284.274 247.06 283.824 247.341C283.477 247.557 283.408 247.52 283.29 247.053ZM234.931 246.826C234.688 246.786 234.223 246.476 233.898 246.137C233.328 245.543 233.239 245.521 231.411 245.525C230.368 245.529 228.856 245.668 228.051 245.838C226.208 246.228 225.569 246.228 224.812 245.838C223.808 245.319 223.717 244.269 224.677 244.269C225.01 244.269 225.251 244.054 225.498 243.537L225.847 242.806H221.879V243.9L221.094 243.305C219.872 242.378 219.196 241.744 218.607 240.973L218.064 240.263L218.769 240.641C219.256 240.903 219.933 241.02 220.969 241.024C222.306 241.029 222.445 241.067 222.277 241.382C222.173 241.575 222.088 241.787 222.088 241.852C222.088 241.917 223.171 241.97 224.494 241.97C225.817 241.97 226.9 241.917 226.9 241.852C226.9 241.787 226.794 241.536 226.665 241.295L226.43 240.857L225.693 241.833L225.376 241.223C225.201 240.887 224.814 240.348 224.515 240.027C224.216 239.705 223.971 239.352 223.971 239.243C223.971 239.134 223.778 239.045 223.542 239.045C222.729 239.045 221.939 238.453 221.591 237.586C221.141 236.462 221.162 235.87 221.679 235.215C222.523 234.143 224.465 234.35 224.636 235.531C224.724 236.145 225.284 236.282 227.799 236.307C230.008 236.33 230.593 236.154 231.49 235.195C232.423 234.198 233.685 233.961 238.197 233.935C241.584 233.916 242.365 233.854 242.799 233.572C243.087 233.385 244.452 232.837 245.833 232.354C247.214 231.871 248.508 231.389 248.709 231.283C249.089 231.082 249.182 231.247 248.915 231.65C248.633 232.077 247.522 232.513 245.754 232.891C243.998 233.267 242.799 233.945 242.799 234.563C242.799 235.233 240.73 235.681 237.412 235.73C235.163 235.763 235.059 235.784 235.059 236.209C235.059 237.894 232.836 238.07 232.421 236.418C232.266 235.801 232.051 235.78 231.502 236.328C230.935 236.895 230.971 237.053 231.764 237.466L232.444 237.82L231.607 237.704C231.147 237.639 230.535 237.584 230.247 237.581C229.738 237.575 229.742 237.563 230.404 237.14C230.778 236.901 231.086 236.597 231.088 236.465C231.092 236.332 231.491 235.942 231.977 235.597C232.839 234.986 232.943 234.967 236 234.841C239.438 234.7 239.243 234.721 239.243 234.5C239.243 234.334 234.567 234.381 233.477 234.557C233.124 234.614 232.192 235.083 231.406 235.599C230.62 236.115 229.754 236.537 229.484 236.537C228.978 236.537 228.757 237.152 229.253 237.177C229.397 237.185 229.295 237.279 229.027 237.386C228.162 237.732 228.648 238.027 230.252 238.129C231.112 238.184 232.004 238.248 232.235 238.271C232.488 238.297 232.63 238.203 232.595 238.034C232.551 237.825 232.701 237.791 233.191 237.899C234.63 238.214 236.943 236.981 236.319 236.23C236.087 235.95 236.141 235.93 236.759 236.063C237.833 236.296 239.384 236.249 241.19 235.928C242.76 235.649 242.838 235.608 243.224 234.853C243.651 234.017 243.777 233.954 247.036 232.942C247.927 232.665 248.657 232.503 248.657 232.583C248.657 232.662 248.493 232.781 248.291 232.848C248.09 232.914 247.346 233.325 246.639 233.76C245.932 234.196 245.062 234.712 244.704 234.908C244.031 235.277 243.866 235.848 244.305 236.286C244.598 236.579 245.101 236.621 245.101 236.353C245.101 236.251 244.912 236.119 244.681 236.059C244.071 235.899 244.355 235.4 245.301 234.974C245.742 234.775 246.65 234.25 247.319 233.807C247.987 233.363 248.571 233.038 248.617 233.084C248.84 233.307 247.571 235.491 246.766 236.267C245.881 237.122 245.866 237.157 246.231 237.56C246.437 237.787 246.542 238.078 246.463 238.205C246.384 238.332 246.435 238.575 246.577 238.745C246.718 238.916 246.774 239.114 246.701 239.187C246.628 239.26 246.674 239.445 246.799 239.597C246.926 239.75 246.977 240.014 246.911 240.185C246.846 240.355 246.884 240.551 246.996 240.62C247.305 240.81 247.015 241.134 246.533 241.134C246.288 241.134 246.062 241.306 246.001 241.539C245.943 241.762 245.622 242.039 245.289 242.155C244.955 242.271 244.682 242.515 244.682 242.696C244.682 242.894 244.436 243.075 244.065 243.149C243.726 243.216 243.42 243.417 243.386 243.595C243.35 243.773 242.993 244.033 242.59 244.173C242.187 244.313 241.881 244.533 241.91 244.662C241.938 244.792 241.696 244.896 241.361 244.896C241.03 244.896 240.654 245.021 240.528 245.173C240.395 245.333 240.04 245.414 239.695 245.363C239.21 245.292 239.069 245.367 238.971 245.738C238.861 246.161 238.766 246.188 237.874 246.054C237.071 245.934 236.819 245.98 236.449 246.311C235.913 246.792 235.524 246.924 234.931 246.827V246.826ZM226.269 244.111C226.265 243.911 225.861 243.28 225.857 243.467C225.853 243.544 225.797 243.755 225.727 243.937C225.643 244.154 225.715 244.267 225.936 244.267C226.121 244.267 226.271 244.197 226.269 244.111ZM227.527 243.705C227.527 243.294 227.023 243.476 226.937 243.918C226.89 244.161 226.968 244.228 227.198 244.14C227.379 244.071 227.527 243.875 227.527 243.705ZM228.783 243.727C228.783 243.359 228.332 243.423 228.203 243.81C228.157 243.947 228.269 244.058 228.452 244.058C228.634 244.058 228.783 243.909 228.783 243.727ZM229.829 243.64C229.829 243.526 229.74 243.431 229.632 243.431C229.523 243.431 229.377 243.526 229.306 243.64C229.235 243.755 229.325 243.849 229.502 243.849C229.682 243.849 229.829 243.755 229.829 243.64ZM230.875 243.64C230.875 243.526 230.78 243.431 230.666 243.431C230.55 243.431 230.456 243.526 230.456 243.64C230.456 243.755 230.55 243.849 230.666 243.849C230.78 243.849 230.875 243.755 230.875 243.64ZM231.805 243.414C231.738 243.305 231.593 243.271 231.484 243.338C231.376 243.405 231.341 243.549 231.409 243.658C231.476 243.767 231.62 243.801 231.729 243.734C231.838 243.667 231.872 243.522 231.805 243.414ZM226.897 242.961C226.901 242.875 226.708 242.805 226.474 242.805C226.104 242.805 226.08 242.863 226.287 243.251C226.478 243.607 226.563 243.639 226.71 243.407C226.811 243.248 226.895 243.048 226.897 242.961ZM232.757 243.431C232.757 243.317 232.716 243.223 232.665 243.223C232.614 243.223 232.515 243.317 232.444 243.431C232.372 243.546 232.416 243.64 232.536 243.64C232.658 243.64 232.757 243.546 232.757 243.431ZM228.231 243.118C228.313 242.905 228.219 242.805 227.939 242.805C227.528 242.805 227.403 243.029 227.667 243.292C227.893 243.518 228.102 243.453 228.231 243.118ZM230.456 243.001C230.456 242.893 230.315 242.805 230.142 242.805C229.819 242.805 229.727 243.051 229.962 243.286C230.129 243.453 230.456 243.265 230.456 243.001ZM233.755 243.053C233.802 242.914 233.646 242.805 233.403 242.805C232.968 242.805 232.838 243.024 233.111 243.297C233.304 243.49 233.654 243.358 233.755 243.053ZM229.306 243.014C229.377 242.899 229.282 242.805 229.096 242.805C228.91 242.805 228.816 242.899 228.887 243.014C228.958 243.128 229.053 243.223 229.096 243.223C229.14 243.223 229.235 243.128 229.306 243.014ZM231.293 243.014C231.293 242.899 231.199 242.805 231.084 242.805C230.969 242.805 230.875 242.899 230.875 243.014C230.875 243.128 230.969 243.223 231.084 243.223C231.199 243.223 231.293 243.128 231.293 243.014ZM232.235 243.014C232.306 242.899 232.266 242.805 232.142 242.805C232.02 242.805 231.921 242.899 231.921 243.014C231.921 243.128 231.962 243.223 232.013 243.223C232.064 243.223 232.163 243.128 232.235 243.014ZM228.155 241.851C228.155 241.786 228.051 241.538 227.923 241.3C227.738 240.953 227.655 240.925 227.508 241.157C227.202 241.639 227.295 241.969 227.737 241.969C227.967 241.969 228.155 241.916 228.155 241.851ZM229.198 241.812C229.194 241.612 228.79 240.981 228.786 241.168C228.782 241.245 228.725 241.456 228.655 241.638C228.572 241.855 228.644 241.969 228.865 241.969C229.05 241.969 229.199 241.898 229.198 241.812ZM231.16 241.655C231.013 241.274 230.736 241.248 230.602 241.603C230.532 241.79 230.423 241.759 230.219 241.495C229.948 241.145 229.92 241.147 229.67 241.547C229.421 241.946 229.457 241.969 230.343 241.969C231.09 241.969 231.256 241.905 231.16 241.655ZM232.13 241.655C232.13 241.483 232.281 241.342 232.466 241.342C232.679 241.342 232.758 241.457 232.682 241.655C232.609 241.846 232.682 241.969 232.869 241.969C233.271 241.969 233.26 241.671 232.845 241.327C232.611 241.133 232.415 241.115 232.178 241.264C231.767 241.523 231.594 241.969 231.904 241.969C232.029 241.969 232.13 241.828 232.13 241.655ZM234.568 241.646C234.636 241.469 234.635 241.267 234.564 241.198C234.415 241.05 233.801 241.522 233.801 241.785C233.801 242.101 234.435 241.985 234.566 241.646H234.568ZM233.699 241.342C233.77 241.227 233.675 241.133 233.49 241.133C233.304 241.133 233.21 241.227 233.281 241.342C233.352 241.457 233.446 241.551 233.49 241.551C233.534 241.551 233.628 241.457 233.699 241.342ZM227.379 240.924C227.46 240.614 227.387 240.506 227.089 240.506C226.649 240.506 226.634 240.534 226.818 241.011C226.992 241.465 227.248 241.426 227.379 240.924ZM228.641 241.049C228.708 240.875 228.59 240.713 228.35 240.651C227.901 240.533 227.893 240.543 228.073 241.011C228.23 241.42 228.492 241.438 228.641 241.049ZM229.695 241.028C229.768 240.837 229.695 240.715 229.508 240.715C229.339 240.715 229.201 240.856 229.201 241.028C229.201 241.201 229.285 241.342 229.388 241.342C229.491 241.342 229.629 241.201 229.695 241.028ZM230.666 241.028C230.666 240.856 230.571 240.715 230.456 240.715C230.341 240.715 230.247 240.856 230.247 241.028C230.247 241.201 230.341 241.342 230.456 241.342C230.571 241.342 230.666 241.201 230.666 241.028ZM231.711 241.133C231.711 241.018 231.565 240.924 231.385 240.924C231.206 240.924 231.117 241.018 231.188 241.133C231.26 241.248 231.407 241.342 231.515 241.342C231.623 241.342 231.711 241.248 231.711 241.133ZM226.063 240.598C226.063 240.432 225.871 240.297 225.637 240.297C225.274 240.297 225.245 240.359 225.439 240.721C225.681 241.173 226.063 241.098 226.063 240.598ZM234.546 236.134C234.336 235.794 234.013 236.072 234.013 236.593C234.013 237.008 234.04 237.017 234.351 236.705C234.537 236.519 234.625 236.262 234.546 236.134ZM242.067 246.566C242.166 246.253 242.102 246.147 241.82 246.144C241.611 246.144 241.305 246.057 241.142 245.953C240.922 245.814 241.066 245.706 241.696 245.536C242.164 245.41 242.601 245.167 242.667 244.996C242.733 244.825 242.914 244.685 243.07 244.685C243.226 244.685 243.575 244.45 243.845 244.163C244.115 243.875 244.456 243.64 244.602 243.64C244.748 243.64 244.991 243.467 245.141 243.255C245.291 243.044 245.65 242.748 245.937 242.598C246.225 242.448 246.536 242.198 246.628 242.042C246.954 241.491 247.333 241.731 247.253 242.439C247.115 243.677 246.755 245.615 246.531 246.325C246.29 247.088 246.503 247.058 244.184 246.65C243.764 246.576 243.419 246.619 243.335 246.755C243.257 246.88 242.91 246.984 242.564 246.984C242.03 246.984 241.955 246.92 242.067 246.566ZM265.144 246.256C265.219 245.614 265.16 245.501 264.638 245.303C264.314 245.18 264.142 245.014 264.258 244.934C264.375 244.855 265.535 243.634 266.838 242.222C268.937 239.945 270.494 238.626 272.052 237.805C272.504 237.567 272.522 237.578 272.313 237.969C271.766 238.991 272.159 240.774 273.124 241.646L273.575 242.054L271.106 243.232C269.747 243.879 267.859 244.989 266.909 245.696C265.959 246.404 265.154 246.984 265.121 246.984C265.085 246.984 265.097 246.656 265.144 246.256ZM266.858 246.161C267.929 245.262 270.089 244.008 272.059 243.143C273.587 242.472 273.913 242.401 274.912 242.518C276.273 242.678 277.22 242.347 279.01 241.086C279.874 240.477 280.314 240.28 280.467 240.433C280.921 240.887 278.987 241.822 274.257 243.436C272.201 244.138 269.53 245.176 268.322 245.744C266.361 246.665 266.204 246.71 266.858 246.161ZM284.222 246.252C284.079 246.08 283.832 245.939 283.673 245.939C283.244 245.939 283.325 245.359 283.79 245.11C284.298 244.839 284.673 244.837 285.378 245.105L285.935 245.316L285.265 245.941C284.483 246.671 284.553 246.65 284.222 246.252ZM286.526 245.364C286.53 245.278 286.621 245.066 286.732 244.894C286.896 244.64 286.936 244.67 286.938 245.051C286.942 245.309 286.847 245.521 286.732 245.521C286.617 245.521 286.525 245.45 286.526 245.364ZM283.176 244.391C283.176 243.711 283.516 243.521 283.795 244.043C283.976 244.381 283.939 244.501 283.597 244.684C283.228 244.881 283.176 244.845 283.176 244.391ZM285.836 244.765C285.766 244.694 285.418 244.577 285.065 244.504C284.445 244.376 284.434 244.355 284.752 243.901C284.984 243.571 285.294 243.431 285.79 243.431C286.65 243.431 286.87 243.724 286.512 244.391C286.239 244.902 286.068 244.997 285.836 244.765ZM263.933 244.195C263.929 243.776 263.804 243.568 263.504 243.49C263.121 243.39 263.164 243.306 263.92 242.659C264.382 242.264 265.57 240.91 266.56 239.65C269.271 236.198 271.919 234.077 274.724 233.108C276.476 232.504 278.059 232.213 277.862 232.532C277.509 233.102 272.672 237.176 271.857 237.589C269.882 238.59 269.468 238.955 265.224 243.431C263.987 244.737 263.937 244.767 263.933 244.195ZM247.917 242.073C248.062 240.229 248.082 240.175 248.936 239.286C250.357 237.809 252.681 235.948 257.339 232.56C259.755 230.802 262.721 228.563 263.929 227.583C266.7 225.337 271.594 220.455 273.335 218.2C274.787 216.32 275.231 216.114 276.023 216.956C276.68 217.654 276.808 218.614 276.391 219.705C275.939 220.888 275.302 221.68 272.43 224.625C271.141 225.947 269.902 227.267 269.676 227.56C269.119 228.277 268.186 228.894 262.569 232.255C256.841 235.683 255.308 236.669 253.364 238.177C251.335 239.751 249.819 241.225 248.71 242.7L247.768 243.954L247.917 242.073ZM283.85 243.394C283.487 243.032 283.933 242.595 284.666 242.595C285.391 242.595 285.416 242.718 284.797 243.234C284.236 243.702 284.169 243.713 283.85 243.394ZM286.523 243.013C286.523 242.898 286.617 242.804 286.732 242.804C286.847 242.804 286.941 242.898 286.941 243.013C286.941 243.128 286.847 243.222 286.732 243.222C286.617 243.222 286.523 243.128 286.523 243.013ZM285.48 242.346C285.063 242.009 285.028 241.906 285.279 241.743C285.718 241.459 286.614 241.602 286.683 241.969C286.714 242.141 286.571 242.388 286.362 242.518C286.06 242.705 285.88 242.67 285.48 242.346ZM283.781 242.246C284.319 241.303 284.425 241.214 284.428 241.7C284.432 241.957 284.238 242.266 283.997 242.395C283.61 242.602 283.586 242.585 283.781 242.246ZM264.632 240.785C265.249 239.884 266.532 237.784 267.482 236.118C268.433 234.451 269.66 232.524 270.209 231.834C271.174 230.623 273.812 227.968 274.052 227.968C274.117 227.968 274.075 228.21 273.966 228.504C273.853 228.799 273.762 229.402 273.762 229.844C273.762 230.485 273.892 230.757 274.405 231.189C274.97 231.663 275.245 231.732 276.654 231.746L278.259 231.762L276.324 232.265C272.153 233.35 269.757 235.118 265.845 240C264.849 241.242 263.916 242.295 263.771 242.34C263.627 242.385 264.014 241.685 264.632 240.785ZM284.647 241.18C284.659 240.582 285.156 240.06 285.442 240.346C285.824 240.727 285.732 241.045 285.163 241.304C284.715 241.508 284.641 241.49 284.647 241.18ZM286.659 241.234C286.217 240.911 286.325 240.606 286.937 240.446C287.302 240.351 287.34 240.411 287.225 240.891C287.152 241.196 287.081 241.462 287.068 241.481C287.057 241.5 286.872 241.389 286.659 241.234ZM285.597 239.896C285.25 239.513 285.253 239.484 285.655 239.269C286.261 238.945 286.618 238.989 287.024 239.437C287.365 239.813 287.351 239.841 286.712 240.064C286.344 240.192 286.024 240.297 286.001 240.297C285.978 240.297 285.797 240.116 285.597 239.896ZM287.099 238.961C286.618 238.597 286.635 238.416 287.151 238.416C287.43 238.416 287.569 238.556 287.569 238.834C287.569 239.323 287.573 239.321 287.099 238.961ZM286.19 237.918C286.122 237.743 286.129 237.502 286.201 237.381C286.412 237.042 287.089 237.123 287.236 237.506C287.39 237.908 287.394 237.903 286.782 238.091C286.454 238.192 286.273 238.139 286.188 237.918H286.19ZM286.664 235.354C286.502 235.191 286.72 233.007 286.941 232.591C287.032 232.418 287.197 232.852 287.352 233.674C287.494 234.428 287.549 235.145 287.473 235.268C287.319 235.517 286.875 235.564 286.664 235.354ZM232.892 233.509C232.818 233.316 232.757 233.072 232.757 232.966C232.757 232.855 234.965 232.778 238.04 232.783C243.094 232.791 243.295 232.806 242.695 233.141C242.175 233.431 241.399 233.495 238.197 233.513C236.068 233.525 234.034 233.608 233.677 233.697C233.163 233.825 232.998 233.786 232.892 233.509ZM231.398 230.7C231.398 229.559 231.459 228.736 231.535 228.871C231.61 229.007 231.657 229.889 231.639 230.833C231.608 232.512 231.616 232.55 232.13 232.63C232.593 232.702 232.581 232.715 232.025 232.743L231.398 232.774V230.7ZM232.13 231.827C232.13 231.362 232.181 231.324 232.548 231.521C232.928 231.724 233.803 231.505 233.803 231.207C233.803 230.909 232.928 230.691 232.548 230.894C232.181 231.09 232.13 231.053 232.13 230.588V230.058H240.428C244.992 230.058 248.674 230.006 248.61 229.941C248.546 229.877 248.668 229.248 248.882 228.542C249.284 227.217 249.24 226.757 248.774 227.394C248.627 227.595 248.352 227.759 248.163 227.759C247.975 227.759 247.82 227.878 247.82 228.023C247.82 228.167 247.632 228.403 247.402 228.547C246.895 228.863 246.855 229.187 247.327 229.147C247.516 229.131 247.712 229.235 247.763 229.379C247.834 229.581 247.113 229.64 244.595 229.64C242.334 229.64 241.335 229.569 241.335 229.407C241.335 229.276 241.519 229.222 241.753 229.283C242.025 229.354 242.172 229.289 242.172 229.098C242.172 228.769 241.441 227.968 241.14 227.968C241.032 227.968 240.888 227.789 240.818 227.57C240.616 226.935 240.118 226.881 239.742 227.453C239.556 227.736 239.273 227.968 239.114 227.968C238.955 227.968 238.824 228.099 238.824 228.259C238.824 228.42 238.683 228.605 238.511 228.671C238.338 228.737 238.197 228.937 238.197 229.115C238.197 229.356 238.331 229.406 238.72 229.308C239.042 229.227 239.243 229.266 239.243 229.408C239.243 229.568 238.201 229.64 235.878 229.64C233.275 229.64 232.535 229.581 232.609 229.379C232.662 229.235 232.811 229.141 232.941 229.17C233.07 229.199 233.173 229.152 233.169 229.065C233.161 228.849 232.185 227.759 231.999 227.759C231.917 227.759 231.665 227.595 231.441 227.394C231.042 227.037 231.034 227.046 231.16 227.759C231.277 228.426 231.258 228.41 230.95 227.577C230.765 227.074 230.437 226.486 230.221 226.271C230.005 226.055 229.829 225.676 229.829 225.428C229.829 224.937 229.139 223.919 227.976 222.692C227.191 221.864 227.38 221.671 228.438 222.222C228.767 222.393 229.111 222.486 229.204 222.429C229.577 222.199 230.006 222.589 229.97 223.127C229.947 223.5 230.037 223.685 230.247 223.685C230.448 223.685 230.543 223.515 230.511 223.215C230.453 222.672 231.083 222.554 231.482 223.033C231.613 223.191 231.999 223.376 232.338 223.444C232.768 223.53 232.995 223.725 233.086 224.085C233.157 224.37 233.442 224.751 233.719 224.932C234.065 225.159 234.222 225.457 234.222 225.888C234.222 226.509 234.214 226.512 233.701 226.174C232.639 225.479 232.116 226.527 232.978 227.622C233.584 228.392 234.836 228.69 236.142 228.377C238.016 227.928 238.953 226.647 238.023 225.807C237.462 225.299 236.794 225.381 236.383 226.008L236.024 226.556L235.646 226.09C235.186 225.522 235.162 224.973 235.582 224.625C235.76 224.477 235.896 224.022 235.896 223.569C235.896 222.993 235.997 222.74 236.263 222.656C236.466 222.592 236.725 222.327 236.839 222.068C237.112 221.448 237.692 221.349 237.836 221.899C237.956 222.356 238.498 222.476 238.732 222.098C238.81 221.972 238.748 221.637 238.597 221.353C238.364 220.917 238.368 220.807 238.625 220.645C238.792 220.539 239.023 220.483 239.138 220.52C239.253 220.556 239.46 220.32 239.599 219.994C239.944 219.18 240.665 219.193 240.976 220.018C241.135 220.437 241.375 220.655 241.727 220.697C242.39 220.777 242.533 221.193 241.949 221.346C241.452 221.475 241.485 221.865 242.021 222.202C242.289 222.371 242.436 222.331 242.659 222.027C243.001 221.56 243.624 221.713 243.778 222.302C243.835 222.517 244.119 222.802 244.411 222.935C244.856 223.138 244.921 223.275 244.816 223.797C244.748 224.139 244.793 224.641 244.918 224.913C245.081 225.27 245.078 225.529 244.91 225.844L244.676 226.28L243.918 225.766C242.739 224.967 241.962 225.176 241.962 226.292C241.962 227.032 242.51 227.747 243.343 228.095C244.144 228.429 246.616 228.485 247.184 228.182C247.518 228.003 248.029 226.975 248.029 226.482C248.029 226.118 247.203 225.858 246.774 226.088C246.409 226.283 246.356 226.247 246.356 225.797C246.356 225.514 246.568 225.111 246.827 224.901C247.087 224.692 247.466 224.262 247.669 223.946C247.901 223.586 248.223 223.371 248.533 223.371C248.859 223.371 249.066 223.222 249.142 222.931C249.299 222.331 249.792 222.541 249.875 223.243C249.972 224.063 250.644 223.897 250.644 223.053C250.644 222.53 250.727 222.43 251.167 222.427C251.455 222.427 251.896 222.308 252.147 222.166C253.102 221.628 253.036 221.957 251.899 223.409C251.253 224.234 250.67 225.178 250.604 225.506C250.538 225.834 250.303 226.229 250.082 226.384C249.659 226.68 248.87 228.943 248.868 229.869C248.864 230.69 248.232 231.106 245.992 231.757C243.963 232.347 243.912 232.351 238.04 232.354L232.13 232.358V231.827ZM236.835 231.444C237.212 231.168 237.209 231.149 236.751 230.904C236.377 230.704 236.142 230.705 235.647 230.91L235.018 231.17L235.509 231.443C236.141 231.793 236.356 231.793 236.835 231.443V231.444ZM238.349 231.603C238.28 231.534 238.1 231.527 237.948 231.587C237.782 231.654 237.831 231.703 238.075 231.713C238.295 231.722 238.419 231.673 238.349 231.603ZM241.205 231.316C241.497 231.025 240.332 230.642 239.627 230.797C238.836 230.97 238.692 231.271 239.282 231.517C239.814 231.739 240.895 231.626 241.205 231.316ZM242.534 231.603C242.464 231.534 242.284 231.527 242.132 231.587C241.965 231.654 242.015 231.703 242.259 231.713C242.479 231.722 242.603 231.673 242.534 231.603ZM244.976 231.307C245.086 231.199 244.935 231.018 244.609 230.87C244.173 230.672 243.932 230.673 243.481 230.878C242.921 231.133 242.917 231.146 243.325 231.444C243.741 231.748 244.596 231.677 244.976 231.307ZM234.641 230.685C234.641 230.57 234.546 230.476 234.431 230.476C234.316 230.476 234.222 230.57 234.222 230.685C234.222 230.8 234.316 230.894 234.431 230.894C234.546 230.894 234.641 230.8 234.641 230.685ZM238.406 230.685C238.406 230.57 238.218 230.476 237.987 230.476C237.757 230.476 237.569 230.57 237.569 230.685C237.569 230.8 237.757 230.894 237.987 230.894C238.218 230.894 238.406 230.8 238.406 230.685ZM242.59 230.685C242.59 230.57 242.396 230.476 242.159 230.476C241.922 230.476 241.787 230.57 241.858 230.685C241.929 230.8 242.123 230.894 242.289 230.894C242.454 230.894 242.59 230.8 242.59 230.685ZM246.042 230.685C245.971 230.57 245.824 230.476 245.716 230.476C245.607 230.476 245.519 230.57 245.519 230.685C245.519 230.8 245.666 230.894 245.845 230.894C246.024 230.894 246.113 230.8 246.042 230.685ZM232.277 225.008C232.745 224.62 232.523 223.903 231.912 223.832C231.48 223.782 231.312 223.912 231.023 224.518C230.826 224.929 230.666 225.322 230.666 225.39C230.666 225.582 231.951 225.278 232.277 225.008ZM249.643 224.799C249.166 223.63 248.029 223.417 248.029 224.497C248.029 225.008 248.664 225.405 249.547 225.444C249.877 225.459 249.886 225.394 249.643 224.799ZM241.218 224.371C241.681 223.711 241.622 223.013 241.055 222.447C240.606 221.998 240.59 221.912 240.86 221.398C241.2 220.749 240.933 220.238 240.257 220.238C239.738 220.238 239.538 220.783 239.801 221.478C239.978 221.947 239.937 222.085 239.522 222.397C238.573 223.112 239.115 224.835 240.289 224.835C240.676 224.835 241.01 224.668 241.218 224.371ZM239.871 223.512C239.871 223.244 239.927 222.968 239.996 222.899C240.256 222.639 240.707 223.019 240.707 223.499C240.707 223.86 240.591 223.999 240.289 223.999C239.99 223.999 239.871 223.86 239.871 223.512ZM238.354 224.494C238.983 224.326 238.947 224.115 238.197 223.581C237.435 223.04 236.732 223.18 236.732 223.874C236.732 224.134 236.795 224.41 236.872 224.487C237.044 224.659 237.727 224.662 238.354 224.494ZM243.741 224.022C243.741 223.232 243.138 222.986 242.454 223.495C241.438 224.253 241.673 224.629 243.113 224.554C243.626 224.528 243.741 224.431 243.741 224.022Z" fill="currentcolor"/>

</svg>
