<svg  viewBox="0 0 1180 580" fill="currentcolor" xmlns="http://www.w3.org/2000/svg">
<path d="M299.319 327.168C299.177 327.14 299.005 327.051 298.938 326.969C298.87 326.888 298.307 324.493 297.687 321.648C297.067 318.803 296.507 316.376 296.443 316.256C296.378 316.135 296.134 316.001 295.901 315.957C295.486 315.879 295.477 315.866 295.513 315.381L295.549 314.885L296.954 314.851C298.5 314.815 298.688 314.878 298.688 315.438C298.688 315.723 298.614 315.816 298.268 315.96C298.038 316.056 297.824 316.2 297.793 316.279C297.763 316.358 297.859 316.9 298.006 317.482C298.268 318.518 298.283 318.544 298.688 318.648C299.251 318.794 300.682 318.683 300.887 318.478C301.08 318.286 301.46 316.417 301.344 316.231C301.301 316.161 301.082 316.027 300.859 315.933C300.486 315.778 300.455 315.726 300.488 315.324L300.524 314.885H302.181C303.693 314.885 303.842 314.904 303.88 315.101C303.967 315.55 303.792 315.891 303.476 315.891C302.998 315.891 302.734 316.097 302.601 316.573C302.532 316.816 302.099 319.145 301.638 321.748C301.177 324.351 300.721 326.603 300.626 326.753C300.456 327.02 299.992 327.266 299.717 327.234C299.64 327.225 299.461 327.195 299.319 327.168ZM300.288 322.618C300.783 319.917 300.723 319.71 299.491 319.839C299.088 319.881 298.715 319.958 298.663 320.01C298.509 320.164 299.253 323.619 299.655 324.622L299.784 324.943L299.888 324.588C299.946 324.393 300.125 323.506 300.288 322.618ZM296.225 312.561C295.645 312.19 295.371 311.56 295.371 310.597C295.371 309.923 295.437 309.655 295.771 308.965C296.26 307.955 297.361 306.403 298.363 305.309C298.973 304.644 299.15 304.513 299.316 304.605C299.591 304.759 301.327 306.793 301.906 307.64C302.73 308.845 303.071 309.699 303.071 310.558C303.072 311.547 302.765 312.204 302.137 312.556C301.319 313.015 300.483 312.868 299.726 312.133L299.283 311.703L298.956 312.01C298.063 312.848 297.007 313.061 296.225 312.561ZM264.962 281.428C259.992 275.873 257.232 271.802 256.399 268.796C256.113 267.765 256.056 265.902 256.278 264.812C256.592 263.263 257.66 261.819 258.973 261.165C261.283 260.015 264.213 260.989 265.748 263.416C266.014 263.837 266.28 264.182 266.339 264.182C266.398 264.182 266.693 263.812 266.993 263.361C267.842 262.085 269.044 261.205 270.402 260.864C270.729 260.782 271.546 260.704 272.259 260.726C273.224 260.756 273.494 260.855 274.189 261.197C275.517 261.85 276.216 262.866 276.586 264.679C277.209 267.739 276.236 270.636 273.074 275.13C271.011 278.061 266.932 282.875 266.51 282.876C266.338 282.876 265.851 282.422 264.962 281.428ZM232.634 237.647C231.389 236.161 230.37 234.589 230.139 233.795C229.743 232.434 230.134 231.131 231.048 230.766C231.926 230.415 232.514 230.538 233.284 231.233L233.761 231.663L234.272 231.245C234.892 230.738 235.29 230.577 235.924 230.577C236.511 230.577 237.063 230.898 237.381 231.426C237.568 231.735 237.617 232.02 237.611 232.766C237.606 233.612 237.56 233.8 237.179 234.544C236.728 235.424 235.663 236.927 234.686 238.061C233.868 239.01 233.758 238.988 232.634 237.647ZM229.467 228.963C229.325 228.821 229.377 228.086 229.533 228.039C229.614 228.014 229.827 227.961 230.005 227.922C230.183 227.883 230.406 227.732 230.499 227.587C230.635 227.375 231.566 222.479 232.236 218.448C232.515 216.771 232.544 216.732 233.535 216.732C234.079 216.732 234.258 216.778 234.344 216.939C234.405 217.053 234.941 219.46 235.536 222.287C236.213 225.505 236.687 227.506 236.804 227.635C236.907 227.749 237.146 227.875 237.334 227.917C237.626 227.981 237.677 228.049 237.677 228.373C237.677 228.977 237.53 229.038 236.078 229.038C234.65 229.038 234.479 228.973 234.479 228.425C234.479 228.159 234.56 228.061 234.895 227.921C235.124 227.825 235.339 227.675 235.373 227.587C235.48 227.307 234.987 225.451 234.762 225.287C234.63 225.19 234.186 225.133 233.568 225.133C232.308 225.133 232.197 225.233 231.994 226.533C231.912 227.061 231.873 227.567 231.908 227.657C231.942 227.748 232.138 227.855 232.343 227.896C232.699 227.967 232.714 227.993 232.679 228.475L232.643 228.979L231.096 229.012C230.245 229.03 229.512 229.008 229.467 228.963ZM234.441 223.802C234.579 223.665 234.565 223.44 234.356 222.345C234.128 221.149 233.95 220.372 233.628 219.158C233.509 218.71 233.497 218.7 233.396 218.968C233.241 219.38 232.584 222.995 232.584 223.441C232.584 223.675 232.663 223.869 232.791 223.948C233.061 224.115 234.232 224.011 234.441 223.802Z" fill="currentcolor"/>
<path d="M230.985 209.766C228.338 209.766 226.198 211.903 226.198 214.547V329.453C226.198 332.097 228.338 334.234 230.985 334.234H302.213C304.86 334.234 307 332.097 307 329.453V214.547C307 211.903 304.86 209.766 302.213 209.766H230.985ZM230.985 210.383H302.213C304.528 210.383 306.382 212.235 306.382 214.547V329.453C306.382 331.765 304.528 333.617 302.213 333.617H230.985C228.67 333.617 226.816 331.765 226.816 329.453V214.547C226.816 212.235 228.67 210.383 230.985 210.383Z" fill="currentcolor"/>

</svg>
