<svg viewBox="0 0 1180 580" fill="currentcolor" xmlns="http://www.w3.org/2000/svg">
<path d="M253.261 337.118C251.463 336.969 250.884 336.777 248.47 335.53C244.897 333.684 244.096 333.436 241.174 333.271C240.215 333.217 239.483 333.127 239.409 333.053C239.314 332.958 239.314 332.768 239.409 332.291C239.502 331.83 239.509 331.161 239.433 329.86C239.305 327.673 238.997 326.193 237.771 321.871C236.819 318.518 236.241 316.276 235.948 314.804C235.561 312.85 235.011 311.803 233.154 309.479C232.537 308.709 231.613 307.441 231.099 306.662C230.585 305.883 229.46 304.425 228.6 303.422C227.01 301.57 226.195 300.477 226.314 300.358C226.516 300.156 228.126 301.618 232.244 305.74C235.473 308.972 237.75 311.139 239.917 313.04C244.335 316.917 244.723 317.237 244.912 317.164C245.189 317.058 245.098 316.672 244.708 316.305C244.415 316.03 244.362 315.92 244.453 315.776C244.534 315.648 244.528 315.507 244.431 315.296C244.306 315.021 244.255 315.002 243.801 315.053C243.53 315.083 243.308 315.077 243.308 315.039C243.308 315.001 243.408 314.821 243.529 314.638C243.787 314.248 243.811 313.805 243.595 313.388C243.509 313.223 242.887 312.272 242.212 311.275C241.538 310.278 240.883 309.188 240.758 308.853C240.521 308.223 239.146 306.026 238.78 305.696C238.518 305.459 238.436 305.576 238.343 306.322C238.265 306.951 238.02 307.207 237.693 307.002C237.096 306.628 237.34 305.593 238.056 305.459C238.535 305.369 238.62 305.207 238.408 304.786C238.32 304.613 238.219 304.208 238.183 303.885C238.124 303.37 238.14 303.302 238.306 303.333C238.41 303.353 238.512 303.493 238.533 303.644C238.554 303.796 238.622 303.982 238.685 304.058C238.84 304.247 239.103 304.232 239.103 304.034C239.103 303.765 238.446 303.099 237.278 302.184C235.567 300.845 235.231 300.547 235.231 300.369C235.231 300.278 235.086 299.896 234.909 299.52C234.515 298.685 234.409 298.339 234.546 298.339C234.604 298.339 234.711 298.484 234.784 298.661C234.858 298.837 235.175 299.253 235.489 299.585C235.804 299.916 236.12 300.281 236.193 300.396C236.315 300.589 236.325 300.584 236.331 300.322C236.34 299.932 235.714 298.93 234.759 297.807C233.969 296.877 232.714 295.733 232.605 295.842C232.574 295.873 232.654 296.078 232.783 296.296C233.193 296.989 233.073 296.97 232.015 296.175C231.563 295.835 230.795 295.357 230.308 295.112C229.148 294.529 229.131 294.514 229.278 294.194C229.377 293.976 229.339 293.831 229.044 293.309C228.85 292.965 228.643 292.558 228.585 292.405C228.481 292.132 228.488 292.127 228.868 292.199C229.337 292.287 229.372 292.146 228.977 291.751C228.538 291.313 228.293 291.402 225.218 293.122C223.927 293.844 223.283 294.066 223.283 293.79C223.283 293.358 224.623 292.483 225.284 292.483C225.396 292.483 225.541 292.383 225.606 292.262C225.688 292.108 225.838 292.041 226.094 292.041C226.613 292.041 227.206 291.811 228.099 291.263C229.181 290.6 229.917 290.275 230.336 290.274C230.533 290.274 230.695 290.225 230.695 290.167C230.695 290.109 230.898 290.133 231.148 290.221C231.928 290.496 232.323 290.064 232.119 289.158C231.983 288.552 231.756 288.187 230.739 286.936C230.102 286.153 229.938 285.878 229.987 285.682C230.056 285.407 229.987 285.369 229.17 285.242C228.822 285.188 228.624 285.216 228.422 285.348C228.213 285.485 228.096 285.5 227.928 285.41C227.593 285.231 227.662 285.114 228.151 285.036C228.402 284.996 228.593 284.904 228.593 284.823C228.593 284.745 228.436 284.467 228.243 284.205C227.918 283.763 227.866 283.735 227.497 283.797C226.487 283.965 226.315 283.975 226.166 283.876C225.959 283.738 226.162 283.472 226.551 283.375C227.129 283.23 226.646 282.932 226.032 283.055C225.723 283.116 225.717 283.107 225.717 282.631C225.717 282.078 225.474 281.653 225.157 281.653C224.982 281.653 224.943 281.73 224.945 282.068C224.945 282.296 225.047 282.703 225.17 282.972C225.378 283.431 225.379 283.451 225.186 283.276C225.073 283.174 224.959 283.09 224.933 283.09C224.908 283.09 224.892 283.401 224.898 283.781C224.904 284.16 224.861 284.533 224.801 284.609C224.72 284.714 224.783 284.747 225.061 284.747C225.347 284.747 225.399 284.777 225.296 284.88C225.223 284.953 225.163 285.15 225.163 285.319C225.163 285.545 225.12 285.608 224.997 285.561C224.76 285.47 224.792 285.672 225.053 285.908C225.289 286.121 225.345 286.458 225.163 286.571C224.981 286.683 225.038 287.02 225.274 287.234C225.58 287.511 225.55 287.714 225.191 287.798C225.024 287.837 224.687 288.058 224.444 288.288C223.776 288.921 222.508 289.141 222.322 288.657C222.281 288.551 222.219 288.534 222.132 288.606C222.061 288.665 221.865 288.765 221.697 288.829C221.433 288.929 221.353 288.908 221.119 288.675C220.9 288.455 220.849 288.293 220.849 287.819C220.849 287.054 221.345 284.49 221.501 284.438C221.568 284.416 221.623 284.252 221.623 284.075C221.623 283.898 221.673 283.753 221.734 283.753C221.794 283.753 221.844 283.678 221.844 283.587C221.844 283.496 221.931 283.325 222.038 283.208C222.526 282.671 222.563 282.59 222.526 282.125C222.492 281.707 222.515 281.653 222.721 281.653C222.932 281.653 222.947 281.61 222.883 281.184L222.812 280.714L223.077 281.098C223.448 281.634 223.847 281.841 224.243 281.703C224.497 281.614 224.561 281.519 224.588 281.192C224.615 280.879 224.47 280.487 223.938 279.426C223.068 277.689 222.347 276.438 222.074 276.192C221.681 275.836 221.072 275.849 219.924 276.239C218.658 276.669 218.399 276.637 218.082 276.016C217.958 275.774 217.803 275.576 217.737 275.576C217.671 275.576 217.467 275.702 217.284 275.855C216.941 276.143 216.637 276.144 216.333 275.855C216.214 275.743 216.239 275.657 216.472 275.382C216.87 274.908 216.842 274.758 216.368 274.835C216.037 274.888 215.981 274.866 215.981 274.683C215.981 274.566 215.934 274.469 215.878 274.469C215.68 274.469 215.637 274.91 215.753 275.745C215.817 276.207 215.87 276.681 215.87 276.798C215.87 277.193 215.678 277.014 215.536 276.486C215.327 275.71 215.178 275.632 215.274 276.348C215.318 276.682 215.359 277.577 215.363 278.337C215.374 279.992 215.244 280.436 214.75 280.436C214.575 280.436 214.432 280.449 214.433 280.464C214.433 280.479 214.504 280.721 214.589 281.001C214.721 281.435 214.721 281.64 214.593 282.381C214.451 283.199 214.455 283.274 214.658 283.618C214.937 284.09 214.936 284.09 214.533 284.009L214.192 283.941L214.27 284.979C214.343 285.964 214.437 286.323 215.008 287.813C215.226 288.383 215.252 288.668 215.264 290.603C215.279 292.929 215.343 293.315 215.892 294.402C216.234 295.079 217.235 296.238 217.478 296.238C217.836 296.238 217.742 295.462 217.142 293.48C216.604 291.699 216.426 290.161 216.759 290.161C216.947 290.161 217.419 290.861 218.01 292.013C218.899 293.75 219.344 294.917 219.978 297.172C220.286 298.269 220.881 300.22 221.3 301.508C222.431 304.984 222.459 305.189 221.79 305.189C221.24 305.189 220.197 304.436 218.738 302.984C217.276 301.529 216.092 299.989 214.341 297.269C213.67 296.226 212.811 294.983 212.432 294.507C211.412 293.225 211.259 292.705 211.611 291.708C211.702 291.449 211.777 291.17 211.777 291.086C211.777 290.617 210.664 291.288 210.084 292.106C209.89 292.381 209.32 293.336 208.818 294.229C208.055 295.586 207.905 295.932 207.905 296.344C207.905 296.829 207.926 296.857 209.274 298.167C210.027 298.899 210.804 299.738 211 300.031C211.528 300.821 212.034 301.986 212.495 303.476C212.967 305.003 213.63 306.348 214.455 307.454C215.219 308.478 219.846 313.092 222.329 315.305C223.417 316.275 224.738 317.565 225.264 318.173C226.008 319.031 226.381 319.365 226.937 319.666C227.331 319.879 227.902 320.217 228.206 320.416C228.51 320.615 228.872 320.807 229.009 320.842C229.306 320.917 229.765 320.645 229.863 320.336C229.945 320.077 230.076 320.033 231.043 319.936L231.779 319.862L232.08 320.376C232.246 320.659 232.436 320.872 232.502 320.85C232.602 320.816 233.012 319.681 233.017 319.425C233.017 319.384 232.867 319.317 232.681 319.277C232.236 319.179 232.325 318.946 232.807 318.946H233.185L233.24 319.573C233.271 319.918 233.329 320.233 233.369 320.273C233.409 320.313 233.555 320.192 233.693 320.005C234.013 319.573 234.102 319.577 234.146 320.024L234.181 320.383L234.425 319.927C234.722 319.371 235.01 319.215 235.01 319.61C235.01 319.784 235.118 319.949 235.314 320.074C235.481 320.18 235.653 320.317 235.696 320.378C235.796 320.521 235.676 321.446 235.534 321.626C235.367 321.838 235.054 321.79 234.878 321.525L234.72 321.287L234.076 321.581C233.67 321.767 233.085 321.915 232.492 321.982C231.065 322.144 230.699 322.5 230.923 323.51C231.067 324.161 231.394 324.659 232.351 325.691C232.766 326.138 233.289 326.805 233.513 327.173C233.736 327.541 233.991 327.842 234.078 327.842C234.164 327.842 234.235 327.936 234.235 328.051C234.235 328.166 234.306 328.287 234.393 328.32C234.479 328.354 234.567 328.496 234.586 328.636C234.617 328.853 234.68 328.887 234.996 328.862C235.395 328.83 235.384 328.784 235.163 329.499C235.123 329.629 235.146 329.72 235.218 329.72C235.286 329.72 235.342 329.817 235.342 329.935C235.342 330.053 235.387 330.177 235.442 330.211C235.645 330.336 235.784 329.539 235.786 328.24C235.79 326.701 235.886 326.387 236.153 327.055C236.595 328.158 237.333 331.421 237.333 332.271C237.333 332.675 237.317 332.696 237.029 332.649C236.862 332.621 236.177 332.518 235.508 332.42C233.96 332.192 231.914 331.678 231.258 331.353C230.751 331.102 230.748 331.096 229.146 327.887C228.264 326.119 227.304 324.32 227.012 323.888C226.495 323.121 225.926 322.538 225.696 322.538C225.391 322.538 225.976 324.174 227.298 327.013C228.063 328.658 228.459 329.663 228.638 330.417C228.71 330.723 228.706 330.725 228.292 330.652C227.618 330.532 226.706 330.187 226.222 329.869C224.868 328.978 224.005 328.001 221.843 324.913C219.511 321.581 218.823 320.837 216.977 319.646C215.935 318.974 215.824 318.866 215.715 318.412C215.62 318.013 215.175 317.565 214.874 317.565C214.747 317.565 214.524 317.694 214.378 317.85L214.113 318.136L212.923 317.657C212.158 317.349 211.604 317.049 211.37 316.817C211.167 316.616 210.392 316.166 209.623 315.803C207.981 315.028 206.937 314.362 204.606 312.607C201.849 310.529 200.76 309.973 197.731 309.096C193.16 307.772 190.532 305.543 184.065 297.509C181.391 294.186 181.197 293.622 182.45 292.819C183.217 292.327 186.154 291.184 188.987 290.275C191.781 289.378 195.564 287.983 196.557 287.483C198.035 286.74 198.297 286.46 198.442 285.467C198.654 284.01 200.67 281.396 202.209 280.582C203.666 279.811 204.836 279.837 207.532 280.699C210.253 281.57 211.563 281.822 212.69 281.695C213.331 281.623 213.334 281.621 213.109 281.412C212.985 281.296 212.883 281.073 212.883 280.917C212.883 280.639 212.876 280.637 212.611 280.81C212.461 280.909 212.263 280.989 212.171 280.989C211.934 280.989 211.708 280.482 211.628 279.768C211.573 279.277 211.603 279.075 211.779 278.747C211.899 278.522 211.998 278.224 211.998 278.086C211.998 277.699 212.266 277.399 212.964 277.006C213.927 276.464 214.274 276.166 214.67 275.538C214.868 275.224 215.268 274.703 215.557 274.382C216.244 273.619 216.288 273.341 215.943 271.914C215.623 270.585 215.468 269.231 215.371 266.9C215.276 264.602 214.548 257.993 214.196 256.236C214.031 255.408 213.874 255.131 212.887 253.916C211.696 252.45 211.304 251.824 210.745 250.49C210.087 248.918 209.668 248.116 209.131 247.404C208.598 246.696 208.533 246.34 208.956 246.444C209.108 246.481 209.357 246.543 209.509 246.58C209.734 246.636 209.786 246.608 209.786 246.428C209.786 246.307 209.705 246.141 209.606 246.059C209.222 245.741 209.725 243.414 210.396 242.401C210.731 241.895 211.207 241.555 211.321 241.739C211.378 241.832 211.634 241.81 212.28 241.656C216.473 240.658 218.987 240.648 221.125 241.619C221.768 241.911 222.147 242.017 222.508 242.005C224.082 241.954 226.001 241.72 227.676 241.375C230.225 240.85 231.486 240.739 233.331 240.879C237.338 241.183 238.69 241.564 240.581 242.922C241.149 243.329 241.689 243.426 241.799 243.14C241.835 243.048 241.987 242.926 242.137 242.869C242.691 242.659 243.065 241.613 242.712 241.261C242.504 241.053 242.472 240.656 242.664 240.656C242.736 240.656 242.907 240.76 243.043 240.888C243.344 241.171 243.529 241.083 243.529 240.656C243.529 240.27 243.67 240.163 243.969 240.323C244.165 240.427 244.192 240.409 244.192 240.174C244.192 240.027 244.102 239.795 243.991 239.659C243.817 239.443 243.757 239.428 243.537 239.546C243.228 239.711 242.952 239.53 243.175 239.307C243.278 239.204 243.234 239.107 242.976 238.871C242.726 238.643 242.644 238.471 242.644 238.176C242.644 237.756 242.753 237.681 242.975 237.948C243.169 238.181 243.555 238.154 243.779 237.893C243.996 237.64 244.262 237.618 244.872 237.8C245.107 237.871 245.336 237.892 245.38 237.848C245.425 237.804 245.471 237.338 245.483 236.812C245.507 235.813 245.624 235.572 246.086 235.572C246.192 235.572 246.385 235.437 246.516 235.27C246.794 234.918 246.749 234.431 246.408 234.09C246.212 233.895 246.147 233.889 245.609 234.017C244.391 234.308 243.997 233.98 244.571 233.154C244.926 232.642 244.926 232.536 244.571 232.021C244.264 231.579 244.29 231.373 244.655 231.373C244.779 231.373 244.977 231.252 245.094 231.104C245.211 230.955 245.409 230.801 245.535 230.761C245.725 230.701 245.752 230.628 245.696 230.328C245.648 230.075 245.678 229.926 245.796 229.828C245.889 229.752 245.964 229.62 245.964 229.537C245.964 229.453 246.029 229.384 246.107 229.384C246.186 229.384 246.298 229.225 246.356 229.03C246.429 228.787 246.648 228.549 247.056 228.267C247.728 227.805 248.064 227.363 248.065 226.942C248.065 226.724 248.181 226.581 248.536 226.355C248.795 226.191 249.156 225.854 249.338 225.606C249.521 225.359 249.831 225.088 250.026 225.005C250.448 224.826 250.432 224.74 249.818 223.854C249.584 223.517 249.394 223.109 249.394 222.946C249.394 222.728 249.305 222.604 249.062 222.478C248.689 222.285 248.673 222.21 248.881 221.613C248.962 221.381 249.005 221.071 248.977 220.924C248.913 220.589 248.18 219.748 247.686 219.444C247.48 219.317 247.216 219.018 247.098 218.78L246.883 218.346L247.209 218.412C247.427 218.455 247.568 218.425 247.633 218.323C247.714 218.195 247.809 218.213 248.185 218.426C249.037 218.909 248.908 218.399 248.043 217.867C247.092 217.283 247.698 217.388 248.784 217.995C249.774 218.55 250.03 218.62 249.688 218.243C249.463 217.995 249.447 217.736 249.663 217.819C249.75 217.852 249.999 217.913 250.217 217.953C250.563 218.018 250.604 218.003 250.54 217.837C250.477 217.672 250.499 217.663 250.698 217.769C251.063 217.964 251.176 217.921 251.099 217.616C251.016 217.286 251.067 217.28 251.964 217.512C252.33 217.607 252.711 217.653 252.81 217.614C252.964 217.554 252.953 217.514 252.728 217.331C252.417 217.077 252.407 217.079 253.09 217.286C253.759 217.488 253.93 217.492 253.93 217.304C253.93 217.04 253.446 216.697 252.689 216.423C251.737 216.079 251.423 215.868 251.138 215.386C250.911 215.002 250.906 215 250.777 215.24L250.646 215.485L250.238 215.127C249.857 214.793 249.817 214.781 249.631 214.949C249.362 215.193 249.194 215.178 248.468 214.846C247.837 214.557 247.583 214.562 247.697 214.86C247.749 214.995 247.653 214.983 247.185 214.799C246.386 214.485 246.506 214.756 247.355 215.185C247.717 215.368 248.011 215.59 248.011 215.682C248.011 215.916 247.485 215.951 247.082 215.743C246.665 215.527 245.299 215.204 245.205 215.299C245.137 215.367 245.381 215.595 245.813 215.868C246.066 216.027 245.404 215.881 244.668 215.614C244.412 215.522 244.063 215.461 243.894 215.481C243.591 215.516 243.595 215.522 244.084 215.819C244.357 215.985 244.499 216.122 244.397 216.123C244.296 216.123 243.841 215.875 243.386 215.571C242.622 215.061 242.092 214.876 242.092 215.119C242.092 215.174 242.316 215.361 242.59 215.534C243.313 215.99 243.245 216.123 242.286 216.127C241.308 216.13 240.682 216.264 240.502 216.51C240.376 216.682 240.34 216.681 239.959 216.5C239.454 216.259 239.367 216.331 239.606 216.792C239.791 217.15 239.791 217.15 239.531 217.076C238.536 216.794 238.424 216.89 239.105 217.437C239.415 217.685 239.548 217.877 239.548 218.077C239.548 218.355 239.534 218.361 238.995 218.289C238.536 218.228 238.441 218.245 238.441 218.387C238.441 218.533 238.371 218.524 237.984 218.326C237.717 218.19 237.409 218.115 237.244 218.147C237.058 218.182 236.723 218.073 236.255 217.825C235.798 217.583 235.402 217.453 235.141 217.459C234.744 217.467 234.75 217.472 235.371 217.689C235.721 217.811 236.007 217.956 236.007 218.012C236.007 218.149 235.954 218.143 235.1 217.925C234.28 217.715 234.094 217.77 234.413 218.127L234.625 218.363L234.001 218.313C233.387 218.263 233.369 218.27 232.838 218.768C232.541 219.046 232.219 219.397 232.121 219.549C231.964 219.793 231.839 219.834 231.071 219.898C230.591 219.938 230.061 220.006 229.891 220.05C229.669 220.107 229.523 220.075 229.37 219.936C229.088 219.682 228.893 219.773 228.495 220.345C227.837 221.293 227.667 221.447 226.263 222.369C224.529 223.507 223.429 224.46 222.057 226.013C220.563 227.704 219.484 229.181 218.911 230.323C218.5 231.14 218.285 231.831 217.703 234.193C216.728 238.15 216.084 240.103 215.754 240.103C215.607 240.103 215.685 239.674 216.208 237.616C216.742 235.515 217.546 232.862 218.043 231.556C219.038 228.943 221.331 225.701 224.078 223.025C225.408 221.73 225.766 221.255 226.747 219.494C227.524 218.098 229.129 215.833 229.923 215.013C230.414 214.506 230.691 214.325 231.361 214.075C232.127 213.788 233.657 213.186 234.373 212.888C234.609 212.789 234.872 212.803 235.59 212.951C236.445 213.127 236.6 213.127 237.944 212.959C238.735 212.86 240.079 212.774 240.931 212.768C242.378 212.758 242.523 212.776 243.148 213.051C244.045 213.445 245.119 213.709 247.981 214.237C251.031 214.801 251.516 214.914 253.238 215.472C256.975 216.683 260.283 218.331 262.571 220.123C263.885 221.152 266.511 223.703 267.421 224.835C267.844 225.362 268.426 226.215 268.714 226.732C269.003 227.249 269.421 227.945 269.645 228.279C270.228 229.151 270.434 229.587 271.135 231.437C272.089 233.955 272.39 234.87 272.563 235.784C272.774 236.903 273.006 242.822 272.923 244.965C272.801 248.071 272.405 249.857 270.796 254.549C270.218 256.237 269.496 258.452 269.192 259.472C268.888 260.492 268.389 261.953 268.083 262.72C267.777 263.486 267.425 264.566 267.3 265.119C267.161 265.734 266.901 266.449 266.632 266.955C266.068 268.017 265.897 268.213 265.687 268.039C265.508 267.89 265.419 267.981 265.15 268.585C265.014 268.891 265.012 268.997 265.141 269.305C265.434 270.005 265.941 270.311 267.437 270.693C270.738 271.536 272.886 272.38 276.056 274.077C276.999 274.582 278.578 275.398 279.564 275.891C282.519 277.366 283.173 277.818 285.571 280.049C286.271 280.699 287.491 281.735 288.282 282.35C290.009 283.694 290.634 284.323 291.075 285.163C291.727 286.403 291.812 287.718 291.33 289.1C291.205 289.459 291.103 289.89 291.103 290.057C291.103 290.745 292.239 291.229 295.085 291.753C300.583 292.763 302.221 293.177 304.403 294.105C305.056 294.382 305.786 294.777 306.025 294.982C306.906 295.735 307.19 296.892 306.875 298.443C306.44 300.591 305.34 302.7 301.216 309.296C300.43 310.552 299.464 312.114 299.068 312.767C298.086 314.389 296.96 315.5 294.598 317.178C293.571 317.907 292.39 318.79 291.973 319.139C291.556 319.489 291.143 319.775 291.054 319.775C290.843 319.775 290.342 319.113 290.154 318.587C290.061 318.327 290.001 317.616 289.993 316.681C289.986 315.86 289.943 315.091 289.896 314.972C289.815 314.766 289.802 314.769 289.629 315.033C289.163 315.743 288.987 316.586 288.882 318.614C288.657 322.975 288.558 323.426 287.229 326.129C286.016 328.594 284.822 330.014 283.237 330.876C282.282 331.395 282.159 331.082 282.75 329.631C282.899 329.264 283.055 328.749 283.096 328.486C283.214 327.74 283.969 325.83 284.693 324.45C285.339 323.216 285.517 322.537 285.195 322.537C285.013 322.537 284.467 323.359 284.13 324.14C283.999 324.443 283.516 325.662 283.058 326.847C282.088 329.35 281.373 330.928 280.966 331.461C280.264 332.38 278.129 332.801 273.733 332.888C271.282 332.937 270.403 332.908 268.367 332.714C267.028 332.587 265.26 332.482 264.437 332.482H262.942L262.233 330.32C261.745 328.83 261.244 327.584 260.623 326.312C259.991 325.021 259.59 324.02 259.287 322.977C258.898 321.641 258.855 321.374 258.873 320.382C258.924 317.505 260.513 314.203 262.32 313.22C263.515 312.571 264.475 312.36 267.177 312.155C268.708 312.038 269.221 311.898 269.575 311.501C269.71 311.35 269.862 311.287 269.991 311.327C270.327 311.434 270.343 311.1 270.025 310.619C269.862 310.374 269.76 310.125 269.797 310.065C269.835 310.003 270.118 309.982 270.46 310.018L271.057 310.079L271.345 309.623C271.504 309.372 271.708 309.167 271.798 309.167C271.889 309.167 272.063 309.067 272.184 308.946C272.466 308.665 272.743 308.666 273.306 308.953C273.812 309.211 273.976 309.184 274.226 308.802C274.385 308.561 274.385 308.474 274.23 307.868C274.078 307.273 274.077 307.113 274.221 306.422C274.392 305.601 275.336 303.111 275.754 302.377C275.891 302.137 276.052 301.963 276.113 301.99C276.33 302.086 276.194 302.735 275.64 304.257C274.858 306.405 274.762 306.815 274.988 307.041C275.152 307.205 275.181 307.184 275.34 306.784C275.643 306.028 275.737 305.889 276.219 305.487C276.87 304.943 277.412 304.086 277.801 302.982C278.094 302.15 278.166 302.037 278.458 301.962C279.021 301.816 279.197 301.515 279.19 300.715C279.181 299.798 278.873 299.261 277.671 298.062C276.727 297.121 276.295 296.829 276.01 296.938C275.722 297.048 275.801 297.945 276.232 299.49C276.656 301.009 276.632 301.352 276.139 300.82C275.482 300.113 274.532 297.883 274.016 295.835C273.657 294.409 273.413 294.363 277.519 296.497C278.84 297.183 279.24 297.343 279.642 297.343C279.915 297.343 280.17 297.292 280.208 297.23C280.247 297.167 280.303 296.832 280.332 296.484C280.445 295.164 280.636 295.002 281.022 295.899C281.281 296.5 281.327 297.405 281.139 298.218C281.049 298.608 281.059 298.739 281.185 298.865C281.323 299.002 281.422 299 281.937 298.85C282.811 298.594 283.027 298.406 283.027 297.903C283.027 297.671 282.953 297.27 282.862 297.011C282.625 296.34 282.649 295.951 282.941 295.747C283.446 295.394 284.205 295.605 284.663 296.227C284.801 296.415 284.983 296.569 285.067 296.569C285.151 296.569 285.349 296.347 285.509 296.076C285.668 295.804 285.971 295.45 286.183 295.289C286.48 295.063 286.567 294.917 286.564 294.65C286.56 294.249 286.345 293.917 286.089 293.917C285.991 293.917 285.731 294.003 285.51 294.108C285.122 294.293 285.103 294.292 284.947 294.081C284.819 293.908 284.792 293.543 284.819 292.347C284.857 290.649 284.813 290.528 284.132 290.453C283.912 290.43 283.733 290.343 283.715 290.253C283.68 290.074 284.454 288.822 284.883 288.367C285.28 287.944 285.813 287.783 286.195 287.97C286.978 288.354 287.17 289.161 286.924 291.042C286.728 292.542 286.792 293.053 287.231 293.492C287.569 293.83 288.082 293.915 288.184 293.65C288.217 293.564 288.159 293.193 288.056 292.825C287.773 291.818 287.932 291.654 288.909 291.947C289.576 292.146 289.641 291.986 289.272 291.048C288.923 290.159 288.967 289.769 289.442 289.533C289.781 289.364 289.997 289.516 289.999 289.925C290.003 290.42 290.124 290.713 290.33 290.713C290.673 290.713 290.731 290.243 290.591 288.59L290.521 287.759L290.09 287.856C289.616 287.962 289.269 287.913 288.642 287.649C288.121 287.43 288.1 287.141 288.587 286.876L288.946 286.68L288.602 286.646C288.194 286.606 287.886 286.307 286.9 284.991C285.84 283.577 285.235 283.253 284.639 283.779C284.484 283.915 284.117 284.474 283.822 285.021L283.287 286.015L282.466 286.33C281 286.893 280.817 286.928 280.635 286.679C280.351 286.291 279.949 284.812 279.824 283.693C279.696 282.544 279.749 281.789 279.981 281.473C280.153 281.238 280.483 281.343 280.483 281.633C280.483 281.748 280.597 282.01 280.737 282.216C280.877 282.422 281.025 282.678 281.066 282.785C281.107 282.892 281.268 283.037 281.423 283.108C281.578 283.179 281.734 283.352 281.77 283.494C281.805 283.636 282.025 283.902 282.257 284.086C282.661 284.405 282.682 284.41 282.75 284.196C282.825 283.96 282.893 283.936 283.393 283.969C283.622 283.985 283.803 283.885 284.085 283.586C284.542 283.102 284.565 282.847 284.172 282.59C284.01 282.484 283.443 281.968 282.912 281.444C281.305 279.858 280.074 279.301 279.522 279.911C279.398 280.048 279.128 280.483 278.922 280.878C278.654 281.391 278.211 281.928 277.373 282.757C276.028 284.086 274.791 285.7 273.921 287.257C273.362 288.257 273.168 288.714 272.515 290.567C272.34 291.066 272.143 291.371 271.787 291.694C271.52 291.937 271.3 292.215 271.3 292.312C271.3 292.42 271.553 292.596 271.964 292.775C272.329 292.933 272.628 293.118 272.628 293.187C272.628 293.255 272.232 293.648 271.748 294.059C270.721 294.93 270.642 295.138 270.843 296.451C271.009 297.542 271.003 297.846 270.796 298.867C270.349 301.072 269.443 302.157 267.318 303.031C266.396 303.41 265.769 303.904 265.769 304.25C265.769 304.339 265.602 304.482 265.397 304.567C264.893 304.778 263.964 306.425 264.065 306.929C264.123 307.217 264.082 307.287 263.731 307.503C263.247 307.802 262.645 308.639 262.739 308.882C262.789 309.013 262.734 309.056 262.518 309.056C262.287 309.056 262.236 309.104 262.257 309.304C262.277 309.486 262.219 309.562 262.04 309.588C261.825 309.618 261.81 309.657 261.909 309.917C261.988 310.124 261.985 310.224 261.9 310.252C261.833 310.274 261.608 310.63 261.4 311.042C261.043 311.75 260.76 312.037 260.627 311.824C260.595 311.771 260.602 311.637 260.642 311.525C260.683 311.413 260.396 311.625 260.005 311.996C259.139 312.818 258.839 312.941 258.556 312.592C258.225 312.184 258.191 311.83 258.436 311.332C258.558 311.083 258.751 310.687 258.864 310.452C258.977 310.217 259.133 310.001 259.211 309.971C259.288 309.941 259.352 309.803 259.352 309.664C259.352 309.525 259.423 309.384 259.51 309.351C259.597 309.317 259.712 309.076 259.765 308.814C259.838 308.455 259.908 308.346 260.05 308.37C260.197 308.396 260.237 308.318 260.237 308.008C260.237 307.431 260.413 307.085 261.658 305.209C262.804 303.482 263.012 303.053 262.802 302.844C262.29 302.333 259.054 305.731 257.319 308.602C256.615 309.767 255.675 311.966 255.245 313.453C255.057 314.104 254.664 315.089 254.373 315.643C253.807 316.717 253.565 317.592 253.62 318.36C253.648 318.737 253.695 318.832 253.851 318.82C254.027 318.806 254.047 318.909 254.036 319.814C254.029 320.37 254.076 321.15 254.142 321.548C254.272 322.343 254.2 322.753 253.825 323.358C253.571 323.769 253.59 323.871 254.103 324.907C254.582 325.875 254.484 325.979 253.25 325.813C252.481 325.709 251.719 325.786 251.719 325.968C251.719 326.026 251.781 326.075 251.857 326.077C251.933 326.081 252.477 326.124 253.067 326.177C254.077 326.267 254.176 326.299 254.772 326.726C255.535 327.271 255.72 327.301 255.633 326.863C255.552 326.462 255.837 326.323 256.222 326.575C256.572 326.805 256.808 327.376 257.245 329.055C257.821 331.265 257.944 331.523 258.839 332.38C259.469 332.984 259.6 333.163 259.489 333.274C259.313 333.45 258.2 333.238 257.906 332.973C257.632 332.725 256.127 330.452 255.766 329.739C255.602 329.415 255.483 329.078 255.501 328.99C255.567 328.681 255.998 329.133 256.127 329.646C256.272 330.22 256.546 330.514 256.704 330.265C256.86 330.018 256.825 328.871 256.648 328.448C256.423 327.91 255.287 327.26 255.172 327.603C255.149 327.673 254.96 327.731 254.752 327.731C254.306 327.731 254.284 327.84 254.592 328.52C254.948 329.302 254.897 329.532 254.263 329.996C253.752 330.371 253.71 330.437 253.71 330.864C253.71 331.426 253.976 332.417 254.754 334.748C255.079 335.72 255.373 336.677 255.409 336.875L255.474 337.234L254.896 337.219C254.579 337.21 253.843 337.164 253.262 337.116L253.261 337.118ZM221.229 318.273C221.468 318.181 221.45 317.752 221.197 317.524C221.083 317.42 220.81 317.307 220.59 317.271C220.371 317.236 220.216 317.167 220.247 317.118C220.277 317.069 220.164 317.013 219.996 316.994C219.622 316.951 219.53 316.581 219.794 316.179C219.962 315.923 219.959 315.909 219.747 315.909C219.572 315.909 219.523 315.837 219.523 315.577C219.523 315.185 219.52 315.184 219.056 315.467C218.857 315.588 218.663 315.687 218.625 315.688C218.587 315.688 218.496 315.377 218.422 314.997C218.349 314.617 218.195 314.093 218.08 313.832C217.674 312.907 215.929 310.662 212.977 307.271C210.383 304.291 209.364 302.957 207.157 299.65C205.179 296.688 204.074 294.686 203.52 293.065C203.276 292.349 203.224 291.995 203.212 290.935C203.198 289.837 203.162 289.598 202.939 289.174C202.717 288.751 202.691 288.586 202.753 287.986C202.802 287.5 202.786 287.289 202.699 287.289C202.631 287.289 202.432 287.136 202.258 286.95L201.941 286.611L201.854 286.922C201.806 287.094 201.776 287.669 201.787 288.201C201.798 288.732 201.771 289.167 201.727 289.167C201.629 289.167 200.818 287.945 200.2 286.864C199.875 286.295 199.696 285.815 199.601 285.262C199.453 284.402 199.278 284.047 199.278 284.609C199.278 285.167 199.498 286.042 199.852 286.889C200.507 288.456 200.533 288.428 199.559 287.206C199.208 286.765 198.87 286.405 198.807 286.405C198.617 286.405 198.794 287.369 199.224 288.67C199.685 290.065 200.656 292.1 201.887 294.251C203.031 296.249 203.435 297.122 203.701 298.161C203.942 299.106 204.201 301.368 204.309 303.477C204.51 307.383 204.888 309.389 205.422 309.389C205.702 309.389 205.997 308.747 206.123 307.86C206.19 307.395 206.295 306.653 206.357 306.212C206.427 305.724 206.431 305.336 206.37 305.218C206.314 305.112 206.217 304.498 206.153 303.854C206.07 303.024 205.934 302.413 205.685 301.754C204.661 299.044 204.555 298.671 204.807 298.671C204.867 298.671 205.303 299.178 205.775 299.798C206.248 300.419 206.971 301.292 207.381 301.739C207.792 302.186 208.128 302.603 208.128 302.667C208.128 302.73 208.319 303.187 208.553 303.682C209.07 304.779 209.724 305.652 211.668 307.842C213.199 309.565 213.808 310.36 213.935 310.798C214.078 311.296 213.69 311.047 213.073 310.246C212.328 309.279 211.003 307.951 211.008 308.177C211.013 308.362 211.61 309.216 214.231 312.789C216.433 315.79 217.149 316.553 216.695 315.412C216.646 315.29 216.941 315.502 217.35 315.881C218.066 316.547 218.52 316.743 218.694 316.461C218.831 316.24 218.956 316.362 219.13 316.884C219.459 317.874 220.491 318.556 221.229 318.273ZM210.89 312.912C210.304 311.169 208.408 307.117 207.978 306.688C207.33 306.04 207.199 306.471 207.571 308.023C208.025 309.914 209.24 312.263 210.335 313.367C210.953 313.991 211.053 314.055 211.087 313.851C211.109 313.722 211.02 313.299 210.89 312.912ZM248.332 311.385C247.73 309.527 243.53 301.499 241.681 298.671C241.226 297.974 240.487 297.16 238.826 295.521C237.556 294.268 236.413 293.039 236.187 292.683C235.968 292.338 235.748 292.03 235.697 291.998C235.548 291.906 234.969 292.312 234.801 292.627C234.66 292.892 234.671 292.955 234.925 293.338C235.078 293.569 235.617 294.08 236.123 294.474C236.629 294.868 237.295 295.391 237.603 295.638C238.545 296.391 240.173 298.916 244.972 307.069C246.386 309.469 247.771 311.782 248.052 312.207C248.54 312.948 248.563 312.967 248.6 312.656C248.621 312.477 248.501 311.905 248.332 311.385ZM202.486 308.333C202.486 308.239 202.309 307.734 202.092 307.211C201.757 306.403 201.717 306.218 201.821 305.967C201.91 305.753 201.91 305.525 201.821 305.128C201.692 304.554 200.441 301.453 200.265 301.273C200.209 301.215 200.162 301.027 200.162 300.855C200.162 300.57 200.141 300.553 199.929 300.666C199.791 300.74 199.655 300.75 199.597 300.691C199.542 300.637 199.475 299.75 199.448 298.72C199.372 295.848 199.226 294.258 198.995 293.781C198.884 293.553 198.752 293.367 198.701 293.367C198.65 293.367 198.459 293.131 198.276 292.843C198.091 292.552 197.859 292.319 197.753 292.318C197.607 292.318 197.56 292.214 197.551 291.875C197.545 291.632 197.428 291.143 197.291 290.789C197.014 290.071 196.675 289.792 195.935 289.674C195.567 289.615 195.46 289.64 195.337 289.815C195.255 289.933 194.942 290.087 194.642 290.159C194.06 290.299 193.828 290.484 193.65 290.952C193.571 291.159 193.399 291.289 193.061 291.399C192.705 291.515 192.542 291.646 192.418 291.913C192.264 292.246 192.218 292.269 191.782 292.238C191.397 292.211 191.312 292.238 191.312 292.396C191.312 292.532 191.145 292.634 190.731 292.75C189.7 293.041 189.381 293.063 188.938 292.878C188.707 292.782 188.304 292.703 188.042 292.703C187.655 292.703 187.559 292.663 187.53 292.487C187.499 292.294 187.359 292.346 186.223 292.973C184.735 293.793 184.453 293.901 184.453 293.646C184.453 293.549 184.533 293.347 184.631 293.197C184.804 292.933 184.801 292.924 184.54 292.924C184.212 292.924 183.272 293.233 182.931 293.452C182.458 293.758 182.618 293.981 183.927 294.834C184.612 295.281 185.921 296.245 186.838 296.976C188.671 298.44 189.095 298.744 189.106 298.6C189.11 298.548 189.124 298.17 189.138 297.761C189.151 297.352 189.222 296.956 189.296 296.882C189.402 296.777 189.431 296.785 189.431 296.92C189.431 297.045 189.508 297.078 189.708 297.04C189.943 296.995 190.011 297.049 190.157 297.399C190.314 297.775 190.313 297.827 190.146 298.012C189.92 298.262 190.02 298.449 190.378 298.449C190.604 298.449 190.648 298.503 190.648 298.781C190.648 298.963 190.69 299.112 190.741 299.112C190.792 299.112 191.103 298.964 191.433 298.783C192.138 298.395 192.707 298.36 193.378 298.664C194.111 298.996 194.223 299.264 194.299 300.867C194.353 301.994 194.411 302.349 194.604 302.718C194.912 303.307 195.666 303.966 196.844 304.675C197.422 305.024 198.039 305.517 198.448 305.957C200.033 307.664 200.558 308.14 201.05 308.313C201.726 308.551 202.486 308.562 202.486 308.333ZM253.005 304.361C252.922 304.146 253.182 304.146 253.598 304.361C253.887 304.511 253.929 304.509 254.019 304.349C254.074 304.252 254.586 303.979 255.158 303.743C256.236 303.299 256.519 303.074 256.414 302.742C256.362 302.579 256.445 302.535 256.921 302.472C257.272 302.425 257.609 302.297 257.801 302.136C258.182 301.815 258.211 301.815 258.485 302.124C258.605 302.26 258.672 302.31 258.633 302.233C258.511 301.993 258.69 301.658 259.036 301.479C259.408 301.287 259.873 301.385 260.273 301.738C260.439 301.886 260.502 301.897 260.54 301.786C260.68 301.388 261.375 300.672 262.117 300.163C262.573 299.85 263.013 299.458 263.094 299.291C263.22 299.032 263.289 298.999 263.565 299.059C263.876 299.127 263.887 299.115 263.887 298.722V298.314L264.167 298.497C264.527 298.732 264.662 298.641 264.662 298.163C264.662 297.817 264.683 297.79 264.876 297.893C265.194 298.063 265.325 298.033 265.325 297.79C265.325 297.671 265.429 297.518 265.555 297.45C265.687 297.38 265.759 297.26 265.725 297.17C265.683 297.062 265.745 297.013 265.925 297.013C266.108 297.013 266.206 296.934 266.253 296.749C266.292 296.591 266.428 296.458 266.589 296.417C266.738 296.38 266.962 296.206 267.087 296.031C267.237 295.82 267.455 295.685 267.73 295.631C268.082 295.562 268.112 295.536 267.925 295.46C267.418 295.255 266.968 295.345 266.532 295.738C266.299 295.949 265.869 296.242 265.576 296.39C265.241 296.56 264.708 297.027 264.13 297.659C263.209 298.666 262.86 298.904 262.637 298.681C262.398 298.443 261.721 298.553 260.963 298.955C260.219 299.349 259.904 299.381 259.904 299.061C259.904 298.965 259.808 298.891 259.683 298.891C259.561 298.891 259.462 298.84 259.462 298.777C259.462 298.473 259.996 297.687 260.767 296.856C262.088 295.434 263.054 293.556 262.98 292.552C262.954 292.19 262.9 292.089 262.721 292.063C262.547 292.038 262.349 292.246 261.853 292.975C260.399 295.113 258.575 296.15 255.977 296.314C255.097 296.37 254.95 296.352 254.716 296.161C254.339 295.855 254.462 295.506 255.194 294.801C255.525 294.483 255.847 294.092 255.91 293.932C255.973 293.773 256.28 292.946 256.594 292.096L257.164 290.549L257.093 289.167C257.036 288.042 257.056 287.687 257.203 287.255C257.373 286.758 257.372 286.712 257.191 286.512C257.05 286.356 257.03 286.26 257.115 286.157C257.198 286.057 257.196 285.88 257.109 285.552C257.004 285.161 257.013 285.057 257.166 284.889C257.265 284.779 257.479 284.093 257.642 283.365C257.805 282.636 258.058 281.658 258.205 281.191C258.351 280.724 258.46 280.301 258.445 280.252C258.431 280.202 258.484 280.045 258.563 279.902C258.8 279.474 259.13 278.435 259.13 278.115C259.13 277.95 259.233 277.684 259.359 277.524C259.549 277.283 259.559 277.233 259.415 277.233C259.187 277.233 259.195 277.166 259.47 276.78C259.595 276.604 259.647 276.46 259.585 276.46C259.523 276.46 259.556 276.314 259.658 276.136C259.816 275.862 259.823 275.755 259.708 275.438C259.634 275.231 259.573 274.827 259.573 274.538C259.573 274.25 259.521 273.918 259.458 273.8C259.366 273.629 259.38 273.586 259.527 273.586C259.677 273.586 259.686 273.557 259.573 273.421C259.379 273.188 258.955 273.215 258.593 273.481C258.341 273.668 258.234 273.687 257.982 273.592C257.548 273.427 257.01 273.448 256.526 273.65C256.032 273.857 254.907 274.898 254.574 275.457C254.444 275.674 254.176 276.026 253.977 276.239C253.779 276.451 253.6 276.75 253.58 276.902C253.554 277.093 253.464 277.189 253.285 277.214C253.067 277.245 253.037 277.296 253.097 277.534C253.151 277.748 253.065 277.982 252.749 278.492C252.425 279.012 252.327 279.287 252.32 279.69C252.315 279.978 252.277 280.247 252.236 280.289C252.194 280.33 252.16 280.552 252.16 280.781C252.16 281.481 252.102 281.493 248.994 281.444C243.924 281.365 244.113 281.356 243.382 281.714C242.142 282.321 241.332 283.281 241.482 283.963C241.567 284.348 241.993 284.757 242.646 285.079C242.92 285.215 243.226 285.397 243.326 285.485C243.493 285.632 243.486 285.666 243.243 285.909C243.013 286.138 242.995 286.211 243.105 286.453C243.246 286.761 243.547 286.901 243.982 286.86C244.139 286.846 244.332 286.911 244.411 287.006C244.592 287.224 244.89 287.225 245.309 287.01C245.568 286.876 245.648 286.87 245.689 286.982C245.763 287.183 245.836 287.632 245.846 287.937C245.853 288.162 245.894 288.188 246.145 288.125C246.386 288.065 246.423 288.084 246.364 288.237C246.248 288.54 246.751 288.899 247.498 289.046C247.868 289.119 248.195 289.218 248.225 289.266C248.254 289.314 248.057 289.51 247.786 289.701C247.233 290.09 247.161 290.274 247.561 290.274C247.951 290.274 248.284 290.787 248.142 291.17C247.979 291.61 248.142 292.031 248.682 292.563C248.952 292.829 249.173 293.134 249.173 293.241C249.173 293.348 249.246 293.532 249.336 293.65C249.565 293.954 249.546 294.011 249.201 294.051C248.909 294.085 248.919 294.099 249.441 294.411C249.74 294.59 249.927 294.756 249.856 294.78C249.62 294.858 249.72 295.067 250.252 295.608C250.756 296.123 250.769 296.15 250.563 296.303C250.235 296.545 249.164 296.498 246.629 296.13C243.765 295.715 242.756 295.698 242.756 296.064C242.756 296.136 242.981 296.414 243.254 296.683C243.598 297.02 243.733 297.232 243.69 297.368C243.636 297.536 243.677 297.554 243.971 297.495C244.239 297.442 244.375 297.484 244.588 297.683C244.799 297.881 244.891 297.91 244.993 297.808C245.196 297.605 245.276 297.647 245.471 298.056C245.579 298.285 245.775 298.479 245.964 298.545C246.161 298.613 246.35 298.806 246.472 299.063C246.588 299.306 246.798 299.527 246.991 299.608C247.314 299.744 247.315 299.745 247.055 299.819C246.808 299.89 246.817 299.906 247.237 300.127C247.48 300.255 247.82 300.477 247.992 300.621C248.168 300.767 248.45 300.882 248.636 300.882C248.916 300.882 248.956 300.916 248.897 301.102C248.787 301.448 248.913 301.536 249.332 301.408C249.885 301.238 250.734 301.61 250.233 301.802C250.136 301.84 250.099 301.951 250.135 302.092C250.183 302.273 250.156 302.307 250.009 302.25C249.85 302.189 249.827 302.242 249.857 302.598C249.889 302.982 249.93 303.028 250.323 303.138C250.744 303.255 250.851 303.361 251.002 303.81C251.072 304.018 251.083 304.015 251.192 303.755C251.288 303.528 251.317 303.513 251.355 303.672C251.381 303.778 251.48 303.865 251.575 303.865C251.671 303.865 251.804 303.938 251.871 304.027C251.939 304.116 252.193 304.26 252.437 304.346C253.027 304.555 253.08 304.557 253.005 304.363L253.005 304.361ZM233.121 292.282C234.105 291.926 234.27 291.732 233.951 291.305C233.544 290.761 233.176 290.561 232.597 290.57C231.905 290.58 230.85 290.887 230.768 291.102C230.62 291.486 231.08 292.192 231.638 292.438C232.084 292.635 232.174 292.625 233.121 292.282ZM232.742 279.079C233.025 278.887 233.329 278.78 233.592 278.78C233.92 278.78 234.048 278.715 234.238 278.449C234.404 278.215 234.566 278.117 234.785 278.117C234.976 278.117 235.154 278.03 235.248 277.889C235.367 277.71 235.692 277.602 236.75 277.392C238.269 277.091 239.092 276.769 239.692 276.243C240.317 275.695 240.226 275.309 239.369 274.875C239.089 274.734 239.034 274.648 239.077 274.425C239.109 274.255 239.034 273.995 238.881 273.748C238.658 273.387 238.647 273.303 238.767 272.902C238.85 272.626 238.982 272.435 239.114 272.401C239.231 272.371 239.327 272.258 239.327 272.152C239.327 272.046 239.426 271.833 239.548 271.678C239.67 271.523 239.769 271.246 239.769 271.062C239.769 270.877 239.819 270.696 239.88 270.658C239.941 270.621 239.99 270.367 239.99 270.094C239.99 269.821 240.066 269.451 240.159 269.272C240.313 268.975 240.308 268.87 240.097 268.045C239.852 267.089 239.875 266.454 240.169 265.99C240.262 265.844 240.3 265.617 240.262 265.438C240.094 264.641 240.094 264.64 240.266 264.706C240.398 264.756 240.434 264.679 240.434 264.344C240.434 264.106 240.572 263.625 240.747 263.255C240.919 262.89 241.174 262.13 241.314 261.565C241.453 261.001 241.685 260.364 241.83 260.151C241.975 259.938 242.093 259.696 242.093 259.614C242.093 259.517 242.173 259.484 242.314 259.521C242.544 259.581 242.607 259.453 242.438 259.271C242.302 259.124 242.563 257.079 242.746 256.859C242.953 256.61 243.165 256.636 243.361 256.933C243.601 257.299 244.099 259.337 244.028 259.664C243.981 259.88 244.053 260.021 244.351 260.302C244.85 260.772 245.219 261.577 245.51 262.826C245.781 263.995 245.802 264.757 245.588 265.686C245.503 266.05 245.374 266.722 245.3 267.178C245.226 267.633 245.097 268.173 245.013 268.378C244.886 268.686 244.817 268.738 244.603 268.684C244.189 268.58 243.653 269.419 242.873 271.393C242.498 272.344 242.036 273.364 241.848 273.658C241.66 273.953 241.464 274.379 241.413 274.604C241.327 274.983 241.461 276.97 241.581 277.09C241.683 277.192 242.833 276.369 243.221 275.916C243.47 275.626 243.712 275.157 243.869 274.658C244.008 274.221 244.328 273.39 244.582 272.813C244.954 271.966 245.057 271.585 245.114 270.841C245.177 270.033 245.263 269.75 245.817 268.543C246.165 267.786 246.602 266.991 246.788 266.777C247.123 266.393 247.131 266.391 247.506 266.55C247.963 266.743 248.409 266.629 248.869 266.203C249.113 265.977 249.174 265.823 249.174 265.432C249.174 265.045 249.208 264.957 249.339 265.007C249.558 265.091 249.969 264.636 250.286 263.959C250.525 263.451 250.53 263.395 250.37 263.06C250.218 262.742 249.588 261.896 249.281 261.597C249.219 261.536 249.107 261.42 249.032 261.338C248.958 261.256 248.76 261.055 248.593 260.891C248.332 260.635 248.279 260.473 248.218 259.745C248.171 259.19 248.188 258.845 248.267 258.75C248.357 258.641 248.32 258.484 248.118 258.13C247.901 257.748 247.872 257.612 247.97 257.429C248.08 257.224 248.066 257.209 247.821 257.27C247.593 257.327 247.515 257.27 247.31 256.909C246.981 256.324 246.426 255.86 245.783 255.634C244.975 255.35 244.914 255.301 244.914 254.935C244.914 254.747 244.811 254.485 244.68 254.341C244.551 254.199 244.414 253.95 244.375 253.787C244.329 253.591 244.221 253.479 244.057 253.455C243.879 253.43 243.81 253.348 243.817 253.171C243.821 253.035 243.79 252.923 243.748 252.923C243.705 252.923 243.638 252.766 243.6 252.574C243.517 252.162 243.345 251.928 243.122 251.928C243 251.928 243.016 251.997 243.192 252.22C243.473 252.577 243.362 252.757 242.796 252.863C242.537 252.912 242.381 253.011 242.344 253.151C242.281 253.394 242.09 253.428 241.894 253.232C241.807 253.145 241.761 253.141 241.761 253.219C241.761 253.285 241.661 253.365 241.539 253.397C241.348 253.447 241.332 253.497 241.428 253.749C241.578 254.143 241.572 254.163 241.332 254.087C241.189 254.042 241.108 254.083 241.071 254.225C241.01 254.459 239.43 255.085 239.16 254.982C238.94 254.898 238.951 255.121 239.179 255.373C239.28 255.485 239.331 255.608 239.291 255.648C239.176 255.762 235.725 255.469 234.567 255.246C233.596 255.06 232.125 254.563 231.484 254.206C231.306 254.106 231.205 253.937 231.178 253.691C231.156 253.489 231.018 253.061 230.87 252.74C230.585 252.117 229.661 251.044 229.411 251.044C229.328 251.044 229.26 250.995 229.26 250.934C229.26 250.873 229.134 250.823 228.98 250.823C228.735 250.823 228.701 250.869 228.71 251.182C228.715 251.38 228.704 251.641 228.686 251.762C228.658 251.94 228.722 251.99 229.011 252.018C229.294 252.045 229.37 252.103 229.37 252.289C229.37 252.419 229.532 252.695 229.73 252.903C230.021 253.209 229.924 253.163 229.216 252.66C228.397 252.078 227.932 251.893 227.932 252.149C227.932 252.21 227.972 252.26 228.02 252.26C228.157 252.26 228.471 253.029 228.362 253.096C228.18 253.209 228.263 253.365 228.504 253.365C228.878 253.365 228.658 253.492 228.249 253.512C228.001 253.525 227.846 253.604 227.769 253.76C227.706 253.886 227.567 254.076 227.461 254.182C227.071 254.573 227.472 255.417 228.873 257.153C230.308 258.931 230.875 260.117 230.937 261.477C230.961 261.992 230.937 262.042 230.475 262.452C229.499 263.317 227.512 264.083 226.244 264.083C225.456 264.083 225.047 263.887 224.734 263.358C224.523 263 224.456 262.961 224.14 263.008C223.944 263.037 223.623 263.127 223.428 263.208C222.536 263.577 221.625 262.445 222.248 261.743C222.61 261.336 223.31 260.879 223.571 260.879C223.71 260.879 223.902 260.799 224 260.702C224.104 260.598 224.254 260.556 224.367 260.6C224.472 260.64 224.93 260.716 225.384 260.767C226.465 260.889 226.655 261.118 226.882 262.564C226.958 263.053 227.217 263.11 227.788 262.762C228.344 262.424 228.542 262.048 228.403 261.596C228.273 261.174 228.342 261.042 228.855 260.724C229.088 260.58 229.154 260.468 229.11 260.298C229.077 260.172 229.106 259.855 229.176 259.594C229.287 259.182 229.277 259.092 229.104 258.901C228.995 258.781 228.688 258.608 228.422 258.518C228.156 258.427 227.741 258.195 227.501 258.001C226.814 257.451 226.409 257.431 224.459 257.851C224.173 257.912 224.145 257.895 224.2 257.687C224.24 257.531 224.209 257.453 224.105 257.453C223.692 257.453 224.162 256.167 224.619 256.047C224.737 256.017 224.834 255.922 224.834 255.838C224.834 255.754 224.91 255.685 225.003 255.685C225.096 255.685 225.222 255.553 225.284 255.391C225.382 255.133 225.352 255.051 225.044 254.734C224.721 254.401 224.703 254.345 224.824 254.053C224.897 253.877 225.201 253.44 225.501 253.08C226.068 252.399 226.169 252.043 225.906 251.649C225.804 251.496 225.775 251.155 225.808 250.51C225.85 249.672 225.873 249.593 226.064 249.643C226.392 249.729 226.326 249.367 225.837 248.414C225.357 247.475 224.577 245.18 224.592 244.746C224.597 244.594 224.728 244.16 224.884 243.781C225.21 242.985 225.243 242.558 224.986 242.459C224.886 242.421 224.462 242.479 224.042 242.588C223.337 242.77 223.265 242.772 223.08 242.605C222.844 242.392 222.179 242.361 222.179 242.564C222.179 242.64 222.354 242.947 222.567 243.246C222.779 243.545 222.954 243.873 222.954 243.974C222.954 244.152 222.535 244.414 222.25 244.414C222.016 244.414 221.551 243.843 221.23 243.159C220.907 242.473 220.032 241.652 219.625 241.652C219.284 241.652 219.38 241.847 219.855 242.118C220.098 242.257 220.297 242.403 220.298 242.444C220.298 242.485 220.05 242.6 219.747 242.701C218.876 242.99 218.483 243.715 218.929 244.208C219.045 244.336 219.078 244.476 219.022 244.603C218.975 244.712 218.946 244.864 218.959 244.942C218.971 245.019 218.905 245.159 218.81 245.253C218.716 245.347 218.639 245.472 218.639 245.529C218.639 245.587 218.91 245.914 219.242 246.256C219.702 246.73 219.852 246.969 219.878 247.265C219.901 247.526 220.003 247.72 220.193 247.861C220.717 248.25 220.998 247.899 221.121 246.704C221.173 246.194 221.153 246.053 221.019 246.002C220.905 245.958 220.852 245.784 220.852 245.459C220.852 244.937 220.992 244.762 221.244 244.971C221.449 245.141 221.45 245.857 221.248 247.48C221.096 248.705 221.112 249.166 221.31 249.166C221.482 249.166 221.594 248.715 221.779 247.282C221.997 245.594 221.997 245.591 221.797 245.668C221.535 245.768 221.449 245.29 221.695 245.101C221.841 244.989 221.861 244.926 221.764 244.89C221.416 244.759 221.688 244.635 222.323 244.635C223.128 244.635 223.288 244.746 223.278 245.293L223.27 245.685L222.796 244.69L222.758 245.098C222.737 245.322 222.792 245.75 222.881 246.048C223.023 246.527 223.023 246.631 222.875 246.935C222.725 247.245 222.726 247.297 222.886 247.457C223.139 247.709 223.109 248.06 222.743 249.15C221.972 251.448 220.73 253.287 220.263 252.821C220.174 252.732 219.87 252.978 219.141 253.73C217.851 255.06 217.172 255.422 216.039 255.382C215.613 255.367 215.14 255.342 214.988 255.327L214.711 255.299L214.746 256.349C214.764 256.926 214.9 258.691 215.047 260.271C215.194 261.852 215.44 264.611 215.593 266.404C216 271.169 216.047 271.53 216.348 272.185C216.883 273.354 217.391 273.726 219.917 274.803C221.387 275.43 221.794 275.671 222.618 276.401C223.382 277.079 223.717 277.203 225.797 277.575C227.703 277.916 227.965 278 229.868 278.886C230.949 279.389 231.153 279.448 231.694 279.415C232.13 279.389 232.427 279.293 232.742 279.079ZM230.863 273.579C230.681 273.461 230.469 273.389 230.393 273.417C230.317 273.446 230.255 273.396 230.255 273.307C230.255 273.218 230.155 273.145 230.034 273.145C229.912 273.145 229.812 273.095 229.812 273.034C229.812 272.973 229.559 272.924 229.249 272.924C228.778 272.924 228.676 272.887 228.627 272.703C228.556 272.43 228.555 272.43 227.755 272.714C227.36 272.855 226.84 272.945 226.438 272.943C226.073 272.943 225.412 273.02 224.969 273.118C224.317 273.263 224.094 273.272 223.799 273.166C223.599 273.093 223.215 273.033 222.945 273.032C222.441 273.028 221.515 272.684 221.515 272.499C221.515 272.318 221.836 272.261 222.856 272.261C224.244 272.261 225.754 272.078 227.436 271.706C229.091 271.34 229.716 271.146 229.74 270.991C229.749 270.931 229.483 270.842 229.148 270.793C228.814 270.744 227.937 270.582 227.201 270.433C226.287 270.247 225.497 270.161 224.712 270.161C223.854 270.161 223.266 270.089 222.4 269.878C220.67 269.456 218.997 269.257 218.298 269.389C217.337 269.571 217.18 269.544 217.22 269.205C217.277 268.729 217.522 268.659 218.395 268.87C218.843 268.978 219.613 269.056 220.228 269.056C221.096 269.056 221.379 269.1 221.791 269.3C222.244 269.52 222.33 269.53 222.651 269.395C223.32 269.115 223.851 269.141 225.685 269.545C227.578 269.962 228.289 270.016 229.276 269.818C229.796 269.714 230.002 269.729 230.705 269.921C231.157 270.044 231.826 270.203 232.191 270.274C232.556 270.344 232.977 270.48 233.126 270.575L233.397 270.748L232.984 271.104C232.666 271.379 232.61 271.476 232.741 271.526C232.96 271.61 232.957 272.07 232.734 272.5C232.638 272.686 232.583 272.932 232.613 273.046C232.649 273.183 232.556 273.347 232.338 273.53C231.936 273.868 231.345 273.887 230.863 273.579ZM234.128 270.35C233.723 270.145 233.733 269.916 234.188 268.996C234.587 268.189 234.916 267.84 235.427 267.682C235.64 267.616 235.676 267.645 235.676 267.888C235.676 268.213 235.836 268.261 235.991 267.984C236.125 267.746 236.309 267.884 236.609 268.446L236.823 268.846L236.526 269.121C236.343 269.291 236.229 269.513 236.229 269.699C236.229 269.865 236.151 270.112 236.057 270.247C235.908 270.46 235.785 270.492 235.144 270.491C234.737 270.491 234.279 270.427 234.128 270.35ZM221.674 263.538C221.075 263.395 220.191 262.842 219.461 262.155C218.723 261.46 218.593 261.21 218.969 261.21C219.104 261.21 219.306 261.388 219.494 261.672C219.834 262.186 220.735 262.816 221.672 263.196C222.01 263.333 222.26 263.489 222.226 263.543C222.159 263.652 222.152 263.652 221.674 263.538ZM230.241 253.392C230.103 253.217 230.107 253.213 230.282 253.351C230.467 253.495 230.525 253.586 230.434 253.586C230.411 253.586 230.324 253.499 230.241 253.392ZM263.357 263.588C264.482 263.037 265.879 261.576 265.879 260.951C265.879 260.832 265.679 260.551 265.436 260.326C264.856 259.792 264.851 259.439 265.408 258.622C265.928 257.86 266.258 257.656 266.478 257.957C266.63 258.165 266.637 258.165 266.876 257.95C267.202 257.655 267.469 257.12 267.35 257.001C267.297 256.947 267.066 256.957 266.824 257.024C266.587 257.089 266.191 257.151 265.944 257.16C265.587 257.174 265.487 257.223 265.459 257.398C265.382 257.873 265.336 257.931 265.152 257.778C265.041 257.687 264.992 257.497 265.015 257.241L265.049 256.846L264.54 256.813C264.087 256.784 263.941 256.841 263.193 257.34C262.068 258.092 261.417 258.372 261.005 258.281C260.686 258.211 260.679 258.219 260.679 258.652C260.679 259.115 260.852 259.377 261.238 259.5C261.461 259.57 261.459 259.579 261.181 259.944C260.932 260.27 260.905 260.389 260.959 260.901C261.02 261.467 261.007 261.504 260.573 261.984C260.004 262.613 259.92 262.908 260.202 263.292C260.767 264.062 262.13 264.19 263.357 263.588ZM268.023 255.68C268.509 255.103 268.77 253.872 268.922 251.431C269 250.181 268.823 247.995 268.601 247.464C268.386 246.951 267.841 246.539 267.26 246.452C266.656 246.362 266.595 246.283 266.81 245.868C266.901 245.691 266.945 245.516 266.907 245.478C266.791 245.362 265.825 245.4 265.425 245.536C265.218 245.607 264.835 245.815 264.574 246C263.516 246.75 263.304 247.983 264.323 247.456L264.669 247.278L265.004 248.079L265.346 247.608C265.666 247.166 265.696 247.15 265.838 247.344C266.059 247.645 266.023 247.883 265.74 248.007C265.528 248.1 265.491 248.201 265.491 248.686C265.491 249.104 265.425 249.346 265.242 249.593C265.106 249.779 264.993 250.025 264.993 250.14C264.993 250.257 265.318 250.653 265.723 251.029L266.452 251.708L266.378 252.25C266.31 252.742 266.325 252.799 266.543 252.868L266.783 252.944L266.552 253.105C266.118 253.409 266.269 253.97 267.001 254.771C267.327 255.128 267.427 255.33 267.427 255.628C267.427 256.119 267.638 256.137 268.023 255.68ZM253.4 248.166C253.539 248.102 253.769 247.874 253.91 247.659C254.122 247.335 254.214 247.279 254.438 247.335C254.631 247.383 254.729 247.351 254.778 247.223C254.816 247.125 254.794 247.011 254.729 246.971C254.663 246.93 254.619 246.798 254.63 246.678C254.648 246.479 254.571 246.455 253.81 246.426C252.839 246.389 252.428 246.512 252.256 246.889C252.098 247.234 252.418 247.94 252.824 248.141C253.159 248.307 253.095 248.305 253.4 248.166ZM230.442 246.641C230.391 245.968 230.413 245.76 230.551 245.608C230.646 245.503 230.749 245.189 230.781 244.909C230.83 244.478 230.802 244.376 230.602 244.235C230.408 244.1 230.365 243.957 230.364 243.441C230.364 243.095 230.318 242.742 230.263 242.656C230.117 242.426 229.039 242.365 228.763 242.572C228.545 242.735 228.545 242.739 228.785 243.406C228.927 243.799 228.983 244.103 228.921 244.141C228.768 244.236 228.793 244.565 228.982 244.926C229.137 245.223 229.133 245.245 228.926 245.278C228.611 245.329 228.654 245.487 229.038 245.685C229.377 245.86 229.487 246.227 229.231 246.33C229.155 246.361 229.227 246.39 229.393 246.394C229.747 246.405 229.923 246.674 229.923 247.206C229.923 247.67 230 247.755 230.284 247.603C230.486 247.495 230.5 247.408 230.442 246.641ZM244.411 245.892C247.308 245.594 248.636 245.27 248.306 244.941C248.225 244.86 247.862 244.879 247.105 245.005C245.588 245.256 243.25 245.52 242.591 245.514C242.286 245.51 241.838 245.438 241.595 245.35C241.351 245.263 241.14 245.19 241.124 245.189C241.061 245.185 241.103 246.041 241.17 246.108C241.251 246.188 242.027 246.137 244.411 245.892ZM256.032 244.839C256.032 244.561 256.115 244.288 256.253 244.113C256.398 243.929 256.475 243.664 256.475 243.349C256.475 243.009 256.521 242.867 256.63 242.867C256.851 242.867 257.029 242.274 257.024 241.552C257.02 240.96 257.013 240.945 256.862 241.21C256.674 241.538 256.688 241.654 256.677 239.607C256.672 238.817 256.646 238.307 256.62 238.475C256.556 238.867 256.459 238.858 256.211 238.439C256.101 238.253 255.989 238.122 255.963 238.148C255.936 238.175 255.973 238.548 256.044 238.977C256.175 239.774 256.114 240.305 255.926 240.001C255.873 239.916 255.859 239.676 255.893 239.466C255.951 239.108 255.939 239.089 255.689 239.152C255.543 239.188 255.486 239.19 255.562 239.156C255.644 239.118 255.705 238.861 255.711 238.521C255.723 237.898 255.889 237.169 255.911 237.646C255.923 237.917 256.158 237.977 256.341 237.757C256.486 237.582 256.353 236.321 256.03 234.816C255.809 233.784 255.805 233.686 255.969 233.136C256.319 231.958 256.086 229.699 255.632 229.873C255.538 229.909 255.455 229.827 255.412 229.654C255.29 229.168 255.253 229.439 255.362 230.017C255.484 230.657 255.377 231.194 255.118 231.244C254.991 231.269 254.809 231.014 254.486 230.36L254.032 229.442L254.161 230.768L253.772 229.89C253.351 228.943 252.904 228.315 252.479 228.074C252.242 227.94 252.144 227.951 251.632 228.17C251.173 228.368 251.054 228.472 251.054 228.675C251.054 228.816 251.104 228.962 251.164 229C251.336 229.106 251.295 229.276 251.114 229.207C250.978 229.155 250.98 229.215 251.131 229.599C251.229 229.848 251.276 230.085 251.235 230.127C251.193 230.168 250.947 229.993 250.688 229.739C250.173 229.234 250.058 229.182 250.058 229.455C250.058 229.602 250.028 229.61 249.892 229.497C249.751 229.38 249.692 229.436 249.504 229.86C249.382 230.135 249.25 230.671 249.21 231.05C249.147 231.65 249.165 231.76 249.349 231.895C249.546 232.041 249.547 232.059 249.371 232.159C249.213 232.248 249.202 232.313 249.306 232.54C249.412 232.774 249.394 232.854 249.177 233.084C249.038 233.232 248.952 233.427 248.987 233.517C249.022 233.608 248.991 233.707 248.918 233.737C248.695 233.83 249.293 234.27 249.554 234.205C249.732 234.16 249.838 234.245 250.04 234.594C250.293 235.034 250.29 235.298 250.034 235.042C249.765 234.773 249.717 234.925 249.951 235.305C250.094 235.535 250.212 235.935 250.236 236.271C250.258 236.587 250.346 237.119 250.432 237.453L250.587 238.061L250.599 237.416C250.613 236.669 250.771 236.621 251.09 237.266C251.202 237.49 251.358 237.674 251.436 237.674C251.515 237.674 251.654 237.785 251.744 237.921C251.904 238.161 251.907 238.159 251.856 237.81C251.827 237.614 251.83 237.453 251.864 237.453C251.897 237.453 252.232 237.829 252.609 238.29L253.293 239.126L253.601 238.831C253.995 238.455 254.251 238.529 254.654 239.138C255.095 239.803 255.369 240.787 255.292 241.432C255.219 242.05 255.344 243.227 255.474 243.147C255.523 243.117 255.583 243.551 255.608 244.112C255.633 244.674 255.692 245.196 255.739 245.273C255.889 245.515 256.032 245.303 256.032 244.839ZM256.101 228.502C256.145 228.373 256.205 228.397 256.378 228.613L256.599 228.889L256.522 228.612C256.479 228.46 256.419 228.261 256.388 228.17C256.357 228.079 256.497 228.227 256.699 228.5C256.918 228.795 257.086 228.937 257.114 228.851C257.206 228.575 256.259 226.292 256.052 226.292C256.005 226.292 255.903 226.354 255.826 226.43C255.713 226.541 255.655 226.527 255.532 226.36C255.335 226.094 255.085 224.991 255.196 224.882C255.243 224.837 255.601 225.143 255.991 225.561C256.382 225.98 256.734 226.291 256.774 226.251C256.874 226.151 256.542 225.172 256.094 224.247L255.719 223.474L255.71 223.944C255.699 224.477 255.631 224.509 255.208 224.176C254.99 224.005 254.92 223.867 254.956 223.679C254.988 223.514 254.952 223.419 254.863 223.419C254.784 223.419 254.688 223.319 254.649 223.198C254.544 222.866 254.207 222.721 254.032 222.932C253.915 223.073 253.917 223.198 254.042 223.621C254.126 223.905 254.198 224.386 254.201 224.689L254.207 225.242H253.469L254.237 225.962C255.059 226.733 255.301 227.124 255.708 228.339C255.868 228.818 255.981 229.029 256.006 228.892C256.028 228.77 256.07 228.597 256.101 228.506L256.101 228.502ZM262.067 227.94C262.108 227.875 262.26 227.851 262.406 227.887C262.761 227.976 262.744 227.87 262.24 226.869C261.746 225.888 261.051 224.923 260.562 224.541C260.145 224.215 260.041 224.295 260.269 224.767C260.494 225.23 260.422 225.292 260.046 224.957C259.713 224.661 259.781 224.778 260.373 225.518C260.591 225.792 260.95 226.41 261.17 226.891C261.692 228.036 261.875 228.251 262.067 227.94ZM233.739 317.417C233.015 317.081 232.232 316.213 231.362 314.785C230.979 314.157 230.478 313.389 230.247 313.079C230.016 312.768 229.749 312.325 229.653 312.095C229.556 311.865 229.117 311.297 228.677 310.834C227.614 309.717 226.962 308.414 226.422 306.327C225.965 304.561 225.776 304.119 224.426 301.654C223.175 299.373 223.155 299.334 223.22 299.334C223.249 299.334 224.149 300.639 225.22 302.234C226.291 303.83 227.611 305.781 228.154 306.57C229.316 308.259 230.201 309.735 231.103 311.489C231.463 312.188 232.21 313.459 232.764 314.313C233.795 315.906 234.312 316.834 234.466 317.372C234.576 317.752 234.472 317.758 233.739 317.417ZM272.848 303.605C272.848 303.523 272.953 303.362 273.081 303.246C273.536 302.835 273.737 302.189 273.556 301.718C273.422 301.37 273.206 301.56 272.867 302.326C272.493 303.173 272.263 303.287 271.995 302.758C271.646 302.068 272.057 300.577 272.785 299.894C273.839 298.905 274.886 301.784 273.951 303.097C273.547 303.662 272.848 303.985 272.848 303.605ZM230.474 299.86C229.617 299.563 228.373 298.708 228.061 298.203C227.703 297.619 227.359 296.459 227.384 295.914C227.397 295.637 227.4 295.35 227.393 295.275C227.385 295.201 226.93 294.759 226.383 294.294C225.835 293.829 225.387 293.404 225.387 293.35C225.387 293.296 225.588 293.354 225.833 293.479C226.329 293.732 226.502 293.698 226.415 293.366C226.319 293.001 226.445 293.109 227.029 293.891C227.335 294.302 227.808 294.845 228.08 295.098C228.351 295.351 228.605 295.699 228.643 295.871C228.709 296.169 228.743 296.185 229.345 296.193C230.441 296.207 231.321 296.857 231.87 298.058C232.625 299.708 232.076 300.415 230.474 299.86Z" fill="currentcolor"/>

</svg>
