<svg viewBox="0 0 1180 580" fill="currentcolor" xmlns="http://www.w3.org/2000/svg">
<path d="M227.204 327.009C226.863 326.843 226.107 326.52 225.522 326.291C224.938 326.062 224.221 325.771 223.929 325.645C223.637 325.518 221.884 324.807 220.034 324.065C218.184 323.323 216.512 322.643 216.317 322.555C216.122 322.467 215.246 322.104 214.369 321.748C213.493 321.393 212.617 321.036 212.422 320.955C211.665 320.642 208.817 319.49 207.554 318.986C206.823 318.694 205.987 318.349 205.695 318.219C205.403 318.089 204.367 317.666 203.393 317.28C201.528 316.539 196.03 314.318 195.427 314.061C195.232 313.978 194.157 313.537 193.037 313.081C189.319 311.568 187.997 311.024 187.461 310.789C187.168 310.661 186.292 310.307 185.513 310.003C184.221 309.498 183.48 309.191 182.504 308.754C182.309 308.667 180.955 308.125 179.494 307.549C176.703 306.448 173.818 305.277 169.403 303.452C167.943 302.848 166.23 302.156 165.597 301.914C164.964 301.672 164.183 301.357 163.862 301.214C162.997 300.83 160.442 299.792 158.427 299.008C157.454 298.629 155.82 297.969 154.798 297.543C153.776 297.116 152.302 296.508 151.523 296.19C150.744 295.873 150.036 295.553 149.949 295.478C149.823 295.37 152.091 291.941 152.509 291.608C152.57 291.559 152.811 291.227 153.045 290.87C153.451 290.25 155.258 287.725 159.605 281.706C160.693 280.198 161.837 278.607 162.148 278.169C162.458 277.732 163.574 276.18 164.628 274.721C165.681 273.262 166.934 271.512 167.411 270.831C167.888 270.15 168.571 269.187 168.929 268.689C171.434 265.212 172.09 264.294 172.324 263.942C172.47 263.723 172.731 263.354 172.904 263.121C173.077 262.888 174.134 261.424 175.252 259.868C176.371 258.312 177.484 256.785 177.726 256.474C177.968 256.163 178.166 255.825 178.166 255.722C178.166 255.62 178.226 255.535 178.299 255.535C178.372 255.535 178.631 255.236 178.874 254.872C179.118 254.508 179.38 254.13 179.458 254.033C179.535 253.936 180.243 252.958 181.03 251.861L182.462 249.865L181.57 247.794C181.08 246.654 180.466 245.126 180.206 244.396C179.947 243.667 179.649 242.871 179.545 242.628C179.441 242.385 179.294 241.907 179.217 241.567C179.141 241.227 178.956 240.51 178.806 239.976C178.225 237.902 177.635 233.888 177.635 232.002C177.635 227.723 178.941 223.511 181.044 221.001C183.356 218.243 186.948 216.44 189.599 216.707C194.203 217.171 199.176 220.458 204.306 226.428C205.216 227.487 205.96 228.413 205.96 228.487C205.96 228.896 206.745 228.765 208.51 228.063C210.87 227.122 211.835 226.827 215.432 225.944C220.286 224.752 228.177 224.283 233.754 224.856C237.3 225.22 237.176 225.202 240.482 225.856C242.109 226.178 245.747 227.145 246.412 227.433C246.756 227.581 249.619 228.583 250.281 228.786C250.461 228.841 250.66 228.808 250.723 228.711C251.455 227.592 254.916 223.799 256.591 222.281C261.127 218.169 265.769 216.145 269.139 216.811C272.872 217.547 276.21 220.478 277.855 224.461C278.958 227.135 279.148 228.242 279.137 231.93C279.126 235.417 278.958 236.669 278.023 240.241C277.365 242.755 275.362 248.151 274.728 249.12C274.287 249.793 273.855 249.077 279.345 256.774C279.795 257.406 280.889 258.957 281.775 260.222C282.661 261.486 284.027 263.436 284.811 264.554C285.595 265.672 286.333 266.707 286.453 266.853C286.666 267.113 286.979 267.556 288.827 270.212C289.334 270.942 290.44 272.493 291.284 273.66C292.682 275.591 293.514 276.772 296.158 280.569C296.645 281.268 298.111 283.341 299.415 285.177C300.72 287.012 302.349 289.309 303.035 290.282C305.526 293.809 306.432 295.062 306.739 295.402C306.911 295.592 307.026 295.83 306.995 295.932C306.924 296.162 306.063 296.594 304.567 297.15C303.301 297.621 299.904 298.965 299.345 299.217C299.15 299.305 297.955 299.778 296.689 300.269C295.424 300.759 294.229 301.231 294.034 301.317C293.839 301.404 293.401 301.574 293.06 301.696C292.503 301.896 289.616 303.063 288.723 303.449C288.298 303.633 279.826 306.957 277.57 307.825C276.694 308.163 275.738 308.54 275.446 308.664C274.822 308.928 274.572 309.026 270.046 310.789C268.147 311.529 266.368 312.25 266.093 312.392C265.817 312.534 265.516 312.65 265.423 312.65C265.331 312.65 264.362 313.015 263.269 313.462C262.177 313.909 260.885 314.431 260.398 314.621C259.911 314.812 259.353 315.037 259.159 315.121C258.964 315.206 257.251 315.881 255.352 316.621C253.454 317.362 251.661 318.076 251.369 318.208C251.077 318.341 248.568 319.34 245.793 320.428C243.018 321.516 237.959 323.514 234.551 324.866C231.143 326.219 228.235 327.323 228.089 327.319C227.943 327.315 227.545 327.176 227.204 327.009ZM233.671 319.895C236.589 318.726 239.136 317.7 239.331 317.615C239.526 317.53 240.123 317.289 240.659 317.079C241.194 316.869 241.792 316.628 241.986 316.544C242.181 316.459 243.774 315.824 245.527 315.133C247.28 314.441 249.072 313.724 249.51 313.538C249.948 313.353 250.865 312.988 251.546 312.727C252.228 312.466 253.104 312.111 253.494 311.937C253.883 311.764 256.95 310.537 260.309 309.212C263.668 307.887 266.656 306.692 266.948 306.556C267.851 306.136 271.349 304.728 271.816 304.598C272.06 304.529 272.657 304.293 273.144 304.072C273.631 303.851 274.706 303.416 275.534 303.105C276.362 302.795 277.178 302.467 277.349 302.377C277.519 302.288 278.196 302.015 278.853 301.772C279.511 301.529 280.208 301.26 280.402 301.176C280.597 301.091 281.115 300.879 281.553 300.704C282.422 300.358 283.737 299.813 284.297 299.567C285.365 299.099 289.846 297.373 290.367 297.23C291.549 296.904 290.643 296.743 287.256 296.68C285.384 296.644 283.804 296.567 283.745 296.508C283.581 296.344 284.775 295.676 285.233 295.675C285.791 295.675 290.103 294.617 290.294 294.434C290.38 294.353 290.102 294.197 289.675 294.088C289.249 293.979 288.701 293.825 288.457 293.746C287.455 293.42 286.742 293.222 286.156 293.105C285.5 292.974 285.094 292.73 285.094 292.466C285.094 292.373 287.7 292.317 291.29 292.331C294.711 292.345 297.471 292.288 297.452 292.203C297.434 292.119 296.617 291.719 295.638 291.315C293.307 290.354 287.223 287.734 286.796 287.508C286.612 287.411 285.696 287.023 284.76 286.647C283.055 285.962 282.572 285.497 283.589 285.519C284.166 285.531 288.192 285.896 289.585 286.062C290.146 286.129 290.424 286.101 290.382 285.982C290.346 285.881 289.201 285.049 287.838 284.133C282.01 280.218 282.148 280.389 284.687 280.231C287.738 280.041 288.988 279.894 288.988 279.727C288.988 279.637 288.762 279.269 288.485 278.91C288.209 278.551 287.518 277.621 286.952 276.843C285.328 274.615 280.645 268.215 278.412 265.173C277.841 264.395 276.557 262.644 275.56 261.283C274.563 259.921 272.755 257.464 271.542 255.822C270.33 254.181 269.338 252.691 269.338 252.512C269.338 252.23 269.737 251.207 270.242 250.196C270.325 250.03 270.678 249.155 271.027 248.251C271.377 247.346 271.735 246.447 271.823 246.253C272.027 245.804 272.52 244.417 272.64 243.954C272.69 243.76 272.8 243.441 272.885 243.247C272.97 243.052 273.116 242.615 273.211 242.274C273.305 241.934 273.556 241.059 273.769 240.329C274.736 237.013 275.022 235.197 275.121 231.73C275.204 228.857 275.04 227.421 274.446 225.83C274.1 224.902 273.11 223.439 272.417 222.831C271.805 222.294 270.223 221.409 269.875 221.409C269.539 221.409 269.687 221.906 270.12 222.234C270.594 222.593 271.525 224.23 271.899 225.365C272.401 226.886 272.592 229.25 272.353 231.004C271.711 235.711 269.626 240.559 265.74 246.385C265.043 247.431 264.384 248.286 264.277 248.286C264.092 248.286 263.958 248.188 262.935 247.314C259.363 244.257 252.705 240.488 248.996 239.423C247.36 238.954 244.916 238.706 243.331 238.85C241.674 239 241.276 239.352 240.619 241.247C240.04 242.916 239.77 243.647 239.479 244.334C239.349 244.641 239.242 245.014 239.242 245.164C239.242 245.314 239.172 245.479 239.087 245.532C239.001 245.585 238.794 246.047 238.627 246.559C238.459 247.072 238.06 248.167 237.74 248.994C237.42 249.82 236.941 251.093 236.676 251.823C236.412 252.552 236.012 253.626 235.789 254.21C235.566 254.793 235.171 255.828 234.911 256.508C234.651 257.189 234.332 258.025 234.202 258.365C234.072 258.705 233.715 259.66 233.408 260.487C232.596 262.676 232.427 263.021 231.701 263.965C230.293 265.798 229.7 268.061 230.035 270.325C230.375 272.625 230.727 273.687 232.046 276.398C232.912 278.178 234.725 280.826 235.071 280.817C235.175 280.813 235.511 280.396 235.819 279.888C237.462 277.182 239.919 275.209 242.704 274.36C245.315 273.564 249.176 273.789 252.979 274.959C254.436 275.407 258.204 277.04 259.513 277.791C262.407 279.45 263.2 279.936 265.001 281.153C268.236 283.34 270.933 285.471 270.929 285.838C270.929 285.948 270.032 286.701 268.938 287.512C262.02 292.64 259.293 294.67 258.982 294.928C258.787 295.088 258.07 295.622 257.388 296.113C255.365 297.572 255.088 297.776 251.571 300.405C249.717 301.791 248.109 302.925 247.998 302.925C247.888 302.925 247.706 302.724 247.594 302.48C247.425 302.11 247.445 301.983 247.709 301.728C248.072 301.379 249.821 300.116 251.9 298.702C254.745 296.769 255.487 295.997 253.626 296.909C252.412 297.505 251.019 298.131 249.687 298.679C249.152 298.899 248.32 299.268 247.838 299.5C247.357 299.731 246.896 299.854 246.815 299.772C246.652 299.61 247.213 299.042 249.023 297.533C250.111 296.627 250.447 296.205 250.083 296.205C250.009 296.205 249.551 296.47 249.065 296.794C248.58 297.117 247.744 297.612 247.209 297.893C246.673 298.175 246.045 298.546 245.813 298.719C245.581 298.893 245.288 299.034 245.162 299.034C244.898 299.034 244.905 299.041 243.121 297.07C242.382 296.254 240.55 294.239 239.05 292.592C237.549 290.946 236.016 289.255 235.642 288.835C235.269 288.415 234.906 288.071 234.835 288.071C234.765 288.071 234.526 288.688 234.305 289.442C233.621 291.768 232.846 294.315 232.597 295.056C232.466 295.445 232.107 296.599 231.8 297.62C231.493 298.641 231.128 299.78 230.99 300.151C230.852 300.522 230.78 300.893 230.83 300.975C230.881 301.056 231.444 301.367 232.082 301.665C233.701 302.422 235.093 303.858 235.96 305.665C236.611 307.023 236.638 307.154 236.644 308.936C236.651 311.009 236.404 311.92 235.42 313.445C234.354 315.099 233.135 316.133 231.413 316.846C230.467 317.237 230.027 317.307 228.443 317.316C226.22 317.329 225.144 316.977 223.429 315.674C220.574 313.504 219.44 309.88 220.568 306.526C220.812 305.799 221.191 304.949 221.409 304.639C222.213 303.492 223.605 302.239 224.682 301.694C225.804 301.126 225.91 300.963 225.634 300.236C225.549 300.013 225.349 299.392 225.19 298.858C224.819 297.614 223.749 294.182 223.233 292.58C222.906 291.564 222.515 290.244 221.96 288.278C221.923 288.148 221.824 288.068 221.739 288.101C221.655 288.133 220.719 289.115 219.659 290.283C217.002 293.211 216.572 293.682 215.963 294.332C214.58 295.805 213.573 296.916 212.701 297.929C211.818 298.955 211.259 299.267 211.015 298.872C210.96 298.783 210.3 298.379 209.55 297.975C208.799 297.57 207.84 297.007 207.418 296.722C205.613 295.505 206.323 296.512 208.572 298.357C209.737 299.314 210.161 299.919 209.668 299.919C209.565 299.919 209.147 299.734 208.738 299.509C208.33 299.284 207.473 298.892 206.833 298.638C206.193 298.385 204.986 297.853 204.151 297.456C203.316 297.06 202.545 296.736 202.437 296.736C201.991 296.736 202.323 297.059 203.703 297.97C204.506 298.5 205.96 299.524 206.934 300.244C207.908 300.965 208.808 301.595 208.935 301.643C209.247 301.763 209.13 302.579 208.768 302.805C208.534 302.951 207.831 302.504 205.139 300.496C203.303 299.126 199.331 296.17 196.312 293.928C193.294 291.686 190.744 289.789 190.647 289.712C190.55 289.635 190.271 289.442 190.027 289.284C189.784 289.125 189.346 288.785 189.054 288.527C188.762 288.268 187.865 287.608 187.062 287.06C186.259 286.511 185.602 285.971 185.602 285.86C185.602 285.418 192.548 280.283 194.453 279.318C194.794 279.145 195.113 278.956 195.161 278.896C195.449 278.545 199.299 276.644 201.527 275.753C204.763 274.459 206.505 274.071 209.529 273.972C212.462 273.877 213.722 274.094 215.634 275.025C217.67 276.017 219.859 278.114 220.988 280.156C221.242 280.616 221.53 280.968 221.628 280.937C222.196 280.759 225.223 275.474 225.796 273.66C225.919 273.271 226.146 272.595 226.301 272.157C226.502 271.59 226.583 270.727 226.581 269.151C226.577 267.005 226.562 266.906 225.987 265.738C225.662 265.077 225.205 264.31 224.973 264.034C224.608 263.601 223.89 262.015 223.046 259.78C222.918 259.439 222.558 258.484 222.247 257.658C221.936 256.831 221.481 255.641 221.236 255.012C220.99 254.384 220.571 253.27 220.304 252.537C219.379 250.002 218.011 246.368 216.707 242.982C216.276 241.863 215.869 240.719 215.801 240.439C215.734 240.159 215.463 239.714 215.198 239.45C214.777 239.03 214.531 238.955 213.216 238.852C212.39 238.788 211.077 238.811 210.298 238.904C206.773 239.326 201.562 241.701 196.932 244.996C195.062 246.327 195.293 246.15 193.891 247.309C193.241 247.847 192.597 248.286 192.461 248.286C192.21 248.286 189.867 244.851 188.781 242.893C185.675 237.288 184.371 233.266 184.365 229.267C184.361 226.266 185.153 223.804 186.666 222.115C187.419 221.275 186.999 221.21 185.605 221.952C181.783 223.987 180.6 229.151 182.164 236.97C182.408 238.185 182.681 239.419 182.771 239.71C184.179 244.27 185.213 247.261 185.95 248.905C186.037 249.1 186.227 249.537 186.372 249.878C186.516 250.218 186.801 250.885 187.003 251.359C187.479 252.471 187.47 252.6 186.869 253.38C186.592 253.739 185.915 254.65 185.364 255.403C184.813 256.157 183.939 257.351 183.421 258.056C181.036 261.305 179.845 262.929 179.369 263.581C179.085 263.97 177.852 265.641 176.629 267.295C175.406 268.948 174.212 270.579 173.976 270.92C172.286 273.354 167.996 279.14 167.725 279.351C167.549 279.488 167.517 279.616 167.633 279.721C167.844 279.913 171.108 280.294 172.535 280.292C174.154 280.292 174.087 280.56 172.144 281.862C171.416 282.351 170.125 283.227 169.276 283.809C168.427 284.391 167.371 285.079 166.93 285.337C166.489 285.595 166.128 285.872 166.128 285.953C166.128 286.123 167.946 286.022 171.077 285.678C172.698 285.5 173.344 285.488 173.519 285.632C173.832 285.892 173.687 285.994 172.324 286.475C171.691 286.699 170.676 287.109 170.067 287.386C168.739 287.992 160.021 291.76 159.421 291.988C159.188 292.076 159.043 292.194 159.099 292.249C159.154 292.305 161.954 292.338 165.319 292.324C170.595 292.302 171.439 292.334 171.439 292.558C171.439 292.832 171.334 292.871 168.518 293.638C167.544 293.903 166.635 294.154 166.497 294.196C166.345 294.242 166.31 294.335 166.408 294.433C166.584 294.606 167.075 294.741 169.669 295.324C172.547 295.972 173.109 296.189 172.769 296.526C172.702 296.593 171.997 296.648 171.202 296.65C167.563 296.657 165.774 296.745 165.774 296.918C165.774 297.018 165.874 297.126 165.995 297.158C166.659 297.332 167.718 297.701 168.341 297.976C168.73 298.147 169.686 298.542 170.465 298.853C171.244 299.164 172.041 299.483 172.236 299.562C172.431 299.641 173.028 299.877 173.563 300.087C174.099 300.296 174.696 300.54 174.891 300.629C175.086 300.717 176.002 301.08 176.927 301.435C177.852 301.79 178.848 302.181 179.14 302.304C179.432 302.426 180.308 302.784 181.087 303.098C181.866 303.413 182.663 303.739 182.858 303.823C183.052 303.907 184.845 304.619 186.841 305.407C188.837 306.194 190.629 306.91 190.824 306.996C191.345 307.228 196.004 309.111 196.932 309.464C197.975 309.861 202.231 311.568 202.685 311.772C203.241 312.021 222.868 319.872 224.549 320.518C225.376 320.836 226.492 321.298 227.027 321.544C227.563 321.791 228.083 321.999 228.183 322.007C228.283 322.015 230.752 321.065 233.671 319.895ZM213.433 286.121C214.442 285.838 215.964 284.346 216.382 283.229C216.978 281.64 217.009 281.125 216.595 279.764C216.283 278.737 216.054 278.357 215.287 277.593C214.184 276.495 213.076 276.041 211.537 276.056C208.901 276.083 206.69 278.12 206.371 280.816C206.188 282.354 207.213 284.491 208.584 285.432C210.021 286.418 211.582 286.639 213.433 286.121ZM245.881 286.294C247.725 286.028 249.045 285.042 249.892 283.297C250.49 282.065 250.441 280.128 249.781 278.918C248.071 275.779 244.09 275.049 241.612 277.42C239.534 279.409 239.367 282.513 241.223 284.619C241.976 285.474 242.589 285.864 243.757 286.233C244.637 286.511 244.424 286.504 245.881 286.294Z" fill="currentcolor"/>

</svg>
