<svg  viewBox="0 0 1180 580" fill="currentcolor" xmlns="http://www.w3.org/2000/svg">
<path d="M194.741 223.323C155.348 256.326 185.712 316.234 217.412 320.584C233.215 322.752 232.128 318.643 238.079 333.114C238.079 333.114 239.583 333.341 240.222 333.021C240.762 332.751 241.368 331.621 241.368 331.621C233.419 316.165 232.082 319.335 221.194 317.664C179.547 311.273 161.61 252.925 195.489 223.681L194.741 223.323Z" fill="currentcolor"/>
<path d="M219.185 321.922C210.455 321.504 196.543 329.208 196.723 331.657C198.218 335.36 224.408 339.123 226.919 326.7L225.843 326.282C224.468 330.283 216.037 335.3 205.513 331.12C206.828 329.149 219.185 321.922 219.185 321.922Z" fill="currentcolor"/>
<path d="M220.753 322.757C216.07 323.914 209.933 330.184 210.415 331.451C211.792 333.173 226.236 331.028 225.599 324.063L224.963 324.012C224.869 326.345 221.205 330.328 214.978 329.779C215.362 328.529 218.959 324.459 222.068 323.354C222.008 322.369 220.753 322.757 220.753 322.757Z" fill="currentcolor"/>
<path d="M224.636 313.374C226.474 314.6 226.592 312.537 226.383 311.881C224.197 305.034 214.176 294.889 212.538 295.346C210.553 299.938 211.559 316.654 221.176 316.653L221.325 315.792C218.142 315.372 213.146 309.869 214.676 301.432C216.339 302.113 224.636 313.374 224.636 313.374Z" fill="currentcolor"/>
<path d="M221.966 311.282C220.945 308.095 216.309 304.139 215.452 304.532C214.322 305.565 216.482 315.463 221.285 314.698L221.291 314.255C219.668 314.299 216.733 311.948 216.825 307.612C217.71 307.82 220.701 310.12 221.612 312.221C222.293 312.134 221.966 311.282 221.966 311.282Z" fill="currentcolor"/>
<path d="M201.315 314.145C194.356 310.142 179.204 310.563 178.111 312.221C178.237 315.394 198.353 330.393 205.627 321.294L204.923 320.501C202.117 323.194 193.118 323.759 186.275 315.928C188.178 314.869 201.315 314.145 201.315 314.145Z" fill="currentcolor"/>
<path d="M202.245 315.485C197.932 314.467 190.28 317.018 190.142 318.255C190.543 320.24 203.25 324.545 205.657 318.585L205.159 318.276C204.101 320.144 199.432 321.863 194.574 318.802C195.413 317.942 200.063 316.124 203.069 316.525C203.434 315.695 202.245 315.485 202.245 315.485Z" fill="currentcolor"/>
<path d="M207.921 308.917C209.701 311.771 210.716 309.393 210.704 308.728C210.575 301.791 204.109 288.889 202.468 288.86C199.361 292.56 195.67 308.302 204.567 310.954L204.943 310.199C202.115 308.932 199.014 302.463 202.762 295.08C207.545 300.433 206.582 305.406 207.921 308.917Z" fill="currentcolor"/>
<path d="M206.783 306.204C206.72 302.973 203.525 298.034 202.624 298.162C201.292 298.805 200.554 308.559 205.209 309.175L205.337 308.768C203.823 308.361 201.758 305.376 203.041 301.39C203.803 301.826 205.934 304.779 206.196 306.974C206.851 307.081 206.783 306.204 206.783 306.204Z" fill="currentcolor"/>
<path d="M195.278 297.028C196.243 299.877 197.377 299.425 197.533 297.355C198.004 291.112 196.865 279.465 194.847 278.941C190.141 282.913 184.868 291.615 192.268 298.24L192.69 297.636C190.632 296.01 189.191 289.718 193.373 283.833C196.339 289.432 194.77 293.674 195.278 297.028Z" fill="currentcolor"/>
<path d="M187.301 300.318C182.367 294.433 169.264 289.118 167.736 290.249C166.803 293.141 179.283 313.944 188.819 308.16L188.448 307.216C185.039 308.713 177.003 304.783 173.435 295.496C175.495 295.171 187.301 300.318 187.301 300.318Z" fill="currentcolor"/>
<path d="M187.3 301.245C184.141 298.768 177.162 297.969 176.46 298.223C175.85 300.062 183.83 309.249 188.663 305.437L188.396 304.945C186.629 305.996 181.932 305.21 179.35 300.365C180.456 300.047 185.184 300.741 187.491 302.499C188.189 301.982 187.3 301.245 187.3 301.245Z" fill="currentcolor"/>
<path d="M194.862 294.595C195.33 291.718 193.568 286.767 192.827 286.72C191.659 287.054 189.502 295.578 193.126 296.953L193.294 296.614C192.149 295.983 190.976 292.968 192.643 289.659C193.182 290.181 194.412 293.181 194.269 295.175C194.775 295.386 194.862 294.595 194.862 294.595Z" fill="currentcolor"/>
<path d="M179.209 284.73C176.243 278.192 165.061 268.826 163.401 269.462C161.834 271.833 169.36 291.777 178.399 291.046L178.134 289.768C175.357 289.594 171.03 287.635 167.72 275.783C169.657 276.006 179.126 285.733 179.209 284.73Z" fill="currentcolor"/>
<path d="M178.296 285.047C176.21 282.213 171.007 279.774 170.353 279.823C169.405 281.233 173.564 289.906 178.669 288.448L178.559 287.97C176.82 288.442 173.038 286.676 171.997 281.977C173.006 281.968 176.501 284.083 178.036 286.11C178.747 285.837 178.296 285.047 178.296 285.047Z" fill="currentcolor"/>
<path d="M186.032 284.653C186.179 287.378 186.89 287.064 187.923 285.489C191.536 279.98 192.217 269.022 190.581 268.072C185.497 270.395 178.259 277.383 183.106 284.977L183.622 284.553C182.221 282.629 182.5 276.779 187.595 272.657C188.817 278.274 186.409 281.598 186.032 284.653Z" fill="currentcolor"/>
<path d="M186.264 282.425C187.377 280.025 187.047 275.268 186.411 275.046C185.309 275.054 181.34 281.977 184.171 284.062L184.4 283.807C183.553 282.976 183.266 280.055 185.532 277.57C185.875 278.158 186.217 281.079 185.604 282.787C185.995 283.095 186.264 282.425 186.264 282.425Z" fill="currentcolor"/>
<path d="M176.072 268.963C174.862 262.527 167.193 251.037 165.584 251.241C163.681 253.004 165.815 273.075 173.984 274.384L174.026 273.194C171.603 272.439 168.193 269.766 167.832 258.547C169.5 259.164 175.78 269.834 176.072 268.963Z" fill="currentcolor"/>
<path d="M175.194 269.046C173.961 266.083 169.879 262.795 169.289 262.697C168.143 263.742 169.947 272.327 174.786 272.14L174.793 271.693C173.149 271.735 170.181 269.351 170.279 264.961C171.175 265.172 173.813 267.803 174.733 269.931C175.423 269.844 175.194 269.046 175.194 269.046Z" fill="currentcolor"/>
<path d="M181.278 270.763C180.633 273.144 181.332 273.076 182.666 272.014C187.327 268.303 190.776 258.715 189.64 257.437C184.616 257.997 176.66 262.324 178.673 270.215L179.237 269.996C178.578 267.949 180.473 263.003 186.015 260.901C185.475 266.07 182.466 268.245 181.278 270.763Z" fill="currentcolor"/>
<path d="M182.108 268.915C183.743 267.167 184.805 262.989 184.322 262.619C183.373 262.314 178.006 267.139 179.847 269.73L180.116 269.575C179.624 268.623 180.204 266.033 182.853 264.538C182.981 265.14 182.448 267.745 181.439 269.039C181.687 269.414 182.108 268.915 182.108 268.915Z" fill="currentcolor"/>
<path d="M176.323 253.55C176.576 247.639 172.181 235.962 170.723 235.813C168.688 236.975 166.454 255.073 173.374 257.894L173.655 256.856C171.677 255.695 169.225 252.647 171.205 242.701C172.547 243.584 175.887 254.257 176.323 253.55Z" fill="currentcolor"/>
<path d="M175.533 253.444C175.054 250.584 172.136 246.857 171.637 246.65C170.415 247.335 170.243 255.259 174.54 256.083L174.637 255.691C173.183 255.392 171.059 252.688 172.044 248.845C172.789 249.214 174.572 252.068 174.946 254.129C175.57 254.192 175.533 253.444 175.533 253.444Z" fill="currentcolor"/>
<path d="M180.078 240.752C181.397 235.706 179.786 224.829 178.558 224.429C176.587 225.052 171.291 240.23 176.728 243.947L177.164 243.105C175.676 241.738 174.131 238.655 177.69 230.453C178.681 231.464 179.571 241.28 180.078 240.752Z" fill="currentcolor"/>
<path d="M179.417 240.514C179.538 237.961 177.717 234.208 177.326 233.937C176.145 234.3 174.522 241.095 178.07 242.604L178.227 242.284C177.029 241.756 175.703 239.031 177.268 235.903C177.841 236.359 178.846 239.15 178.784 240.995C179.31 241.166 179.417 240.514 179.417 240.514Z" fill="currentcolor"/>
<path d="M181.085 256.59C179.814 258.52 180.456 258.664 181.953 258.109C187.186 256.171 193.062 248.65 192.426 247.181C187.793 246.212 179.449 247.735 178.928 255.342L179.494 255.312C179.508 253.298 182.642 249.453 188.187 249.203C186.193 253.643 182.879 254.698 181.085 256.59Z" fill="currentcolor"/>
<path d="M182.364 255.189C184.33 254.113 186.5 250.707 186.178 250.237C185.423 249.688 179.236 252.411 180.115 255.253L180.399 255.194C180.241 254.204 181.515 252.07 184.309 251.514C184.247 252.087 183.009 254.248 181.733 255.105C181.844 255.51 182.364 255.189 182.364 255.189Z" fill="currentcolor"/>
<path d="M183.335 245.112C181.749 246.576 182.298 246.849 183.779 246.683C188.956 246.101 195.97 240.606 195.725 239.133C191.746 237.215 183.844 236.723 181.661 243.498L182.181 243.598C182.646 241.776 186.35 238.996 191.43 240.013C188.625 243.588 185.386 243.801 183.335 245.112Z" fill="currentcolor"/>
<path d="M184.808 244.13C186.832 243.596 189.563 240.997 189.377 240.499C188.817 239.832 182.599 240.912 182.756 243.683L183.027 243.694C183.106 242.761 184.741 241.113 187.396 241.237C187.211 241.742 185.604 243.422 184.255 243.912C184.264 244.304 184.808 244.13 184.808 244.13Z" fill="currentcolor"/>
<path d="M189.131 234.344C187.5 235.197 187.891 235.544 189.147 235.736C193.538 236.406 200.535 233.44 200.661 232.172C197.812 229.71 191.416 227.551 188.113 232.644L188.518 232.841C189.306 231.445 192.974 229.979 196.929 231.944C193.824 234.264 191.111 233.72 189.131 234.344Z" fill="currentcolor"/>
<path d="M190.562 233.863C192.347 233.872 195.173 232.34 195.132 231.888C194.818 231.215 189.46 230.723 188.972 233.04L189.193 233.108C189.466 232.358 191.178 231.365 193.337 232.056C193.072 232.43 191.375 233.457 190.156 233.56C190.076 233.886 190.562 233.863 190.562 233.863Z" fill="currentcolor"/>
<path d="M187.005 229.524C188.699 225.623 188.762 216.659 187.822 216.184C186.157 216.44 179.992 228.007 183.907 231.679L184.363 231.055C183.336 229.768 182.476 227.092 186.369 220.929C187.042 221.867 186.531 229.886 187.005 229.524Z" fill="currentcolor"/>
<path d="M186.503 229.249C186.919 227.208 185.922 223.957 185.641 223.69C184.644 223.835 182.486 229.106 185.156 230.765L185.323 230.527C184.424 229.952 183.696 227.591 185.348 225.267C185.753 225.706 186.213 228.079 185.932 229.558C186.335 229.761 186.503 229.249 186.503 229.249Z" fill="currentcolor"/>
<path d="M195.054 222.302C198.134 221.55 199.839 212.303 198.565 210.781C195.955 210.352 189.272 219.276 191.815 223.444L192.366 223.007C191.777 221.629 191.672 219.075 196.58 214.611C196.943 215.597 194.55 222.505 195.054 222.302Z" fill="currentcolor"/>
<path d="M194.68 221.94C195.54 220.251 195.454 217.159 195.272 216.856C194.363 216.743 191.192 220.843 193.132 222.944L193.335 222.775C192.686 222.053 192.621 219.807 194.633 218.168C194.881 218.651 194.71 220.844 194.105 222.073C194.409 222.349 194.68 221.94 194.68 221.94Z" fill="currentcolor"/>
<path d="M196.542 226.489C195.038 226.837 195.283 227.202 196.262 227.622C199.685 229.091 205.992 228.158 206.362 227.156C204.57 224.556 199.833 221.456 196.075 224.894L196.362 225.139C197.297 224.172 200.585 223.755 203.381 226.183C200.37 227.413 198.282 226.399 196.542 226.489Z" fill="currentcolor"/>
<path d="M197.807 226.4C199.253 226.783 201.872 226.135 201.933 225.759C201.821 225.147 197.575 223.618 196.69 225.396L196.854 225.498C197.234 224.947 198.834 224.501 200.441 225.517C200.147 225.766 198.552 226.242 197.54 226.068C197.407 226.316 197.807 226.4 197.807 226.4Z" fill="currentcolor"/>
<path d="M201.027 220.823C202.771 221.447 207.871 217.519 207.741 216.367C206.607 215.318 199.392 216.763 200.279 220.573C201.052 220.529 200.583 220.757 201.027 220.823Z" fill="currentcolor"/>
<path d="M275.452 223.323C314.845 256.326 284.481 316.234 252.78 320.584C236.977 322.752 238.065 318.643 232.114 333.114C232.114 333.114 230.61 333.341 229.971 333.021C229.431 332.751 228.825 331.621 228.825 331.621C236.774 316.165 238.111 319.335 248.999 317.664C290.646 311.273 308.583 252.925 274.704 223.681L275.452 223.323Z" fill="currentcolor"/>
<path d="M251.008 321.922C259.738 321.504 273.65 329.208 273.47 331.657C271.975 335.36 245.785 339.123 243.273 326.7L244.35 326.282C245.725 330.283 254.156 335.3 264.68 331.12C263.365 329.149 251.008 321.922 251.008 321.922Z" fill="currentcolor"/>
<path d="M249.44 322.757C254.123 323.914 260.26 330.184 259.777 331.451C258.401 333.173 243.956 331.028 244.594 324.063L245.229 324.012C245.323 326.345 248.988 330.328 255.214 329.779C254.831 328.529 251.234 324.459 248.125 323.354C248.184 322.369 249.44 322.757 249.44 322.757Z" fill="currentcolor"/>
<path d="M245.557 313.374C243.719 314.6 243.601 312.537 243.81 311.881C245.995 305.034 256.017 294.889 257.655 295.346C259.64 299.938 258.634 316.654 249.017 316.653L248.868 315.792C252.05 315.372 257.047 309.869 255.517 301.432C253.854 302.113 245.557 313.374 245.557 313.374Z" fill="currentcolor"/>
<path d="M248.227 311.282C249.248 308.095 253.884 304.139 254.74 304.532C255.871 305.565 253.711 315.463 248.907 314.698L248.902 314.255C250.525 314.299 253.46 311.948 253.368 307.612C252.483 307.82 249.492 310.12 248.58 312.221C247.899 312.134 248.227 311.282 248.227 311.282Z" fill="currentcolor"/>
<path d="M268.878 314.145C275.837 310.142 290.989 310.563 292.081 312.221C291.956 315.394 271.84 330.393 264.565 321.294L265.269 320.501C268.075 323.194 277.075 323.759 283.918 315.928C282.015 314.869 268.878 314.145 268.878 314.145Z" fill="currentcolor"/>
<path d="M267.948 315.485C272.261 314.467 279.912 317.018 280.051 318.255C279.65 320.24 266.943 324.545 264.536 318.585L265.034 318.276C266.091 320.144 270.761 321.863 275.619 318.802C274.78 317.942 270.129 316.124 267.124 316.525C266.758 315.695 267.948 315.485 267.948 315.485Z" fill="currentcolor"/>
<path d="M262.271 308.917C260.491 311.771 259.477 309.393 259.489 308.728C259.617 301.791 266.084 288.889 267.725 288.86C270.832 292.56 274.523 308.302 265.626 310.954L265.249 310.199C268.078 308.932 271.179 302.463 267.43 295.08C262.648 300.433 263.611 305.406 262.271 308.917Z" fill="currentcolor"/>
<path d="M263.41 306.204C263.473 302.973 266.668 298.034 267.569 298.162C268.901 298.805 269.639 308.559 264.984 309.175L264.856 308.768C266.37 308.361 268.435 305.376 267.151 301.39C266.39 301.826 264.259 304.779 263.996 306.974C263.342 307.081 263.41 306.204 263.41 306.204Z" fill="currentcolor"/>
<path d="M274.915 297.028C273.95 299.877 272.816 299.425 272.66 297.355C272.189 291.112 273.328 279.465 275.346 278.941C280.052 282.913 285.324 291.615 277.925 298.24L277.503 297.636C279.561 296.01 281.002 289.718 276.819 283.833C273.854 289.432 275.423 293.674 274.915 297.028Z" fill="currentcolor"/>
<path d="M282.892 300.318C287.826 294.433 300.929 289.118 302.456 290.249C303.389 293.141 290.91 313.944 281.374 308.16L281.745 307.216C285.154 308.713 293.19 304.783 296.758 295.496C294.698 295.171 282.892 300.318 282.892 300.318Z" fill="currentcolor"/>
<path d="M282.892 301.245C286.052 298.768 293.03 297.969 293.733 298.223C294.343 300.062 286.362 309.249 281.53 305.437L281.797 304.945C283.563 305.996 288.261 305.21 290.843 300.365C289.737 300.047 285.009 300.741 282.702 302.499C282.003 301.982 282.892 301.245 282.892 301.245Z" fill="currentcolor"/>
<path d="M275.331 294.595C274.863 291.718 276.625 286.767 277.366 286.72C278.534 287.054 280.69 295.578 277.066 296.953L276.899 296.614C278.044 295.983 279.216 292.968 277.55 289.659C277.011 290.181 275.781 293.181 275.923 295.175C275.418 295.386 275.331 294.595 275.331 294.595Z" fill="currentcolor"/>
<path d="M290.984 284.73C293.95 278.192 305.131 268.826 306.792 269.462C308.359 271.833 300.833 291.777 291.794 291.046L292.058 289.768C294.836 289.594 299.163 287.635 302.473 275.783C300.536 276.006 291.067 285.733 290.984 284.73Z" fill="currentcolor"/>
<path d="M291.897 285.047C293.982 282.213 299.186 279.774 299.839 279.823C300.787 281.233 296.628 289.906 291.524 288.448L291.634 287.97C293.373 288.442 297.155 286.676 298.196 281.977C297.187 281.968 293.692 284.083 292.157 286.11C291.445 285.837 291.897 285.047 291.897 285.047Z" fill="currentcolor"/>
<path d="M284.161 284.653C284.014 287.378 283.303 287.064 282.269 285.489C278.657 279.98 277.976 269.022 279.612 268.072C284.696 270.395 291.934 277.383 287.087 284.977L286.57 284.553C287.972 282.629 287.692 276.779 282.598 272.657C281.376 278.274 283.784 281.598 284.161 284.653Z" fill="currentcolor"/>
<path d="M283.929 282.425C282.816 280.025 283.146 275.268 283.781 275.046C284.884 275.054 288.853 281.977 286.022 284.062L285.793 283.807C286.639 282.976 286.927 280.055 284.661 277.57C284.318 278.158 283.976 281.079 284.589 282.787C284.198 283.095 283.929 282.425 283.929 282.425Z" fill="currentcolor"/>
<path d="M294.121 268.963C295.331 262.527 302.999 251.037 304.609 251.241C306.512 253.004 304.378 273.075 296.209 274.384L296.166 273.194C298.59 272.439 301.999 269.766 302.361 258.547C300.692 259.164 294.413 269.834 294.121 268.963Z" fill="currentcolor"/>
<path d="M294.999 269.046C296.232 266.083 300.314 262.795 300.903 262.697C302.05 263.742 300.246 272.327 295.407 272.14L295.4 271.693C297.044 271.735 300.012 269.351 299.914 264.961C299.018 265.172 296.38 267.803 295.46 269.931C294.77 269.844 294.999 269.046 294.999 269.046Z" fill="currentcolor"/>
<path d="M288.915 270.763C289.559 273.144 288.86 273.076 287.527 272.014C282.866 268.303 279.417 258.715 280.553 257.437C285.577 257.997 293.533 262.324 291.52 270.215L290.956 269.996C291.615 267.949 289.72 263.003 284.178 260.901C284.718 266.07 287.726 268.245 288.915 270.763Z" fill="currentcolor"/>
<path d="M288.085 268.915C286.45 267.167 285.387 262.989 285.871 262.619C286.82 262.314 292.187 267.139 290.346 269.73L290.077 269.575C290.569 268.623 289.989 266.033 287.34 264.538C287.212 265.14 287.745 267.745 288.754 269.039C288.506 269.414 288.085 268.915 288.085 268.915Z" fill="currentcolor"/>
<path d="M293.87 253.55C293.617 247.639 298.012 235.962 299.47 235.813C301.505 236.975 303.739 255.073 296.819 257.894L296.537 256.856C298.515 255.695 300.968 252.647 298.988 242.701C297.646 243.584 294.306 254.257 293.87 253.55Z" fill="currentcolor"/>
<path d="M294.66 253.444C295.138 250.584 298.057 246.857 298.556 246.65C299.778 247.335 299.949 255.259 295.653 256.083L295.555 255.691C297.01 255.392 299.134 252.688 298.149 248.845C297.404 249.214 295.621 252.068 295.247 254.129C294.622 254.192 294.66 253.444 294.66 253.444Z" fill="currentcolor"/>
<path d="M290.115 240.752C288.795 235.706 290.407 224.829 291.635 224.429C293.606 225.052 298.901 240.23 293.464 243.947L293.029 243.105C294.517 241.738 296.062 238.655 292.503 230.453C291.512 231.464 290.621 241.28 290.115 240.752Z" fill="currentcolor"/>
<path d="M290.775 240.514C290.655 237.961 292.475 234.208 292.866 233.937C294.047 234.3 295.671 241.095 292.123 242.604L291.965 242.284C293.163 241.756 294.489 239.031 292.925 235.903C292.351 236.359 291.347 239.15 291.409 240.995C290.882 241.166 290.775 240.514 290.775 240.514Z" fill="currentcolor"/>
<path d="M289.108 256.59C290.379 258.52 289.737 258.664 288.24 258.109C283.007 256.171 277.131 248.65 277.767 247.181C282.399 246.212 290.744 247.735 291.264 255.342L290.699 255.312C290.685 253.298 287.551 249.453 282.006 249.203C284 253.643 287.313 254.698 289.108 256.59Z" fill="currentcolor"/>
<path d="M287.829 255.189C285.862 254.113 283.693 250.707 284.015 250.237C284.77 249.688 290.957 252.411 290.078 255.253L289.794 255.194C289.952 254.204 288.678 252.07 285.884 251.514C285.946 252.087 287.183 254.248 288.46 255.105C288.349 255.51 287.829 255.189 287.829 255.189Z" fill="currentcolor"/>
<path d="M286.858 245.112C288.444 246.576 287.894 246.849 286.413 246.683C281.237 246.101 274.223 240.606 274.468 239.133C278.447 237.215 286.349 236.723 288.531 243.498L288.012 243.598C287.547 241.776 283.843 238.996 278.763 240.013C281.568 243.588 284.807 243.801 286.858 245.112Z" fill="currentcolor"/>
<path d="M285.384 244.13C283.361 243.596 280.63 240.997 280.816 240.499C281.376 239.832 287.594 240.912 287.437 243.683L287.166 243.694C287.087 242.761 285.452 241.113 282.796 241.237C282.981 241.742 284.588 243.422 285.938 243.912C285.928 244.304 285.384 244.13 285.384 244.13Z" fill="currentcolor"/>
<path d="M281.062 234.344C282.693 235.197 282.302 235.544 281.046 235.736C276.655 236.406 269.658 233.44 269.532 232.172C272.381 229.71 278.776 227.551 282.08 232.644L281.675 232.841C280.887 231.445 277.219 229.979 273.264 231.944C276.368 234.264 279.082 233.72 281.062 234.344Z" fill="currentcolor"/>
<path d="M279.63 233.863C277.846 233.872 275.02 232.34 275.061 231.888C275.374 231.215 280.733 230.723 281.221 233.04L281 233.108C280.727 232.358 279.015 231.365 276.856 232.056C277.121 232.43 278.818 233.457 280.037 233.56C280.117 233.886 279.63 233.863 279.63 233.863Z" fill="currentcolor"/>
<path d="M283.188 229.524C281.494 225.623 281.431 216.659 282.371 216.184C284.036 216.44 290.201 228.007 286.286 231.679L285.829 231.055C286.857 229.768 287.717 227.092 283.823 220.929C283.151 221.867 283.662 229.886 283.188 229.524Z" fill="currentcolor"/>
<path d="M283.69 229.249C283.274 227.208 284.271 223.957 284.552 223.69C285.549 223.835 287.707 229.106 285.037 230.765L284.87 230.527C285.769 229.952 286.497 227.591 284.845 225.267C284.44 225.706 283.98 228.079 284.261 229.558C283.858 229.761 283.69 229.249 283.69 229.249Z" fill="currentcolor"/>
<path d="M275.139 222.302C272.059 221.55 270.353 212.303 271.628 210.781C274.238 210.352 280.921 219.276 278.378 223.444L277.827 223.007C278.416 221.629 278.521 219.075 273.612 214.611C273.25 215.597 275.642 222.505 275.139 222.302Z" fill="currentcolor"/>
<path d="M275.513 221.94C274.653 220.251 274.739 217.159 274.921 216.856C275.83 216.743 279 220.843 277.061 222.944L276.857 222.775C277.506 222.053 277.572 219.807 275.56 218.168C275.311 218.651 275.483 220.844 276.088 222.073C275.784 222.349 275.513 221.94 275.513 221.94Z" fill="currentcolor"/>
<path d="M273.65 226.489C275.154 226.837 274.91 227.202 273.931 227.622C270.508 229.091 264.2 228.158 263.831 227.156C265.623 224.556 270.36 221.456 274.118 224.894L273.83 225.139C272.896 224.172 269.608 223.755 266.812 226.183C269.823 227.413 271.911 226.399 273.65 226.489Z" fill="currentcolor"/>
<path d="M272.386 226.4C270.939 226.783 268.321 226.135 268.26 225.759C268.372 225.147 272.618 223.618 273.503 225.396L273.339 225.498C272.959 224.947 271.359 224.501 269.752 225.517C270.046 225.766 271.641 226.242 272.653 226.068C272.786 226.316 272.386 226.4 272.386 226.4Z" fill="currentcolor"/>
<path d="M269.166 220.823C267.422 221.447 262.322 217.519 262.452 216.367C263.586 215.318 270.801 216.763 269.914 220.573C269.141 220.529 269.61 220.757 269.166 220.823Z" fill="currentcolor"/>
<path d="M200.696 273.256V270.407C201.482 270.779 202.278 271.062 203.084 271.259C203.89 271.455 204.681 271.553 205.456 271.553C207.523 271.553 209.099 270.861 210.184 269.478C211.28 268.084 211.905 265.973 212.06 263.145C211.461 264.032 210.701 264.714 209.781 265.189C208.861 265.664 207.843 265.901 206.727 265.901C204.412 265.901 202.577 265.204 201.223 263.811C199.88 262.407 199.208 260.492 199.208 258.066C199.208 255.691 199.911 253.787 201.316 252.352C202.722 250.917 204.593 250.2 206.929 250.2C209.605 250.2 211.646 251.227 213.052 253.281C214.468 255.325 215.176 258.298 215.176 262.2C215.176 265.844 214.308 268.755 212.572 270.933C210.846 273.101 208.52 274.185 205.595 274.185C204.81 274.185 204.014 274.108 203.208 273.953C202.402 273.798 201.564 273.566 200.696 273.256ZM206.929 263.454C208.334 263.454 209.445 262.974 210.262 262.014C211.088 261.054 211.502 259.738 211.502 258.066C211.502 256.404 211.088 255.093 210.262 254.133C209.445 253.162 208.334 252.677 206.929 252.677C205.523 252.677 204.407 253.162 203.58 254.133C202.763 255.093 202.355 256.404 202.355 258.066C202.355 259.738 202.763 261.054 203.58 262.014C204.407 262.974 205.523 263.454 206.929 263.454Z" fill="currentcolor"/>
<path d="M227.945 251.03L230.548 250.174C230.993 250.723 231.268 251.442 231.374 252.33C231.585 254.085 230.834 255.766 229.119 257.373L228.77 257.182C229.067 256.781 229.257 256.241 229.342 255.565C229.553 254.212 229.204 252.869 228.294 251.537L227.945 251.03ZM232.072 251.03L234.676 250.174C235.12 250.723 235.395 251.442 235.501 252.33C235.713 254.085 234.961 255.766 233.247 257.373L232.898 257.182C233.194 256.781 233.385 256.241 233.469 255.565C233.681 254.212 233.332 252.869 232.422 251.537L232.072 251.03Z" fill="currentcolor"/>
<path d="M243.825 273.229C243.19 273.863 242.407 274.423 241.475 274.91C239.655 275.903 238.036 276.051 236.617 275.354C234.861 274.36 234.152 272.922 234.49 271.041C234.787 269.286 235.644 268.144 237.062 267.616C238.311 267.108 240.057 267.436 242.301 268.599C242.343 268.599 242.375 268.62 242.396 268.662L242.555 268.726C242.766 268.81 243.243 269.074 243.983 269.518C245.253 263.578 246.217 259.339 246.873 256.802C243.74 255.85 241.867 254.413 241.253 252.489C240.745 250.924 241.158 249.603 242.491 248.525C243.719 247.531 245.613 246.844 248.174 246.463C249.148 246.337 249.942 246.252 250.556 246.21C251.191 244.984 251.857 244.043 252.556 243.387C253.212 242.647 254.112 242.309 255.255 242.373C256.525 242.436 257.297 243.091 257.572 244.339C257.805 245.1 257.742 245.967 257.382 246.939C260.79 247.933 263.531 249.984 265.605 253.091C266.621 252.584 267.553 251.855 268.399 250.903C268.717 250.607 268.897 250.829 268.939 251.569C267.732 253.07 266.822 253.979 266.208 254.296C267.478 256.516 268.156 259.106 268.24 262.066C268.325 265.047 267.785 267.743 266.621 270.153C265.351 272.774 263.541 274.603 261.192 275.639C258.525 276.823 255.392 276.844 251.794 275.702C248.661 274.709 246.291 273.599 244.682 272.373C244.386 272.711 244.1 272.996 243.825 273.229ZM263.192 255.692C258.726 257.468 254.281 258.049 249.857 257.436C248.333 263.905 246.936 268.356 245.666 270.787C248.121 273.07 250.661 274.191 253.286 274.148C255.657 274.127 257.795 273.197 259.7 271.358C261.541 269.561 262.801 267.267 263.478 264.476C264.198 261.537 264.102 258.609 263.192 255.692ZM263.002 254.392C262.219 251.241 260.208 249.064 256.969 247.859C255.847 250.015 254.429 251.654 252.715 252.774C252.651 252.817 252.577 252.795 252.492 252.711L252.397 252.552C253.646 251.347 254.694 249.645 255.54 247.447C254.567 247.214 253.53 247.077 252.429 247.034C251.985 248.408 251.265 251.294 250.27 255.692C255.096 256.474 259.34 256.041 263.002 254.392ZM243.602 250.84C243.623 252.658 244.872 254.032 247.349 254.962C248.259 251.664 249.18 249.043 250.111 247.098C248.375 247.309 246.915 247.743 245.73 248.398C244.502 249.096 243.793 249.91 243.602 250.84ZM243.412 271.516C242.036 270.079 240.692 269.37 239.38 269.392C238.046 269.413 237.411 270.184 237.475 271.707C237.538 273.292 238.353 274 239.919 273.831C241.443 273.683 242.608 272.912 243.412 271.516ZM255.826 246.559C256.271 244.783 255.773 243.821 254.334 243.673C253.805 243.652 253.254 244.487 252.683 246.178C253.72 246.199 254.768 246.326 255.826 246.559Z" fill="currentcolor"/>
<path d="M269.368 251.03L271.972 250.174C272.416 250.723 272.692 251.442 272.797 252.33C273.009 254.085 272.258 255.766 270.543 257.373L270.194 257.182C270.49 256.781 270.681 256.241 270.766 255.565C270.977 254.212 270.628 252.869 269.718 251.537L269.368 251.03ZM273.496 251.03L276.099 250.174C276.544 250.723 276.819 251.442 276.925 252.33C277.137 254.085 276.385 255.766 274.671 257.373L274.322 257.182C274.618 256.781 274.808 256.241 274.893 255.565C275.105 254.212 274.755 252.869 273.845 251.537L273.496 251.03Z" fill="currentcolor"/>

</svg>
