<svg  viewBox="0 0 1180 580" fill="currentcolor" xmlns="http://www.w3.org/2000/svg">
<path d="M195.195 337.136C193.226 336.717 190.611 334.749 189.519 332.863C188.858 331.723 188.349 329.564 188.433 328.255C188.524 326.83 189.132 324.956 189.847 323.895C190.172 323.414 190.402 322.964 190.359 322.894C190.316 322.825 190.063 322.713 189.796 322.647C188.858 322.412 185.593 320.94 182.813 319.499C175.923 315.927 170.347 311.742 165.436 306.459C162.94 303.773 162.082 302.638 160.176 299.498C158.869 297.343 158.108 295.248 157.79 292.928C157.557 291.231 157.643 290.469 158.252 288.838C158.609 287.879 158.891 287.475 159.773 286.66L160.855 285.66L161.142 286.922C161.299 287.616 161.485 288.241 161.555 288.31C161.79 288.544 170.608 279.359 170.608 278.88C170.608 278.792 170.834 278.586 171.111 278.423C171.387 278.26 171.744 277.907 171.902 277.639C172.061 277.371 172.684 276.571 173.287 275.862C174.676 274.228 176.864 271.253 178.423 268.877C181.618 264.008 184.605 260.151 186.791 258.072C188.736 256.223 191.167 254.461 193.702 253.065C194.691 252.52 194.811 252.413 194.317 252.517C193.979 252.589 192.003 252.648 189.926 252.649C185.87 252.653 184.472 252.465 181.954 251.586C179.315 250.666 176.782 248.728 175.663 246.775C175.008 245.632 174.589 243.761 174.731 242.62C174.796 242.106 175.153 240.798 175.526 239.713L176.204 237.741L176.2 239.007C176.185 243.528 179.452 246.443 187.028 248.669C190.894 249.805 193.09 250.108 197.409 250.103C199.427 250.1 201.394 250.023 201.78 249.93C202.896 249.662 206.75 249.212 208.03 249.2L209.197 249.189L208.946 248.376C208.552 247.106 208.718 245.118 209.322 243.885C210.026 242.448 211.375 241.175 212.768 240.635C213.675 240.283 214.211 240.197 215.483 240.197C216.922 240.197 217.176 240.25 218.249 240.778C218.899 241.098 219.43 241.413 219.429 241.48C219.429 241.546 219.069 241.616 218.629 241.636C217.554 241.685 216.354 242.315 215.611 243.22C215.09 243.855 214.986 244.135 214.908 245.107C214.742 247.172 215.728 248.673 217.675 249.319C218.474 249.584 218.733 249.597 219.554 249.413C220.137 249.283 220.737 248.998 221.101 248.679L221.695 248.158L221.545 248.678C220.854 251.087 218.378 252.987 215.629 253.219C213.484 253.4 211.057 252.208 209.931 250.421C209.588 249.877 209.447 249.785 209.075 249.867C206.356 250.468 203.653 251.583 200.975 253.208C195.018 256.824 190.117 261.955 185.088 269.842C182.633 273.691 177.048 281.026 174.669 283.524C174.21 284.007 173.248 285.103 172.531 285.962C169.944 289.061 166.317 292.591 164.492 293.786L164.09 294.049L164.962 295.312C167.682 299.251 172.507 304.163 176.842 307.406C180.823 310.384 184.172 312.417 188.283 314.352C193.455 316.786 197.761 318.252 202.044 319.037C203.155 319.24 204.38 319.477 204.766 319.562C206.777 320.005 208.861 320.136 212.599 320.054C217.312 319.951 218.62 319.682 222.397 318.042C222.598 317.955 222.626 318.172 222.557 319.248C222.306 323.158 218.687 325.669 212.217 326.424C208.587 326.848 201.959 326.317 197.977 325.284C196.109 324.799 196.135 324.788 195.608 326.325C194.875 328.461 195.434 330.889 197.022 332.465C198.311 333.746 198.992 334.025 201.003 334.1C202.339 334.149 202.825 334.096 203.374 333.849C203.753 333.677 204.143 333.502 204.239 333.462C204.336 333.421 203.901 333.915 203.273 334.559C202.431 335.423 201.747 335.921 200.663 336.46C199.278 337.149 199.099 337.192 197.502 337.229C196.571 337.25 195.533 337.208 195.195 337.136ZM224.118 312.16C222.337 310.397 220.309 307.416 220.309 306.562C220.309 306.456 220.163 306.241 219.985 306.085C219.509 305.668 219.312 305.22 219.089 304.047C218.611 301.527 218.532 297.019 218.903 293.435C219.099 291.541 219.962 286.553 220.389 284.84C220.92 282.712 221.916 277.382 222.228 275C222.832 270.381 222.488 265.395 221.278 261.246C220.763 259.48 219.281 256.289 218.326 254.888C217.981 254.381 217.755 253.967 217.825 253.967C218.156 253.967 221.146 256.535 223.062 258.466C225.622 261.045 227.144 263.118 228.132 265.369C228.977 267.295 229.363 269.532 229.184 271.458C228.928 274.207 228.499 277.339 228.12 279.226C227.304 283.295 226.788 285.637 226.633 285.98C226.545 286.173 226.432 286.686 226.382 287.12C226.225 288.464 225.978 290.122 225.689 291.769C225.181 294.657 224.882 297.878 224.878 300.501C224.874 301.917 224.924 302.236 225.157 302.325C225.312 302.384 226.241 302.337 227.221 302.22C236.784 301.076 247.297 297.298 255.645 292.003C259.02 289.862 260.532 288.648 263.08 286.031C265.132 283.924 265.168 283.874 264.653 283.825C264.363 283.797 263.712 283.693 263.207 283.593C262.701 283.494 262.227 283.406 262.153 283.398C261.609 283.342 258.871 282.275 257.918 281.749C256.4 280.911 254.444 279.322 253.93 278.509C253.707 278.156 253.327 277.817 253.085 277.757C252.844 277.696 252.596 277.489 252.535 277.296C252.474 277.104 252.357 276.946 252.275 276.946C251.958 276.946 248.525 272.309 246.3 268.877C241.988 262.226 240.658 260.415 238.327 258.025C234.566 254.17 230.09 251.517 225.841 250.624C224.647 250.373 224.195 250.108 224.962 250.108C225.656 250.108 228.175 249.777 229.87 249.464C231.811 249.105 237.177 247.301 238.947 246.413C243.798 243.978 247.487 240.889 249.036 237.965C249.666 236.776 249.717 236.568 249.78 234.934C249.847 233.212 249.739 232.636 249.019 230.9C248.761 230.278 251.589 233.854 252.001 234.671C253.004 236.659 253.061 239.245 252.145 241.199C251.455 242.673 250.072 244.43 248.893 245.33C247.444 246.436 244.962 247.78 243.479 248.259C241.542 248.885 238.881 249.542 237.296 249.785C236.545 249.9 235.992 250.046 236.067 250.109C236.141 250.172 236.716 250.359 237.344 250.524C238.938 250.944 240.441 251.72 241.755 252.803C243.5 254.242 246.731 258.665 251.227 265.769C251.947 266.906 253.306 268.87 254.248 270.133C255.189 271.397 255.967 272.559 255.977 272.715C255.986 272.871 256.492 273.433 257.101 273.964C257.711 274.495 258.217 275.027 258.226 275.148C258.235 275.269 258.347 275.367 258.474 275.367C258.6 275.367 258.936 275.613 259.22 275.914C259.869 276.602 264.782 280.91 265.657 281.558L266.31 282.042L266.643 281.38C266.826 281.015 267.114 280.296 267.283 279.781L267.59 278.844L268.166 279.402C269.52 280.713 270.108 282.821 269.678 284.824C269.415 286.049 268.315 288.243 267.325 289.519C266.47 290.621 263.217 293.85 261.931 294.873C260.798 295.775 257.732 297.868 256.681 298.458C256.188 298.734 255.785 299.02 255.784 299.092C255.784 299.164 256.081 299.225 256.443 299.226C256.805 299.226 257.22 299.306 257.365 299.399C257.589 299.544 257.581 299.569 257.314 299.572C256.807 299.576 255.739 300.199 255.155 300.831C254.129 301.94 253.901 303.922 254.638 305.325C255.251 306.49 255.43 306.682 256.391 307.192C257.049 307.541 257.495 307.644 258.363 307.644C259.76 307.644 260.577 307.311 261.419 306.4L262.075 305.69L261.932 306.324C261.443 308.487 259.724 310.379 257.685 310.998C256.109 311.476 254.907 311.373 253.398 310.631C252.026 309.957 250.654 308.51 250.275 307.339C249.693 305.541 249.873 303.273 250.685 302.177C251.19 301.494 251.138 301.448 250.328 301.861C249.246 302.412 243.798 304.544 241.91 305.154C237.048 306.727 231.396 307.871 227.161 308.14L225.32 308.257L225.354 309.121C225.385 309.939 225.657 312.075 225.862 313.125C225.918 313.411 225.879 313.608 225.768 313.608C225.664 313.608 224.921 312.956 224.118 312.16ZM139.433 289.839C139.494 289.26 139.737 287.858 139.972 286.722C142.209 275.948 145.049 269.737 149.818 265.19C154.805 260.436 162.158 256.555 169.763 254.663C170.952 254.367 172.043 254.092 172.188 254.051C172.344 254.007 172.317 254.064 172.124 254.191C167.275 257.364 163.526 260.001 161.239 261.849C155.703 266.324 151.256 270.898 148.01 275.455C145.678 278.73 142.459 284.29 140.461 288.495L139.322 290.891L139.433 289.839ZM127.688 270.492C128.903 263.2 131.601 257.24 135.255 253.777C138.282 250.91 141.966 249.24 148.392 247.825C152.946 246.822 156.207 245.589 156.207 244.87C156.207 244.44 155.742 244.073 154.89 243.831C154.503 243.722 153.318 243.383 152.255 243.079C147.818 241.808 146.327 240.266 147.375 238.031C147.908 236.893 149.551 235.425 151.062 234.737C152.927 233.888 156.198 232.981 158.651 232.632C161.515 232.225 166.851 232.213 168.939 232.608C171.541 233.1 174.81 234.103 176.491 234.925L178.072 235.698L176.228 235.579C173.853 235.426 163.843 235.425 162.353 235.579C157.984 236.025 155.495 236.685 154.329 237.708C153.74 238.225 153.714 238.296 153.788 239.182C153.843 239.847 153.984 240.24 154.28 240.555C154.833 241.143 156.01 241.786 156.846 241.958C157.219 242.034 157.642 242.121 157.787 242.152C158.229 242.243 160.757 242.547 162.666 242.737C165.78 243.048 166.304 243.542 165.058 244.996C164.174 246.027 161.847 247.112 158.578 248.017C152.217 249.778 149.919 250.565 146.862 252.029C141.716 254.495 136.408 259.267 132.218 265.195C131.035 266.869 128.529 270.862 127.959 271.981C127.754 272.384 127.519 272.755 127.437 272.806C127.355 272.856 127.468 271.816 127.688 270.494V270.492ZM296.441 261.367C294.026 258.977 291.181 256.328 290.118 255.479C287.092 253.061 283.688 250.867 280.81 249.48C277.778 248.018 272.401 246.132 269.37 245.467C268.225 245.216 266.616 244.859 265.795 244.674C264.056 244.282 258.581 243.617 257.09 243.617C255.568 243.617 256.127 243.353 258.331 243.031C269.457 241.407 279.057 242.332 285.721 245.673C290.993 248.316 296.407 255.073 299.956 263.439C300.223 264.066 300.549 264.836 300.682 265.149C300.815 265.463 300.903 265.718 300.878 265.716C300.852 265.712 298.856 263.757 296.441 261.367ZM306.354 244.74C306.021 244.393 305.037 243.513 304.168 242.786C303.299 242.059 302.508 241.372 302.412 241.26C302.06 240.851 298.658 238.364 296.523 236.955C293.959 235.262 290.079 233.313 287.827 232.586C285.93 231.974 282.556 231.201 281.233 231.075C280.711 231.025 279.928 230.926 279.493 230.856C279.059 230.785 275.423 230.727 271.415 230.726C263.527 230.726 263.353 230.706 262.13 229.741C260.751 228.653 261.37 228.071 265.724 226.367C267.89 225.519 269.076 224.919 270.065 224.172C271.215 223.303 271.59 222.651 271.59 221.521C271.59 220.725 271.52 220.537 271.056 220.105C270.146 219.256 268.885 219.005 266.058 219.111C262.591 219.241 255.596 220.687 250.456 222.336C249.409 222.671 248.518 222.911 248.476 222.869C248.352 222.745 251.497 220.928 253.501 219.967C258.516 217.56 263.186 216.246 267.998 215.89C273.327 215.494 276.284 216.358 277.788 218.746C278.696 220.188 277.407 222.285 274.547 224.021C273.006 224.956 271.529 226.008 271.081 226.49C270.742 226.856 270.701 226.992 270.873 227.199C271.442 227.884 274.956 228.012 280.451 227.548C285.971 227.082 290.977 227.384 293.798 228.354C299.002 230.142 303.276 234.939 305.923 241.963C306.342 243.076 307.064 245.372 306.995 245.372C306.975 245.372 306.687 245.087 306.354 244.74ZM200.639 243.498C192.951 242.24 186.155 239.608 183.108 236.709C179.569 233.34 178.743 229.349 180.582 224.497C181.976 220.818 182.915 220.193 187.028 220.208C189.24 220.216 189.382 220.24 191.569 220.969C197.944 223.094 203.714 227.314 209.238 233.893C210.186 235.023 212.406 238.048 212.406 238.21C212.406 238.369 211.969 238.025 209.89 236.232C209.486 235.884 208.169 234.866 206.961 233.97C200.147 228.913 194.715 225.993 190.944 225.36C188.544 224.957 187.315 225.677 186.504 227.959C186.071 229.175 186.029 229.491 186.108 230.9C186.209 232.675 186.546 233.621 187.604 235.098C189.516 237.764 194.469 240.864 199.937 242.815C201.892 243.513 202.127 243.741 200.639 243.498ZM224.875 242.514C224.875 242.469 225.685 241.856 226.675 241.152C229.685 239.012 231.529 237.447 233.93 234.996C237.649 231.199 239.535 227.905 239.762 224.811C239.863 223.439 239.458 222.209 238.41 220.702C237.311 219.123 236.034 218.589 234.516 219.075C232.644 219.674 230.988 220.889 228.284 223.65C224.445 227.568 222.807 229.625 218.318 236.162C217.456 237.416 216.79 238.324 216.837 238.18C218.338 233.573 219.393 231.065 221.275 227.632C224.943 220.94 229.302 216.32 234.216 213.918C237.586 212.272 240.233 212.391 241.924 214.267C244.801 217.458 245.948 220.469 245.419 223.44C244.325 229.587 238.216 235.583 227.092 241.43C225.873 242.071 224.875 242.559 224.875 242.514Z" fill="currentcolor"/>


</svg>
