<svg  viewBox="0 0 1180 580" fill="currentcolor" xmlns="http://www.w3.org/2000/svg">
<path d="M216.967 327.235C216.255 326.544 215.984 326.096 215.984 325.612C215.984 325.086 215.695 325.251 215.584 325.841C215.528 326.144 215.268 326.602 215.006 326.865C214.57 327.3 214.462 327.334 213.711 327.272C213.207 327.23 212.864 327.266 212.821 327.371C212.78 327.471 212.747 327.458 212.74 327.339C212.733 327.23 212.499 326.912 212.219 326.633C211.94 326.354 211.614 325.83 211.494 325.47L211.278 324.814L210.938 325.618C210.751 326.059 210.431 326.515 210.228 326.629C209.875 326.828 208.386 326.882 208.386 326.696C208.386 326.647 208.187 326.519 207.944 326.411C207.457 326.196 207.044 325.458 206.582 323.976C206.423 323.465 206.031 322.595 205.711 322.043C204.774 320.424 204.916 319.282 206.196 318.126C206.854 317.533 207.693 317.23 208.799 317.188C209.169 317.173 209.471 317.145 209.471 317.126C209.471 317.106 208.69 316.322 207.735 315.385L205.999 313.679L205.309 314.013C204.929 314.196 204.287 314.378 203.882 314.417C203.228 314.48 203.117 314.444 202.891 314.101C202.667 313.758 202.662 313.643 202.853 313.088C202.972 312.743 203.289 312.184 203.557 311.846C203.825 311.508 204.044 311.182 204.044 311.122C204.044 311.061 203.835 310.702 203.579 310.323C203.323 309.945 203.114 309.574 203.114 309.501C203.114 309.427 203.061 309.343 202.997 309.315C202.933 309.287 202.748 309.002 202.585 308.682C202.423 308.363 202.208 308.102 202.109 308.102C201.616 308.102 199.862 303.078 199.406 300.358C198.693 296.108 198.591 292.721 199.082 289.57C199.472 287.061 199.653 286.183 199.853 285.808C199.941 285.645 200.013 285.404 200.013 285.273C200.013 284.891 201.258 282.079 201.821 281.19C202.106 280.741 202.338 280.337 202.338 280.291C202.338 280.147 204.083 278.006 204.727 277.36C205.066 277.019 205.816 276.385 206.394 275.952L207.445 275.163L206.974 274.713C206.715 274.465 206.355 274.019 206.173 273.72C205.992 273.422 205.804 273.144 205.755 273.101C205.598 272.963 204.708 271.032 204.435 270.236C203.62 267.858 203.52 267.227 203.515 264.428C203.51 261.898 203.537 261.64 203.917 260.546C204.14 259.901 204.468 259.105 204.644 258.776L204.965 258.178L204.02 257.562C202.479 256.556 201.07 255.016 200.335 253.535C199.65 252.154 199.393 251.02 199.397 249.406C199.397 248.501 199.578 247.31 199.736 247.153C199.769 247.12 200.233 247.509 200.768 248.017C202.026 249.213 203.621 250.329 204.974 250.961C206.982 251.898 207.887 252.098 210.169 252.107C211.788 252.113 212.537 252.05 213.115 251.86C214.329 251.459 218.235 250.955 220.125 250.954L221.022 250.954L221.046 248.021C221.07 245.138 221.184 244.177 221.812 241.585C222.224 239.887 222.81 238.023 223.273 236.939C225.273 232.253 227.998 228.495 231.808 225.166C233.177 223.97 235.794 222.149 236.143 222.149C236.227 222.149 236.295 222.086 236.295 222.009C236.295 221.932 236.487 221.794 236.722 221.703C236.956 221.612 237.431 221.379 237.776 221.185C238.401 220.834 239.308 220.429 240.637 219.907C241.021 219.757 241.474 219.575 241.645 219.504C242.142 219.296 244.49 218.652 245.754 218.377C251.732 217.078 258.02 217.63 264.128 219.99C264.503 220.135 264.767 220.119 265.496 219.906C265.992 219.761 266.358 219.602 266.309 219.552C266.26 219.503 265.644 219.178 264.941 218.831C263.729 218.232 263.66 218.171 263.616 217.652C263.563 217.021 264.065 216.157 264.675 215.831C265.302 215.495 267.51 215.701 268.523 216.189C269.486 216.653 269.523 216.636 270.27 215.405C270.552 214.94 270.873 214.56 270.983 214.56C271.114 214.56 271.183 214.339 271.183 213.92C271.183 211.928 272.791 210.224 274.671 210.224C277.127 210.224 278.858 212.931 277.838 215.177C277.413 216.112 277.133 216.399 276.232 216.819C275.811 217.016 275.452 217.28 275.433 217.406C275.414 217.533 275.148 218.014 274.841 218.476C274.535 218.938 274.285 219.378 274.287 219.454C274.287 219.531 274.578 219.797 274.93 220.045C276.092 220.867 279.154 223.63 279.937 224.562C280.359 225.066 280.875 225.652 281.081 225.865C281.531 226.33 282.838 228.092 283.608 229.273C284.761 231.043 285.062 231.563 285.867 233.185L286.694 234.853L287.17 234.607C287.78 234.292 288.083 234.413 288.083 234.972C288.083 235.611 288.22 235.663 288.764 235.228C289.45 234.681 289.505 234.645 290.103 234.354C290.966 233.934 292.369 233.554 292.653 233.663C292.853 233.74 292.891 233.873 292.813 234.228C292.756 234.484 292.741 234.693 292.779 234.693C292.817 234.693 293.304 234.486 293.862 234.234C294.973 233.73 296.976 233.219 297.228 233.374C297.461 233.518 297.422 233.906 297.147 234.18C296.795 234.532 296.925 234.554 297.782 234.288C298.849 233.957 300.953 234.141 300.953 234.566C300.953 234.648 300.732 235.035 300.462 235.427C300.069 235.998 300.031 236.116 300.268 236.019C301.095 235.683 301.757 235.6 303.216 235.648C305.52 235.723 305.647 236.036 303.86 237.243L303.124 237.741L304.009 237.939C304.973 238.154 306.07 238.761 306.07 239.078C306.07 239.43 305.712 239.649 305.136 239.649C304.453 239.649 303.338 240.018 302.817 240.416L302.433 240.71L302.856 241.101C303.427 241.63 303.388 241.907 302.697 242.224C302.378 242.37 301.774 242.736 301.356 243.036L300.596 243.581L301.24 243.854C301.671 244.037 301.883 244.224 301.883 244.42C301.883 244.719 300.5 246.054 299.247 246.963L298.55 247.47L299.131 247.518C299.533 247.551 299.713 247.64 299.713 247.807C299.713 248.166 298.714 249.428 298.08 249.87C297.775 250.083 297.372 250.377 297.185 250.523L296.844 250.789L297.348 250.795C297.927 250.801 298.012 251.126 297.627 251.869C297.371 252.363 295.75 253.895 295.475 253.902C295.375 253.907 295.154 254.012 294.984 254.141C294.719 254.341 294.708 254.395 294.907 254.521C295.034 254.601 295.322 254.668 295.546 254.669C295.77 254.669 296.032 254.766 296.128 254.882C296.391 255.198 295.287 256.365 294.211 256.909C293.517 257.26 293.381 257.384 293.575 257.492C293.969 257.712 293.86 258.277 293.341 258.698C293.079 258.911 292.474 259.307 291.996 259.579L291.127 260.073L291.543 260.262C292.04 260.488 292.078 260.852 291.645 261.222C290.482 262.216 286.682 264.428 286.137 264.428C285.728 264.428 285.326 267.944 285.694 268.291C285.834 268.422 287.438 267.993 287.965 267.684C288.113 267.597 288.307 267.526 288.395 267.526C288.921 267.526 292.849 265.408 294.486 264.242L295.585 263.458L295.943 263.875C296.371 264.371 296.43 265.415 296.06 265.943C295.837 266.26 295.84 266.287 296.099 266.284C296.595 266.278 298.67 265.868 299.903 265.531C301.69 265.042 303.682 264.269 305.983 263.171C306.708 262.825 307 262.803 307 263.093C307 263.311 306.663 264.103 306.332 264.663C305.835 265.503 305.379 266.217 305.295 266.287C305.244 266.329 304.88 266.782 304.486 267.294C303.681 268.339 301.697 270.304 300.643 271.099C300.259 271.388 299.87 271.696 299.778 271.783C299.686 271.869 299.069 272.287 298.407 272.713L297.203 273.486L297.702 273.588C298.306 273.711 298.876 274.121 299.206 274.669C299.549 275.239 299.373 275.579 298.735 275.579C297.861 275.579 295.26 276.072 294.131 276.453C293.14 276.786 291.135 277.622 290.96 277.774C290.879 277.844 291.297 277.907 291.89 277.914C293.647 277.933 294.653 278.469 294.104 279.093C293.772 279.47 293.623 280.003 293.743 280.38C293.833 280.663 293.978 280.69 295.42 280.69C297.893 280.69 299.577 281.085 302.659 282.389C304.245 283.06 305.826 283.984 305.882 284.272C305.958 284.669 302.619 286.681 300.715 287.386C298.489 288.21 297.918 288.307 295.635 288.253L293.496 288.201L293.542 288.743C293.581 289.198 293.68 289.328 294.169 289.557C295.229 290.053 294.917 290.338 292.79 290.817C291.411 291.127 289.762 291.136 288.774 290.839C288.36 290.715 287.988 290.645 287.949 290.685C287.909 290.724 287.944 290.756 288.028 290.756C288.112 290.756 288.317 290.878 288.485 291.027C289.017 291.5 290.694 292.231 291.575 292.374C292.609 292.542 292.71 292.666 292.347 293.334C292.042 293.897 291.859 294.051 291.277 294.234C291.027 294.313 291.184 294.533 292.284 295.646C293.001 296.371 294.367 297.536 295.318 298.235C297.226 299.636 297.457 299.781 299.48 300.84C301.044 301.658 301.275 302.039 300.333 302.246C297.006 302.976 296.705 303.011 294.173 302.962C292.234 302.925 291.649 302.957 291.65 303.107C291.65 303.213 291.423 303.399 291.146 303.52C290.869 303.641 290.754 303.746 290.891 303.753C291.242 303.771 292.913 304.684 293.606 305.237C293.926 305.492 294.327 305.812 294.495 305.948C294.966 306.327 294.728 306.708 294.019 306.709H293.433L293.97 307.036C294.682 307.469 295.38 308.182 295.898 309.003C296.429 309.846 296.269 310.114 295.236 310.115H294.518L295.514 311.003C296.472 311.856 297.697 313.5 297.697 313.932C297.697 314.215 296.826 314.202 295.991 313.908C295.045 313.574 295.006 313.603 295.425 314.334C296.018 315.368 296.134 316.928 295.618 316.928C295.517 316.928 295.163 316.651 294.832 316.313C294.276 315.743 293.468 315.265 292.619 315.002C292.296 314.902 292.27 314.941 292.27 315.528C292.27 316.254 291.965 316.483 291.435 316.152C291.098 315.942 289.385 315.382 289.071 315.38C288.947 315.38 288.959 315.564 289.112 316.009C289.232 316.355 289.289 316.704 289.24 316.783C289.104 317.003 287.514 316.956 286.624 316.706C284.435 316.092 284.121 316.077 284.789 316.618C285.701 317.357 284.75 317.718 282.846 317.356C282.187 317.23 281.514 317.071 281.35 317.001C281.098 316.894 281.071 316.92 281.178 317.172C281.247 317.336 281.311 317.609 281.321 317.78C281.337 318.064 281.227 318.093 279.969 318.134C278.889 318.17 278.42 318.112 277.753 317.863C277.288 317.69 276.876 317.547 276.836 317.547C276.669 317.547 276.787 317.918 277.089 318.342C277.611 319.074 277.398 319.299 276.259 319.218C275.727 319.18 275.012 319.02 274.671 318.861C273.455 318.296 273.489 318.305 273.639 318.596C273.856 319.017 273.679 319.251 273.147 319.249C272.576 319.249 271.425 318.92 270.733 318.562L270.252 318.314V318.937C270.252 319.28 270.214 319.561 270.166 319.561C270.036 319.561 268.709 319.257 268.004 319.066C267.238 318.859 265.637 318.255 264.555 317.766C263.964 317.498 263.647 317.435 263.392 317.532C261.568 318.232 257.41 318.88 253.894 319.011C251.629 319.095 246.704 318.906 245.486 318.687L244.986 318.597L245.232 319.32C245.444 319.94 245.45 320.147 245.278 320.77C245.167 321.17 244.886 321.81 244.654 322.193C244.421 322.577 244.059 323.413 243.849 324.052C243.267 325.819 243.136 326.029 242.375 326.397C241.062 327.032 239.983 326.677 239.556 325.47C239.328 324.825 239.086 324.617 239.086 325.065C239.086 325.616 238.446 326.534 237.85 326.838C237.514 327.009 237.131 327.149 236.999 327.149C236.868 327.149 236.761 327.216 236.761 327.298C236.761 327.38 236.464 327.292 236.102 327.102C235.643 326.863 235.322 326.536 235.047 326.027L234.651 325.295L234.455 325.835C234.159 326.652 233.573 327.253 232.843 327.487C231.518 327.913 230.872 327.536 230.318 326.013C230.109 325.438 229.938 324.794 229.938 324.582C229.938 324.136 229.622 323.962 229.211 324.181C229.053 324.266 228.229 324.519 227.38 324.745L225.836 325.155L224.445 324.818C223.68 324.633 222.841 324.393 222.581 324.285C221.899 324.002 220.928 323.705 220.887 323.767C220.842 323.834 220.419 325.298 220.171 326.248C219.904 327.263 219.403 327.693 218.491 327.686C218.092 327.681 217.732 327.721 217.689 327.77C217.646 327.819 217.321 327.577 216.967 327.233L216.967 327.235ZM233.028 326.615C233.459 326.392 233.976 325.426 233.964 324.863C233.956 324.471 233.23 325.397 233.107 325.958C233.002 326.436 232.646 326.665 232.396 326.416C232.29 326.31 232.296 326.064 232.415 325.66C233.131 323.214 233.22 322.705 233.169 321.314C233.122 320.008 233.082 319.855 232.691 319.448C232.456 319.203 232.265 318.915 232.265 318.808C232.265 318.679 232.146 318.646 231.916 318.712C231.724 318.767 231.427 318.847 231.257 318.888C229.971 319.203 229.204 320.275 229.389 321.502C229.445 321.881 229.579 322.279 229.686 322.387C229.973 322.674 230.714 324.297 230.714 324.636C230.714 324.999 231.17 326.386 231.375 326.648C231.581 326.91 232.491 326.893 233.028 326.615ZM237.689 326.089C237.915 325.922 238.218 325.403 238.423 324.829C238.747 323.926 238.751 323.874 238.479 324.12C238.317 324.266 238.021 324.763 237.822 325.224C237.537 325.88 237.383 326.062 237.11 326.064C236.725 326.069 236.658 325.774 236.927 325.271C237.15 324.856 237.461 323.61 237.693 322.211C237.976 320.493 237.768 319.49 236.922 318.504C236.597 318.124 236.63 318.123 235.232 318.569C235.083 318.617 235.158 318.776 235.487 319.112C236.476 320.122 236.491 321.622 235.528 323.106C235.11 323.751 235.098 323.816 235.291 324.422C235.403 324.773 235.537 325.254 235.589 325.49C235.741 326.181 236.242 326.581 236.816 326.468C237.084 326.416 237.477 326.245 237.689 326.089ZM242.304 325.57C242.712 325.19 242.923 324.764 243.128 323.899L243.257 323.357L242.956 323.744C242.79 323.957 242.502 324.462 242.316 324.867C242.093 325.351 241.881 325.602 241.695 325.602C241.358 325.602 241.343 325.371 241.621 324.485C242.445 321.865 242.576 319.603 241.955 318.721C241.683 318.333 241.396 317.895 241.305 317.725C241.288 317.694 240.881 317.793 240.4 317.944C239.772 318.142 239.591 318.255 239.756 318.348C239.883 318.419 240.176 318.799 240.407 319.193C240.97 320.153 240.911 321.379 240.255 322.369C239.756 323.123 239.715 323.754 240.096 324.833C240.449 325.833 240.758 326.113 241.394 326.01C241.684 325.963 242.094 325.765 242.304 325.57ZM208.58 324.944C208.722 324.497 208.925 323.852 209.031 323.512C209.137 323.171 209.228 322.123 209.231 321.182C209.239 319.411 209.257 319.474 208.463 318.375C208.354 318.222 208.376 318.112 208.541 317.996C208.721 317.869 208.686 317.853 208.386 317.926C208.173 317.979 207.796 318.065 207.548 318.119C207.3 318.173 206.829 318.485 206.501 318.812C205.97 319.342 205.905 319.491 205.905 320.175C205.905 320.757 206.022 321.14 206.391 321.762C206.658 322.213 207.081 323.17 207.331 323.889C208.091 326.072 208.194 326.159 208.58 324.944ZM224.972 322.311C224.967 322.205 224.9 321.602 224.818 320.972C224.689 319.981 224.569 319.678 223.92 318.726C222.501 316.641 222.263 316.322 222.123 316.316C221.883 316.305 217.971 314.331 216.914 313.686C216.36 313.348 215.698 312.953 215.443 312.809C214.762 312.424 212.216 310.567 211.989 310.29C211.814 310.076 211.742 310.081 211.303 310.34C211.033 310.499 210.702 310.721 210.568 310.832C210.121 311.203 209.247 311.797 208.502 312.236C208.097 312.475 207.766 312.747 207.766 312.839C207.766 313.088 210.967 316.297 211.97 317.053C212.781 317.665 212.894 317.704 213.857 317.704C214.637 317.704 215.047 317.792 215.573 318.071C216.012 318.304 216.34 318.39 216.472 318.306C216.587 318.233 217.312 318.172 218.084 318.171C219.392 318.171 219.542 318.203 220.328 318.672C221.363 319.291 221.869 320.102 221.873 321.147C221.873 321.819 221.911 321.888 222.302 321.977C222.536 322.03 223.077 322.165 223.504 322.275C224.517 322.539 224.978 322.55 224.972 322.311ZM269.477 318.259C269.477 317.346 269.932 317.145 270.722 317.707C271.447 318.222 273.047 318.706 272.822 318.341C272.69 318.128 273.05 317.239 273.268 317.239C273.375 317.239 273.734 317.436 274.067 317.676C274.708 318.139 275.534 318.478 276.018 318.478C276.269 318.478 276.285 318.431 276.132 318.146C275.913 317.737 276.197 316.62 276.52 316.62C276.634 316.62 277.102 316.788 277.56 316.993C278.635 317.476 280.331 317.688 280.331 317.341C280.331 317.21 280.261 317.06 280.176 317.007C279.949 316.867 279.986 316.004 280.223 315.913C280.334 315.871 280.7 315.952 281.037 316.094C281.701 316.373 283.187 316.76 283.631 316.769C283.857 316.774 283.879 316.72 283.748 316.475C283.546 316.099 283.539 315.429 283.736 315.307C283.817 315.257 284.698 315.431 285.692 315.694C286.686 315.957 287.708 316.151 287.963 316.125L288.428 316.078L287.948 315.536C287.684 315.238 287.49 314.924 287.516 314.839C287.643 314.432 290.014 314.659 291.068 315.179C291.535 315.409 291.591 315.297 291.312 314.687C290.901 313.785 292 313.838 294.018 314.817C294.592 315.095 295.061 315.264 295.061 315.194C295.061 314.971 294.34 313.926 293.916 313.534C293.693 313.328 293.51 313.024 293.51 312.859C293.51 312.613 293.595 312.571 293.975 312.626C294.231 312.664 294.44 312.68 294.44 312.661C294.44 312.594 292.403 311.355 292.292 311.355C292.228 311.355 292.101 311.279 292.009 311.187C291.916 311.095 291.484 310.854 291.049 310.653L290.257 310.286L290.476 310.627C290.811 311.147 291.534 313.507 291.436 313.762C291.315 314.075 290.882 314.045 290.779 313.716C290.535 312.94 289.846 311.375 289.569 310.967C289.141 310.338 288.361 309.496 288.206 309.496C288.137 309.496 287.784 309.362 287.423 309.199C286.53 308.795 284.448 308.102 284.127 308.102C283.945 308.102 284.116 308.387 284.695 309.046C286.166 310.72 288.065 313.795 287.847 314.148C287.659 314.452 287.338 314.279 286.903 313.641C285.827 312.063 284.64 310.595 283.798 309.799C282.659 308.723 281.378 307.792 281.036 307.792C280.893 307.792 280.64 307.72 280.475 307.632C280.31 307.544 280.175 307.517 280.175 307.573C280.175 307.658 281.54 309.529 282.143 310.27C282.247 310.398 282.851 311.199 283.485 312.051C284.324 313.178 284.596 313.653 284.481 313.794C284.204 314.135 283.99 314.006 283.199 313.02C282.773 312.489 282.249 311.88 282.035 311.666C281.821 311.452 281.126 310.654 280.491 309.893C278.605 307.632 277.872 306.965 277.033 306.746C276.627 306.64 276.113 306.553 275.89 306.553C275.521 306.553 275.505 306.579 275.699 306.85C275.816 307.014 276.435 307.856 277.074 308.722C277.714 309.587 278.481 310.63 278.78 311.038C279.078 311.446 279.624 312.175 279.992 312.658C280.633 313.5 280.763 313.972 280.389 314.097C280.234 314.149 279.509 313.352 277.487 310.912C277.159 310.516 276.613 309.886 276.273 309.511C275.933 309.137 275.275 308.36 274.81 307.786C274.346 307.212 273.811 306.701 273.621 306.65C272.966 306.475 270.631 306.546 270.352 306.75C270.1 306.934 270.107 306.99 270.46 307.654C271.421 309.459 273.756 311.88 275.756 313.144C276.012 313.306 276.256 313.482 276.299 313.536C276.342 313.59 276.597 313.747 276.866 313.884C277.416 314.166 277.85 314.557 277.85 314.773C277.85 315.002 276.982 314.939 276.343 314.663C274.326 313.791 273.118 313.107 272.345 312.401C272.089 312.167 271.836 311.975 271.781 311.975C271.606 311.975 269.964 309.857 269.599 309.162C269.404 308.792 269.136 308.178 269.004 307.797C268.739 307.038 268.496 306.905 267.329 306.879C266.609 306.862 265.599 307.248 265.603 307.539C265.608 307.816 266.042 308.998 266.401 309.704C267.14 311.155 269.241 313.203 271.376 314.553C272.239 315.098 272.448 315.406 272.101 315.62C271.785 315.815 268.831 314.294 267.669 313.337C266.024 311.983 264.758 310.134 264.34 308.476C264.203 307.932 264.101 307.793 263.838 307.798C263.166 307.809 261.58 308.222 261.078 308.517C260.494 308.86 260.472 309.144 260.953 310.193C261.838 312.127 263.523 313.598 266.722 315.232C268.1 315.935 268.43 316.246 267.981 316.418C267.431 316.629 265.493 315.934 263.727 314.894C262.469 314.153 260.243 311.911 259.56 310.696C259.284 310.206 258.995 309.806 258.918 309.806C258.716 309.806 258.746 310.85 258.966 311.498C259.834 314.052 263.227 316.726 267.306 318.071C269.3 318.729 269.477 318.744 269.477 318.259ZM255.6 317.227C256.367 317.136 257.484 317.008 258.081 316.941C258.678 316.874 259.77 316.696 260.507 316.544L261.849 316.268L260.504 314.934C259.066 313.506 258.208 312.098 258.047 310.898C257.959 310.243 257.868 310.173 257.42 310.416C257.271 310.496 256.174 311.032 254.98 311.608C252.488 312.809 251.118 313.578 250.552 314.092C249.718 314.85 249.443 314.411 250.029 313.255C250.359 312.604 250.659 312.272 251.28 311.876C251.729 311.589 252.133 311.354 252.177 311.354C252.221 311.354 252.661 311.173 253.153 310.951C253.646 310.729 254.189 310.49 254.359 310.419C255.139 310.097 255.804 309.829 256.375 309.606C258.147 308.917 258.003 309.055 258.003 308.045V307.134L257.529 307.229C257.268 307.281 255.378 307.37 253.328 307.428C250.129 307.518 249.588 307.567 249.507 307.778C249.328 308.245 247.867 310.659 247.25 311.509C246.353 312.745 245.231 314.063 243.992 315.336C243.249 316.099 242.976 316.475 243.128 316.524C243.713 316.712 245.069 316.922 246.762 317.085C247.785 317.184 248.727 317.286 248.855 317.312C249.468 317.434 254.366 317.373 255.6 317.227ZM227.284 315.187C227.461 314.91 227.694 314.558 227.803 314.405C228.028 314.086 228.085 314.134 226.3 313.158C225.7 312.83 224.546 312.182 223.736 311.718C222.926 311.254 222.137 310.805 221.982 310.719C221.827 310.634 220.914 310.115 219.953 309.566C218.992 309.016 218.087 308.566 217.943 308.566C217.744 308.566 217.873 308.841 218.47 309.689C218.905 310.307 219.448 311.103 219.676 311.459C219.905 311.815 220.197 312.142 220.325 312.186C220.453 312.23 220.906 312.468 221.333 312.715C223.673 314.069 225.08 314.871 225.287 314.967C225.415 315.026 225.729 315.208 225.985 315.371C226.65 315.796 226.919 315.758 227.284 315.187ZM240.327 313.76C243.353 313.314 245.119 312.8 245.782 312.174C246.825 311.189 248.659 308.044 249.692 305.469C250.912 302.429 251.218 301.148 251.724 296.976C252.221 292.882 251.813 288.321 250.635 284.794C250.379 284.026 248.858 280.845 248.747 280.845C248.715 280.845 248.517 280.957 248.307 281.095C247.935 281.338 247.925 281.395 247.925 283.258C247.925 285.439 247.405 289.885 246.922 291.84C246.806 292.309 246.626 293.069 246.522 293.528C246.042 295.658 244.814 298.95 243.686 301.133C243.155 302.162 241.508 304.8 241.269 305.004C241.22 305.047 240.764 305.594 240.257 306.221C238.669 308.182 235.943 310.249 233.272 311.516C231.504 312.354 231.44 312.381 230.344 312.722L229.431 313.006L230.111 313.177C233.085 313.928 237.486 314.179 240.327 313.76ZM205.387 313.139C206.462 312.643 209.757 310.677 209.936 310.425C209.979 310.365 210.328 310.116 210.712 309.87C211.249 309.527 211.338 309.418 211.099 309.396C210.929 309.38 210.005 309.282 209.047 309.179L207.305 308.991L205.979 310.289C204.573 311.664 203.688 312.755 203.511 313.329C203.418 313.629 203.46 313.677 203.811 313.677C204.036 313.677 204.745 313.435 205.387 313.139ZM230.771 310.236L231.337 309.428L230.754 309.066C230.433 308.866 230.031 308.638 229.861 308.558C229.69 308.478 229.446 308.343 229.318 308.258C228.903 307.983 226.63 306.681 226.303 306.531C226.128 306.451 225.845 306.301 225.674 306.198C224.711 305.619 223.28 304.85 223.168 304.85C223.097 304.85 222.748 305.187 222.393 305.599L221.747 306.348L222.703 306.896C223.751 307.498 224.584 307.969 225.489 308.471C225.814 308.651 226.198 308.868 226.344 308.954C226.489 309.039 227.2 309.443 227.924 309.852C228.648 310.26 229.415 310.694 229.628 310.815C229.841 310.937 230.058 311.038 230.11 311.04C230.162 311.04 230.459 310.681 230.771 310.236ZM206.078 309.203L206.44 308.91L205.824 308.739C204.96 308.5 204.938 308.51 205.207 309.031C205.489 309.575 205.592 309.596 206.078 309.203ZM295.199 309.249C295.232 309.22 294.844 308.792 294.336 308.3C293.688 307.67 293.129 307.294 292.454 307.033C291.909 306.822 291.495 306.567 291.495 306.443C291.495 306.323 291.425 306.268 291.339 306.321C291.254 306.373 290.399 306.435 289.44 306.457C287.956 306.491 287.581 306.553 286.928 306.873C286.506 307.08 286.136 307.333 286.105 307.434C286.01 307.745 287.141 307.978 289.246 308.081C290.989 308.166 291.383 308.236 292.154 308.596C292.705 308.855 293.045 309.11 293.045 309.267C293.045 309.487 293.182 309.506 294.092 309.411C294.668 309.351 295.166 309.278 295.199 309.249ZM215.869 308.257C217.61 307.893 217.627 307.888 218.908 307.3C221.249 306.225 222.533 304.792 223.323 302.371L223.55 301.675L222.132 301.489C219.931 301.202 219.12 300.983 217.59 300.263C215.223 299.148 213.13 297.27 211.396 294.705C210.916 293.996 209.457 291.217 209.2 290.524C208.353 288.234 208.013 287.221 207.668 285.955C207.043 283.66 206.434 280.366 206.28 278.444L206.18 277.205L205.009 278.444C200.802 282.895 199.077 289.34 199.934 297.416C200.307 300.934 200.837 303.251 201.795 305.546C202.566 307.394 202.443 307.256 203.559 307.527C204.125 307.664 205.041 307.85 205.595 307.941C206.149 308.032 207.196 308.203 207.921 308.322C210.011 308.664 214.077 308.63 215.869 308.257ZM259.089 307.926C259.089 307.7 260.286 305.683 260.913 304.856C262.252 303.085 264.366 301.179 266.609 299.721C267.206 299.332 268.1 298.749 268.596 298.425C269.45 297.867 269.513 297.85 269.759 298.104C270.004 298.356 269.997 298.388 269.64 298.63C266.363 300.85 263.275 303.547 262.228 305.102C262.005 305.431 261.767 305.724 261.697 305.753C261.627 305.781 261.569 305.88 261.569 305.973C261.569 306.066 261.473 306.251 261.355 306.386C261.237 306.52 261.096 306.779 261.04 306.961C260.941 307.286 260.954 307.288 261.836 307.102C263.164 306.822 263.816 306.413 265.446 304.835C266.256 304.051 267.303 303.124 267.772 302.775C268.241 302.426 268.659 302.1 268.702 302.05C269.063 301.628 273.108 299.221 274.742 298.456C275.901 297.914 276.355 297.87 276.268 298.309C276.23 298.5 274.425 299.739 274.184 299.739C274.146 299.739 274.031 299.808 273.928 299.893C273.825 299.978 273.078 300.487 272.268 301.024C270.751 302.031 269.227 303.131 268.547 303.713C268.334 303.895 267.684 304.442 267.104 304.928C266.523 305.415 266.07 305.833 266.096 305.858C266.197 305.953 268.51 305.625 269.291 305.405C269.743 305.277 270.371 304.969 270.687 304.72C272.064 303.634 275.968 301.564 278.005 300.839C278.474 300.672 279.242 300.385 279.711 300.202C280.828 299.764 281.02 299.754 281.074 300.13C281.111 300.392 280.79 300.603 279.135 301.407C277.129 302.381 275.521 303.233 274.671 303.771C274.416 303.933 273.997 304.183 273.741 304.326C273.485 304.469 273.037 304.767 272.745 304.989L272.214 305.391L272.668 305.489C274.214 305.823 277.106 305.433 278.005 304.768C278.345 304.517 280.143 303.823 280.951 303.631C283.562 303.01 287.33 302.65 287.547 303.001C287.728 303.293 287.229 303.572 286.327 303.684C283.763 304 281.361 304.642 279.75 305.44C279.198 305.714 279.002 305.881 279.142 305.96C279.536 306.18 283.397 306.863 284.246 306.863C284.449 306.863 284.758 306.729 284.934 306.565C285.11 306.401 285.699 306.041 286.242 305.765C287.14 305.309 287.36 305.263 288.645 305.261C289.867 305.261 290.174 305.314 290.908 305.673C291.519 305.972 291.994 306.087 292.596 306.083L293.433 306.077L292.968 305.69C292.372 305.194 291.336 304.67 290.254 304.316C288.62 303.782 288.509 303.517 289.761 303.14C290.662 302.869 290.654 302.825 289.601 302.238C288.901 301.849 287.386 301.442 286.636 301.442C285.843 301.442 285.797 301.187 286.466 300.502C286.79 300.17 287.025 299.877 286.988 299.85C286.477 299.48 285.786 299.365 283.986 299.355C282.793 299.348 281.961 299.28 281.93 299.187C281.902 299.102 282.193 298.723 282.578 298.346C282.962 297.969 283.277 297.614 283.277 297.557C283.277 297.5 282.736 297.37 282.075 297.267C281.056 297.11 280.673 297.12 279.556 297.336C276.895 297.849 276.932 297.858 277.308 296.793C277.737 295.579 277.585 295.498 275.834 296.001C274.451 296.399 273.747 296.71 272.774 297.356C271.543 298.172 271.323 297.99 271.744 296.507C271.838 296.178 271.811 296.152 271.477 296.25C270.761 296.459 268.304 297.701 267.387 298.317C266.877 298.659 266.407 298.905 266.341 298.865C266.275 298.824 266.221 298.549 266.221 298.253V297.715L265.407 298.316C261.989 300.839 259.716 303.745 258.993 306.519C258.74 307.488 258.711 308.316 258.933 308.179C259.019 308.126 259.089 308.013 259.089 307.926ZM256.413 306.369C258.106 306.202 258.323 306.147 258.411 305.864C258.653 305.092 259.418 303.603 260.078 302.622C260.472 302.036 260.794 301.534 260.794 301.507C260.794 301.46 259.812 301.168 258.591 300.85L258.016 300.701L258.552 301.206C258.986 301.615 259.089 301.827 259.089 302.317C259.089 303.141 258.739 303.576 257.71 304.032C256.307 304.654 254.803 304.971 252.696 305.087C251.54 305.151 250.667 305.268 250.587 305.371C250.512 305.468 250.374 305.773 250.281 306.05L250.112 306.553H252.313C253.524 306.553 255.369 306.47 256.413 306.367V306.369ZM231.489 304.231C231.24 302.86 231.114 302.607 230.533 302.311C230.248 302.166 229.807 301.914 229.551 301.75C229.295 301.586 228.876 301.349 228.62 301.223C228.365 301.096 227.737 300.75 227.225 300.454C225.455 299.428 225.446 299.424 225.12 299.627C224.956 299.729 224.822 299.86 224.822 299.918C224.822 299.976 224.578 300.173 224.281 300.357L223.74 300.691L224.187 301.067C224.433 301.273 224.667 301.442 224.708 301.442C224.748 301.442 225.873 302.069 227.208 302.836C228.542 303.603 229.697 304.23 229.773 304.23C229.85 304.23 229.936 304.282 229.964 304.346C230.028 304.488 231.543 305.311 231.613 305.241C231.641 305.214 231.585 304.759 231.489 304.231ZM253.041 303.538C255.354 303.191 256.567 302.693 256.906 301.948C257.058 301.615 256.992 301.48 256.276 300.658C255.613 299.896 255.437 299.771 255.249 299.928C254.884 300.23 253.945 300.508 253.274 300.513C252.14 300.521 252.021 300.609 251.734 301.649C251.589 302.174 251.406 302.818 251.326 303.079C251.078 303.891 250.939 303.854 253.041 303.538ZM298.395 301.924L299.48 301.657L298.705 301.253C296.294 299.998 293.045 297.574 291.25 295.693C289.629 293.994 289.474 293.544 290.506 293.544C291.208 293.544 291.785 293.26 291.477 293.065C291.359 292.99 291.095 292.928 290.892 292.927C290.688 292.927 289.938 292.645 289.226 292.304C288.211 291.818 287.677 291.429 286.766 290.51C286.126 289.864 285.603 289.235 285.603 289.112C285.603 288.691 286.028 288.725 286.785 289.205C288.069 290.02 289.423 290.344 291.162 290.252C291.985 290.209 292.782 290.122 292.935 290.059C293.188 289.954 293.191 289.914 292.973 289.581C292.69 289.149 292.664 288.294 292.918 287.738C293.088 287.365 293.147 287.346 293.809 287.451C294.199 287.513 295.286 287.559 296.224 287.554C297.624 287.546 298.177 287.468 299.311 287.12C300.825 286.655 303.404 285.371 304.658 284.458C304.876 284.299 303.463 283.464 301.961 282.865C301.79 282.797 301.453 282.662 301.21 282.564C299.234 281.769 298.315 281.588 295.696 281.479L293.462 281.387L293.148 280.78C292.852 280.21 292.847 280.135 293.073 279.508C293.205 279.141 293.276 278.804 293.231 278.759C293.186 278.713 292.576 278.676 291.876 278.676C290.573 278.676 289.027 279.063 287.484 279.776C286.785 280.099 286.378 280.078 286.378 279.72C286.378 279.607 287.163 279.06 288.122 278.504C291.904 276.311 294.544 275.315 297.348 275.021C297.881 274.965 298.317 274.867 298.317 274.803C298.317 274.529 297.811 274.314 296.971 274.231C295.265 274.064 295.276 273.731 297.025 272.715C299.908 271.04 302.83 268.402 304.712 265.777C305.309 264.943 305.768 264.23 305.732 264.194C305.695 264.158 305.355 264.272 304.976 264.448C304.597 264.624 304.147 264.823 303.977 264.889C303.806 264.955 303.457 265.095 303.201 265.2C300.778 266.195 297.147 267.052 295.332 267.058C294.315 267.064 294.199 266.876 294.843 266.275C295.392 265.763 295.717 265.095 295.599 264.724C295.508 264.435 295.455 264.45 294.738 264.965C294.318 265.266 293.943 265.512 293.905 265.512C293.866 265.512 293.57 265.692 293.246 265.912C291.694 266.965 287.251 268.886 285.743 269.155C285.191 269.254 285.183 269.247 285.007 268.584C284.909 268.215 284.811 267.582 284.789 267.177L284.75 266.441L284.285 267.332C284.029 267.822 283.765 268.246 283.699 268.276C283.633 268.304 283.439 268.583 283.269 268.895C282.964 269.452 282.56 269.974 280.728 272.177L279.807 273.284L279.67 276.868L280.194 276.547C280.914 276.105 283.851 274.65 284.021 274.65C284.352 274.65 285.153 274.131 285.589 273.635C286.245 272.889 286.512 272.324 286.738 271.202C286.906 270.374 286.986 270.228 287.299 270.183C287.663 270.131 287.663 270.135 287.556 271.315C287.497 271.967 287.385 272.667 287.307 272.873C287.172 273.227 287.189 273.242 287.663 273.16C287.937 273.113 288.336 273.016 288.549 272.945C288.762 272.873 289.426 272.669 290.025 272.491C291.626 272.016 295.604 270.017 297.657 268.655C298.46 268.123 298.937 268.07 298.937 268.515C298.937 268.638 298.536 269.011 298.046 269.343C297.555 269.675 296.561 270.349 295.836 270.842C295.111 271.334 294.379 271.801 294.208 271.879C294.038 271.958 293.549 272.232 293.123 272.489C292.696 272.746 292.243 272.995 292.115 273.043C291.987 273.09 291.708 273.202 291.495 273.291C290.883 273.545 290.532 273.689 289.873 273.951L289.26 274.196L289.641 274.394C290.432 274.804 290.866 275.152 290.961 275.453C291.136 276.002 290.82 276.036 289.871 275.569C289.106 275.194 288.749 275.114 287.829 275.114C285.941 275.114 283.466 275.926 281.184 277.293C280.757 277.548 280.304 277.802 280.176 277.857C280.048 277.912 279.908 277.997 279.866 278.046C279.823 278.095 279.37 278.414 278.858 278.754L277.928 279.373L279.401 279.475C280.211 279.53 281.281 279.682 281.778 279.812C282.745 280.064 284.741 280.959 285.23 281.357C285.392 281.49 285.833 281.83 286.208 282.112C287.016 282.72 287.289 283.096 287.072 283.307C286.975 283.402 286.448 283.165 285.603 282.646C283.055 281.082 281.461 280.611 278.78 280.632C276.163 280.652 274.674 281.089 272.501 282.472C271.451 283.14 268.701 285.827 268.327 286.549C268.094 287 268.099 287.042 268.431 287.397C268.654 287.637 269.168 287.868 269.865 288.043C271.28 288.397 272.279 288.327 275.602 287.636C277.674 287.205 280.922 286.016 283.727 284.662C284.358 284.357 284.933 284.144 285.006 284.189C285.314 284.379 285.084 284.821 284.489 285.181C284.137 285.394 283.633 285.709 283.369 285.882C282.99 286.13 280.663 287.305 279.245 287.965C279.118 288.025 278.594 288.196 278.083 288.345C276.471 288.816 276.447 288.834 277.23 289.015C279.31 289.494 282.622 291.01 284.907 292.53C285.894 293.186 286.016 293.283 287.677 294.709C288.851 295.717 291.03 298.081 291.03 298.346C291.03 298.436 290.925 298.55 290.796 298.599C290.577 298.683 290.258 298.446 287.689 296.291C285.211 294.211 283.545 293.084 281.459 292.074C280.625 291.67 279.804 291.284 279.633 291.216C278.8 290.883 276.144 290.133 276.144 290.231C276.144 290.264 276.275 290.691 276.435 291.181C276.803 292.31 277.008 293.087 277.223 294.174C277.388 295.004 277.412 295.035 277.837 294.973C278.08 294.937 278.315 294.968 278.36 295.04C278.45 295.186 278.272 296.23 278.073 296.719C277.959 297 277.973 297.008 278.222 296.805C278.617 296.483 282.616 296.5 283.587 296.827C284.416 297.107 284.503 297.349 283.978 297.912C283.763 298.143 283.587 298.359 283.587 298.394C283.587 298.427 284.128 298.5 284.789 298.556C286.003 298.657 287.093 298.983 287.785 299.453L288.161 299.708L287.13 300.784L287.878 300.895C288.29 300.955 289.091 301.208 289.659 301.456C291.183 302.121 291.62 302.185 294.596 302.189C296.65 302.189 297.573 302.126 298.395 301.924ZM262.466 298.209C261.295 296.292 260.274 294.938 260.002 294.938C259.727 294.938 257.848 299.206 257.848 299.831C257.848 299.949 258.143 300.074 258.572 300.138C258.971 300.198 259.756 300.399 260.317 300.586L261.337 300.925L263.092 299.234L262.466 298.209ZM223.761 299.809C224.472 299.251 225.264 298.63 225.519 298.428C225.775 298.226 226.578 297.6 227.302 297.038C228.027 296.476 228.897 295.791 229.235 295.515C229.573 295.24 230.131 294.812 230.476 294.564C230.82 294.317 231.136 294.069 231.179 294.013C231.221 293.958 231.989 293.336 232.884 292.631C233.78 291.926 234.757 291.151 235.055 290.91C235.354 290.668 236.371 289.855 237.315 289.103C238.26 288.351 239.714 287.179 240.548 286.497C241.381 285.816 242.291 285.084 242.571 284.871C243.035 284.517 244.487 283.326 245.444 282.515C245.657 282.334 246.215 281.874 246.684 281.493C247.153 281.112 247.886 280.503 248.312 280.139C248.739 279.775 249.413 279.211 249.811 278.884C253.897 275.526 256.726 272.748 254.592 274.187C254.379 274.331 253.787 274.72 253.277 275.053C252.766 275.385 252.278 275.71 252.191 275.776C252.105 275.841 251.58 276.189 251.026 276.549C250.471 276.909 249.983 277.245 249.94 277.297C249.898 277.349 249.554 277.584 249.177 277.82C248.8 278.056 248.416 278.312 248.324 278.388C248.232 278.464 245.959 280.104 243.273 282.032C240.587 283.961 237.831 285.951 237.148 286.455C236.466 286.958 235.734 287.499 235.52 287.656C235.307 287.813 234.819 288.175 234.435 288.461C234.051 288.747 233.083 289.459 232.283 290.042C231.483 290.626 230.715 291.195 230.577 291.307C230.269 291.557 229.378 292.217 227.476 293.604C226.676 294.188 225.908 294.757 225.77 294.87C225.632 294.982 224.996 295.464 224.356 295.942C223.717 296.42 222.984 296.979 222.728 297.185C222.473 297.391 221.67 297.995 220.945 298.526C220.22 299.058 219.469 299.639 219.275 299.817L218.922 300.142L219.972 300.402C220.922 300.637 221.449 300.731 222.21 300.8C222.352 300.812 223.049 300.367 223.761 299.809ZM220.561 297.919C221.467 297.29 221.556 297.15 221.139 296.996C220.99 296.941 220.609 296.735 220.293 296.539L219.718 296.181L219.628 296.76C219.579 297.078 219.479 297.561 219.406 297.833C219.177 298.689 219.423 298.708 220.561 297.919ZM264.758 297.609C265.574 295.769 266.229 294.633 266.896 293.903C267.977 292.718 268.102 292.771 268.703 294.667C268.98 295.54 269.223 296.274 269.243 296.297C269.263 296.321 269.828 296.129 270.499 295.871C271.714 295.404 272.486 295.283 272.642 295.535C272.688 295.608 272.662 295.886 272.585 296.152L272.446 296.636L273.326 296.194C274.28 295.716 274.891 295.481 275.574 295.332C275.974 295.244 276.002 295.193 275.905 294.738C275.668 293.639 274.738 291.028 274.308 290.258L273.851 289.44L271.548 289.362C269.394 289.29 269.189 289.256 268.392 288.842C267.923 288.599 267.399 288.274 267.229 288.12C266.928 287.849 266.904 287.853 266.438 288.253C265.818 288.785 265.555 289.222 265.147 290.394C264.493 292.275 264.356 293.036 264.259 295.348C264.137 298.231 264.252 298.751 264.758 297.609ZM230.09 297.483C230.006 297.265 229.938 296.893 229.938 296.657C229.938 296.421 229.895 296.185 229.842 296.132C229.733 296.023 228.698 296.767 228.698 296.954C228.698 297.076 229.921 297.863 230.128 297.874C230.19 297.879 230.173 297.701 230.09 297.483ZM219.15 295.596C219.251 295.01 219.412 294.238 219.788 292.537C219.901 292.026 220.071 291.19 220.165 290.679C220.259 290.168 220.439 289.297 220.564 288.743C220.823 287.602 221.406 284.847 221.521 284.228C221.581 283.901 221.467 283.689 220.961 283.183L220.325 282.548V280.441C220.325 278.492 220.304 278.342 220.054 278.451C219.904 278.516 218.631 278.598 217.224 278.634C214.864 278.693 214.546 278.668 213.126 278.302C212.279 278.084 211.558 277.934 211.523 277.97C211.358 278.134 211.316 281.881 211.463 283.4C211.605 284.875 212.136 287.21 212.554 288.201C213.562 290.587 214.93 292.647 216.538 294.196C217.464 295.088 218.768 296.154 218.951 296.169C219.006 296.174 219.095 295.915 219.15 295.596ZM232.169 295.089C233.586 293.923 235.841 291.36 234.977 291.897C234.722 292.057 234.443 292.271 234.357 292.373C234.272 292.476 233.881 292.799 233.488 293.091C233.095 293.382 232.258 294.034 231.627 294.538C230.997 295.043 230.466 295.464 230.448 295.474C230.359 295.526 230.612 296.177 230.721 296.177C230.791 296.177 231.443 295.687 232.169 295.089ZM257.538 295.293C257.836 294.815 258.251 294.217 258.46 293.964L258.839 293.504L258.15 292.904C257.342 292.199 255.677 291.022 255.677 291.156C255.677 291.206 255.813 291.747 255.978 292.357C256.601 294.654 256.763 295.357 256.763 295.761C256.763 296.368 256.93 296.267 257.538 295.293ZM254.433 293.289C254.606 292.73 254.747 291.973 254.747 291.608C254.747 290.74 254.226 289.092 253.777 288.536C253.458 288.143 253.359 288.108 252.826 288.208L252.231 288.319L252.324 288.957C252.643 291.146 252.76 292.896 252.684 294.318L252.597 295.944L253.357 295.125C253.928 294.511 254.197 294.052 254.433 293.289ZM225.132 294.477C225.132 294.412 225.419 294.169 225.771 293.937C226.519 293.443 226.491 293.391 225.054 292.608C224.543 292.329 223.88 291.949 223.581 291.762C223.283 291.575 222.572 291.172 222.002 290.865L220.966 290.307L220.884 290.725C220.601 292.163 220.603 292.57 220.892 292.673C221.049 292.729 221.318 292.86 221.49 292.966C222.385 293.514 224.309 294.593 224.511 294.66C224.783 294.75 225.132 294.647 225.132 294.477ZM232.111 289.246C235.612 286.682 235.717 286.603 236.063 286.331C236.234 286.196 236.738 285.83 237.184 285.517C237.63 285.204 238.044 284.844 238.105 284.716C238.165 284.588 238.242 283.16 238.277 281.541L238.339 278.598L235.941 278.653C233.679 278.705 232.932 278.633 230.442 278.122C230.095 278.051 230.093 278.06 230.078 280.106C230.07 281.236 230.017 282.313 229.962 282.499C229.805 283.026 229.216 283.614 228.741 283.718C227.904 283.902 227.926 283.865 228.152 284.747C228.269 285.198 228.448 285.986 228.551 286.497C228.654 287.008 228.826 287.81 228.933 288.278C229.04 288.747 229.215 289.566 229.322 290.098C229.428 290.63 229.541 291.066 229.572 291.066C229.603 291.066 230.746 290.247 232.111 289.246ZM228.437 289.565C228.21 287.911 228.067 287.673 226.904 287.017C226.313 286.684 225.69 286.343 225.519 286.259C225.349 286.175 224.965 285.96 224.667 285.782C224.368 285.604 223.7 285.222 223.181 284.934L222.238 284.409L222.057 285.194C221.84 286.134 221.824 286.73 222.016 286.73C222.094 286.73 222.749 287.078 223.474 287.504C224.198 287.93 224.868 288.278 224.962 288.278C225.055 288.278 225.132 288.348 225.132 288.433C225.132 288.518 225.219 288.59 225.326 288.593C225.432 288.599 226.147 288.976 226.915 289.438C227.683 289.9 228.362 290.281 228.424 290.285C228.486 290.29 228.492 289.965 228.437 289.565ZM262.965 288.369C264.682 288.177 265.67 287.936 265.911 287.651C265.953 287.6 266.112 287.513 266.264 287.457C266.561 287.348 266.55 287.188 266.148 285.723C265.819 284.524 265.601 283.503 265.601 283.165C265.601 282.793 265.538 282.789 264.535 283.113C263.843 283.336 263.777 283.392 264.007 283.561C264.344 283.806 264.106 284.132 263.386 284.413C263.112 284.52 262.678 284.693 262.422 284.798C260.995 285.382 259.68 285.714 258.093 285.894C257.387 285.974 257.017 286.118 256.492 286.518C256.116 286.805 255.744 287.039 255.665 287.039C255.587 287.039 255.522 287.106 255.522 287.187C255.522 287.512 257.289 288.083 259.166 288.366C260.826 288.615 260.755 288.615 262.965 288.371V288.369ZM253.707 287.205C254.186 287.041 254.89 286.723 255.272 286.499C256.266 285.917 257.446 284.561 256.957 284.562C256.893 284.562 256.247 284.666 255.522 284.794C254.797 284.921 253.64 285.026 252.951 285.026C252.262 285.026 251.66 285.064 251.613 285.11C251.567 285.157 251.619 285.522 251.729 285.923C251.839 286.324 251.972 286.844 252.023 287.078C252.138 287.601 252.481 287.627 253.707 287.205ZM270.718 282.501C271.272 282.101 271.804 281.709 271.899 281.631C271.994 281.554 272.746 281.083 273.57 280.586C275.152 279.632 275.163 279.625 276.377 278.916C278.006 277.964 278.033 277.929 278.09 276.604C278.118 275.952 278.187 275.272 278.244 275.095C278.311 274.884 277.898 275.16 277.052 275.894C276.339 276.51 275.373 277.301 274.904 277.651C274.435 278.001 274.016 278.323 273.974 278.366C273.381 278.964 269.76 281.028 267.875 281.842L266.971 282.232L267.067 283.281C267.12 283.857 267.238 284.581 267.33 284.889L267.497 285.448L268.603 284.339C269.212 283.729 270.163 282.902 270.718 282.501ZM255.854 284.023C256.567 283.897 257.604 283.717 258.158 283.623C258.713 283.529 259.48 283.361 259.864 283.251C260.248 283.141 260.876 282.965 261.259 282.86C262.161 282.614 262.692 282.418 264.662 281.606C266.683 280.774 267.762 280.221 270.225 278.754C273.536 276.782 278.29 272.161 279.944 269.307C281.123 267.273 283.432 262.647 283.432 262.319C283.432 262.27 283.527 262.01 283.644 261.741C284.734 259.226 285.704 255.487 286.082 252.348C286.438 249.385 286.273 245.701 285.657 242.824C285.297 241.143 284.971 239.798 284.835 239.436C284.767 239.255 284.627 238.828 284.523 238.487C284.291 237.73 283.655 236.021 283.369 235.39C282.85 234.243 281.36 231.292 280.945 230.589C280.693 230.163 280.438 229.71 280.378 229.582C280.318 229.455 280.211 229.28 280.139 229.195C280.068 229.11 279.733 228.622 279.396 228.111C277.526 225.282 276.534 224.094 274.71 222.504C272.221 220.334 271.248 219.635 268.469 218.023C267.802 217.636 265.66 216.595 265.342 216.503C264.926 216.382 264.36 216.93 264.36 217.453C264.36 217.748 264.592 217.919 265.717 218.455C266.967 219.05 270.072 220.828 270.252 221.053C270.295 221.106 270.539 221.282 270.795 221.444C273.087 222.9 276.611 226.447 278.801 229.505C280.018 231.203 281.985 234.897 282.514 236.474C282.628 236.815 282.767 237.163 282.823 237.248C282.879 237.334 283.047 237.821 283.196 238.333C283.346 238.844 283.557 239.541 283.665 239.881C284.605 242.838 285.107 247.635 284.837 251.071C284.554 254.663 284.123 256.805 283.02 260.092C282.647 261.205 280.534 265.609 279.82 266.762C278.743 268.503 276.915 270.775 275.214 272.487C272.952 274.764 272.545 275.123 270.922 276.268C270.255 276.738 269.64 277.179 269.555 277.249C269.203 277.537 265.715 279.451 265.541 279.451C265.437 279.451 265.286 279.514 265.205 279.592C264.879 279.905 261.674 281.083 259.941 281.527C257.041 282.271 254.203 282.703 252.221 282.703C250.563 282.703 250.558 282.708 250.978 283.658L251.24 284.252H252.899C253.811 284.252 255.141 284.149 255.854 284.023ZM229.01 282.623C229.29 282.326 229.393 282.008 229.445 281.279L229.514 280.324L229.131 280.623C228.92 280.787 228.217 281.322 227.569 281.811C226.922 282.3 226.348 282.771 226.295 282.857C226.234 282.956 226.639 283.013 227.421 283.013C228.527 283.013 228.679 282.975 229.01 282.623ZM222.418 281.225C222.504 281.13 222.922 280.802 223.349 280.497C223.775 280.193 224.29 279.766 224.492 279.55L224.861 279.156L224.376 278.425C224.11 278.023 223.891 277.632 223.891 277.555C223.891 277.417 222.338 278.55 221.527 279.28C221.126 279.641 221.1 279.741 221.1 280.969V282.275L221.682 281.837C222.002 281.596 222.333 281.321 222.418 281.225ZM256.995 279.531C259.816 279.156 261.528 278.735 264.011 277.806C265.98 277.07 268.361 275.848 267.616 275.957C265.45 276.273 263.903 276.363 261.337 276.322C258.476 276.277 258.359 276.288 257.305 276.684C255.64 277.31 253.28 277.902 252.45 277.902C251.624 277.902 251.859 278.294 252.825 278.525C253.747 278.746 253.979 279.001 253.685 279.471C253.516 279.741 253.564 279.76 254.397 279.759C254.888 279.759 256.057 279.656 256.995 279.531ZM226.434 277.67C227.333 274.692 227.307 272.563 226.359 271.483C226.11 271.201 225.907 270.893 225.907 270.8C225.907 270.692 225.725 270.667 225.403 270.73C224.059 270.995 223.109 271.698 222.72 272.714C222.371 273.626 222.584 274.491 223.469 275.757C223.829 276.272 224.263 276.914 224.434 277.184C226.01 279.679 225.84 279.637 226.434 277.67ZM220.372 277.664C222.811 277.15 223.134 277.067 223.218 276.931C223.266 276.853 223.101 276.499 222.851 276.144C222.601 275.789 222.276 275.238 222.129 274.918C221.881 274.38 221.565 274.139 221.565 274.487C221.565 274.802 220.574 275.744 219.731 276.23C218.907 276.705 218.76 276.737 217.379 276.737C215.834 276.737 215.234 276.562 214.197 275.803C213.939 275.614 213.311 275.37 212.801 275.26C211.894 275.064 210.353 274.392 209.818 273.958C209.67 273.838 209.325 273.557 209.051 273.333C208.471 272.859 207.289 271.095 207.027 270.311C206.927 270.013 206.761 269.272 206.657 268.665C206.253 266.3 207.236 263.629 209.136 261.922C211.283 259.994 214.228 259.419 216.948 260.395C218.047 260.79 218.176 260.811 217.844 260.542C217.631 260.369 217.144 259.97 216.762 259.655C215.283 258.438 210.03 254.953 208.696 254.304C208.568 254.242 207.347 253.616 205.983 252.914C203.99 251.889 203.507 251.578 203.527 251.333C203.545 251.119 203.276 250.849 202.618 250.418C202.105 250.082 201.349 249.506 200.939 249.138L200.194 248.469L200.092 248.933C199.968 249.496 200.276 251.596 200.592 252.346C201.053 253.442 201.183 253.678 201.738 254.437C202.51 255.49 203.281 256.193 204.703 257.138C205.364 257.578 205.905 257.97 205.905 258.01C205.905 258.049 205.741 258.342 205.541 258.66C204.987 259.537 204.397 261.404 204.193 262.921C203.997 264.384 204.173 266.743 204.582 268.143C204.694 268.526 204.909 269.258 205.059 269.769C205.684 271.891 207.275 274.274 208.923 275.556C210.224 276.569 211.361 277.102 213.27 277.595C214.709 277.966 218.753 278.006 220.372 277.664ZM239.241 277.505C241.326 276.947 242.791 276.111 244.207 274.671C245.378 273.481 245.729 272.972 246.466 271.395C247.653 268.854 247.983 267.299 247.975 264.271C247.97 262.098 247.706 260.466 247.287 260.02C247.211 259.939 247.149 259.781 247.149 259.668C247.149 259.556 246.975 259.188 246.762 258.85C246.549 258.513 246.374 258.136 246.374 258.013C246.374 257.89 246.775 257.561 247.266 257.283C247.756 257.005 248.725 256.216 249.42 255.53C251.042 253.925 251.775 252.495 252.007 250.478C252.228 248.549 252.156 248.463 251.068 249.348C250.576 249.749 249.813 250.306 249.372 250.588C248.797 250.955 248.591 251.176 248.641 251.374C248.696 251.596 248.177 251.917 245.953 253.036C244.436 253.799 243.103 254.513 242.991 254.623C242.878 254.734 242.686 254.824 242.564 254.824C242.442 254.824 242.343 254.876 242.343 254.941C242.343 255.005 242.151 255.144 241.916 255.249C241.562 255.408 240.015 256.361 239.087 256.992C237.691 257.94 236.372 258.877 236.303 258.97C236.256 259.033 235.799 259.394 235.288 259.773C234.04 260.697 230.086 264.638 229.532 265.51C229.288 265.893 229.031 266.249 228.961 266.3C228.89 266.351 228.741 266.56 228.629 266.764C228.518 266.969 228.206 267.54 227.937 268.033C227.668 268.526 227.484 268.989 227.528 269.061C227.573 269.133 227.802 269.241 228.038 269.3C228.735 269.474 229.938 270.028 229.938 270.175C229.938 270.25 230.009 270.311 230.095 270.311C230.194 270.311 230.214 269.919 230.15 269.23C229.825 265.733 231.938 262.477 235.365 261.196C236.433 260.796 238.522 260.653 239.474 260.914L239.939 261.041L239.435 260.519C239.158 260.232 238.932 259.931 238.933 259.85C238.933 259.679 239.465 259.407 240.56 259.019C242.528 258.321 244.832 257.909 245.263 258.177C245.569 258.368 246.244 259.97 246.525 261.173C246.635 261.642 246.834 262.374 246.967 262.8C247.334 263.975 247.319 268.388 246.943 269.536C246.145 271.979 244.536 273.954 242.546 274.936C241.965 275.222 241.384 275.509 241.255 275.572C240.88 275.758 239.378 276.154 238.647 276.26C238.278 276.314 237.615 276.548 237.174 276.78C236.466 277.152 236.202 277.201 234.9 277.202C233.648 277.202 233.317 277.147 232.696 276.83C231.835 276.39 230.75 275.37 230.485 274.751L230.297 274.312L230.085 274.828C229.969 275.112 229.645 275.666 229.364 276.06C229.083 276.453 228.853 276.839 228.853 276.918C228.853 277.054 229.146 277.129 231.721 277.648C232.359 277.777 233.83 277.874 235.288 277.883C237.487 277.897 237.936 277.854 239.241 277.505ZM250.077 276.32C250.727 275.877 251.561 275.311 251.932 275.06C252.431 274.724 252.551 274.572 252.397 274.474C252.282 274.402 252.084 274.341 251.956 274.339C251.828 274.339 251.547 274.244 251.332 274.131C250.51 273.703 250.226 273.718 249.099 274.25C247.841 274.844 246.308 275.422 245.991 275.422C245.872 275.422 245.58 275.495 245.342 275.586L244.91 275.75L245.441 276.089C246.257 276.61 247.626 277.102 248.294 277.114C248.773 277.123 249.134 276.962 250.077 276.32ZM255.445 276.1C255.786 275.985 256.187 275.89 256.336 275.888C256.592 275.888 256.739 275.584 256.491 275.57C256.427 275.565 256.089 275.508 255.74 275.44C255.148 275.325 255.059 275.357 254.422 275.909L253.739 276.501L254.282 276.405C254.58 276.352 255.104 276.215 255.445 276.1ZM240.947 274.774C242.454 274.04 243.707 272.713 244.346 271.174C244.837 269.991 244.853 269.883 244.8 268.2C244.764 267.081 244.675 266.383 244.551 266.26C244.445 266.154 244.358 265.969 244.358 265.848C244.358 265.416 242.973 263.563 242.239 263.013C239.779 261.171 237.046 261.001 234.259 262.516C232.364 263.546 230.876 266.092 230.871 268.316V269.031L231.424 268.509C231.729 268.223 232.037 267.988 232.108 267.988C232.18 267.988 232.288 267.692 232.349 267.33C232.527 266.262 233.044 265.354 234.006 264.417C234.75 263.692 235.105 263.475 236.029 263.179C237.677 262.652 238.857 262.725 240.479 263.456C241.084 263.728 242.655 265.149 242.655 265.424C242.655 265.522 242.735 265.683 242.832 265.78C243.17 266.118 243.585 267.592 243.585 268.458C243.585 269.88 242.851 271.624 241.849 272.582C241.567 272.852 240.953 273.282 240.484 273.538C239.938 273.835 239.613 274.119 239.582 274.325C239.554 274.502 239.478 274.647 239.413 274.647C239.347 274.647 239.21 274.831 239.107 275.055C238.923 275.458 238.927 275.462 239.431 275.364C239.712 275.309 240.395 275.044 240.949 274.774H240.947ZM265.213 275.105C266.066 275.024 267.182 274.863 267.694 274.748C268.69 274.524 269.012 274.558 269.012 274.887C269.012 275.315 269.316 275.243 270.3 274.584C272.535 273.087 275.997 269.898 277.01 268.403L277.41 267.812L276.971 268.034C275.015 269.023 273.257 269.479 270.845 269.623L269.034 269.732L268.287 270.346C267.875 270.683 267.32 271.156 267.053 271.396C266.235 272.133 263.726 273.797 262.274 274.566C261.585 274.931 261.462 275.049 261.681 275.136C262.07 275.29 263.403 275.278 265.213 275.105ZM236.704 274.789C236.991 274.612 237.226 274.414 237.226 274.349C237.226 274.285 236.929 274.147 236.567 274.044C236.204 273.941 235.664 273.738 235.365 273.594C234.583 273.214 233.285 271.948 232.861 271.151C232.661 270.774 232.428 270.489 232.344 270.517C232.083 270.603 231.757 271.669 231.862 272.089C231.999 272.636 233.403 274.01 234.435 274.61C235.433 275.189 235.985 275.233 236.704 274.789ZM259.207 274.819C259.355 274.744 259.895 274.484 260.407 274.241C261.33 273.804 263.436 272.638 263.585 272.483C263.627 272.438 264.221 272.023 264.903 271.56C265.585 271.097 266.422 270.453 266.762 270.127C267.357 269.559 267.366 269.536 266.995 269.535C266.092 269.53 261.8 268.519 259.747 267.824L258.778 267.496L257.577 268.555C256.916 269.137 256.34 269.654 256.298 269.702C256.128 269.894 253.526 271.772 252.598 272.372C252.055 272.723 251.706 273.036 251.822 273.068C251.938 273.1 252.273 273.234 252.566 273.365C253.48 273.776 254.097 273.682 255.279 272.951C256.518 272.185 257.278 272.052 257.354 272.588C257.386 272.815 257.19 273.16 256.765 273.62C256.415 274 256.189 274.348 256.264 274.394C256.339 274.44 256.881 274.555 257.468 274.648C258.056 274.742 258.568 274.85 258.606 274.888C258.712 274.993 258.91 274.971 259.207 274.819ZM215.906 274.485C217.425 274.092 219.056 273.087 219.721 272.137C219.917 271.857 220.121 271.592 220.173 271.55C220.483 271.299 221.041 269.758 221.182 268.762C221.694 265.137 219.786 262.065 216.327 260.946C215.718 260.748 215.118 260.694 213.992 260.733C212.614 260.781 212.373 260.838 211.323 261.357C210.645 261.692 209.867 262.235 209.437 262.673C208.68 263.444 207.921 264.482 207.921 264.744C207.921 264.827 207.856 265.016 207.776 265.164C207.529 265.623 207.3 266.849 207.302 267.708C207.307 269.522 208.038 271.225 209.384 272.556C210.867 274.023 212.226 274.609 214.2 274.632C214.797 274.64 215.565 274.573 215.906 274.485ZM212.96 273.108C211.709 272.801 210.166 271.638 209.432 270.449C208.937 269.647 208.651 268.294 208.744 267.194C208.973 264.464 211.127 262.331 213.85 262.136C215.243 262.036 216.334 262.307 217.384 263.011C219.009 264.101 219.909 265.77 219.895 267.666C219.881 269.593 218.957 271.293 217.366 272.32C216.069 273.157 214.389 273.458 212.96 273.108ZM216.455 272.208C217.409 271.741 218.38 270.746 218.881 269.723C219.223 269.025 219.297 268.662 219.297 267.672C219.297 266.631 219.23 266.333 218.8 265.46C218.23 264.305 217.515 263.613 216.331 263.071C215.611 262.742 215.325 262.699 214.153 262.746C213.117 262.787 212.644 262.883 212.107 263.161C211.164 263.65 210.305 264.498 209.807 265.432C209.442 266.116 209.394 266.38 209.396 267.678C209.396 269.015 209.439 269.225 209.856 269.979C210.425 271.01 211.43 271.908 212.473 272.319C213.569 272.751 215.456 272.698 216.455 272.208ZM213.115 270.372C210.966 269.202 210.744 266.493 212.692 265.204C213.985 264.349 215.747 264.66 216.705 265.914C217.041 266.354 217.147 266.685 217.195 267.438C217.273 268.648 216.877 269.506 215.966 270.108C215.174 270.632 213.822 270.757 213.115 270.372ZM213.916 266.661C214.045 266.325 213.717 266.008 213.482 266.243C213.284 266.441 213.407 266.904 213.658 266.904C213.748 266.904 213.864 266.794 213.916 266.661ZM247.149 273.845C248.858 273.223 248.871 273.202 247.877 272.732C247.402 272.508 246.981 272.324 246.942 272.324C246.902 272.324 246.73 272.551 246.558 272.827C246.386 273.104 246.096 273.567 245.912 273.855C245.528 274.458 245.466 274.458 247.149 273.845ZM237.929 273.046C238.103 272.123 237.971 271.633 237.536 271.581C236.542 271.463 235.518 270.659 235.08 269.653C234.795 268.999 234.56 268.943 233.742 269.333C233.163 269.609 233.086 269.851 233.354 270.555C233.795 271.714 235.07 272.78 236.606 273.273C237.766 273.645 237.818 273.636 237.929 273.046ZM240.579 272.647C241.235 272.248 242.198 271.07 242.524 270.27C242.933 269.265 242.894 267.602 242.439 266.574C241.908 265.377 240.671 264.261 239.404 263.833C238.215 263.432 237.71 263.416 236.61 263.742C234.872 264.257 233.5 265.581 233.137 267.091L233.037 267.51L233.678 267.284C234.03 267.16 234.5 267.059 234.722 267.059C234.983 267.059 235.29 266.875 235.594 266.537C236.25 265.809 236.917 265.509 237.877 265.512C238.918 265.518 239.759 265.972 240.398 266.88C240.8 267.451 240.87 267.69 240.869 268.504C240.869 269.323 240.797 269.564 240.369 270.197C239.921 270.858 239.873 271.038 239.899 271.939C239.916 272.492 239.966 272.943 240.012 272.943C240.057 272.943 240.312 272.81 240.579 272.647ZM250.885 272.075C250.983 271.957 251.126 271.86 251.203 271.86C251.327 271.86 252.406 271.204 252.809 270.885C252.894 270.817 253.182 270.608 253.448 270.42C255.262 269.141 257.383 267.319 257.383 267.039C257.383 266.976 257.226 266.879 257.034 266.824C256.217 266.589 254.26 265.724 252.113 264.649C250.847 264.015 249.774 263.497 249.729 263.497C249.683 263.497 249.451 263.752 249.212 264.065C248.843 264.547 248.762 264.834 248.676 265.962C248.565 267.404 248.259 268.901 247.849 270.001C247.341 271.363 247.293 271.267 248.797 271.88C250.165 272.437 250.554 272.473 250.885 272.075ZM223.834 269.398L224.785 269.048L224.318 268.172C223.507 266.654 222.226 264.798 221.467 264.04C221.181 263.754 220.972 263.853 221.223 264.155C221.698 264.727 221.938 265.936 221.953 267.836C221.97 270.021 222.043 270.282 222.549 269.96C222.733 269.843 223.311 269.59 223.834 269.398ZM269.569 267.481C271.015 265.947 271.424 265.457 272.337 264.165C272.808 263.499 273.247 262.885 273.312 262.8C273.668 262.336 274.284 261.315 274.284 261.188C274.284 261.107 274.371 260.946 274.478 260.83C274.584 260.714 274.846 260.273 275.06 259.851L275.449 259.083L274.124 259.068C272.336 259.049 268.631 258.491 267.543 258.078C266.802 257.797 266.453 257.885 266.169 258.425C266.023 258.702 265.731 259.172 265.521 259.47C265.31 259.768 264.875 260.387 264.555 260.844C264.235 261.302 263.902 261.755 263.815 261.851C263.729 261.947 263.416 262.339 263.12 262.722C262.552 263.458 261.874 264.228 260.498 265.7C260.037 266.193 259.688 266.618 259.723 266.644C259.758 266.67 260.484 266.887 261.337 267.125C262.19 267.363 263.201 267.647 263.585 267.756C264.678 268.067 266.678 268.365 268.096 268.428C268.591 268.45 268.754 268.345 269.569 267.481ZM273.509 268.12C274.524 267.888 275.003 267.709 276.276 267.084C277.332 266.567 277.431 266.545 277.612 266.792C277.719 266.939 277.869 267.055 277.945 267.05C278.101 267.04 279.09 265.59 279.09 265.37C279.09 265.291 279.151 265.203 279.224 265.174C279.298 265.146 279.759 264.321 280.249 263.342C280.74 262.362 281.208 261.431 281.29 261.273C281.373 261.114 281.567 260.592 281.722 260.111C281.876 259.631 282.073 259.063 282.159 258.85C282.471 258.073 283.179 255.139 283.078 255.038C283.033 254.993 282.777 255.276 282.508 255.666C281.65 256.911 279.72 258.129 277.868 258.592C277.324 258.729 276.861 258.86 276.84 258.884C276.819 258.908 276.436 259.625 275.99 260.477C275.217 261.953 273.223 265.078 272.626 265.747C272.251 266.168 270.851 267.835 270.561 268.206C270.336 268.493 270.365 268.498 271.57 268.391C272.253 268.33 273.125 268.208 273.509 268.12ZM260.034 264.529C262.002 262.368 263.822 260.019 265.169 257.901L265.429 257.494L264.546 257.218C264.06 257.066 263.558 256.886 263.43 256.817C263.302 256.748 262.883 256.59 262.5 256.466C261.346 256.092 259.006 255.099 257.49 254.339C256.64 253.913 256.298 253.877 256.298 254.215C256.298 254.34 255.253 255.964 254.861 256.45C254.792 256.535 254.196 257.371 253.537 258.308C251.514 261.186 251.272 261.516 250.838 262L250.417 262.469L250.838 262.725C251.536 263.149 255.207 264.892 256.375 265.354C256.546 265.422 257.034 265.622 257.46 265.798C257.887 265.975 258.313 266.121 258.406 266.124C258.5 266.129 259.233 265.409 260.034 264.529ZM287.286 263.128C288.726 262.39 289.914 261.654 290.521 261.121L290.865 260.819L290.475 260.356C289.954 259.738 290.044 259.427 290.798 259.234C291.561 259.038 292.261 258.669 292.621 258.272C292.881 257.985 292.879 257.959 292.581 257.69C292.042 257.203 292.186 256.89 293.084 256.594C293.891 256.327 294.489 256.01 294.872 255.645C295.031 255.493 294.982 255.411 294.623 255.225C294.199 255.006 293.665 254.369 293.665 254.082C293.665 254.009 294.016 253.791 294.444 253.598C295.168 253.271 296.766 251.986 296.766 251.731C296.766 251.669 296.487 251.493 296.146 251.339C295.276 250.947 295.333 250.604 296.354 250.106C296.809 249.883 297.476 249.418 297.836 249.073L298.491 248.444L297.977 248.188C297.142 247.771 297.232 247.403 298.35 246.665C298.886 246.311 299.708 245.67 300.177 245.241L301.03 244.462L300.139 244.454C299.371 244.448 299.247 244.407 299.247 244.156C299.247 243.788 300.798 242.373 301.725 241.894C302.282 241.606 302.235 241.428 301.565 241.294C301.216 241.225 301.098 241.124 301.135 240.926C301.201 240.57 303.211 239.229 303.86 239.107C304.137 239.056 304.364 238.955 304.364 238.883C304.364 238.678 303.753 238.567 302.62 238.565C301.716 238.565 301.573 238.524 301.573 238.284C301.573 238.13 301.657 237.921 301.759 237.819C301.861 237.717 301.914 237.634 301.875 237.634C301.7 237.634 299.237 238.567 298.472 238.92L297.619 239.314L298.056 239.48C298.296 239.572 298.6 239.646 298.731 239.646C298.863 239.646 299.42 239.861 299.971 240.123C300.692 240.467 300.956 240.672 300.918 240.859C300.852 241.183 300.513 241.156 299.325 240.734C298.668 240.5 298.006 240.399 297.076 240.391C295.87 240.381 295.68 240.423 294.828 240.887C294.06 241.306 292.195 242.524 291.773 242.884C291.713 242.935 292.411 242.951 293.324 242.92C296.118 242.825 299.442 243.385 298.958 243.869C298.82 244.007 298.047 244.045 296.101 244.011C293.848 243.972 293.192 244.016 291.885 244.293C290.473 244.593 289.169 245.118 289.169 245.385C289.169 245.598 290.183 245.686 292.716 245.695C295.67 245.705 296.509 245.81 296.579 246.176C296.642 246.502 296.046 246.574 292.215 246.708L289.293 246.809L289.386 247.274C289.437 247.529 289.479 247.973 289.479 248.261V248.783H291.637C293.987 248.783 294.285 248.835 294.285 249.242C294.285 249.484 294.038 249.522 291.951 249.595C290.667 249.641 289.577 249.718 289.529 249.766C289.407 249.887 289.136 252.674 289.236 252.774C289.281 252.819 289.615 252.749 289.979 252.618C291.766 251.981 292.924 251.699 293.088 251.862C293.373 252.147 292.763 252.634 291.187 253.383C288.766 254.532 288.961 254.354 288.733 255.604C288.621 256.215 288.561 256.746 288.6 256.785C288.638 256.824 288.935 256.744 289.258 256.609C289.769 256.396 289.876 256.393 290.069 256.585C290.377 256.893 290.264 257.011 289.112 257.589C288.16 258.067 288.095 258.135 287.928 258.821C287.675 259.867 287.667 260.172 287.894 260.126C288.003 260.104 288.134 260.195 288.185 260.328C288.245 260.484 288.046 260.799 287.621 261.22C286.963 261.871 286.092 263.496 286.401 263.496C286.492 263.496 286.89 263.331 287.286 263.128ZM250.366 260.769C250.857 260.121 251.365 259.43 251.496 259.234C251.627 259.038 251.904 258.656 252.111 258.386C252.319 258.115 252.595 257.731 252.726 257.533C252.857 257.334 253.544 256.322 254.253 255.285C254.963 254.248 255.521 253.382 255.494 253.361C255.467 253.34 255.235 253.22 254.98 253.095C254.724 252.97 254.101 252.637 253.596 252.355C252.725 251.869 252.668 251.857 252.472 252.124C252.359 252.278 252.266 252.518 252.266 252.656C252.266 253.084 251.028 255.014 250.193 255.888C249.756 256.346 248.906 257.045 248.306 257.442L247.213 258.163L247.551 258.855C248.181 260.145 248.39 260.677 248.39 260.99C248.39 261.269 249.062 261.93 249.358 261.943C249.421 261.948 249.875 261.418 250.366 260.769ZM276.004 257.671C276.232 257.397 276.359 257.071 277.153 254.724C277.736 252.999 278.119 251.416 278.329 249.868C278.404 249.314 278.507 248.67 278.558 248.435L278.65 248.009H277.626C276.628 248.009 273.871 247.44 272.684 246.99C272.359 246.866 272.038 246.799 271.97 246.84C271.903 246.882 271.691 247.354 271.498 247.889C271.306 248.424 271.045 249.105 270.917 249.403C270.79 249.701 270.627 250.085 270.555 250.255C269.987 251.601 268.731 254.154 268.07 255.309C267.617 256.1 267.328 256.765 267.404 256.841C267.553 256.988 269.375 257.397 271.183 257.69C271.822 257.793 273.122 257.888 274.071 257.9C275.489 257.917 275.833 257.876 276.004 257.671ZM278.102 257.372C279.701 256.736 280.385 256.286 281.342 255.239C282.295 254.195 282.354 254.158 282.749 254.338C282.976 254.441 283.177 254.506 283.196 254.481C283.384 254.234 283.587 251.699 283.587 249.606C283.587 245.626 282.724 241.196 281.309 237.898C280.418 235.824 278.577 232.409 278.16 232.058C278.109 232.015 277.9 231.736 277.694 231.438C276.546 229.77 273.352 226.354 273.355 226.797C273.355 226.922 273.639 227.373 273.984 227.799C275.77 230.004 277.784 233.734 278.479 236.123C278.597 236.528 278.782 236.859 278.892 236.859C279.001 236.859 279.09 236.791 279.09 236.709C279.09 236.627 279.23 236.485 279.401 236.394C279.784 236.189 280.331 236.438 280.331 236.817C280.331 237.127 279.58 237.943 279.294 237.943C279.05 237.943 279.035 238.297 279.249 239.028C279.555 240.077 279.863 242.998 279.864 244.873C279.864 246.381 279.909 246.77 280.079 246.77C280.535 246.77 281.404 246.292 281.898 245.769C282.483 245.149 282.596 245.119 282.993 245.478C283.39 245.836 283.363 245.918 282.603 246.677C281.991 247.288 280.559 248.009 279.958 248.009C279.75 248.009 279.56 248.769 279.557 249.613C279.552 250.473 278.926 253.015 278.137 255.366C277.525 257.189 277.396 257.611 277.454 257.611C277.481 257.611 277.772 257.504 278.102 257.372ZM267.064 254.8C267.959 253.17 269.476 250.09 269.478 249.9C269.478 249.84 269.571 249.614 269.684 249.399C269.796 249.184 269.929 248.87 269.98 248.702C270.03 248.534 270.217 248.014 270.394 247.547C270.572 247.08 270.718 246.619 270.718 246.523C270.718 246.428 269.863 245.99 268.818 245.55C267.773 245.111 266.084 244.338 265.063 243.834C263.792 243.207 263.149 242.965 263.025 243.068C262.925 243.151 262.589 243.71 262.28 244.31C261.554 245.714 259.088 249.96 258.241 251.262C257.06 253.078 257.058 252.908 258.266 253.452C258.847 253.713 259.705 254.101 260.174 254.314C260.643 254.527 261.306 254.805 261.647 254.932C261.989 255.059 262.407 255.227 262.578 255.307C263.243 255.616 265.993 256.495 266.097 256.431C266.157 256.394 266.592 255.66 267.064 254.8ZM229.783 254.965C230.679 254.876 232.074 254.701 232.884 254.577C233.695 254.453 234.846 254.279 235.443 254.19C236.04 254.102 236.947 253.934 237.459 253.817C237.97 253.701 238.633 253.557 238.932 253.498C240.74 253.139 241.178 253.004 240.792 252.924C240.579 252.88 239.986 252.76 239.474 252.658C238.963 252.556 238.265 252.412 237.924 252.338C235.849 251.888 233.213 251.693 230.946 251.82C227.956 251.988 224.275 251.986 221.324 251.815C218.546 251.654 215.486 251.946 213.126 252.598C212.705 252.714 212.134 252.809 211.856 252.809C211.578 252.809 211.307 252.879 211.254 252.964C211.202 253.049 211.309 253.119 211.493 253.119C211.676 253.119 212.186 253.215 212.626 253.332C213.689 253.616 215.483 253.979 216.914 254.199C217.553 254.298 218.67 254.476 219.395 254.595C220.721 254.812 223.615 255.111 225.054 255.18C226.146 255.231 227.883 255.152 229.783 254.964V254.965ZM256.996 251.101C257.422 250.416 257.841 249.737 257.928 249.591C258.014 249.445 258.293 248.979 258.548 248.555C259.715 246.612 260.796 244.714 261.639 243.131C261.94 242.566 261.993 242.338 261.86 242.179C261.765 242.064 261.626 241.97 261.553 241.97C261.48 241.97 260.964 241.691 260.407 241.35C259.849 241.009 259.325 240.731 259.241 240.731C259.157 240.731 259.089 240.661 259.089 240.576C259.089 240.49 259.008 240.421 258.909 240.421C258.811 240.421 258.501 240.247 258.222 240.034C257.942 239.821 257.678 239.646 257.633 239.646C257.589 239.646 257.089 239.315 256.521 238.911C255.954 238.506 255.191 237.966 254.826 237.711C254.461 237.455 253.974 237.112 253.744 236.949L253.327 236.652L252.946 237.104C252.737 237.352 252.383 237.834 252.16 238.175C251.937 238.516 251.706 238.829 251.646 238.872C251.586 238.914 251.344 239.258 251.108 239.634C250.871 240.011 250.615 240.394 250.538 240.486C250.282 240.792 248.626 243.188 248.367 243.627C248.227 243.865 247.797 244.556 247.413 245.161C246.769 246.174 246.734 246.279 246.975 246.477C247.495 246.905 249.562 248.437 249.973 248.699L250.394 248.967L251.229 248.178C252.538 246.942 252.731 247.076 252.731 249.224V250.568L254.321 251.45C255.195 251.935 255.98 252.335 256.065 252.339C256.151 252.344 256.569 251.786 256.996 251.101ZM243.281 249.79C245.066 246.764 245.22 246.456 245.021 246.33C244.932 246.274 244.276 245.698 243.562 245.049C242.849 244.4 242.038 243.68 241.76 243.447C241.482 243.215 240.648 242.351 239.907 241.529C239.165 240.707 238.478 240.013 238.38 239.988C238.232 239.95 237.411 241.151 236.683 242.469C235.826 244.021 234.084 247.672 233.892 248.319C233.829 248.532 233.726 248.776 233.663 248.861C233.281 249.382 233.391 249.707 234.209 250.48C234.944 251.174 235.113 251.262 235.716 251.262C236.089 251.262 237.053 251.41 237.857 251.591C239.86 252.042 240.613 252.16 241.313 252.135L241.911 252.114L243.281 249.79ZM245.744 251.579C246.835 251.203 248.624 250.285 249.04 249.887C249.285 249.653 249.223 249.578 248.133 248.784C247.489 248.315 246.883 247.862 246.784 247.777C246.109 247.192 246.12 247.19 245.657 247.966C245.414 248.373 245.144 248.823 245.058 248.966C244.516 249.863 243.651 251.363 243.602 251.494C243.569 251.579 243.449 251.757 243.334 251.889C243.149 252.103 243.213 252.118 243.936 252.025C244.382 251.968 245.195 251.767 245.744 251.579ZM230.082 251.106C231.082 251.016 231.746 250.885 231.824 250.763C232.074 250.369 231.953 249.766 231.548 249.392C231.325 249.185 230.749 248.499 230.269 247.867C229.789 247.234 229.205 246.468 228.972 246.163C228.739 245.858 228.501 245.504 228.443 245.377C228.385 245.249 228.205 244.953 228.042 244.719C227.88 244.485 227.513 243.837 227.228 243.28C226.942 242.723 226.677 242.322 226.639 242.389C226.513 242.613 225.951 244.667 225.78 245.532C225.288 248.009 225.132 249.122 225.132 250.139L225.132 251.262L226.799 251.257C227.715 251.251 229.193 251.186 230.082 251.106ZM234.32 244.602C235.306 242.593 236.495 240.453 237.177 239.457L237.572 238.881L236.793 237.831C235.265 235.771 233.753 232.836 233.427 231.3L233.315 230.774L232.901 231.222C231.438 232.807 229.75 235.404 228.468 238.042C227.894 239.222 227.371 240.293 227.306 240.421C227.192 240.643 228.346 243.166 228.999 244.124C229.149 244.345 229.536 244.923 229.859 245.409C230.182 245.896 230.561 246.419 230.7 246.571C230.84 246.723 231.293 247.29 231.706 247.829L232.458 248.811L232.913 247.675C233.164 247.05 233.796 245.667 234.32 244.602ZM278.78 245.224C278.78 243.535 278.307 239.588 278.012 238.812C277.876 238.456 277.771 238.407 277.14 238.407C276.745 238.407 276.028 238.31 275.547 238.191C273.647 237.722 273.875 237.606 273.668 239.144C273.417 241.016 272.94 243.217 272.321 245.377C272.173 245.892 275.689 246.817 278.121 246.902L278.78 246.926V245.224ZM249.347 240.15C249.886 239.363 250.445 238.561 250.589 238.369C251.977 236.515 252.266 236.091 252.263 235.908C252.263 235.792 251.964 235.491 251.604 235.239C250.729 234.629 249.09 233.203 247.415 231.595L246.045 230.28L245.008 231.363C242.687 233.787 241.793 234.855 239.907 237.458L238.944 238.788L239.286 239.178C239.961 239.947 244.449 244.39 245.117 244.95L245.798 245.521L247.082 243.552C247.788 242.469 248.807 240.938 249.347 240.15ZM271.314 244.718C271.615 243.745 271.923 242.502 272.092 241.582C272.345 240.2 272.733 237.76 272.733 237.546C272.733 237.443 272.367 237.241 271.919 237.096C271.471 236.951 270.173 236.387 269.033 235.841C267.893 235.296 266.899 234.887 266.823 234.934C266.748 234.98 266.686 235.12 266.686 235.244C266.686 235.368 266.619 235.59 266.537 235.738C266.455 235.886 266.099 236.634 265.746 237.401C265.392 238.167 264.765 239.477 264.352 240.31L263.602 241.826L265.958 242.96C267.254 243.584 268.663 244.245 269.089 244.43C269.516 244.615 270.074 244.864 270.33 244.984C271.018 245.306 271.143 245.272 271.314 244.718ZM290.23 242.719C291.039 241.91 291.186 241.68 291.19 241.209C291.204 239.84 291.872 238.117 292.758 237.164C293.219 236.668 294.509 235.777 294.779 235.767C294.966 235.761 296.19 234.373 296.093 234.276C295.957 234.14 293.262 235.176 293.045 235.448C293.002 235.502 292.663 235.742 292.291 235.983C291.371 236.58 291.159 236.365 291.612 235.295L291.946 234.506L291.527 234.605C290.62 234.821 289.367 235.56 288.673 236.288C288.193 236.792 287.863 237.022 287.704 236.961C287.408 236.847 287.406 236.919 287.685 237.705C287.807 238.049 287.95 238.528 288.002 238.77C288.08 239.135 288.135 239.177 288.324 239.021C288.449 238.917 288.703 238.562 288.889 238.233C289.074 237.903 289.272 237.633 289.328 237.633C289.383 237.633 289.509 237.459 289.606 237.246C289.799 236.823 290.172 236.732 290.304 237.075C290.385 237.285 290.182 237.738 289.503 238.872C288.638 240.317 288.533 240.676 288.694 241.62C289.014 243.485 289.057 243.673 289.164 243.673C289.225 243.673 289.704 243.244 290.23 242.719ZM263.812 238.833C264.437 237.534 265.162 235.964 265.425 235.343L265.902 234.215L265.557 234.059C265.368 233.973 265.073 233.819 264.903 233.716C263.009 232.576 262.326 232.133 260.769 231.033L258.961 229.755L258.045 230.79C257.541 231.36 256.985 232 256.809 232.213C256.633 232.426 256.113 233.053 255.652 233.606C255.192 234.16 254.649 234.848 254.446 235.136L254.078 235.659L254.549 236.065C255.958 237.282 262.042 241.18 262.55 241.192C262.62 241.192 263.188 240.132 263.812 238.833ZM293.436 240.476C294.336 239.88 294.739 239.491 295.181 238.795C295.75 237.897 296.488 237.249 297.474 236.784C298.105 236.486 298.393 236.419 298.538 236.539C298.689 236.664 298.862 236.51 299.261 235.891C299.55 235.444 299.81 235.025 299.84 234.962C299.93 234.767 298.438 234.836 297.697 235.061C297.313 235.177 296.672 235.455 296.272 235.678C295.871 235.902 295.472 236.084 295.383 236.084C295.182 236.084 293.977 237.372 293.666 237.92C293.538 238.146 293.387 238.365 293.331 238.408C293.019 238.645 292.442 240.885 292.692 240.885C292.762 240.885 293.096 240.701 293.436 240.476ZM239.055 236.67C241.047 233.937 241.529 233.365 243.878 230.941L245.335 229.436L244.731 228.719C244.398 228.324 243.972 227.781 243.784 227.513C243.596 227.244 243.373 226.945 243.289 226.847C243.205 226.75 242.837 226.036 242.472 225.26C242.106 224.484 241.77 223.85 241.726 223.851C241.614 223.851 239.652 225.108 238.649 225.82C236.759 227.161 234.279 229.509 234.282 229.954C234.282 230.353 234.776 231.937 235.234 233.026C235.835 234.453 238.073 237.923 238.267 237.729C238.299 237.697 238.653 237.221 239.055 236.67ZM277.497 236.898C277.328 235.972 276.023 232.921 275.205 231.535L274.902 231.023L273.663 232.201L273.815 233.252C273.899 233.83 273.969 234.837 273.971 235.488L273.976 236.673L275.177 236.931C275.838 237.072 276.449 237.213 276.534 237.244C276.619 237.274 276.889 237.304 277.133 237.311C277.535 237.322 277.57 237.283 277.499 236.898H277.497ZM272.715 234.574C272.69 232.534 272.596 232.147 272.112 232.088C271.521 232.016 270.266 231.608 269.357 231.193C268.907 230.987 268.488 230.819 268.426 230.82C268.33 230.82 268.025 231.622 267.465 233.342C267.325 233.773 267.334 233.78 269.06 234.593C270.014 235.044 271.039 235.505 271.338 235.618C271.636 235.732 271.947 235.883 272.028 235.954C272.109 236.026 272.301 236.084 272.454 236.084C272.705 236.084 272.731 235.932 272.715 234.574ZM254.057 233.763C254.317 233.464 254.769 232.906 255.06 232.522C255.352 232.139 255.814 231.582 256.086 231.283C256.357 230.985 256.902 230.359 257.297 229.893L258.014 229.044L257.039 228.19C256.503 227.72 255.492 226.786 254.793 226.114L253.52 224.892L252.942 225.166C252.623 225.317 252.289 225.502 252.198 225.577C252.108 225.653 251.58 226.009 251.026 226.368C250.471 226.728 249.983 227.062 249.94 227.112C249.898 227.161 249.461 227.495 248.971 227.854C247.963 228.591 246.994 229.449 246.994 229.604C246.994 229.731 250.988 233.327 251.956 234.072C252.34 234.367 252.755 234.706 252.879 234.825C253.074 235.012 253.138 234.991 253.345 234.674C253.476 234.472 253.797 234.062 254.057 233.763ZM266.534 232.484C266.648 232.122 266.824 231.651 266.925 231.438C267.38 230.475 267.344 230.277 266.644 229.891C265.669 229.354 264.418 228.53 263.184 227.61C262.579 227.16 262.023 226.792 261.947 226.792C261.751 226.792 259.864 228.687 259.864 228.884C259.864 228.974 260.071 229.17 260.323 229.32C260.576 229.469 260.873 229.679 260.982 229.786C261.417 230.213 265.976 233.12 266.235 233.136C266.285 233.141 266.42 232.846 266.534 232.484ZM272.216 230.596C272.169 230.474 272.051 230.081 271.955 229.724C271.859 229.367 271.719 228.962 271.646 228.824C271.572 228.686 271.396 228.292 271.254 227.948C271.056 227.466 270.868 227.278 270.431 227.124C269.355 226.747 269.261 226.785 269.147 227.644C269.091 228.07 268.968 228.614 268.874 228.854C268.59 229.573 268.658 229.671 269.748 230.113C270.324 230.346 270.935 230.596 271.105 230.667C271.64 230.892 272.313 230.849 272.216 230.596ZM267.921 228.02C267.999 227.557 268.108 226.966 268.163 226.706C268.257 226.261 268.21 226.2 267.358 225.675C266.861 225.368 266.184 224.903 265.854 224.641L265.255 224.165L264.353 224.797C262.806 225.88 262.807 225.877 263.81 226.66C265.15 227.707 267.503 229.136 267.648 228.991C267.72 228.919 267.843 228.482 267.921 228.02ZM247.022 227.966C247.987 227.062 250.886 224.997 252.15 224.313C252.47 224.14 252.731 223.973 252.731 223.941C252.731 223.91 252.455 223.411 252.117 222.833C251.778 222.255 251.456 221.475 251.399 221.1C251.309 220.495 251.259 220.428 250.967 220.512C250.786 220.565 249.991 220.75 249.199 220.922C247.843 221.219 246.99 221.494 244.979 222.287C243.269 222.961 243.036 223.122 243.087 223.596C243.149 224.173 243.833 225.602 244.509 226.566C245.151 227.481 246.108 228.645 246.219 228.645C246.262 228.645 246.623 228.34 247.022 227.966ZM260.661 225.397C259.952 224.688 259.253 223.627 259.147 223.096C259.06 222.664 259.028 222.646 258.568 222.785C258.3 222.866 257.836 223.003 257.538 223.091C256.304 223.451 254.747 224.134 254.747 224.315C254.747 224.543 256.793 226.522 258.234 227.688L258.851 228.188L261.154 225.888L260.661 225.397ZM262.595 224.743C262.841 224.554 263.136 224.308 263.251 224.198C263.366 224.087 263.662 223.893 263.91 223.765C264.437 223.492 264.449 223.426 264.052 222.95C263.67 222.493 262.974 222.297 261.803 222.316C260.391 222.34 260.201 222.432 260.356 223.02C260.478 223.483 261.776 225.089 262.028 225.089C262.094 225.089 262.349 224.933 262.595 224.743ZM254.782 222.939C255.977 222.404 257.781 221.785 258.887 221.53C259.33 221.428 259.775 221.246 259.875 221.126C259.975 221.006 260.205 220.901 260.387 220.893C261.066 220.865 259.255 220.491 257.499 220.297C255.386 220.064 252.421 220.189 252.421 220.512C252.421 220.884 252.779 221.765 253.258 222.568C253.522 223.012 253.75 223.378 253.763 223.381C253.777 223.381 254.235 223.184 254.782 222.939ZM273.533 219.087C273.658 218.938 273.88 218.624 274.027 218.389C274.29 217.967 274.288 217.96 273.862 217.776C273.196 217.489 271.775 216.583 271.279 216.128C270.986 215.86 270.808 215.784 270.763 215.907C270.726 216.011 270.532 216.336 270.333 216.629C269.978 217.152 269.976 217.168 270.262 217.475C270.737 217.983 271.565 218.571 272.368 218.969C273.285 219.424 273.253 219.42 273.533 219.087ZM275.37 216.106C275.746 216.106 276.56 215.412 276.857 214.838C277.092 214.384 277.091 214.383 276.735 214.566C276.538 214.668 276.227 214.888 276.043 215.055C275.821 215.256 275.394 215.387 274.778 215.443L273.849 215.527L273.058 214.789C272.307 214.086 272.268 214.069 272.268 214.44C272.268 215.053 273.35 216.072 274.08 216.147C274.405 216.18 274.764 216.184 274.878 216.157C274.992 216.129 275.213 216.106 275.37 216.106Z" fill="currentcolor"/>

</svg>
