<svg  viewBox="0 0 1180 580" fill="currentcolor" xmlns="http://www.w3.org/2000/svg">
<path d="M226.984 328.654C225.822 328.575 225.28 328.465 225.058 328.265C224.888 328.111 224.628 327.986 224.48 327.986C224.239 327.986 224.235 327.927 224.442 327.432L224.673 326.879L223.394 326.939C219.35 327.13 176.252 328.491 175.554 328.45C174.738 328.402 174.709 328.383 174.563 327.791L174.412 327.182L180.205 321.146C183.392 317.827 186.483 314.612 187.075 314.002L188.152 312.894L187.462 312.986C186.991 313.049 186.772 313.016 186.772 312.883C186.772 312.749 186.574 312.72 186.148 312.791L185.524 312.895L186.312 312.176C186.745 311.78 187.418 311.219 187.809 310.929C190.27 309.1 195.832 304.142 198.391 301.497L199.949 299.887L198.377 299.18C195.809 298.025 193.519 296.509 193.497 295.95C193.483 295.623 194.063 294.927 194.35 294.927C194.617 294.927 197.907 292.73 200.019 291.14L201.708 289.869L201.216 288.897C200.545 287.568 199.673 284.901 199.225 282.801C198.72 280.44 198.666 274.565 199.128 272.289C199.458 270.664 200.229 268.364 200.868 267.102C202.203 264.461 204.637 261.752 207.233 260.016C207.628 259.752 207.631 259.736 207.312 259.628C205.629 259.058 204.249 257.946 203.411 256.483C202.751 255.331 202.132 253.107 201.997 251.403C201.87 249.787 202.298 246.927 203.34 242.442C204.265 238.458 204.687 237.586 205.554 237.861C205.954 237.988 206.18 238.604 206.314 239.934C206.535 242.135 207.161 242.884 209.943 244.283C212.761 245.699 213.884 246.831 214.89 249.27C215.875 251.655 216.099 254.095 215.495 255.847C215.264 256.515 215.267 256.524 215.617 256.391C216.228 256.159 219.364 255.574 221.449 255.303C224.271 254.936 229.84 254.802 232.094 255.046C234.662 255.325 237.336 255.919 239.62 256.717C240.694 257.093 241.695 257.441 241.842 257.489C242.077 257.566 242.063 257.397 241.731 256.156C240.445 251.347 240.345 246.489 241.43 241.615C243.007 234.534 247.204 228.226 253.216 223.903C254.919 222.679 258.68 220.756 260.797 220.028C267.27 217.802 274.534 217.824 281.055 220.091C282.291 220.52 282.787 220.619 283.237 220.526L283.819 220.405L282.738 219.832C281.71 219.287 281.654 219.226 281.601 218.594C281.435 216.601 283.585 215.749 286.172 216.783C286.766 217.02 287.275 217.189 287.303 217.157C287.331 217.125 287.628 216.669 287.962 216.144C288.296 215.619 288.623 215.188 288.689 215.188C288.754 215.188 288.82 214.883 288.834 214.511C288.896 212.869 290.329 211.405 292.033 211.241C295.456 210.913 297.253 215.192 294.65 217.474C294.331 217.754 293.933 218.029 293.767 218.084C293.601 218.139 293.191 218.641 292.857 219.199L292.249 220.214L293.504 221.211C299.945 226.323 304.344 233.376 305.913 241.104C307.56 249.215 306.526 256.878 302.777 264.361C301.563 266.786 300.643 268.178 298.726 270.493C293.202 277.164 285.317 281.696 277.453 282.719C276.728 282.813 276.536 282.91 276.345 283.279C276.026 283.895 274.606 285.192 273.802 285.602L273.134 285.942L273.559 286.799C274.445 288.588 274.203 291.442 273.036 292.97C272.577 293.569 272.497 293.799 272.559 294.329C272.618 294.838 272.738 295.021 273.153 295.238C273.439 295.387 274.01 295.856 274.422 296.281C275.099 296.98 275.278 297.072 276.308 297.244C278.466 297.605 281.059 298.569 282.012 299.365C282.207 299.528 282.556 299.961 282.788 300.326C283.019 300.692 284.292 302.255 285.616 303.8C287.224 305.676 288.087 306.824 288.217 307.254C288.527 308.29 288.467 309.746 288.081 310.5C287.326 311.979 284.916 313.53 282.032 314.394C281.324 314.606 280.744 314.834 280.743 314.902C280.743 314.97 283.526 317.922 286.929 321.463C291.728 326.457 293.043 327.915 292.792 327.961C292.613 327.993 292.335 328.137 292.173 328.28C291.906 328.517 289.701 328.47 267.891 327.764C254.697 327.337 243.516 326.957 243.043 326.919L242.184 326.85L242.422 327.418C242.637 327.933 242.634 327.986 242.379 327.986C242.225 327.986 241.963 328.108 241.797 328.259C241.575 328.46 240.979 328.566 239.539 328.663C237.232 328.819 229.298 328.813 226.984 328.654ZM192.427 324.249C198.51 324.022 203.955 323.835 204.526 323.834C205.454 323.834 205.566 323.797 205.566 323.5C205.566 323.295 205.677 323.168 205.857 323.167C207.183 323.161 226.757 322.324 226.809 322.272C226.927 322.155 224.689 321.706 222.946 321.498C220.883 321.25 213.917 321.252 210.14 321.501C208.584 321.604 204.056 321.944 200.077 322.258C190.384 323.022 187.881 323.168 184.43 323.169H181.506L180.431 324.664H180.899C181.156 324.664 186.344 324.478 192.427 324.251V324.249ZM286.397 324.57C286.397 324.519 286.159 324.183 285.87 323.823L285.343 323.168H282.419C278.967 323.168 276.465 323.021 266.771 322.257C255.991 321.407 254.282 321.313 249.557 321.314C245.205 321.314 242.373 321.55 240.659 322.056C239.913 322.276 239.918 322.277 241.906 322.377C243.004 322.433 250.732 322.763 259.079 323.112C270.868 323.604 274.255 323.792 274.255 323.956C274.255 324.071 274.274 324.177 274.297 324.191C274.359 324.228 283.434 324.605 285.024 324.637C285.779 324.652 286.397 324.621 286.397 324.57ZM197.25 321.089C210.232 319.863 215.742 319.563 220.221 319.838C221.885 319.94 223.328 320.069 223.429 320.125C223.553 320.194 223.558 320.168 223.444 320.043C222.772 319.308 214.416 318.951 208.892 319.423C206.294 319.645 193.548 321.154 192.177 321.401C191.117 321.593 193.404 321.452 197.25 321.089ZM269.515 320.752C259.274 319.407 257.762 319.278 252.052 319.271C247.735 319.265 246.625 319.314 245.233 319.57C243.313 319.924 242.775 320.192 244.439 319.967C246.126 319.738 253.46 319.757 256.958 320C258.65 320.117 263.066 320.496 266.771 320.842C270.476 321.188 273.844 321.472 274.255 321.472C274.667 321.472 272.534 321.148 269.515 320.752ZM230.846 320.602C230.846 320.575 230.295 320.171 229.62 319.705C228.059 318.627 225.65 317.454 223.944 316.94C221.094 316.082 219.912 315.943 215.462 315.945C210.787 315.949 210.174 316.011 201.158 317.444C193.843 318.607 191.847 318.838 188.054 318.963L184.93 319.066L184.258 319.909C183.881 320.381 183.669 320.778 183.774 320.813C184.045 320.904 186.451 320.612 194.506 319.511C207.335 317.757 210.965 317.438 216.619 317.567C222.76 317.706 226.322 318.561 229.072 320.553C229.839 321.109 229.897 321.125 230.361 320.894C230.628 320.761 230.846 320.629 230.846 320.602ZM237.978 320.426C240.612 318.535 244.174 317.704 250.229 317.567C255.878 317.438 259.464 317.753 272.343 319.51C280.474 320.619 282.807 320.902 283.074 320.813C283.179 320.779 282.967 320.381 282.59 319.909L281.918 319.066L278.794 318.965C275.197 318.849 272.323 318.512 265.154 317.364C256.808 316.027 256.031 315.947 251.386 315.945C246.926 315.941 245.76 316.081 242.87 316.95C241.212 317.448 238.257 318.917 236.968 319.883C236.055 320.568 236.035 320.599 236.386 320.795C236.932 321.098 237.093 321.061 237.978 320.426ZM227.187 316.671C226.355 315.951 223.831 314.76 222.324 314.375C218.167 313.313 213.868 313.543 204.984 315.304C201.223 316.05 199.554 316.532 202.269 316.089C208.363 315.095 212.107 314.704 215.578 314.699C219.841 314.694 223.548 315.346 226.355 316.596C227.901 317.284 227.896 317.284 227.187 316.671ZM229.91 316.648C229.506 315.865 227.573 314.006 226.605 313.468C224.17 312.115 221.314 311.617 216.753 311.751C212.164 311.885 208.617 312.448 200.826 314.278C198.356 314.859 195.699 315.464 194.921 315.623C194.144 315.783 193.447 315.965 193.373 316.029C193.116 316.249 195.114 315.879 203.61 314.131C210.909 312.629 212.212 312.461 216.626 312.457C219.716 312.453 220.722 312.512 221.862 312.757C224.638 313.354 226.976 314.489 228.997 316.22C229.602 316.739 230.118 317.169 230.144 317.175C230.169 317.182 230.064 316.945 229.91 316.648ZM239.328 315.076C241.132 313.868 243.326 313.055 245.973 312.613C247.332 312.386 248.333 312.345 250.944 312.412C254.72 312.508 256.708 312.787 263.255 314.134C270.045 315.533 272.418 315.986 273.507 316.091C274.143 316.153 273.692 316.015 272.259 315.71C271.025 315.447 268.555 314.881 266.771 314.452C258.828 312.542 254.858 311.897 250.185 311.755C245.54 311.613 243.233 311.99 240.579 313.325C239.32 313.957 237.435 315.685 236.924 316.675C236.632 317.239 236.637 317.237 237.605 316.41C238.141 315.951 238.917 315.351 239.328 315.076ZM243.32 315.616C248.046 314.348 253.669 314.39 262.484 315.759C264.387 316.054 265.887 316.244 265.817 316.18C265.624 316.005 258.35 314.586 255.711 314.208C251.063 313.543 247.578 313.595 244.524 314.375C243.019 314.759 240.494 315.951 239.661 316.67L239.079 317.172L240.409 316.606C241.141 316.294 242.451 315.849 243.32 315.616ZM192.427 314.023C193.479 313.833 196.884 313.126 199.994 312.453C208.017 310.716 211.158 310.193 215.379 309.889C217.096 309.765 216.633 309.748 212.717 309.791C207.081 309.852 204.572 310.113 195.753 311.556C194.061 311.832 192.518 312.097 192.325 312.144C191.901 312.246 189.814 314.524 190.227 314.433C190.385 314.398 191.375 314.214 192.427 314.023ZM236.062 310.936C238.211 308.095 241.402 305.956 246.06 304.233C248.474 303.34 250.58 302.74 256.816 301.17C264.784 299.163 267.797 298.127 270.328 296.527L271.473 295.803L269.164 294.244C264.788 291.292 261.585 288.64 256.067 283.402L253.491 280.956L252.605 281.446C251.544 282.033 249.832 282.658 246.147 283.804C242.999 284.783 241.076 285.631 239.58 286.696C236.656 288.781 234.882 292.072 234.186 296.704C234.075 297.437 234.006 301.118 234.006 306.247V314.595L234.649 313.275C235.002 312.549 235.638 311.497 236.062 310.936ZM230.754 313.575C228.838 310.258 225.83 307.853 221.283 306.003C218.656 304.934 216.367 304.258 209.973 302.66C206.863 301.882 203.618 301.027 202.763 300.759L201.207 300.271L199.603 301.944C197.523 304.112 194.164 307.227 191.481 309.475C189.879 310.818 189.474 311.23 189.849 311.138C191.032 310.845 200.276 309.368 203.32 308.985C217.123 307.251 225.465 308.551 229.927 313.13C230.57 313.79 231.121 314.338 231.153 314.347C231.185 314.356 231.005 314.009 230.754 313.575ZM275.839 313.295C275.259 312.635 274.728 312.192 274.452 312.136C271.882 311.622 265.579 310.657 261.781 310.196C259.603 309.931 257.679 309.829 254.131 309.791C250.216 309.748 249.752 309.765 251.47 309.889C255.606 310.187 259.436 310.822 266.605 312.398C272.17 313.622 275.677 314.326 276.307 314.348C276.773 314.363 276.767 314.352 275.839 313.295ZM238.913 311.455C243.785 308.267 251.556 307.487 263.528 308.983C266.44 309.347 276.083 310.887 276.999 311.135C277.207 311.191 277.083 311.019 276.669 310.676C276.304 310.374 275.107 309.383 274.008 308.472C272.909 307.561 270.565 305.375 268.799 303.613C267.033 301.851 265.523 300.409 265.444 300.409C265.365 300.409 264.402 300.668 263.304 300.984C262.205 301.299 259.15 302.091 256.513 302.742C247.46 304.979 243.888 306.322 240.396 308.804C238.995 309.8 237.016 311.949 236.348 313.201L235.79 314.247L236.852 313.177C237.437 312.589 238.364 311.814 238.913 311.455ZM232.838 305.933C232.824 295.837 232.663 294.526 231.024 291.19C229.299 287.679 226.656 285.686 221.574 284.063C220.545 283.734 218.861 283.198 217.832 282.872C216.803 282.546 215.368 281.988 214.643 281.633L213.326 280.986L210.651 283.52C204.971 288.904 201.82 291.494 197.185 294.592L195.374 295.802L196.52 296.527C199.05 298.126 201.991 299.137 210.008 301.16C218.713 303.356 220.913 304.072 224.417 305.851C228.15 307.746 230.955 310.357 232.36 313.246C232.57 313.678 232.766 314.031 232.796 314.031C232.825 314.031 232.844 310.387 232.838 305.933ZM283.04 311.833C284.547 311.214 286.017 310.248 286.552 309.525C286.82 309.163 286.978 308.694 287.019 308.141L287.081 307.303L284.824 304.678C283.264 302.864 282.538 302.131 282.471 302.303C282.315 302.709 280.909 303.51 279.711 303.875C278.423 304.267 275.88 304.657 273.539 304.821L271.907 304.936L272.291 305.347C272.933 306.035 276.398 308.946 278.164 310.281C279.932 311.617 279.902 311.594 280.643 312.168C281.184 312.586 281.217 312.582 283.04 311.833ZM274.505 303.389C278.93 303.005 281.576 302.064 281.572 300.874C281.568 300.277 280.152 299.448 278.118 298.854L277.241 298.598L277.495 298.959C278.078 299.791 277.644 300.806 276.423 301.47C275.294 302.084 272.893 302.564 270.939 302.567L269.37 302.571L269.848 303.069C270.284 303.524 270.421 303.567 271.417 303.566C272.018 303.566 273.407 303.486 274.505 303.391V303.389ZM273.527 300.255C274.087 300.057 274.706 299.724 274.903 299.515L275.26 299.135L274.034 297.625L273.471 297.86C273.162 297.989 272.294 298.169 271.544 298.26C270.561 298.379 269.739 298.619 268.6 299.121C267.731 299.503 266.989 299.838 266.95 299.864C266.912 299.891 267.062 300.107 267.283 300.344L267.686 300.777L270.097 300.695C271.995 300.632 272.726 300.538 273.527 300.255ZM271.604 292.79C272.631 291.725 272.993 290.664 272.888 289.026C272.829 288.109 272.703 287.635 272.361 287.053C271.953 286.358 271.87 286.298 271.462 286.411C271.065 286.521 268.731 286.521 267.116 286.411C266.588 286.375 266.515 286.432 266.122 287.191C265.827 287.761 265.678 288.349 265.634 289.122L265.572 290.235L267.876 291.91C269.143 292.832 270.325 293.589 270.502 293.592C270.679 293.596 271.175 293.235 271.604 292.79ZM270.195 291.071C269.737 290.816 269.614 290.249 269.831 289.397C270.061 288.493 270.268 288.231 270.64 288.374C271.041 288.527 271.489 290.095 271.285 290.63C271.101 291.114 270.62 291.309 270.195 291.071ZM270.679 288.947C270.736 288.856 270.628 288.781 270.44 288.781C270.251 288.781 270.097 288.856 270.097 288.947C270.097 289.038 270.205 289.113 270.337 289.113C270.469 289.113 270.623 289.038 270.679 288.947ZM265.047 286.671C265.436 285.851 265.456 285.729 265.221 285.598C264.411 285.146 263.459 284.268 262.961 283.514C262.419 282.695 262.342 282.645 261.215 282.371C260.566 282.213 259.517 281.909 258.884 281.695C258.251 281.481 257.72 281.325 257.703 281.347C257.687 281.37 257.587 281.725 257.482 282.136L257.291 282.884L258.497 284.05C259.16 284.692 260.75 286.13 262.031 287.246L264.359 289.275L264.484 288.436C264.553 287.974 264.806 287.18 265.047 286.671ZM271.308 285.214C271.928 285.083 272.801 284.777 273.248 284.534C274.062 284.091 275.428 282.826 274.885 283.017C274.728 283.073 273.483 283.206 272.118 283.313C269.775 283.498 265.77 283.347 264.49 283.026C263.9 282.878 264.037 283.217 264.83 283.866C266.505 285.237 268.872 285.73 271.308 285.214ZM241.344 284.301C242.111 283.938 243.617 283.359 244.692 283.014L246.646 282.387V281.837C246.646 281.341 246.569 281.253 245.86 280.939C244.821 280.48 243.972 280.4 242.525 280.624C240.75 280.899 239.52 281.414 238.705 282.222C237.925 282.995 237.795 283.6 238.265 284.271C238.869 285.131 239.574 285.138 241.344 284.301ZM272.509 282.136C281.267 281.341 289.35 277.266 295.079 270.756C298.144 267.272 301.419 260.211 302.641 254.45C303.053 252.51 303.095 251.987 303.102 248.662C303.109 245.851 303.043 244.644 302.818 243.43C302.151 239.839 300.841 236.117 299.016 232.632C297.741 230.195 295.154 226.303 293.939 224.992C291.833 222.72 288.167 220.019 285.006 218.411C283.713 217.753 283.352 217.633 283.114 217.782C282.439 218.205 282.675 218.477 284.521 219.402C294.15 224.225 300.691 233.523 302.126 244.426C302.485 247.151 302.372 251.684 301.881 254.311C300.284 262.845 295.632 270.116 288.493 275.237C285.569 277.335 280.889 279.411 277.083 280.299C269.752 282.011 261.759 281.053 254.962 277.648C253.115 276.723 250.326 274.915 248.855 273.691L247.821 272.829L247.24 273.715L248.066 274.446C248.52 274.849 249.781 275.772 250.867 276.498C257.303 280.8 265.034 282.814 272.509 282.136ZM250.506 281.132L251.123 280.911L250.506 280.504C250.167 280.28 249.641 279.864 249.337 279.58L248.784 279.063L247.972 280.001L248.764 280.73C249.2 281.131 249.632 281.435 249.723 281.406C249.815 281.377 250.167 281.253 250.506 281.132ZM207.651 278.726C209.439 278.27 210.641 277.122 210.211 276.283C209.782 275.447 207.981 274.494 206.834 274.496C204.756 274.5 202.666 275.212 201.782 276.217C200.73 277.414 201.181 278.21 203.165 278.655C204.825 279.027 206.377 279.052 207.651 278.726ZM277.447 277.314C279.342 276.931 281.935 276.111 283.553 275.383L284.605 274.91L280.885 274.928C277.211 274.947 277.146 274.953 275.574 275.458C274.699 275.739 273.326 276.104 272.525 276.269L271.067 276.569L271.788 276.743C272.407 276.893 272.517 276.985 272.564 277.391L272.619 277.865L274.176 277.763C275.032 277.707 276.505 277.505 277.447 277.314ZM283.158 276.852C283.107 276.801 282.972 276.852 282.859 276.966C282.696 277.13 282.716 277.149 282.953 277.059C283.117 276.996 283.209 276.903 283.158 276.852ZM221.128 274.951C219.998 271.756 219.849 271.396 218.406 268.348C217.431 266.287 216.84 265.421 217.386 266.853C218.038 268.563 219.549 272.195 220.313 273.887C220.733 274.815 221.213 275.892 221.381 276.28C221.97 277.64 221.842 276.968 221.128 274.951ZM283.817 276.656C283.876 276.562 283.809 276.534 283.661 276.591C283.373 276.701 283.32 276.82 283.559 276.82C283.645 276.82 283.762 276.746 283.817 276.656ZM271.345 274.9C272.168 274.763 273.172 274.553 273.576 274.434L274.311 274.217L273.239 273.948C272.649 273.8 271.453 273.43 270.581 273.127L268.995 272.575L267.758 273.118C267.078 273.417 266.004 273.823 265.372 274.019L264.222 274.377L265.372 274.854C266.45 275.3 266.624 275.324 268.185 275.239C269.099 275.19 270.521 275.037 271.345 274.9ZM284.579 273.23C285.442 273.082 286.425 272.821 286.764 272.648C287.63 272.208 287.781 272.247 287.478 272.833C287.336 273.107 287.264 273.332 287.319 273.332C287.493 273.332 288.938 272.304 290.139 271.326C291.237 270.432 294.047 267.66 294.047 267.47C294.047 267.422 293.665 267.528 293.198 267.705C292.016 268.154 290.414 268.466 288.567 268.608L286.995 268.728L285.978 269.59C284.514 270.83 283.252 271.739 281.692 272.676L280.326 273.497L281.669 273.497C282.407 273.498 283.717 273.377 284.579 273.23ZM263.964 272.766C264.822 272.546 265.84 272.228 266.227 272.06L266.93 271.753L262.512 269.566L261.079 270.743C260.29 271.39 259.639 271.974 259.632 272.041C259.611 272.245 261.502 273.149 261.968 273.157C262.208 273.162 263.106 272.986 263.964 272.766ZM278.841 272.442C280.233 271.764 283.206 269.86 284.31 268.94C284.887 268.459 284.995 268.512 282.439 268.033C281.405 267.84 279.782 267.43 278.832 267.122L277.105 266.562L276.636 267.063C275.969 267.775 273.193 269.972 271.969 270.757C271.398 271.122 270.931 271.465 270.93 271.52C270.926 271.733 276.051 273.129 276.928 273.153C277.164 273.16 278.024 272.84 278.841 272.442ZM246.929 272.138C247.211 271.873 247.585 271.755 248.299 271.703C249.067 271.648 249.404 271.531 249.836 271.171L250.389 270.709L249.474 269.731C248.971 269.193 248.281 268.444 247.942 268.066C247.368 267.428 247.243 267.37 246.195 267.256C244.808 267.105 242.801 267.374 241.664 267.862C240.772 268.246 239.661 269.322 239.662 269.802C239.662 270.289 240.258 271.103 240.906 271.503C241.982 272.167 243.279 272.482 244.973 272.492C246.365 272.5 246.586 272.46 246.929 272.138ZM258.675 270.687C259.057 270.42 259.743 269.869 260.199 269.463L261.028 268.725L260.116 268.169C259.614 267.863 258.509 267.144 257.66 266.571L256.116 265.531L255.942 265.984C255.594 266.897 255.11 269.226 255.242 269.356C255.389 269.5 257.839 271.15 257.926 271.164C257.955 271.168 258.292 270.954 258.675 270.687ZM271.525 269.151C272.724 268.33 275.303 266.254 275.377 266.051C275.399 265.989 274.8 265.69 274.046 265.385C273.292 265.08 271.746 264.363 270.61 263.792L268.546 262.753L267.343 264.197C266.681 264.991 265.608 266.231 264.958 266.952C264.309 267.674 263.777 268.305 263.777 268.354C263.777 268.462 265.102 269.131 267.263 270.114L268.837 270.83L269.592 270.394C270.007 270.155 270.877 269.595 271.525 269.151ZM253.941 267.393C254.035 266.959 254.261 266.125 254.444 265.54L254.777 264.477L254.331 264.128C254.086 263.936 253.446 263.406 252.909 262.949C252.372 262.492 251.679 261.905 251.369 261.645L250.804 261.172L250.808 262.144C250.812 263.129 251.323 265.959 251.58 266.406C251.739 266.681 253.49 268.173 253.661 268.178C253.722 268.182 253.849 267.827 253.943 267.393H253.941ZM263.382 266.31C264.011 265.646 265.111 264.404 265.827 263.549L267.129 261.994L265.411 260.976C263.597 259.9 261.437 258.477 260.427 257.69C260.094 257.43 259.747 257.218 259.656 257.218C259.34 257.218 256.501 263.836 256.742 264.014C256.862 264.103 260.893 266.763 261.698 267.284C261.881 267.403 262.078 267.504 262.134 267.509C262.191 267.513 262.753 266.974 263.382 266.31ZM287.939 265.454C289.481 263.708 291.093 261.44 292.041 259.685L292.72 258.428L290.598 258.331C289.229 258.268 287.833 258.084 286.666 257.812C285.67 257.581 284.796 257.429 284.722 257.474C284.648 257.519 284.086 258.284 283.471 259.173C282.266 260.918 279.934 263.811 279.097 264.6C278.812 264.868 278.58 265.176 278.58 265.284C278.58 265.675 284.447 267.025 285.889 266.966C286.6 266.937 286.682 266.877 287.939 265.454ZM291.858 266.497C292.467 266.312 293.445 265.9 294.031 265.582C295.078 265.014 295.357 265.019 295.379 265.607C295.39 265.932 296.916 263.419 297.8 261.62C298.61 259.969 299.652 257.131 299.94 255.787L300.051 255.269L299.299 255.969C298.368 256.834 296.953 257.601 295.582 257.982L294.54 258.271L293.862 259.613C292.982 261.354 291.028 264.283 289.709 265.84L288.667 267.069L289.709 266.951C290.281 266.886 291.249 266.682 291.858 266.497ZM278.135 263.323C280.447 260.775 283.194 257.098 282.95 256.878C282.879 256.813 282.409 256.627 281.906 256.464C280.664 256.062 277.301 254.675 276.101 254.07L275.122 253.576L273.748 255.605C272.993 256.72 271.75 258.475 270.986 259.503C270.223 260.532 269.598 261.409 269.598 261.453C269.598 261.682 276.084 264.67 276.613 264.685C276.766 264.69 277.451 264.076 278.135 263.323ZM249.294 262.778C249.204 261.867 249.148 260.768 249.168 260.335C249.202 259.594 249.15 259.487 248.254 258.474C247.731 257.883 246.817 256.755 246.223 255.968L245.142 254.536L245.248 255.254C245.492 256.898 245.856 258.401 246.422 260.107C246.974 261.771 247.115 262.021 248.183 263.231C248.821 263.955 249.369 264.522 249.399 264.491C249.43 264.46 249.383 263.689 249.294 262.778ZM232.431 262.85C234.93 261.916 234.937 260.309 232.447 259.23C230.055 258.194 225.358 259.719 225.358 261.531C225.358 262.364 225.836 262.727 227.37 263.059C229.146 263.444 231.053 263.365 232.431 262.85ZM256.296 260.54C256.779 259.398 257.425 257.961 257.731 257.346C258.038 256.732 258.289 256.202 258.289 256.169C258.289 256.135 257.671 255.593 256.917 254.964C256.162 254.335 254.854 253.155 254.009 252.342C253.007 251.376 252.447 250.942 252.397 251.091C251.841 252.741 251.1 256.098 250.897 257.882L250.793 258.796L252.004 259.986C253.602 261.554 255.186 262.867 255.314 262.728C255.371 262.667 255.812 261.682 256.296 260.54ZM211.308 260.846C211.768 260.604 212.703 260.239 213.387 260.034C214.071 259.83 214.655 259.642 214.685 259.617C214.716 259.593 214.653 259.409 214.546 259.21C214.381 258.901 214.262 258.864 213.743 258.96C212.975 259.102 210.925 259.955 210.434 260.336C210.167 260.543 210.092 260.729 210.164 261.004C210.22 261.213 210.312 261.362 210.369 261.335C210.426 261.308 210.848 261.088 211.308 260.846ZM269.316 259.087C270.67 257.297 273.59 253.073 273.59 252.902C273.59 252.843 273.309 252.661 272.966 252.499C271.358 251.738 267.155 248.987 265.178 247.401C264.995 247.254 263.119 250.338 261.227 253.895L260.3 255.64L262.08 256.911C263.519 257.939 267.868 260.706 268.045 260.706C268.07 260.706 268.641 259.977 269.316 259.087ZM250.547 251.855L251.171 249.565L250.732 249.031C249.462 247.484 247.7 245.055 247.073 243.984L246.362 242.771L246.085 243.806C245.589 245.658 245.329 247.13 245.135 249.182L244.945 251.196L245.977 252.836C246.545 253.738 247.541 255.134 248.192 255.937L249.374 257.398L249.649 255.771C249.8 254.877 250.204 253.114 250.547 251.855ZM212.135 256.631L213.3 256.253L213.58 255.365C214.309 253.061 213.575 249.93 211.92 248.283C211.578 247.943 210.589 247.318 209.722 246.893C208.854 246.469 207.882 245.923 207.562 245.681L206.979 245.241L206.927 246.038C206.85 247.204 207.177 250.999 207.485 252.507C207.774 253.928 208.346 255.329 208.97 256.146C209.429 256.746 210.358 257.258 210.722 257.11C210.859 257.055 211.495 256.839 212.135 256.631ZM293.598 256.595C293.647 256.435 293.948 255.594 294.266 254.726C294.798 253.274 295.542 250.278 295.774 248.654L295.87 247.981L294.329 247.787C293.481 247.68 292.126 247.401 291.316 247.166C290.507 246.932 289.833 246.762 289.817 246.788C289.802 246.814 289.541 247.508 289.238 248.33C288.592 250.084 287.043 253.388 286.167 254.881C285.828 255.458 285.573 255.951 285.6 255.976C285.648 256.022 288.755 256.649 289.557 256.775C289.785 256.811 290.768 256.85 291.741 256.863C293.292 256.883 293.52 256.85 293.598 256.595ZM296.94 255.747C297.388 255.507 298.173 254.838 298.685 254.259C299.4 253.451 299.7 253.223 299.979 253.277C300.239 253.326 300.37 253.247 300.443 252.998C300.613 252.411 300.755 247.865 300.63 247.029L300.512 246.243L299.982 246.689C299.353 247.219 298.262 247.74 297.769 247.745C297.46 247.749 297.402 247.878 297.301 248.787C297.086 250.725 296.137 254.495 295.457 256.115C295.345 256.383 295.382 256.409 295.727 256.304C295.946 256.238 296.493 255.987 296.94 255.747ZM286.162 251.486C287.218 249.299 288.41 246.283 288.254 246.191C288.193 246.155 287.485 245.854 286.681 245.523C285.877 245.192 284.4 244.51 283.399 244.009C282.398 243.508 281.521 243.097 281.45 243.097C281.379 243.097 280.877 243.901 280.336 244.883C279.794 245.865 278.616 247.891 277.718 249.384C276.82 250.877 276.085 252.156 276.085 252.226C276.085 252.459 279.233 253.825 282.239 254.897L283.985 255.52L284.632 254.417C284.988 253.81 285.677 252.491 286.162 251.486ZM260.657 251.653C261.209 250.647 262.14 249.024 262.726 248.045L263.791 246.265L263.077 245.647C262.685 245.307 261.263 243.937 259.919 242.602L257.474 240.176L256.474 241.927C255.342 243.906 253.821 247.061 253.359 248.384L253.05 249.269L254.463 250.63C255.241 251.379 256.588 252.6 257.457 253.343L259.037 254.694L259.345 254.087C259.515 253.753 260.105 252.658 260.657 251.653ZM276.649 248.081C278.929 244.283 280.012 242.217 279.765 242.135C279.293 241.978 275.223 239.431 273.766 238.38C272.902 237.757 272.116 237.219 272.02 237.183C271.698 237.065 265.833 245.616 266.025 245.925C266.354 246.457 270.466 249.298 272.845 250.637L274.487 251.561L274.795 251.108C274.965 250.859 275.799 249.497 276.649 248.081ZM252.297 246.793C252.769 245.637 254.68 241.784 255.193 240.954C255.397 240.625 255.762 240.011 256.005 239.589L256.447 238.822L255.78 237.928C254.716 236.505 253.604 234.505 253.036 232.998L252.511 231.604L251.769 232.575C250.115 234.74 248.77 236.97 247.73 239.271L247.125 240.61L247.721 241.849C248.579 243.631 251.434 247.746 251.813 247.748C251.865 247.748 252.083 247.319 252.297 246.793ZM296.042 245.049C296.042 243.577 295.841 241.538 295.522 239.733L295.324 238.612H294.709C294.125 238.612 292.619 238.374 292.03 238.189C291.804 238.118 291.726 238.333 291.562 239.479C291.395 240.656 290.767 243.71 290.455 244.865C290.372 245.173 290.474 245.258 291.211 245.503C292.305 245.866 294.804 246.393 295.502 246.408L296.043 246.42V245.049H296.042ZM299.154 245.22C299.77 244.619 299.885 244.566 300.131 244.769C300.387 244.981 300.399 244.94 300.286 244.256C299.876 241.778 298.476 237.566 298.039 237.495C297.902 237.473 297.578 237.641 297.32 237.87L296.85 238.285L297.123 239.819C297.273 240.663 297.439 242.45 297.492 243.79L297.587 246.227L298.021 246.065C298.259 245.975 298.769 245.595 299.154 245.22ZM265.694 243.243C266.223 242.41 267.548 240.457 268.639 238.904C269.729 237.35 270.56 236.022 270.484 235.952C270.409 235.883 269.776 235.35 269.078 234.769C268.38 234.187 267.16 233.119 266.367 232.396L264.925 231.08L263.92 232.064C262.667 233.29 260.672 235.654 259.396 237.427L258.423 238.776L259.562 240.05C260.753 241.382 264.363 244.759 264.597 244.759C264.671 244.759 265.165 244.077 265.694 243.243ZM289.283 243.014C289.608 241.728 290.222 238.275 290.222 237.738C290.222 237.692 289.792 237.482 289.265 237.272C288.74 237.062 287.562 236.534 286.65 236.1C285.737 235.666 284.984 235.324 284.976 235.341C284.969 235.359 284.639 236.12 284.244 237.034C283.848 237.947 283.198 239.348 282.798 240.146L282.072 241.597L283.111 242.128C284.21 242.689 288.788 244.746 288.836 244.701C288.852 244.686 289.053 243.927 289.283 243.014ZM281.301 239.65C282.094 238.071 283.614 234.614 283.544 234.55C283.512 234.52 282.85 234.121 282.072 233.663C281.295 233.204 279.91 232.297 278.995 231.647L277.332 230.464L276.694 231.174C274.68 233.416 272.942 235.691 273.099 235.881C273.585 236.465 280.197 240.772 280.61 240.772C280.68 240.772 280.991 240.267 281.301 239.65ZM258.218 236.343C259.222 234.938 261.051 232.749 262.599 231.099L263.803 229.815L262.803 228.441C262.253 227.684 261.566 226.561 261.277 225.945C260.988 225.328 260.716 224.824 260.672 224.824C260.628 224.824 260.055 225.169 259.399 225.591C257.937 226.531 256.213 227.895 254.857 229.185C253.846 230.147 253.838 230.161 253.984 230.808C254.2 231.771 254.916 233.601 255.41 234.457C255.906 235.315 257.312 237.449 257.381 237.449C257.407 237.449 257.784 236.951 258.218 236.343ZM294.788 236.743C294.425 235.547 293.033 232.495 292.621 231.992C292.594 231.961 292.362 232.059 292.104 232.211L291.636 232.487L291.941 236.584L293.036 236.834C294.676 237.209 294.925 237.196 294.788 236.743ZM296.708 236.193C296.708 235.904 297.066 235.88 297.338 236.151C298.231 237.043 296.551 233.949 295.004 231.851C294.478 231.138 293.779 230.256 293.451 229.891L292.855 229.226L293.241 229.891C294.636 232.289 295.053 233.108 295.583 234.487C295.91 235.34 296.222 236.173 296.276 236.338C296.385 236.675 296.708 236.566 296.708 236.193ZM290.147 233.213C290.06 232.751 289.94 232.677 288.516 232.206C287.67 231.926 286.859 231.642 286.713 231.575C286.499 231.476 286.364 231.683 286.026 232.631L285.605 233.81L286.625 234.327C287.185 234.612 288.205 235.09 288.891 235.391L290.139 235.936L290.19 234.824C290.218 234.212 290.199 233.487 290.147 233.213ZM273.572 232.383C274.248 231.56 275.092 230.583 275.447 230.212L276.093 229.537L274.634 228.243C273.831 227.532 272.926 226.66 272.624 226.307L272.073 225.663L270.742 226.488C269.343 227.354 267.771 228.504 266.739 229.414L266.125 229.956L267.557 231.309C268.344 232.054 269.59 233.148 270.325 233.741L271.661 234.819L272.002 234.349C272.189 234.09 272.896 233.205 273.572 232.383ZM284.661 231.774L285.028 230.686L284.293 230.329C283.889 230.133 282.873 229.479 282.035 228.876C281.197 228.273 280.423 227.745 280.316 227.704C280.208 227.663 279.724 227.993 279.239 228.438L278.358 229.247L279.714 230.202C281.716 231.611 283.94 232.979 284.129 232.916C284.219 232.886 284.459 232.372 284.661 231.774ZM289.723 230.799C289.723 230.705 289.495 230.036 289.216 229.314C288.757 228.127 288.652 227.982 288.124 227.808C287.802 227.702 287.501 227.652 287.455 227.698C287.381 227.772 286.916 229.562 286.901 229.831C286.895 229.95 287.042 230.019 288.475 230.57C289.63 231.013 289.723 231.03 289.723 230.799ZM294.481 229.018C293.354 227.587 291.071 225.209 291.062 225.455C291.055 225.627 294.982 229.924 295.181 229.963C295.21 229.969 294.895 229.544 294.481 229.018ZM285.708 228.202C285.972 226.892 285.971 226.889 285.274 226.469C284.931 226.262 284.365 225.872 284.016 225.602C283.303 225.05 283.101 225.092 282.035 226.009L281.49 226.477L281.906 226.819C282.487 227.298 285.266 229.143 285.405 229.143C285.468 229.143 285.604 228.719 285.708 228.202ZM266.414 227.619C267.113 227.056 268.419 226.113 269.315 225.525C270.212 224.937 270.92 224.408 270.889 224.349C270.267 223.164 269.765 222.02 269.765 221.789C269.765 221.571 269.668 221.516 269.39 221.576C265.864 222.339 262.28 223.673 262.28 224.223C262.28 224.865 264.643 228.645 265.044 228.645C265.097 228.645 265.714 228.183 266.414 227.619ZM278.328 225.617C277.925 225.17 277.501 224.543 277.386 224.224C277.204 223.722 277.119 223.656 276.755 223.739C276.061 223.896 273.59 224.863 273.59 224.978C273.59 225.112 275.048 226.515 276.247 227.535L277.158 228.311L279.06 226.43L278.328 225.617ZM281.01 224.809C281.366 224.527 281.769 224.232 281.906 224.153C282.339 223.906 281.567 223.306 280.688 223.207C279.838 223.111 278.746 223.269 278.746 223.487C278.746 223.694 280.057 225.322 280.224 225.322C280.301 225.322 280.654 225.091 281.01 224.809ZM274.163 223.015C275.083 222.66 276.247 222.273 276.75 222.155C278.387 221.771 278.313 221.567 276.453 221.34C274.77 221.134 271.553 221.154 271.336 221.372C271.148 221.56 272.136 223.651 272.416 223.659C272.457 223.659 273.243 223.371 274.163 223.015ZM291.345 219.402L291.665 218.964L290.736 218.476C290.224 218.209 289.656 217.856 289.473 217.694C288.971 217.247 288.759 217.159 288.641 217.349C288.538 217.516 290.646 219.84 290.901 219.84C290.969 219.84 291.17 219.643 291.345 219.402ZM306.892 249.078C306.892 248.758 306.927 248.627 306.968 248.787C307.01 248.947 307.01 249.208 306.968 249.368C306.927 249.528 306.892 249.397 306.892 249.078Z" fill="currentcolor"/>

</svg>
