<svg xmlns="http://www.w3.org/2000/svg" xmlns:xlink="http://www.w3.org/1999/xlink"><defs><style>
    .sprite-symbol-usage {display: none;}
    .sprite-symbol-usage:target {display: inline;}
  </style><symbol fill="currentcolor" viewBox="0 0 20 20" id="arrow"><path d="M9.413 16.288a.937.937 0 0 0 0-1.328l-4.022-4.023h11.484a.938.938 0 0 0 0-1.875H5.39l4.022-4.024A.94.94 0 0 0 8.085 3.71L2.46 9.335a.938.938 0 0 0 0 1.328l5.625 5.625a.937.937 0 0 0 1.328 0Z" /></symbol><symbol viewBox="0 0 50 50" fill="none" id="bell"><g clip-path="url(#bell_a)"><path d="M20.063 36.523c1.274 1.273.439 3.454-1.359 3.554a8.316 8.316 0 0 1-6.354-2.43 8.316 8.316 0 0 1-2.427-6.351c.096-1.721 2.094-2.558 3.383-1.513l.171.154 6.585 6.586ZM41.814 8.185c2 2 2.362 5.021 1.083 7.39l-.188.319-.05.075a16.694 16.694 0 0 1-3.012 14.868l-.381.465-.398.454-4.319 4.317-.167.233a6.25 6.25 0 0 0-1.04 4.402l.074.419.093.386c.55 1.983-1.777 3.427-3.302 2.189l-.179-.163L6.46 19.971c-1.514-1.515-.035-4.052 2.027-3.482a6.25 6.25 0 0 0 5.209-.87l.242-.18 4.376-4.374A16.667 16.667 0 0 1 33.45 7.19l.58.147.076-.047a6.256 6.256 0 0 1 7.15.4l.292.243.267.252Z" fill="#F4F4F4" /></g></symbol><clipPath id="bell_a"><rect fill="#fff" /></clipPath><symbol viewBox="0 0 20 20" fill="none" id="camera"><path d="m7.833 8.75 3.975-6.883a8.32 8.32 0 0 0-7.075 1.675l3.05 5.291.05-.083ZM17.95 7.5a8.354 8.354 0 0 0-5-5.283L9.9 7.5h8.05Zm.216.833h-6.241l.241.417 3.967 6.875a8.259 8.259 0 0 0 2.2-5.625c0-.575-.058-1.125-.166-1.667ZM7.116 10l-3.25-5.625a8.298 8.298 0 0 0-2.033 7.292h6.242L7.117 10ZM2.05 12.5a8.354 8.354 0 0 0 5 5.283L10.1 12.5H2.05Zm9.392 0-3.25 5.633a8.32 8.32 0 0 0 7.075-1.675l-3.05-5.291-.776 1.333Z" fill="#4B9FEC" /></symbol><symbol viewBox="0 0 20 20" fill="none" id="chat"><path d="M10 2.5a7.5 7.5 0 0 0-6.587 11.09l-.888 3.113a.625.625 0 0 0 .798.765l2.922-.974A7.5 7.5 0 1 0 10 2.5ZM7.5 8.75a.625.625 0 0 1 .625-.625h3.75a.625.625 0 0 1 0 1.25h-3.75A.625.625 0 0 1 7.5 8.75Zm.625 1.875h2.5a.625.625 0 1 1 0 1.25h-2.5a.625.625 0 1 1 0-1.25Z" fill="#4B9FEC" /></symbol><symbol viewBox="0 0 30 30" fill="none" id="confetti"><path d="M3.11 25.5c.1-.254.285-.721.477-1.186.12-.29.269-.569.375-.864.233-.64.42-1.299.675-1.931.342-.849.75-1.672 1.093-2.52.343-.85.636-1.75.977-2.616.241-.61.543-1.197.786-1.806.1-.257.19-.496-.1-.796-.212-.22-.561-.602-.301-1.003.26-.402.556-.857 1.144-.677.291.098.556.262.773.48 2.857 2.835 5.704 5.678 8.543 8.529.627.63.747 1.255-.13 1.837-.525.348-.766-.139-1.138-.233-.2-.051-.432-.215-.594-.16-.58.192-1.134.457-1.698.694l-1.822.762c-.66.275-1.315.56-1.977.826-.338.136-.695.23-1.033.367-.669.272-1.327.566-1.992.844-.293.122-.594.225-.889.34-.502.2-.987.424-1.496.588-.794.253-1.736-.413-1.673-1.475ZM26.978 3.999v2.078h-2.964c0 .727-.027 1.405.006 2.08.041.828-.954 1.913-1.768 1.85-.382-.03-.925-.072-1.12.142-.21.23-.075.757-.126 1.148-.107.81-.683 1.617-1.455 1.648-1.092.044-1.806.577-2.45 1.364-.39.478-.847.903-1.304 1.373-.419-.35-.835-.667-1.204-1.031-.096-.094-.125-.413-.043-.502a56.675 56.675 0 0 1 1.95-2.099c.513-.526 1.138-.875 1.885-.88.476 0 .556-.231.61-.637.067-.507.162-1.04.384-1.494.329-.673.957-.903 1.705-.897.856.01.822-.025.868-.889a9.39 9.39 0 0 1 .29-2.038c.125-.44.51-.746.99-.939 1.219-.487 2.46-.132 3.746-.277ZM13.014 12.622v-1.981c0-.817.009-1.634 0-2.45-.011-.762-.433-1.162-1.204-1.174-.45-.006-.904 0-1.35-.01-.672-.02-1.21-.447-1.349-1.053-.137-.56.142-1.389.622-1.616.37-.162.761-.266 1.162-.308a4.916 4.916 0 0 1 2.43.3 2.542 2.542 0 0 1 1.432 1.405c.425.99.308 1.963.08 2.992a13.524 13.524 0 0 1-1.277 3.422 4.302 4.302 0 0 1-.39.531l-.156-.058ZM17.401 16.905c.32-.208.616-.482.965-.613 1.125-.419 2.249-.873 3.412-1.149 1.138-.268 2.317-.188 3.262.624.394.34.663.808.824 1.374.182.64.201 1.26.216 1.9.013.749-.186 1.421-.892 1.77-.321.159-.787.252-1.104.14-.423-.15-.929-.39-.967-.975-.033-.514 0-1.033-.042-1.546-.02-.264-.138-.521-.208-.782-.122-.455-.462-.562-.876-.561h-4.52l-.07-.182ZM22.903 23.524a2.728 2.728 0 0 1-.26.411c-.2.217-.412.415-.625.617-.501.475-.527.477-.979-.006-.232-.248-.407-.574-.681-.75-.354-.224-.209-.377-.026-.567.286-.301.578-.59.87-.88.247-.245.47-.225.703.036.233.26.512.492.756.75.094.121.175.252.242.389ZM5.551 5.132c.201.167.38.288.527.438.251.254.447.579.733.773.286.195.16.316.025.465-.212.232-.442.447-.663.67-.588.59-.72.587-1.257-.023-.059-.068-.126-.13-.19-.194-.61-.618-.638-.724-.05-1.319.271-.274.566-.524.875-.81ZM5.042 12.602c-.32.331-.539.568-.768.796-.677.678-.724.648-1.304.058-.046-.046-.094-.091-.14-.138-.933-.97-.845-.563.059-1.537.678-.73.73-.689 1.474.056.23.23.433.486.679.765ZM23.899 12.606c.535-.514.935-.88 1.314-1.266.214-.218.383-.232.592 0 .366.415.75.815 1.22 1.321-.372.33-.772.724-1.221 1.054-.132.1-.458.09-.596-.008-.44-.311-.834-.691-1.31-1.1ZM18.562 6.265c-.513-.569-.868-.987-1.252-1.378-.218-.22-.244-.375 0-.59.41-.355.796-.737 1.234-1.145.368.35.816.735 1.204 1.175.086.1.026.429-.077.573-.313.444-.682.85-1.11 1.365Z" fill="#fff" /></symbol><symbol fill="currentcolor" viewBox="0 0 50 50" id="crown"><path d="M10.417 33.333 6.25 10.417l11.458 10.416L25 8.333l7.292 12.5L43.75 10.417l-4.167 22.916H10.417Zm29.166 6.25c0 1.25-.833 2.084-2.083 2.084h-25c-1.25 0-2.083-.834-2.083-2.084V37.5h29.166v2.083Z" /></symbol><symbol viewBox="0 0 30 30" fill="none" id="crown-small"><path d="M28.575 8.929a1.416 1.416 0 0 0-1.563-.2l-5.884 2.93-4.913-8.16a1.42 1.42 0 0 0-2.43 0l-4.913 8.163-5.881-2.93a1.42 1.42 0 0 0-1.98 1.712l4.335 13.284a.937.937 0 0 0 1.369.516C6.745 24.226 9.74 22.5 15 22.5c5.26 0 8.256 1.726 8.283 1.743a.939.939 0 0 0 1.372-.515l4.336-13.28a1.414 1.414 0 0 0-.416-1.52Zm-7.969 9.446a.938.938 0 0 1-1.086.76 26.746 26.746 0 0 0-9.05 0 .938.938 0 1 1-.325-1.846 28.64 28.64 0 0 1 9.7 0 .936.936 0 0 1 .766 1.086h-.005Z" fill="#fff" /></symbol><symbol viewBox="0 0 24 24" fill="none" id="mail"><path d="M4 20c-.55 0-1.021-.196-1.413-.588A1.922 1.922 0 0 1 2 18V6c0-.55.196-1.021.588-1.413A1.922 1.922 0 0 1 4 4h16c.55 0 1.021.196 1.413.588.392.392.588.863.587 1.412v12c0 .55-.196 1.021-.588 1.413A1.922 1.922 0 0 1 20 20H4Zm8-7L4 8v10h16V8l-8 5Zm0-2 8-5H4l8 5ZM4 8V6v12V8Z" fill="#F4F4F4" /></symbol><symbol viewBox="0 0 24 24" fill="none" id="mark"><path d="M12 2.25c-3.727 0-6.75 2.878-6.75 6.422 0 4.078 4.5 10.54 6.152 12.773a.739.739 0 0 0 1.196 0c1.652-2.231 6.152-8.692 6.152-12.773 0-3.544-3.023-6.422-6.75-6.422Z" stroke="#F4F4F4" stroke-width="2" stroke-linecap="round" stroke-linejoin="round" /><path d="M12 11.25a2.25 2.25 0 1 0 0-4.5 2.25 2.25 0 0 0 0 4.5Z" stroke="#F4F4F4" stroke-width="2" stroke-linecap="round" stroke-linejoin="round" /></symbol><symbol viewBox="0 0 20 20" fill="none" id="payment"><path d="M16.667 6.667H3.333V5h13.334m0 10H3.333v-5h13.334m0-6.667H3.333A1.66 1.66 0 0 0 1.667 5v10a1.667 1.667 0 0 0 1.666 1.667h13.334A1.667 1.667 0 0 0 18.333 15V5a1.667 1.667 0 0 0-1.666-1.667Z" fill="#4B9FEC" /></symbol><symbol viewBox="0 0 24 24" fill="currentcolor" id="phone"><path d="m19 5-4 4m0 0V6m0 3h3" stroke="currentcolor" stroke-width="1.5" stroke-linecap="round" stroke-linejoin="round" /><path d="m15.556 14.548-.455.48s-1.083 1.139-4.038-1.972c-2.955-3.111-1.872-4.25-1.872-4.25l.287-.303c.706-.744.773-1.938.156-2.81L8.374 3.91C7.61 2.83 6.135 2.688 5.26 3.609L3.691 5.26c-.433.457-.723 1.048-.688 1.705.09 1.68.808 5.293 4.812 9.51 4.247 4.47 8.232 4.648 9.861 4.487.516-.05.964-.329 1.325-.709l1.42-1.496c.96-1.01.69-2.74-.538-3.446l-1.91-1.1c-.806-.463-1.787-.327-2.417.336v.001Z" /></symbol><symbol viewBox="0 0 30 30" fill="none" id="rings"><path d="M12.198 9.986c.556-.045.925.398 1.357.69.163.117.3.267.402.44.096.16.224.394.171.532-.226.597-.517 1.17-.777 1.756a.86.86 0 0 0-.071.336c-.007.884-.066 1.773.02 2.648.046.48.38.924.518 1.404.175.607.528 1.082.92 1.555.75.906 1.638 1.59 2.746 2.028.976.386 1.961.65 2.999.517.67-.086 1.326-.296 1.975-.494 1.348-.415 2.36-1.295 3.13-2.449.327-.49.624-1.023.81-1.579.23-.678.44-1.397.453-2.103.013-.76-.162-1.535-.35-2.278a4.188 4.188 0 0 0-.65-1.402c-.49-.677-1.017-1.346-1.63-1.907-.727-.663-1.636-.998-2.6-1.27-.78-.22-1.529-.188-2.296-.206-.129-.003-.29-.003-.382.067-.41.307-.658.102-.94-.211-.36-.399-.776-.748-1.162-1.122-.125-.122-.23-.265-.35-.404 2.43-1.468 7.128-.853 9.652 1.48 4.115 3.8 3.904 9.084 1.386 12.575a8.984 8.984 0 0 1-4.049 3.134c-2.147.844-4.352.908-6.485.175-2.738-.943-4.733-2.864-5.709-5.604-1.012-2.841-.75-5.655.912-8.308Z" fill="#fff" /><path d="M13.61 23.637c-4.592 1.86-8.979.058-11.277-3.422-2.578-3.906-1.82-8.263.585-11.117 3.344-3.968 7.85-3.743 10.29-2.845a9.583 9.583 0 0 1 3.412 2.16c1.02.992 1.775 2.157 2.224 3.439a9.356 9.356 0 0 1 .467 4.248c-.175 1.458-.7 2.727-1.38 4.01-.57.072-.922-.393-1.358-.651-.178-.106-.327-.294-.436-.476-.095-.16-.207-.4-.153-.544.235-.633.57-1.229.783-1.867.117-.35.075-.757.082-1.14.01-.466.064-.946-.026-1.396-.116-.587-.377-1.143-.532-1.725-.163-.612-.522-1.086-.918-1.555-.754-.898-1.618-1.603-2.735-2.032-.98-.376-1.958-.619-3.002-.529-.957.083-1.837.39-2.713.81-1.066.513-1.866 1.301-2.504 2.224-.537.778-.88 1.677-1.058 2.658-.166.915-.086 1.788.08 2.653.123.643.402 1.275.708 1.858.534 1.016 1.308 1.852 2.302 2.424.603.345 1.297.526 1.931.819.69.318 1.414.293 2.137.259.286-.014.567-.158.852-.166.213-.006.484.049.633.183.532.476 1.024.996 1.526 1.505.042.04.046.117.08.215Z" fill="#fff" /></symbol><symbol viewBox="0 0 50 50" fill="currentcolor" id="school"><path d="M33.333 16.667A8.331 8.331 0 0 1 25 25a8.331 8.331 0 0 1-8.333-8.333l.229-1.959-6.48-3.25L25 4.167l14.583 7.291v10.417H37.5V12.5l-4.396 2.208.23 1.959ZM25 29.167c9.208 0 16.667 3.729 16.667 8.333v4.167H8.333V37.5c0-4.604 7.459-8.333 16.667-8.333Z" /></symbol><symbol viewBox="0 0 50 50" fill="currentcolor" id="school-2"><path d="M18.473 12.157 10.353 10l1.477-5.433a1.683 1.683 0 0 1 2.06-1.174L18.757 4.7a1.668 1.668 0 0 1 1.183 2.043l-1.467 5.414ZM3.407 36.677a1.653 1.653 0 0 1-.017-.92l6.063-22.42 8.117 2.156-6.063 22.42a1.664 1.664 0 0 1-.477.79l-4.857 4.49a.506.506 0 0 1-.823-.22l-1.943-6.296Zm29.926-20.01c-7.5 0-10-2.5-10-10 7.5 0 10 2.5 10 10ZM28.667 43.28c-4.567.7-10.42-5.687-11.734-12.667l2.964-10.946a7.153 7.153 0 0 1 4.73-1.777 9.033 9.033 0 0 1 5.213 1.63 3.213 3.213 0 0 0 3.63-.033 8.127 8.127 0 0 1 4.867-1.597c2.566 0 5.476 1.63 6.833 4.003 5.12 8.987-3.98 22.364-10.48 21.39a2.891 2.891 0 0 1-.85-.31 4.756 4.756 0 0 0-4.34 0c-.26.145-.541.248-.833.307Z" /></symbol><symbol viewBox="0 0 20 20" fill="none" id="star"><path d="m4.854 18.333 1.354-5.854-4.541-3.937 6-.521L10 2.5l2.333 5.52 6 .522-4.541 3.937 1.354 5.854L10 15.23l-5.146 3.104Z" fill="#4B9FEC" /></symbol><symbol viewBox="0 0 20 20" fill="currentcolor" id="store"><path d="M3.333 5V3.333h13.334V5H3.333Zm0 11.667v-5H2.5V10l.833-4.167h13.334L17.5 10v1.667h-.833v5H15v-5h-3.333v5H3.333ZM5 15h5v-3.333H5V15Z" /></symbol><symbol viewBox="0 0 40 40" fill="none" id="telegram"><circle cx="20" cy="20" r="16.667" fill="#fff" /><path d="M20 3.333C10.8 3.333 3.333 10.8 3.333 20c0 9.2 7.467 16.667 16.667 16.667 9.2 0 16.667-7.467 16.667-16.667C36.667 10.8 29.2 3.333 20 3.333Zm7.733 11.334C27.483 17.3 26.4 23.7 25.85 26.65c-.233 1.25-.7 1.667-1.133 1.717-.967.083-1.7-.634-2.634-1.25-1.466-.967-2.3-1.567-3.716-2.5-1.65-1.084-.584-1.684.366-2.65.25-.25 4.517-4.134 4.6-4.484a.333.333 0 0 0-.083-.3c-.1-.083-.233-.05-.35-.033-.15.033-2.483 1.583-7.033 4.65-.667.45-1.267.683-1.8.667-.6-.017-1.734-.334-2.584-.617-1.05-.333-1.866-.517-1.8-1.1.034-.3.45-.6 1.234-.917 4.866-2.116 8.1-3.516 9.716-4.183 4.634-1.933 5.584-2.267 6.217-2.267.133 0 .45.034.65.2a.661.661 0 0 1 .233.45c-.016.1.017.4 0 .634Z" fill="#31B0E6" /></symbol><symbol viewBox="0 0 40 40" fill="none" id="whatsapp"><circle cx="20" cy="20" r="16.667" fill="#fff" /><path d="M20.002 3.333c9.205 0 16.666 7.462 16.666 16.667 0 9.205-7.461 16.667-16.666 16.667a16.59 16.59 0 0 1-8.384-2.259l-8.276 2.259 2.253-8.28A16.588 16.588 0 0 1 3.335 20c0-9.205 7.462-16.667 16.667-16.667Zm-5.68 8.834-.334.013c-.215.013-.426.07-.62.167-.18.102-.345.23-.49.38-.2.188-.313.351-.435.51a4.55 4.55 0 0 0-.943 2.796c.003.817.217 1.612.55 2.355.682 1.504 1.803 3.095 3.283 4.57.357.355.707.712 1.084 1.044a15.744 15.744 0 0 0 6.4 3.41l.946.145c.309.016.617-.007.927-.022.485-.025.96-.157 1.388-.385.219-.112.432-.235.639-.367 0 0 .071-.046.208-.15.225-.166.363-.285.55-.48.138-.143.258-.311.35-.503.13-.272.26-.79.313-1.222.04-.33.029-.51.024-.621-.007-.179-.155-.364-.317-.442l-.97-.435s-1.45-.632-2.337-1.035a.83.83 0 0 0-.293-.068.804.804 0 0 0-.63.211c-.008-.003-.12.092-1.325 1.552a.583.583 0 0 1-.613.217 2.375 2.375 0 0 1-.319-.11c-.206-.087-.278-.12-.42-.18a10.043 10.043 0 0 1-2.625-1.672c-.21-.183-.405-.383-.605-.577a10.494 10.494 0 0 1-1.7-2.113l-.098-.158a1.539 1.539 0 0 1-.17-.342c-.063-.245.102-.442.102-.442s.405-.443.593-.683a7.13 7.13 0 0 0 .438-.622c.197-.316.259-.641.155-.893-.466-1.14-.95-2.275-1.446-3.402-.099-.223-.39-.383-.655-.415-.09-.01-.18-.02-.27-.026a5.657 5.657 0 0 0-.672.006l.335-.013.002.002Z" fill="#5FC92D" /></symbol><symbol fill="none" viewBox="0 0 100 100" id="zoom"><path d="M70.833 70.833 60.417 60.417m-18.75-39.584L50 12.5l8.333 8.333m20.834 20.834L87.5 50l-8.333 8.333M20.833 41.667 12.5 50l8.333 8.333m20.834 20.834L50 87.5l8.333-8.333M37.5 50a12.5 12.5 0 1 0 25 0 12.5 12.5 0 0 0-25 0Z" stroke="#F4F4F4" stroke-width="5" stroke-linecap="round" stroke-linejoin="round" /></symbol></defs><use id="arrow-usage" xlink:href="#arrow" class="sprite-symbol-usage" /><use id="bell-usage" xlink:href="#bell" class="sprite-symbol-usage" /><use id="camera-usage" xlink:href="#camera" class="sprite-symbol-usage" /><use id="chat-usage" xlink:href="#chat" class="sprite-symbol-usage" /><use id="confetti-usage" xlink:href="#confetti" class="sprite-symbol-usage" /><use id="crown-usage" xlink:href="#crown" class="sprite-symbol-usage" /><use id="crown-small-usage" xlink:href="#crown-small" class="sprite-symbol-usage" /><use id="mail-usage" xlink:href="#mail" class="sprite-symbol-usage" /><use id="mark-usage" xlink:href="#mark" class="sprite-symbol-usage" /><use id="payment-usage" xlink:href="#payment" class="sprite-symbol-usage" /><use id="phone-usage" xlink:href="#phone" class="sprite-symbol-usage" /><use id="rings-usage" xlink:href="#rings" class="sprite-symbol-usage" /><use id="school-usage" xlink:href="#school" class="sprite-symbol-usage" /><use id="school-2-usage" xlink:href="#school-2" class="sprite-symbol-usage" /><use id="star-usage" xlink:href="#star" class="sprite-symbol-usage" /><use id="store-usage" xlink:href="#store" class="sprite-symbol-usage" /><use id="telegram-usage" xlink:href="#telegram" class="sprite-symbol-usage" /><use id="whatsapp-usage" xlink:href="#whatsapp" class="sprite-symbol-usage" /><use id="zoom-usage" xlink:href="#zoom" class="sprite-symbol-usage" /></svg>